<svg width="1920" height="1080" viewBox="0 0 1920 1080" fill="none" xmlns="http://www.w3.org/2000/svg">
<g id="morphism">
<rect width="1920" height="1080" fill="white"/>
<g id="Group 125">
<g id="Group 121">
<path id="p" d="M596.7 681.431C598.212 681.431 599.523 681.75 600.632 682.388C601.774 683.027 602.698 683.867 603.404 684.908C604.143 685.95 604.68 687.059 605.016 688.235C605.386 689.377 605.571 690.486 605.571 691.561C605.571 693.14 605.235 694.652 604.563 696.097C603.891 697.508 603 698.768 601.892 699.877C600.783 700.952 599.54 701.809 598.162 702.448C596.818 703.086 595.457 703.405 594.08 703.405C593.441 703.405 592.803 703.338 592.164 703.204C591.526 703.103 591.005 702.985 590.602 702.851C590.602 702.851 590.568 702.901 590.501 703.002C590.434 703.136 590.4 703.304 590.4 703.506V708.244C590.4 708.983 590.4 709.672 590.4 710.31C590.434 710.982 590.518 711.52 590.652 711.923C590.72 712.091 590.955 712.225 591.358 712.326C591.795 712.46 592.248 712.544 592.719 712.578C593.223 712.645 593.576 712.679 593.777 712.679C593.878 712.813 593.928 713.048 593.928 713.384C593.962 713.754 593.912 714.006 593.777 714.14C592.769 714.073 591.879 714.006 591.106 713.939C590.333 713.905 589.46 713.888 588.485 713.888C587.544 713.888 586.688 713.905 585.915 713.939C585.176 714.006 584.302 714.073 583.294 714.14C583.16 714.006 583.092 713.754 583.092 713.384C583.126 713.048 583.193 712.813 583.294 712.679C583.496 712.679 583.832 712.645 584.302 712.578C584.772 712.544 585.226 712.46 585.663 712.326C586.1 712.225 586.335 712.091 586.368 711.923C586.503 711.52 586.57 710.982 586.57 710.31C586.604 709.672 586.62 708.983 586.62 708.244V688.134C586.62 687.798 586.604 687.361 586.57 686.824C586.57 686.286 586.503 685.866 586.368 685.564C586.268 685.261 585.982 685.06 585.512 684.959C585.041 684.824 584.571 684.757 584.1 684.757C583.63 684.724 583.328 684.707 583.193 684.707C583.16 684.64 583.126 684.438 583.092 684.102C583.059 683.766 583.092 683.531 583.193 683.396C584.47 683.228 585.713 682.976 586.923 682.64C588.166 682.304 589.275 681.868 590.249 681.33C590.384 681.33 590.501 681.431 590.602 681.632C590.703 681.834 590.753 682.002 590.753 682.136C590.72 682.304 590.652 682.64 590.552 683.144C590.451 683.615 590.4 683.951 590.4 684.152C590.4 684.287 590.434 684.354 590.501 684.354C590.535 684.354 590.585 684.32 590.652 684.253C591.056 683.884 591.61 683.48 592.316 683.044C593.021 682.607 593.76 682.237 594.533 681.935C595.34 681.599 596.062 681.431 596.7 681.431ZM594.584 684.354C593.912 684.354 593.256 684.472 592.618 684.707C591.98 684.908 591.442 685.16 591.005 685.463C590.602 685.765 590.4 686.034 590.4 686.269V698.063C590.4 698.903 590.652 699.592 591.156 700.129C591.694 700.667 592.316 701.07 593.021 701.339C593.76 701.574 594.416 701.692 594.987 701.692C596.364 701.692 597.524 701.288 598.464 700.482C599.439 699.642 600.178 698.584 600.682 697.307C601.186 696.03 601.438 694.736 601.438 693.426C601.438 690.503 600.766 688.268 599.422 686.723C598.078 685.144 596.465 684.354 594.584 684.354Z" fill="black"/>
<path id="Vector 77" d="M720.63 694.961L702.63 684.569V705.353L720.63 694.961ZM629.91 694.961V696.761H704.43V694.961V693.161H629.91V694.961Z" fill="black"/>
<path id="a" d="M678.147 674.842C676.643 674.842 675.571 674.458 674.931 673.69C674.291 672.922 673.891 671.962 673.731 670.81H673.491C672.947 672.25 672.067 673.386 670.851 674.218C669.667 675.018 668.067 675.418 666.051 675.418C663.459 675.418 661.395 674.746 659.859 673.402C658.323 672.058 657.555 670.218 657.555 667.882C657.555 665.578 658.387 663.802 660.051 662.554C661.747 661.306 664.467 660.682 668.211 660.682H673.491V658.234C673.491 656.41 672.979 655.05 671.955 654.154C670.931 653.226 669.475 652.762 667.587 652.762C665.923 652.762 664.563 653.098 663.507 653.77C662.451 654.41 661.603 655.29 660.963 656.41L658.371 654.49C658.691 653.85 659.123 653.226 659.667 652.618C660.211 652.01 660.883 651.482 661.683 651.034C662.483 650.554 663.395 650.186 664.419 649.93C665.443 649.642 666.579 649.498 667.827 649.498C670.739 649.498 673.043 650.234 674.739 651.706C676.467 653.178 677.331 655.226 677.331 657.85V671.482H680.787V674.842H678.147ZM666.723 672.202C667.715 672.202 668.611 672.09 669.411 671.866C670.243 671.61 670.963 671.29 671.571 670.906C672.179 670.49 672.643 670.01 672.963 669.466C673.315 668.89 673.491 668.282 673.491 667.642V663.562H668.211C665.907 663.562 664.227 663.882 663.171 664.522C662.115 665.162 661.587 666.09 661.587 667.306V668.314C661.587 669.594 662.035 670.57 662.931 671.242C663.859 671.882 665.123 672.202 666.723 672.202Z" fill="black"/>
<path id="q" d="M751.972 681.431C752.476 681.431 753.081 681.532 753.786 681.733C754.492 681.935 755.214 682.153 755.953 682.388C756.693 682.59 757.331 682.691 757.869 682.691C758.205 682.691 758.524 682.64 758.826 682.54C758.994 682.54 759.145 682.691 759.28 682.993C759.414 683.262 759.481 683.464 759.481 683.598C759.246 684.102 759.078 684.724 758.977 685.463C758.91 686.168 758.877 686.773 758.877 687.277V708.294C758.877 709.033 758.877 709.722 758.877 710.36C758.91 711.032 758.994 711.57 759.129 711.973C759.196 712.141 759.431 712.276 759.834 712.376C760.271 712.511 760.725 712.595 761.195 712.628C761.665 712.696 762.001 712.729 762.203 712.729C762.304 712.864 762.354 713.099 762.354 713.435C762.388 713.804 762.337 714.056 762.203 714.191C761.195 714.124 760.305 714.056 759.532 713.989C758.793 713.956 757.936 713.939 756.961 713.939C756.021 713.939 755.164 713.956 754.391 713.989C753.618 714.056 752.728 714.124 751.72 714.191C751.585 714.056 751.518 713.804 751.518 713.435C751.552 713.099 751.619 712.864 751.72 712.729C751.921 712.729 752.257 712.696 752.728 712.628C753.232 712.595 753.702 712.511 754.139 712.376C754.576 712.276 754.811 712.141 754.845 711.973C754.979 711.57 755.046 711.032 755.046 710.36C755.08 709.722 755.097 709.033 755.097 708.294V701.036C755.097 700.902 755.063 700.768 754.996 700.633C754.962 700.465 754.878 700.432 754.744 700.532C754.509 700.734 754.021 701.07 753.282 701.54C752.577 701.977 751.787 702.397 750.913 702.8C750.073 703.17 749.301 703.355 748.595 703.355C747.184 703.355 745.924 703.036 744.815 702.397C743.74 701.759 742.833 700.936 742.093 699.928C741.354 698.92 740.783 697.828 740.38 696.652C740.01 695.476 739.825 694.333 739.825 693.224C739.825 691.544 740.195 689.982 740.934 688.537C741.707 687.092 742.698 685.849 743.908 684.808C745.151 683.732 746.478 682.909 747.889 682.338C749.301 681.733 750.661 681.431 751.972 681.431ZM750.51 683.195C749.368 683.195 748.377 683.48 747.537 684.052C746.697 684.623 746.008 685.345 745.47 686.219C744.966 687.059 744.58 687.949 744.311 688.89C744.076 689.831 743.958 690.688 743.958 691.46C743.958 694.35 744.647 696.568 746.025 698.113C747.402 699.625 749.116 700.381 751.165 700.381C752.14 700.381 753.03 700.146 753.837 699.676C754.677 699.205 755.097 698.785 755.097 698.416V686.672C755.097 685.967 754.861 685.362 754.391 684.858C753.921 684.32 753.333 683.917 752.627 683.648C751.955 683.346 751.249 683.195 750.51 683.195Z" fill="black"/>
</g>
<g id="Group 123">
<path id="&#206;&#188;(p)" d="M1051.77 702.698C1050.73 702.698 1049.87 702.396 1049.2 701.791C1048.56 701.186 1048.06 700.514 1047.69 699.775C1047.32 699.036 1047.02 698.481 1046.78 698.112H1044.57L1044.51 678.355L1049.05 678.204L1049.25 678.607L1047.44 691.106C1047.44 691.106 1047.42 691.224 1047.39 691.459C1047.39 691.661 1047.39 691.913 1047.39 692.215C1047.39 693.223 1047.57 694.214 1047.94 695.189C1048.35 696.129 1048.88 696.919 1049.55 697.557C1050.26 698.196 1051.07 698.515 1051.97 698.515C1052.88 698.515 1053.7 698.196 1054.44 697.557C1055.18 696.919 1055.84 696.113 1056.41 695.138C1056.98 694.164 1057.45 693.173 1057.82 692.165C1058.22 691.157 1058.53 690.249 1058.73 689.443C1058.93 688.637 1059.03 688.116 1059.03 687.881L1059.18 678.355L1063.52 678.204L1063.77 678.657L1061.6 691.106C1061.6 692.383 1061.68 693.626 1061.85 694.836C1062.02 696.012 1062.34 696.969 1062.81 697.709C1063.31 698.448 1064 698.817 1064.88 698.817C1065.68 698.817 1066.3 698.616 1066.74 698.213C1067.21 697.809 1067.63 697.356 1068 696.852L1068.86 697.406C1068.59 698.179 1068.2 698.969 1067.7 699.775C1067.23 700.581 1066.61 701.253 1065.83 701.791C1065.09 702.295 1064.17 702.547 1063.06 702.547C1062.26 702.547 1061.62 702.379 1061.15 702.043C1060.68 701.673 1060.31 701.136 1060.04 700.43C1059.77 699.691 1059.55 698.767 1059.38 697.658C1059.25 696.549 1059.11 695.256 1058.98 693.777H1058.68C1058.14 696.23 1057.48 698.112 1056.71 699.422C1055.97 700.699 1055.17 701.573 1054.29 702.043C1053.45 702.48 1052.61 702.698 1051.77 702.698ZM1047.59 711.669L1043.81 712.98L1043 712.829C1043.04 710.376 1043.1 708.141 1043.2 706.125C1043.31 704.143 1043.47 702.161 1043.71 700.178C1043.98 698.196 1044.31 696.012 1044.72 693.626L1047.84 698.565H1046.78C1046.82 699.909 1046.85 701.203 1046.88 702.446C1046.92 703.723 1046.98 705.084 1047.09 706.529C1047.22 707.973 1047.39 709.687 1047.59 711.669ZM1073.99 688.032C1073.99 690.585 1074.26 693.173 1074.79 695.793C1075.36 698.414 1076.19 700.833 1077.26 703.051C1078.34 705.269 1079.65 707.066 1081.19 708.444C1081.23 708.444 1081.11 708.578 1080.84 708.847C1080.61 709.116 1080.4 709.301 1080.24 709.401C1077.38 707.117 1075.03 704.177 1073.18 700.581C1071.33 696.986 1070.41 692.803 1070.41 688.032C1070.41 683.227 1071.33 679.027 1073.18 675.432C1075.03 671.837 1077.38 668.913 1080.24 666.662C1080.4 666.763 1080.61 666.948 1080.84 667.217C1081.11 667.485 1081.23 667.62 1081.19 667.62C1079.65 668.964 1078.34 670.745 1077.26 672.962C1076.19 675.18 1075.36 677.599 1074.79 680.22C1074.26 682.841 1073.99 685.445 1073.99 688.032ZM1095.75 680.472C1097.27 680.472 1098.58 680.791 1099.68 681.429C1100.83 682.068 1101.75 682.908 1102.46 683.949C1103.2 684.991 1103.73 686.1 1104.07 687.276C1104.44 688.418 1104.62 689.527 1104.62 690.602C1104.62 692.181 1104.29 693.693 1103.62 695.138C1102.94 696.549 1102.05 697.809 1100.94 698.918C1099.84 699.993 1098.59 700.85 1097.22 701.489C1095.87 702.127 1094.51 702.446 1093.13 702.446C1092.49 702.446 1091.86 702.379 1091.22 702.245C1090.58 702.144 1090.06 702.026 1089.66 701.892C1089.66 701.892 1089.62 701.942 1089.55 702.043C1089.49 702.177 1089.45 702.345 1089.45 702.547V707.285C1089.45 708.024 1089.45 708.713 1089.45 709.351C1089.49 710.023 1089.57 710.561 1089.71 710.964C1089.77 711.132 1090.01 711.266 1090.41 711.367C1090.85 711.501 1091.3 711.585 1091.77 711.619C1092.28 711.686 1092.63 711.72 1092.83 711.72C1092.93 711.854 1092.98 712.089 1092.98 712.425C1093.02 712.795 1092.96 713.047 1092.83 713.181C1091.82 713.114 1090.93 713.047 1090.16 712.98C1089.39 712.946 1088.51 712.929 1087.54 712.929C1086.6 712.929 1085.74 712.946 1084.97 712.98C1084.23 713.047 1083.36 713.114 1082.35 713.181C1082.21 713.047 1082.15 712.795 1082.15 712.425C1082.18 712.089 1082.25 711.854 1082.35 711.72C1082.55 711.72 1082.88 711.686 1083.36 711.619C1083.83 711.585 1084.28 711.501 1084.72 711.367C1085.15 711.266 1085.39 711.132 1085.42 710.964C1085.56 710.561 1085.62 710.023 1085.62 709.351C1085.66 708.713 1085.67 708.024 1085.67 707.285V687.175C1085.67 686.839 1085.66 686.402 1085.62 685.865C1085.62 685.327 1085.56 684.907 1085.42 684.605C1085.32 684.302 1085.04 684.101 1084.56 684C1084.09 683.865 1083.62 683.798 1083.15 683.798C1082.68 683.765 1082.38 683.748 1082.25 683.748C1082.21 683.681 1082.18 683.479 1082.15 683.143C1082.11 682.807 1082.15 682.572 1082.25 682.437C1083.52 682.269 1084.77 682.017 1085.98 681.681C1087.22 681.345 1088.33 680.909 1089.3 680.371C1089.44 680.371 1089.55 680.472 1089.66 680.673C1089.76 680.875 1089.81 681.043 1089.81 681.177C1089.77 681.345 1089.71 681.681 1089.6 682.185C1089.5 682.656 1089.45 682.992 1089.45 683.193C1089.45 683.328 1089.49 683.395 1089.55 683.395C1089.59 683.395 1089.64 683.361 1089.71 683.294C1090.11 682.925 1090.66 682.521 1091.37 682.085C1092.07 681.648 1092.81 681.278 1093.59 680.976C1094.39 680.64 1095.12 680.472 1095.75 680.472ZM1093.64 683.395C1092.96 683.395 1092.31 683.513 1091.67 683.748C1091.03 683.949 1090.5 684.201 1090.06 684.504C1089.66 684.806 1089.45 685.075 1089.45 685.31V697.104C1089.45 697.944 1089.71 698.633 1090.21 699.17C1090.75 699.708 1091.37 700.111 1092.07 700.38C1092.81 700.615 1093.47 700.733 1094.04 700.733C1095.42 700.733 1096.58 700.329 1097.52 699.523C1098.49 698.683 1099.23 697.625 1099.74 696.348C1100.24 695.071 1100.49 693.777 1100.49 692.467C1100.49 689.544 1099.82 687.309 1098.48 685.764C1097.13 684.185 1095.52 683.395 1093.64 683.395ZM1116.05 688.032C1116.05 692.803 1115.13 696.986 1113.28 700.581C1111.43 704.177 1109.07 707.117 1106.18 709.401C1106.01 709.301 1105.81 709.116 1105.57 708.847C1105.34 708.578 1105.24 708.444 1105.27 708.444C1106.81 707.066 1108.11 705.269 1109.15 703.051C1110.22 700.833 1111.03 698.414 1111.57 695.793C1112.14 693.173 1112.43 690.585 1112.43 688.032C1112.43 685.445 1112.14 682.841 1111.57 680.22C1111.03 677.599 1110.22 675.18 1109.15 672.962C1108.11 670.745 1106.81 668.964 1105.27 667.62C1105.24 667.62 1105.34 667.485 1105.57 667.217C1105.81 666.948 1106.01 666.763 1106.18 666.662C1109.07 668.913 1111.43 671.837 1113.28 675.432C1115.13 679.027 1116.05 683.227 1116.05 688.032Z" fill="black"/>
<path id="&#206;&#188;(q)" d="M1267.77 702.698C1266.73 702.698 1265.87 702.396 1265.2 701.791C1264.56 701.186 1264.06 700.514 1263.69 699.775C1263.32 699.036 1263.02 698.481 1262.78 698.112H1260.57L1260.51 678.355L1265.05 678.204L1265.25 678.607L1263.44 691.106C1263.44 691.106 1263.42 691.224 1263.39 691.459C1263.39 691.661 1263.39 691.913 1263.39 692.215C1263.39 693.223 1263.57 694.214 1263.94 695.189C1264.35 696.129 1264.88 696.919 1265.55 697.557C1266.26 698.196 1267.07 698.515 1267.97 698.515C1268.88 698.515 1269.7 698.196 1270.44 697.557C1271.18 696.919 1271.84 696.113 1272.41 695.138C1272.98 694.164 1273.45 693.173 1273.82 692.165C1274.22 691.157 1274.53 690.249 1274.73 689.443C1274.93 688.637 1275.03 688.116 1275.03 687.881L1275.18 678.355L1279.52 678.204L1279.77 678.657L1277.6 691.106C1277.6 692.383 1277.68 693.626 1277.85 694.836C1278.02 696.012 1278.34 696.969 1278.81 697.709C1279.31 698.448 1280 698.817 1280.88 698.817C1281.68 698.817 1282.3 698.616 1282.74 698.213C1283.21 697.809 1283.63 697.356 1284 696.852L1284.86 697.406C1284.59 698.179 1284.2 698.969 1283.7 699.775C1283.23 700.581 1282.61 701.253 1281.83 701.791C1281.09 702.295 1280.17 702.547 1279.06 702.547C1278.26 702.547 1277.62 702.379 1277.15 702.043C1276.68 701.673 1276.31 701.136 1276.04 700.43C1275.77 699.691 1275.55 698.767 1275.38 697.658C1275.25 696.549 1275.11 695.256 1274.98 693.777H1274.68C1274.14 696.23 1273.48 698.112 1272.71 699.422C1271.97 700.699 1271.17 701.573 1270.29 702.043C1269.45 702.48 1268.61 702.698 1267.77 702.698ZM1263.59 711.669L1259.81 712.98L1259 712.829C1259.04 710.376 1259.1 708.141 1259.2 706.125C1259.31 704.143 1259.47 702.161 1259.71 700.178C1259.98 698.196 1260.31 696.012 1260.72 693.626L1263.84 698.565H1262.78C1262.82 699.909 1262.85 701.203 1262.88 702.446C1262.92 703.723 1262.98 705.084 1263.09 706.529C1263.22 707.973 1263.39 709.687 1263.59 711.669ZM1289.99 688.032C1289.99 690.585 1290.26 693.173 1290.79 695.793C1291.36 698.414 1292.19 700.833 1293.26 703.051C1294.34 705.269 1295.65 707.066 1297.19 708.444C1297.23 708.444 1297.11 708.578 1296.84 708.847C1296.61 709.116 1296.4 709.301 1296.24 709.401C1293.38 707.117 1291.03 704.177 1289.18 700.581C1287.33 696.986 1286.41 692.803 1286.41 688.032C1286.41 683.227 1287.33 679.027 1289.18 675.432C1291.03 671.837 1293.38 668.913 1296.24 666.662C1296.4 666.763 1296.61 666.948 1296.84 667.217C1297.11 667.485 1297.23 667.62 1297.19 667.62C1295.65 668.964 1294.34 670.745 1293.26 672.962C1292.19 675.18 1291.36 677.599 1290.79 680.22C1290.26 682.841 1289.99 685.445 1289.99 688.032ZM1311.5 680.472C1312.01 680.472 1312.61 680.573 1313.32 680.774C1314.02 680.976 1314.74 681.194 1315.48 681.429C1316.22 681.631 1316.86 681.732 1317.4 681.732C1317.73 681.732 1318.05 681.681 1318.36 681.581C1318.52 681.581 1318.68 681.732 1318.81 682.034C1318.94 682.303 1319.01 682.505 1319.01 682.639C1318.78 683.143 1318.61 683.765 1318.51 684.504C1318.44 685.209 1318.41 685.814 1318.41 686.318V707.335C1318.41 708.074 1318.41 708.763 1318.41 709.401C1318.44 710.073 1318.52 710.611 1318.66 711.014C1318.73 711.182 1318.96 711.317 1319.36 711.417C1319.8 711.552 1320.25 711.636 1320.72 711.669C1321.2 711.737 1321.53 711.77 1321.73 711.77C1321.83 711.905 1321.88 712.14 1321.88 712.476C1321.92 712.845 1321.87 713.097 1321.73 713.232C1320.72 713.165 1319.83 713.097 1319.06 713.03C1318.32 712.997 1317.47 712.98 1316.49 712.98C1315.55 712.98 1314.69 712.997 1313.92 713.03C1313.15 713.097 1312.26 713.165 1311.25 713.232C1311.12 713.097 1311.05 712.845 1311.05 712.476C1311.08 712.14 1311.15 711.905 1311.25 711.77C1311.45 711.77 1311.79 711.737 1312.26 711.669C1312.76 711.636 1313.23 711.552 1313.67 711.417C1314.11 711.317 1314.34 711.182 1314.37 711.014C1314.51 710.611 1314.58 710.073 1314.58 709.401C1314.61 708.763 1314.63 708.074 1314.63 707.335V700.077C1314.63 699.943 1314.59 699.809 1314.53 699.674C1314.49 699.506 1314.41 699.473 1314.27 699.573C1314.04 699.775 1313.55 700.111 1312.81 700.581C1312.11 701.018 1311.32 701.438 1310.44 701.841C1309.6 702.211 1308.83 702.396 1308.12 702.396C1306.71 702.396 1305.45 702.077 1304.34 701.438C1303.27 700.8 1302.36 699.977 1301.62 698.969C1300.88 697.961 1300.31 696.869 1299.91 695.693C1299.54 694.517 1299.36 693.374 1299.36 692.265C1299.36 690.585 1299.72 689.023 1300.46 687.578C1301.24 686.133 1302.23 684.89 1303.44 683.849C1304.68 682.773 1306.01 681.95 1307.42 681.379C1308.83 680.774 1310.19 680.472 1311.5 680.472ZM1310.04 682.236C1308.9 682.236 1307.91 682.521 1307.07 683.093C1306.23 683.664 1305.54 684.386 1305 685.26C1304.5 686.1 1304.11 686.99 1303.84 687.931C1303.61 688.872 1303.49 689.729 1303.49 690.501C1303.49 693.391 1304.18 695.609 1305.55 697.154C1306.93 698.666 1308.65 699.422 1310.7 699.422C1311.67 699.422 1312.56 699.187 1313.37 698.717C1314.21 698.246 1314.63 697.826 1314.63 697.457V685.713C1314.63 685.008 1314.39 684.403 1313.92 683.899C1313.45 683.361 1312.86 682.958 1312.16 682.689C1311.48 682.387 1310.78 682.236 1310.04 682.236ZM1332.99 688.032C1332.99 692.803 1332.07 696.986 1330.22 700.581C1328.37 704.177 1326 707.117 1323.11 709.401C1322.94 709.301 1322.74 709.116 1322.51 708.847C1322.27 708.578 1322.17 708.444 1322.2 708.444C1323.75 707.066 1325.04 705.269 1326.08 703.051C1327.16 700.833 1327.97 698.414 1328.5 695.793C1329.08 693.173 1329.36 690.585 1329.36 688.032C1329.36 685.445 1329.08 682.841 1328.5 680.22C1327.97 677.599 1327.16 675.18 1326.08 672.962C1325.04 670.745 1323.75 668.964 1322.2 667.62C1322.17 667.62 1322.27 667.485 1322.51 667.217C1322.74 666.948 1322.94 666.763 1323.11 666.662C1326 668.913 1328.37 671.837 1330.22 675.432C1332.07 679.027 1332.99 683.227 1332.99 688.032Z" fill="black"/>
<path id="Vector 77_2" d="M1233.03 693.762L1215.03 683.369V704.154L1233.03 693.762ZM1142.31 693.762V695.562H1216.83V693.762V691.962H1142.31V693.762Z" fill="black"/>
<path id="a_2" d="M1190.55 673.643C1189.04 673.643 1187.97 673.259 1187.33 672.491C1186.69 671.723 1186.29 670.763 1186.13 669.611H1185.89C1185.35 671.051 1184.47 672.187 1183.25 673.019C1182.07 673.819 1180.47 674.219 1178.45 674.219C1175.86 674.219 1173.79 673.547 1172.26 672.203C1170.72 670.859 1169.95 669.019 1169.95 666.683C1169.95 664.379 1170.79 662.603 1172.45 661.355C1174.15 660.107 1176.87 659.483 1180.61 659.483H1185.89V657.035C1185.89 655.211 1185.38 653.851 1184.35 652.955C1183.33 652.027 1181.87 651.563 1179.99 651.563C1178.32 651.563 1176.96 651.899 1175.91 652.571C1174.85 653.211 1174 654.091 1173.36 655.211L1170.77 653.291C1171.09 652.651 1171.52 652.027 1172.07 651.419C1172.61 650.811 1173.28 650.283 1174.08 649.835C1174.88 649.355 1175.79 648.987 1176.82 648.731C1177.84 648.443 1178.98 648.299 1180.23 648.299C1183.14 648.299 1185.44 649.035 1187.14 650.507C1188.87 651.979 1189.73 654.027 1189.73 656.651V670.283H1193.19V673.643H1190.55ZM1179.12 671.003C1180.11 671.003 1181.01 670.891 1181.81 670.667C1182.64 670.411 1183.36 670.091 1183.97 669.707C1184.58 669.291 1185.04 668.811 1185.36 668.267C1185.71 667.691 1185.89 667.083 1185.89 666.443V662.363H1180.61C1178.31 662.363 1176.63 662.683 1175.57 663.323C1174.51 663.963 1173.99 664.891 1173.99 666.107V667.115C1173.99 668.395 1174.43 669.371 1175.33 670.043C1176.26 670.683 1177.52 671.003 1179.12 671.003Z" fill="black"/>
</g>
<g id="Group 122">
<g id="page1">
<path id="Vector" d="M727.466 781.936H736.309C743.341 781.936 746.004 777.888 746.004 777.195C746.004 776.929 745.791 776.822 745.525 776.822C744.939 776.822 743.554 777.355 742.222 778.314C741.796 778.634 741.689 778.634 740.677 778.634H717.397C710.792 778.634 703.387 784.334 703.387 788.702C703.387 789.022 703.387 789.341 703.813 789.341C705.091 789.341 708.448 787.583 708.554 786.305C708.607 785.399 708.714 784.387 709.779 783.002C710.312 782.363 710.738 781.936 713.082 781.936H723.683C722.778 782.522 722.565 783.321 722.458 783.854L716.385 807.986C715.746 810.597 714.627 813.953 713.082 817.415C712.763 818.055 712.763 818.161 712.763 818.268C712.763 818.587 712.976 818.641 713.242 818.641C714.307 818.641 716.918 817.202 717.717 816.084C718.036 815.551 720.38 810.117 721.499 805.696L727.466 781.936Z" fill="black"/>
</g>
<path id="in" d="M636.19 813.822H623.23V812.209C624.536 812.209 625.457 812.094 625.995 811.864C626.571 811.595 626.916 811.153 627.032 810.539C627.185 809.925 627.262 809.08 627.262 808.005V791.934C627.262 790.705 627.051 789.957 626.628 789.688C626.206 789.381 625.572 789.227 624.728 789.227C624.344 789.227 623.998 789.246 623.691 789.285C623.422 789.323 623.288 789.342 623.288 789.342V787.672L630.545 786.059H632.043V808.005C632.043 809.118 632.12 809.982 632.273 810.597C632.427 811.211 632.792 811.633 633.368 811.864C633.982 812.094 634.923 812.209 636.19 812.209V813.822ZM629.739 781.566C628.779 781.566 627.992 781.24 627.377 780.587C626.763 779.934 626.456 779.166 626.456 778.283C626.456 777.4 626.744 776.651 627.32 776.037C627.934 775.384 628.74 775.057 629.739 775.057C630.737 775.057 631.524 775.384 632.1 776.037C632.715 776.651 633.022 777.4 633.022 778.283C633.022 779.166 632.715 779.934 632.1 780.587C631.524 781.24 630.737 781.566 629.739 781.566ZM669.78 813.822H656.474V812.209C657.857 812.209 658.836 812.094 659.412 811.864C660.026 811.595 660.391 811.153 660.506 810.539C660.66 809.925 660.737 809.08 660.737 808.005V797.579C660.737 795.275 660.468 793.547 659.93 792.395C659.431 791.243 658.778 790.494 657.972 790.149C657.165 789.765 656.321 789.573 655.437 789.573C654.324 789.573 653.325 789.803 652.442 790.264C651.559 790.686 650.753 791.205 650.023 791.819C649.332 792.433 648.679 793.009 648.065 793.547L647.661 790.725H648.525C650.1 789.342 651.578 788.19 652.961 787.269C654.381 786.347 655.994 785.886 657.799 785.886C660.41 785.886 662.349 786.769 663.617 788.536C664.884 790.302 665.517 792.837 665.517 796.139V808.005C665.517 809.08 665.594 809.925 665.748 810.539C665.94 811.153 666.343 811.595 666.957 811.864C667.572 812.094 668.513 812.209 669.78 812.209V813.822ZM652.845 813.822H639.655V812.209C640.961 812.209 641.882 812.094 642.42 811.864C642.996 811.595 643.341 811.153 643.457 810.539C643.61 809.925 643.687 809.08 643.687 808.005V791.819C643.687 790.782 643.476 790.11 643.053 789.803C642.631 789.457 642.036 789.285 641.268 789.285C640.769 789.285 640.385 789.304 640.116 789.342C639.847 789.381 639.713 789.4 639.713 789.4V787.729L647.028 786.059H648.353L648.295 791.358L648.468 792.568V808.005C648.468 809.08 648.545 809.925 648.698 810.539C648.852 811.153 649.236 811.595 649.85 811.864C650.465 812.094 651.463 812.209 652.845 812.209V813.822Z" fill="black"/>
</g>
<g id="Group 124">
<g id="Group 120">
<path id="&#226;&#128;&#153;" d="M1256.94 791.88L1255.04 791.765L1256.01 775.671L1261.64 776.012L1256.94 791.88Z" fill="black"/>
<g id="\mathcal{T}" clip-path="url(#clip0_27_142)">
<g id="page1_2">
<path id="Vector_2" d="M1227.47 787.237H1236.31C1243.34 787.237 1246 783.188 1246 782.496C1246 782.23 1245.79 782.123 1245.52 782.123C1244.94 782.123 1243.55 782.656 1242.22 783.615C1241.8 783.934 1241.69 783.934 1240.68 783.934H1217.4C1210.79 783.934 1203.39 789.634 1203.39 794.003C1203.39 794.322 1203.39 794.642 1203.81 794.642C1205.09 794.642 1208.45 792.884 1208.55 791.605C1208.61 790.7 1208.71 789.688 1209.78 788.303C1210.31 787.663 1210.74 787.237 1213.08 787.237H1223.68C1222.78 787.823 1222.56 788.622 1222.46 789.155L1216.39 813.287C1215.75 815.897 1214.63 819.254 1213.08 822.716C1212.76 823.355 1212.76 823.462 1212.76 823.569C1212.76 823.888 1212.98 823.941 1213.24 823.941C1214.31 823.941 1216.92 822.503 1217.72 821.384C1218.04 820.852 1220.38 815.418 1221.5 810.996L1227.47 787.237Z" fill="black"/>
</g>
</g>
</g>
<path id="in_2" d="M1138.19 820.822H1125.23V819.209C1126.54 819.209 1127.46 819.094 1127.99 818.864C1128.57 818.595 1128.92 818.153 1129.03 817.539C1129.19 816.925 1129.26 816.08 1129.26 815.005V798.934C1129.26 797.705 1129.05 796.957 1128.63 796.688C1128.21 796.381 1127.57 796.227 1126.73 796.227C1126.34 796.227 1126 796.246 1125.69 796.285C1125.42 796.323 1125.29 796.342 1125.29 796.342V794.672L1132.55 793.059H1134.04V815.005C1134.04 816.118 1134.12 816.982 1134.27 817.597C1134.43 818.211 1134.79 818.633 1135.37 818.864C1135.98 819.094 1136.92 819.209 1138.19 819.209V820.822ZM1131.74 788.566C1130.78 788.566 1129.99 788.24 1129.38 787.587C1128.76 786.934 1128.46 786.166 1128.46 785.283C1128.46 784.4 1128.74 783.651 1129.32 783.037C1129.93 782.384 1130.74 782.057 1131.74 782.057C1132.74 782.057 1133.52 782.384 1134.1 783.037C1134.71 783.651 1135.02 784.4 1135.02 785.283C1135.02 786.166 1134.71 786.934 1134.1 787.587C1133.52 788.24 1132.74 788.566 1131.74 788.566ZM1171.78 820.822H1158.47V819.209C1159.86 819.209 1160.84 819.094 1161.41 818.864C1162.03 818.595 1162.39 818.153 1162.51 817.539C1162.66 816.925 1162.74 816.08 1162.74 815.005V804.579C1162.74 802.275 1162.47 800.547 1161.93 799.395C1161.43 798.243 1160.78 797.494 1159.97 797.149C1159.17 796.765 1158.32 796.573 1157.44 796.573C1156.32 796.573 1155.33 796.803 1154.44 797.264C1153.56 797.686 1152.75 798.205 1152.02 798.819C1151.33 799.433 1150.68 800.009 1150.06 800.547L1149.66 797.725H1150.53C1152.1 796.342 1153.58 795.19 1154.96 794.269C1156.38 793.347 1157.99 792.886 1159.8 792.886C1162.41 792.886 1164.35 793.769 1165.62 795.536C1166.88 797.302 1167.52 799.837 1167.52 803.139V815.005C1167.52 816.08 1167.59 816.925 1167.75 817.539C1167.94 818.153 1168.34 818.595 1168.96 818.864C1169.57 819.094 1170.51 819.209 1171.78 819.209V820.822ZM1154.85 820.822H1141.65V819.209C1142.96 819.209 1143.88 819.094 1144.42 818.864C1145 818.595 1145.34 818.153 1145.46 817.539C1145.61 816.925 1145.69 816.08 1145.69 815.005V798.819C1145.69 797.782 1145.48 797.11 1145.05 796.803C1144.63 796.457 1144.04 796.285 1143.27 796.285C1142.77 796.285 1142.38 796.304 1142.12 796.342C1141.85 796.381 1141.71 796.4 1141.71 796.4V794.729L1149.03 793.059H1150.35L1150.29 798.358L1150.47 799.568V815.005C1150.47 816.08 1150.54 816.925 1150.7 817.539C1150.85 818.153 1151.24 818.595 1151.85 818.864C1152.46 819.094 1153.46 819.209 1154.85 819.209V820.822Z" fill="black"/>
</g>
<g id="\implies" clip-path="url(#clip1_27_142)">
<g id="page1_3">
<path id="Vector_3" d="M911.266 686.378C912.21 686.378 913.424 686.378 913.424 685.164C913.424 683.883 912.278 683.883 911.266 683.883H871.545C870.601 683.883 869.387 683.883 869.387 685.097C869.387 686.378 870.533 686.378 871.545 686.378H911.266ZM911.266 698.922C912.21 698.922 913.424 698.922 913.424 697.708C913.424 696.426 912.278 696.426 911.266 696.426H871.545C870.601 696.426 869.387 696.426 869.387 697.64C869.387 698.922 870.533 698.922 871.545 698.922H911.266Z" fill="black"/>
<path id="Vector_4" d="M954.829 686.175C957.662 688.603 961.101 690.356 963.327 691.368C960.899 692.447 957.594 694.2 954.829 696.561H912.006C910.859 696.561 909.578 696.561 909.578 697.909C909.578 699.258 910.792 699.258 911.938 699.258H951.795C948.558 702.36 945.051 708.295 945.051 709.172C945.051 709.914 945.928 709.914 946.332 709.914C946.872 709.914 947.344 709.914 947.614 709.374C949.03 706.811 950.918 703.237 955.302 699.326C959.955 695.212 964.473 693.391 967.98 692.379C969.126 691.975 969.194 691.907 969.329 691.773C969.464 691.705 969.464 691.503 969.464 691.368C969.464 691.233 969.464 691.098 969.396 690.963L969.194 690.828C969.059 690.761 968.992 690.693 967.71 690.289C958.606 687.591 951.862 681.454 948.086 674.238C947.344 672.89 947.276 672.822 946.332 672.822C945.928 672.822 945.051 672.822 945.051 673.564C945.051 674.441 948.49 680.308 951.795 683.478H911.938C910.792 683.478 909.578 683.478 909.578 684.826C909.578 686.175 910.859 686.175 912.006 686.175H954.829Z" fill="black"/>
</g>
</g>
</g>
<g id="Group 127">
<path id="&#226;&#128;&#153;_2" d="M1077.92 519.557L1075.45 519.407L1076.72 498.484L1084.03 498.928L1077.92 519.557Z" fill="black"/>
<g id="\mu: V &#226;&#134;&#146; V" clip-path="url(#clip2_27_142)">
<g id="page1_4">
<path id="Vector_5" d="M744.951 556.125C746.778 557.806 749.481 558.463 751.965 558.463C756.641 558.463 759.855 555.322 761.536 553.057C762.266 556.929 765.335 558.463 767.892 558.463C770.083 558.463 771.837 557.148 773.152 554.518C774.321 552.034 775.344 547.577 775.344 547.285C775.344 546.92 775.051 546.628 774.613 546.628C773.956 546.628 773.883 546.993 773.59 548.089C772.494 552.399 771.106 557.002 768.111 557.002C765.992 557.002 765.846 555.102 765.846 553.641C765.846 551.961 766.504 549.331 767.015 547.139L769.061 539.249C769.353 537.861 770.157 534.573 770.522 533.258C770.96 531.504 771.764 528.363 771.764 528.071C771.764 526.975 770.887 526.244 769.791 526.244C769.134 526.244 767.599 526.536 767.015 528.728L761.901 549.039C761.536 550.5 761.536 550.646 760.586 551.815C759.709 553.057 756.86 557.002 752.257 557.002C748.166 557.002 746.851 554.006 746.851 550.573C746.851 548.454 747.508 545.897 747.801 544.655L751.088 531.504C751.454 530.116 752.038 527.778 752.038 527.34C752.038 526.171 751.088 525.514 750.139 525.514C749.481 525.514 747.874 525.733 747.289 528.071L736.696 570.372C736.623 570.737 736.477 571.175 736.477 571.614C736.477 572.709 737.353 573.44 738.449 573.44C740.568 573.44 741.006 571.76 741.518 569.714L744.951 556.125Z" fill="black"/>
<path id="Vector_6" d="M811.2 529.749C811.2 527.776 809.52 526.242 807.693 526.242C805.574 526.242 804.113 527.923 804.113 529.749C804.113 531.941 805.94 533.329 807.62 533.329C809.593 533.329 811.2 531.795 811.2 529.749ZM811.2 554.151C811.2 552.178 809.52 550.644 807.693 550.644C805.574 550.644 804.113 552.324 804.113 554.151C804.113 556.342 805.94 557.73 807.62 557.73C809.593 557.73 811.2 556.196 811.2 554.151Z" fill="black"/>
<path id="Vector_7" d="M883.145 515.942C885.629 511.996 887.894 510.243 891.62 509.951C892.351 509.878 892.935 509.878 892.935 508.563C892.935 508.27 892.789 507.832 892.131 507.832C890.816 507.832 887.675 507.978 886.36 507.978C884.241 507.978 882.049 507.832 880.004 507.832C879.419 507.832 878.689 507.832 878.689 509.22C878.689 509.878 879.346 509.951 879.638 509.951C882.342 510.17 882.634 511.485 882.634 512.362C882.634 513.458 881.611 515.138 881.538 515.211L858.598 551.594L853.483 512.216C853.483 510.097 857.283 509.951 858.086 509.951C859.182 509.951 859.84 509.951 859.84 508.563C859.84 507.832 859.036 507.832 858.817 507.832C857.575 507.832 856.114 507.978 854.872 507.978H850.78C845.447 507.978 843.255 507.832 843.182 507.832C842.744 507.832 841.867 507.832 841.867 509.147C841.867 509.951 842.379 509.951 843.548 509.951C847.274 509.951 847.493 510.608 847.712 512.435L853.557 557.512C853.776 559.046 853.776 559.265 854.799 559.265C855.675 559.265 856.041 559.046 856.771 557.877L883.145 515.942Z" fill="black"/>
<path id="Vector_8" d="M976.752 540.926C972.734 543.994 970.762 546.99 970.177 547.94C966.89 552.981 966.305 557.583 966.305 557.656C966.305 558.533 967.182 558.533 967.766 558.533C969.008 558.533 969.081 558.387 969.374 557.072C971.054 549.912 975.364 543.775 983.62 540.415C984.497 540.122 984.716 539.976 984.716 539.465C984.716 538.953 984.277 538.734 984.131 538.661C980.917 537.419 972.077 533.766 969.3 521.492C969.081 520.616 969.008 520.396 967.766 520.396C967.182 520.396 966.305 520.396 966.305 521.273C966.305 521.419 966.963 526.022 970.031 530.917C971.492 533.109 973.611 535.666 976.752 538.004H922.47C921.155 538.004 919.84 538.004 919.84 539.465C919.84 540.926 921.155 540.926 922.47 540.926H976.752Z" fill="black"/>
<path id="Vector_9" d="M1054.4 515.942C1056.89 511.996 1059.15 510.243 1062.88 509.951C1063.61 509.878 1064.19 509.878 1064.19 508.563C1064.19 508.27 1064.05 507.832 1063.39 507.832C1062.07 507.832 1058.93 507.978 1057.62 507.978C1055.5 507.978 1053.31 507.832 1051.26 507.832C1050.68 507.832 1049.95 507.832 1049.95 509.22C1049.95 509.878 1050.6 509.951 1050.9 509.951C1053.6 510.17 1053.89 511.485 1053.89 512.362C1053.89 513.458 1052.87 515.138 1052.8 515.211L1029.86 551.594L1024.74 512.216C1024.74 510.097 1028.54 509.951 1029.34 509.951C1030.44 509.951 1031.1 509.951 1031.1 508.563C1031.1 507.832 1030.29 507.832 1030.07 507.832C1028.83 507.832 1027.37 507.978 1026.13 507.978H1022.04C1016.7 507.978 1014.51 507.832 1014.44 507.832C1014 507.832 1013.12 507.832 1013.12 509.147C1013.12 509.951 1013.64 509.951 1014.81 509.951C1018.53 509.951 1018.75 510.608 1018.97 512.435L1024.81 557.512C1025.03 559.046 1025.03 559.265 1026.06 559.265C1026.93 559.265 1027.3 559.046 1028.03 557.877L1054.4 515.942Z" fill="black"/>
</g>
</g>
</g>
</g>
<defs>
<clipPath id="clip0_27_142">
<rect width="42.6175" height="41.8184" fill="white" transform="translate(1203.39 782.123)"/>
</clipPath>
<clipPath id="clip1_27_142">
<rect width="100.072" height="37.0912" fill="white" transform="translate(869.387 672.822)"/>
</clipPath>
<clipPath id="clip2_27_142">
<rect width="327.713" height="65.6065" fill="white" transform="translate(736.477 507.832)"/>
</clipPath>
</defs>
</svg>
