<svg width="1921" height="1081" viewBox="0 0 1921 1081" fill="none" xmlns="http://www.w3.org/2000/svg">
<g id="Memory-question">
<rect width="1920" height="1080" transform="translate(0.103516 0.503906)" fill="white"/>
<path id="How much memory omega reg" d="M293.241 524.072V500.004L292.801 495.604L293.241 492.92H301.161V504.844H312.117V492.92H320.037V509.464L320.477 512.5V524.072H312.117V512.456H301.161V515.096L301.601 524.072H293.241ZM335.482 524.512C331.903 524.512 329.131 523.661 327.166 521.96C325.201 520.259 324.218 517.501 324.218 513.688C324.218 509.845 325.201 507.088 327.166 505.416C329.131 503.715 331.903 502.864 335.482 502.864C339.149 502.864 341.921 503.715 343.798 505.416C345.705 507.088 346.658 509.845 346.658 513.688C346.658 517.501 345.705 520.259 343.798 521.96C341.921 523.661 339.149 524.512 335.482 524.512ZM335.482 518.792C336.685 518.792 337.521 518.352 337.99 517.472C338.459 516.563 338.694 515.301 338.694 513.688C338.694 512.045 338.459 510.784 337.99 509.904C337.521 509.024 336.685 508.584 335.482 508.584C334.25 508.584 333.385 509.024 332.886 509.904C332.417 510.784 332.182 512.045 332.182 513.688C332.182 515.301 332.417 516.563 332.886 517.472C333.385 518.352 334.25 518.792 335.482 518.792ZM354.228 524.072L348.2 509.024L347.32 503.304H355.68L358.54 517.032H359.42L362.764 503.304H371.52L374.82 517.032H375.7L378.604 503.304H386.92L386.04 509.024L379.968 524.072H370.728L367.56 509.904H366.68L363.468 524.072H354.228ZM398.827 505.988L400.191 503.304H406.747V505.196L407.143 505.46C407.466 505.167 407.906 504.829 408.463 504.448C409.05 504.037 409.754 503.671 410.575 503.348C411.397 503.025 412.321 502.864 413.347 502.864C416.398 502.864 418.583 503.876 419.903 505.9C420.431 505.167 421.223 504.477 422.279 503.832C423.365 503.157 424.861 502.82 426.767 502.82C429.407 502.82 431.387 503.568 432.707 505.064C434.027 506.56 434.687 508.657 434.687 511.356V516.988L435.611 521.388L434.687 524.072H426.767V512.5C426.767 511.385 426.518 510.535 426.019 509.948C425.55 509.332 424.802 509.024 423.775 509.024C423.101 509.024 422.514 509.273 422.015 509.772C421.517 510.271 421.267 510.901 421.267 511.664V524.072H413.347V512.544C413.347 511.429 413.098 510.579 412.599 509.992C412.13 509.376 411.382 509.068 410.355 509.068L407.627 509.904V524.072H399.707V510.828L398.827 505.988ZM445.732 524.512C443.972 524.512 442.608 524.175 441.64 523.5C440.701 522.825 440.041 521.857 439.66 520.596C439.308 519.305 439.132 517.765 439.132 515.976V503.26H447.052V514.832C447.052 515.917 447.257 516.768 447.668 517.384C448.108 518 448.753 518.308 449.604 518.308C450.396 518.308 451.115 517.971 451.76 517.296C452.435 516.621 452.772 515.639 452.772 514.348V503.26H460.692V516.988L461.616 521.388L460.692 524.072H453.256V521.916L452.816 521.696C452.435 522.077 451.877 522.488 451.144 522.928C450.44 523.368 449.619 523.749 448.68 524.072C447.771 524.365 446.788 524.512 445.732 524.512ZM475.076 524.512C473.052 524.512 471.219 524.175 469.576 523.5C467.963 522.825 466.672 521.696 465.704 520.112C464.766 518.528 464.296 516.387 464.296 513.688C464.296 510.96 464.81 508.819 465.836 507.264C466.863 505.68 468.198 504.551 469.84 503.876C471.483 503.201 473.228 502.864 475.076 502.864C476.69 502.864 478.068 502.923 479.212 503.04C480.386 503.157 481.163 503.26 481.544 503.348L484.976 507.22L481.456 512.016L476.396 509.024C473.874 509.024 472.612 510.579 472.612 513.688C472.612 515.301 472.994 516.489 473.756 517.252C474.519 517.985 475.692 518.352 477.276 518.352C478.86 518.352 480.283 518.132 481.544 517.692C482.806 517.252 483.788 516.841 484.492 516.46V522.796C483.583 523.265 482.38 523.676 480.884 524.028C479.418 524.351 477.482 524.512 475.076 524.512ZM489.383 524.072V499.96L488.503 495.56L489.383 492.92H497.303V500.048L496.863 504.932L497.303 505.152C497.655 504.624 498.3 504.111 499.239 503.612C500.207 503.084 501.468 502.82 503.023 502.82C505.663 502.82 507.643 503.568 508.963 505.064C510.283 506.56 510.943 508.657 510.943 511.356V517.076L511.867 521.388L510.943 524.072H503.023V512.5C503.023 511.385 502.774 510.535 502.275 509.948C501.806 509.332 501.058 509.024 500.031 509.024L497.303 510.3V524.072H489.383ZM525.8 505.988L527.164 503.304H533.72V505.196L534.116 505.46C534.439 505.167 534.879 504.829 535.436 504.448C536.023 504.037 536.727 503.671 537.548 503.348C538.369 503.025 539.293 502.864 540.32 502.864C543.371 502.864 545.556 503.876 546.876 505.9C547.404 505.167 548.196 504.477 549.252 503.832C550.337 503.157 551.833 502.82 553.74 502.82C556.38 502.82 558.36 503.568 559.68 505.064C561 506.56 561.66 508.657 561.66 511.356V516.988L562.584 521.388L561.66 524.072H553.74V512.5C553.74 511.385 553.491 510.535 552.992 509.948C552.523 509.332 551.775 509.024 550.748 509.024C550.073 509.024 549.487 509.273 548.988 509.772C548.489 510.271 548.24 510.901 548.24 511.664V524.072H540.32V512.544C540.32 511.429 540.071 510.579 539.572 509.992C539.103 509.376 538.355 509.068 537.328 509.068L534.6 509.904V524.072H526.68V510.828L525.8 505.988ZM577.105 524.512C574.846 524.512 572.837 524.175 571.077 523.5C569.317 522.825 567.938 521.696 566.941 520.112C565.943 518.528 565.445 516.387 565.445 513.688C565.445 511.752 565.767 510.095 566.413 508.716C567.087 507.337 567.982 506.223 569.097 505.372C570.211 504.492 571.458 503.861 572.837 503.48C574.215 503.069 575.638 502.864 577.105 502.864C579.627 502.864 581.563 503.113 582.913 503.612C584.291 504.111 585.201 504.507 585.641 504.8L587.841 511.796L586.961 514.524H573.321C573.526 515.609 574.069 516.519 574.949 517.252C575.829 517.985 577.281 518.352 579.305 518.352C580.889 518.352 582.253 518.176 583.397 517.824C584.541 517.472 585.435 517.164 586.081 516.9V522.796C585.201 523.265 583.925 523.676 582.253 524.028C580.61 524.351 578.894 524.512 577.105 524.512ZM573.365 511.708L579.437 510.828L579.041 508.936C578.835 508.819 578.527 508.731 578.117 508.672C577.735 508.613 577.398 508.584 577.105 508.584C576.283 508.584 575.594 508.76 575.037 509.112C574.509 509.464 574.098 509.889 573.805 510.388C573.541 510.857 573.394 511.297 573.365 511.708ZM590.64 505.988L592.004 503.304H598.56V505.196L598.956 505.46C599.279 505.167 599.719 504.829 600.276 504.448C600.863 504.037 601.567 503.671 602.388 503.348C603.209 503.025 604.133 502.864 605.16 502.864C608.211 502.864 610.396 503.876 611.716 505.9C612.244 505.167 613.036 504.477 614.092 503.832C615.177 503.157 616.673 502.82 618.58 502.82C621.22 502.82 623.2 503.568 624.52 505.064C625.84 506.56 626.5 508.657 626.5 511.356V516.988L627.424 521.388L626.5 524.072H618.58V512.5C618.58 511.385 618.331 510.535 617.832 509.948C617.363 509.332 616.615 509.024 615.588 509.024C614.913 509.024 614.327 509.273 613.828 509.772C613.329 510.271 613.08 510.901 613.08 511.664V524.072H605.16V512.544C605.16 511.429 604.911 510.579 604.412 509.992C603.943 509.376 603.195 509.068 602.168 509.068L599.44 509.904V524.072H591.52V510.828L590.64 505.988ZM641.549 524.512C637.97 524.512 635.198 523.661 633.233 521.96C631.267 520.259 630.285 517.501 630.285 513.688C630.285 509.845 631.267 507.088 633.233 505.416C635.198 503.715 637.97 502.864 641.549 502.864C645.215 502.864 647.987 503.715 649.865 505.416C651.771 507.088 652.725 509.845 652.725 513.688C652.725 517.501 651.771 520.259 649.865 521.96C647.987 523.661 645.215 524.512 641.549 524.512ZM641.549 518.792C642.751 518.792 643.587 518.352 644.057 517.472C644.526 516.563 644.761 515.301 644.761 513.688C644.761 512.045 644.526 510.784 644.057 509.904C643.587 509.024 642.751 508.584 641.549 508.584C640.317 508.584 639.451 509.024 638.953 509.904C638.483 510.784 638.249 512.045 638.249 513.688C638.249 515.301 638.483 516.563 638.953 517.472C639.451 518.352 640.317 518.792 641.549 518.792ZM656.49 524.072V510.3L655.566 505.9L656.49 503.26H662.474L663.354 504.272C663.354 504.272 663.559 504.155 663.97 503.92C664.38 503.656 664.952 503.407 665.686 503.172C666.448 502.937 667.328 502.82 668.326 502.82C668.912 502.82 669.499 502.864 670.086 502.952C670.672 503.04 671.127 503.157 671.45 503.304L674.31 505.724L671.45 511.356L665.642 508.936L664.322 509.376V524.072H656.49ZM678.746 534.764L672.542 532.564L674.302 526.008L680.462 527.768C681.723 527.768 682.632 527.431 683.19 526.756C683.776 526.111 684.216 525.201 684.51 524.028H679.978L675.138 508.98L674.302 503.26H682.662L685.082 517.78H685.962L688.382 503.26H696.742C696.742 503.26 696.639 503.729 696.434 504.668C696.258 505.577 695.994 506.795 695.642 508.32C695.319 509.845 694.923 511.532 694.454 513.38C694.014 515.199 693.544 517.047 693.046 518.924C692.547 520.772 692.034 522.473 691.506 524.028C690.714 526.463 689.76 528.472 688.646 530.056C687.56 531.64 686.226 532.813 684.642 533.576C683.058 534.368 681.092 534.764 678.746 534.764ZM710.415 524.072V510.3L709.491 505.9L710.415 503.26H716.399L717.279 504.272C717.279 504.272 717.485 504.155 717.895 503.92C718.306 503.656 718.878 503.407 719.611 503.172C720.374 502.937 721.254 502.82 722.251 502.82C722.838 502.82 723.425 502.864 724.011 502.952C724.598 503.04 725.053 503.157 725.375 503.304L728.235 505.724L725.375 511.356L719.567 508.936L718.247 509.376V524.072H710.415ZM739.656 524.512C737.397 524.512 735.388 524.175 733.628 523.5C731.868 522.825 730.489 521.696 729.492 520.112C728.494 518.528 727.996 516.387 727.996 513.688C727.996 511.752 728.318 510.095 728.964 508.716C729.638 507.337 730.533 506.223 731.648 505.372C732.762 504.492 734.009 503.861 735.388 503.48C736.766 503.069 738.189 502.864 739.656 502.864C742.178 502.864 744.114 503.113 745.464 503.612C746.842 504.111 747.752 504.507 748.192 504.8L750.392 511.796L749.512 514.524H735.872C736.077 515.609 736.62 516.519 737.5 517.252C738.38 517.985 739.832 518.352 741.856 518.352C743.44 518.352 744.804 518.176 745.948 517.824C747.092 517.472 747.986 517.164 748.632 516.9V522.796C747.752 523.265 746.476 523.676 744.804 524.028C743.161 524.351 741.445 524.512 739.656 524.512ZM735.916 511.708L741.988 510.828L741.592 508.936C741.386 508.819 741.078 508.731 740.668 508.672C740.286 508.613 739.949 508.584 739.656 508.584C738.834 508.584 738.145 508.76 737.588 509.112C737.06 509.464 736.649 509.889 736.356 510.388C736.092 510.857 735.945 511.297 735.916 511.708ZM766.171 534.852L766.611 525.48L767.051 522.4L766.611 522.18C766.611 522.18 766.391 522.371 765.951 522.752C765.511 523.133 764.865 523.529 764.015 523.94C763.164 524.321 762.123 524.512 760.891 524.512C759.512 524.512 758.177 524.16 756.887 523.456C755.625 522.752 754.584 521.637 753.763 520.112C752.941 518.587 752.531 516.592 752.531 514.128C752.531 511.4 752.941 509.215 753.763 507.572C754.584 505.929 755.625 504.741 756.887 504.008C758.177 503.245 759.512 502.864 760.891 502.864C762.299 502.864 763.413 503.025 764.235 503.348C765.085 503.671 765.687 503.993 766.039 504.316C766.42 504.639 766.611 504.8 766.611 504.8V503.26H774.575V528.252L775.455 532.3L774.575 534.852H766.171ZM764.191 518.308L766.611 517.692V511.268C766.611 510.593 766.391 510.065 765.951 509.684C765.511 509.273 764.924 509.068 764.191 509.068C763.105 509.068 762.284 509.435 761.727 510.168C761.169 510.901 760.891 512.089 760.891 513.732C760.891 515.345 761.213 516.519 761.859 517.252C762.504 517.956 763.281 518.308 764.191 518.308ZM785.572 524.512C783.812 524.512 782.448 524.175 781.48 523.5C780.541 522.825 779.881 521.857 779.5 520.596C779.148 519.305 778.972 517.765 778.972 515.976V503.26H786.892V514.832C786.892 515.917 787.097 516.768 787.508 517.384C787.948 518 788.593 518.308 789.444 518.308C790.236 518.308 790.955 517.971 791.6 517.296C792.275 516.621 792.612 515.639 792.612 514.348V503.26H800.532V516.988L801.456 521.388L800.532 524.072H793.096V521.916L792.656 521.696C792.275 522.077 791.717 522.488 790.984 522.928C790.28 523.368 789.459 523.749 788.52 524.072C787.611 524.365 786.628 524.512 785.572 524.512ZM809.636 502.028L804.048 496.396L809.636 490.808L815.224 496.396L809.636 502.028ZM805.676 524.072V509.508L804.752 505.988L805.632 503.304H813.596V524.072H805.676ZM818.568 524.072V510.3L817.644 505.9L818.568 503.26H824.552L825.432 504.272C825.432 504.272 825.637 504.155 826.048 503.92C826.458 503.656 827.03 503.407 827.764 503.172C828.526 502.937 829.406 502.82 830.404 502.82C830.99 502.82 831.577 502.864 832.164 502.952C832.75 503.04 833.205 503.157 833.528 503.304L836.388 505.724L833.528 511.356L827.72 508.936L826.4 509.376V524.072H818.568ZM847.808 524.512C845.549 524.512 843.54 524.175 841.78 523.5C840.02 522.825 838.641 521.696 837.644 520.112C836.647 518.528 836.148 516.387 836.148 513.688C836.148 511.752 836.471 510.095 837.116 508.716C837.791 507.337 838.685 506.223 839.8 505.372C840.915 504.492 842.161 503.861 843.54 503.48C844.919 503.069 846.341 502.864 847.808 502.864C850.331 502.864 852.267 503.113 853.616 503.612C854.995 504.111 855.904 504.507 856.344 504.8L858.544 511.796L857.664 514.524H844.024C844.229 515.609 844.772 516.519 845.652 517.252C846.532 517.985 847.984 518.352 850.008 518.352C851.592 518.352 852.956 518.176 854.1 517.824C855.244 517.472 856.139 517.164 856.784 516.9V522.796C855.904 523.265 854.628 523.676 852.956 524.028C851.313 524.351 849.597 524.512 847.808 524.512ZM844.068 511.708L850.14 510.828L849.744 508.936C849.539 508.819 849.231 508.731 848.82 508.672C848.439 508.613 848.101 508.584 847.808 508.584C846.987 508.584 846.297 508.76 845.74 509.112C845.212 509.464 844.801 509.889 844.508 510.388C844.244 510.857 844.097 511.297 844.068 511.708ZM870.803 524.512C868.662 524.512 866.77 524.292 865.127 523.852C863.484 523.412 862.208 522.957 861.299 522.488V516.372C862.502 516.9 863.734 517.311 864.995 517.604C866.286 517.897 867.444 518.103 868.471 518.22C869.498 518.308 870.231 518.352 870.671 518.352C871.17 518.352 871.522 518.279 871.727 518.132C871.932 517.956 872.035 517.751 872.035 517.516C872.035 517.193 871.771 516.929 871.243 516.724C870.715 516.489 869.718 516.196 868.251 515.844C867.048 515.551 865.875 515.184 864.731 514.744C863.616 514.275 862.692 513.629 861.959 512.808C861.255 511.987 860.903 510.887 860.903 509.508C860.903 507.807 861.299 506.472 862.091 505.504C862.883 504.536 864.012 503.861 865.479 503.48C866.946 503.069 868.662 502.864 870.627 502.864C871.742 502.864 872.783 502.923 873.751 503.04C874.719 503.157 875.408 503.245 875.819 503.304L879.911 505.944L877.931 510.652L870.231 508.98C869.292 508.98 868.823 509.288 868.823 509.904C868.823 510.549 869.498 511.033 870.847 511.356C871.903 511.591 872.988 511.855 874.103 512.148C875.218 512.412 876.23 512.764 877.139 513.204C878.078 513.644 878.826 514.231 879.383 514.964C879.97 515.697 880.263 516.665 880.263 517.868C880.263 520.097 879.456 521.769 877.843 522.884C876.259 523.969 873.912 524.512 870.803 524.512ZM900.513 524.512C899.252 524.512 898.079 524.336 896.993 523.984C895.937 523.603 895.087 522.957 894.441 522.048C893.796 521.139 893.473 519.877 893.473 518.264C893.473 516.797 893.84 515.58 894.573 514.612C895.307 513.644 896.304 512.925 897.565 512.456C898.827 511.987 900.249 511.752 901.833 511.752C903.359 511.752 904.503 511.928 905.265 512.28C906.028 512.603 906.688 512.94 907.245 513.292L907.553 513.028C907.553 512.148 907.48 511.415 907.333 510.828C907.187 510.241 906.849 509.801 906.321 509.508C905.793 509.185 904.972 509.024 903.857 509.024C902.772 509.024 901.613 509.127 900.381 509.332C899.179 509.508 898.064 509.743 897.037 510.036C896.04 510.3 895.292 510.564 894.793 510.828V504.228C895.703 503.905 896.993 503.612 898.665 503.348C900.367 503.055 902.449 502.908 904.913 502.908C907.553 502.908 909.636 503.245 911.161 503.92C912.716 504.565 913.831 505.519 914.505 506.78C915.18 508.012 915.517 509.493 915.517 511.224V517.076L916.397 521.52L915.517 524.116H907.993V521.96L907.553 521.74C907.319 521.975 906.908 522.312 906.321 522.752C905.735 523.192 904.957 523.603 903.989 523.984C903.021 524.336 901.863 524.512 900.513 524.512ZM904.253 518.748C905.045 518.748 905.72 518.675 906.277 518.528C906.864 518.381 907.289 518.249 907.553 518.132V517.296C907.553 516.915 907.275 516.548 906.717 516.196C906.189 515.844 905.353 515.668 904.209 515.668C902.625 515.668 901.833 516.225 901.833 517.34C901.833 517.809 902.009 518.161 902.361 518.396C902.713 518.631 903.344 518.748 904.253 518.748ZM920.789 524.072V510.828L919.909 505.988L921.273 503.304H927.829V505.196L928.225 505.46C928.548 505.167 928.988 504.829 929.545 504.448C930.132 504.037 930.836 503.671 931.657 503.348C932.479 503.025 933.403 502.864 934.429 502.864C937.069 502.864 939.049 503.612 940.369 505.108C941.689 506.604 942.349 508.701 942.349 511.4V516.988L943.273 521.388L942.349 524.072H934.429V512.544C934.429 511.429 934.18 510.579 933.681 509.992C933.212 509.376 932.464 509.068 931.437 509.068L928.709 509.904V524.072H920.789ZM984.966 513.996C984.966 516.216 984.536 518.128 983.677 519.732C982.817 521.336 981.743 522.568 980.454 523.427C979.179 524.287 977.897 524.717 976.608 524.717C975.062 524.717 973.844 524.222 972.956 523.234C972.082 522.246 971.466 521.122 971.108 519.861C970.808 520.663 970.385 521.437 969.841 522.181C969.311 522.926 968.623 523.535 967.778 524.008C966.933 524.48 965.902 524.717 964.685 524.717C963.396 524.717 962.185 524.358 961.054 523.642C959.937 522.912 959.027 521.838 958.325 520.42C957.638 518.987 957.294 517.226 957.294 515.135C957.294 513.588 957.559 512.062 958.089 510.558C958.633 509.04 959.385 507.651 960.345 506.39C961.319 505.13 962.457 504.106 963.761 503.318C963.861 503.375 964.119 503.483 964.534 503.64C964.95 503.784 965.215 503.905 965.329 504.006C963.782 505.696 962.737 507.429 962.192 509.205C961.648 510.981 961.376 512.707 961.376 514.383C961.376 515.743 961.555 516.997 961.913 518.142C962.285 519.288 962.815 520.205 963.503 520.892C964.205 521.58 965.035 521.924 965.995 521.924C966.654 521.924 967.256 521.659 967.8 521.129C968.344 520.584 968.774 519.883 969.089 519.023C969.418 518.164 969.59 517.254 969.604 516.295C969.59 515.235 969.519 514.218 969.39 513.244C969.275 512.256 969.146 511.539 969.003 511.095C969.619 510.866 970.271 510.623 970.958 510.365C971.66 510.107 972.24 509.885 972.698 509.699C972.813 509.842 972.956 510.014 973.128 510.215C973.314 510.401 973.407 510.494 973.407 510.494C973.407 510.494 973.35 510.752 973.235 511.267C973.121 511.783 973.006 512.47 972.892 513.33C972.791 514.175 972.756 515.12 972.784 516.166C972.813 517.111 972.949 518.028 973.192 518.916C973.436 519.789 973.837 520.513 974.396 521.086C974.954 521.644 975.706 521.924 976.651 521.924C977.511 521.924 978.263 521.587 978.907 520.914C979.552 520.226 980.046 519.324 980.39 518.207C980.733 517.09 980.905 515.886 980.905 514.597C980.905 512.535 980.612 510.694 980.024 509.076C979.437 507.457 978.499 505.782 977.21 504.049C977.339 503.948 977.597 503.819 977.983 503.662C978.37 503.49 978.635 503.375 978.778 503.318C979.896 503.977 980.92 504.865 981.851 505.982C982.796 507.085 983.548 508.331 984.106 509.72C984.679 511.095 984.966 512.521 984.966 513.996ZM989.013 516.152V510.872H1003.09V516.152H989.013ZM1007.97 524.072V510.3L1007.05 505.9L1007.97 503.26H1013.96L1014.84 504.272C1014.84 504.272 1015.04 504.155 1015.45 503.92C1015.86 503.656 1016.44 503.407 1017.17 503.172C1017.93 502.937 1018.81 502.82 1019.81 502.82C1020.4 502.82 1020.98 502.864 1021.57 502.952C1022.16 503.04 1022.61 503.157 1022.93 503.304L1025.79 505.724L1022.93 511.356L1017.13 508.936L1015.81 509.376V524.072H1007.97ZM1037.21 524.512C1034.96 524.512 1032.95 524.175 1031.19 523.5C1029.43 522.825 1028.05 521.696 1027.05 520.112C1026.05 518.528 1025.55 516.387 1025.55 513.688C1025.55 511.752 1025.88 510.095 1026.52 508.716C1027.2 507.337 1028.09 506.223 1029.21 505.372C1030.32 504.492 1031.57 503.861 1032.95 503.48C1034.32 503.069 1035.75 502.864 1037.21 502.864C1039.74 502.864 1041.67 503.113 1043.02 503.612C1044.4 504.111 1045.31 504.507 1045.75 504.8L1047.95 511.796L1047.07 514.524H1033.43C1033.64 515.609 1034.18 516.519 1035.06 517.252C1035.94 517.985 1037.39 518.352 1039.41 518.352C1041 518.352 1042.36 518.176 1043.51 517.824C1044.65 517.472 1045.54 517.164 1046.19 516.9V522.796C1045.31 523.265 1044.03 523.676 1042.36 524.028C1040.72 524.351 1039 524.512 1037.21 524.512ZM1033.47 511.708L1039.55 510.828L1039.15 508.936C1038.94 508.819 1038.64 508.731 1038.23 508.672C1037.84 508.613 1037.51 508.584 1037.21 508.584C1036.39 508.584 1035.7 508.76 1035.15 509.112C1034.62 509.464 1034.21 509.889 1033.91 510.388C1033.65 510.857 1033.5 511.297 1033.47 511.708ZM1060.25 534.764C1059.52 534.764 1058.68 534.735 1057.75 534.676C1056.81 534.647 1056.04 534.603 1055.46 534.544L1050.09 531.948L1052.29 526.228L1059.2 528.472C1063.1 528.472 1065.05 526.844 1065.05 523.588V522.752L1064.61 522.532C1064.2 522.943 1063.54 523.368 1062.63 523.808C1061.75 524.219 1060.36 524.424 1058.45 524.424C1057.07 524.424 1055.74 524.087 1054.45 523.412C1053.15 522.708 1052.1 521.593 1051.28 520.068C1050.49 518.543 1050.09 516.563 1050.09 514.128C1050.09 511.4 1050.5 509.215 1051.32 507.572C1052.14 505.9 1053.18 504.683 1054.45 503.92C1055.74 503.157 1057.07 502.776 1058.45 502.776C1059.97 502.776 1061.22 502.996 1062.19 503.436C1063.19 503.876 1063.85 504.301 1064.17 504.712V503.26H1072.13L1072.57 505.9L1072.09 508.54L1072.13 524.028C1072.13 526.551 1071.63 528.604 1070.64 530.188C1069.67 531.772 1068.29 532.931 1066.5 533.664C1064.74 534.397 1062.66 534.764 1060.25 534.764ZM1061.75 518.22C1062.28 518.22 1062.76 518.147 1063.2 518C1063.64 517.853 1063.96 517.721 1064.17 517.604V509.376C1064.05 509.288 1063.83 509.2 1063.51 509.112C1063.19 509.024 1062.75 508.98 1062.19 508.98C1061.05 508.98 1060.14 509.347 1059.46 510.08C1058.79 510.813 1058.45 512.001 1058.45 513.644C1058.45 515.257 1058.77 516.431 1059.42 517.164C1060.06 517.868 1060.84 518.22 1061.75 518.22ZM1082.7 524.512C1080.94 524.512 1079.58 524.175 1078.61 523.5C1077.67 522.825 1077.01 521.857 1076.63 520.596C1076.28 519.305 1076.1 517.765 1076.1 515.976V503.26H1084.02V514.832C1084.02 515.917 1084.23 516.768 1084.64 517.384C1085.08 518 1085.72 518.308 1086.57 518.308C1087.36 518.308 1088.08 517.971 1088.73 517.296C1089.4 516.621 1089.74 515.639 1089.74 514.348V503.26H1097.66V516.988L1098.58 521.388L1097.66 524.072H1090.22V521.916L1089.78 521.696C1089.4 522.077 1088.85 522.488 1088.11 522.928C1087.41 523.368 1086.59 523.749 1085.65 524.072C1084.74 524.365 1083.76 524.512 1082.7 524.512ZM1102.85 524.072L1102.81 499.96L1101.93 495.56L1102.85 492.92H1110.77V524.072H1102.85ZM1121.76 524.512C1120.5 524.512 1119.32 524.336 1118.24 523.984C1117.18 523.603 1116.33 522.957 1115.69 522.048C1115.04 521.139 1114.72 519.877 1114.72 518.264C1114.72 516.797 1115.09 515.58 1115.82 514.612C1116.55 513.644 1117.55 512.925 1118.81 512.456C1120.07 511.987 1121.5 511.752 1123.08 511.752C1124.6 511.752 1125.75 511.928 1126.51 512.28C1127.27 512.603 1127.93 512.94 1128.49 513.292L1128.8 513.028C1128.8 512.148 1128.73 511.415 1128.58 510.828C1128.43 510.241 1128.1 509.801 1127.57 509.508C1127.04 509.185 1126.22 509.024 1125.1 509.024C1124.02 509.024 1122.86 509.127 1121.63 509.332C1120.42 509.508 1119.31 509.743 1118.28 510.036C1117.29 510.3 1116.54 510.564 1116.04 510.828V504.228C1116.95 503.905 1118.24 503.612 1119.91 503.348C1121.61 503.055 1123.7 502.908 1126.16 502.908C1128.8 502.908 1130.88 503.245 1132.41 503.92C1133.96 504.565 1135.08 505.519 1135.75 506.78C1136.43 508.012 1136.76 509.493 1136.76 511.224V517.076L1137.64 521.52L1136.76 524.116H1129.24V521.96L1128.8 521.74C1128.56 521.975 1128.15 522.312 1127.57 522.752C1126.98 523.192 1126.2 523.603 1125.24 523.984C1124.27 524.336 1123.11 524.512 1121.76 524.512ZM1125.5 518.748C1126.29 518.748 1126.97 518.675 1127.52 518.528C1128.11 518.381 1128.54 518.249 1128.8 518.132V517.296C1128.8 516.915 1128.52 516.548 1127.96 516.196C1127.44 515.844 1126.6 515.668 1125.46 515.668C1123.87 515.668 1123.08 516.225 1123.08 517.34C1123.08 517.809 1123.26 518.161 1123.61 518.396C1123.96 518.631 1124.59 518.748 1125.5 518.748ZM1142.08 524.072V510.3L1141.16 505.9L1142.08 503.26H1148.06L1148.94 504.272C1148.94 504.272 1149.15 504.155 1149.56 503.92C1149.97 503.656 1150.54 503.407 1151.28 503.172C1152.04 502.937 1152.92 502.82 1153.92 502.82C1154.5 502.82 1155.09 502.864 1155.68 502.952C1156.26 503.04 1156.72 503.157 1157.04 503.304L1159.9 505.724L1157.04 511.356L1151.23 508.936L1149.91 509.376V524.072H1142.08ZM1173.15 524.072L1173.1 499.96L1172.22 495.56L1173.15 492.92H1181.07V524.072H1173.15ZM1192.06 524.512C1190.79 524.512 1189.62 524.336 1188.54 523.984C1187.48 523.603 1186.63 522.957 1185.98 522.048C1185.34 521.139 1185.02 519.877 1185.02 518.264C1185.02 516.797 1185.38 515.58 1186.12 514.612C1186.85 513.644 1187.85 512.925 1189.11 512.456C1190.37 511.987 1191.79 511.752 1193.38 511.752C1194.9 511.752 1196.05 511.928 1196.81 512.28C1197.57 512.603 1198.23 512.94 1198.79 513.292L1199.1 513.028C1199.1 512.148 1199.02 511.415 1198.88 510.828C1198.73 510.241 1198.39 509.801 1197.86 509.508C1197.34 509.185 1196.51 509.024 1195.4 509.024C1194.31 509.024 1193.16 509.127 1191.92 509.332C1190.72 509.508 1189.61 509.743 1188.58 510.036C1187.58 510.3 1186.83 510.564 1186.34 510.828V504.228C1187.25 503.905 1188.54 503.612 1190.21 503.348C1191.91 503.055 1193.99 502.908 1196.46 502.908C1199.1 502.908 1201.18 503.245 1202.7 503.92C1204.26 504.565 1205.37 505.519 1206.05 506.78C1206.72 508.012 1207.06 509.493 1207.06 511.224V517.076L1207.94 521.52L1207.06 524.116H1199.54V521.96L1199.1 521.74C1198.86 521.975 1198.45 522.312 1197.86 522.752C1197.28 523.192 1196.5 523.603 1195.53 523.984C1194.56 524.336 1193.41 524.512 1192.06 524.512ZM1195.8 518.748C1196.59 518.748 1197.26 518.675 1197.82 518.528C1198.41 518.381 1198.83 518.249 1199.1 518.132V517.296C1199.1 516.915 1198.82 516.548 1198.26 516.196C1197.73 515.844 1196.9 515.668 1195.75 515.668C1194.17 515.668 1193.38 516.225 1193.38 517.34C1193.38 517.809 1193.55 518.161 1193.9 518.396C1194.26 518.631 1194.89 518.748 1195.8 518.748ZM1212.33 524.072V510.828L1211.45 505.988L1212.82 503.304H1219.37V505.196L1219.77 505.46C1220.09 505.167 1220.53 504.829 1221.09 504.448C1221.68 504.037 1222.38 503.671 1223.2 503.348C1224.02 503.025 1224.95 502.864 1225.97 502.864C1228.61 502.864 1230.59 503.612 1231.91 505.108C1233.23 506.604 1233.89 508.701 1233.89 511.4V516.988L1234.82 521.388L1233.89 524.072H1225.97V512.544C1225.97 511.429 1225.72 510.579 1225.22 509.992C1224.76 509.376 1224.01 509.068 1222.98 509.068L1220.25 509.904V524.072H1212.33ZM1247.68 534.764C1246.95 534.764 1246.11 534.735 1245.17 534.676C1244.24 534.647 1243.47 534.603 1242.89 534.544L1237.52 531.948L1239.72 526.228L1246.63 528.472C1250.53 528.472 1252.48 526.844 1252.48 523.588V522.752L1252.04 522.532C1251.63 522.943 1250.97 523.368 1250.06 523.808C1249.18 524.219 1247.79 524.424 1245.88 524.424C1244.5 524.424 1243.17 524.087 1241.87 523.412C1240.58 522.708 1239.53 521.593 1238.71 520.068C1237.91 518.543 1237.52 516.563 1237.52 514.128C1237.52 511.4 1237.93 509.215 1238.75 507.572C1239.57 505.9 1240.61 504.683 1241.87 503.92C1243.17 503.157 1244.5 502.776 1245.88 502.776C1247.4 502.776 1248.65 502.996 1249.62 503.436C1250.62 503.876 1251.28 504.301 1251.6 504.712V503.26H1259.56L1260 505.9L1259.52 508.54L1259.56 524.028C1259.56 526.551 1259.06 528.604 1258.07 530.188C1257.1 531.772 1255.72 532.931 1253.93 533.664C1252.17 534.397 1250.09 534.764 1247.68 534.764ZM1249.18 518.22C1249.71 518.22 1250.19 518.147 1250.63 518C1251.07 517.853 1251.39 517.721 1251.6 517.604V509.376C1251.48 509.288 1251.26 509.2 1250.94 509.112C1250.62 509.024 1250.18 508.98 1249.62 508.98C1248.47 508.98 1247.57 509.347 1246.89 510.08C1246.22 510.813 1245.88 512.001 1245.88 513.644C1245.88 515.257 1246.2 516.431 1246.85 517.164C1247.49 517.868 1248.27 518.22 1249.18 518.22ZM1270.13 524.512C1268.37 524.512 1267.01 524.175 1266.04 523.5C1265.1 522.825 1264.44 521.857 1264.06 520.596C1263.71 519.305 1263.53 517.765 1263.53 515.976V503.26H1271.45V514.832C1271.45 515.917 1271.66 516.768 1272.07 517.384C1272.51 518 1273.15 518.308 1274 518.308C1274.79 518.308 1275.51 517.971 1276.16 517.296C1276.83 516.621 1277.17 515.639 1277.17 514.348V503.26H1285.09V516.988L1286.01 521.388L1285.09 524.072H1277.65V521.916L1277.21 521.696C1276.83 522.077 1276.28 522.488 1275.54 522.928C1274.84 523.368 1274.02 523.749 1273.08 524.072C1272.17 524.365 1271.19 524.512 1270.13 524.512ZM1295.95 524.512C1294.69 524.512 1293.52 524.336 1292.43 523.984C1291.38 523.603 1290.53 522.957 1289.88 522.048C1289.24 521.139 1288.91 519.877 1288.91 518.264C1288.91 516.797 1289.28 515.58 1290.01 514.612C1290.75 513.644 1291.75 512.925 1293.01 512.456C1294.27 511.987 1295.69 511.752 1297.27 511.752C1298.8 511.752 1299.94 511.928 1300.71 512.28C1301.47 512.603 1302.13 512.94 1302.69 513.292L1302.99 513.028C1302.99 512.148 1302.92 511.415 1302.77 510.828C1302.63 510.241 1302.29 509.801 1301.76 509.508C1301.23 509.185 1300.41 509.024 1299.3 509.024C1298.21 509.024 1297.05 509.127 1295.82 509.332C1294.62 509.508 1293.51 509.743 1292.48 510.036C1291.48 510.3 1290.73 510.564 1290.23 510.828V504.228C1291.14 503.905 1292.43 503.612 1294.11 503.348C1295.81 503.055 1297.89 502.908 1300.35 502.908C1302.99 502.908 1305.08 503.245 1306.6 503.92C1308.16 504.565 1309.27 505.519 1309.95 506.78C1310.62 508.012 1310.96 509.493 1310.96 511.224V517.076L1311.84 521.52L1310.96 524.116H1303.43V521.96L1302.99 521.74C1302.76 521.975 1302.35 522.312 1301.76 522.752C1301.18 523.192 1300.4 523.603 1299.43 523.984C1298.46 524.336 1297.3 524.512 1295.95 524.512ZM1299.69 518.748C1300.49 518.748 1301.16 518.675 1301.72 518.528C1302.31 518.381 1302.73 518.249 1302.99 518.132V517.296C1302.99 516.915 1302.72 516.548 1302.16 516.196C1301.63 515.844 1300.79 515.668 1299.65 515.668C1298.07 515.668 1297.27 516.225 1297.27 517.34C1297.27 517.809 1297.45 518.161 1297.8 518.396C1298.15 518.631 1298.79 518.748 1299.69 518.748ZM1324.85 534.764C1324.12 534.764 1323.29 534.735 1322.35 534.676C1321.41 534.647 1320.65 534.603 1320.06 534.544L1314.69 531.948L1316.89 526.228L1323.8 528.472C1327.7 528.472 1329.65 526.844 1329.65 523.588V522.752L1329.21 522.532C1328.8 522.943 1328.14 523.368 1327.23 523.808C1326.35 524.219 1324.96 524.424 1323.05 524.424C1321.67 524.424 1320.34 524.087 1319.05 523.412C1317.76 522.708 1316.7 521.593 1315.88 520.068C1315.09 518.543 1314.69 516.563 1314.69 514.128C1314.69 511.4 1315.1 509.215 1315.92 507.572C1316.74 505.9 1317.79 504.683 1319.05 503.92C1320.34 503.157 1321.67 502.776 1323.05 502.776C1324.58 502.776 1325.82 502.996 1326.79 503.436C1327.79 503.876 1328.45 504.301 1328.77 504.712V503.26H1336.73L1337.17 505.9L1336.69 508.54L1336.73 524.028C1336.73 526.551 1336.24 528.604 1335.24 530.188C1334.27 531.772 1332.89 532.931 1331.1 533.664C1329.34 534.397 1327.26 534.764 1324.85 534.764ZM1326.35 518.22C1326.88 518.22 1327.36 518.147 1327.8 518C1328.24 517.853 1328.57 517.721 1328.77 517.604V509.376C1328.65 509.288 1328.43 509.2 1328.11 509.112C1327.79 509.024 1327.35 508.98 1326.79 508.98C1325.65 508.98 1324.74 509.347 1324.06 510.08C1323.39 510.813 1323.05 512.001 1323.05 513.644C1323.05 515.257 1323.37 516.431 1324.02 517.164C1324.66 517.868 1325.44 518.22 1326.35 518.22ZM1351.7 524.512C1349.44 524.512 1347.43 524.175 1345.67 523.5C1343.91 522.825 1342.54 521.696 1341.54 520.112C1340.54 518.528 1340.04 516.387 1340.04 513.688C1340.04 511.752 1340.37 510.095 1341.01 508.716C1341.69 507.337 1342.58 506.223 1343.69 505.372C1344.81 504.492 1346.06 503.861 1347.43 503.48C1348.81 503.069 1350.24 502.864 1351.7 502.864C1354.23 502.864 1356.16 503.113 1357.51 503.612C1358.89 504.111 1359.8 504.507 1360.24 504.8L1362.44 511.796L1361.56 514.524H1347.92C1348.12 515.609 1348.67 516.519 1349.55 517.252C1350.43 517.985 1351.88 518.352 1353.9 518.352C1355.49 518.352 1356.85 518.176 1357.99 517.824C1359.14 517.472 1360.03 517.164 1360.68 516.9V522.796C1359.8 523.265 1358.52 523.676 1356.85 524.028C1355.21 524.351 1353.49 524.512 1351.7 524.512ZM1347.96 511.708L1354.03 510.828L1353.64 508.936C1353.43 508.819 1353.13 508.731 1352.71 508.672C1352.33 508.613 1352 508.584 1351.7 508.584C1350.88 508.584 1350.19 508.76 1349.63 509.112C1349.11 509.464 1348.7 509.889 1348.4 510.388C1348.14 510.857 1347.99 511.297 1347.96 511.708ZM1373.47 513.908L1370.39 510.388L1373.99 507.044C1374.87 506.193 1375.58 505.372 1376.11 504.58C1376.63 503.759 1376.9 502.893 1376.9 501.984C1376.9 501.28 1376.63 500.708 1376.11 500.268C1375.61 499.828 1374.71 499.608 1373.42 499.608L1367.79 501.5L1365.68 495.604C1366.5 494.929 1367.69 494.24 1369.24 493.536C1370.83 492.832 1372.73 492.48 1374.96 492.48C1378.39 492.48 1380.89 493.199 1382.44 494.636C1384 496.073 1384.77 497.921 1384.77 500.18C1384.77 502.233 1384.25 504.067 1383.19 505.68C1382.16 507.264 1380.97 508.54 1379.63 509.508L1373.47 513.908ZM1373.47 525.392L1368.63 520.552L1373.47 515.712L1378.31 520.552L1373.47 525.392Z" fill="#4B6584"/>
</g>
</svg>
