<svg width="1024" height="768" viewBox="0 0 1024 768" fill="none" xmlns="http://www.w3.org/2000/svg">
<g id="reussi">
<rect width="1024" height="768" fill="white"/>
<g id="Group_10">
<circle id="Ellipse 2" cx="169.5" cy="485.5" r="32.5" stroke="black" stroke-width="2"/>
<circle id="Ellipse 3" cx="340.5" cy="485.5" r="32.5" stroke="black" stroke-width="2"/>
<circle id="Ellipse 4" cx="511.5" cy="485.5" r="32.5" stroke="black" stroke-width="2"/>
<circle id="Ellipse 5" cx="682.5" cy="485.5" r="32.5" stroke="black" stroke-width="2"/>
<circle id="Ellipse 6" cx="853.5" cy="485.5" r="32.5" stroke="black" stroke-width="2"/>
<path id="Vector 6" d="M109 489L170 548" stroke="black" stroke-width="2"/>
<path id="Vector 9" d="M280 489L341 548" stroke="black" stroke-width="2"/>
<path id="Vector 12" d="M451 489L512 548" stroke="black" stroke-width="2"/>
<path id="Vector 15" d="M622 489L683 548" stroke="black" stroke-width="2"/>
<path id="Vector 18" d="M793 489L854 548" stroke="black" stroke-width="2"/>
<path id="Vector 8" d="M231 489L170 548" stroke="black" stroke-width="2"/>
<path id="Vector 10" d="M402 489L341 548" stroke="black" stroke-width="2"/>
<path id="Vector 13" d="M573 489L512 548" stroke="black" stroke-width="2"/>
<path id="Vector 16" d="M744 489L683 548" stroke="black" stroke-width="2"/>
<path id="Vector 19" d="M915 489L854 548" stroke="black" stroke-width="2"/>
<path id="Vector 7" d="M170 519V548" stroke="black" stroke-width="2"/>
<path id="Vector 11" d="M341 519V548" stroke="black" stroke-width="2"/>
<path id="Vector 14" d="M512 519V548" stroke="black" stroke-width="2"/>
<path id="Vector 17" d="M683 519V548" stroke="black" stroke-width="2"/>
<path id="Vector 20" d="M854 519V548" stroke="black" stroke-width="2"/>
<path id="The jury is happy because slajdomat is great" d="M105.32 263V237.6H96.4V234.44H117.8V237.6H108.92V263H105.32ZM121.627 263V232.6H125.147V241.52C125.147 242.587 125.08 243.587 124.947 244.52H125.187C125.88 243.427 126.813 242.6 127.987 242.04C129.187 241.48 130.48 241.2 131.867 241.2C134.48 241.2 136.44 241.827 137.747 243.08C139.053 244.307 139.707 246.293 139.707 249.04V263H136.227V249.28C136.227 245.84 134.627 244.12 131.427 244.12C129.027 244.12 127.373 244.8 126.467 246.16C125.587 247.493 125.147 249.413 125.147 251.92V263H121.627ZM155.473 263.4C153.446 263.4 151.646 262.987 150.073 262.16C148.526 261.333 147.313 260.107 146.433 258.48C145.58 256.827 145.153 254.813 145.153 252.44C145.153 250.093 145.54 248.08 146.313 246.4C147.113 244.72 148.22 243.427 149.633 242.52C151.073 241.613 152.74 241.16 154.633 241.16C156.473 241.16 158.046 241.56 159.353 242.36C160.686 243.16 161.7 244.293 162.393 245.76C163.113 247.2 163.473 248.893 163.473 250.84V252.96H148.793C148.846 255.387 149.46 257.24 150.633 258.52C151.833 259.773 153.5 260.4 155.633 260.4C156.993 260.4 158.193 260.28 159.233 260.04C160.3 259.773 161.393 259.4 162.513 258.92V262C161.42 262.48 160.34 262.827 159.273 263.04C158.206 263.28 156.94 263.4 155.473 263.4ZM148.873 250.16H159.793C159.793 248.347 159.366 246.88 158.513 245.76C157.686 244.613 156.38 244.04 154.593 244.04C152.913 244.04 151.58 244.587 150.593 245.68C149.633 246.747 149.06 248.24 148.873 250.16ZM181.122 238C180.535 238 180.042 237.813 179.642 237.44C179.242 237.067 179.042 236.507 179.042 235.76C179.042 234.987 179.242 234.427 179.642 234.08C180.042 233.707 180.535 233.52 181.122 233.52C181.655 233.52 182.122 233.707 182.522 234.08C182.949 234.427 183.162 234.987 183.162 235.76C183.162 236.507 182.949 237.067 182.522 237.44C182.122 237.813 181.655 238 181.122 238ZM176.802 272.6C176.135 272.6 175.549 272.547 175.042 272.44C174.535 272.36 174.095 272.253 173.722 272.12V269.28C174.122 269.387 174.535 269.48 174.962 269.56C175.389 269.64 175.855 269.68 176.362 269.68C177.215 269.68 177.922 269.44 178.482 268.96C179.042 268.507 179.322 267.627 179.322 266.32V241.56H182.842V266.2C182.842 268.2 182.362 269.76 181.402 270.88C180.442 272.027 178.909 272.6 176.802 272.6ZM197.194 263.4C194.608 263.4 192.661 262.787 191.354 261.56C190.048 260.307 189.394 258.32 189.394 255.6V241.56H192.954V255.36C192.954 258.773 194.541 260.48 197.714 260.48C200.088 260.48 201.728 259.813 202.634 258.48C203.568 257.147 204.034 255.227 204.034 252.72V241.56H207.554V263H204.674L204.154 260.16H203.994C203.301 261.28 202.341 262.107 201.114 262.64C199.888 263.147 198.581 263.4 197.194 263.4ZM214.361 263V241.56H217.241L217.641 245.48H217.801C218.494 244.307 219.388 243.293 220.481 242.44C221.574 241.587 222.868 241.16 224.361 241.16C224.761 241.16 225.188 241.187 225.641 241.24C226.121 241.267 226.534 241.32 226.881 241.4L226.441 244.64C226.094 244.56 225.708 244.493 225.281 244.44C224.881 244.387 224.494 244.36 224.121 244.36C223.028 244.36 222.001 244.667 221.041 245.28C220.081 245.867 219.308 246.707 218.721 247.8C218.161 248.867 217.881 250.12 217.881 251.56V263H214.361ZM230.844 272.6C230.204 272.6 229.644 272.56 229.164 272.48C228.684 272.427 228.271 272.36 227.924 272.28V269.48C228.218 269.533 228.564 269.587 228.964 269.64C229.391 269.693 229.831 269.72 230.284 269.72C231.511 269.72 232.498 269.373 233.244 268.68C233.991 267.987 234.591 267.067 235.044 265.92L236.164 263.08L227.524 241.56H231.284L235.924 253.76C236.324 254.827 236.684 255.853 237.004 256.84C237.324 257.8 237.564 258.72 237.724 259.6H237.884C238.044 258.933 238.284 258.067 238.604 257C238.951 255.907 239.324 254.813 239.724 253.72L244.084 241.56H247.884L238.644 265.96C237.898 267.987 236.924 269.6 235.724 270.8C234.551 272 232.924 272.6 230.844 272.6ZM263.466 238C262.879 238 262.386 237.813 261.986 237.44C261.586 237.067 261.386 236.507 261.386 235.76C261.386 234.987 261.586 234.427 261.986 234.08C262.386 233.707 262.879 233.52 263.466 233.52C263.999 233.52 264.466 233.707 264.866 234.08C265.292 234.427 265.506 234.987 265.506 235.76C265.506 236.507 265.292 237.067 264.866 237.44C264.466 237.813 263.999 238 263.466 238ZM261.666 263V241.56H265.186V263H261.666ZM277.378 263.4C275.885 263.4 274.591 263.28 273.498 263.04C272.431 262.8 271.485 262.467 270.658 262.04V258.84C271.511 259.267 272.538 259.667 273.738 260.04C274.965 260.387 276.205 260.56 277.458 260.56C279.245 260.56 280.538 260.28 281.338 259.72C282.138 259.133 282.538 258.36 282.538 257.4C282.538 256.867 282.391 256.387 282.098 255.96C281.805 255.533 281.271 255.107 280.498 254.68C279.751 254.253 278.671 253.773 277.258 253.24C275.871 252.707 274.685 252.173 273.698 251.64C272.711 251.107 271.951 250.467 271.418 249.72C270.885 248.973 270.618 248.013 270.618 246.84C270.618 245.027 271.351 243.627 272.818 242.64C274.311 241.653 276.258 241.16 278.658 241.16C279.965 241.16 281.178 241.293 282.298 241.56C283.445 241.8 284.511 242.147 285.498 242.6L284.298 245.4C283.391 245.027 282.445 244.707 281.458 244.44C280.471 244.173 279.458 244.04 278.418 244.04C276.978 244.04 275.871 244.28 275.098 244.76C274.351 245.213 273.978 245.84 273.978 246.64C273.978 247.227 274.151 247.733 274.498 248.16C274.845 248.56 275.418 248.96 276.218 249.36C277.045 249.733 278.138 250.187 279.498 250.72C280.858 251.227 282.018 251.76 282.978 252.32C283.938 252.853 284.671 253.493 285.178 254.24C285.685 254.987 285.938 255.933 285.938 257.08C285.938 259.16 285.165 260.733 283.618 261.8C282.071 262.867 279.991 263.4 277.378 263.4ZM301.509 263V232.6H305.029V241.52C305.029 242.587 304.963 243.587 304.829 244.52H305.069C305.763 243.427 306.696 242.6 307.869 242.04C309.069 241.48 310.363 241.2 311.749 241.2C314.363 241.2 316.323 241.827 317.629 243.08C318.936 244.307 319.589 246.293 319.589 249.04V263H316.109V249.28C316.109 245.84 314.509 244.12 311.309 244.12C308.909 244.12 307.256 244.8 306.349 246.16C305.469 247.493 305.029 249.413 305.029 251.92V263H301.509ZM331.436 263.4C329.489 263.4 327.876 262.893 326.596 261.88C325.316 260.84 324.676 259.227 324.676 257.04C324.676 254.907 325.516 253.267 327.196 252.12C328.876 250.947 331.463 250.307 334.956 250.2L338.596 250.08V248.8C338.596 247.013 338.209 245.773 337.436 245.08C336.663 244.387 335.569 244.04 334.156 244.04C333.036 244.04 331.969 244.213 330.956 244.56C329.943 244.88 328.996 245.253 328.116 245.68L327.036 243.04C327.969 242.533 329.076 242.107 330.356 241.76C331.636 241.387 332.969 241.2 334.356 241.2C336.969 241.2 338.903 241.773 340.156 242.92C341.409 244.067 342.036 245.893 342.036 248.4V263H339.476L338.796 259.96H338.636C337.703 261.133 336.716 262 335.676 262.56C334.663 263.12 333.249 263.4 331.436 263.4ZM332.236 260.56C334.049 260.56 335.556 260.067 336.756 259.08C337.956 258.067 338.556 256.52 338.556 254.44V252.52L335.396 252.64C332.729 252.747 330.876 253.173 329.836 253.92C328.823 254.667 328.316 255.72 328.316 257.08C328.316 258.28 328.676 259.16 329.396 259.72C330.143 260.28 331.089 260.56 332.236 260.56ZM348.658 272.6V241.56H351.538L352.018 244.48H352.178C352.818 243.547 353.658 242.76 354.698 242.12C355.738 241.48 357.124 241.16 358.858 241.16C361.498 241.16 363.618 242.08 365.218 243.92C366.844 245.76 367.658 248.533 367.658 252.24C367.658 255.893 366.844 258.667 365.218 260.56C363.618 262.453 361.484 263.4 358.818 263.4C357.164 263.4 355.791 263.093 354.698 262.48C353.631 261.84 352.791 261.107 352.178 260.28H351.938C351.991 260.733 352.044 261.307 352.098 262C352.151 262.693 352.178 263.293 352.178 263.8V272.6H348.658ZM358.298 260.48C359.604 260.48 360.671 260.12 361.498 259.4C362.351 258.68 362.978 257.707 363.378 256.48C363.804 255.227 364.018 253.8 364.018 252.2C364.018 249.747 363.538 247.787 362.578 246.32C361.644 244.853 360.191 244.12 358.218 244.12C356.031 244.12 354.484 244.733 353.578 245.96C352.698 247.187 352.231 249.053 352.178 251.56V252.24C352.178 254.88 352.604 256.92 353.458 258.36C354.338 259.773 355.951 260.48 358.298 260.48ZM373.267 272.6V241.56H376.147L376.627 244.48H376.787C377.427 243.547 378.267 242.76 379.307 242.12C380.347 241.48 381.734 241.16 383.467 241.16C386.107 241.16 388.227 242.08 389.827 243.92C391.454 245.76 392.267 248.533 392.267 252.24C392.267 255.893 391.454 258.667 389.827 260.56C388.227 262.453 386.094 263.4 383.427 263.4C381.774 263.4 380.401 263.093 379.307 262.48C378.241 261.84 377.401 261.107 376.787 260.28H376.547C376.601 260.733 376.654 261.307 376.707 262C376.761 262.693 376.787 263.293 376.787 263.8V272.6H373.267ZM382.907 260.48C384.214 260.48 385.281 260.12 386.107 259.4C386.961 258.68 387.587 257.707 387.987 256.48C388.414 255.227 388.627 253.8 388.627 252.2C388.627 249.747 388.147 247.787 387.187 246.32C386.254 244.853 384.801 244.12 382.827 244.12C380.641 244.12 379.094 244.733 378.187 245.96C377.307 247.187 376.841 249.053 376.787 251.56V252.24C376.787 254.88 377.214 256.92 378.067 258.36C378.947 259.773 380.561 260.48 382.907 260.48ZM397.837 272.6C397.197 272.6 396.637 272.56 396.157 272.48C395.677 272.427 395.263 272.36 394.917 272.28V269.48C395.21 269.533 395.557 269.587 395.957 269.64C396.383 269.693 396.823 269.72 397.277 269.72C398.503 269.72 399.49 269.373 400.237 268.68C400.983 267.987 401.583 267.067 402.037 265.92L403.157 263.08L394.517 241.56H398.277L402.917 253.76C403.317 254.827 403.677 255.853 403.997 256.84C404.317 257.8 404.557 258.72 404.717 259.6H404.877C405.037 258.933 405.277 258.067 405.597 257C405.943 255.907 406.317 254.813 406.717 253.72L411.077 241.56H414.877L405.637 265.96C404.89 267.987 403.917 269.6 402.717 270.8C401.543 272 399.917 272.6 397.837 272.6ZM438.818 263.4C437.138 263.4 435.764 263.093 434.698 262.48C433.631 261.867 432.791 261.133 432.178 260.28H431.898L431.178 263H428.658V232.6H432.178V240C432.178 240.907 432.151 241.76 432.098 242.56C432.071 243.333 432.031 243.947 431.978 244.4H432.178C432.791 243.493 433.631 242.733 434.698 242.12C435.764 241.507 437.138 241.2 438.818 241.2C441.484 241.2 443.618 242.133 445.218 244C446.844 245.84 447.658 248.6 447.658 252.28C447.658 255.96 446.844 258.733 445.218 260.6C443.591 262.467 441.458 263.4 438.818 263.4ZM438.298 260.48C440.218 260.48 441.644 259.773 442.578 258.36C443.538 256.947 444.018 254.907 444.018 252.24C444.018 246.827 442.084 244.12 438.218 244.12C435.951 244.12 434.378 244.773 433.498 246.08C432.618 247.387 432.178 249.413 432.178 252.16V252.32C432.178 254.96 432.604 256.987 433.458 258.4C434.338 259.787 435.951 260.48 438.298 260.48ZM462.387 263.4C460.361 263.4 458.561 262.987 456.987 262.16C455.441 261.333 454.227 260.107 453.347 258.48C452.494 256.827 452.067 254.813 452.067 252.44C452.067 250.093 452.454 248.08 453.227 246.4C454.027 244.72 455.134 243.427 456.547 242.52C457.987 241.613 459.654 241.16 461.547 241.16C463.387 241.16 464.961 241.56 466.267 242.36C467.601 243.16 468.614 244.293 469.307 245.76C470.027 247.2 470.387 248.893 470.387 250.84V252.96H455.707C455.761 255.387 456.374 257.24 457.547 258.52C458.747 259.773 460.414 260.4 462.547 260.4C463.907 260.4 465.107 260.28 466.147 260.04C467.214 259.773 468.307 259.4 469.427 258.92V262C468.334 262.48 467.254 262.827 466.187 263.04C465.121 263.28 463.854 263.4 462.387 263.4ZM455.787 250.16H466.707C466.707 248.347 466.281 246.88 465.427 245.76C464.601 244.613 463.294 244.04 461.507 244.04C459.827 244.04 458.494 244.587 457.507 245.68C456.547 246.747 455.974 248.24 455.787 250.16ZM484.445 263.4C482.552 263.4 480.859 263.013 479.365 262.24C477.899 261.467 476.739 260.267 475.885 258.64C475.059 257.013 474.645 254.933 474.645 252.4C474.645 249.76 475.085 247.613 475.965 245.96C476.845 244.307 478.032 243.093 479.525 242.32C481.045 241.547 482.765 241.16 484.685 241.16C485.779 241.16 486.832 241.28 487.845 241.52C488.859 241.733 489.685 242 490.325 242.32L489.245 245.24C488.605 245 487.859 244.773 487.005 244.56C486.152 244.347 485.352 244.24 484.605 244.24C480.392 244.24 478.285 246.947 478.285 252.36C478.285 254.947 478.792 256.933 479.805 258.32C480.845 259.68 482.379 260.36 484.405 260.36C485.579 260.36 486.605 260.24 487.485 260C488.392 259.76 489.219 259.467 489.965 259.12V262.24C489.245 262.613 488.445 262.893 487.565 263.08C486.712 263.293 485.672 263.4 484.445 263.4ZM500.264 263.4C498.317 263.4 496.704 262.893 495.424 261.88C494.144 260.84 493.504 259.227 493.504 257.04C493.504 254.907 494.344 253.267 496.024 252.12C497.704 250.947 500.291 250.307 503.784 250.2L507.424 250.08V248.8C507.424 247.013 507.037 245.773 506.264 245.08C505.491 244.387 504.397 244.04 502.984 244.04C501.864 244.04 500.797 244.213 499.784 244.56C498.771 244.88 497.824 245.253 496.944 245.68L495.864 243.04C496.797 242.533 497.904 242.107 499.184 241.76C500.464 241.387 501.797 241.2 503.184 241.2C505.797 241.2 507.731 241.773 508.984 242.92C510.237 244.067 510.864 245.893 510.864 248.4V263H508.304L507.624 259.96H507.464C506.531 261.133 505.544 262 504.504 262.56C503.491 263.12 502.077 263.4 500.264 263.4ZM501.064 260.56C502.877 260.56 504.384 260.067 505.584 259.08C506.784 258.067 507.384 256.52 507.384 254.44V252.52L504.224 252.64C501.557 252.747 499.704 253.173 498.664 253.92C497.651 254.667 497.144 255.72 497.144 257.08C497.144 258.28 497.504 259.16 498.224 259.72C498.971 260.28 499.917 260.56 501.064 260.56ZM525.046 263.4C522.459 263.4 520.513 262.787 519.206 261.56C517.899 260.307 517.246 258.32 517.246 255.6V241.56H520.806V255.36C520.806 258.773 522.393 260.48 525.566 260.48C527.939 260.48 529.579 259.813 530.486 258.48C531.419 257.147 531.886 255.227 531.886 252.72V241.56H535.406V263H532.526L532.006 260.16H531.846C531.153 261.28 530.193 262.107 528.966 262.64C527.739 263.147 526.433 263.4 525.046 263.4ZM547.613 263.4C546.119 263.4 544.826 263.28 543.733 263.04C542.666 262.8 541.719 262.467 540.893 262.04V258.84C541.746 259.267 542.773 259.667 543.973 260.04C545.199 260.387 546.439 260.56 547.693 260.56C549.479 260.56 550.773 260.28 551.573 259.72C552.373 259.133 552.773 258.36 552.773 257.4C552.773 256.867 552.626 256.387 552.333 255.96C552.039 255.533 551.506 255.107 550.733 254.68C549.986 254.253 548.906 253.773 547.493 253.24C546.106 252.707 544.919 252.173 543.933 251.64C542.946 251.107 542.186 250.467 541.653 249.72C541.119 248.973 540.853 248.013 540.853 246.84C540.853 245.027 541.586 243.627 543.053 242.64C544.546 241.653 546.493 241.16 548.893 241.16C550.199 241.16 551.413 241.293 552.533 241.56C553.679 241.8 554.746 242.147 555.733 242.6L554.533 245.4C553.626 245.027 552.679 244.707 551.693 244.44C550.706 244.173 549.693 244.04 548.653 244.04C547.213 244.04 546.106 244.28 545.333 244.76C544.586 245.213 544.213 245.84 544.213 246.64C544.213 247.227 544.386 247.733 544.733 248.16C545.079 248.56 545.653 248.96 546.453 249.36C547.279 249.733 548.373 250.187 549.733 250.72C551.093 251.227 552.253 251.76 553.213 252.32C554.173 252.853 554.906 253.493 555.413 254.24C555.919 254.987 556.173 255.933 556.173 257.08C556.173 259.16 555.399 260.733 553.853 261.8C552.306 262.867 550.226 263.4 547.613 263.4ZM570.473 263.4C568.446 263.4 566.646 262.987 565.073 262.16C563.526 261.333 562.313 260.107 561.433 258.48C560.58 256.827 560.153 254.813 560.153 252.44C560.153 250.093 560.54 248.08 561.313 246.4C562.113 244.72 563.22 243.427 564.633 242.52C566.073 241.613 567.74 241.16 569.633 241.16C571.473 241.16 573.046 241.56 574.353 242.36C575.686 243.16 576.7 244.293 577.393 245.76C578.113 247.2 578.473 248.893 578.473 250.84V252.96H563.793C563.846 255.387 564.46 257.24 565.633 258.52C566.833 259.773 568.5 260.4 570.633 260.4C571.993 260.4 573.193 260.28 574.233 260.04C575.3 259.773 576.393 259.4 577.513 258.92V262C576.42 262.48 575.34 262.827 574.273 263.04C573.206 263.28 571.94 263.4 570.473 263.4ZM563.873 250.16H574.793C574.793 248.347 574.366 246.88 573.513 245.76C572.686 244.613 571.38 244.04 569.593 244.04C567.913 244.04 566.58 244.587 565.593 245.68C564.633 246.747 564.06 248.24 563.873 250.16ZM599.722 263.4C598.229 263.4 596.935 263.28 595.842 263.04C594.775 262.8 593.829 262.467 593.002 262.04V258.84C593.855 259.267 594.882 259.667 596.082 260.04C597.309 260.387 598.549 260.56 599.802 260.56C601.589 260.56 602.882 260.28 603.682 259.72C604.482 259.133 604.882 258.36 604.882 257.4C604.882 256.867 604.735 256.387 604.442 255.96C604.149 255.533 603.615 255.107 602.842 254.68C602.095 254.253 601.015 253.773 599.602 253.24C598.215 252.707 597.029 252.173 596.042 251.64C595.055 251.107 594.295 250.467 593.762 249.72C593.229 248.973 592.962 248.013 592.962 246.84C592.962 245.027 593.695 243.627 595.162 242.64C596.655 241.653 598.602 241.16 601.002 241.16C602.309 241.16 603.522 241.293 604.642 241.56C605.789 241.8 606.855 242.147 607.842 242.6L606.642 245.4C605.735 245.027 604.789 244.707 603.802 244.44C602.815 244.173 601.802 244.04 600.762 244.04C599.322 244.04 598.215 244.28 597.442 244.76C596.695 245.213 596.322 245.84 596.322 246.64C596.322 247.227 596.495 247.733 596.842 248.16C597.189 248.56 597.762 248.96 598.562 249.36C599.389 249.733 600.482 250.187 601.842 250.72C603.202 251.227 604.362 251.76 605.322 252.32C606.282 252.853 607.015 253.493 607.522 254.24C608.029 254.987 608.282 255.933 608.282 257.08C608.282 259.16 607.509 260.733 605.962 261.8C604.415 262.867 602.335 263.4 599.722 263.4ZM613.463 263V232.6H616.983V263H613.463ZM628.975 263.4C627.028 263.4 625.415 262.893 624.135 261.88C622.855 260.84 622.215 259.227 622.215 257.04C622.215 254.907 623.055 253.267 624.735 252.12C626.415 250.947 629.002 250.307 632.495 250.2L636.135 250.08V248.8C636.135 247.013 635.748 245.773 634.975 245.08C634.202 244.387 633.108 244.04 631.695 244.04C630.575 244.04 629.508 244.213 628.495 244.56C627.482 244.88 626.535 245.253 625.655 245.68L624.575 243.04C625.508 242.533 626.615 242.107 627.895 241.76C629.175 241.387 630.508 241.2 631.895 241.2C634.508 241.2 636.442 241.773 637.695 242.92C638.948 244.067 639.575 245.893 639.575 248.4V263H637.015L636.335 259.96H636.175C635.242 261.133 634.255 262 633.215 262.56C632.202 263.12 630.788 263.4 628.975 263.4ZM629.775 260.56C631.588 260.56 633.095 260.067 634.295 259.08C635.495 258.067 636.095 256.52 636.095 254.44V252.52L632.935 252.64C630.268 252.747 628.415 253.173 627.375 253.92C626.362 254.667 625.855 255.72 625.855 257.08C625.855 258.28 626.215 259.16 626.935 259.72C627.682 260.28 628.628 260.56 629.775 260.56ZM647.997 238C647.41 238 646.917 237.813 646.517 237.44C646.117 237.067 645.917 236.507 645.917 235.76C645.917 234.987 646.117 234.427 646.517 234.08C646.917 233.707 647.41 233.52 647.997 233.52C648.53 233.52 648.997 233.707 649.397 234.08C649.824 234.427 650.037 234.987 650.037 235.76C650.037 236.507 649.824 237.067 649.397 237.44C648.997 237.813 648.53 238 647.997 238ZM643.677 272.6C643.01 272.6 642.424 272.547 641.917 272.44C641.41 272.36 640.97 272.253 640.597 272.12V269.28C640.997 269.387 641.41 269.48 641.837 269.56C642.264 269.64 642.73 269.68 643.237 269.68C644.09 269.68 644.797 269.44 645.357 268.96C645.917 268.507 646.197 267.627 646.197 266.32V241.56H649.717V266.2C649.717 268.2 649.237 269.76 648.277 270.88C647.317 272.027 645.784 272.6 643.677 272.6ZM664.109 263.4C661.443 263.4 659.309 262.48 657.709 260.64C656.109 258.773 655.309 256 655.309 252.32C655.309 248.64 656.109 245.867 657.709 244C659.336 242.107 661.483 241.16 664.149 241.16C665.803 241.16 667.149 241.467 668.189 242.08C669.256 242.693 670.123 243.44 670.789 244.32H671.029C671.003 243.973 670.949 243.467 670.869 242.8C670.816 242.107 670.789 241.56 670.789 241.16V232.6H674.309V263H671.469L670.949 260.12H670.789C670.149 261.027 669.296 261.8 668.229 262.44C667.163 263.08 665.789 263.4 664.109 263.4ZM664.669 260.48C666.936 260.48 668.523 259.867 669.429 258.64C670.363 257.387 670.829 255.507 670.829 253V252.36C670.829 249.693 670.389 247.653 669.509 246.24C668.629 244.8 667.003 244.08 664.629 244.08C662.736 244.08 661.309 244.84 660.349 246.36C659.416 247.853 658.949 249.867 658.949 252.4C658.949 254.96 659.416 256.947 660.349 258.36C661.309 259.773 662.749 260.48 664.669 260.48ZM689.759 263.4C687.865 263.4 686.172 262.973 684.679 262.12C683.212 261.24 682.052 259.973 681.199 258.32C680.345 256.64 679.919 254.613 679.919 252.24C679.919 248.693 680.812 245.96 682.599 244.04C684.385 242.12 686.812 241.16 689.879 241.16C691.825 241.16 693.532 241.6 694.999 242.48C696.492 243.333 697.652 244.587 698.479 246.24C699.332 247.867 699.759 249.867 699.759 252.24C699.759 255.787 698.852 258.533 697.039 260.48C695.252 262.427 692.825 263.4 689.759 263.4ZM689.839 260.48C691.999 260.48 693.585 259.747 694.599 258.28C695.612 256.787 696.119 254.773 696.119 252.24C696.119 249.707 695.612 247.72 694.599 246.28C693.585 244.84 691.985 244.12 689.799 244.12C687.612 244.12 686.025 244.84 685.039 246.28C684.052 247.72 683.559 249.707 683.559 252.24C683.559 254.773 684.052 256.787 685.039 258.28C686.052 259.747 687.652 260.48 689.839 260.48ZM705.338 263V241.56H708.178L708.698 244.48H708.898C709.564 243.36 710.458 242.533 711.578 242C712.724 241.44 713.938 241.16 715.218 241.16C718.578 241.16 720.764 242.36 721.778 244.76H721.978C722.698 243.533 723.671 242.627 724.898 242.04C726.151 241.453 727.471 241.16 728.858 241.16C731.284 241.16 733.098 241.787 734.298 243.04C735.498 244.267 736.098 246.267 736.098 249.04V263H732.618V249.2C732.618 245.813 731.164 244.12 728.258 244.12C726.178 244.12 724.684 244.72 723.778 245.92C722.898 247.12 722.458 248.867 722.458 251.16V263H718.978V249.2C718.978 245.813 717.511 244.12 714.578 244.12C712.418 244.12 710.924 244.787 710.098 246.12C709.271 247.453 708.858 249.373 708.858 251.88V263H705.338ZM747.92 263.4C745.974 263.4 744.36 262.893 743.08 261.88C741.8 260.84 741.16 259.227 741.16 257.04C741.16 254.907 742 253.267 743.68 252.12C745.36 250.947 747.947 250.307 751.44 250.2L755.08 250.08V248.8C755.08 247.013 754.694 245.773 753.92 245.08C753.147 244.387 752.054 244.04 750.64 244.04C749.52 244.04 748.454 244.213 747.44 244.56C746.427 244.88 745.48 245.253 744.6 245.68L743.52 243.04C744.454 242.533 745.56 242.107 746.84 241.76C748.12 241.387 749.454 241.2 750.84 241.2C753.454 241.2 755.387 241.773 756.64 242.92C757.894 244.067 758.52 245.893 758.52 248.4V263H755.96L755.28 259.96H755.12C754.187 261.133 753.2 262 752.16 262.56C751.147 263.12 749.734 263.4 747.92 263.4ZM748.72 260.56C750.534 260.56 752.04 260.067 753.24 259.08C754.44 258.067 755.04 256.52 755.04 254.44V252.52L751.88 252.64C749.214 252.747 747.36 253.173 746.32 253.92C745.307 254.667 744.8 255.72 744.8 257.08C744.8 258.28 745.16 259.16 745.88 259.72C746.627 260.28 747.574 260.56 748.72 260.56ZM771.702 263.4C770.582 263.4 769.542 263.213 768.582 262.84C767.649 262.44 766.889 261.76 766.302 260.8C765.716 259.84 765.422 258.493 765.422 256.76V244.28H762.382V242.6L765.462 241.2L766.862 236.64H768.942V241.56H775.142V244.28H768.942V256.68C768.942 257.987 769.249 258.96 769.862 259.6C770.502 260.213 771.316 260.52 772.302 260.52C772.836 260.52 773.382 260.48 773.942 260.4C774.502 260.293 774.956 260.187 775.302 260.08V262.76C774.929 262.947 774.396 263.093 773.702 263.2C773.009 263.333 772.342 263.4 771.702 263.4ZM791.786 238C791.199 238 790.706 237.813 790.306 237.44C789.906 237.067 789.706 236.507 789.706 235.76C789.706 234.987 789.906 234.427 790.306 234.08C790.706 233.707 791.199 233.52 791.786 233.52C792.319 233.52 792.786 233.707 793.186 234.08C793.613 234.427 793.826 234.987 793.826 235.76C793.826 236.507 793.613 237.067 793.186 237.44C792.786 237.813 792.319 238 791.786 238ZM789.986 263V241.56H793.506V263H789.986ZM805.698 263.4C804.205 263.4 802.912 263.28 801.818 263.04C800.752 262.8 799.805 262.467 798.978 262.04V258.84C799.832 259.267 800.858 259.667 802.058 260.04C803.285 260.387 804.525 260.56 805.778 260.56C807.565 260.56 808.858 260.28 809.658 259.72C810.458 259.133 810.858 258.36 810.858 257.4C810.858 256.867 810.712 256.387 810.418 255.96C810.125 255.533 809.592 255.107 808.818 254.68C808.072 254.253 806.992 253.773 805.578 253.24C804.192 252.707 803.005 252.173 802.018 251.64C801.032 251.107 800.272 250.467 799.738 249.72C799.205 248.973 798.938 248.013 798.938 246.84C798.938 245.027 799.672 243.627 801.138 242.64C802.632 241.653 804.578 241.16 806.978 241.16C808.285 241.16 809.498 241.293 810.618 241.56C811.765 241.8 812.832 242.147 813.818 242.6L812.618 245.4C811.712 245.027 810.765 244.707 809.778 244.44C808.792 244.173 807.778 244.04 806.738 244.04C805.298 244.04 804.192 244.28 803.418 244.76C802.672 245.213 802.298 245.84 802.298 246.64C802.298 247.227 802.472 247.733 802.818 248.16C803.165 248.56 803.738 248.96 804.538 249.36C805.365 249.733 806.458 250.187 807.818 250.72C809.178 251.227 810.338 251.76 811.298 252.32C812.258 252.853 812.992 253.493 813.498 254.24C814.005 254.987 814.258 255.933 814.258 257.08C814.258 259.16 813.485 260.733 811.938 261.8C810.392 262.867 808.312 263.4 805.698 263.4ZM838.03 272.6C834.883 272.6 832.31 272.147 830.31 271.24V268C832.416 269.12 835.056 269.68 838.23 269.68C840.07 269.68 841.51 269.133 842.55 268.04C843.616 266.973 844.15 265.507 844.15 263.64V262.8C844.15 262.48 844.163 262.027 844.19 261.44C844.216 260.827 844.243 260.4 844.27 260.16H844.11C842.67 262.32 840.456 263.4 837.47 263.4C834.696 263.4 832.523 262.427 830.95 260.48C829.403 258.533 828.63 255.813 828.63 252.32C828.63 248.907 829.403 246.2 830.95 244.2C832.523 242.173 834.683 241.16 837.43 241.16C838.843 241.16 840.11 241.427 841.23 241.96C842.376 242.493 843.35 243.307 844.15 244.4H844.35L844.83 241.56H847.63V263.36C847.63 266.427 846.843 268.733 845.27 270.28C843.723 271.827 841.31 272.6 838.03 272.6ZM837.99 260.52C840.15 260.52 841.723 259.947 842.71 258.8C843.696 257.627 844.19 255.747 844.19 253.16V252.32C844.19 249.387 843.683 247.293 842.67 246.04C841.656 244.76 840.07 244.12 837.91 244.12C836.123 244.12 834.736 244.84 833.75 246.28C832.763 247.693 832.27 249.72 832.27 252.36C832.27 255 832.75 257.027 833.71 258.44C834.696 259.827 836.123 260.52 837.99 260.52ZM854.439 263V241.56H857.319L857.719 245.48H857.879C858.572 244.307 859.466 243.293 860.559 242.44C861.652 241.587 862.946 241.16 864.439 241.16C864.839 241.16 865.266 241.187 865.719 241.24C866.199 241.267 866.612 241.32 866.959 241.4L866.519 244.64C866.172 244.56 865.786 244.493 865.359 244.44C864.959 244.387 864.572 244.36 864.199 244.36C863.106 244.36 862.079 244.667 861.119 245.28C860.159 245.867 859.386 246.707 858.799 247.8C858.239 248.867 857.959 250.12 857.959 251.56V263H854.439ZM880.083 263.4C878.056 263.4 876.256 262.987 874.683 262.16C873.136 261.333 871.923 260.107 871.043 258.48C870.189 256.827 869.763 254.813 869.763 252.44C869.763 250.093 870.149 248.08 870.923 246.4C871.723 244.72 872.829 243.427 874.243 242.52C875.683 241.613 877.349 241.16 879.243 241.16C881.083 241.16 882.656 241.56 883.963 242.36C885.296 243.16 886.309 244.293 887.003 245.76C887.723 247.2 888.083 248.893 888.083 250.84V252.96H873.403C873.456 255.387 874.069 257.24 875.243 258.52C876.443 259.773 878.109 260.4 880.243 260.4C881.603 260.4 882.803 260.28 883.843 260.04C884.909 259.773 886.003 259.4 887.123 258.92V262C886.029 262.48 884.949 262.827 883.883 263.04C882.816 263.28 881.549 263.4 880.083 263.4ZM873.483 250.16H884.403C884.403 248.347 883.976 246.88 883.123 245.76C882.296 244.613 880.989 244.04 879.203 244.04C877.523 244.04 876.189 244.587 875.203 245.68C874.243 246.747 873.669 248.24 873.483 250.16ZM898.741 263.4C896.794 263.4 895.181 262.893 893.901 261.88C892.621 260.84 891.981 259.227 891.981 257.04C891.981 254.907 892.821 253.267 894.501 252.12C896.181 250.947 898.767 250.307 902.261 250.2L905.901 250.08V248.8C905.901 247.013 905.514 245.773 904.741 245.08C903.967 244.387 902.874 244.04 901.461 244.04C900.341 244.04 899.274 244.213 898.261 244.56C897.247 244.88 896.301 245.253 895.421 245.68L894.341 243.04C895.274 242.533 896.381 242.107 897.661 241.76C898.941 241.387 900.274 241.2 901.661 241.2C904.274 241.2 906.207 241.773 907.461 242.92C908.714 244.067 909.341 245.893 909.341 248.4V263H906.781L906.101 259.96H905.941C905.007 261.133 904.021 262 902.981 262.56C901.967 263.12 900.554 263.4 898.741 263.4ZM899.541 260.56C901.354 260.56 902.861 260.067 904.061 259.08C905.261 258.067 905.861 256.52 905.861 254.44V252.52L902.701 252.64C900.034 252.747 898.181 253.173 897.141 253.92C896.127 254.667 895.621 255.72 895.621 257.08C895.621 258.28 895.981 259.16 896.701 259.72C897.447 260.28 898.394 260.56 899.541 260.56ZM922.523 263.4C921.403 263.4 920.363 263.213 919.403 262.84C918.469 262.44 917.709 261.76 917.123 260.8C916.536 259.84 916.243 258.493 916.243 256.76V244.28H913.203V242.6L916.283 241.2L917.683 236.64H919.763V241.56H925.963V244.28H919.763V256.68C919.763 257.987 920.069 258.96 920.683 259.6C921.323 260.213 922.136 260.52 923.122 260.52C923.656 260.52 924.203 260.48 924.763 260.4C925.323 260.293 925.776 260.187 926.123 260.08V262.76C925.749 262.947 925.216 263.093 924.523 263.2C923.829 263.333 923.163 263.4 922.523 263.4Z" fill="black"/>
</g>
</g>
</svg>
