<svg width="1921" height="1081" viewBox="0 0 1921 1081" fill="none" xmlns="http://www.w3.org/2000/svg">
<g id="Parity">
<rect width="1920" height="1080" transform="translate(0.120117 0.680176)" fill="white"/>
<path id="We assume" d="M741.42 406.112C742.262 403.755 740.018 403.531 737.718 403.363C737.381 403.026 737.381 401.848 737.718 401.511C739.962 401.568 742.43 401.624 743.889 401.624C745.347 401.624 747.143 401.568 748.769 401.511C749.106 401.848 749.106 403.026 748.769 403.363C745.684 403.531 744.618 404.877 743.945 406.785L732.669 437.023C732.388 437.864 731.996 438.481 731.378 438.481C730.705 438.481 730.369 437.92 730.088 436.967L723.637 418.341C723.3 417.388 723.076 416.771 722.851 416.771C722.571 416.771 722.346 417.051 721.898 418.173L713.539 436.967C713.09 437.92 712.809 438.481 712.08 438.481C711.407 438.481 711.126 437.864 710.846 436.967L700.299 406.617C699.233 403.643 698.84 403.531 696.316 403.363C695.979 403.026 695.979 401.848 696.316 401.511C697.943 401.568 699.57 401.624 701.533 401.624C703.721 401.624 706.19 401.568 708.041 401.511C708.377 401.848 708.377 403.026 708.041 403.363C706.077 403.475 704.563 403.755 705.236 405.719L713.426 430.571L713.651 430.627L720.944 414.134C721.337 413.236 721.449 412.788 721.449 412.17C721.449 411.666 721.224 411.105 721.056 410.431L719.766 406.729C719.261 405.326 718.027 403.531 715.053 403.363C714.717 403.026 714.717 401.848 715.053 401.511C716.849 401.568 718.812 401.624 720.663 401.624C722.907 401.624 725.376 401.568 727.676 401.511C728.012 401.848 728.012 403.026 727.676 403.363C725.768 403.531 723.749 403.755 724.759 406.729L732.444 430.403L732.613 430.515L741.42 406.112ZM751.804 421.988L761.958 421.82C762.575 421.82 762.8 421.539 762.8 421.034C762.8 416.322 760.275 415.144 758.143 415.144C756.797 415.144 752.87 415.649 751.804 421.988ZM766.502 432.591C767.176 432.647 767.512 432.927 767.68 433.488C765.436 436.406 762.407 438.369 758.143 438.369C754.104 438.369 751.468 437.023 749.56 434.779C747.709 432.647 746.923 429.618 746.923 426.476C746.923 417.949 753.263 413.292 758.143 413.292C765.941 413.292 767.624 418.341 767.624 423.054C767.624 423.671 767.232 424.008 766.558 424.008L751.636 423.895C751.636 427.149 752.309 429.73 753.431 431.581C755.17 434.442 757.526 435.62 759.546 435.62C762.8 435.62 764.427 434.723 766.502 432.591ZM800.402 424.737L795.97 425.915C791.818 426.981 790.64 429.561 790.64 432.086C790.64 433.825 791.874 436.069 794.679 436.069C796.25 436.069 798.158 434.779 799.616 433.601C800.065 433.264 800.402 432.871 800.402 432.142V424.737ZM800.402 435.115H800.289L799.167 436.013C796.699 437.92 794.96 438.369 793.053 438.369C789.126 438.369 785.984 436.911 785.984 432.31C785.984 428.496 789.855 425.522 795.24 424.176L800.065 422.998C800.233 422.942 800.402 422.717 800.402 422.325C800.402 415.985 797.765 415.032 795.858 415.032C793.726 415.032 791.37 415.649 791.37 417.388C791.37 418.005 791.426 418.341 791.482 418.51C791.594 418.734 791.65 419.127 791.65 419.52C791.65 420.249 790.64 421.427 789.013 421.427C787.723 421.427 787.05 420.754 787.05 419.407C787.05 416.21 791.706 413.18 796.306 413.18C800.402 413.18 804.777 414.695 804.777 422.661V430.908C804.777 433.488 804.834 435.676 806.46 435.676C807.134 435.676 808.087 435.171 808.536 434.779C809.153 435.171 809.378 435.62 809.49 436.293C808.312 437.415 806.292 438.369 804.16 438.369C801.299 438.369 800.738 436.854 800.402 435.115ZM812.297 430.066C812.633 429.73 813.699 429.674 814.036 430.01C814.372 431.413 814.989 433.881 816.224 435.171C816.785 435.789 818.019 436.518 820.207 436.518C822.282 436.518 824.975 435.34 824.975 432.591C824.975 430.179 823.909 429 819.253 427.093C814.933 425.298 813.082 423.559 813.082 419.463C813.082 415.873 816.841 413.18 820.992 413.18C823.909 413.18 826.602 413.966 828.341 414.246C828.285 416.097 828.173 418.173 828.005 420.193C827.668 420.529 826.546 420.585 826.209 420.249C825.48 415.48 822.226 415.032 820.992 415.032C819.085 415.032 817.065 416.322 817.065 418.622C817.065 421.707 819.253 422.605 822.675 423.839C826.49 425.242 829.239 427.486 829.239 431.301C829.239 436.854 823.46 438.369 820.319 438.369C818.243 438.369 816.728 438.145 815.214 437.752C814.821 437.64 814.484 437.64 814.092 437.64C813.811 437.64 813.25 437.696 812.689 437.808C812.689 435.452 812.521 432.815 812.297 430.066ZM834.156 430.066C834.492 429.73 835.558 429.674 835.895 430.01C836.232 431.413 836.849 433.881 838.083 435.171C838.644 435.789 839.878 436.518 842.066 436.518C844.142 436.518 846.834 435.34 846.834 432.591C846.834 430.179 845.769 429 841.112 427.093C836.793 425.298 834.941 423.559 834.941 419.463C834.941 415.873 838.7 413.18 842.851 413.18C845.769 413.18 848.461 413.966 850.2 414.246C850.144 416.097 850.032 418.173 849.864 420.193C849.527 420.529 848.405 420.585 848.069 420.249C847.339 415.48 844.086 415.032 842.851 415.032C840.944 415.032 838.924 416.322 838.924 418.622C838.924 421.707 841.112 422.605 844.534 423.839C848.349 425.242 851.098 427.486 851.098 431.301C851.098 436.854 845.32 438.369 842.178 438.369C840.102 438.369 838.588 438.145 837.073 437.752C836.68 437.64 836.344 437.64 835.951 437.64C835.671 437.64 835.11 437.696 834.549 437.808C834.549 435.452 834.38 432.815 834.156 430.066ZM865.496 438.369C859.942 438.369 858.259 434.61 858.259 430.74V419.968C858.259 416.322 857.474 415.705 854.781 415.48C854.444 415.144 854.444 413.966 854.781 413.629C856.688 413.685 858.708 413.741 860.503 413.741C861.345 413.741 862.186 413.685 862.467 413.629C862.747 413.629 862.915 413.797 862.915 413.966C862.915 413.966 862.691 418.061 862.691 419.744V429.954C862.691 434.947 865.496 435.732 867.179 435.732C868.582 435.732 870.713 434.835 872.789 433.04C873.574 432.366 873.687 431.918 873.687 430.852V420.024C873.687 416.322 872.957 415.649 870.208 415.48C869.872 415.144 869.872 413.966 870.208 413.629C872.116 413.685 874.135 413.741 875.931 413.741C876.772 413.741 877.614 413.685 877.894 413.629C878.175 413.629 878.343 413.797 878.343 413.966C878.343 413.966 878.119 418.061 878.119 419.744V430.515C878.119 433.264 878.623 434.33 882.214 434.61C882.55 434.947 882.55 435.789 882.214 436.125C878.792 436.518 876.828 437.359 875.594 438.369C875.201 438.537 874.977 438.537 874.528 438.369C874.528 438.369 874.023 436.518 873.911 435.059C873.855 434.667 873.35 434.779 873.07 435.003C870.321 437.247 867.684 438.369 865.496 438.369ZM892.662 417.724C892.662 418.398 893.055 418.061 893.336 417.724C895.636 415.144 898.609 413.18 901.863 413.18C904.78 413.18 906.912 415.032 907.473 417.332C907.585 417.78 907.922 417.5 908.09 417.332C911.007 414.246 914.429 413.18 917.346 413.18C922.283 413.18 923.125 417.107 923.125 422.1V430.964C923.125 435.564 923.63 435.845 926.715 436.069C926.996 436.406 926.996 437.584 926.715 437.92C925.144 437.864 923.181 437.808 920.937 437.808C918.693 437.808 916.617 437.864 915.215 437.92C914.934 437.584 914.934 436.406 915.215 436.069C918.132 435.845 918.693 435.564 918.693 430.964V421.09C918.693 417.332 917.459 416.097 915.327 416.097C913.139 416.097 910.614 416.827 907.922 419.8C907.978 420.473 907.978 421.259 907.978 422.044V430.964C907.978 435.564 908.483 435.845 911.288 436.069C911.568 436.406 911.568 437.584 911.288 437.92C909.885 437.864 908.034 437.808 905.79 437.808C903.546 437.808 901.47 437.864 900.068 437.92C899.787 437.584 899.787 436.406 900.068 436.069C903.097 435.845 903.546 435.564 903.546 430.964V421.203C903.546 417.444 901.975 416.097 899.843 416.097C898.104 416.097 895.972 417.276 893.784 419.407C893.336 419.912 892.831 420.585 892.831 421.764V430.964C892.831 435.564 893.448 435.789 896.253 436.069C896.589 436.406 896.589 437.584 896.253 437.92C894.57 437.864 892.887 437.808 890.643 437.808C888.399 437.808 886.267 437.864 884.584 437.92C884.247 437.584 884.247 436.406 884.584 436.069C887.67 435.845 888.399 435.564 888.399 430.964V420.024C888.399 416.771 887.782 416.49 884.752 416.21C884.64 415.873 884.528 414.975 884.64 414.639C888.511 414.134 889.97 413.629 891.54 413.012C891.989 413.012 892.045 413.236 892.214 413.461C892.438 414.078 892.55 416.097 892.662 417.724ZM934.403 421.988L944.557 421.82C945.174 421.82 945.399 421.539 945.399 421.034C945.399 416.322 942.874 415.144 940.742 415.144C939.396 415.144 935.469 415.649 934.403 421.988ZM949.101 432.591C949.774 432.647 950.111 432.927 950.279 433.488C948.035 436.406 945.006 438.369 940.742 438.369C936.703 438.369 934.066 437.023 932.159 434.779C930.308 432.647 929.522 429.618 929.522 426.476C929.522 417.949 935.862 413.292 940.742 413.292C948.54 413.292 950.223 418.341 950.223 423.054C950.223 423.671 949.831 424.008 949.157 424.008L934.235 423.895C934.235 427.149 934.908 429.73 936.03 431.581C937.769 434.442 940.125 435.62 942.145 435.62C945.399 435.62 947.026 434.723 949.101 432.591Z" fill="black"/>
<g id="C \subseteq\mathbb{N} " clip-path="url(#clip0_6_104)">
<g id="page1">
<path id="Vector" d="M1044.99 397.325C1044.99 396.733 1044.53 396.733 1044.4 396.733C1044.27 396.733 1044 396.733 1043.48 397.39L1038.95 402.908C1036.65 398.967 1033.04 396.733 1028.11 396.733C1013.92 396.733 999.209 411.118 999.209 426.553C999.209 437.522 1006.89 444.353 1016.48 444.353C1021.74 444.353 1026.34 442.12 1030.15 438.902C1035.86 434.107 1037.57 427.735 1037.57 427.21C1037.57 426.619 1037.04 426.619 1036.85 426.619C1036.25 426.619 1036.19 427.013 1036.06 427.276C1033.04 437.522 1024.17 442.448 1017.6 442.448C1010.64 442.448 1004.59 437.982 1004.59 428.655C1004.59 426.553 1005.25 415.124 1012.67 406.52C1016.29 402.316 1022.46 398.638 1028.7 398.638C1035.93 398.638 1039.14 404.615 1039.14 411.315C1039.14 413.023 1038.95 414.468 1038.95 414.73C1038.95 415.322 1039.6 415.322 1039.8 415.322C1040.52 415.322 1040.59 415.256 1040.85 414.074L1044.99 397.325Z" fill="black"/>
<path id="Vector_2" d="M1108.18 403.826C1109.3 403.826 1110.48 403.826 1110.48 402.512C1110.48 401.199 1109.3 401.199 1108.18 401.199H1090.52C1079.22 401.199 1070.35 409.803 1070.35 420.181C1070.35 430.756 1079.42 439.229 1090.52 439.229H1108.18C1109.3 439.229 1110.48 439.229 1110.48 437.915C1110.48 436.602 1109.3 436.602 1108.18 436.602H1090.65C1080.27 436.602 1072.98 428.917 1072.98 420.247C1072.98 411.314 1080.47 403.826 1090.65 403.826H1108.18ZM1073.96 449.344C1072.85 449.344 1071.67 449.344 1071.67 450.658C1071.67 451.971 1072.85 451.971 1073.96 451.971H1108.18C1109.3 451.971 1110.48 451.971 1110.48 450.658C1110.48 449.344 1109.3 449.344 1108.18 449.344H1073.96Z" fill="black"/>
<path id="Vector_3" d="M1141.59 403.893V435.946C1141.59 439.427 1141.06 440.609 1137.71 440.675C1136.99 440.675 1135.88 440.741 1135.88 441.792C1135.88 442.974 1136.93 442.974 1138.11 442.974H1148.29C1149.47 442.974 1150.46 442.974 1150.46 441.792C1150.46 440.741 1149.41 440.675 1148.49 440.675C1144.87 440.609 1144.35 439.23 1144.35 435.815V405.732L1172.72 443.237C1173.31 444.025 1173.64 444.222 1174.1 444.222C1175.22 444.222 1175.22 443.171 1175.22 442.054V404.944C1175.22 401.266 1175.81 400.346 1178.83 400.28C1179.23 400.28 1180.34 400.215 1180.34 399.164C1180.34 397.981 1179.36 397.981 1178.17 397.981H1168.58C1167.4 397.981 1166.35 397.981 1166.35 399.164C1166.35 400.28 1167.53 400.28 1168.26 400.28C1171.93 400.346 1172.46 401.66 1172.46 405.141V425.699L1152.62 398.901C1151.97 397.981 1151.77 397.981 1150.26 397.981H1138.83C1137.65 397.981 1136.66 397.981 1136.66 399.164C1136.66 400.149 1137.65 400.28 1138.04 400.28C1139.82 400.477 1141.06 401.528 1141.72 402.316C1141.59 402.842 1141.59 402.973 1141.59 403.893ZM1172.92 439.624L1144.35 401.857C1143.69 401.069 1143.69 400.937 1142.97 400.28H1150.78L1172.92 430.166V439.624Z" fill="black"/>
</g>
</g>
<path id="&#207;&#129; accepting &#226;&#135;&#148; min Inf(&#207;&#129;) is even" d="M608.792 551.963V536.031C608.792 522.567 613.785 518.752 619.338 518.752C625.902 518.752 630.951 523.745 630.951 530.701C630.951 538.836 626.07 545.119 619.395 545.119C617.038 545.119 615.524 544.726 613.504 542.875V551.907C613.504 553.927 612.999 555.946 612.606 556.732H607.894C608.455 555.554 608.792 553.871 608.792 551.963ZM613.504 529.243V539.621C613.504 541.304 616.702 543.324 619.338 543.324C623.378 543.324 626.127 538.836 626.127 532.665C626.127 524.811 622.817 520.323 618.665 520.323C615.355 520.323 613.504 523.857 613.504 529.243ZM663.102 531.487L658.67 532.665C654.518 533.731 653.34 536.311 653.34 538.836C653.34 540.575 654.575 542.819 657.38 542.819C658.95 542.819 660.858 541.529 662.316 540.351C662.765 540.014 663.102 539.621 663.102 538.892V531.487ZM663.102 541.865H662.99L661.868 542.763C659.399 544.67 657.66 545.119 655.753 545.119C651.826 545.119 648.684 543.661 648.684 539.06C648.684 535.246 652.555 532.272 657.941 530.926L662.765 529.748C662.933 529.692 663.102 529.467 663.102 529.075C663.102 522.735 660.465 521.782 658.558 521.782C656.426 521.782 654.07 522.399 654.07 524.138C654.07 524.755 654.126 525.091 654.182 525.26C654.294 525.484 654.35 525.877 654.35 526.27C654.35 526.999 653.34 528.177 651.713 528.177C650.423 528.177 649.75 527.504 649.75 526.157C649.75 522.96 654.406 519.93 659.006 519.93C663.102 519.93 667.478 521.445 667.478 529.411V537.658C667.478 540.238 667.534 542.426 669.161 542.426C669.834 542.426 670.787 541.921 671.236 541.529C671.853 541.921 672.078 542.37 672.19 543.043C671.012 544.165 668.992 545.119 666.86 545.119C663.999 545.119 663.438 543.604 663.102 541.865ZM694.632 539.453C691.827 544.053 688.853 545.119 685.487 545.119C678.419 545.119 674.38 540.126 674.38 532.889C674.38 524.923 680.326 519.93 685.88 519.93C691.266 519.93 694.463 522.174 694.463 525.26C694.463 526.999 692.893 527.728 691.715 527.728C690.536 527.728 689.751 527.223 689.583 525.709C689.358 523.745 688.91 521.782 685.6 521.782C681.897 521.782 679.204 525.484 679.204 531.655C679.204 538.219 682.626 542.37 686.722 542.37C689.134 542.37 691.546 541.136 693.454 538.668C693.959 538.724 694.407 538.948 694.632 539.453ZM718.628 539.453C715.823 544.053 712.849 545.119 709.483 545.119C702.415 545.119 698.376 540.126 698.376 532.889C698.376 524.923 704.322 519.93 709.876 519.93C715.262 519.93 718.459 522.174 718.459 525.26C718.459 526.999 716.889 527.728 715.71 527.728C714.532 527.728 713.747 527.223 713.579 525.709C713.354 523.745 712.905 521.782 709.596 521.782C705.893 521.782 703.2 525.484 703.2 531.655C703.2 538.219 706.622 542.37 710.718 542.37C713.13 542.37 715.542 541.136 717.45 538.668C717.954 538.724 718.403 538.948 718.628 539.453ZM727.252 528.738L737.406 528.57C738.023 528.57 738.248 528.289 738.248 527.784C738.248 523.072 735.723 521.894 733.591 521.894C732.245 521.894 728.318 522.399 727.252 528.738ZM741.95 539.341C742.624 539.397 742.96 539.677 743.128 540.238C740.884 543.156 737.855 545.119 733.591 545.119C729.552 545.119 726.916 543.773 725.008 541.529C723.157 539.397 722.371 536.368 722.371 533.226C722.371 524.699 728.711 520.042 733.591 520.042C741.389 520.042 743.072 525.091 743.072 529.804C743.072 530.421 742.68 530.758 742.006 530.758L727.084 530.645C727.084 533.899 727.757 536.48 728.879 538.331C730.618 541.192 732.974 542.37 734.994 542.37C738.248 542.37 739.875 541.473 741.95 539.341ZM755.205 525.989C754.532 526.831 754.307 527.279 754.307 528.457V538.668C754.307 540.743 754.476 541.024 755.654 542.034C756.663 542.931 758.627 543.212 759.637 543.212C765.92 543.212 767.547 537.49 767.547 532.889C767.547 526.55 764.461 522.511 760.871 522.511C759.188 522.511 756.663 524.194 755.205 525.989ZM754.139 523.913C754.139 524.474 754.419 524.53 754.756 524.138C756.944 521.669 759.805 519.93 762.442 519.93C768.164 519.93 772.371 525.428 772.371 531.375C772.371 535.919 770.857 539.397 768.22 541.978C765.92 544.165 763.115 545.119 759.973 545.119C758.178 545.119 756.439 544.839 755.093 544.278C754.476 544.053 754.307 543.941 754.307 544.67V550.729C754.307 555.385 754.924 555.61 758.907 555.834C759.244 556.171 759.244 557.349 758.907 557.686C757.056 557.629 754.363 557.573 752.119 557.573C749.875 557.573 747.8 557.629 745.836 557.686C745.5 557.349 745.5 556.171 745.836 555.834C749.258 555.666 749.875 555.385 749.875 550.729V526.774C749.875 523.521 749.258 523.24 746.229 522.96C746.117 522.623 746.004 521.725 746.117 521.389C749.988 520.884 751.446 520.379 753.017 519.762C753.466 519.762 753.522 519.986 753.69 520.211C753.915 520.828 754.027 522.23 754.139 523.913ZM776.891 520.491H779.471C779.471 514.264 779.303 514.657 779.303 513.984C779.303 513.647 779.864 513.423 780.537 513.254C781.21 513.03 781.771 512.806 782.444 512.469C782.949 512.188 783.398 511.964 783.679 511.964C783.959 511.964 784.127 512.076 784.127 512.413C784.127 512.413 783.903 514.657 783.903 518.303V520.491H790.635C790.916 520.491 791.084 520.603 791.084 520.828V521.95C791.084 522.455 790.298 522.679 789.737 522.679H783.903V536.872C783.903 540.351 784.24 542.034 785.754 542.034C787.213 542.034 788.896 541.585 790.355 540.463C790.916 540.519 791.252 540.856 791.364 541.417C789.176 543.885 786.371 545.119 783.791 545.119C781.21 545.119 779.471 543.548 779.471 539.565V522.679H776.161C775.937 522.679 775.881 522.623 775.881 522.343V521.613C775.881 521.164 776.105 520.491 776.891 520.491ZM797.278 510.954C797.278 509.608 798.848 508.261 800.195 508.261C801.71 508.261 802.888 509.832 802.888 511.179C802.888 512.413 801.541 513.871 799.97 513.871C798.624 513.871 797.278 512.413 797.278 510.954ZM802.383 537.714C802.383 542.37 803 542.595 806.422 542.819C806.759 543.156 806.759 544.334 806.422 544.67C804.571 544.614 802.439 544.558 800.195 544.558C797.951 544.558 795.763 544.614 793.912 544.67C793.575 544.334 793.575 543.156 793.912 542.819C797.334 542.539 797.951 542.37 797.951 537.714V526.774C797.951 523.577 797.334 523.296 794.304 522.96C794.192 522.623 794.08 521.725 794.192 521.389C798.063 520.884 800.251 520.379 801.878 519.762C802.327 519.762 802.607 519.93 802.607 520.155C802.607 520.155 802.383 523.745 802.383 526.55V537.714ZM817.781 524.474C821.091 520.66 824.233 519.93 826.982 519.93C828.945 519.93 830.684 520.603 831.638 521.838C832.928 523.577 833.153 526.27 833.153 529.355V537.714C833.153 542.314 833.77 542.539 836.911 542.819C837.192 543.156 837.192 544.334 836.911 544.67C835.228 544.614 833.209 544.558 830.965 544.558C828.721 544.558 826.926 544.614 825.243 544.67C824.962 544.334 824.962 543.156 825.243 542.819C828.16 542.539 828.721 542.314 828.721 537.714V529.187C828.721 527.504 828.609 525.989 828.048 524.867C827.374 523.577 826.196 522.847 825.074 522.847C822.886 522.847 820.362 524.082 818.23 526.157C817.781 526.662 817.276 527.335 817.276 528.514V537.714C817.276 542.314 817.837 542.539 820.698 542.819C821.035 543.156 821.035 544.334 820.698 544.67C819.015 544.614 817.332 544.558 815.088 544.558C812.844 544.558 810.6 544.614 808.917 544.67C808.581 544.334 808.581 543.156 808.917 542.819C812.283 542.539 812.844 542.314 812.844 537.714V526.774C812.844 523.521 812.227 523.24 809.198 522.96C809.086 522.623 808.974 521.725 809.086 521.389C812.957 520.884 814.415 520.379 815.986 519.762C816.435 519.762 816.491 519.986 816.659 520.211C816.884 520.828 817.052 522.96 817.108 524.474C817.108 525.035 817.389 524.867 817.781 524.474ZM855.761 528.906C855.761 524.25 853.853 521.669 850.319 521.669C847.233 521.669 845.831 523.689 845.831 527.616C845.831 531.206 846.336 535.189 851.048 535.189C853.124 535.189 855.761 534.124 855.761 528.906ZM845.27 545.119C843.643 547.083 843.531 548.485 843.531 550.393C843.531 554.207 848.243 555.834 850.263 555.834C855.312 555.834 861.258 553.702 861.258 549.663C861.258 548.205 860.585 547.419 858.397 546.185C856.77 545.287 854.414 545.231 851.609 545.231C850.824 545.231 849.253 545.4 847.514 545.4C846.785 545.4 845.887 545.287 845.27 545.119ZM862.773 522.847C862.156 522.847 861.427 522.286 861.202 521.838C860.866 521.333 860.473 521.164 860.08 521.164C859.351 521.164 858.229 521.95 857.836 522.511C859.463 524.194 860.249 525.709 860.249 528.345C860.249 533.843 855.704 536.929 850.768 536.929C848.58 536.929 847.009 536.536 845.663 535.75C844.989 536.704 844.653 537.882 844.653 539.004C844.653 541.417 846.616 542.202 848.243 542.202C848.524 542.202 849.085 542.146 849.926 542.09C851.273 541.921 852.675 541.809 853.685 541.809C855.761 541.809 859.688 541.865 861.875 543.661C863.502 545.007 864.344 546.409 864.344 548.205C864.344 554.263 856.153 557.91 848.58 557.91C844.26 557.91 839.66 556.395 839.66 551.515C839.66 549.102 841.231 546.522 844.26 544.726C842.801 543.997 841.679 542.426 841.679 540.407C841.679 538.499 842.577 536.087 844.148 534.741C842.577 533.226 841.231 531.487 841.231 528.457C841.231 523.296 845.831 519.93 850.824 519.93C854.134 519.93 855.985 521.052 856.658 521.501C858.117 519.594 860.81 518.64 862.268 518.64C863.783 518.64 864.849 519.538 864.849 520.716C864.849 521.838 863.839 522.847 862.773 522.847ZM944.791 530.084V530.645C942.267 532.328 933.74 538.612 927.176 545.119L925.605 543.941C926.783 542.651 929.476 540.351 929.476 538.724C929.476 538.107 929.42 537.826 927.793 537.826H912.253C910.795 537.826 910.29 537.938 910.29 538.836C910.29 540.182 912.029 541.36 914.217 543.829L912.926 545.119C906.138 538.724 897.667 532.216 895.087 530.645V530.084C897.667 528.233 906.026 521.894 912.926 515.554L914.217 516.845C912.87 518.416 910.178 520.716 910.178 521.838C910.178 522.679 911.187 522.904 912.085 522.904H927.793C928.915 522.904 929.364 522.23 929.364 521.725C929.364 519.818 926.895 518.359 925.605 516.901L927.176 515.554C934.02 521.838 942.211 528.345 944.791 530.084ZM904.624 534.124H935.142C936.993 533.058 938.452 531.711 938.452 530.365C938.452 529.018 936.993 527.84 935.198 526.606H904.68C902.828 527.672 901.426 529.018 901.37 530.365C901.37 531.655 902.828 532.889 904.624 534.124ZM983.488 524.474C983.488 525.148 983.881 524.811 984.161 524.474C986.461 521.894 989.435 519.93 992.688 519.93C995.606 519.93 997.737 521.782 998.298 524.082C998.411 524.53 998.747 524.25 998.915 524.082C1001.83 520.996 1005.25 519.93 1008.17 519.93C1013.11 519.93 1013.95 523.857 1013.95 528.85V537.714C1013.95 542.314 1014.46 542.595 1017.54 542.819C1017.82 543.156 1017.82 544.334 1017.54 544.67C1015.97 544.614 1014.01 544.558 1011.76 544.558C1009.52 544.558 1007.44 544.614 1006.04 544.67C1005.76 544.334 1005.76 543.156 1006.04 542.819C1008.96 542.595 1009.52 542.314 1009.52 537.714V527.84C1009.52 524.082 1008.28 522.847 1006.15 522.847C1003.96 522.847 1001.44 523.577 998.747 526.55C998.803 527.223 998.803 528.009 998.803 528.794V537.714C998.803 542.314 999.308 542.595 1002.11 542.819C1002.39 543.156 1002.39 544.334 1002.11 544.67C1000.71 544.614 998.859 544.558 996.615 544.558C994.371 544.558 992.296 544.614 990.893 544.67C990.613 544.334 990.613 543.156 990.893 542.819C993.923 542.595 994.371 542.314 994.371 537.714V527.953C994.371 524.194 992.801 522.847 990.669 522.847C988.93 522.847 986.798 524.026 984.61 526.157C984.161 526.662 983.656 527.335 983.656 528.514V537.714C983.656 542.314 984.273 542.539 987.078 542.819C987.415 543.156 987.415 544.334 987.078 544.67C985.395 544.614 983.712 544.558 981.468 544.558C979.224 544.558 977.093 544.614 975.41 544.67C975.073 544.334 975.073 543.156 975.41 542.819C978.495 542.595 979.224 542.314 979.224 537.714V526.774C979.224 523.521 978.607 523.24 975.578 522.96C975.466 522.623 975.353 521.725 975.466 521.389C979.337 520.884 980.795 520.379 982.366 519.762C982.815 519.762 982.871 519.986 983.039 520.211C983.264 520.828 983.376 522.847 983.488 524.474ZM1023.32 510.954C1023.32 509.608 1024.89 508.261 1026.24 508.261C1027.75 508.261 1028.93 509.832 1028.93 511.179C1028.93 512.413 1027.58 513.871 1026.01 513.871C1024.67 513.871 1023.32 512.413 1023.32 510.954ZM1028.43 537.714C1028.43 542.37 1029.04 542.595 1032.47 542.819C1032.8 543.156 1032.8 544.334 1032.47 544.67C1030.61 544.614 1028.48 544.558 1026.24 544.558C1023.99 544.558 1021.81 544.614 1019.96 544.67C1019.62 544.334 1019.62 543.156 1019.96 542.819C1023.38 542.539 1023.99 542.37 1023.99 537.714V526.774C1023.99 523.577 1023.38 523.296 1020.35 522.96C1020.24 522.623 1020.12 521.725 1020.24 521.389C1024.11 520.884 1026.29 520.379 1027.92 519.762C1028.37 519.762 1028.65 519.93 1028.65 520.155C1028.65 520.155 1028.43 523.745 1028.43 526.55V537.714ZM1043.82 524.474C1047.13 520.66 1050.28 519.93 1053.03 519.93C1054.99 519.93 1056.73 520.603 1057.68 521.838C1058.97 523.577 1059.2 526.27 1059.2 529.355V537.714C1059.2 542.314 1059.81 542.539 1062.95 542.819C1063.24 543.156 1063.24 544.334 1062.95 544.67C1061.27 544.614 1059.25 544.558 1057.01 544.558C1054.76 544.558 1052.97 544.614 1051.29 544.67C1051.01 544.334 1051.01 543.156 1051.29 542.819C1054.2 542.539 1054.76 542.314 1054.76 537.714V529.187C1054.76 527.504 1054.65 525.989 1054.09 524.867C1053.42 523.577 1052.24 522.847 1051.12 522.847C1048.93 522.847 1046.41 524.082 1044.27 526.157C1043.82 526.662 1043.32 527.335 1043.32 528.514V537.714C1043.32 542.314 1043.88 542.539 1046.74 542.819C1047.08 543.156 1047.08 544.334 1046.74 544.67C1045.06 544.614 1043.38 544.558 1041.13 544.558C1038.89 544.558 1036.64 544.614 1034.96 544.67C1034.62 544.334 1034.62 543.156 1034.96 542.819C1038.33 542.539 1038.89 542.314 1038.89 537.714V526.774C1038.89 523.521 1038.27 523.24 1035.24 522.96C1035.13 522.623 1035.02 521.725 1035.13 521.389C1039 520.884 1040.46 520.379 1042.03 519.762C1042.48 519.762 1042.53 519.986 1042.7 520.211C1042.93 520.828 1043.1 522.96 1043.15 524.474C1043.15 525.035 1043.43 524.867 1043.82 524.474ZM1088.65 537.714C1088.65 542.37 1089.6 542.651 1093.53 542.819C1093.87 543.156 1093.87 544.334 1093.53 544.67C1091 544.614 1088.26 544.558 1086.29 544.558C1084.22 544.558 1081.52 544.614 1079 544.67C1078.66 544.334 1078.66 543.156 1079 542.819C1082.93 542.651 1083.88 542.37 1083.88 537.714V515.218C1083.88 510.562 1082.93 510.281 1079 510.113C1078.66 509.776 1078.66 508.598 1079 508.261C1081.64 508.318 1084.33 508.374 1086.24 508.374C1088.37 508.374 1091.06 508.318 1093.53 508.261C1093.87 508.598 1093.87 509.776 1093.53 510.113C1089.6 510.281 1088.65 510.562 1088.65 515.218V537.714ZM1104.91 524.474C1108.22 520.66 1111.36 519.93 1114.11 519.93C1116.07 519.93 1117.81 520.603 1118.77 521.838C1120.06 523.577 1120.28 526.27 1120.28 529.355V537.714C1120.28 542.314 1120.9 542.539 1124.04 542.819C1124.32 543.156 1124.32 544.334 1124.04 544.67C1122.36 544.614 1120.34 544.558 1118.09 544.558C1115.85 544.558 1114.05 544.614 1112.37 544.67C1112.09 544.334 1112.09 543.156 1112.37 542.819C1115.29 542.539 1115.85 542.314 1115.85 537.714V529.187C1115.85 527.504 1115.74 525.989 1115.18 524.867C1114.5 523.577 1113.33 522.847 1112.2 522.847C1110.02 522.847 1107.49 524.082 1105.36 526.157C1104.91 526.662 1104.41 527.335 1104.41 528.514V537.714C1104.41 542.314 1104.97 542.539 1107.83 542.819C1108.16 543.156 1108.16 544.334 1107.83 544.67C1106.14 544.614 1104.46 544.558 1102.22 544.558C1099.97 544.558 1097.73 544.614 1096.05 544.67C1095.71 544.334 1095.71 543.156 1096.05 542.819C1099.41 542.539 1099.97 542.314 1099.97 537.714V526.774C1099.97 523.521 1099.36 523.24 1096.33 522.96C1096.21 522.623 1096.1 521.725 1096.21 521.389C1100.09 520.884 1101.54 520.379 1103.12 519.762C1103.56 519.762 1103.62 519.986 1103.79 520.211C1104.01 520.828 1104.18 522.96 1104.24 524.474C1104.24 525.035 1104.52 524.867 1104.91 524.474ZM1134.81 537.714C1134.81 542.37 1135.15 542.595 1139.52 542.819C1139.86 543.156 1139.86 544.334 1139.52 544.67C1137.56 544.614 1134.87 544.558 1132.62 544.558C1130.38 544.558 1128.42 544.614 1126.45 544.67C1126.12 544.334 1126.12 543.156 1126.45 542.819C1129.48 542.595 1130.38 542.37 1130.38 537.714V522.679H1126.51C1126.28 522.679 1126.23 522.623 1126.23 522.343V521.613C1126.23 521.164 1126.51 520.491 1127.52 520.491H1130.38V518.247C1130.38 509.496 1135.6 505.4 1140.31 505.4C1142.44 505.4 1143.9 505.569 1145.36 506.578C1146.54 507.476 1147.15 508.486 1147.15 509.44C1147.15 510.562 1145.81 511.74 1144.85 511.74C1143.67 511.74 1143.06 510.954 1142.61 509.944C1141.82 507.981 1140.93 507.308 1139.24 507.308C1137.39 507.308 1134.81 508.654 1134.81 517.294V520.491H1140.87C1141.15 520.491 1141.32 520.603 1141.32 520.828V521.95C1141.32 522.455 1140.53 522.679 1140.03 522.679H1134.81V537.714ZM1144.83 530.421C1144.83 519.986 1150.05 510.618 1156.72 504.895C1157.34 504.952 1157.68 505.344 1157.9 505.905C1156.11 507.925 1149.49 515.667 1149.49 530.421C1149.49 545.175 1156.05 552.917 1157.9 555.049C1157.73 555.498 1157.28 555.89 1156.72 556.003C1145.05 545.905 1144.83 532.945 1144.83 530.421ZM1163.05 551.963V536.031C1163.05 522.567 1168.05 518.752 1173.6 518.752C1180.16 518.752 1185.21 523.745 1185.21 530.701C1185.21 538.836 1180.33 545.119 1173.66 545.119C1171.3 545.119 1169.79 544.726 1167.77 542.875V551.907C1167.77 553.927 1167.26 555.946 1166.87 556.732H1162.16C1162.72 555.554 1163.05 553.871 1163.05 551.963ZM1167.77 529.243V539.621C1167.77 541.304 1170.96 543.324 1173.6 543.324C1177.64 543.324 1180.39 538.836 1180.39 532.665C1180.39 524.811 1177.08 520.323 1172.93 520.323C1169.62 520.323 1167.77 523.857 1167.77 529.243ZM1188.53 507.532L1189.2 506.635C1197.78 511.796 1202.89 521.164 1202.89 530.701C1202.89 541.08 1197.95 549.046 1189.03 554.488L1188.53 553.59C1196.49 547.027 1198.06 541.753 1198.06 530.87C1198.06 520.379 1196.66 513.928 1188.53 507.532ZM1229.71 509.103C1229.71 510.73 1228.47 511.964 1226.79 511.964C1225.22 511.964 1223.98 510.73 1223.98 509.103C1223.98 507.532 1225.27 506.242 1226.84 506.242C1228.47 506.242 1229.71 507.532 1229.71 509.103ZM1233.8 544.558H1220.51V543.717C1224.38 543.492 1224.94 542.987 1224.94 538.724V525.989C1224.94 523.352 1224.49 522.455 1223.09 522.455C1222.58 522.455 1221.74 522.455 1220.73 522.735V521.838L1229.43 518.752L1229.65 518.977V538.668C1229.65 542.819 1230.1 543.436 1233.8 543.717V544.558ZM1243.97 527.672L1249.81 531.206C1253.4 533.394 1254.74 534.909 1254.74 538.107C1254.74 541.865 1251.15 545.119 1246.89 545.119C1245.71 545.119 1244.09 545.063 1242.79 544.614C1241.45 544.165 1240.83 544.109 1240.21 544.109C1239.54 544.109 1239.2 544.222 1238.87 544.783H1238.14V535.975H1239.04C1240.21 541.417 1242.29 543.885 1246.16 543.885C1249.02 543.885 1250.82 542.034 1250.82 539.734C1250.82 537.994 1249.7 536.536 1247.84 535.526L1244.81 533.843C1240.16 531.262 1238.08 528.57 1238.08 525.709C1238.08 521.277 1241.22 518.808 1245.82 518.808C1247.17 518.808 1248.4 518.864 1249.58 519.425C1250.2 519.706 1250.76 519.874 1251.15 519.874C1251.38 519.874 1251.6 519.818 1252.05 519.313H1252.67L1252.95 526.943H1252.11C1250.82 521.894 1249.13 520.042 1245.77 520.042C1243.36 520.042 1241.56 521.221 1241.56 523.857C1241.56 525.091 1242.4 526.718 1243.97 527.672ZM1293.94 535.358L1294.84 535.75C1292.65 541.865 1288.72 545.119 1283.11 545.119C1276.49 545.119 1272.45 540.126 1272.45 532.384C1272.45 524.474 1277 518.752 1284.07 518.752C1287.54 518.752 1290.07 520.099 1291.86 522.623C1292.99 524.194 1293.55 525.989 1293.77 529.018H1276.49C1276.77 533.282 1277.05 535.47 1279.07 538.163C1280.64 540.238 1282.72 541.248 1285.3 541.248C1289.06 541.248 1291.19 539.509 1293.94 535.358ZM1276.6 527.223H1288.05C1287.43 522.679 1286.25 520.772 1282.55 520.772C1279.41 520.772 1277.22 523.016 1276.6 527.223ZM1321.7 519.313V520.155C1320.01 520.323 1319.57 520.772 1318.05 524.53L1310.87 542.539C1310.03 544.614 1309.64 545.344 1309.3 545.344C1308.96 545.344 1308.68 544.895 1308.29 543.885C1308.12 543.604 1308.06 543.212 1307.84 542.707L1301.11 526.606C1298.7 520.828 1298.13 520.267 1296 520.155V519.313H1307V520.155C1305.09 520.323 1304.42 520.716 1304.42 521.669C1304.42 522.23 1304.59 522.96 1304.92 523.801L1310.65 538.163L1316.2 523.633C1316.42 523.072 1316.54 522.511 1316.54 521.95C1316.54 520.884 1315.69 520.323 1313.9 520.155V519.313H1321.7ZM1344.51 535.358L1345.4 535.75C1343.22 541.865 1339.29 545.119 1333.68 545.119C1327.06 545.119 1323.02 540.126 1323.02 532.384C1323.02 524.474 1327.56 518.752 1334.63 518.752C1338.11 518.752 1340.64 520.099 1342.43 522.623C1343.55 524.194 1344.11 525.989 1344.34 529.018H1327.06C1327.34 533.282 1327.62 535.47 1329.64 538.163C1331.21 540.238 1333.29 541.248 1335.87 541.248C1339.63 541.248 1341.76 539.509 1344.51 535.358ZM1327.17 527.223H1338.62C1338 522.679 1336.82 520.772 1333.12 520.772C1329.98 520.772 1327.79 523.016 1327.17 527.223ZM1373.75 544.558H1362.08L1362.14 543.717C1364.95 543.492 1365.62 542.37 1365.62 538.668V527.504C1365.62 523.521 1364.27 521.838 1361.52 521.838C1359.67 521.838 1358.33 522.511 1355.75 525.035V540.519C1355.75 542.707 1356.53 543.492 1359.39 543.717V544.558H1347.55V543.717C1350.42 543.492 1351.03 542.595 1351.03 539.285V525.652C1351.03 522.904 1350.64 522.006 1349.07 522.006C1348.45 522.006 1347.84 522.062 1347.44 522.23V521.277C1350.53 520.379 1352.38 519.762 1355.13 518.752L1355.58 518.92V523.296H1355.63C1358.55 519.986 1361.13 518.752 1363.71 518.752C1367.98 518.752 1370.33 521.838 1370.33 527.392V539.79C1370.33 542.819 1371 543.436 1373.75 543.717V544.558Z" fill="black"/>
<g id="Group_13">
<g id="Group 4">
<g id=":2">
<path d="M572.045 723.098C571.163 723.098 570.54 722.916 570.174 722.55C569.83 722.184 569.658 721.722 569.658 721.163V720.582C569.658 720.023 569.83 719.561 570.174 719.195C570.54 718.83 571.163 718.647 572.045 718.647C572.927 718.647 573.539 718.83 573.884 719.195C574.249 719.561 574.432 720.023 574.432 720.582V721.163C574.432 721.722 574.249 722.184 573.884 722.55C573.539 722.916 572.927 723.098 572.045 723.098ZM572.045 710.325C571.163 710.325 570.54 710.142 570.174 709.777C569.83 709.411 569.658 708.949 569.658 708.39V707.809C569.658 707.25 569.83 706.788 570.174 706.422C570.54 706.056 571.163 705.874 572.045 705.874C572.927 705.874 573.539 706.056 573.884 706.422C574.249 706.788 574.432 707.25 574.432 707.809V708.39C574.432 708.949 574.249 709.411 573.884 709.777C573.539 710.142 572.927 710.325 572.045 710.325Z" fill="black"/>
<path d="M596.998 718.389L595.257 722.808H582.645V722.421L588.386 716.325C591.418 713.131 592.579 710.68 592.579 707.938C592.579 705.003 590.838 703.39 588.096 703.39C585.773 703.39 584.644 704.422 583.354 707.583L582.677 707.422C583.354 703.648 585.419 701.003 589.386 701.003C593.031 701.003 595.353 703.487 595.353 706.68C595.353 709.228 594.095 711.648 591.225 714.68L585.902 720.357H593.45C594.805 720.357 595.482 720.002 596.547 718.195L596.998 718.389Z" fill="#00AA4D"/>
</g>
<g id=":2_2">
<path d="M823.649 713.393C823.649 714.361 822.843 715.167 821.875 715.167C820.907 715.167 820.069 714.361 820.069 713.393C820.069 712.361 820.843 711.587 821.875 711.587C822.843 711.587 823.649 712.425 823.649 713.393ZM823.649 724.973C823.649 725.941 822.843 726.747 821.875 726.747C820.907 726.747 820.069 725.941 820.069 724.973C820.069 723.941 820.843 723.166 821.875 723.166C822.843 723.166 823.649 724.005 823.649 724.973Z" fill="black"/>
<path d="M841.723 721.973L839.981 726.392H827.369V726.005L833.111 719.909C836.143 716.715 837.304 714.264 837.304 711.522C837.304 708.587 835.562 706.974 832.82 706.974C830.498 706.974 829.369 708.006 828.079 711.167L827.401 711.006C828.079 707.232 830.143 704.587 834.11 704.587C837.755 704.587 840.078 707.071 840.078 710.264C840.078 712.812 838.82 715.232 835.949 718.264L830.627 723.941H838.175C839.529 723.941 840.207 723.586 841.271 721.779L841.723 721.973Z" fill="#00AA4C"/>
</g>
<g id=":1">
<path d="M701.068 780.443C700.187 780.443 699.563 780.26 699.198 779.894C698.853 779.529 698.681 779.066 698.681 778.507V777.927C698.681 777.368 698.853 776.905 699.198 776.54C699.563 776.174 700.187 775.991 701.068 775.991C701.95 775.991 702.563 776.174 702.907 776.54C703.273 776.905 703.455 777.368 703.455 777.927V778.507C703.455 779.066 703.273 779.529 702.907 779.894C702.563 780.26 701.95 780.443 701.068 780.443ZM701.068 767.669C700.187 767.669 699.563 767.486 699.198 767.121C698.853 766.755 698.681 766.293 698.681 765.734V765.153C698.681 764.594 698.853 764.132 699.198 763.766C699.563 763.401 700.187 763.218 701.068 763.218C701.95 763.218 702.563 763.401 702.907 763.766C703.273 764.132 703.455 764.594 703.455 765.153V765.734C703.455 766.293 703.273 766.755 702.907 767.121C702.563 767.486 701.95 767.669 701.068 767.669Z" fill="black"/>
<path d="M723.441 780.152H714.539V779.669C716.926 779.539 717.603 778.862 717.603 777.088V762.605C717.603 761.508 717.313 761.025 716.635 761.025C716.313 761.025 715.765 761.186 715.184 761.412L714.313 761.734V761.283L720.087 758.347L720.377 758.444V777.701C720.377 779.088 721.022 779.669 723.441 779.669V780.152Z" fill="#D02525"/>
</g>
<g id=":1_2">
<path d="M694.797 903.195C693.915 903.195 693.292 903.012 692.926 902.646C692.582 902.281 692.41 901.818 692.41 901.259V900.679C692.41 900.12 692.582 899.657 692.926 899.292C693.292 898.926 693.915 898.743 694.797 898.743C695.679 898.743 696.291 898.926 696.636 899.292C697.001 899.657 697.184 900.12 697.184 900.679V901.259C697.184 901.818 697.001 902.281 696.636 902.646C696.291 903.012 695.679 903.195 694.797 903.195ZM694.797 890.421C693.915 890.421 693.292 890.238 692.926 889.873C692.582 889.507 692.41 889.045 692.41 888.486V887.905C692.41 887.346 692.582 886.884 692.926 886.518C693.292 886.153 693.915 885.97 694.797 885.97C695.679 885.97 696.291 886.153 696.636 886.518C697.001 886.884 697.184 887.346 697.184 887.905V888.486C697.184 889.045 697.001 889.507 696.636 889.873C696.291 890.238 695.679 890.421 694.797 890.421Z" fill="black"/>
<path d="M717.17 902.904H708.267V902.42C710.654 902.291 711.332 901.614 711.332 899.84V885.357C711.332 884.26 711.041 883.776 710.364 883.776C710.041 883.776 709.493 883.938 708.912 884.164L708.042 884.486V884.035L713.815 881.099L714.106 881.196V900.453C714.106 901.84 714.751 902.42 717.17 902.42V902.904Z" fill="#D02525"/>
</g>
</g>
<g id="Group 5">
<path id="Ellipse 5" d="M871.937 853.673C871.937 882.621 848.469 906.088 819.521 906.088C790.572 906.088 767.105 882.621 767.105 853.673C767.105 824.724 790.572 801.257 819.521 801.257C848.469 801.257 871.937 824.724 871.937 853.673Z" fill="white" fill-opacity="0.46" stroke="black" stroke-width="2.688"/>
<path id="Ellipse 6" d="M624.641 853.673C624.641 882.621 601.173 906.088 572.225 906.088C543.276 906.088 519.809 882.621 519.809 853.673C519.809 824.724 543.276 801.257 572.225 801.257C601.173 801.257 624.641 824.724 624.641 853.673Z" fill="white" fill-opacity="0.46" stroke="black" stroke-width="2.688"/>
<g id="Vector 1" filter="url(#filter0_d_6_104)">
<path d="M765.168 822.715C765.638 823.29 766.485 823.374 767.059 822.904C767.634 822.434 767.719 821.588 767.249 821.013L765.168 822.715ZM624.192 821.864L639.191 817.879L628.241 806.882L624.192 821.864ZM767.249 821.013C754 804.82 728.835 795.724 702.845 794.075C676.834 792.426 649.553 798.205 631.927 812.277L633.604 814.378C650.528 800.866 677.058 795.133 702.675 796.758C728.314 798.384 752.595 807.348 765.168 822.715L767.249 821.013Z" fill="black"/>
</g>
<g id="Vector 7" filter="url(#filter1_d_6_104)">
<path d="M625.233 889.557C624.763 888.983 623.916 888.898 623.342 889.368C622.767 889.838 622.683 890.685 623.153 891.259L625.233 889.557ZM766.209 890.408L751.21 894.393L762.16 905.39L766.209 890.408ZM623.153 891.259C636.402 907.452 661.567 916.549 687.556 918.197C713.567 919.847 740.848 914.068 758.474 899.995L756.797 897.895C739.873 911.407 713.344 917.139 687.726 915.515C662.087 913.889 637.806 904.925 625.233 889.557L623.153 891.259Z" fill="black"/>
</g>
<path id="Arrow 8" d="M511.351 854.623C511.876 854.098 511.876 853.247 511.351 852.722L502.798 844.169C502.273 843.644 501.422 843.644 500.897 844.169C500.372 844.694 500.372 845.545 500.897 846.07L508.5 853.672L500.897 861.275C500.372 861.8 500.372 862.651 500.897 863.176C501.422 863.701 502.273 863.701 502.798 863.176L511.351 854.623ZM463.809 855.016L510.401 855.016L510.401 852.328L463.809 852.328L463.809 855.016Z" fill="black"/>
<path id="Vector 4" d="M549.831 796.703C550.285 797.29 551.129 797.398 551.716 796.943C552.303 796.489 552.411 795.645 551.957 795.058L549.831 796.703ZM568.813 735.4L568.813 736.744L568.813 735.4ZM591.662 799.912L604.276 790.873L590.14 784.468L591.662 799.912ZM551.957 795.058C542.984 783.459 539.536 768.742 542.179 757.032C543.497 751.196 546.317 746.143 550.676 742.548C555.029 738.96 561.014 736.744 568.813 736.744L568.813 734.056C560.484 734.056 553.868 736.433 548.966 740.474C544.072 744.51 540.983 750.125 539.557 756.44C536.714 769.035 540.436 784.558 549.831 796.703L551.957 795.058ZM568.813 736.744C576.4 736.744 582.124 738.767 586.389 742.019C590.665 745.278 593.575 749.847 595.392 755.097C599.041 765.637 598.206 778.714 595.364 788.517L597.946 789.266C600.893 779.099 601.814 765.429 597.932 754.217C595.984 748.59 592.807 743.531 588.019 739.881C583.22 736.223 576.902 734.056 568.813 734.056L568.813 736.744Z" fill="black"/>
<path id="Vector 6" d="M799.814 796.703C800.268 797.29 801.112 797.398 801.7 796.943C802.287 796.489 802.394 795.645 801.94 795.058L799.814 796.703ZM818.797 735.4L818.797 736.744L818.797 735.4ZM841.645 799.912L854.26 790.873L840.124 784.468L841.645 799.912ZM801.94 795.058C792.967 783.459 789.519 768.742 792.163 757.032C793.481 751.196 796.3 746.143 800.66 742.548C805.012 738.96 810.997 736.744 818.797 736.744L818.797 734.056C810.467 734.056 803.851 736.433 798.95 740.474C794.055 744.51 790.967 750.125 789.541 756.44C786.697 769.035 790.419 784.558 799.814 796.703L801.94 795.058ZM818.797 736.744C826.384 736.744 832.107 738.767 836.373 742.019C840.649 745.278 843.558 749.847 845.375 755.097C849.025 765.637 848.19 778.714 845.347 788.517L847.929 789.266C850.877 779.099 851.797 765.429 847.916 754.217C845.968 748.59 842.791 743.531 838.002 739.881C833.204 736.223 826.886 734.056 818.797 734.056L818.797 736.744Z" fill="black"/>
<path id="a" d="M681.376 901.904C680.365 901.904 679.645 901.646 679.215 901.13C678.785 900.614 678.516 899.969 678.408 899.195H678.247C677.881 900.162 677.29 900.926 676.473 901.485C675.677 902.023 674.602 902.291 673.247 902.291C671.506 902.291 670.119 901.84 669.086 900.937C668.054 900.033 667.538 898.797 667.538 897.227C667.538 895.679 668.097 894.485 669.215 893.647C670.355 892.808 672.183 892.389 674.699 892.389H678.247V890.744C678.247 889.518 677.903 888.604 677.215 888.002C676.527 887.378 675.548 887.067 674.28 887.067C673.161 887.067 672.247 887.292 671.538 887.744C670.828 888.174 670.258 888.765 669.828 889.518L668.086 888.228C668.301 887.798 668.592 887.378 668.957 886.97C669.323 886.561 669.774 886.206 670.312 885.905C670.85 885.583 671.463 885.335 672.151 885.163C672.839 884.97 673.602 884.873 674.441 884.873C676.398 884.873 677.946 885.368 679.086 886.357C680.247 887.346 680.828 888.722 680.828 890.486V899.646H683.15V901.904H681.376ZM673.699 900.13C674.366 900.13 674.968 900.055 675.505 899.904C676.064 899.732 676.548 899.517 676.957 899.259C677.365 898.98 677.677 898.657 677.892 898.292C678.129 897.905 678.247 897.496 678.247 897.066V894.324H674.699C673.151 894.324 672.022 894.539 671.312 894.969C670.602 895.399 670.248 896.023 670.248 896.84V897.517C670.248 898.378 670.549 899.034 671.151 899.485C671.774 899.915 672.624 900.13 673.699 900.13Z" fill="black"/>
<path id="b" d="M674.745 758.867H677.325V768.802H677.454C678.53 766.737 680.239 765.705 682.583 765.705C684.626 765.705 686.217 766.469 687.357 767.995C688.518 769.522 689.099 771.662 689.099 774.414C689.099 777.167 688.518 779.306 687.357 780.833C686.217 782.36 684.626 783.123 682.583 783.123C680.239 783.123 678.53 782.091 677.454 780.027H677.325V782.736H674.745V758.867ZM681.583 780.833C683.089 780.833 684.25 780.382 685.067 779.478C685.906 778.554 686.325 777.339 686.325 775.834V772.995C686.325 771.49 685.906 770.286 685.067 769.382C684.25 768.458 683.089 767.995 681.583 767.995C681.003 767.995 680.454 768.071 679.938 768.221C679.422 768.372 678.971 768.597 678.583 768.899C678.196 769.178 677.885 769.533 677.648 769.963C677.433 770.372 677.325 770.855 677.325 771.414V777.414C677.325 777.973 677.433 778.468 677.648 778.898C677.885 779.306 678.196 779.661 678.583 779.962C678.971 780.242 679.422 780.457 679.938 780.607C680.454 780.758 681.003 780.833 681.583 780.833Z" fill="black"/>
<path id="b_2" d="M543.929 701.523H546.509V711.458H546.638C547.713 709.394 549.423 708.361 551.767 708.361C553.81 708.361 555.401 709.125 556.541 710.652C557.702 712.178 558.282 714.318 558.282 717.071C558.282 719.823 557.702 721.963 556.541 723.489C555.401 725.016 553.81 725.78 551.767 725.78C549.423 725.78 547.713 724.747 546.638 722.683H546.509V725.393H543.929V701.523ZM550.767 723.489C552.272 723.489 553.433 723.038 554.25 722.135C555.089 721.21 555.508 719.995 555.508 718.49V715.651C555.508 714.146 555.089 712.942 554.25 712.039C553.433 711.114 552.272 710.652 550.767 710.652C550.186 710.652 549.638 710.727 549.122 710.877C548.606 711.028 548.154 711.254 547.767 711.555C547.38 711.834 547.068 712.189 546.832 712.619C546.617 713.028 546.509 713.512 546.509 714.071V720.07C546.509 720.629 546.617 721.124 546.832 721.554C547.068 721.963 547.38 722.318 547.767 722.619C548.154 722.898 548.606 723.113 549.122 723.264C549.638 723.414 550.186 723.489 550.767 723.489Z" fill="black"/>
<path id="a_2" d="M811.919 725.393C810.908 725.393 810.188 725.135 809.758 724.618C809.328 724.102 809.059 723.457 808.951 722.683H808.79C808.424 723.651 807.833 724.414 807.016 724.973C806.22 725.511 805.145 725.78 803.79 725.78C802.049 725.78 800.662 725.328 799.629 724.425C798.597 723.522 798.081 722.285 798.081 720.715C798.081 719.167 798.64 717.974 799.758 717.135C800.898 716.296 802.726 715.877 805.242 715.877H808.79V714.232C808.79 713.006 808.446 712.092 807.758 711.49C807.07 710.867 806.091 710.555 804.823 710.555C803.704 710.555 802.79 710.781 802.081 711.232C801.371 711.662 800.801 712.254 800.371 713.006L798.629 711.716C798.844 711.286 799.135 710.867 799.5 710.458C799.866 710.049 800.317 709.695 800.855 709.394C801.393 709.071 802.006 708.824 802.694 708.652C803.382 708.458 804.145 708.361 804.984 708.361C806.941 708.361 808.489 708.856 809.629 709.845C810.79 710.834 811.371 712.211 811.371 713.974V723.135H813.693V725.393H811.919ZM804.242 723.618C804.909 723.618 805.511 723.543 806.048 723.393C806.607 723.221 807.091 723.006 807.5 722.748C807.908 722.468 808.22 722.145 808.435 721.78C808.672 721.393 808.79 720.984 808.79 720.554V717.812H805.242C803.694 717.812 802.565 718.027 801.855 718.458C801.145 718.888 800.791 719.511 800.791 720.328V721.006C800.791 721.866 801.092 722.522 801.694 722.973C802.317 723.403 803.167 723.618 804.242 723.618Z" fill="black"/>
</g>
</g>
<g id="_mathcal_L___mathcal_A______Sigma___a______Sigma___b__omega" clip-path="url(#clip1_6_104)">
<g id="page1_2">
<path id="Vector_4" d="M1019.25 826.027C1022.31 821.268 1023.27 817.643 1024.01 814.64C1025.99 806.823 1028.14 800.025 1031.66 796.116C1032.34 795.38 1032.79 794.87 1034.6 794.87C1038.51 794.87 1038.62 798.779 1038.62 799.572C1038.62 800.592 1038.34 801.385 1038.34 801.668C1038.34 802.064 1038.68 802.064 1038.74 802.064C1039.64 802.064 1041.17 801.441 1042.59 800.422C1043.61 799.629 1044.12 799.062 1044.12 796.74C1044.12 793.68 1042.53 791.358 1039.36 791.358C1037.55 791.358 1032.56 791.811 1027.01 797.419C1022.48 802.064 1019.82 812.261 1018.74 816.51C1017.72 820.419 1017.27 822.175 1015.57 825.574C1015.17 826.253 1013.7 828.746 1012.9 829.482C1011.38 830.898 1010.81 831.918 1010.81 832.201C1010.81 832.315 1010.92 832.541 1011.32 832.541C1011.55 832.541 1012.73 832.315 1014.21 831.352C1015.17 830.785 1015.28 830.672 1016.59 829.312C1019.42 829.369 1021.4 829.879 1024.97 830.898C1027.86 831.692 1030.75 832.541 1033.64 832.541C1038.23 832.541 1042.87 829.086 1044.68 826.593C1045.82 825.064 1046.16 823.647 1046.16 823.478C1046.16 823.081 1045.82 823.081 1045.76 823.081C1044.85 823.081 1043.49 823.704 1042.53 824.384C1041 825.347 1040.89 825.687 1040.55 826.65C1040.27 827.556 1039.93 828.009 1039.7 828.349C1039.25 829.029 1039.19 829.029 1038.34 829.029C1035.62 829.029 1032.79 828.179 1029.05 827.16C1027.46 826.707 1024.35 825.8 1021.52 825.8C1020.78 825.8 1019.99 825.857 1019.25 826.027Z" fill="black"/>
<path id="Vector_5" d="M1066.53 845.06C1066.53 844.891 1066.53 844.777 1065.57 843.814C1059.91 838.093 1056.73 828.746 1056.73 817.189C1056.73 806.2 1059.4 796.739 1065.97 790.055C1066.53 789.545 1066.53 789.432 1066.53 789.262C1066.53 788.922 1066.25 788.809 1066.03 788.809C1065.29 788.809 1060.64 792.887 1057.87 798.439C1054.98 804.16 1053.68 810.222 1053.68 817.189C1053.68 822.231 1054.47 828.972 1057.41 835.034C1060.76 841.831 1065.4 845.514 1066.03 845.514C1066.25 845.514 1066.53 845.4 1066.53 845.06Z" fill="black"/>
<path id="Vector_6" d="M1103.4 821.948C1103.68 825.517 1104.36 828.123 1104.65 829.199C1105.27 831.748 1105.55 832.995 1107.99 832.995C1110.54 832.995 1114.9 830.445 1114.9 829.312C1114.9 829.029 1114.67 828.916 1114.39 828.916C1113.65 828.916 1112.46 829.539 1112.29 829.652C1111.9 829.879 1111.78 829.879 1111.67 829.879C1110.09 829.879 1109.75 828.349 1109.07 824.951C1108.67 823.081 1108.16 820.815 1107.71 813.054C1107.31 807.276 1107.08 801.498 1107.08 795.72C1107.08 794.36 1107.14 792.888 1107.14 791.528C1107.14 790.622 1107.14 790.395 1106.52 790.395C1105.72 790.395 1103.4 791.358 1102.38 792.888L1101.98 793.511C1097.51 803.084 1093.32 809.939 1090.37 814.527C1087.03 819.682 1081.14 828.916 1078.08 828.916C1075.98 828.916 1074.23 827.556 1073.72 825.517C1073.66 825.404 1073.55 825.064 1073.32 825.064C1072.47 825.064 1071.22 827.783 1071.22 829.369C1071.22 831.635 1073.66 834.128 1076.32 834.128C1080.23 834.128 1086.75 823.931 1087.99 821.948H1103.4ZM1102.27 797.363V800.648C1102.27 803.934 1102.38 807.22 1102.55 810.505C1102.61 811.638 1102.83 815.887 1103.12 818.833H1092.75C1091.84 818.833 1090.99 818.833 1089.52 819.739C1093.49 813.621 1096.77 807.729 1097.11 807.106C1099.95 802.065 1101.47 798.779 1102.21 797.363H1102.27Z" fill="black"/>
<path id="Vector_7" d="M1130.9 817.189C1130.9 812.884 1130.34 805.86 1127.16 799.289C1123.82 792.491 1119.18 788.809 1118.55 788.809C1118.33 788.809 1118.04 788.922 1118.04 789.262C1118.04 789.432 1118.04 789.545 1119.01 790.508C1124.67 796.23 1127.84 805.577 1127.84 817.133C1127.84 828.123 1125.18 837.583 1118.61 844.267C1118.04 844.777 1118.04 844.891 1118.04 845.06C1118.04 845.4 1118.33 845.514 1118.55 845.514C1119.29 845.514 1123.93 841.435 1126.71 835.883C1129.6 830.105 1130.9 823.987 1130.9 817.189Z" fill="black"/>
<path id="Vector_8" d="M1190.47 812.941C1191.26 812.941 1192.28 812.941 1192.28 811.922C1192.28 810.845 1191.32 810.845 1190.47 810.845H1157.11C1156.31 810.845 1155.29 810.845 1155.29 811.865C1155.29 812.941 1156.26 812.941 1157.11 812.941H1190.47ZM1190.47 823.478C1191.26 823.478 1192.28 823.478 1192.28 822.458C1192.28 821.382 1191.32 821.382 1190.47 821.382H1157.11C1156.31 821.382 1155.29 821.382 1155.29 822.401C1155.29 823.478 1156.26 823.478 1157.11 823.478H1190.47Z" fill="black"/>
<path id="Vector_9" d="M1231.16 812.885C1231.62 812.319 1231.73 812.205 1231.73 811.922C1231.73 811.809 1231.73 811.695 1231.39 811.242L1219.95 794.248H1233.32C1242.83 794.248 1245.72 796.287 1246.8 805.238H1248.05L1246.57 792.605H1215.59C1214.23 792.605 1214.17 792.605 1214.17 793.908L1227.94 814.301L1214.79 829.823C1214.34 830.333 1214.23 830.503 1214.23 830.729C1214.23 831.296 1214.68 831.296 1215.59 831.296H1246.57L1248.05 818.097H1246.8C1245.78 827.444 1242.21 829.087 1233.15 829.087H1217.46L1231.16 812.885Z" fill="black"/>
<path id="Vector_10" d="M1266.77 802.92C1267.11 803.147 1267.22 803.147 1267.41 803.147C1268.01 803.147 1268.54 802.656 1268.54 801.976C1268.54 801.258 1268.17 801.107 1267.6 800.843C1265.07 799.672 1264.16 799.257 1262.31 798.502L1266.73 796.5C1267.03 796.387 1267.75 796.047 1268.05 795.934C1268.43 795.707 1268.54 795.329 1268.54 794.989C1268.54 794.536 1268.32 793.819 1267.18 793.819L1261.75 797.52L1262.27 791.93C1262.35 791.288 1262.27 790.344 1261.18 790.344C1260.5 790.344 1259.97 790.911 1260.08 791.439V791.893L1260.61 797.52L1255.59 794.045C1255.25 793.819 1255.14 793.819 1254.95 793.819C1254.34 793.819 1253.81 794.31 1253.81 794.989C1253.81 795.707 1254.19 795.858 1254.76 796.122C1257.29 797.293 1258.2 797.709 1260.05 798.464L1255.63 800.465C1255.33 800.579 1254.61 800.919 1254.31 801.032C1253.93 801.258 1253.81 801.636 1253.81 801.976C1253.81 802.656 1254.34 803.147 1254.95 803.147C1255.25 803.147 1255.33 803.147 1256.27 802.467L1260.61 799.446L1260.05 805.526C1260.05 806.281 1260.69 806.621 1261.18 806.621C1261.67 806.621 1262.31 806.281 1262.31 805.526C1262.31 805.148 1262.16 803.94 1262.12 803.487C1261.97 802.203 1261.86 800.768 1261.75 799.446L1266.77 802.92Z" fill="black"/>
<path id="Vector_11" d="M1290.65 824.554C1290.36 825.517 1290.36 825.63 1289.57 826.706C1288.32 828.293 1285.83 830.728 1283.17 830.728C1280.85 830.728 1279.54 828.632 1279.54 825.29C1279.54 822.175 1281.3 815.83 1282.37 813.451C1284.3 809.485 1286.96 807.446 1289.17 807.446C1292.91 807.446 1293.65 812.091 1293.65 812.544C1293.65 812.601 1293.48 813.337 1293.42 813.451L1290.65 824.554ZM1294.27 810.052C1293.65 808.579 1292.12 806.313 1289.17 806.313C1282.77 806.313 1275.86 814.584 1275.86 822.968C1275.86 828.576 1279.15 831.861 1283 831.861C1286.11 831.861 1288.78 829.426 1290.36 827.556C1290.93 830.898 1293.59 831.861 1295.29 831.861C1296.99 831.861 1298.35 830.842 1299.37 828.802C1300.28 826.876 1301.07 823.421 1301.07 823.194C1301.07 822.911 1300.84 822.684 1300.5 822.684C1299.99 822.684 1299.94 822.968 1299.71 823.817C1298.86 827.16 1297.78 830.728 1295.46 830.728C1293.82 830.728 1293.7 829.256 1293.7 828.123C1293.7 826.82 1293.87 826.197 1294.38 823.987C1294.78 822.571 1295.06 821.325 1295.52 819.682C1297.61 811.185 1298.12 809.145 1298.12 808.806C1298.12 808.012 1297.5 807.389 1296.65 807.389C1294.84 807.389 1294.38 809.372 1294.27 810.052Z" fill="black"/>
<path id="Vector_12" d="M1326.92 794.084C1326.92 792.913 1326.58 791.213 1325.11 791.213C1324.09 791.213 1323.11 792.158 1323.11 793.215C1323.11 793.781 1323.52 794.121 1323.94 794.499C1324.5 795.065 1325.07 796.047 1325.07 797.445C1325.07 799.975 1322.46 805.338 1318.69 805.338C1316.72 805.338 1315.36 804.167 1314.91 802.354C1315.51 801.07 1316.31 798.993 1316.31 797.936C1316.31 797.294 1316.01 796.803 1315.29 796.803C1313.59 796.803 1313.36 800.995 1313.36 802.203C1312.04 803.789 1310.49 805.338 1308.3 805.338C1305.88 805.338 1304.75 803.412 1304.75 801.183C1304.75 799.409 1305.24 797.822 1306 796.35C1307.09 794.159 1308.57 792.724 1308.57 792.12C1308.57 791.704 1308.23 791.402 1307.81 791.402C1307.09 791.402 1306.53 792.497 1306.11 793.177C1304.49 795.859 1303.32 799.371 1303.32 802.505C1303.32 805.413 1304.41 808.246 1307.73 808.246C1310.98 808.246 1312.83 805.64 1313.66 804.582C1314.23 806.66 1315.78 808.283 1318.08 808.283C1321.18 808.283 1322.73 806.282 1324.28 803.676C1325.48 801.674 1326.92 796.463 1326.92 794.084Z" fill="black"/>
<path id="Vector_13" d="M1366.57 818.209H1382.2C1383 818.209 1384.02 818.209 1384.02 817.19C1384.02 816.113 1383.05 816.113 1382.2 816.113H1366.57V800.478C1366.57 799.685 1366.57 798.666 1365.55 798.666C1364.47 798.666 1364.47 799.629 1364.47 800.478V816.113H1348.84C1348.05 816.113 1347.03 816.113 1347.03 817.133C1347.03 818.209 1347.99 818.209 1348.84 818.209H1364.47V833.844C1364.47 834.637 1364.47 835.657 1365.49 835.657C1366.57 835.657 1366.57 834.694 1366.57 833.844V818.209Z" fill="black"/>
<path id="Vector_14" d="M1419.75 812.885C1420.2 812.319 1420.31 812.205 1420.31 811.922C1420.31 811.809 1420.31 811.695 1419.98 811.242L1408.53 794.248H1421.9C1431.42 794.248 1434.31 796.287 1435.38 805.238H1436.63L1435.16 792.605H1404.17C1402.81 792.605 1402.75 792.605 1402.75 793.908L1416.52 814.301L1403.38 829.823C1402.92 830.333 1402.81 830.503 1402.81 830.729C1402.81 831.296 1403.26 831.296 1404.17 831.296H1435.16L1436.63 818.097H1435.38C1434.36 827.444 1430.79 829.087 1421.73 829.087H1406.04L1419.75 812.885Z" fill="black"/>
<path id="Vector_15" d="M1455.35 802.92C1455.69 803.147 1455.81 803.147 1456 803.147C1456.6 803.147 1457.13 802.656 1457.13 801.976C1457.13 801.258 1456.75 801.107 1456.18 800.843C1453.65 799.672 1452.75 799.257 1450.9 798.502L1455.32 796.5C1455.62 796.387 1456.33 796.047 1456.64 795.934C1457.01 795.707 1457.13 795.329 1457.13 794.989C1457.13 794.536 1456.9 793.819 1455.77 793.819L1450.33 797.52L1450.86 791.93C1450.93 791.288 1450.86 790.344 1449.76 790.344C1449.08 790.344 1448.56 790.911 1448.67 791.439V791.893L1449.2 797.52L1444.17 794.045C1443.83 793.819 1443.72 793.819 1443.53 793.819C1442.93 793.819 1442.4 794.31 1442.4 794.989C1442.4 795.707 1442.78 795.858 1443.34 796.122C1445.87 797.293 1446.78 797.709 1448.63 798.464L1444.21 800.465C1443.91 800.579 1443.19 800.919 1442.89 801.032C1442.51 801.258 1442.4 801.636 1442.4 801.976C1442.4 802.656 1442.93 803.147 1443.53 803.147C1443.83 803.147 1443.91 803.147 1444.85 802.467L1449.2 799.446L1448.63 805.526C1448.63 806.281 1449.27 806.621 1449.76 806.621C1450.25 806.621 1450.9 806.281 1450.9 805.526C1450.9 805.148 1450.75 803.94 1450.71 803.487C1450.56 802.203 1450.44 800.768 1450.33 799.446L1455.35 802.92Z" fill="black"/>
<path id="Vector_16" d="M1475.27 793.398C1475.32 793.171 1475.44 792.831 1475.44 792.548C1475.44 791.981 1474.87 791.981 1474.76 791.981C1474.7 791.981 1472.66 792.151 1471.64 792.265C1470.68 792.321 1469.83 792.435 1468.81 792.491C1467.45 792.605 1467.05 792.661 1467.05 793.681C1467.05 794.247 1467.62 794.247 1468.18 794.247C1471.07 794.247 1471.07 794.757 1471.07 795.324C1471.07 795.72 1470.62 797.363 1470.39 798.383L1469.03 803.821C1468.47 806.087 1465.24 818.946 1465.01 819.966C1464.73 821.382 1464.73 822.345 1464.73 823.081C1464.73 828.86 1467.96 831.862 1471.64 831.862C1478.21 831.862 1485.01 823.421 1485.01 815.207C1485.01 809.996 1482.06 806.313 1477.81 806.313C1474.87 806.313 1472.21 808.749 1471.13 809.882L1475.27 793.398ZM1471.7 830.729C1469.88 830.729 1467.9 829.369 1467.9 824.951C1467.9 823.081 1468.07 822.005 1469.09 818.04C1469.26 817.303 1470.17 813.678 1470.39 812.941C1470.51 812.488 1473.85 807.446 1477.7 807.446C1480.19 807.446 1481.33 809.939 1481.33 812.885C1481.33 815.604 1479.74 822.005 1478.32 824.951C1476.91 828.01 1474.3 830.729 1471.7 830.729Z" fill="black"/>
<path id="Vector_17" d="M1509.97 794.084C1509.97 792.913 1509.63 791.213 1508.16 791.213C1507.14 791.213 1506.16 792.158 1506.16 793.215C1506.16 793.781 1506.57 794.121 1506.99 794.499C1507.55 795.065 1508.12 796.047 1508.12 797.445C1508.12 799.975 1505.51 805.338 1501.74 805.338C1499.77 805.338 1498.41 804.167 1497.96 802.354C1498.57 801.07 1499.36 798.993 1499.36 797.936C1499.36 797.294 1499.06 796.803 1498.34 796.803C1496.64 796.803 1496.41 800.995 1496.41 802.203C1495.09 803.789 1493.54 805.338 1491.35 805.338C1488.94 805.338 1487.8 803.412 1487.8 801.183C1487.8 799.409 1488.29 797.822 1489.05 796.35C1490.14 794.159 1491.62 792.724 1491.62 792.12C1491.62 791.704 1491.28 791.402 1490.86 791.402C1490.14 791.402 1489.58 792.497 1489.16 793.177C1487.54 795.859 1486.37 799.371 1486.37 802.505C1486.37 805.413 1487.46 808.246 1490.79 808.246C1494.03 808.246 1495.88 805.64 1496.71 804.582C1497.28 806.66 1498.83 808.283 1501.13 808.283C1504.23 808.283 1505.78 806.282 1507.33 803.676C1508.54 801.674 1509.97 796.463 1509.97 794.084Z" fill="black"/>
</g>
</g>
</g>
<defs>
<filter id="filter0_d_6_104" x="620.608" y="793.802" width="150.528" height="36.5742" filterUnits="userSpaceOnUse" color-interpolation-filters="sRGB">
<feFlood flood-opacity="0" result="BackgroundImageFix"/>
<feColorMatrix in="SourceAlpha" type="matrix" values="0 0 0 0 0 0 0 0 0 0 0 0 0 0 0 0 0 0 127 0" result="hardAlpha"/>
<feOffset dy="3.584"/>
<feGaussianBlur stdDeviation="1.792"/>
<feComposite in2="hardAlpha" operator="out"/>
<feColorMatrix type="matrix" values="0 0 0 0 0 0 0 0 0 0 0 0 0 0 0 0 0 0 0.25 0"/>
<feBlend mode="normal" in2="BackgroundImageFix" result="effect1_dropShadow_6_104"/>
<feBlend mode="normal" in="SourceGraphic" in2="effect1_dropShadow_6_104" result="shape"/>
</filter>
<filter id="filter1_d_6_104" x="619.265" y="889.064" width="150.528" height="36.5742" filterUnits="userSpaceOnUse" color-interpolation-filters="sRGB">
<feFlood flood-opacity="0" result="BackgroundImageFix"/>
<feColorMatrix in="SourceAlpha" type="matrix" values="0 0 0 0 0 0 0 0 0 0 0 0 0 0 0 0 0 0 127 0" result="hardAlpha"/>
<feOffset dy="3.584"/>
<feGaussianBlur stdDeviation="1.792"/>
<feComposite in2="hardAlpha" operator="out"/>
<feColorMatrix type="matrix" values="0 0 0 0 0 0 0 0 0 0 0 0 0 0 0 0 0 0 0.25 0"/>
<feBlend mode="normal" in2="BackgroundImageFix" result="effect1_dropShadow_6_104"/>
<feBlend mode="normal" in="SourceGraphic" in2="effect1_dropShadow_6_104" result="shape"/>
</filter>
<clipPath id="clip0_6_104">
<rect width="181.131" height="55.2389" fill="white" transform="translate(999.208 396.733)"/>
</clipPath>
<clipPath id="clip1_6_104">
<rect width="499.161" height="56.705" fill="white" transform="translate(1010.81 788.808)"/>
</clipPath>
</defs>
</svg>
