<svg width="1920" height="1080" viewBox="0 0 1920 1080" fill="none" xmlns="http://www.w3.org/2000/svg">
<g id="Union">
<rect width="1920" height="1080" fill="white"/>
<g id="\mathcal{A}_\psi" clip-path="url(#clip0_36_369)">
<g id="page1">
<path id="Vector" d="M768.399 867.323C768.937 874.109 770.23 879.064 770.768 881.111C771.953 885.958 772.492 888.327 777.123 888.327C781.971 888.327 790.265 883.48 790.265 881.326C790.265 880.787 789.834 880.572 789.295 880.572C787.895 880.572 785.633 881.757 785.31 881.972C784.556 882.403 784.34 882.403 784.125 882.403C781.109 882.403 780.463 879.495 779.17 873.032C778.416 869.477 777.447 865.169 776.585 850.412C775.831 839.425 775.4 828.438 775.4 817.451C775.4 814.866 775.508 812.066 775.508 809.48C775.508 807.757 775.508 807.326 774.323 807.326C772.815 807.326 768.399 809.157 766.46 812.066L765.706 813.25C757.196 831.454 749.225 844.488 743.624 853.213C737.269 863.015 726.067 880.572 720.25 880.572C716.265 880.572 712.926 877.987 711.956 874.109C711.849 873.894 711.633 873.247 711.202 873.247C709.587 873.247 707.217 878.418 707.217 881.434C707.217 885.742 711.849 890.482 716.911 890.482C724.343 890.482 736.731 871.093 739.1 867.323H768.399ZM766.244 820.575V826.822C766.244 833.07 766.46 839.317 766.783 845.565C766.891 847.719 767.321 855.798 767.86 861.399H748.148C746.425 861.399 744.809 861.399 742.009 863.122C749.549 851.489 755.796 840.287 756.442 839.102C761.828 829.515 764.736 823.268 766.137 820.575H766.244Z" fill="black"/>
<path id="Vector_2" d="M826.792 853.786C827.079 852.78 827.079 852.637 827.079 852.35C827.079 851.631 826.576 851.416 826.002 851.416C825.068 851.416 824.997 851.703 824.709 852.924L813.004 899.816C807.906 899.241 804.387 897.015 804.387 891.917C804.387 890.552 804.387 888.685 808.193 879.135C808.911 877.196 808.983 876.549 808.983 875.688C808.983 871.81 805.823 869.584 802.52 869.584C795.411 869.584 792.467 879.709 792.467 880.571C792.467 881.217 792.969 881.504 793.544 881.504C794.477 881.504 794.549 881.073 794.765 880.355C796.632 874.108 799.72 871.595 802.305 871.595C803.382 871.595 804.028 872.313 804.028 873.964C804.028 875.616 803.382 877.339 802.736 878.847C799.073 888.398 799.073 889.906 799.073 891.414C799.073 898.236 804.962 901.324 812.43 901.826L809.198 914.968C809.198 915.614 809.701 915.901 810.276 915.901C811.209 915.901 811.281 915.614 811.712 914.106C812.071 912.526 811.784 913.531 814.728 901.97C817.672 901.97 823.201 901.97 830.239 895.292C833.111 892.635 834.763 889.691 835.337 888.685C837.707 883.946 838.712 877.698 838.712 875.113C838.712 869.512 835.481 869.512 835.194 869.512C833.47 869.512 831.459 871.379 831.459 873.246C831.459 874.395 832.106 874.97 832.465 875.257C833.183 875.903 835.337 877.77 835.337 881.217C835.337 887.177 827.223 899.959 815.23 899.959L826.792 853.786Z" fill="black"/>
</g>
</g>
<g id="\mathcal{A}_\varphi" clip-path="url(#clip1_36_369)">
<g id="page1_2">
<path id="Vector_3" d="M766.399 640.325C766.937 647.111 768.23 652.066 768.768 654.113C769.953 658.96 770.492 661.329 775.123 661.329C779.971 661.329 788.265 656.482 788.265 654.328C788.265 653.789 787.834 653.574 787.295 653.574C785.895 653.574 783.633 654.759 783.31 654.974C782.556 655.405 782.34 655.405 782.125 655.405C779.109 655.405 778.463 652.497 777.17 646.034C776.416 642.479 775.447 638.171 774.585 623.414C773.831 612.427 773.4 601.44 773.4 590.453C773.4 587.868 773.508 585.068 773.508 582.482C773.508 580.759 773.508 580.328 772.323 580.328C770.815 580.328 766.399 582.159 764.46 585.068L763.706 586.252C755.196 604.456 747.225 617.49 741.624 626.214C735.269 636.017 724.067 653.574 718.25 653.574C714.265 653.574 710.926 650.989 709.956 647.111C709.849 646.896 709.633 646.249 709.202 646.249C707.587 646.249 705.217 651.42 705.217 654.436C705.217 658.744 709.849 663.484 714.911 663.484C722.343 663.484 734.731 644.095 737.1 640.325H766.399ZM764.244 593.577V599.824C764.244 606.072 764.46 612.319 764.783 618.567C764.891 620.721 765.321 628.8 765.86 634.401H746.148C744.425 634.401 742.809 634.401 740.009 636.124C747.549 624.491 753.796 613.289 754.442 612.104C759.828 602.517 762.736 596.27 764.137 593.577H764.244Z" fill="black"/>
<path id="Vector_4" d="M808.85 674.9C809.64 674.972 810.501 674.972 811.291 674.972C823.93 674.972 835.348 663.985 835.348 652.855C835.348 647.613 832.475 642.586 826.371 642.586C821.273 642.586 817.252 646.105 814.307 650.772C811.148 655.871 809.712 660.467 806.767 669.802C798.94 668.653 794.273 664.919 794.273 659.677C794.273 658.097 795.781 650.27 800.089 645.53C800.951 644.597 800.951 644.453 800.951 644.166C800.951 644.094 800.951 643.304 799.874 643.304C797.36 643.304 791.975 654.075 791.975 660.395C791.975 665.78 795.134 671.812 805.259 674.326L803.105 681.076C801.741 685.456 801.166 687.108 801.166 687.611C801.166 689.334 802.746 689.837 803.536 689.837C804.11 689.837 806.121 689.549 806.696 687.036C807.198 684.523 808.347 678.06 808.85 674.9ZM809.783 670.161C811.148 661.903 811.866 657.738 815.959 652.711C819.334 648.546 822.853 647.325 825.653 647.325C830.106 647.325 832.906 650.413 832.906 654.363C832.906 661.903 823.786 670.233 812.009 670.233C811.363 670.233 810.43 670.233 809.783 670.161Z" fill="black"/>
</g>
</g>
<path id="Vector 118" d="M600.217 619.826H597.717V624.826H600.217V622.326V619.826ZM672.485 624.094C673.461 623.118 673.461 621.535 672.485 620.558L656.575 604.649C655.598 603.672 654.015 603.672 653.039 604.649C652.063 605.625 652.063 607.208 653.039 608.184L667.181 622.326L653.039 636.468C652.063 637.445 652.063 639.028 653.039 640.004C654.015 640.98 655.598 640.98 656.575 640.004L672.485 624.094ZM600.217 622.326V624.826H670.717V622.326V619.826H600.217V622.326Z" fill="black"/>
<path id="Vector 119" d="M600.217 848.826H597.717V853.826H600.217V851.326V848.826ZM672.485 853.094C673.461 852.118 673.461 850.535 672.485 849.558L656.575 833.649C655.598 832.672 654.015 832.672 653.039 833.649C652.063 834.625 652.063 836.208 653.039 837.184L667.181 851.326L653.039 865.468C652.063 866.445 652.063 868.028 653.039 869.004C654.015 869.98 655.598 869.98 656.575 869.004L672.485 853.094ZM600.217 851.326V853.826H670.717V851.326V848.826H600.217V851.326Z" fill="black"/>
<path id="both are initial (non-determinism)" d="M1025.4 726.648C1025.07 726.648 1024.55 726.556 1023.84 726.372C1023.17 726.219 1022.58 726.081 1022.09 725.958C1022 725.928 1021.88 725.897 1021.72 725.866C1021.33 725.744 1020.91 725.652 1020.48 725.59C1020.05 725.498 1019.62 725.529 1019.19 725.682C1019.07 725.682 1018.93 725.56 1018.78 725.314C1018.66 725.038 1018.6 724.839 1018.6 724.716C1018.81 724.256 1018.95 723.704 1019.01 723.06C1019.1 722.416 1019.15 721.864 1019.15 721.404V701.256C1019.15 700.95 1019.13 700.551 1019.1 700.06C1019.1 699.57 1019.04 699.186 1018.92 698.91C1018.8 698.573 1018.46 698.358 1017.91 698.266C1017.35 698.174 1016.77 698.128 1016.16 698.128C1016.13 698.128 1016.1 697.944 1016.07 697.576C1016.07 697.178 1016.11 696.963 1016.2 696.932C1017.34 696.81 1018.44 696.595 1019.52 696.288C1020.62 695.951 1021.65 695.568 1022.6 695.138C1022.72 695.138 1022.83 695.23 1022.92 695.414C1023.04 695.568 1023.1 695.721 1023.1 695.874C1023.1 695.874 1023.01 696.212 1022.83 696.886C1022.68 697.561 1022.6 698.527 1022.6 699.784V708.616C1022.6 708.739 1022.61 708.877 1022.64 709.03C1022.68 709.184 1022.75 709.199 1022.87 709.076C1023.12 708.892 1023.56 708.616 1024.21 708.248C1024.85 707.85 1025.56 707.482 1026.32 707.144C1027.09 706.807 1027.75 706.638 1028.3 706.638C1029.65 706.638 1030.83 706.93 1031.84 707.512C1032.89 708.064 1033.75 708.8 1034.42 709.72C1035.13 710.61 1035.65 711.606 1035.98 712.71C1036.35 713.784 1036.54 714.826 1036.54 715.838C1036.54 717.801 1036.05 719.61 1035.06 721.266C1034.11 722.892 1032.8 724.195 1031.11 725.176C1029.45 726.158 1027.55 726.648 1025.4 726.648ZM1026.14 709.306C1025.56 709.306 1024.91 709.46 1024.21 709.766C1023.5 710.042 1023.04 710.288 1022.83 710.502C1022.68 710.656 1022.6 710.824 1022.6 711.008V721.91C1022.6 722.554 1022.81 723.122 1023.24 723.612C1023.67 724.103 1024.21 724.486 1024.85 724.762C1025.5 725.008 1026.14 725.13 1026.78 725.13C1027.86 725.13 1028.84 724.762 1029.73 724.026C1030.65 723.26 1031.38 722.309 1031.94 721.174C1032.49 720.009 1032.76 718.828 1032.76 717.632C1032.76 715.026 1032.15 712.986 1030.92 711.514C1029.73 710.042 1028.13 709.306 1026.14 709.306ZM1049.71 706.592C1051.7 706.592 1053.4 707.022 1054.81 707.88C1056.26 708.739 1057.36 709.904 1058.13 711.376C1058.92 712.848 1059.32 714.52 1059.32 716.39C1059.32 718.322 1058.91 720.07 1058.08 721.634C1057.25 723.168 1056.12 724.394 1054.68 725.314C1053.23 726.204 1051.61 726.648 1049.8 726.648C1047.84 726.648 1046.12 726.219 1044.65 725.36C1043.21 724.471 1042.09 723.29 1041.29 721.818C1040.52 720.316 1040.14 718.629 1040.14 716.758C1040.14 714.826 1040.55 713.094 1041.38 711.56C1042.24 710.027 1043.39 708.816 1044.83 707.926C1046.27 707.037 1047.9 706.592 1049.71 706.592ZM1049.2 708.11C1047.94 708.11 1046.93 708.494 1046.17 709.26C1045.4 709.996 1044.85 710.962 1044.51 712.158C1044.17 713.324 1044 714.55 1044 715.838C1044 717.28 1044.23 718.721 1044.69 720.162C1045.18 721.604 1045.89 722.8 1046.81 723.75C1047.76 724.701 1048.91 725.176 1050.26 725.176C1051.55 725.176 1052.56 724.808 1053.3 724.072C1054.06 723.306 1054.61 722.324 1054.95 721.128C1055.29 719.932 1055.46 718.706 1055.46 717.448C1055.46 715.976 1055.21 714.535 1054.72 713.124C1054.23 711.683 1053.53 710.487 1052.61 709.536C1051.69 708.586 1050.55 708.11 1049.2 708.11ZM1068.34 706.914H1074.14C1074.29 706.914 1074.37 707.083 1074.37 707.42C1074.37 707.88 1074.15 708.325 1073.72 708.754H1068.34V720.53C1068.34 722.984 1069.34 724.21 1071.33 724.21C1072.01 724.21 1072.62 724.072 1073.17 723.796C1073.72 723.52 1074.08 723.321 1074.23 723.198C1074.32 723.229 1074.37 723.321 1074.37 723.474C1074.37 723.812 1074.31 724.042 1074.18 724.164C1073.97 724.41 1073.63 724.732 1073.17 725.13C1072.74 725.529 1072.22 725.882 1071.61 726.188C1070.99 726.495 1070.32 726.648 1069.58 726.648C1068.82 726.648 1068.07 726.51 1067.33 726.234C1066.62 725.958 1066.04 725.468 1065.58 724.762C1065.12 724.057 1064.89 723.06 1064.89 721.772V708.754H1062.27C1062.21 708.754 1062.16 708.708 1062.13 708.616C1062.1 708.494 1062.09 708.402 1062.09 708.34C1062.09 708.279 1062.18 708.141 1062.36 707.926C1062.55 707.681 1062.73 707.451 1062.91 707.236C1063.13 707.022 1063.24 706.914 1063.24 706.914H1064.89V704.108C1065.2 703.771 1065.55 703.388 1065.95 702.958C1066.38 702.498 1066.76 702.084 1067.1 701.716C1067.44 701.318 1067.62 701.103 1067.65 701.072C1067.77 700.95 1067.91 700.888 1068.07 700.888C1068.25 700.888 1068.34 700.934 1068.34 701.026V706.914ZM1088.89 706.638C1090.52 706.638 1091.74 706.976 1092.57 707.65C1093.4 708.325 1093.95 709.368 1094.23 710.778C1094.53 712.189 1094.69 713.983 1094.69 716.16V721.128C1094.69 721.803 1094.69 722.432 1094.69 723.014C1094.72 723.597 1094.79 724.072 1094.92 724.44C1094.98 724.594 1095.19 724.732 1095.56 724.854C1095.96 724.977 1096.37 725.069 1096.8 725.13C1097.26 725.161 1097.58 725.176 1097.77 725.176C1097.86 725.299 1097.91 725.514 1097.91 725.82C1097.94 726.127 1097.89 726.342 1097.77 726.464C1096.85 726.403 1096.04 726.357 1095.33 726.326C1094.63 726.265 1093.83 726.234 1092.94 726.234C1092.08 726.234 1091.3 726.265 1090.59 726.326C1089.92 726.357 1089.12 726.403 1088.2 726.464C1088.08 726.342 1088.02 726.127 1088.02 725.82C1088.05 725.514 1088.11 725.299 1088.2 725.176C1088.38 725.176 1088.69 725.161 1089.12 725.13C1089.55 725.069 1089.96 724.977 1090.36 724.854C1090.76 724.732 1090.98 724.594 1091.01 724.44C1091.13 724.072 1091.19 723.597 1091.19 723.014C1091.22 722.432 1091.24 721.803 1091.24 721.128V716.62C1091.24 714.75 1091.11 713.293 1090.87 712.25C1090.62 711.177 1090.18 710.41 1089.53 709.95C1088.89 709.49 1087.99 709.26 1086.82 709.26C1086.27 709.26 1085.66 709.444 1084.98 709.812C1084.34 710.15 1083.77 710.518 1083.28 710.916C1082.79 711.315 1082.54 711.591 1082.54 711.744V721.128C1082.54 721.803 1082.54 722.432 1082.54 723.014C1082.57 723.597 1082.65 724.072 1082.77 724.44C1082.83 724.594 1083.05 724.732 1083.42 724.854C1083.82 724.977 1084.23 725.069 1084.66 725.13C1085.12 725.161 1085.44 725.176 1085.62 725.176C1085.72 725.299 1085.76 725.514 1085.76 725.82C1085.79 726.127 1085.75 726.342 1085.62 726.464C1084.7 726.403 1083.89 726.357 1083.19 726.326C1082.48 726.265 1081.68 726.234 1080.79 726.234C1079.94 726.234 1079.15 726.265 1078.45 726.326C1077.77 726.357 1076.98 726.403 1076.06 726.464C1075.93 726.342 1075.87 726.127 1075.87 725.82C1075.9 725.514 1075.96 725.299 1076.06 725.176C1076.24 725.176 1076.55 725.161 1076.98 725.13C1077.41 725.069 1077.82 724.977 1078.22 724.854C1078.62 724.732 1078.83 724.594 1078.86 724.44C1078.99 724.072 1079.05 723.597 1079.05 723.014C1079.08 722.432 1079.09 721.803 1079.09 721.128V701.256C1079.09 700.95 1079.08 700.551 1079.05 700.06C1079.05 699.57 1078.99 699.186 1078.86 698.91C1078.74 698.573 1078.4 698.358 1077.85 698.266C1077.33 698.174 1076.76 698.128 1076.15 698.128C1076.12 698.128 1076.09 697.944 1076.06 697.576C1076.06 697.178 1076.1 696.963 1076.19 696.932C1077.33 696.81 1078.43 696.595 1079.51 696.288C1080.58 695.951 1081.59 695.568 1082.54 695.138C1082.67 695.138 1082.77 695.23 1082.86 695.414C1082.99 695.568 1083.05 695.721 1083.05 695.874C1083.05 695.874 1082.96 696.212 1082.77 696.886C1082.62 697.561 1082.54 698.527 1082.54 699.784V709.95C1082.54 710.012 1082.59 710.042 1082.68 710.042C1082.71 710.042 1082.76 710.012 1082.82 709.95C1083.13 709.613 1083.62 709.184 1084.29 708.662C1085 708.141 1085.76 707.681 1086.59 707.282C1087.42 706.853 1088.19 706.638 1088.89 706.638ZM1122.47 706.73C1123.33 706.73 1124.12 707.006 1124.86 707.558C1125.63 708.11 1126.24 708.846 1126.7 709.766C1127.16 710.686 1127.39 711.729 1127.39 712.894V722.14C1127.39 722.723 1127.5 723.229 1127.71 723.658C1127.93 724.057 1128.28 724.256 1128.77 724.256C1129.2 724.256 1129.54 724.164 1129.78 723.98C1130.03 723.796 1130.18 723.689 1130.24 723.658C1130.3 723.658 1130.35 723.704 1130.38 723.796C1130.41 723.888 1130.43 723.965 1130.43 724.026C1130.43 724.364 1130.35 724.655 1130.2 724.9C1130.01 725.054 1129.7 725.268 1129.28 725.544C1128.88 725.82 1128.45 726.066 1127.99 726.28C1127.56 726.495 1127.17 726.602 1126.84 726.602C1126.19 726.602 1125.61 726.28 1125.09 725.636C1124.6 724.992 1124.28 724.333 1124.12 723.658C1124 723.781 1123.71 724.011 1123.25 724.348C1122.82 724.686 1122.31 725.038 1121.73 725.406C1121.15 725.744 1120.57 726.05 1119.98 726.326C1119.43 726.572 1118.96 726.694 1118.56 726.694C1117.09 726.694 1115.84 726.204 1114.83 725.222C1113.82 724.21 1113.31 722.984 1113.31 721.542C1113.31 720.622 1113.56 719.84 1114.05 719.196C1114.57 718.522 1115.08 718.092 1115.57 717.908C1116.43 717.602 1117.38 717.28 1118.42 716.942C1119.49 716.574 1120.49 716.222 1121.41 715.884C1122.33 715.547 1123 715.286 1123.43 715.102C1123.68 715.01 1123.83 714.903 1123.89 714.78C1123.95 714.627 1123.99 714.351 1123.99 713.952V712.756C1123.99 712.082 1123.82 711.422 1123.48 710.778C1123.14 710.104 1122.68 709.552 1122.1 709.122C1121.52 708.662 1120.86 708.432 1120.12 708.432C1119.35 708.432 1118.79 708.678 1118.42 709.168C1118.05 709.659 1117.79 710.349 1117.64 711.238C1117.36 712.68 1116.66 713.4 1115.52 713.4C1115.03 713.4 1114.65 713.201 1114.37 712.802C1114.13 712.404 1114 711.974 1114 711.514C1114 711.422 1114.03 711.254 1114.1 711.008C1114.16 710.732 1114.23 710.533 1114.33 710.41C1114.79 709.981 1115.44 709.475 1116.3 708.892C1117.16 708.31 1118.13 707.804 1119.2 707.374C1120.31 706.945 1121.39 706.73 1122.47 706.73ZM1120.08 724.256C1120.6 724.256 1121.16 724.134 1121.78 723.888C1122.39 723.643 1122.91 723.382 1123.34 723.106C1123.77 722.8 1123.99 722.57 1123.99 722.416V716.298C1123.4 716.482 1122.67 716.712 1121.78 716.988C1120.89 717.264 1120.23 717.479 1119.8 717.632C1119 717.939 1118.34 718.384 1117.82 718.966C1117.3 719.549 1117.04 720.27 1117.04 721.128C1117.04 721.956 1117.33 722.692 1117.91 723.336C1118.5 723.95 1119.22 724.256 1120.08 724.256ZM1144.59 706.684C1145.17 706.684 1145.72 706.822 1146.25 707.098C1146.77 707.344 1147.13 707.65 1147.35 708.018C1147.41 708.141 1147.46 708.31 1147.49 708.524C1147.52 708.739 1147.53 708.969 1147.53 709.214C1147.53 710.042 1147.33 710.64 1146.94 711.008C1146.57 711.376 1146.26 711.56 1146.02 711.56C1145.71 711.56 1145.42 711.453 1145.14 711.238C1144.87 711.024 1144.6 710.84 1144.36 710.686C1144.14 710.533 1143.91 710.41 1143.67 710.318C1143.45 710.196 1143.13 710.134 1142.7 710.134C1142.06 710.134 1141.46 710.41 1140.91 710.962C1140.39 711.484 1139.96 712.066 1139.62 712.71C1139.28 713.354 1139.12 713.845 1139.12 714.182V721.128C1139.12 721.803 1139.12 722.432 1139.12 723.014C1139.15 723.597 1139.22 724.072 1139.35 724.44C1139.41 724.594 1139.71 724.732 1140.27 724.854C1140.82 724.977 1141.4 725.069 1142.01 725.13C1142.63 725.161 1143.03 725.176 1143.21 725.176C1143.3 725.299 1143.35 725.514 1143.35 725.82C1143.38 726.127 1143.33 726.342 1143.21 726.464C1142.29 726.403 1141.35 726.357 1140.4 726.326C1139.45 726.265 1138.53 726.234 1137.64 726.234C1136.78 726.234 1135.96 726.265 1135.16 726.326C1134.36 726.357 1133.5 726.403 1132.58 726.464C1132.46 726.342 1132.4 726.127 1132.4 725.82C1132.43 725.514 1132.49 725.299 1132.58 725.176C1132.77 725.176 1133.07 725.161 1133.5 725.13C1133.96 725.069 1134.39 724.977 1134.79 724.854C1135.19 724.732 1135.4 724.594 1135.44 724.44C1135.56 724.072 1135.62 723.597 1135.62 723.014C1135.65 722.432 1135.67 721.803 1135.67 721.128V712.756C1135.67 712.45 1135.65 712.051 1135.62 711.56C1135.62 711.07 1135.56 710.686 1135.44 710.41C1135.34 710.134 1135.08 709.95 1134.65 709.858C1134.22 709.736 1133.79 709.674 1133.37 709.674C1132.94 709.644 1132.66 709.628 1132.54 709.628C1132.51 709.567 1132.48 709.383 1132.45 709.076C1132.41 708.77 1132.45 708.555 1132.54 708.432C1133.7 708.279 1134.84 708.049 1135.94 707.742C1137.05 707.436 1138.04 707.037 1138.93 706.546C1139.05 706.546 1139.16 706.638 1139.25 706.822C1139.38 707.006 1139.44 707.16 1139.44 707.282C1139.44 707.374 1139.41 707.727 1139.35 708.34C1139.28 708.954 1139.22 709.582 1139.16 710.226C1139.13 710.84 1139.12 711.238 1139.12 711.422C1139.12 711.514 1139.13 711.56 1139.16 711.56C1139.22 711.56 1139.27 711.545 1139.3 711.514C1139.61 710.87 1140.04 710.18 1140.59 709.444C1141.17 708.678 1141.81 708.034 1142.52 707.512C1143.22 706.96 1143.91 706.684 1144.59 706.684ZM1152.97 715.194C1152.94 717.096 1153.26 718.69 1153.93 719.978C1154.61 721.266 1155.51 722.232 1156.65 722.876C1157.78 723.49 1159.01 723.796 1160.33 723.796C1161.16 723.796 1161.91 723.658 1162.58 723.382C1163.26 723.076 1163.82 722.738 1164.28 722.37C1164.74 721.972 1165.07 721.665 1165.25 721.45C1165.28 721.45 1165.34 721.512 1165.43 721.634C1165.56 721.726 1165.62 721.864 1165.62 722.048C1165.62 722.294 1165.53 722.57 1165.34 722.876C1165.07 723.306 1164.64 723.827 1164.05 724.44C1163.47 725.023 1162.73 725.544 1161.85 726.004C1160.96 726.464 1159.93 726.694 1158.76 726.694C1157.02 726.694 1155.47 726.28 1154.12 725.452C1152.77 724.624 1151.71 723.505 1150.94 722.094C1150.18 720.684 1149.79 719.104 1149.79 717.356C1149.79 715.854 1150.05 714.458 1150.58 713.17C1151.13 711.852 1151.83 710.717 1152.69 709.766C1153.58 708.785 1154.55 708.018 1155.59 707.466C1156.63 706.914 1157.64 706.638 1158.63 706.638C1159.97 706.638 1161.08 706.868 1161.94 707.328C1162.83 707.788 1163.52 708.356 1164.01 709.03C1164.53 709.705 1164.88 710.38 1165.07 711.054C1165.28 711.729 1165.39 712.296 1165.39 712.756C1165.39 713.4 1165.31 713.906 1165.16 714.274C1165 714.642 1164.71 714.842 1164.28 714.872C1164.01 714.903 1163.46 714.934 1162.63 714.964C1161.83 714.964 1160.91 714.98 1159.87 715.01C1158.82 715.041 1157.8 715.072 1156.79 715.102C1155.77 715.133 1154.91 715.164 1154.21 715.194C1153.5 715.194 1153.09 715.194 1152.97 715.194ZM1153.2 713.538H1160.51C1160.79 713.538 1161.02 713.462 1161.2 713.308C1161.42 713.155 1161.54 712.879 1161.57 712.48C1161.6 712.112 1161.49 711.591 1161.25 710.916C1161 710.242 1160.6 709.628 1160.05 709.076C1159.53 708.524 1158.81 708.248 1157.89 708.248C1156.94 708.248 1156.16 708.524 1155.54 709.076C1154.93 709.598 1154.44 710.211 1154.07 710.916C1153.73 711.591 1153.49 712.204 1153.34 712.756C1153.21 713.278 1153.17 713.538 1153.2 713.538ZM1184.52 699.692C1184.52 699.079 1184.73 698.558 1185.16 698.128C1185.62 697.668 1186.16 697.438 1186.77 697.438C1187.39 697.438 1187.91 697.668 1188.34 698.128C1188.8 698.558 1189.03 699.079 1189.03 699.692C1189.03 700.306 1188.8 700.842 1188.34 701.302C1187.91 701.732 1187.39 701.946 1186.77 701.946C1186.16 701.946 1185.62 701.732 1185.16 701.302C1184.73 700.842 1184.52 700.306 1184.52 699.692ZM1188.84 721.128C1188.84 721.803 1188.84 722.432 1188.84 723.014C1188.87 723.597 1188.95 724.072 1189.07 724.44C1189.14 724.594 1189.35 724.732 1189.72 724.854C1190.12 724.977 1190.53 725.069 1190.96 725.13C1191.39 725.161 1191.7 725.176 1191.88 725.176C1191.97 725.299 1192.02 725.514 1192.02 725.82C1192.05 726.127 1192 726.342 1191.88 726.464C1190.96 726.403 1190.15 726.357 1189.44 726.326C1188.77 726.265 1187.99 726.234 1187.1 726.234C1186.24 726.234 1185.46 726.265 1184.75 726.326C1184.04 726.357 1183.23 726.403 1182.31 726.464C1182.19 726.342 1182.13 726.127 1182.13 725.82C1182.16 725.514 1182.22 725.299 1182.31 725.176C1182.5 725.176 1182.8 725.161 1183.23 725.13C1183.69 725.069 1184.12 724.977 1184.52 724.854C1184.92 724.732 1185.13 724.594 1185.16 724.44C1185.29 724.072 1185.35 723.597 1185.35 723.014C1185.38 722.432 1185.39 721.803 1185.39 721.128V712.756C1185.39 712.45 1185.38 712.051 1185.35 711.56C1185.35 711.07 1185.29 710.686 1185.16 710.41C1185.07 710.134 1184.81 709.95 1184.38 709.858C1183.95 709.736 1183.52 709.674 1183.09 709.674C1182.66 709.644 1182.39 709.628 1182.27 709.628C1182.24 709.567 1182.2 709.383 1182.17 709.076C1182.14 708.77 1182.17 708.555 1182.27 708.432C1183.43 708.279 1184.57 708.049 1185.67 707.742C1186.77 707.436 1187.77 707.037 1188.66 706.546C1188.78 706.546 1188.89 706.638 1188.98 706.822C1189.1 707.006 1189.17 707.16 1189.17 707.282C1189.17 707.374 1189.14 707.635 1189.07 708.064C1189.01 708.494 1188.95 708.923 1188.89 709.352C1188.86 709.782 1188.84 710.073 1188.84 710.226V721.128ZM1207.28 706.638C1208.9 706.638 1210.13 706.976 1210.96 707.65C1211.78 708.325 1212.34 709.368 1212.61 710.778C1212.92 712.189 1213.07 713.983 1213.07 716.16V721.128C1213.07 721.803 1213.07 722.432 1213.07 723.014C1213.1 723.597 1213.18 724.072 1213.3 724.44C1213.36 724.594 1213.58 724.732 1213.95 724.854C1214.34 724.977 1214.76 725.069 1215.19 725.13C1215.62 725.161 1215.92 725.176 1216.11 725.176C1216.2 725.299 1216.25 725.514 1216.25 725.82C1216.28 726.127 1216.23 726.342 1216.11 726.464C1215.19 726.403 1214.38 726.357 1213.67 726.326C1213 726.265 1212.21 726.234 1211.32 726.234C1210.47 726.234 1209.68 726.265 1208.98 726.326C1208.27 726.357 1207.46 726.403 1206.54 726.464C1206.42 726.342 1206.36 726.127 1206.36 725.82C1206.39 725.514 1206.45 725.299 1206.54 725.176C1206.72 725.176 1207.03 725.161 1207.46 725.13C1207.92 725.069 1208.35 724.977 1208.75 724.854C1209.15 724.732 1209.36 724.594 1209.39 724.44C1209.51 724.072 1209.58 723.597 1209.58 723.014C1209.61 722.432 1209.62 721.803 1209.62 721.128V716.62C1209.62 714.75 1209.5 713.293 1209.25 712.25C1209.01 711.177 1208.56 710.41 1207.92 709.95C1207.28 709.49 1206.37 709.26 1205.21 709.26C1204.65 709.26 1204.04 709.444 1203.37 709.812C1202.72 710.15 1202.15 710.518 1201.66 710.916C1201.17 711.315 1200.93 711.591 1200.93 711.744V721.128C1200.93 721.803 1200.93 722.432 1200.93 723.014C1200.96 723.597 1201.04 724.072 1201.16 724.44C1201.22 724.594 1201.43 724.732 1201.8 724.854C1202.2 724.977 1202.61 725.069 1203.04 725.13C1203.47 725.161 1203.78 725.176 1203.96 725.176C1204.06 725.299 1204.1 725.514 1204.1 725.82C1204.13 726.127 1204.09 726.342 1203.96 726.464C1203.04 726.403 1202.23 726.357 1201.53 726.326C1200.85 726.265 1200.07 726.234 1199.18 726.234C1198.32 726.234 1197.54 726.265 1196.83 726.326C1196.13 726.357 1195.32 726.403 1194.4 726.464C1194.27 726.342 1194.21 726.127 1194.21 725.82C1194.24 725.514 1194.3 725.299 1194.4 725.176C1194.58 725.176 1194.89 725.161 1195.32 725.13C1195.78 725.069 1196.21 724.977 1196.6 724.854C1197 724.732 1197.22 724.594 1197.25 724.44C1197.37 724.072 1197.43 723.597 1197.43 723.014C1197.46 722.432 1197.48 721.803 1197.48 721.128V712.94C1197.48 712.634 1197.46 712.204 1197.43 711.652C1197.43 711.1 1197.37 710.686 1197.25 710.41C1197.16 710.134 1196.9 709.95 1196.47 709.858C1196.04 709.736 1195.61 709.674 1195.18 709.674C1194.75 709.644 1194.47 709.628 1194.35 709.628C1194.32 709.567 1194.29 709.383 1194.26 709.076C1194.23 708.77 1194.26 708.555 1194.35 708.432C1195.52 708.279 1196.65 708.049 1197.75 707.742C1198.86 707.436 1199.85 707.037 1200.74 706.546C1200.87 706.546 1200.97 706.638 1201.07 706.822C1201.19 707.006 1201.25 707.16 1201.25 707.282C1201.25 707.374 1201.22 707.62 1201.16 708.018C1201.13 708.386 1201.08 708.754 1201.02 709.122C1200.99 709.49 1200.97 709.736 1200.97 709.858C1200.97 709.981 1201 710.042 1201.07 710.042C1201.1 710.042 1201.14 710.012 1201.2 709.95C1201.51 709.613 1202 709.184 1202.68 708.662C1203.38 708.141 1204.15 707.681 1204.98 707.282C1205.8 706.853 1206.57 706.638 1207.28 706.638ZM1220.46 699.692C1220.46 699.079 1220.67 698.558 1221.1 698.128C1221.56 697.668 1222.1 697.438 1222.71 697.438C1223.32 697.438 1223.85 697.668 1224.28 698.128C1224.74 698.558 1224.97 699.079 1224.97 699.692C1224.97 700.306 1224.74 700.842 1224.28 701.302C1223.85 701.732 1223.32 701.946 1222.71 701.946C1222.1 701.946 1221.56 701.732 1221.1 701.302C1220.67 700.842 1220.46 700.306 1220.46 699.692ZM1224.78 721.128C1224.78 721.803 1224.78 722.432 1224.78 723.014C1224.81 723.597 1224.89 724.072 1225.01 724.44C1225.07 724.594 1225.29 724.732 1225.66 724.854C1226.05 724.977 1226.47 725.069 1226.9 725.13C1227.33 725.161 1227.63 725.176 1227.82 725.176C1227.91 725.299 1227.96 725.514 1227.96 725.82C1227.99 726.127 1227.94 726.342 1227.82 726.464C1226.9 726.403 1226.08 726.357 1225.38 726.326C1224.7 726.265 1223.92 726.234 1223.03 726.234C1222.17 726.234 1221.39 726.265 1220.69 726.326C1219.98 726.357 1219.17 726.403 1218.25 726.464C1218.13 726.342 1218.07 726.127 1218.07 725.82C1218.1 725.514 1218.16 725.299 1218.25 725.176C1218.43 725.176 1218.74 725.161 1219.17 725.13C1219.63 725.069 1220.06 724.977 1220.46 724.854C1220.86 724.732 1221.07 724.594 1221.1 724.44C1221.22 724.072 1221.29 723.597 1221.29 723.014C1221.32 722.432 1221.33 721.803 1221.33 721.128V712.756C1221.33 712.45 1221.32 712.051 1221.29 711.56C1221.29 711.07 1221.22 710.686 1221.1 710.41C1221.01 710.134 1220.75 709.95 1220.32 709.858C1219.89 709.736 1219.46 709.674 1219.03 709.674C1218.6 709.644 1218.33 709.628 1218.2 709.628C1218.17 709.567 1218.14 709.383 1218.11 709.076C1218.08 708.77 1218.11 708.555 1218.2 708.432C1219.37 708.279 1220.5 708.049 1221.61 707.742C1222.71 707.436 1223.71 707.037 1224.6 706.546C1224.72 706.546 1224.83 706.638 1224.92 706.822C1225.04 707.006 1225.1 707.16 1225.1 707.282C1225.1 707.374 1225.07 707.635 1225.01 708.064C1224.95 708.494 1224.89 708.923 1224.83 709.352C1224.8 709.782 1224.78 710.073 1224.78 710.226V721.128ZM1235.9 706.914H1241.7C1241.85 706.914 1241.93 707.083 1241.93 707.42C1241.93 707.88 1241.71 708.325 1241.28 708.754H1235.9V720.53C1235.9 722.984 1236.9 724.21 1238.89 724.21C1239.56 724.21 1240.18 724.072 1240.73 723.796C1241.28 723.52 1241.63 723.321 1241.79 723.198C1241.88 723.229 1241.93 723.321 1241.93 723.474C1241.93 723.812 1241.86 724.042 1241.74 724.164C1241.53 724.41 1241.19 724.732 1240.73 725.13C1240.3 725.529 1239.78 725.882 1239.17 726.188C1238.55 726.495 1237.88 726.648 1237.14 726.648C1236.37 726.648 1235.62 726.51 1234.89 726.234C1234.18 725.958 1233.6 725.468 1233.14 724.762C1232.68 724.057 1232.45 723.06 1232.45 721.772V708.754H1229.83C1229.77 708.754 1229.72 708.708 1229.69 708.616C1229.66 708.494 1229.64 708.402 1229.64 708.34C1229.64 708.279 1229.74 708.141 1229.92 707.926C1230.1 707.681 1230.29 707.451 1230.47 707.236C1230.69 707.022 1230.79 706.914 1230.79 706.914H1232.45V704.108C1232.76 703.771 1233.11 703.388 1233.51 702.958C1233.94 702.498 1234.32 702.084 1234.66 701.716C1234.99 701.318 1235.18 701.103 1235.21 701.072C1235.33 700.95 1235.47 700.888 1235.62 700.888C1235.81 700.888 1235.9 700.934 1235.9 701.026V706.914ZM1246.47 699.692C1246.47 699.079 1246.68 698.558 1247.11 698.128C1247.57 697.668 1248.11 697.438 1248.72 697.438C1249.33 697.438 1249.86 697.668 1250.29 698.128C1250.75 698.558 1250.98 699.079 1250.98 699.692C1250.98 700.306 1250.75 700.842 1250.29 701.302C1249.86 701.732 1249.33 701.946 1248.72 701.946C1248.11 701.946 1247.57 701.732 1247.11 701.302C1246.68 700.842 1246.47 700.306 1246.47 699.692ZM1250.79 721.128C1250.79 721.803 1250.79 722.432 1250.79 723.014C1250.82 723.597 1250.9 724.072 1251.02 724.44C1251.08 724.594 1251.3 724.732 1251.67 724.854C1252.06 724.977 1252.48 725.069 1252.91 725.13C1253.34 725.161 1253.64 725.176 1253.83 725.176C1253.92 725.299 1253.97 725.514 1253.97 725.82C1254 726.127 1253.95 726.342 1253.83 726.464C1252.91 726.403 1252.09 726.357 1251.39 726.326C1250.71 726.265 1249.93 726.234 1249.04 726.234C1248.18 726.234 1247.4 726.265 1246.7 726.326C1245.99 726.357 1245.18 726.403 1244.26 726.464C1244.14 726.342 1244.08 726.127 1244.08 725.82C1244.11 725.514 1244.17 725.299 1244.26 725.176C1244.44 725.176 1244.75 725.161 1245.18 725.13C1245.64 725.069 1246.07 724.977 1246.47 724.854C1246.87 724.732 1247.08 724.594 1247.11 724.44C1247.23 724.072 1247.3 723.597 1247.3 723.014C1247.33 722.432 1247.34 721.803 1247.34 721.128V712.756C1247.34 712.45 1247.33 712.051 1247.3 711.56C1247.3 711.07 1247.23 710.686 1247.11 710.41C1247.02 710.134 1246.76 709.95 1246.33 709.858C1245.9 709.736 1245.47 709.674 1245.04 709.674C1244.61 709.644 1244.34 709.628 1244.21 709.628C1244.18 709.567 1244.15 709.383 1244.12 709.076C1244.09 708.77 1244.12 708.555 1244.21 708.432C1245.38 708.279 1246.51 708.049 1247.62 707.742C1248.72 707.436 1249.72 707.037 1250.61 706.546C1250.73 706.546 1250.84 706.638 1250.93 706.822C1251.05 707.006 1251.11 707.16 1251.11 707.282C1251.11 707.374 1251.08 707.635 1251.02 708.064C1250.96 708.494 1250.9 708.923 1250.84 709.352C1250.81 709.782 1250.79 710.073 1250.79 710.226V721.128ZM1265.54 706.73C1266.4 706.73 1267.2 707.006 1267.94 707.558C1268.7 708.11 1269.32 708.846 1269.78 709.766C1270.24 710.686 1270.47 711.729 1270.47 712.894V722.14C1270.47 722.723 1270.57 723.229 1270.79 723.658C1271 724.057 1271.35 724.256 1271.85 724.256C1272.27 724.256 1272.61 724.164 1272.86 723.98C1273.1 723.796 1273.26 723.689 1273.32 723.658C1273.38 723.658 1273.42 723.704 1273.46 723.796C1273.49 723.888 1273.5 723.965 1273.5 724.026C1273.5 724.364 1273.42 724.655 1273.27 724.9C1273.09 725.054 1272.78 725.268 1272.35 725.544C1271.95 725.82 1271.52 726.066 1271.06 726.28C1270.63 726.495 1270.25 726.602 1269.91 726.602C1269.27 726.602 1268.69 726.28 1268.17 725.636C1267.67 724.992 1267.35 724.333 1267.2 723.658C1267.08 723.781 1266.79 724.011 1266.33 724.348C1265.9 724.686 1265.39 725.038 1264.81 725.406C1264.22 725.744 1263.64 726.05 1263.06 726.326C1262.51 726.572 1262.03 726.694 1261.63 726.694C1260.16 726.694 1258.92 726.204 1257.91 725.222C1256.9 724.21 1256.39 722.984 1256.39 721.542C1256.39 720.622 1256.63 719.84 1257.13 719.196C1257.65 718.522 1258.15 718.092 1258.64 717.908C1259.5 717.602 1260.45 717.28 1261.5 716.942C1262.57 716.574 1263.57 716.222 1264.49 715.884C1265.41 715.547 1266.08 715.286 1266.51 715.102C1266.75 715.01 1266.91 714.903 1266.97 714.78C1267.03 714.627 1267.06 714.351 1267.06 713.952V712.756C1267.06 712.082 1266.89 711.422 1266.56 710.778C1266.22 710.104 1265.76 709.552 1265.18 709.122C1264.59 708.662 1263.93 708.432 1263.2 708.432C1262.43 708.432 1261.86 708.678 1261.5 709.168C1261.13 709.659 1260.87 710.349 1260.71 711.238C1260.44 712.68 1259.73 713.4 1258.6 713.4C1258.11 713.4 1257.72 713.201 1257.45 712.802C1257.2 712.404 1257.08 711.974 1257.08 711.514C1257.08 711.422 1257.11 711.254 1257.17 711.008C1257.23 710.732 1257.31 710.533 1257.4 710.41C1257.86 709.981 1258.52 709.475 1259.38 708.892C1260.24 708.31 1261.2 707.804 1262.28 707.374C1263.38 706.945 1264.47 706.73 1265.54 706.73ZM1263.15 724.256C1263.67 724.256 1264.24 724.134 1264.85 723.888C1265.47 723.643 1265.99 723.382 1266.42 723.106C1266.85 722.8 1267.06 722.57 1267.06 722.416V716.298C1266.48 716.482 1265.74 716.712 1264.85 716.988C1263.96 717.264 1263.3 717.479 1262.88 717.632C1262.08 717.939 1261.42 718.384 1260.9 718.966C1260.38 719.549 1260.12 720.27 1260.12 721.128C1260.12 721.956 1260.41 722.692 1260.99 723.336C1261.57 723.95 1262.29 724.256 1263.15 724.256ZM1278.05 701.256C1278.05 700.919 1278.04 700.52 1278.01 700.06C1278.01 699.57 1277.94 699.186 1277.82 698.91C1277.7 698.573 1277.36 698.358 1276.81 698.266C1276.29 698.174 1275.72 698.128 1275.11 698.128C1275.08 698.128 1275.05 697.944 1275.02 697.576C1275.02 697.178 1275.06 696.963 1275.15 696.932C1276.29 696.81 1277.39 696.595 1278.47 696.288C1279.54 695.951 1280.55 695.568 1281.5 695.138C1281.62 695.138 1281.73 695.23 1281.82 695.414C1281.95 695.568 1282.01 695.721 1282.01 695.874C1282.01 695.874 1281.92 696.212 1281.73 696.886C1281.58 697.561 1281.5 698.527 1281.5 699.784V721.128C1281.5 721.803 1281.5 722.432 1281.5 723.014C1281.53 723.597 1281.61 724.072 1281.73 724.44C1281.79 724.594 1282.01 724.732 1282.38 724.854C1282.77 724.977 1283.19 725.069 1283.62 725.13C1284.08 725.161 1284.4 725.176 1284.58 725.176C1284.68 725.299 1284.72 725.514 1284.72 725.82C1284.75 726.127 1284.71 726.342 1284.58 726.464C1283.66 726.403 1282.85 726.357 1282.15 726.326C1281.44 726.265 1280.64 726.234 1279.75 726.234C1278.9 726.234 1278.11 726.265 1277.41 726.326C1276.73 726.357 1275.94 726.403 1275.02 726.464C1274.89 726.342 1274.83 726.127 1274.83 725.82C1274.86 725.514 1274.92 725.299 1275.02 725.176C1275.2 725.176 1275.51 725.161 1275.94 725.13C1276.37 725.069 1276.78 724.977 1277.18 724.854C1277.58 724.732 1277.79 724.594 1277.82 724.44C1277.94 724.072 1278.01 723.597 1278.01 723.014C1278.04 722.432 1278.05 721.803 1278.05 721.128V701.256ZM986.553 794.538C986.553 796.869 986.798 799.23 987.289 801.622C987.81 804.014 988.562 806.222 989.543 808.246C990.524 810.27 991.72 811.911 993.131 813.168C993.162 813.168 993.054 813.291 992.809 813.536C992.594 813.782 992.41 813.95 992.257 814.042C989.65 811.957 987.504 809.274 985.817 805.992C984.13 802.711 983.287 798.893 983.287 794.538C983.287 790.153 984.13 786.32 985.817 783.038C987.504 779.757 989.65 777.089 992.257 775.034C992.41 775.126 992.594 775.295 992.809 775.54C993.054 775.786 993.162 775.908 993.131 775.908C991.72 777.135 990.524 778.76 989.543 780.784C988.562 782.808 987.81 785.016 987.289 787.408C986.798 789.8 986.553 792.177 986.553 794.538ZM1007.22 787.638C1008.84 787.638 1010.07 787.976 1010.9 788.65C1011.72 789.325 1012.28 790.368 1012.55 791.778C1012.86 793.189 1013.01 794.983 1013.01 797.16V802.128C1013.01 802.803 1013.01 803.432 1013.01 804.014C1013.04 804.597 1013.12 805.072 1013.24 805.44C1013.3 805.594 1013.52 805.732 1013.89 805.854C1014.29 805.977 1014.7 806.069 1015.13 806.13C1015.56 806.161 1015.86 806.176 1016.05 806.176C1016.14 806.299 1016.19 806.514 1016.19 806.82C1016.22 807.127 1016.17 807.342 1016.05 807.464C1015.13 807.403 1014.32 807.357 1013.61 807.326C1012.94 807.265 1012.15 807.234 1011.26 807.234C1010.41 807.234 1009.62 807.265 1008.92 807.326C1008.21 807.357 1007.4 807.403 1006.48 807.464C1006.36 807.342 1006.3 807.127 1006.3 806.82C1006.33 806.514 1006.39 806.299 1006.48 806.176C1006.66 806.176 1006.97 806.161 1007.4 806.13C1007.86 806.069 1008.29 805.977 1008.69 805.854C1009.09 805.732 1009.3 805.594 1009.33 805.44C1009.46 805.072 1009.52 804.597 1009.52 804.014C1009.55 803.432 1009.56 802.803 1009.56 802.128V797.62C1009.56 795.75 1009.44 794.293 1009.19 793.25C1008.95 792.177 1008.5 791.41 1007.86 790.95C1007.22 790.49 1006.31 790.26 1005.15 790.26C1004.59 790.26 1003.98 790.444 1003.31 790.812C1002.66 791.15 1002.1 791.518 1001.6 791.916C1001.11 792.315 1000.87 792.591 1000.87 792.744V802.128C1000.87 802.803 1000.87 803.432 1000.87 804.014C1000.9 804.597 1000.98 805.072 1001.1 805.44C1001.16 805.594 1001.37 805.732 1001.74 805.854C1002.14 805.977 1002.56 806.069 1002.98 806.13C1003.41 806.161 1003.72 806.176 1003.9 806.176C1004 806.299 1004.04 806.514 1004.04 806.82C1004.07 807.127 1004.03 807.342 1003.9 807.464C1002.98 807.403 1002.17 807.357 1001.47 807.326C1000.79 807.265 1000.01 807.234 999.121 807.234C998.262 807.234 997.48 807.265 996.775 807.326C996.069 807.357 995.257 807.403 994.337 807.464C994.214 807.342 994.153 807.127 994.153 806.82C994.183 806.514 994.245 806.299 994.337 806.176C994.521 806.176 994.827 806.161 995.257 806.13C995.717 806.069 996.146 805.977 996.545 805.854C996.943 805.732 997.158 805.594 997.189 805.44C997.311 805.072 997.373 804.597 997.373 804.014C997.403 803.432 997.419 802.803 997.419 802.128V793.94C997.419 793.634 997.403 793.204 997.373 792.652C997.373 792.1 997.311 791.686 997.189 791.41C997.097 791.134 996.836 790.95 996.407 790.858C995.977 790.736 995.548 790.674 995.119 790.674C994.689 790.644 994.413 790.628 994.291 790.628C994.26 790.567 994.229 790.383 994.199 790.076C994.168 789.77 994.199 789.555 994.291 789.432C995.456 789.279 996.591 789.049 997.695 788.742C998.799 788.436 999.795 788.037 1000.68 787.546C1000.81 787.546 1000.91 787.638 1001.01 787.822C1001.13 788.006 1001.19 788.16 1001.19 788.282C1001.19 788.374 1001.16 788.62 1001.1 789.018C1001.07 789.386 1001.02 789.754 1000.96 790.122C1000.93 790.49 1000.91 790.736 1000.91 790.858C1000.91 790.981 1000.95 791.042 1001.01 791.042C1001.04 791.042 1001.08 791.012 1001.14 790.95C1001.45 790.613 1001.94 790.184 1002.62 789.662C1003.32 789.141 1004.09 788.681 1004.92 788.282C1005.74 787.853 1006.51 787.638 1007.22 787.638ZM1027.99 787.592C1029.98 787.592 1031.68 788.022 1033.09 788.88C1034.54 789.739 1035.64 790.904 1036.41 792.376C1037.2 793.848 1037.6 795.52 1037.6 797.39C1037.6 799.322 1037.19 801.07 1036.36 802.634C1035.53 804.168 1034.4 805.394 1032.96 806.314C1031.51 807.204 1029.89 807.648 1028.08 807.648C1026.12 807.648 1024.4 807.219 1022.93 806.36C1021.49 805.471 1020.37 804.29 1019.57 802.818C1018.8 801.316 1018.42 799.629 1018.42 797.758C1018.42 795.826 1018.83 794.094 1019.66 792.56C1020.52 791.027 1021.67 789.816 1023.11 788.926C1024.55 788.037 1026.18 787.592 1027.99 787.592ZM1027.48 789.11C1026.22 789.11 1025.21 789.494 1024.45 790.26C1023.68 790.996 1023.13 791.962 1022.79 793.158C1022.45 794.324 1022.28 795.55 1022.28 796.838C1022.28 798.28 1022.51 799.721 1022.97 801.162C1023.46 802.604 1024.17 803.8 1025.09 804.75C1026.04 805.701 1027.19 806.176 1028.54 806.176C1029.83 806.176 1030.84 805.808 1031.58 805.072C1032.34 804.306 1032.89 803.324 1033.23 802.128C1033.57 800.932 1033.74 799.706 1033.74 798.448C1033.74 796.976 1033.49 795.535 1033 794.124C1032.51 792.683 1031.81 791.487 1030.89 790.536C1029.97 789.586 1028.83 789.11 1027.48 789.11ZM1053.94 787.638C1055.56 787.638 1056.79 787.976 1057.62 788.65C1058.44 789.325 1059 790.368 1059.27 791.778C1059.58 793.189 1059.73 794.983 1059.73 797.16V802.128C1059.73 802.803 1059.73 803.432 1059.73 804.014C1059.76 804.597 1059.84 805.072 1059.96 805.44C1060.02 805.594 1060.24 805.732 1060.61 805.854C1061 805.977 1061.42 806.069 1061.85 806.13C1062.28 806.161 1062.58 806.176 1062.77 806.176C1062.86 806.299 1062.91 806.514 1062.91 806.82C1062.94 807.127 1062.89 807.342 1062.77 807.464C1061.85 807.403 1061.03 807.357 1060.33 807.326C1059.65 807.265 1058.87 807.234 1057.98 807.234C1057.12 807.234 1056.34 807.265 1055.64 807.326C1054.93 807.357 1054.12 807.403 1053.2 807.464C1053.08 807.342 1053.02 807.127 1053.02 806.82C1053.05 806.514 1053.11 806.299 1053.2 806.176C1053.38 806.176 1053.69 806.161 1054.12 806.13C1054.58 806.069 1055.01 805.977 1055.41 805.854C1055.81 805.732 1056.02 805.594 1056.05 805.44C1056.17 805.072 1056.24 804.597 1056.24 804.014C1056.27 803.432 1056.28 802.803 1056.28 802.128V797.62C1056.28 795.75 1056.16 794.293 1055.91 793.25C1055.67 792.177 1055.22 791.41 1054.58 790.95C1053.94 790.49 1053.03 790.26 1051.87 790.26C1051.31 790.26 1050.7 790.444 1050.03 790.812C1049.38 791.15 1048.81 791.518 1048.32 791.916C1047.83 792.315 1047.59 792.591 1047.59 792.744V802.128C1047.59 802.803 1047.59 803.432 1047.59 804.014C1047.62 804.597 1047.69 805.072 1047.82 805.44C1047.88 805.594 1048.09 805.732 1048.46 805.854C1048.86 805.977 1049.27 806.069 1049.7 806.13C1050.13 806.161 1050.44 806.176 1050.62 806.176C1050.72 806.299 1050.76 806.514 1050.76 806.82C1050.79 807.127 1050.75 807.342 1050.62 807.464C1049.7 807.403 1048.89 807.357 1048.19 807.326C1047.51 807.265 1046.73 807.234 1045.84 807.234C1044.98 807.234 1044.2 807.265 1043.49 807.326C1042.79 807.357 1041.98 807.403 1041.06 807.464C1040.93 807.342 1040.87 807.127 1040.87 806.82C1040.9 806.514 1040.96 806.299 1041.06 806.176C1041.24 806.176 1041.55 806.161 1041.98 806.13C1042.44 806.069 1042.86 805.977 1043.26 805.854C1043.66 805.732 1043.88 805.594 1043.91 805.44C1044.03 805.072 1044.09 804.597 1044.09 804.014C1044.12 803.432 1044.14 802.803 1044.14 802.128V793.94C1044.14 793.634 1044.12 793.204 1044.09 792.652C1044.09 792.1 1044.03 791.686 1043.91 791.41C1043.82 791.134 1043.55 790.95 1043.13 790.858C1042.7 790.736 1042.27 790.674 1041.84 790.674C1041.41 790.644 1041.13 790.628 1041.01 790.628C1040.98 790.567 1040.95 790.383 1040.92 790.076C1040.89 789.77 1040.92 789.555 1041.01 789.432C1042.17 789.279 1043.31 789.049 1044.41 788.742C1045.52 788.436 1046.51 788.037 1047.4 787.546C1047.53 787.546 1047.63 787.638 1047.73 787.822C1047.85 788.006 1047.91 788.16 1047.91 788.282C1047.91 788.374 1047.88 788.62 1047.82 789.018C1047.79 789.386 1047.74 789.754 1047.68 790.122C1047.65 790.49 1047.63 790.736 1047.63 790.858C1047.63 790.981 1047.66 791.042 1047.73 791.042C1047.76 791.042 1047.8 791.012 1047.86 790.95C1048.17 790.613 1048.66 790.184 1049.34 789.662C1050.04 789.141 1050.81 788.681 1051.64 788.282C1052.46 787.853 1053.23 787.638 1053.94 787.638ZM1066.47 795.596C1066.47 795.596 1066.79 795.581 1067.44 795.55C1068.08 795.52 1068.9 795.474 1069.88 795.412C1070.86 795.351 1071.85 795.305 1072.87 795.274C1073.91 795.213 1074.83 795.167 1075.63 795.136C1076.45 795.075 1077.02 795.044 1077.33 795.044C1077.54 795.044 1077.65 795.182 1077.65 795.458C1077.65 796.225 1077.45 797.038 1077.05 797.896C1076.35 797.927 1075.4 797.973 1074.2 798.034C1073.04 798.096 1071.75 798.157 1070.34 798.218C1068.96 798.28 1067.58 798.341 1066.2 798.402C1066.01 798.402 1065.92 798.234 1065.92 797.896C1065.92 797.467 1065.97 797.068 1066.06 796.7C1066.18 796.302 1066.32 795.934 1066.47 795.596ZM1092.7 787.638C1093.19 787.638 1093.77 787.7 1094.45 787.822C1095.12 787.914 1095.57 788.006 1095.78 788.098C1095.94 788.098 1096.01 787.792 1096.01 787.178V782.256C1096.01 781.919 1096 781.52 1095.97 781.06C1095.97 780.57 1095.91 780.186 1095.78 779.91C1095.66 779.573 1095.32 779.358 1094.77 779.266C1094.22 779.174 1093.64 779.128 1093.02 779.128C1092.99 779.128 1092.96 778.944 1092.93 778.576C1092.93 778.178 1092.98 777.963 1093.07 777.932C1094.2 777.81 1095.31 777.595 1096.38 777.288C1097.48 776.951 1098.51 776.568 1099.46 776.138C1099.59 776.138 1099.69 776.23 1099.78 776.414C1099.91 776.568 1099.97 776.721 1099.97 776.874C1099.97 776.874 1099.88 777.212 1099.69 777.886C1099.54 778.561 1099.46 779.527 1099.46 780.784V800.012C1099.46 800.871 1099.48 801.745 1099.51 802.634C1099.57 803.493 1099.66 804.091 1099.78 804.428C1099.94 804.766 1100.29 804.98 1100.84 805.072C1101.43 805.134 1101.87 805.18 1102.18 805.21C1102.3 805.21 1102.38 805.21 1102.41 805.21C1102.47 805.241 1102.5 805.333 1102.5 805.486C1102.53 805.609 1102.54 805.701 1102.54 805.762C1102.54 805.793 1102.51 805.916 1102.45 806.13C1102.42 806.314 1102.35 806.406 1102.22 806.406C1101.46 806.437 1100.61 806.56 1099.69 806.774C1098.8 806.989 1098.04 807.188 1097.39 807.372C1096.75 807.587 1096.41 807.694 1096.38 807.694C1096.26 807.694 1096.17 807.587 1096.1 807.372C1096.04 807.158 1096.01 806.974 1096.01 806.82V805.256C1096.01 804.98 1095.97 804.888 1095.87 804.98C1095.66 805.226 1095.2 805.563 1094.49 805.992C1093.82 806.422 1093.07 806.82 1092.24 807.188C1091.41 807.526 1090.63 807.694 1089.89 807.694C1088.55 807.694 1087.26 807.28 1086.03 806.452C1084.83 805.594 1083.85 804.444 1083.09 803.002C1082.35 801.53 1081.98 799.89 1081.98 798.08C1081.98 796.608 1082.34 795.244 1083.04 793.986C1083.78 792.698 1084.7 791.594 1085.8 790.674C1086.94 789.724 1088.12 788.988 1089.34 788.466C1090.57 787.914 1091.69 787.638 1092.7 787.638ZM1091.23 789.524C1090.09 789.524 1089.11 789.892 1088.28 790.628C1087.49 791.334 1086.86 792.254 1086.4 793.388C1085.97 794.523 1085.75 795.719 1085.75 796.976C1085.75 798.387 1086 799.69 1086.49 800.886C1086.98 802.082 1087.7 803.048 1088.65 803.784C1089.6 804.52 1090.75 804.888 1092.1 804.888C1093.11 804.888 1094.02 804.689 1094.82 804.29C1095.61 803.861 1096.01 803.462 1096.01 803.094V791.732C1096.01 791.211 1095.52 790.72 1094.54 790.26C1093.59 789.77 1092.49 789.524 1091.23 789.524ZM1108.29 796.194C1108.26 798.096 1108.58 799.69 1109.26 800.978C1109.93 802.266 1110.84 803.232 1111.97 803.876C1113.11 804.49 1114.33 804.796 1115.65 804.796C1116.48 804.796 1117.23 804.658 1117.91 804.382C1118.58 804.076 1119.15 803.738 1119.61 803.37C1120.07 802.972 1120.39 802.665 1120.57 802.45C1120.6 802.45 1120.67 802.512 1120.76 802.634C1120.88 802.726 1120.94 802.864 1120.94 803.048C1120.94 803.294 1120.85 803.57 1120.67 803.876C1120.39 804.306 1119.96 804.827 1119.38 805.44C1118.8 806.023 1118.06 806.544 1117.17 807.004C1116.28 807.464 1115.25 807.694 1114.09 807.694C1112.34 807.694 1110.79 807.28 1109.44 806.452C1108.09 805.624 1107.03 804.505 1106.27 803.094C1105.5 801.684 1105.12 800.104 1105.12 798.356C1105.12 796.854 1105.38 795.458 1105.9 794.17C1106.45 792.852 1107.16 791.717 1108.02 790.766C1108.91 789.785 1109.87 789.018 1110.91 788.466C1111.96 787.914 1112.97 787.638 1113.95 787.638C1115.3 787.638 1116.4 787.868 1117.26 788.328C1118.15 788.788 1118.84 789.356 1119.33 790.03C1119.85 790.705 1120.21 791.38 1120.39 792.054C1120.6 792.729 1120.71 793.296 1120.71 793.756C1120.71 794.4 1120.64 794.906 1120.48 795.274C1120.33 795.642 1120.04 795.842 1119.61 795.872C1119.33 795.903 1118.78 795.934 1117.95 795.964C1117.15 795.964 1116.23 795.98 1115.19 796.01C1114.15 796.041 1113.12 796.072 1112.11 796.102C1111.1 796.133 1110.24 796.164 1109.53 796.194C1108.83 796.194 1108.41 796.194 1108.29 796.194ZM1108.52 794.538H1115.84C1116.11 794.538 1116.34 794.462 1116.53 794.308C1116.74 794.155 1116.86 793.879 1116.89 793.48C1116.92 793.112 1116.82 792.591 1116.57 791.916C1116.33 791.242 1115.93 790.628 1115.38 790.076C1114.85 789.524 1114.13 789.248 1113.21 789.248C1112.26 789.248 1111.48 789.524 1110.87 790.076C1110.25 790.598 1109.76 791.211 1109.4 791.916C1109.06 792.591 1108.81 793.204 1108.66 793.756C1108.54 794.278 1108.49 794.538 1108.52 794.538ZM1129.77 787.914H1135.57C1135.72 787.914 1135.8 788.083 1135.8 788.42C1135.8 788.88 1135.58 789.325 1135.15 789.754H1129.77V801.53C1129.77 803.984 1130.77 805.21 1132.76 805.21C1133.44 805.21 1134.05 805.072 1134.6 804.796C1135.15 804.52 1135.51 804.321 1135.66 804.198C1135.75 804.229 1135.8 804.321 1135.8 804.474C1135.8 804.812 1135.74 805.042 1135.61 805.164C1135.4 805.41 1135.06 805.732 1134.6 806.13C1134.17 806.529 1133.65 806.882 1133.04 807.188C1132.42 807.495 1131.75 807.648 1131.01 807.648C1130.25 807.648 1129.5 807.51 1128.76 807.234C1128.05 806.958 1127.47 806.468 1127.01 805.762C1126.55 805.057 1126.32 804.06 1126.32 802.772V789.754H1123.7C1123.64 789.754 1123.59 789.708 1123.56 789.616C1123.53 789.494 1123.52 789.402 1123.52 789.34C1123.52 789.279 1123.61 789.141 1123.79 788.926C1123.98 788.681 1124.16 788.451 1124.34 788.236C1124.56 788.022 1124.67 787.914 1124.67 787.914H1126.32V785.108C1126.63 784.771 1126.98 784.388 1127.38 783.958C1127.81 783.498 1128.19 783.084 1128.53 782.716C1128.87 782.318 1129.05 782.103 1129.08 782.072C1129.2 781.95 1129.34 781.888 1129.5 781.888C1129.68 781.888 1129.77 781.934 1129.77 782.026V787.914ZM1141.49 796.194C1141.46 798.096 1141.78 799.69 1142.46 800.978C1143.13 802.266 1144.03 803.232 1145.17 803.876C1146.3 804.49 1147.53 804.796 1148.85 804.796C1149.68 804.796 1150.43 804.658 1151.1 804.382C1151.78 804.076 1152.35 803.738 1152.81 803.37C1153.27 802.972 1153.59 802.665 1153.77 802.45C1153.8 802.45 1153.86 802.512 1153.96 802.634C1154.08 802.726 1154.14 802.864 1154.14 803.048C1154.14 803.294 1154.05 803.57 1153.86 803.876C1153.59 804.306 1153.16 804.827 1152.58 805.44C1151.99 806.023 1151.26 806.544 1150.37 807.004C1149.48 807.464 1148.45 807.694 1147.29 807.694C1145.54 807.694 1143.99 807.28 1142.64 806.452C1141.29 805.624 1140.23 804.505 1139.47 803.094C1138.7 801.684 1138.32 800.104 1138.32 798.356C1138.32 796.854 1138.58 795.458 1139.1 794.17C1139.65 792.852 1140.35 791.717 1141.21 790.766C1142.1 789.785 1143.07 789.018 1144.11 788.466C1145.15 787.914 1146.17 787.638 1147.15 787.638C1148.5 787.638 1149.6 787.868 1150.46 788.328C1151.35 788.788 1152.04 789.356 1152.53 790.03C1153.05 790.705 1153.4 791.38 1153.59 792.054C1153.8 792.729 1153.91 793.296 1153.91 793.756C1153.91 794.4 1153.83 794.906 1153.68 795.274C1153.53 795.642 1153.23 795.842 1152.81 795.872C1152.53 795.903 1151.98 795.934 1151.15 795.964C1150.35 795.964 1149.43 795.98 1148.39 796.01C1147.35 796.041 1146.32 796.072 1145.31 796.102C1144.3 796.133 1143.44 796.164 1142.73 796.194C1142.03 796.194 1141.61 796.194 1141.49 796.194ZM1141.72 794.538H1149.03C1149.31 794.538 1149.54 794.462 1149.72 794.308C1149.94 794.155 1150.06 793.879 1150.09 793.48C1150.12 793.112 1150.01 792.591 1149.77 791.916C1149.52 791.242 1149.13 790.628 1148.57 790.076C1148.05 789.524 1147.33 789.248 1146.41 789.248C1145.46 789.248 1144.68 789.524 1144.07 790.076C1143.45 790.598 1142.96 791.211 1142.59 791.916C1142.26 792.591 1142.01 793.204 1141.86 793.756C1141.73 794.278 1141.69 794.538 1141.72 794.538ZM1169.41 787.684C1169.99 787.684 1170.54 787.822 1171.06 788.098C1171.59 788.344 1171.95 788.65 1172.17 789.018C1172.23 789.141 1172.28 789.31 1172.31 789.524C1172.34 789.739 1172.35 789.969 1172.35 790.214C1172.35 791.042 1172.15 791.64 1171.75 792.008C1171.39 792.376 1171.08 792.56 1170.83 792.56C1170.53 792.56 1170.24 792.453 1169.96 792.238C1169.68 792.024 1169.42 791.84 1169.18 791.686C1168.96 791.533 1168.73 791.41 1168.49 791.318C1168.27 791.196 1167.95 791.134 1167.52 791.134C1166.88 791.134 1166.28 791.41 1165.73 791.962C1165.21 792.484 1164.78 793.066 1164.44 793.71C1164.1 794.354 1163.93 794.845 1163.93 795.182V802.128C1163.93 802.803 1163.93 803.432 1163.93 804.014C1163.97 804.597 1164.04 805.072 1164.16 805.44C1164.23 805.594 1164.53 805.732 1165.08 805.854C1165.64 805.977 1166.22 806.069 1166.83 806.13C1167.45 806.161 1167.84 806.176 1168.03 806.176C1168.12 806.299 1168.17 806.514 1168.17 806.82C1168.2 807.127 1168.15 807.342 1168.03 807.464C1167.11 807.403 1166.17 807.357 1165.22 807.326C1164.27 807.265 1163.35 807.234 1162.46 807.234C1161.6 807.234 1160.78 807.265 1159.98 807.326C1159.18 807.357 1158.32 807.403 1157.4 807.464C1157.28 807.342 1157.22 807.127 1157.22 806.82C1157.25 806.514 1157.31 806.299 1157.4 806.176C1157.59 806.176 1157.89 806.161 1158.32 806.13C1158.78 806.069 1159.21 805.977 1159.61 805.854C1160.01 805.732 1160.22 805.594 1160.25 805.44C1160.38 805.072 1160.44 804.597 1160.44 804.014C1160.47 803.432 1160.48 802.803 1160.48 802.128V793.756C1160.48 793.45 1160.47 793.051 1160.44 792.56C1160.44 792.07 1160.38 791.686 1160.25 791.41C1160.16 791.134 1159.9 790.95 1159.47 790.858C1159.04 790.736 1158.61 790.674 1158.18 790.674C1157.76 790.644 1157.48 790.628 1157.36 790.628C1157.33 790.567 1157.3 790.383 1157.26 790.076C1157.23 789.77 1157.26 789.555 1157.36 789.432C1158.52 789.279 1159.66 789.049 1160.76 788.742C1161.86 788.436 1162.86 788.037 1163.75 787.546C1163.87 787.546 1163.98 787.638 1164.07 787.822C1164.2 788.006 1164.26 788.16 1164.26 788.282C1164.26 788.374 1164.23 788.727 1164.16 789.34C1164.1 789.954 1164.04 790.582 1163.98 791.226C1163.95 791.84 1163.93 792.238 1163.93 792.422C1163.93 792.514 1163.95 792.56 1163.98 792.56C1164.04 792.56 1164.09 792.545 1164.12 792.514C1164.43 791.87 1164.85 791.18 1165.41 790.444C1165.99 789.678 1166.63 789.034 1167.34 788.512C1168.04 787.96 1168.73 787.684 1169.41 787.684ZM1187.35 787.638C1188.7 787.638 1189.79 787.93 1190.62 788.512C1191.47 789.064 1192.09 790.015 1192.46 791.364C1193.44 790.475 1194.51 789.632 1195.68 788.834C1196.87 788.037 1198.01 787.638 1199.08 787.638C1200.71 787.638 1201.93 787.976 1202.76 788.65C1203.59 789.325 1204.14 790.368 1204.42 791.778C1204.72 793.189 1204.88 794.983 1204.88 797.16V802.128C1204.88 802.803 1204.88 803.432 1204.88 804.014C1204.91 804.597 1204.98 805.072 1205.11 805.44C1205.17 805.594 1205.38 805.732 1205.75 805.854C1206.15 805.977 1206.56 806.069 1206.99 806.13C1207.42 806.161 1207.73 806.176 1207.91 806.176C1208 806.299 1208.05 806.514 1208.05 806.82C1208.08 807.127 1208.03 807.342 1207.91 807.464C1206.99 807.403 1206.18 807.357 1205.47 807.326C1204.8 807.265 1204.02 807.234 1203.13 807.234C1202.27 807.234 1201.49 807.265 1200.78 807.326C1200.08 807.357 1199.26 807.403 1198.34 807.464C1198.22 807.342 1198.16 807.127 1198.16 806.82C1198.19 806.514 1198.25 806.299 1198.34 806.176C1198.53 806.176 1198.83 806.161 1199.26 806.13C1199.72 806.069 1200.15 805.977 1200.55 805.854C1200.95 805.732 1201.17 805.594 1201.2 805.44C1201.29 805.134 1201.33 804.75 1201.33 804.29C1201.36 803.8 1201.38 803.263 1201.38 802.68C1201.38 802.588 1201.38 802.496 1201.38 802.404C1201.38 802.312 1201.38 802.22 1201.38 802.128V797.298C1201.38 795.796 1201.27 794.523 1201.06 793.48C1200.87 792.438 1200.49 791.64 1199.91 791.088C1199.33 790.536 1198.42 790.26 1197.19 790.26C1196.46 790.26 1195.75 790.46 1195.08 790.858C1194.4 791.226 1193.85 791.625 1193.42 792.054C1192.99 792.453 1192.78 792.714 1192.78 792.836C1192.78 792.867 1192.78 792.959 1192.78 793.112C1192.81 793.235 1192.82 793.327 1192.82 793.388C1192.89 793.818 1192.93 794.354 1192.96 794.998C1192.99 795.642 1193.01 796.179 1193.01 796.608V802.128C1193.01 802.803 1193.01 803.432 1193.01 804.014C1193.04 804.597 1193.12 805.072 1193.24 805.44C1193.3 805.594 1193.51 805.732 1193.88 805.854C1194.28 805.977 1194.69 806.069 1195.12 806.13C1195.55 806.161 1195.86 806.176 1196.04 806.176C1196.14 806.299 1196.18 806.514 1196.18 806.82C1196.21 807.127 1196.17 807.342 1196.04 807.464C1195.12 807.403 1194.31 807.357 1193.61 807.326C1192.93 807.265 1192.15 807.234 1191.26 807.234C1190.4 807.234 1189.62 807.265 1188.91 807.326C1188.21 807.357 1187.4 807.403 1186.48 807.464C1186.35 807.342 1186.29 807.127 1186.29 806.82C1186.32 806.514 1186.38 806.299 1186.48 806.176C1186.66 806.176 1186.97 806.161 1187.4 806.13C1187.86 806.069 1188.29 805.977 1188.68 805.854C1189.08 805.732 1189.3 805.594 1189.33 805.44C1189.45 805.072 1189.51 804.597 1189.51 804.014C1189.54 803.432 1189.56 802.803 1189.56 802.128V797.528C1189.56 794.799 1189.25 792.913 1188.64 791.87C1188.06 790.797 1186.95 790.26 1185.33 790.26C1184.65 790.26 1183.99 790.429 1183.35 790.766C1182.7 791.104 1182.17 791.472 1181.74 791.87C1181.34 792.238 1181.14 792.53 1181.14 792.744V802.128C1181.14 802.803 1181.14 803.432 1181.14 804.014C1181.17 804.597 1181.25 805.072 1181.37 805.44C1181.43 805.594 1181.65 805.732 1182.01 805.854C1182.41 805.977 1182.83 806.069 1183.26 806.13C1183.69 806.161 1183.99 806.176 1184.18 806.176C1184.27 806.299 1184.31 806.514 1184.31 806.82C1184.34 807.127 1184.3 807.342 1184.18 807.464C1183.26 807.403 1182.44 807.357 1181.74 807.326C1181.06 807.265 1180.28 807.234 1179.39 807.234C1178.53 807.234 1177.75 807.265 1177.05 807.326C1176.34 807.357 1175.53 807.403 1174.61 807.464C1174.49 807.342 1174.42 807.127 1174.42 806.82C1174.45 806.514 1174.52 806.299 1174.61 806.176C1174.79 806.176 1175.1 806.161 1175.53 806.13C1175.99 806.069 1176.42 805.977 1176.82 805.854C1177.21 805.732 1177.43 805.594 1177.46 805.44C1177.58 805.072 1177.64 804.597 1177.64 804.014C1177.67 803.432 1177.69 802.803 1177.69 802.128V793.94C1177.69 793.634 1177.67 793.204 1177.64 792.652C1177.64 792.1 1177.58 791.686 1177.46 791.41C1177.37 791.134 1177.11 790.95 1176.68 790.858C1176.25 790.736 1175.82 790.674 1175.39 790.674C1174.96 790.644 1174.68 790.628 1174.56 790.628C1174.53 790.567 1174.5 790.383 1174.47 790.076C1174.44 789.77 1174.47 789.555 1174.56 789.432C1175.73 789.279 1176.86 789.049 1177.97 788.742C1179.07 788.436 1180.07 788.037 1180.96 787.546C1181.08 787.546 1181.19 787.638 1181.28 787.822C1181.4 788.006 1181.46 788.16 1181.46 788.282C1181.46 788.374 1181.43 788.589 1181.37 788.926C1181.34 789.264 1181.29 789.601 1181.23 789.938C1181.2 790.276 1181.19 790.506 1181.19 790.628C1181.19 790.751 1181.22 790.812 1181.28 790.812C1181.31 790.812 1181.35 790.782 1181.42 790.72C1181.78 790.383 1182.27 789.984 1182.89 789.524C1183.5 789.034 1184.19 788.604 1184.96 788.236C1185.76 787.838 1186.55 787.638 1187.35 787.638ZM1212.3 780.692C1212.3 780.079 1212.52 779.558 1212.95 779.128C1213.41 778.668 1213.94 778.438 1214.56 778.438C1215.17 778.438 1215.69 778.668 1216.12 779.128C1216.58 779.558 1216.81 780.079 1216.81 780.692C1216.81 781.306 1216.58 781.842 1216.12 782.302C1215.69 782.732 1215.17 782.946 1214.56 782.946C1213.94 782.946 1213.41 782.732 1212.95 782.302C1212.52 781.842 1212.3 781.306 1212.3 780.692ZM1216.63 802.128C1216.63 802.803 1216.63 803.432 1216.63 804.014C1216.66 804.597 1216.74 805.072 1216.86 805.44C1216.92 805.594 1217.13 805.732 1217.5 805.854C1217.9 805.977 1218.31 806.069 1218.74 806.13C1219.17 806.161 1219.48 806.176 1219.66 806.176C1219.76 806.299 1219.8 806.514 1219.8 806.82C1219.83 807.127 1219.79 807.342 1219.66 807.464C1218.74 807.403 1217.93 807.357 1217.23 807.326C1216.55 807.265 1215.77 807.234 1214.88 807.234C1214.02 807.234 1213.24 807.265 1212.53 807.326C1211.83 807.357 1211.02 807.403 1210.1 807.464C1209.97 807.342 1209.91 807.127 1209.91 806.82C1209.94 806.514 1210 806.299 1210.1 806.176C1210.28 806.176 1210.59 806.161 1211.02 806.13C1211.48 806.069 1211.91 805.977 1212.3 805.854C1212.7 805.732 1212.92 805.594 1212.95 805.44C1213.07 805.072 1213.13 804.597 1213.13 804.014C1213.16 803.432 1213.18 802.803 1213.18 802.128V793.756C1213.18 793.45 1213.16 793.051 1213.13 792.56C1213.13 792.07 1213.07 791.686 1212.95 791.41C1212.86 791.134 1212.6 790.95 1212.17 790.858C1211.74 790.736 1211.31 790.674 1210.88 790.674C1210.45 790.644 1210.17 790.628 1210.05 790.628C1210.02 790.567 1209.99 790.383 1209.96 790.076C1209.93 789.77 1209.96 789.555 1210.05 789.432C1211.22 789.279 1212.35 789.049 1213.45 788.742C1214.56 788.436 1215.55 788.037 1216.44 787.546C1216.57 787.546 1216.67 787.638 1216.77 787.822C1216.89 788.006 1216.95 788.16 1216.95 788.282C1216.95 788.374 1216.92 788.635 1216.86 789.064C1216.8 789.494 1216.74 789.923 1216.67 790.352C1216.64 790.782 1216.63 791.073 1216.63 791.226V802.128ZM1235.06 787.638C1236.69 787.638 1237.91 787.976 1238.74 788.65C1239.57 789.325 1240.12 790.368 1240.4 791.778C1240.7 793.189 1240.86 794.983 1240.86 797.16V802.128C1240.86 802.803 1240.86 803.432 1240.86 804.014C1240.89 804.597 1240.96 805.072 1241.09 805.44C1241.15 805.594 1241.36 805.732 1241.73 805.854C1242.13 805.977 1242.54 806.069 1242.97 806.13C1243.4 806.161 1243.71 806.176 1243.89 806.176C1243.98 806.299 1244.03 806.514 1244.03 806.82C1244.06 807.127 1244.01 807.342 1243.89 807.464C1242.97 807.403 1242.16 807.357 1241.45 807.326C1240.78 807.265 1240 807.234 1239.11 807.234C1238.25 807.234 1237.47 807.265 1236.76 807.326C1236.06 807.357 1235.24 807.403 1234.32 807.464C1234.2 807.342 1234.14 807.127 1234.14 806.82C1234.17 806.514 1234.23 806.299 1234.32 806.176C1234.51 806.176 1234.81 806.161 1235.24 806.13C1235.7 806.069 1236.13 805.977 1236.53 805.854C1236.93 805.732 1237.15 805.594 1237.18 805.44C1237.3 805.072 1237.36 804.597 1237.36 804.014C1237.39 803.432 1237.41 802.803 1237.41 802.128V797.62C1237.41 795.75 1237.28 794.293 1237.04 793.25C1236.79 792.177 1236.35 791.41 1235.7 790.95C1235.06 790.49 1234.16 790.26 1232.99 790.26C1232.44 790.26 1231.82 790.444 1231.15 790.812C1230.51 791.15 1229.94 791.518 1229.45 791.916C1228.96 792.315 1228.71 792.591 1228.71 792.744V802.128C1228.71 802.803 1228.71 803.432 1228.71 804.014C1228.74 804.597 1228.82 805.072 1228.94 805.44C1229 805.594 1229.22 805.732 1229.59 805.854C1229.98 805.977 1230.4 806.069 1230.83 806.13C1231.26 806.161 1231.56 806.176 1231.75 806.176C1231.84 806.299 1231.89 806.514 1231.89 806.82C1231.92 807.127 1231.87 807.342 1231.75 807.464C1230.83 807.403 1230.02 807.357 1229.31 807.326C1228.64 807.265 1227.85 807.234 1226.96 807.234C1226.11 807.234 1225.32 807.265 1224.62 807.326C1223.91 807.357 1223.1 807.403 1222.18 807.464C1222.06 807.342 1222 807.127 1222 806.82C1222.03 806.514 1222.09 806.299 1222.18 806.176C1222.36 806.176 1222.67 806.161 1223.1 806.13C1223.56 806.069 1223.99 805.977 1224.39 805.854C1224.79 805.732 1225 805.594 1225.03 805.44C1225.15 805.072 1225.22 804.597 1225.22 804.014C1225.25 803.432 1225.26 802.803 1225.26 802.128V793.94C1225.26 793.634 1225.25 793.204 1225.22 792.652C1225.22 792.1 1225.15 791.686 1225.03 791.41C1224.94 791.134 1224.68 790.95 1224.25 790.858C1223.82 790.736 1223.39 790.674 1222.96 790.674C1222.53 790.644 1222.26 790.628 1222.13 790.628C1222.1 790.567 1222.07 790.383 1222.04 790.076C1222.01 789.77 1222.04 789.555 1222.13 789.432C1223.3 789.279 1224.43 789.049 1225.54 788.742C1226.64 788.436 1227.64 788.037 1228.53 787.546C1228.65 787.546 1228.76 787.638 1228.85 787.822C1228.97 788.006 1229.03 788.16 1229.03 788.282C1229.03 788.374 1229 788.62 1228.94 789.018C1228.91 789.386 1228.87 789.754 1228.8 790.122C1228.77 790.49 1228.76 790.736 1228.76 790.858C1228.76 790.981 1228.79 791.042 1228.85 791.042C1228.88 791.042 1228.93 791.012 1228.99 790.95C1229.29 790.613 1229.79 790.184 1230.46 789.662C1231.17 789.141 1231.93 788.681 1232.76 788.282C1233.59 787.853 1234.35 787.638 1235.06 787.638ZM1248.24 780.692C1248.24 780.079 1248.46 779.558 1248.89 779.128C1249.35 778.668 1249.88 778.438 1250.5 778.438C1251.11 778.438 1251.63 778.668 1252.06 779.128C1252.52 779.558 1252.75 780.079 1252.75 780.692C1252.75 781.306 1252.52 781.842 1252.06 782.302C1251.63 782.732 1251.11 782.946 1250.5 782.946C1249.88 782.946 1249.35 782.732 1248.89 782.302C1248.46 781.842 1248.24 781.306 1248.24 780.692ZM1252.57 802.128C1252.57 802.803 1252.57 803.432 1252.57 804.014C1252.6 804.597 1252.67 805.072 1252.8 805.44C1252.86 805.594 1253.07 805.732 1253.44 805.854C1253.84 805.977 1254.25 806.069 1254.68 806.13C1255.11 806.161 1255.42 806.176 1255.6 806.176C1255.69 806.299 1255.74 806.514 1255.74 806.82C1255.77 807.127 1255.72 807.342 1255.6 807.464C1254.68 807.403 1253.87 807.357 1253.16 807.326C1252.49 807.265 1251.71 807.234 1250.82 807.234C1249.96 807.234 1249.18 807.265 1248.47 807.326C1247.77 807.357 1246.95 807.403 1246.03 807.464C1245.91 807.342 1245.85 807.127 1245.85 806.82C1245.88 806.514 1245.94 806.299 1246.03 806.176C1246.22 806.176 1246.52 806.161 1246.95 806.13C1247.41 806.069 1247.84 805.977 1248.24 805.854C1248.64 805.732 1248.86 805.594 1248.89 805.44C1249.01 805.072 1249.07 804.597 1249.07 804.014C1249.1 803.432 1249.12 802.803 1249.12 802.128V793.756C1249.12 793.45 1249.1 793.051 1249.07 792.56C1249.07 792.07 1249.01 791.686 1248.89 791.41C1248.79 791.134 1248.53 790.95 1248.1 790.858C1247.67 790.736 1247.25 790.674 1246.82 790.674C1246.39 790.644 1246.11 790.628 1245.99 790.628C1245.96 790.567 1245.93 790.383 1245.9 790.076C1245.87 789.77 1245.9 789.555 1245.99 789.432C1247.15 789.279 1248.29 789.049 1249.39 788.742C1250.5 788.436 1251.49 788.037 1252.38 787.546C1252.5 787.546 1252.61 787.638 1252.7 787.822C1252.83 788.006 1252.89 788.16 1252.89 788.282C1252.89 788.374 1252.86 788.635 1252.8 789.064C1252.73 789.494 1252.67 789.923 1252.61 790.352C1252.58 790.782 1252.57 791.073 1252.57 791.226V802.128ZM1265.25 787.684C1266.14 787.684 1266.87 787.761 1267.46 787.914C1268.07 788.037 1268.87 788.16 1269.85 788.282C1270 788.957 1270.12 789.754 1270.22 790.674C1270.31 791.564 1270.37 792.407 1270.4 793.204C1270.4 793.358 1270.25 793.434 1269.94 793.434C1269.82 793.434 1269.68 793.419 1269.53 793.388C1269.4 793.358 1269.28 793.296 1269.16 793.204C1269 792.652 1268.74 792.054 1268.38 791.41C1268.04 790.766 1267.61 790.23 1267.09 789.8C1266.6 789.34 1266.03 789.11 1265.39 789.11C1264.31 789.11 1263.52 789.386 1262.99 789.938C1262.47 790.46 1262.21 791.119 1262.21 791.916C1262.21 792.683 1262.4 793.312 1262.76 793.802C1263.13 794.262 1263.61 794.676 1264.19 795.044C1264.8 795.382 1265.45 795.75 1266.12 796.148C1266.8 796.547 1267.53 796.992 1268.33 797.482C1269.13 797.973 1269.82 798.556 1270.4 799.23C1270.98 799.874 1271.27 800.672 1271.27 801.622C1271.27 802.818 1270.95 803.892 1270.31 804.842C1269.66 805.762 1268.82 806.498 1267.78 807.05C1266.74 807.572 1265.6 807.832 1264.37 807.832C1263.33 807.832 1262.44 807.725 1261.71 807.51C1260.97 807.326 1260.11 807.142 1259.13 806.958C1259.01 806.621 1258.88 806.161 1258.76 805.578C1258.64 804.996 1258.53 804.398 1258.44 803.784C1258.38 803.171 1258.35 802.68 1258.35 802.312C1258.59 802.128 1258.87 802.036 1259.18 802.036C1259.33 802.036 1259.45 802.067 1259.54 802.128C1259.73 802.742 1260.05 803.386 1260.51 804.06C1260.97 804.704 1261.54 805.256 1262.21 805.716C1262.89 806.146 1263.62 806.36 1264.42 806.36C1265.34 806.36 1266.11 806.084 1266.72 805.532C1267.33 804.98 1267.64 804.183 1267.64 803.14C1267.64 802.22 1267.36 801.484 1266.81 800.932C1266.26 800.35 1265.57 799.844 1264.74 799.414C1263.91 798.954 1263.06 798.479 1262.17 797.988C1261.28 797.467 1260.48 796.838 1259.77 796.102C1259.1 795.336 1258.76 794.354 1258.76 793.158C1258.76 792.054 1259.07 791.088 1259.68 790.26C1260.33 789.432 1261.14 788.804 1262.12 788.374C1263.1 787.914 1264.14 787.684 1265.25 787.684ZM1287.44 787.638C1288.79 787.638 1289.87 787.93 1290.7 788.512C1291.56 789.064 1292.17 790.015 1292.54 791.364C1293.52 790.475 1294.6 789.632 1295.76 788.834C1296.96 788.037 1298.09 787.638 1299.17 787.638C1300.79 787.638 1302.02 787.976 1302.85 788.65C1303.67 789.325 1304.23 790.368 1304.5 791.778C1304.81 793.189 1304.96 794.983 1304.96 797.16V802.128C1304.96 802.803 1304.96 803.432 1304.96 804.014C1304.99 804.597 1305.07 805.072 1305.19 805.44C1305.25 805.594 1305.47 805.732 1305.84 805.854C1306.23 805.977 1306.65 806.069 1307.08 806.13C1307.51 806.161 1307.81 806.176 1308 806.176C1308.09 806.299 1308.14 806.514 1308.14 806.82C1308.17 807.127 1308.12 807.342 1308 807.464C1307.08 807.403 1306.27 807.357 1305.56 807.326C1304.89 807.265 1304.1 807.234 1303.21 807.234C1302.36 807.234 1301.57 807.265 1300.87 807.326C1300.16 807.357 1299.35 807.403 1298.43 807.464C1298.31 807.342 1298.25 807.127 1298.25 806.82C1298.28 806.514 1298.34 806.299 1298.43 806.176C1298.61 806.176 1298.92 806.161 1299.35 806.13C1299.81 806.069 1300.24 805.977 1300.64 805.854C1301.04 805.732 1301.25 805.594 1301.28 805.44C1301.37 805.134 1301.42 804.75 1301.42 804.29C1301.45 803.8 1301.47 803.263 1301.47 802.68C1301.47 802.588 1301.47 802.496 1301.47 802.404C1301.47 802.312 1301.47 802.22 1301.47 802.128V797.298C1301.47 795.796 1301.36 794.523 1301.14 793.48C1300.96 792.438 1300.58 791.64 1299.99 791.088C1299.41 790.536 1298.51 790.26 1297.28 790.26C1296.54 790.26 1295.84 790.46 1295.16 790.858C1294.49 791.226 1293.94 791.625 1293.51 792.054C1293.08 792.453 1292.86 792.714 1292.86 792.836C1292.86 792.867 1292.86 792.959 1292.86 793.112C1292.89 793.235 1292.91 793.327 1292.91 793.388C1292.97 793.818 1293.02 794.354 1293.05 794.998C1293.08 795.642 1293.09 796.179 1293.09 796.608V802.128C1293.09 802.803 1293.09 803.432 1293.09 804.014C1293.12 804.597 1293.2 805.072 1293.32 805.44C1293.39 805.594 1293.6 805.732 1293.97 805.854C1294.37 805.977 1294.78 806.069 1295.21 806.13C1295.64 806.161 1295.95 806.176 1296.13 806.176C1296.22 806.299 1296.27 806.514 1296.27 806.82C1296.3 807.127 1296.25 807.342 1296.13 807.464C1295.21 807.403 1294.4 807.357 1293.69 807.326C1293.02 807.265 1292.24 807.234 1291.35 807.234C1290.49 807.234 1289.71 807.265 1289 807.326C1288.29 807.357 1287.48 807.403 1286.56 807.464C1286.44 807.342 1286.38 807.127 1286.38 806.82C1286.41 806.514 1286.47 806.299 1286.56 806.176C1286.75 806.176 1287.05 806.161 1287.48 806.13C1287.94 806.069 1288.37 805.977 1288.77 805.854C1289.17 805.732 1289.38 805.594 1289.41 805.44C1289.54 805.072 1289.6 804.597 1289.6 804.014C1289.63 803.432 1289.64 802.803 1289.64 802.128V797.528C1289.64 794.799 1289.34 792.913 1288.72 791.87C1288.14 790.797 1287.04 790.26 1285.41 790.26C1284.74 790.26 1284.08 790.429 1283.43 790.766C1282.79 791.104 1282.25 791.472 1281.82 791.87C1281.43 792.238 1281.23 792.53 1281.23 792.744V802.128C1281.23 802.803 1281.23 803.432 1281.23 804.014C1281.26 804.597 1281.33 805.072 1281.46 805.44C1281.52 805.594 1281.73 805.732 1282.1 805.854C1282.5 805.977 1282.91 806.069 1283.34 806.13C1283.77 806.161 1284.08 806.176 1284.26 806.176C1284.35 806.299 1284.4 806.514 1284.4 806.82C1284.43 807.127 1284.38 807.342 1284.26 807.464C1283.34 807.403 1282.53 807.357 1281.82 807.326C1281.15 807.265 1280.37 807.234 1279.48 807.234C1278.62 807.234 1277.84 807.265 1277.13 807.326C1276.43 807.357 1275.61 807.403 1274.69 807.464C1274.57 807.342 1274.51 807.127 1274.51 806.82C1274.54 806.514 1274.6 806.299 1274.69 806.176C1274.88 806.176 1275.18 806.161 1275.61 806.13C1276.07 806.069 1276.5 805.977 1276.9 805.854C1277.3 805.732 1277.52 805.594 1277.55 805.44C1277.67 805.072 1277.73 804.597 1277.73 804.014C1277.76 803.432 1277.78 802.803 1277.78 802.128V793.94C1277.78 793.634 1277.76 793.204 1277.73 792.652C1277.73 792.1 1277.67 791.686 1277.55 791.41C1277.45 791.134 1277.19 790.95 1276.76 790.858C1276.33 790.736 1275.91 790.674 1275.48 790.674C1275.05 790.644 1274.77 790.628 1274.65 790.628C1274.62 790.567 1274.59 790.383 1274.56 790.076C1274.53 789.77 1274.56 789.555 1274.65 789.432C1275.81 789.279 1276.95 789.049 1278.05 788.742C1279.16 788.436 1280.15 788.037 1281.04 787.546C1281.16 787.546 1281.27 787.638 1281.36 787.822C1281.49 788.006 1281.55 788.16 1281.55 788.282C1281.55 788.374 1281.52 788.589 1281.46 788.926C1281.43 789.264 1281.38 789.601 1281.32 789.938C1281.29 790.276 1281.27 790.506 1281.27 790.628C1281.27 790.751 1281.3 790.812 1281.36 790.812C1281.39 790.812 1281.44 790.782 1281.5 790.72C1281.87 790.383 1282.36 789.984 1282.97 789.524C1283.59 789.034 1284.28 788.604 1285.04 788.236C1285.84 787.838 1286.64 787.638 1287.44 787.638ZM1318.2 794.538C1318.2 798.893 1317.35 802.711 1315.67 805.992C1313.98 809.274 1311.82 811.957 1309.18 814.042C1309.03 813.95 1308.84 813.782 1308.63 813.536C1308.42 813.291 1308.32 813.168 1308.35 813.168C1309.76 811.911 1310.95 810.27 1311.9 808.246C1312.88 806.222 1313.61 804.014 1314.1 801.622C1314.63 799.23 1314.89 796.869 1314.89 794.538C1314.89 792.177 1314.63 789.8 1314.1 787.408C1313.61 785.016 1312.88 782.808 1311.9 780.784C1310.95 778.76 1309.76 777.135 1308.35 775.908C1308.32 775.908 1308.42 775.786 1308.63 775.54C1308.84 775.295 1309.03 775.126 1309.18 775.034C1311.82 777.089 1313.98 779.757 1315.67 783.038C1317.35 786.32 1318.2 790.153 1318.2 794.538Z" fill="black"/>
</g>
<defs>
<clipPath id="clip0_36_369">
<rect width="131.498" height="108.576" fill="white" transform="translate(707.217 807.326)"/>
</clipPath>
<clipPath id="clip1_36_369">
<rect width="130.134" height="109.51" fill="white" transform="translate(705.217 580.328)"/>
</clipPath>
</defs>
</svg>
