<svg width="1024" height="769" viewBox="0 0 1024 769" fill="none" xmlns="http://www.w3.org/2000/svg">
<g id="defense">
<rect width="1024" height="768" transform="translate(0 0.600098)" fill="white"/>
<g id="Slajdomat">
<line id="Line 7" x1="233.499" y1="301.035" x2="214.499" y2="569.035" stroke="black"/>
<line id="Line 8" x1="339.752" y1="465.434" x2="232.752" y2="404.434" stroke="black"/>
<line id="Line 9" x1="112.729" y1="477.58" x2="227.729" y2="403.58" stroke="black"/>
<line id="Line 10" x1="123.609" y1="677.688" x2="213.609" y2="564.688" stroke="black"/>
<line id="Line 11" x1="283.55" y1="701.217" x2="213.55" y2="556.217" stroke="black"/>
<rect id="Rectangle 1" x="370" y="162" width="377" height="279" fill="#D9D9D9"/>
<circle id="Ellipse 8" cx="237.5" cy="296.5" r="61.5" fill="#D9D9D9"/>
<path id="Slajdomat_2" d="M476.633 310.39C475.073 310.39 473.63 310.273 472.304 310.039C470.978 309.805 469.873 309.48 468.989 309.064V305.71C469.925 306.126 471.082 306.503 472.46 306.841C473.864 307.179 475.307 307.348 476.789 307.348C478.869 307.348 480.429 306.945 481.469 306.139C482.535 305.333 483.068 304.241 483.068 302.863C483.068 301.953 482.873 301.186 482.483 300.562C482.093 299.938 481.417 299.366 480.455 298.846C479.519 298.3 478.206 297.728 476.516 297.13C474.15 296.272 472.356 295.219 471.134 293.971C469.938 292.723 469.34 291.02 469.34 288.862C469.34 287.38 469.717 286.119 470.471 285.079C471.225 284.013 472.265 283.194 473.591 282.622C474.943 282.05 476.49 281.764 478.232 281.764C479.766 281.764 481.17 281.907 482.444 282.193C483.718 282.479 484.875 282.856 485.915 283.324L484.823 286.327C483.861 285.911 482.808 285.56 481.664 285.274C480.546 284.988 479.376 284.845 478.154 284.845C476.412 284.845 475.099 285.222 474.215 285.976C473.331 286.704 472.889 287.679 472.889 288.901C472.889 289.837 473.084 290.617 473.474 291.241C473.864 291.865 474.501 292.424 475.385 292.918C476.269 293.412 477.465 293.945 478.973 294.517C480.611 295.115 481.989 295.765 483.107 296.467C484.251 297.143 485.109 297.962 485.681 298.924C486.279 299.886 486.578 301.095 486.578 302.551C486.578 305.021 485.681 306.945 483.887 308.323C482.093 309.701 479.675 310.39 476.633 310.39ZM491.719 310V280.36H495.151V310H491.719ZM506.844 310.39C504.946 310.39 503.373 309.896 502.125 308.908C500.877 307.894 500.253 306.321 500.253 304.189C500.253 302.109 501.072 300.51 502.71 299.392C504.348 298.248 506.87 297.624 510.276 297.52L513.825 297.403V296.155C513.825 294.413 513.448 293.204 512.694 292.528C511.94 291.852 510.874 291.514 509.496 291.514C508.404 291.514 507.364 291.683 506.376 292.021C505.388 292.333 504.465 292.697 503.607 293.113L502.554 290.539C503.464 290.045 504.543 289.629 505.791 289.291C507.039 288.927 508.339 288.745 509.691 288.745C512.239 288.745 514.124 289.304 515.346 290.422C516.568 291.54 517.179 293.321 517.179 295.765V310H514.683L514.02 307.036H513.864C512.954 308.18 511.992 309.025 510.978 309.571C509.99 310.117 508.612 310.39 506.844 310.39ZM507.624 307.621C509.392 307.621 510.861 307.14 512.031 306.178C513.201 305.19 513.786 303.682 513.786 301.654V299.782L510.705 299.899C508.105 300.003 506.298 300.419 505.284 301.147C504.296 301.875 503.802 302.902 503.802 304.228C503.802 305.398 504.153 306.256 504.855 306.802C505.583 307.348 506.506 307.621 507.624 307.621ZM525.39 285.625C524.818 285.625 524.337 285.443 523.947 285.079C523.557 284.715 523.362 284.169 523.362 283.441C523.362 282.687 523.557 282.141 523.947 281.803C524.337 281.439 524.818 281.257 525.39 281.257C525.91 281.257 526.365 281.439 526.755 281.803C527.171 282.141 527.379 282.687 527.379 283.441C527.379 284.169 527.171 284.715 526.755 285.079C526.365 285.443 525.91 285.625 525.39 285.625ZM521.178 319.36C520.528 319.36 519.956 319.308 519.462 319.204C518.968 319.126 518.539 319.022 518.175 318.892V316.123C518.565 316.227 518.968 316.318 519.384 316.396C519.8 316.474 520.255 316.513 520.749 316.513C521.581 316.513 522.27 316.279 522.816 315.811C523.362 315.369 523.635 314.511 523.635 313.237V289.096H527.067V313.12C527.067 315.07 526.599 316.591 525.663 317.683C524.727 318.801 523.232 319.36 521.178 319.36ZM541.1 310.39C538.5 310.39 536.42 309.493 534.86 307.699C533.3 305.879 532.52 303.175 532.52 299.587C532.52 295.999 533.3 293.295 534.86 291.475C536.446 289.629 538.539 288.706 541.139 288.706C542.751 288.706 544.064 289.005 545.078 289.603C546.118 290.201 546.963 290.929 547.613 291.787H547.847C547.821 291.449 547.769 290.955 547.691 290.305C547.639 289.629 547.613 289.096 547.613 288.706V280.36H551.045V310H548.276L547.769 307.192H547.613C546.989 308.076 546.157 308.83 545.117 309.454C544.077 310.078 542.738 310.39 541.1 310.39ZM541.646 307.543C543.856 307.543 545.403 306.945 546.287 305.749C547.197 304.527 547.652 302.694 547.652 300.25V299.626C547.652 297.026 547.223 295.037 546.365 293.659C545.507 292.255 543.921 291.553 541.607 291.553C539.761 291.553 538.37 292.294 537.434 293.776C536.524 295.232 536.069 297.195 536.069 299.665C536.069 302.161 536.524 304.098 537.434 305.476C538.37 306.854 539.774 307.543 541.646 307.543ZM566.108 310.39C564.262 310.39 562.611 309.974 561.155 309.142C559.725 308.284 558.594 307.049 557.762 305.437C556.93 303.799 556.514 301.823 556.514 299.509C556.514 296.051 557.385 293.386 559.127 291.514C560.869 289.642 563.235 288.706 566.225 288.706C568.123 288.706 569.787 289.135 571.217 289.993C572.673 290.825 573.804 292.047 574.61 293.659C575.442 295.245 575.858 297.195 575.858 299.509C575.858 302.967 574.974 305.645 573.206 307.543C571.464 309.441 569.098 310.39 566.108 310.39ZM566.186 307.543C568.292 307.543 569.839 306.828 570.827 305.398C571.815 303.942 572.309 301.979 572.309 299.509C572.309 297.039 571.815 295.102 570.827 293.698C569.839 292.294 568.279 291.592 566.147 291.592C564.015 291.592 562.468 292.294 561.506 293.698C560.544 295.102 560.063 297.039 560.063 299.509C560.063 301.979 560.544 303.942 561.506 305.398C562.494 306.828 564.054 307.543 566.186 307.543ZM581.297 310V289.096H584.066L584.573 291.943H584.768C585.418 290.851 586.289 290.045 587.381 289.525C588.499 288.979 589.682 288.706 590.93 288.706C594.206 288.706 596.338 289.876 597.326 292.216H597.521C598.223 291.02 599.172 290.136 600.368 289.564C601.59 288.992 602.877 288.706 604.229 288.706C606.595 288.706 608.363 289.317 609.533 290.539C610.703 291.735 611.288 293.685 611.288 296.389V310H607.895V296.545C607.895 293.243 606.478 291.592 603.644 291.592C601.616 291.592 600.16 292.177 599.276 293.347C598.418 294.517 597.989 296.22 597.989 298.456V310H594.596V296.545C594.596 293.243 593.166 291.592 590.306 291.592C588.2 291.592 586.744 292.242 585.938 293.542C585.132 294.842 584.729 296.714 584.729 299.158V310H581.297ZM622.816 310.39C620.918 310.39 619.345 309.896 618.097 308.908C616.849 307.894 616.225 306.321 616.225 304.189C616.225 302.109 617.044 300.51 618.682 299.392C620.32 298.248 622.842 297.624 626.248 297.52L629.797 297.403V296.155C629.797 294.413 629.42 293.204 628.666 292.528C627.912 291.852 626.846 291.514 625.468 291.514C624.376 291.514 623.336 291.683 622.348 292.021C621.36 292.333 620.437 292.697 619.579 293.113L618.526 290.539C619.436 290.045 620.515 289.629 621.763 289.291C623.011 288.927 624.311 288.745 625.663 288.745C628.211 288.745 630.096 289.304 631.318 290.422C632.54 291.54 633.151 293.321 633.151 295.765V310H630.655L629.992 307.036H629.836C628.926 308.18 627.964 309.025 626.95 309.571C625.962 310.117 624.584 310.39 622.816 310.39ZM623.596 307.621C625.364 307.621 626.833 307.14 628.003 306.178C629.173 305.19 629.758 303.682 629.758 301.654V299.782L626.677 299.899C624.077 300.003 622.27 300.419 621.256 301.147C620.268 301.875 619.774 302.902 619.774 304.228C619.774 305.398 620.125 306.256 620.827 306.802C621.555 307.348 622.478 307.621 623.596 307.621ZM646.003 310.39C644.911 310.39 643.897 310.208 642.961 309.844C642.051 309.454 641.31 308.791 640.738 307.855C640.166 306.919 639.88 305.606 639.88 303.916V291.748H636.916V290.11L639.919 288.745L641.284 284.299H643.312V289.096H649.357V291.748H643.312V303.838C643.312 305.112 643.611 306.061 644.209 306.685C644.833 307.283 645.626 307.582 646.588 307.582C647.108 307.582 647.641 307.543 648.187 307.465C648.733 307.361 649.175 307.257 649.513 307.153V309.766C649.149 309.948 648.629 310.091 647.953 310.195C647.277 310.325 646.627 310.39 646.003 310.39Z" fill="black"/>
</g>
</g>
</svg>
