<svg width="1921" height="1081" viewBox="0 0 1921 1081" fill="none" xmlns="http://www.w3.org/2000/svg">
<g id="Examples">
<rect width="1920" height="1080" transform="translate(0.719727 0.279785)" fill="white"/>
<path id="times2(n):" d="M242.74 358C240.569 358 238.971 357.428 237.944 356.284C236.917 355.14 236.404 353.659 236.404 351.84V339.74H229.804V335.296H234.292C235.201 335.296 235.847 335.12 236.228 334.768C236.609 334.387 236.8 333.727 236.8 332.788V327.288H242.036V335.296H251.276V339.74H242.036V353.556H251.276V358H242.74ZM268.991 331.776C267.671 331.776 266.732 331.497 266.175 330.94C265.647 330.383 265.383 329.708 265.383 328.916V327.86C265.383 327.068 265.647 326.393 266.175 325.836C266.732 325.279 267.671 325 268.991 325C270.311 325 271.235 325.279 271.763 325.836C272.32 326.393 272.599 327.068 272.599 327.86V328.916C272.599 329.708 272.32 330.383 271.763 330.94C271.235 331.497 270.311 331.776 268.991 331.776ZM258.695 353.556H266.175V339.74H258.695V335.296H271.807V353.556H278.759V358H258.695V353.556ZM282.394 358V335.296H287.058V338.42H287.322C287.674 337.423 288.172 336.572 288.818 335.868C289.492 335.135 290.431 334.768 291.634 334.768C292.778 334.768 293.687 335.105 294.362 335.78C295.036 336.425 295.476 337.349 295.682 338.552H295.902C296.283 337.525 296.84 336.645 297.574 335.912C298.336 335.149 299.407 334.768 300.786 334.768C302.458 334.768 303.66 335.369 304.394 336.572C305.127 337.775 305.494 339.549 305.494 341.896V358H300.874V342.556C300.874 341.236 300.683 340.312 300.302 339.784C299.95 339.256 299.407 338.992 298.674 338.992C297.999 338.992 297.427 339.212 296.958 339.652C296.518 340.092 296.298 340.767 296.298 341.676V358H291.634V342.556C291.634 341.236 291.458 340.312 291.106 339.784C290.754 339.256 290.211 338.992 289.478 338.992C288.774 338.992 288.187 339.212 287.718 339.652C287.278 340.092 287.058 340.767 287.058 341.676V358H282.394ZM320.876 358.528C319.058 358.528 317.444 358.249 316.036 357.692C314.628 357.135 313.44 356.343 312.472 355.316C311.534 354.289 310.815 353.057 310.316 351.62C309.818 350.153 309.568 348.511 309.568 346.692C309.568 344.844 309.818 343.187 310.316 341.72C310.844 340.253 311.578 339.007 312.516 337.98C313.455 336.953 314.584 336.161 315.904 335.604C317.254 335.047 318.764 334.768 320.436 334.768C322.079 334.768 323.56 335.047 324.88 335.604C326.2 336.132 327.315 336.895 328.224 337.892C329.163 338.889 329.882 340.092 330.38 341.5C330.879 342.908 331.128 344.463 331.128 346.164V348.012H315.2V348.584C315.2 350.227 315.714 351.561 316.74 352.588C317.767 353.585 319.204 354.084 321.052 354.084C322.46 354.084 323.663 353.805 324.66 353.248C325.687 352.661 326.538 351.899 327.212 350.96L330.424 354.172C329.603 355.375 328.4 356.401 326.816 357.252C325.262 358.103 323.282 358.528 320.876 358.528ZM320.48 338.904C318.896 338.904 317.62 339.403 316.652 340.4C315.684 341.397 315.2 342.717 315.2 344.36V344.668H325.496V344.272C325.496 342.629 325.042 341.324 324.132 340.356C323.252 339.388 322.035 338.904 320.48 338.904ZM346.643 358.528C344.15 358.528 341.994 358.147 340.175 357.384C338.357 356.592 336.934 355.536 335.907 354.216L339.207 351.224C340.146 352.251 341.217 353.043 342.419 353.6C343.651 354.157 345.074 354.436 346.687 354.436C348.095 354.436 349.225 354.201 350.075 353.732C350.926 353.263 351.351 352.544 351.351 351.576C351.351 350.755 351.058 350.197 350.471 349.904C349.914 349.611 349.166 349.391 348.227 349.244L344.575 348.672C343.637 348.525 342.713 348.32 341.803 348.056C340.923 347.763 340.131 347.367 339.427 346.868C338.753 346.369 338.21 345.739 337.799 344.976C337.389 344.184 337.183 343.231 337.183 342.116C337.183 339.74 338.063 337.921 339.823 336.66C341.613 335.399 344.062 334.768 347.171 334.768C349.371 334.768 351.234 335.076 352.759 335.692C354.314 336.308 355.59 337.173 356.587 338.288L353.639 341.544C352.994 340.84 352.129 340.224 351.043 339.696C349.987 339.139 348.638 338.86 346.995 338.86C344.121 338.86 342.683 339.755 342.683 341.544C342.683 342.365 342.977 342.937 343.563 343.26C344.15 343.553 344.913 343.773 345.851 343.92L349.459 344.492C350.427 344.639 351.351 344.859 352.231 345.152C353.141 345.416 353.933 345.797 354.607 346.296C355.311 346.795 355.869 347.425 356.279 348.188C356.69 348.951 356.895 349.889 356.895 351.004C356.895 353.351 355.986 355.199 354.167 356.548C352.378 357.868 349.87 358.528 346.643 358.528ZM384.114 358H362.466V352.632L372.322 344.228C373.965 342.82 375.182 341.544 375.974 340.4C376.766 339.227 377.162 337.98 377.162 336.66V336.22C377.162 334.753 376.751 333.639 375.93 332.876C375.109 332.113 373.965 331.732 372.498 331.732C370.885 331.732 369.653 332.172 368.802 333.052C367.951 333.932 367.335 335.017 366.954 336.308L361.938 334.416C362.261 333.419 362.715 332.465 363.302 331.556C363.918 330.617 364.666 329.796 365.546 329.092C366.455 328.388 367.526 327.831 368.758 327.42C369.99 326.98 371.398 326.76 372.982 326.76C374.625 326.76 376.077 326.995 377.338 327.464C378.629 327.904 379.714 328.535 380.594 329.356C381.474 330.148 382.134 331.101 382.574 332.216C383.043 333.331 383.278 334.548 383.278 335.868C383.278 337.129 383.073 338.288 382.662 339.344C382.281 340.4 381.738 341.412 381.034 342.38C380.33 343.319 379.494 344.228 378.526 345.108C377.587 345.988 376.561 346.868 375.446 347.748L368.758 353.16H384.114V358ZM394.349 344.316C394.349 342.175 394.584 340.121 395.053 338.156C395.552 336.161 396.212 334.313 397.033 332.612C397.884 330.911 398.866 329.385 399.981 328.036C401.096 326.657 402.269 325.499 403.501 324.56H409.133C407.813 325.499 406.552 326.599 405.349 327.86C404.146 329.121 403.09 330.515 402.181 332.04C401.272 333.536 400.538 335.149 399.981 336.88C399.453 338.581 399.189 340.356 399.189 342.204V346.428C399.189 348.276 399.453 350.065 399.981 351.796C400.538 353.497 401.272 355.111 402.181 356.636C403.09 358.132 404.146 359.511 405.349 360.772C406.552 362.033 407.813 363.133 409.133 364.072H403.501C402.269 363.163 401.096 362.019 399.981 360.64C398.866 359.261 397.884 357.721 397.033 356.02C396.212 354.319 395.552 352.485 395.053 350.52C394.584 348.525 394.349 346.457 394.349 344.316ZM415.98 358V335.296H421.612V339.3H421.832C422.33 338.068 423.093 337.012 424.12 336.132C425.176 335.223 426.628 334.768 428.476 334.768C430.705 334.768 432.509 335.516 433.888 337.012C435.296 338.479 436 340.591 436 343.348V358H430.368V344.14C430.368 340.855 428.945 339.212 426.1 339.212C425.513 339.212 424.956 339.285 424.428 339.432C423.9 339.579 423.416 339.813 422.976 340.136C422.565 340.429 422.228 340.796 421.964 341.236C421.729 341.676 421.612 342.204 421.612 342.82V358H415.98ZM457.411 344.316C457.411 346.457 457.161 348.525 456.663 350.52C456.193 352.485 455.533 354.319 454.683 356.02C453.861 357.721 452.893 359.261 451.779 360.64C450.664 362.019 449.491 363.163 448.259 364.072H442.627C443.947 363.133 445.208 362.033 446.411 360.772C447.613 359.511 448.669 358.132 449.579 356.636C450.488 355.111 451.207 353.497 451.735 351.796C452.292 350.065 452.571 348.276 452.571 346.428V342.204C452.571 340.356 452.292 338.581 451.735 336.88C451.207 335.149 450.488 333.536 449.579 332.04C448.669 330.515 447.613 329.121 446.411 327.86C445.208 326.599 443.947 325.499 442.627 324.56H448.259C449.491 325.499 450.664 326.657 451.779 328.036C452.893 329.385 453.861 330.911 454.683 332.612C455.533 334.313 456.193 336.161 456.663 338.156C457.161 340.121 457.411 342.175 457.411 344.316ZM478.645 358.484C477.12 358.484 476.035 358.161 475.389 357.516C474.744 356.871 474.421 356.079 474.421 355.14V353.82C474.421 352.881 474.744 352.089 475.389 351.444C476.035 350.799 477.12 350.476 478.645 350.476C480.171 350.476 481.256 350.799 481.901 351.444C482.547 352.089 482.869 352.881 482.869 353.82V355.14C482.869 356.079 482.547 356.871 481.901 357.516C481.256 358.161 480.171 358.484 478.645 358.484ZM478.645 342.864C477.12 342.864 476.035 342.541 475.389 341.896C474.744 341.251 474.421 340.459 474.421 339.52V338.2C474.421 337.261 474.744 336.469 475.389 335.824C476.035 335.179 477.12 334.856 478.645 334.856C480.171 334.856 481.256 335.179 481.901 335.824C482.547 336.469 482.869 337.261 482.869 338.2V339.52C482.869 340.459 482.547 341.251 481.901 341.896C481.256 342.541 480.171 342.864 478.645 342.864Z" fill="black"/>
<g id="for i in 1..n:">
<path d="M299.24 502.345H306.092V488.224H298.824V484.569H306.092V480.707C306.092 479.101 306.535 477.799 307.421 476.803C308.307 475.778 309.692 475.266 311.575 475.266H318.801V478.921H310.619V484.569H318.801V488.224H310.619V502.345H317.846V506H299.24V502.345ZM333.363 506.498C331.785 506.498 330.359 506.235 329.085 505.709C327.839 505.183 326.773 504.436 325.887 503.467C325.029 502.497 324.364 501.321 323.894 499.936C323.423 498.552 323.188 497.001 323.188 495.285C323.188 493.568 323.423 492.017 323.894 490.633C324.364 489.249 325.029 488.072 325.887 487.103C326.773 486.134 327.839 485.386 329.085 484.86C330.359 484.334 331.785 484.071 333.363 484.071C334.941 484.071 336.353 484.334 337.599 484.86C338.873 485.386 339.939 486.134 340.797 487.103C341.683 488.072 342.362 489.249 342.832 490.633C343.303 492.017 343.538 493.568 343.538 495.285C343.538 497.001 343.303 498.552 342.832 499.936C342.362 501.321 341.683 502.497 340.797 503.467C339.939 504.436 338.873 505.183 337.599 505.709C336.353 506.235 334.941 506.498 333.363 506.498ZM333.363 502.927C335.024 502.927 336.34 502.428 337.309 501.431C338.305 500.407 338.804 498.898 338.804 496.904V493.665C338.804 491.671 338.305 490.176 337.309 489.179C336.34 488.155 335.024 487.643 333.363 487.643C331.702 487.643 330.373 488.155 329.376 489.179C328.407 490.176 327.922 491.671 327.922 493.665V496.904C327.922 498.898 328.407 500.407 329.376 501.431C330.373 502.428 331.702 502.927 333.363 502.927ZM348.963 502.345H354.653V488.224H348.963V484.569H359.18V490.259H359.429C359.623 489.512 359.9 488.792 360.26 488.099C360.62 487.407 361.077 486.812 361.63 486.314C362.184 485.788 362.863 485.372 363.665 485.068C364.468 484.735 365.41 484.569 366.49 484.569H369.065V488.889H364.828C363.167 488.889 361.81 489.387 360.758 490.384C359.706 491.353 359.18 492.668 359.18 494.329V502.345H366.947V506H348.963V502.345Z" fill="#3867D6"/>
<path d="M409.402 479.835C408.433 479.835 407.754 479.641 407.367 479.253C406.979 478.838 406.785 478.326 406.785 477.716V477.052C406.785 476.443 406.979 475.944 407.367 475.557C407.754 475.141 408.433 474.934 409.402 474.934C410.371 474.934 411.049 475.141 411.437 475.557C411.825 475.944 412.018 476.443 412.018 477.052V477.716C412.018 478.326 411.825 478.838 411.437 479.253C411.049 479.641 410.371 479.835 409.402 479.835ZM400.016 503.176H407.741V487.393H400.016V484.569H411.063V503.176H418.29V506H400.016V503.176ZM459.208 479.835C458.239 479.835 457.561 479.641 457.173 479.253C456.786 478.838 456.592 478.326 456.592 477.716V477.052C456.592 476.443 456.786 475.944 457.173 475.557C457.561 475.141 458.239 474.934 459.208 474.934C460.177 474.934 460.856 475.141 461.243 475.557C461.631 475.944 461.825 476.443 461.825 477.052V477.716C461.825 478.326 461.631 478.838 461.243 479.253C460.856 479.641 460.177 479.835 459.208 479.835ZM449.822 503.176H457.547V487.393H449.822V484.569H460.87V503.176H468.096V506H449.822V503.176ZM474.393 506V484.569H477.716V488.058H477.882C478.103 487.532 478.38 487.033 478.712 486.563C479.045 486.064 479.446 485.635 479.917 485.275C480.415 484.915 480.997 484.625 481.661 484.403C482.326 484.182 483.101 484.071 483.987 484.071C486.23 484.071 488.03 484.791 489.386 486.231C490.743 487.643 491.421 489.65 491.421 492.253V506H488.099V492.834C488.099 490.868 487.67 489.415 486.811 488.473C485.953 487.504 484.693 487.02 483.032 487.02C482.367 487.02 481.717 487.103 481.08 487.269C480.443 487.435 479.875 487.684 479.377 488.016C478.879 488.349 478.477 488.778 478.173 489.304C477.868 489.83 477.716 490.439 477.716 491.131V506H474.393ZM523.66 506V502.968H531.966V479.585H531.675L524.366 486.397L522.331 484.195L530.014 477.01H535.455V502.968H543.097V506H523.66ZM557.492 506.374C556.357 506.374 555.554 506.138 555.084 505.668C554.641 505.197 554.419 504.602 554.419 503.882V503.134C554.419 502.414 554.641 501.819 555.084 501.348C555.554 500.878 556.357 500.642 557.492 500.642C558.628 500.642 559.417 500.878 559.86 501.348C560.33 501.819 560.566 502.414 560.566 503.134V503.882C560.566 504.602 560.33 505.197 559.86 505.668C559.417 506.138 558.628 506.374 557.492 506.374ZM582.396 506.374C581.26 506.374 580.457 506.138 579.987 505.668C579.544 505.197 579.322 504.602 579.322 503.882V503.134C579.322 502.414 579.544 501.819 579.987 501.348C580.457 500.878 581.26 500.642 582.396 500.642C583.531 500.642 584.32 500.878 584.763 501.348C585.234 501.819 585.469 502.414 585.469 503.134V503.882C585.469 504.602 585.234 505.197 584.763 505.668C584.32 506.138 583.531 506.374 582.396 506.374ZM598.909 506V484.569H602.232V488.058H602.398C602.62 487.532 602.896 487.033 603.229 486.563C603.561 486.064 603.962 485.635 604.433 485.275C604.932 484.915 605.513 484.625 606.178 484.403C606.842 484.182 607.617 484.071 608.503 484.071C610.746 484.071 612.546 484.791 613.903 486.231C615.259 487.643 615.938 489.65 615.938 492.253V506H612.615V492.834C612.615 490.868 612.186 489.415 611.328 488.473C610.469 487.504 609.209 487.02 607.548 487.02C606.884 487.02 606.233 487.103 605.596 487.269C604.959 487.435 604.392 487.684 603.893 488.016C603.395 488.349 602.993 488.778 602.689 489.304C602.384 489.83 602.232 490.439 602.232 491.131V506H598.909ZM632.202 506.374C631.067 506.374 630.264 506.138 629.793 505.668C629.35 505.197 629.129 504.602 629.129 503.882V503.134C629.129 502.414 629.35 501.819 629.793 501.348C630.264 500.878 631.067 500.642 632.202 500.642C633.337 500.642 634.127 500.878 634.57 501.348C635.04 501.819 635.276 502.414 635.276 503.134V503.882C635.276 504.602 635.04 505.197 634.57 505.668C634.127 506.138 633.337 506.374 632.202 506.374ZM632.202 489.927C631.067 489.927 630.264 489.692 629.793 489.221C629.35 488.75 629.129 488.155 629.129 487.435V486.687C629.129 485.967 629.35 485.372 629.793 484.901C630.264 484.431 631.067 484.195 632.202 484.195C633.337 484.195 634.127 484.431 634.57 484.901C635.04 485.372 635.276 485.967 635.276 486.687V487.435C635.276 488.155 635.04 488.75 634.57 489.221C634.127 489.692 633.337 489.927 632.202 489.927Z" fill="#595959"/>
</g>
<g id="double = +1(double)">
<path d="M414.7 577.304H414.524C413.057 580.12 410.725 581.528 407.528 581.528C404.741 581.528 402.556 580.487 400.972 578.404C399.417 576.321 398.64 573.403 398.64 569.648C398.64 565.893 399.417 562.975 400.972 560.892C402.556 558.809 404.741 557.768 407.528 557.768C410.725 557.768 413.057 559.176 414.524 561.992H414.7V548.44H418.22V581H414.7V577.304ZM408.892 578.404C409.684 578.404 410.432 578.301 411.136 578.096C411.84 577.891 412.456 577.597 412.984 577.216C413.512 576.805 413.923 576.321 414.216 575.764C414.539 575.177 414.7 574.503 414.7 573.74V565.556C414.7 564.793 414.539 564.133 414.216 563.576C413.923 562.989 413.512 562.505 412.984 562.124C412.456 561.713 411.84 561.405 411.136 561.2C410.432 560.995 409.684 560.892 408.892 560.892C406.839 560.892 405.24 561.523 404.096 562.784C402.981 564.016 402.424 565.659 402.424 567.712V571.584C402.424 573.637 402.981 575.295 404.096 576.556C405.24 577.788 406.839 578.404 408.892 578.404ZM435.583 581.528C433.999 581.528 432.561 581.249 431.271 580.692C430.009 580.135 428.924 579.343 428.015 578.316C427.135 577.26 426.46 576.013 425.991 574.576C425.521 573.109 425.287 571.467 425.287 569.648C425.287 567.859 425.521 566.231 425.991 564.764C426.46 563.297 427.135 562.051 428.015 561.024C428.924 559.968 430.009 559.161 431.271 558.604C432.561 558.047 433.999 557.768 435.583 557.768C437.167 557.768 438.589 558.047 439.851 558.604C441.141 559.161 442.227 559.968 443.107 561.024C444.016 562.051 444.705 563.297 445.175 564.764C445.644 566.231 445.879 567.859 445.879 569.648C445.879 571.467 445.644 573.109 445.175 574.576C444.705 576.013 444.016 577.26 443.107 578.316C442.227 579.343 441.141 580.135 439.851 580.692C438.589 581.249 437.167 581.528 435.583 581.528ZM435.583 578.492C437.548 578.492 439.132 577.905 440.335 576.732C441.537 575.559 442.139 573.74 442.139 571.276V568.02C442.139 565.556 441.537 563.737 440.335 562.564C439.132 561.391 437.548 560.804 435.583 560.804C433.617 560.804 432.033 561.391 430.831 562.564C429.628 563.737 429.027 565.556 429.027 568.02V571.276C429.027 573.74 429.628 575.559 430.831 576.732C432.033 577.905 433.617 578.492 435.583 578.492ZM467.334 577.304H467.158C466.923 577.861 466.63 578.404 466.278 578.932C465.926 579.431 465.486 579.871 464.958 580.252C464.459 580.633 463.858 580.941 463.154 581.176C462.45 581.411 461.628 581.528 460.69 581.528C458.314 581.528 456.407 580.78 454.97 579.284C453.532 577.759 452.814 575.617 452.814 572.86V558.296H456.334V572.244C456.334 574.327 456.788 575.881 457.698 576.908C458.607 577.905 459.942 578.404 461.702 578.404C462.406 578.404 463.095 578.316 463.77 578.14C464.444 577.964 465.046 577.7 465.574 577.348C466.102 576.996 466.527 576.556 466.85 576.028C467.172 575.471 467.334 574.811 467.334 574.048V558.296H470.854V581H467.334V577.304ZM479.328 548.44H482.848V561.992H483.024C484.491 559.176 486.823 557.768 490.02 557.768C492.807 557.768 494.978 558.809 496.532 560.892C498.116 562.975 498.908 565.893 498.908 569.648C498.908 573.403 498.116 576.321 496.532 578.404C494.978 580.487 492.807 581.528 490.02 581.528C486.823 581.528 484.491 580.12 483.024 577.304H482.848V581H479.328V548.44ZM488.656 578.404C490.71 578.404 492.294 577.788 493.408 576.556C494.552 575.295 495.124 573.637 495.124 571.584V567.712C495.124 565.659 494.552 564.016 493.408 562.784C492.294 561.523 490.71 560.892 488.656 560.892C487.864 560.892 487.116 560.995 486.412 561.2C485.708 561.405 485.092 561.713 484.564 562.124C484.036 562.505 483.611 562.989 483.288 563.576C482.995 564.133 482.848 564.793 482.848 565.556V573.74C482.848 574.503 482.995 575.177 483.288 575.764C483.611 576.321 484.036 576.805 484.564 577.216C485.092 577.597 485.708 577.891 486.412 578.096C487.116 578.301 487.864 578.404 488.656 578.404ZM505.051 578.008H512.971V551.432H505.051V548.44H516.491V578.008H524.411V581H505.051V578.008ZM541.51 581.528C539.867 581.528 538.386 581.249 537.066 580.692C535.775 580.135 534.661 579.343 533.722 578.316C532.813 577.26 532.109 576.013 531.61 574.576C531.111 573.109 530.862 571.481 530.862 569.692C530.862 567.873 531.111 566.231 531.61 564.764C532.138 563.297 532.857 562.051 533.766 561.024C534.675 559.968 535.761 559.161 537.022 558.604C538.313 558.047 539.735 557.768 541.29 557.768C542.815 557.768 544.194 558.047 545.426 558.604C546.687 559.161 547.758 559.939 548.638 560.936C549.518 561.904 550.193 563.063 550.662 564.412C551.131 565.761 551.366 567.243 551.366 568.856V570.528H534.558V571.584C534.558 572.581 534.719 573.505 535.042 574.356C535.365 575.207 535.819 575.94 536.406 576.556C537.022 577.172 537.755 577.656 538.606 578.008C539.486 578.331 540.454 578.492 541.51 578.492C543.035 578.492 544.355 578.14 545.47 577.436C546.585 576.732 547.435 575.764 548.022 574.532L550.618 576.292C549.943 577.817 548.814 579.079 547.23 580.076C545.675 581.044 543.769 581.528 541.51 581.528ZM541.29 560.672C540.322 560.672 539.427 560.848 538.606 561.2C537.785 561.552 537.066 562.036 536.45 562.652C535.863 563.268 535.394 564.001 535.042 564.852C534.719 565.673 534.558 566.583 534.558 567.58V567.888H547.582V567.404C547.582 566.407 547.421 565.497 547.098 564.676C546.805 563.855 546.379 563.151 545.822 562.564C545.294 561.948 544.634 561.479 543.842 561.156C543.079 560.833 542.229 560.672 541.29 560.672ZM583.408 564.632V561.64H604.352V564.632H583.408ZM583.408 573.432V570.44H604.352V573.432H583.408ZM695.231 567.316C695.231 565.175 695.466 563.121 695.935 561.156C696.434 559.161 697.094 557.313 697.915 555.612C698.766 553.911 699.748 552.385 700.863 551.036C701.978 549.657 703.151 548.499 704.383 547.56H707.947C706.656 548.528 705.439 549.657 704.295 550.948C703.18 552.209 702.183 553.603 701.303 555.128C700.452 556.624 699.778 558.252 699.279 560.012C698.78 561.743 698.531 563.547 698.531 565.424V569.208C698.531 571.085 698.78 572.904 699.279 574.664C699.778 576.395 700.452 578.023 701.303 579.548C702.183 581.044 703.18 582.423 704.295 583.684C705.439 584.975 706.656 586.104 707.947 587.072H704.383C703.151 586.163 701.978 585.019 700.863 583.64C699.748 582.261 698.766 580.721 697.915 579.02C697.094 577.319 696.434 575.485 695.935 573.52C695.466 571.525 695.231 569.457 695.231 567.316ZM731.294 577.304H731.118C729.651 580.12 727.319 581.528 724.122 581.528C721.335 581.528 719.15 580.487 717.566 578.404C716.011 576.321 715.234 573.403 715.234 569.648C715.234 565.893 716.011 562.975 717.566 560.892C719.15 558.809 721.335 557.768 724.122 557.768C727.319 557.768 729.651 559.176 731.118 561.992H731.294V548.44H734.814V581H731.294V577.304ZM725.486 578.404C726.278 578.404 727.026 578.301 727.73 578.096C728.434 577.891 729.05 577.597 729.578 577.216C730.106 576.805 730.516 576.321 730.81 575.764C731.132 575.177 731.294 574.503 731.294 573.74V565.556C731.294 564.793 731.132 564.133 730.81 563.576C730.516 562.989 730.106 562.505 729.578 562.124C729.05 561.713 728.434 561.405 727.73 561.2C727.026 560.995 726.278 560.892 725.486 560.892C723.432 560.892 721.834 561.523 720.69 562.784C719.575 564.016 719.018 565.659 719.018 567.712V571.584C719.018 573.637 719.575 575.295 720.69 576.556C721.834 577.788 723.432 578.404 725.486 578.404ZM752.177 581.528C750.593 581.528 749.155 581.249 747.865 580.692C746.603 580.135 745.518 579.343 744.609 578.316C743.729 577.26 743.054 576.013 742.585 574.576C742.115 573.109 741.881 571.467 741.881 569.648C741.881 567.859 742.115 566.231 742.585 564.764C743.054 563.297 743.729 562.051 744.609 561.024C745.518 559.968 746.603 559.161 747.865 558.604C749.155 558.047 750.593 557.768 752.177 557.768C753.761 557.768 755.183 558.047 756.445 558.604C757.735 559.161 758.821 559.968 759.701 561.024C760.61 562.051 761.299 563.297 761.769 564.764C762.238 566.231 762.473 567.859 762.473 569.648C762.473 571.467 762.238 573.109 761.769 574.576C761.299 576.013 760.61 577.26 759.701 578.316C758.821 579.343 757.735 580.135 756.445 580.692C755.183 581.249 753.761 581.528 752.177 581.528ZM752.177 578.492C754.142 578.492 755.726 577.905 756.929 576.732C758.131 575.559 758.733 573.74 758.733 571.276V568.02C758.733 565.556 758.131 563.737 756.929 562.564C755.726 561.391 754.142 560.804 752.177 560.804C750.211 560.804 748.627 561.391 747.425 562.564C746.222 563.737 745.621 565.556 745.621 568.02V571.276C745.621 573.74 746.222 575.559 747.425 576.732C748.627 577.905 750.211 578.492 752.177 578.492ZM783.927 577.304H783.751C783.517 577.861 783.223 578.404 782.871 578.932C782.519 579.431 782.079 579.871 781.551 580.252C781.053 580.633 780.451 580.941 779.747 581.176C779.043 581.411 778.222 581.528 777.283 581.528C774.907 581.528 773.001 580.78 771.563 579.284C770.126 577.759 769.407 575.617 769.407 572.86V558.296H772.927V572.244C772.927 574.327 773.382 575.881 774.291 576.908C775.201 577.905 776.535 578.404 778.295 578.404C778.999 578.404 779.689 578.316 780.363 578.14C781.038 577.964 781.639 577.7 782.167 577.348C782.695 576.996 783.121 576.556 783.443 576.028C783.766 575.471 783.927 574.811 783.927 574.048V558.296H787.447V581H783.927V577.304ZM795.922 548.44H799.442V561.992H799.618C801.085 559.176 803.417 557.768 806.614 557.768C809.401 557.768 811.572 558.809 813.126 560.892C814.71 562.975 815.502 565.893 815.502 569.648C815.502 573.403 814.71 576.321 813.126 578.404C811.572 580.487 809.401 581.528 806.614 581.528C803.417 581.528 801.085 580.12 799.618 577.304H799.442V581H795.922V548.44ZM805.25 578.404C807.304 578.404 808.888 577.788 810.002 576.556C811.146 575.295 811.718 573.637 811.718 571.584V567.712C811.718 565.659 811.146 564.016 810.002 562.784C808.888 561.523 807.304 560.892 805.25 560.892C804.458 560.892 803.71 560.995 803.006 561.2C802.302 561.405 801.686 561.713 801.158 562.124C800.63 562.505 800.205 562.989 799.882 563.576C799.589 564.133 799.442 564.793 799.442 565.556V573.74C799.442 574.503 799.589 575.177 799.882 575.764C800.205 576.321 800.63 576.805 801.158 577.216C801.686 577.597 802.302 577.891 803.006 578.096C803.71 578.301 804.458 578.404 805.25 578.404ZM821.645 578.008H829.565V551.432H821.645V548.44H833.085V578.008H841.005V581H821.645V578.008ZM858.104 581.528C856.461 581.528 854.98 581.249 853.66 580.692C852.369 580.135 851.254 579.343 850.316 578.316C849.406 577.26 848.702 576.013 848.204 574.576C847.705 573.109 847.456 571.481 847.456 569.692C847.456 567.873 847.705 566.231 848.204 564.764C848.732 563.297 849.45 562.051 850.36 561.024C851.269 559.968 852.354 559.161 853.616 558.604C854.906 558.047 856.329 557.768 857.884 557.768C859.409 557.768 860.788 558.047 862.02 558.604C863.281 559.161 864.352 559.939 865.232 560.936C866.112 561.904 866.786 563.063 867.256 564.412C867.725 565.761 867.96 567.243 867.96 568.856V570.528H851.152V571.584C851.152 572.581 851.313 573.505 851.636 574.356C851.958 575.207 852.413 575.94 853 576.556C853.616 577.172 854.349 577.656 855.2 578.008C856.08 578.331 857.048 578.492 858.104 578.492C859.629 578.492 860.949 578.14 862.064 577.436C863.178 576.732 864.029 575.764 864.616 574.532L867.212 576.292C866.537 577.817 865.408 579.079 863.824 580.076C862.269 581.044 860.362 581.528 858.104 581.528ZM857.884 560.672C856.916 560.672 856.021 560.848 855.2 561.2C854.378 561.552 853.66 562.036 853.044 562.652C852.457 563.268 851.988 564.001 851.636 564.852C851.313 565.673 851.152 566.583 851.152 567.58V567.888H864.176V567.404C864.176 566.407 864.014 565.497 863.692 564.676C863.398 563.855 862.973 563.151 862.416 562.564C861.888 561.948 861.228 561.479 860.436 561.156C859.673 560.833 858.822 560.672 857.884 560.672ZM888.271 567.316C888.271 569.457 888.021 571.525 887.523 573.52C887.053 575.485 886.393 577.319 885.543 579.02C884.721 580.721 883.753 582.261 882.639 583.64C881.524 585.019 880.351 586.163 879.119 587.072H875.555C876.816 586.104 878.019 584.975 879.163 583.684C880.307 582.423 881.304 581.044 882.155 579.548C883.035 578.023 883.724 576.395 884.223 574.664C884.721 572.904 884.971 571.085 884.971 569.208V565.424C884.971 563.547 884.721 561.743 884.223 560.012C883.724 558.252 883.035 556.624 882.155 555.128C881.304 553.603 880.307 552.209 879.163 550.948C878.019 549.657 876.816 548.528 875.555 547.56H879.119C880.351 548.499 881.524 549.657 882.639 551.036C883.753 552.385 884.721 553.911 885.543 555.612C886.393 557.313 887.053 559.161 887.523 561.156C888.021 563.121 888.271 565.175 888.271 567.316Z" fill="#595959"/>
<path d="M644.181 578.272V569.824H636.173V565.292H644.181V556.844H649.109V565.292H657.117V569.824H649.109V578.272H644.181ZM663.832 581V576.292H672.28V554.468H671.884L665.196 562.388L661.588 559.352L669.2 550.288H678.044V576.292H684.996V581H663.832Z" fill="#D648BC"/>
</g>
<path id="double = n" d="M313.651 429.511H313.485C312.101 432.169 309.9 433.498 306.882 433.498C304.251 433.498 302.188 432.515 300.693 430.55C299.226 428.584 298.492 425.829 298.492 422.285C298.492 418.741 299.226 415.986 300.693 414.02C302.188 412.054 304.251 411.071 306.882 411.071C309.9 411.071 312.101 412.4 313.485 415.058H313.651V402.266H316.974V433H313.651V429.511ZM308.169 430.55C308.917 430.55 309.623 430.453 310.287 430.259C310.952 430.065 311.533 429.788 312.032 429.428C312.53 429.041 312.918 428.584 313.194 428.058C313.499 427.504 313.651 426.867 313.651 426.147V418.422C313.651 417.702 313.499 417.079 313.194 416.553C312.918 415.999 312.53 415.543 312.032 415.183C311.533 414.795 310.952 414.504 310.287 414.31C309.623 414.117 308.917 414.02 308.169 414.02C306.231 414.02 304.722 414.615 303.642 415.806C302.59 416.968 302.064 418.519 302.064 420.457V424.112C302.064 426.05 302.59 427.615 303.642 428.805C304.722 429.968 306.231 430.55 308.169 430.55ZM333.363 433.498C331.868 433.498 330.511 433.235 329.293 432.709C328.102 432.183 327.078 431.436 326.219 430.467C325.389 429.47 324.752 428.293 324.309 426.936C323.866 425.552 323.644 424.001 323.644 422.285C323.644 420.596 323.866 419.059 324.309 417.675C324.752 416.29 325.389 415.113 326.219 414.144C327.078 413.147 328.102 412.386 329.293 411.86C330.511 411.334 331.868 411.071 333.363 411.071C334.858 411.071 336.201 411.334 337.392 411.86C338.61 412.386 339.634 413.147 340.465 414.144C341.323 415.113 341.974 416.29 342.417 417.675C342.86 419.059 343.082 420.596 343.082 422.285C343.082 424.001 342.86 425.552 342.417 426.936C341.974 428.293 341.323 429.47 340.465 430.467C339.634 431.436 338.61 432.183 337.392 432.709C336.201 433.235 334.858 433.498 333.363 433.498ZM333.363 430.633C335.218 430.633 336.713 430.079 337.849 428.971C338.984 427.864 339.551 426.147 339.551 423.821V420.748C339.551 418.422 338.984 416.705 337.849 415.598C336.713 414.49 335.218 413.937 333.363 413.937C331.508 413.937 330.013 414.49 328.878 415.598C327.742 416.705 327.175 418.422 327.175 420.748V423.821C327.175 426.147 327.742 427.864 328.878 428.971C330.013 430.079 331.508 430.633 333.363 430.633ZM363.333 429.511H363.167C362.946 430.037 362.669 430.55 362.336 431.048C362.004 431.519 361.589 431.934 361.09 432.294C360.62 432.654 360.052 432.945 359.388 433.166C358.723 433.388 357.948 433.498 357.062 433.498C354.819 433.498 353.019 432.792 351.663 431.38C350.306 429.94 349.628 427.919 349.628 425.316V411.569H352.95V424.735C352.95 426.701 353.379 428.168 354.238 429.137C355.096 430.079 356.356 430.55 358.017 430.55C358.682 430.55 359.332 430.467 359.969 430.3C360.606 430.134 361.174 429.885 361.672 429.553C362.17 429.221 362.572 428.805 362.876 428.307C363.181 427.781 363.333 427.158 363.333 426.438V411.569H366.656V433H363.333V429.511ZM374.655 402.266H377.978V415.058H378.144C379.529 412.4 381.73 411.071 384.748 411.071C387.378 411.071 389.427 412.054 390.895 414.02C392.39 415.986 393.137 418.741 393.137 422.285C393.137 425.829 392.39 428.584 390.895 430.55C389.427 432.515 387.378 433.498 384.748 433.498C381.73 433.498 379.529 432.169 378.144 429.511H377.978V433H374.655V402.266ZM383.46 430.55C385.398 430.55 386.894 429.968 387.946 428.805C389.026 427.615 389.566 426.05 389.566 424.112V420.457C389.566 418.519 389.026 416.968 387.946 415.806C386.894 414.615 385.398 414.02 383.46 414.02C382.713 414.02 382.007 414.117 381.342 414.31C380.678 414.504 380.096 414.795 379.598 415.183C379.099 415.543 378.698 415.999 378.393 416.553C378.116 417.079 377.978 417.702 377.978 418.422V426.147C377.978 426.867 378.116 427.504 378.393 428.058C378.698 428.584 379.099 429.041 379.598 429.428C380.096 429.788 380.678 430.065 381.342 430.259C382.007 430.453 382.713 430.55 383.46 430.55ZM398.936 430.176H406.412V405.09H398.936V402.266H409.734V430.176H417.21V433H398.936V430.176ZM433.35 433.498C431.799 433.498 430.401 433.235 429.155 432.709C427.937 432.183 426.885 431.436 425.999 430.467C425.14 429.47 424.476 428.293 424.005 426.936C423.534 425.552 423.299 424.015 423.299 422.326C423.299 420.609 423.534 419.059 424.005 417.675C424.503 416.29 425.182 415.113 426.04 414.144C426.898 413.147 427.923 412.386 429.114 411.86C430.332 411.334 431.675 411.071 433.142 411.071C434.582 411.071 435.883 411.334 437.046 411.86C438.237 412.386 439.247 413.12 440.078 414.061C440.909 414.975 441.546 416.069 441.989 417.342C442.432 418.616 442.653 420.014 442.653 421.537V423.115H426.788V424.112C426.788 425.053 426.94 425.926 427.245 426.729C427.549 427.532 427.978 428.224 428.532 428.805C429.114 429.387 429.806 429.844 430.609 430.176C431.439 430.48 432.353 430.633 433.35 430.633C434.79 430.633 436.036 430.3 437.088 429.636C438.14 428.971 438.943 428.058 439.497 426.895L441.947 428.556C441.31 429.996 440.244 431.186 438.749 432.128C437.282 433.042 435.482 433.498 433.35 433.498ZM433.142 413.812C432.228 413.812 431.384 413.978 430.609 414.31C429.833 414.643 429.155 415.099 428.574 415.681C428.02 416.262 427.577 416.955 427.245 417.758C426.94 418.533 426.788 419.391 426.788 420.333V420.623H439.081V420.166C439.081 419.225 438.929 418.367 438.624 417.591C438.348 416.816 437.946 416.152 437.42 415.598C436.922 415.016 436.299 414.573 435.551 414.269C434.831 413.964 434.028 413.812 433.142 413.812ZM472.898 417.55V414.726H492.667V417.55H472.898ZM472.898 425.856V423.032H492.667V425.856H472.898ZM524.2 433V411.569H527.522V415.058H527.688C527.91 414.532 528.187 414.033 528.519 413.563C528.851 413.064 529.253 412.635 529.723 412.275C530.222 411.915 530.803 411.625 531.468 411.403C532.132 411.182 532.908 411.071 533.794 411.071C536.036 411.071 537.836 411.791 539.193 413.231C540.55 414.643 541.228 416.65 541.228 419.253V433H537.905V419.834C537.905 417.868 537.476 416.415 536.618 415.473C535.759 414.504 534.5 414.02 532.838 414.02C532.174 414.02 531.523 414.103 530.886 414.269C530.249 414.435 529.682 414.684 529.183 415.016C528.685 415.349 528.284 415.778 527.979 416.304C527.674 416.83 527.522 417.439 527.522 418.131V433H524.2Z" fill="#595959"/>
<g id="return double">
<path d="M299.156 651.345H304.846V637.224H299.156V633.569H309.373V639.259H309.623C309.816 638.512 310.093 637.792 310.453 637.099C310.813 636.407 311.27 635.812 311.824 635.314C312.378 634.788 313.056 634.372 313.859 634.068C314.662 633.735 315.603 633.569 316.683 633.569H319.258V637.889H315.022C313.361 637.889 312.004 638.387 310.952 639.384C309.9 640.353 309.373 641.668 309.373 643.329V651.345H317.14V655H299.156V651.345ZM333.82 655.498C332.186 655.498 330.719 655.235 329.417 654.709C328.116 654.183 327.022 653.436 326.136 652.467C325.25 651.497 324.572 650.335 324.101 648.978C323.631 647.593 323.395 646.043 323.395 644.326C323.395 642.609 323.631 641.059 324.101 639.675C324.6 638.29 325.278 637.113 326.136 636.144C327.022 635.147 328.088 634.386 329.334 633.86C330.58 633.334 331.965 633.071 333.488 633.071C334.983 633.071 336.34 633.334 337.558 633.86C338.776 634.358 339.814 635.078 340.673 636.02C341.531 636.961 342.182 638.082 342.625 639.384C343.095 640.685 343.331 642.125 343.331 643.703V645.406H327.964V646.112C327.964 647.801 328.49 649.185 329.542 650.265C330.594 651.317 332.048 651.844 333.903 651.844C335.287 651.844 336.464 651.553 337.433 650.971C338.43 650.362 339.233 649.559 339.842 648.562L342.666 651.054C341.946 652.3 340.839 653.353 339.344 654.211C337.876 655.069 336.035 655.498 333.82 655.498ZM333.488 636.518C332.685 636.518 331.937 636.656 331.245 636.933C330.58 637.21 329.999 637.612 329.5 638.138C329.03 638.636 328.656 639.232 328.379 639.924C328.102 640.616 327.964 641.377 327.964 642.208V642.499H338.721V642.083C338.721 640.394 338.236 639.052 337.267 638.055C336.326 637.03 335.066 636.518 333.488 636.518ZM359.554 655C357.671 655 356.287 654.502 355.401 653.505C354.515 652.48 354.071 651.165 354.071 649.559V637.224H347.468V633.569H352.161C352.964 633.569 353.532 633.417 353.864 633.112C354.196 632.78 354.362 632.199 354.362 631.368V626.01H358.599V633.569H367.736V637.224H358.599V651.345H367.736V655H359.554ZM387.614 651.345H387.406C387.184 651.899 386.894 652.439 386.534 652.965C386.201 653.463 385.786 653.906 385.288 654.294C384.789 654.654 384.208 654.945 383.543 655.166C382.879 655.388 382.104 655.498 381.218 655.498C379.058 655.498 377.313 654.792 375.984 653.38C374.655 651.968 373.991 649.961 373.991 647.358V633.569H378.518V646.694C378.518 650.099 379.999 651.802 382.962 651.802C383.543 651.802 384.111 651.733 384.665 651.594C385.218 651.428 385.717 651.193 386.16 650.888C386.603 650.584 386.949 650.21 387.198 649.767C387.475 649.296 387.614 648.742 387.614 648.106V633.569H392.141V655H387.614V651.345ZM398.77 651.345H404.459V637.224H398.77V633.569H408.987V639.259H409.236C409.43 638.512 409.706 637.792 410.066 637.099C410.426 636.407 410.883 635.812 411.437 635.314C411.991 634.788 412.669 634.372 413.472 634.068C414.275 633.735 415.216 633.569 416.296 633.569H418.871V637.889H414.635C412.974 637.889 411.617 638.387 410.565 639.384C409.513 640.353 408.987 641.668 408.987 643.329V651.345H416.753V655H398.77V651.345ZM424.005 655V633.569H428.532V637.224H428.74C428.961 636.67 429.238 636.144 429.57 635.646C429.93 635.12 430.36 634.677 430.858 634.317C431.356 633.929 431.938 633.625 432.602 633.403C433.267 633.182 434.042 633.071 434.928 633.071C437.088 633.071 438.832 633.777 440.161 635.189C441.49 636.601 442.155 638.609 442.155 641.211V655H437.628V641.876C437.628 638.47 436.146 636.767 433.184 636.767C432.602 636.767 432.035 636.85 431.481 637.016C430.927 637.155 430.429 637.376 429.986 637.681C429.543 637.986 429.183 638.373 428.906 638.844C428.657 639.315 428.532 639.854 428.532 640.464V655H424.005Z" fill="#4B6584"/>
<path d="M487.974 651.511H487.808C486.424 654.169 484.222 655.498 481.204 655.498C478.574 655.498 476.511 654.515 475.016 652.55C473.549 650.584 472.815 647.829 472.815 644.285C472.815 640.741 473.549 637.986 475.016 636.02C476.511 634.054 478.574 633.071 481.204 633.071C484.222 633.071 486.424 634.4 487.808 637.058H487.974V624.266H491.297V655H487.974V651.511ZM482.492 652.55C483.239 652.55 483.946 652.453 484.61 652.259C485.275 652.065 485.856 651.788 486.354 651.428C486.853 651.041 487.24 650.584 487.517 650.058C487.822 649.504 487.974 648.867 487.974 648.147V640.422C487.974 639.702 487.822 639.079 487.517 638.553C487.24 637.999 486.853 637.543 486.354 637.183C485.856 636.795 485.275 636.504 484.61 636.31C483.946 636.117 483.239 636.02 482.492 636.02C480.554 636.02 479.045 636.615 477.965 637.806C476.913 638.968 476.387 640.519 476.387 642.457V646.112C476.387 648.05 476.913 649.615 477.965 650.805C479.045 651.968 480.554 652.55 482.492 652.55ZM507.686 655.498C506.191 655.498 504.834 655.235 503.616 654.709C502.425 654.183 501.401 653.436 500.542 652.467C499.712 651.47 499.075 650.293 498.632 648.936C498.189 647.552 497.967 646.001 497.967 644.285C497.967 642.596 498.189 641.059 498.632 639.675C499.075 638.29 499.712 637.113 500.542 636.144C501.401 635.147 502.425 634.386 503.616 633.86C504.834 633.334 506.191 633.071 507.686 633.071C509.181 633.071 510.524 633.334 511.715 633.86C512.933 634.386 513.957 635.147 514.788 636.144C515.646 637.113 516.297 638.29 516.74 639.675C517.183 641.059 517.404 642.596 517.404 644.285C517.404 646.001 517.183 647.552 516.74 648.936C516.297 650.293 515.646 651.47 514.788 652.467C513.957 653.436 512.933 654.183 511.715 654.709C510.524 655.235 509.181 655.498 507.686 655.498ZM507.686 652.633C509.541 652.633 511.036 652.079 512.171 650.971C513.307 649.864 513.874 648.147 513.874 645.821V642.748C513.874 640.422 513.307 638.705 512.171 637.598C511.036 636.49 509.541 635.937 507.686 635.937C505.831 635.937 504.336 636.49 503.2 637.598C502.065 638.705 501.498 640.422 501.498 642.748V645.821C501.498 648.147 502.065 649.864 503.2 650.971C504.336 652.079 505.831 652.633 507.686 652.633ZM537.656 651.511H537.49C537.268 652.037 536.992 652.55 536.659 653.048C536.327 653.519 535.912 653.934 535.413 654.294C534.943 654.654 534.375 654.945 533.711 655.166C533.046 655.388 532.271 655.498 531.385 655.498C529.142 655.498 527.342 654.792 525.985 653.38C524.629 651.94 523.95 649.919 523.95 647.316V633.569H527.273V646.735C527.273 648.701 527.702 650.168 528.56 651.137C529.419 652.079 530.679 652.55 532.34 652.55C533.004 652.55 533.655 652.467 534.292 652.3C534.929 652.134 535.496 651.885 535.995 651.553C536.493 651.221 536.895 650.805 537.199 650.307C537.504 649.781 537.656 649.158 537.656 648.438V633.569H540.979V655H537.656V651.511ZM548.978 624.266H552.301V637.058H552.467C553.851 634.4 556.053 633.071 559.071 633.071C561.701 633.071 563.75 634.054 565.217 636.02C566.713 637.986 567.46 640.741 567.46 644.285C567.46 647.829 566.713 650.584 565.217 652.55C563.75 654.515 561.701 655.498 559.071 655.498C556.053 655.498 553.851 654.169 552.467 651.511H552.301V655H548.978V624.266ZM557.783 652.55C559.721 652.55 561.216 651.968 562.269 650.805C563.348 649.615 563.888 648.05 563.888 646.112V642.457C563.888 640.519 563.348 638.968 562.269 637.806C561.216 636.615 559.721 636.02 557.783 636.02C557.036 636.02 556.329 636.117 555.665 636.31C555 636.504 554.419 636.795 553.921 637.183C553.422 637.543 553.021 637.999 552.716 638.553C552.439 639.079 552.301 639.702 552.301 640.422V648.147C552.301 648.867 552.439 649.504 552.716 650.058C553.021 650.584 553.422 651.041 553.921 651.428C554.419 651.788 555 652.065 555.665 652.259C556.329 652.453 557.036 652.55 557.783 652.55ZM573.259 652.176H580.734V627.09H573.259V624.266H584.057V652.176H591.533V655H573.259V652.176ZM607.673 655.498C606.122 655.498 604.724 655.235 603.478 654.709C602.26 654.183 601.207 653.436 600.321 652.467C599.463 651.47 598.799 650.293 598.328 648.936C597.857 647.552 597.622 646.015 597.622 644.326C597.622 642.609 597.857 641.059 598.328 639.675C598.826 638.29 599.505 637.113 600.363 636.144C601.221 635.147 602.246 634.386 603.436 633.86C604.655 633.334 605.998 633.071 607.465 633.071C608.905 633.071 610.206 633.334 611.369 633.86C612.56 634.386 613.57 635.12 614.401 636.061C615.232 636.975 615.868 638.069 616.311 639.342C616.754 640.616 616.976 642.014 616.976 643.537V645.115H601.111V646.112C601.111 647.053 601.263 647.926 601.567 648.729C601.872 649.532 602.301 650.224 602.855 650.805C603.436 651.387 604.129 651.844 604.932 652.176C605.762 652.48 606.676 652.633 607.673 652.633C609.113 652.633 610.358 652.3 611.411 651.636C612.463 650.971 613.266 650.058 613.82 648.895L616.27 650.556C615.633 651.996 614.567 653.186 613.072 654.128C611.604 655.042 609.805 655.498 607.673 655.498ZM607.465 635.812C606.551 635.812 605.707 635.978 604.932 636.31C604.156 636.643 603.478 637.099 602.896 637.681C602.343 638.262 601.9 638.955 601.567 639.758C601.263 640.533 601.111 641.391 601.111 642.333V642.623H613.404V642.166C613.404 641.225 613.252 640.367 612.947 639.591C612.67 638.816 612.269 638.152 611.743 637.598C611.245 637.016 610.622 636.573 609.874 636.269C609.154 635.964 608.351 635.812 607.465 635.812Z" fill="#595959"/>
</g>
<g id="Group_27">
<path id="add(n,m):" d="M1114.56 358C1113.18 358 1112.11 357.663 1111.35 356.988C1110.61 356.284 1110.17 355.316 1110.03 354.084H1109.81C1109.4 355.492 1108.59 356.592 1107.39 357.384C1106.19 358.147 1104.7 358.528 1102.94 358.528C1100.66 358.528 1098.84 357.927 1097.49 356.724C1096.14 355.521 1095.46 353.849 1095.46 351.708C1095.46 347.132 1098.82 344.844 1105.54 344.844H1109.54V343.348C1109.54 341.911 1109.19 340.825 1108.49 340.092C1107.78 339.359 1106.64 338.992 1105.06 338.992C1103.62 338.992 1102.46 339.271 1101.58 339.828C1100.7 340.385 1099.95 341.104 1099.34 341.984L1096.12 339.256C1096.83 337.995 1097.96 336.939 1099.51 336.088C1101.1 335.208 1103.13 334.768 1105.63 334.768C1108.62 334.768 1110.95 335.472 1112.62 336.88C1114.33 338.259 1115.18 340.327 1115.18 343.084V353.776H1117.86V358H1114.56ZM1104.84 354.656C1106.19 354.656 1107.3 354.348 1108.18 353.732C1109.09 353.087 1109.54 352.221 1109.54 351.136V348.1H1105.67C1102.59 348.1 1101.05 349.068 1101.05 351.004V351.884C1101.05 352.793 1101.39 353.483 1102.06 353.952C1102.74 354.421 1103.66 354.656 1104.84 354.656ZM1137.11 353.996H1136.81C1136.19 355.375 1135.34 356.475 1134.25 357.296C1133.2 358.117 1131.79 358.528 1130.03 358.528C1128.74 358.528 1127.55 358.293 1126.47 357.824C1125.41 357.325 1124.5 356.592 1123.74 355.624C1122.98 354.627 1122.39 353.38 1121.98 351.884C1121.57 350.388 1121.36 348.643 1121.36 346.648C1121.36 342.659 1122.15 339.681 1123.74 337.716C1125.32 335.751 1127.42 334.768 1130.03 334.768C1131.79 334.768 1133.2 335.179 1134.25 336C1135.34 336.821 1136.19 337.921 1136.81 339.3H1137.11V325.44H1142.75V358H1137.11V353.996ZM1132.41 354.04C1133.05 354.04 1133.65 353.967 1134.21 353.82C1134.8 353.644 1135.3 353.409 1135.71 353.116C1136.15 352.793 1136.48 352.397 1136.72 351.928C1136.98 351.429 1137.11 350.857 1137.11 350.212V343.084C1137.11 342.439 1136.98 341.881 1136.72 341.412C1136.48 340.913 1136.15 340.517 1135.71 340.224C1135.3 339.901 1134.8 339.667 1134.21 339.52C1133.65 339.344 1133.05 339.256 1132.41 339.256C1130.76 339.256 1129.49 339.755 1128.58 340.752C1127.7 341.749 1127.26 343.113 1127.26 344.844V348.452C1127.26 350.183 1127.7 351.547 1128.58 352.544C1129.49 353.541 1130.76 354.04 1132.41 354.04ZM1163.5 353.996H1163.19C1162.57 355.375 1161.72 356.475 1160.64 357.296C1159.58 358.117 1158.17 358.528 1156.41 358.528C1155.12 358.528 1153.93 358.293 1152.85 357.824C1151.79 357.325 1150.88 356.592 1150.12 355.624C1149.36 354.627 1148.77 353.38 1148.36 351.884C1147.95 350.388 1147.75 348.643 1147.75 346.648C1147.75 342.659 1148.54 339.681 1150.12 337.716C1151.71 335.751 1153.8 334.768 1156.41 334.768C1158.17 334.768 1159.58 335.179 1160.64 336C1161.72 336.821 1162.57 337.921 1163.19 339.3H1163.5V325.44H1169.13V358H1163.5V353.996ZM1158.79 354.04C1159.43 354.04 1160.04 353.967 1160.59 353.82C1161.18 353.644 1161.68 353.409 1162.09 353.116C1162.53 352.793 1162.87 352.397 1163.1 351.928C1163.37 351.429 1163.5 350.857 1163.5 350.212V343.084C1163.5 342.439 1163.37 341.881 1163.1 341.412C1162.87 340.913 1162.53 340.517 1162.09 340.224C1161.68 339.901 1161.18 339.667 1160.59 339.52C1160.04 339.344 1159.43 339.256 1158.79 339.256C1157.15 339.256 1155.87 339.755 1154.96 340.752C1154.08 341.749 1153.64 343.113 1153.64 344.844V348.452C1153.64 350.183 1154.08 351.547 1154.96 352.544C1155.87 353.541 1157.15 354.04 1158.79 354.04ZM1180.2 344.316C1180.2 342.175 1180.44 340.121 1180.9 338.156C1181.4 336.161 1182.06 334.313 1182.88 332.612C1183.74 330.911 1184.72 329.385 1185.83 328.036C1186.95 326.657 1188.12 325.499 1189.35 324.56H1194.98C1193.66 325.499 1192.4 326.599 1191.2 327.86C1190 329.121 1188.94 330.515 1188.03 332.04C1187.12 333.536 1186.39 335.149 1185.83 336.88C1185.3 338.581 1185.04 340.356 1185.04 342.204V346.428C1185.04 348.276 1185.3 350.065 1185.83 351.796C1186.39 353.497 1187.12 355.111 1188.03 356.636C1188.94 358.132 1190 359.511 1191.2 360.772C1192.4 362.033 1193.66 363.133 1194.98 364.072H1189.35C1188.12 363.163 1186.95 362.019 1185.83 360.64C1184.72 359.261 1183.74 357.721 1182.88 356.02C1182.06 354.319 1181.4 352.485 1180.9 350.52C1180.44 348.525 1180.2 346.457 1180.2 344.316ZM1201.83 358V335.296H1207.46V339.3H1207.68C1208.18 338.068 1208.94 337.012 1209.97 336.132C1211.03 335.223 1212.48 334.768 1214.33 334.768C1216.56 334.768 1218.36 335.516 1219.74 337.012C1221.15 338.479 1221.85 340.591 1221.85 343.348V358H1216.22V344.14C1216.22 340.855 1214.8 339.212 1211.95 339.212C1211.36 339.212 1210.81 339.285 1210.28 339.432C1209.75 339.579 1209.27 339.813 1208.83 340.136C1208.42 340.429 1208.08 340.796 1207.82 341.236C1207.58 341.676 1207.46 342.204 1207.46 342.82V358H1201.83ZM1235.3 350.828H1242.87L1237.1 364.512H1232.83L1235.3 350.828ZM1252.92 358V335.296H1257.59V338.42H1257.85C1258.2 337.423 1258.7 336.572 1259.35 335.868C1260.02 335.135 1260.96 334.768 1262.16 334.768C1263.31 334.768 1264.22 335.105 1264.89 335.78C1265.57 336.425 1266.01 337.349 1266.21 338.552H1266.43C1266.81 337.525 1267.37 336.645 1268.1 335.912C1268.87 335.149 1269.94 334.768 1271.32 334.768C1272.99 334.768 1274.19 335.369 1274.92 336.572C1275.66 337.775 1276.02 339.549 1276.02 341.896V358H1271.4V342.556C1271.4 341.236 1271.21 340.312 1270.83 339.784C1270.48 339.256 1269.94 338.992 1269.2 338.992C1268.53 338.992 1267.96 339.212 1267.49 339.652C1267.05 340.092 1266.83 340.767 1266.83 341.676V358H1262.16V342.556C1262.16 341.236 1261.99 340.312 1261.64 339.784C1261.28 339.256 1260.74 338.992 1260.01 338.992C1259.3 338.992 1258.72 339.212 1258.25 339.652C1257.81 340.092 1257.59 340.767 1257.59 341.676V358H1252.92ZM1296.03 344.316C1296.03 346.457 1295.78 348.525 1295.28 350.52C1294.81 352.485 1294.15 354.319 1293.3 356.02C1292.48 357.721 1291.51 359.261 1290.4 360.64C1289.28 362.019 1288.11 363.163 1286.88 364.072H1281.24C1282.56 363.133 1283.83 362.033 1285.03 360.772C1286.23 359.511 1287.29 358.132 1288.2 356.636C1289.11 355.111 1289.82 353.497 1290.35 351.796C1290.91 350.065 1291.19 348.276 1291.19 346.428V342.204C1291.19 340.356 1290.91 338.581 1290.35 336.88C1289.82 335.149 1289.11 333.536 1288.2 332.04C1287.29 330.515 1286.23 329.121 1285.03 327.86C1283.83 326.599 1282.56 325.499 1281.24 324.56H1286.88C1288.11 325.499 1289.28 326.657 1290.4 328.036C1291.51 329.385 1292.48 330.911 1293.3 332.612C1294.15 334.313 1294.81 336.161 1295.28 338.156C1295.78 340.121 1296.03 342.175 1296.03 344.316ZM1317.26 358.484C1315.74 358.484 1314.65 358.161 1314.01 357.516C1313.36 356.871 1313.04 356.079 1313.04 355.14V353.82C1313.04 352.881 1313.36 352.089 1314.01 351.444C1314.65 350.799 1315.74 350.476 1317.26 350.476C1318.79 350.476 1319.87 350.799 1320.52 351.444C1321.16 352.089 1321.49 352.881 1321.49 353.82V355.14C1321.49 356.079 1321.16 356.871 1320.52 357.516C1319.87 358.161 1318.79 358.484 1317.26 358.484ZM1317.26 342.864C1315.74 342.864 1314.65 342.541 1314.01 341.896C1313.36 341.251 1313.04 340.459 1313.04 339.52V338.2C1313.04 337.261 1313.36 336.469 1314.01 335.824C1314.65 335.179 1315.74 334.856 1317.26 334.856C1318.79 334.856 1319.87 335.179 1320.52 335.824C1321.16 336.469 1321.49 337.261 1321.49 338.2V339.52C1321.49 340.459 1321.16 341.251 1320.52 341.896C1319.87 342.541 1318.79 342.864 1317.26 342.864Z" fill="black"/>
<g id="for i in 1..m:">
<path d="M1164.24 502.345H1171.09V488.224H1163.82V484.569H1171.09V480.707C1171.09 479.101 1171.54 477.799 1172.42 476.803C1173.31 475.778 1174.69 475.266 1176.57 475.266H1183.8V478.921H1175.62V484.569H1183.8V488.224H1175.62V502.345H1182.85V506H1164.24V502.345ZM1198.36 506.498C1196.78 506.498 1195.36 506.235 1194.09 505.709C1192.84 505.183 1191.77 504.436 1190.89 503.467C1190.03 502.497 1189.36 501.321 1188.89 499.936C1188.42 498.552 1188.19 497.001 1188.19 495.285C1188.19 493.568 1188.42 492.017 1188.89 490.633C1189.36 489.249 1190.03 488.072 1190.89 487.103C1191.77 486.134 1192.84 485.386 1194.09 484.86C1195.36 484.334 1196.78 484.071 1198.36 484.071C1199.94 484.071 1201.35 484.334 1202.6 484.86C1203.87 485.386 1204.94 486.134 1205.8 487.103C1206.68 488.072 1207.36 489.249 1207.83 490.633C1208.3 492.017 1208.54 493.568 1208.54 495.285C1208.54 497.001 1208.3 498.552 1207.83 499.936C1207.36 501.321 1206.68 502.497 1205.8 503.467C1204.94 504.436 1203.87 505.183 1202.6 505.709C1201.35 506.235 1199.94 506.498 1198.36 506.498ZM1198.36 502.927C1200.02 502.927 1201.34 502.428 1202.31 501.431C1203.31 500.407 1203.8 498.898 1203.8 496.904V493.665C1203.8 491.671 1203.31 490.176 1202.31 489.179C1201.34 488.155 1200.02 487.643 1198.36 487.643C1196.7 487.643 1195.37 488.155 1194.38 489.179C1193.41 490.176 1192.92 491.671 1192.92 493.665V496.904C1192.92 498.898 1193.41 500.407 1194.38 501.431C1195.37 502.428 1196.7 502.927 1198.36 502.927ZM1213.96 502.345H1219.65V488.224H1213.96V484.569H1224.18V490.259H1224.43C1224.62 489.512 1224.9 488.792 1225.26 488.099C1225.62 487.407 1226.08 486.812 1226.63 486.314C1227.18 485.788 1227.86 485.372 1228.67 485.068C1229.47 484.735 1230.41 484.569 1231.49 484.569H1234.06V488.889H1229.83C1228.17 488.889 1226.81 489.387 1225.76 490.384C1224.71 491.353 1224.18 492.668 1224.18 494.329V502.345H1231.95V506H1213.96V502.345Z" fill="#3867D6"/>
<path d="M1274.4 479.835C1273.43 479.835 1272.75 479.641 1272.37 479.253C1271.98 478.838 1271.79 478.326 1271.79 477.716V477.052C1271.79 476.443 1271.98 475.944 1272.37 475.557C1272.75 475.141 1273.43 474.934 1274.4 474.934C1275.37 474.934 1276.05 475.141 1276.44 475.557C1276.82 475.944 1277.02 476.443 1277.02 477.052V477.716C1277.02 478.326 1276.82 478.838 1276.44 479.253C1276.05 479.641 1275.37 479.835 1274.4 479.835ZM1265.02 503.176H1272.74V487.393H1265.02V484.569H1276.06V503.176H1283.29V506H1265.02V503.176ZM1324.21 479.835C1323.24 479.835 1322.56 479.641 1322.17 479.253C1321.79 478.838 1321.59 478.326 1321.59 477.716V477.052C1321.59 476.443 1321.79 475.944 1322.17 475.557C1322.56 475.141 1323.24 474.934 1324.21 474.934C1325.18 474.934 1325.86 475.141 1326.24 475.557C1326.63 475.944 1326.82 476.443 1326.82 477.052V477.716C1326.82 478.326 1326.63 478.838 1326.24 479.253C1325.86 479.641 1325.18 479.835 1324.21 479.835ZM1314.82 503.176H1322.55V487.393H1314.82V484.569H1325.87V503.176H1333.1V506H1314.82V503.176ZM1339.39 506V484.569H1342.72V488.058H1342.88C1343.1 487.532 1343.38 487.033 1343.71 486.563C1344.04 486.064 1344.45 485.635 1344.92 485.275C1345.42 484.915 1346 484.625 1346.66 484.403C1347.33 484.182 1348.1 484.071 1348.99 484.071C1351.23 484.071 1353.03 484.791 1354.39 486.231C1355.74 487.643 1356.42 489.65 1356.42 492.253V506H1353.1V492.834C1353.1 490.868 1352.67 489.415 1351.81 488.473C1350.95 487.504 1349.69 487.02 1348.03 487.02C1347.37 487.02 1346.72 487.103 1346.08 487.269C1345.44 487.435 1344.88 487.684 1344.38 488.016C1343.88 488.349 1343.48 488.778 1343.17 489.304C1342.87 489.83 1342.72 490.439 1342.72 491.131V506H1339.39ZM1388.66 506V502.968H1396.97V479.585H1396.68L1389.37 486.397L1387.33 484.195L1395.01 477.01H1400.45V502.968H1408.1V506H1388.66ZM1422.49 506.374C1421.36 506.374 1420.55 506.138 1420.08 505.668C1419.64 505.197 1419.42 504.602 1419.42 503.882V503.134C1419.42 502.414 1419.64 501.819 1420.08 501.348C1420.55 500.878 1421.36 500.642 1422.49 500.642C1423.63 500.642 1424.42 500.878 1424.86 501.348C1425.33 501.819 1425.57 502.414 1425.57 503.134V503.882C1425.57 504.602 1425.33 505.197 1424.86 505.668C1424.42 506.138 1423.63 506.374 1422.49 506.374ZM1447.4 506.374C1446.26 506.374 1445.46 506.138 1444.99 505.668C1444.54 505.197 1444.32 504.602 1444.32 503.882V503.134C1444.32 502.414 1444.54 501.819 1444.99 501.348C1445.46 500.878 1446.26 500.642 1447.4 500.642C1448.53 500.642 1449.32 500.878 1449.76 501.348C1450.23 501.819 1450.47 502.414 1450.47 503.134V503.882C1450.47 504.602 1450.23 505.197 1449.76 505.668C1449.32 506.138 1448.53 506.374 1447.4 506.374ZM1462.08 506V484.569H1465.16V487.061H1465.32C1465.65 486.231 1466.12 485.524 1466.73 484.943C1467.34 484.362 1468.24 484.071 1469.43 484.071C1470.68 484.071 1471.61 484.389 1472.22 485.026C1472.82 485.635 1473.2 486.438 1473.34 487.435H1473.46C1473.85 486.466 1474.4 485.663 1475.12 485.026C1475.84 484.389 1476.84 484.071 1478.11 484.071C1479.86 484.071 1481.02 484.68 1481.6 485.898C1482.21 487.117 1482.52 488.861 1482.52 491.131V506H1479.44V491.671C1479.44 489.844 1479.25 488.584 1478.86 487.892C1478.5 487.172 1477.82 486.812 1476.83 486.812C1475.94 486.812 1475.22 487.103 1474.67 487.684C1474.11 488.238 1473.84 489.096 1473.84 490.259V506H1470.76V491.671C1470.76 489.844 1470.57 488.584 1470.18 487.892C1469.82 487.172 1469.16 486.812 1468.19 486.812C1467.3 486.812 1466.57 487.103 1465.99 487.684C1465.43 488.238 1465.16 489.096 1465.16 490.259V506H1462.08ZM1497.2 506.374C1496.07 506.374 1495.26 506.138 1494.79 505.668C1494.35 505.197 1494.13 504.602 1494.13 503.882V503.134C1494.13 502.414 1494.35 501.819 1494.79 501.348C1495.26 500.878 1496.07 500.642 1497.2 500.642C1498.34 500.642 1499.13 500.878 1499.57 501.348C1500.04 501.819 1500.28 502.414 1500.28 503.134V503.882C1500.28 504.602 1500.04 505.197 1499.57 505.668C1499.13 506.138 1498.34 506.374 1497.2 506.374ZM1497.2 489.927C1496.07 489.927 1495.26 489.692 1494.79 489.221C1494.35 488.75 1494.13 488.155 1494.13 487.435V486.687C1494.13 485.967 1494.35 485.372 1494.79 484.901C1495.26 484.431 1496.07 484.195 1497.2 484.195C1498.34 484.195 1499.13 484.431 1499.57 484.901C1500.04 485.372 1500.28 485.967 1500.28 486.687V487.435C1500.28 488.155 1500.04 488.75 1499.57 489.221C1499.13 489.692 1498.34 489.927 1497.2 489.927Z" fill="#595959"/>
</g>
<g id="sum = +1(sum)">
<path d="M1274.46 581.528C1272.09 581.528 1270.03 581.132 1268.3 580.34C1266.6 579.519 1265.15 578.433 1263.95 577.084L1266.32 575.016C1267.41 576.16 1268.6 577.04 1269.89 577.656C1271.18 578.272 1272.73 578.58 1274.55 578.58C1276.31 578.58 1277.75 578.272 1278.86 577.656C1280.01 577.011 1280.58 576.013 1280.58 574.664C1280.58 574.077 1280.46 573.593 1280.23 573.212C1280.02 572.801 1279.73 572.479 1279.35 572.244C1278.97 572.009 1278.54 571.833 1278.07 571.716C1277.6 571.569 1277.1 571.452 1276.58 571.364L1273.01 570.836C1272.22 570.719 1271.35 570.557 1270.42 570.352C1269.51 570.147 1268.67 569.824 1267.91 569.384C1267.15 568.915 1266.5 568.299 1265.97 567.536C1265.47 566.773 1265.22 565.776 1265.22 564.544C1265.22 563.4 1265.44 562.417 1265.88 561.596C1266.35 560.745 1267 560.041 1267.82 559.484C1268.64 558.897 1269.61 558.472 1270.72 558.208C1271.84 557.915 1273.06 557.768 1274.38 557.768C1276.43 557.768 1278.2 558.091 1279.7 558.736C1281.23 559.381 1282.53 560.276 1283.62 561.42L1281.33 563.576C1281.06 563.253 1280.73 562.931 1280.32 562.608C1279.93 562.256 1279.45 561.948 1278.86 561.684C1278.31 561.391 1277.65 561.156 1276.88 560.98C1276.12 560.804 1275.24 560.716 1274.24 560.716C1272.45 560.716 1271.08 561.024 1270.11 561.64C1269.17 562.256 1268.7 563.151 1268.7 564.324C1268.7 564.911 1268.8 565.409 1269.01 565.82C1269.24 566.201 1269.55 566.509 1269.93 566.744C1270.31 566.979 1270.74 567.169 1271.21 567.316C1271.71 567.433 1272.21 567.536 1272.7 567.624L1276.27 568.152C1277.09 568.269 1277.95 568.431 1278.86 568.636C1279.77 568.841 1280.61 569.179 1281.37 569.648C1282.13 570.088 1282.77 570.689 1283.26 571.452C1283.79 572.215 1284.06 573.212 1284.06 574.444C1284.06 576.703 1283.18 578.448 1281.42 579.68C1279.69 580.912 1277.37 581.528 1274.46 581.528ZM1305.95 577.304H1305.77C1305.54 577.861 1305.25 578.404 1304.89 578.932C1304.54 579.431 1304.1 579.871 1303.57 580.252C1303.08 580.633 1302.47 580.941 1301.77 581.176C1301.07 581.411 1300.25 581.528 1299.31 581.528C1296.93 581.528 1295.02 580.78 1293.59 579.284C1292.15 577.759 1291.43 575.617 1291.43 572.86V558.296H1294.95V572.244C1294.95 574.327 1295.41 575.881 1296.31 576.908C1297.22 577.905 1298.56 578.404 1300.32 578.404C1301.02 578.404 1301.71 578.316 1302.39 578.14C1303.06 577.964 1303.66 577.7 1304.19 577.348C1304.72 576.996 1305.14 576.556 1305.47 576.028C1305.79 575.471 1305.95 574.811 1305.95 574.048V558.296H1309.47V581H1305.95V577.304ZM1316.14 581V558.296H1319.4V560.936H1319.57C1319.93 560.056 1320.42 559.308 1321.07 558.692C1321.71 558.076 1322.67 557.768 1323.93 557.768C1325.25 557.768 1326.23 558.105 1326.88 558.78C1327.52 559.425 1327.92 560.276 1328.07 561.332H1328.2C1328.61 560.305 1329.19 559.455 1329.96 558.78C1330.72 558.105 1331.78 557.768 1333.13 557.768C1334.97 557.768 1336.21 558.413 1336.82 559.704C1337.47 560.995 1337.79 562.843 1337.79 565.248V581H1334.53V565.82C1334.53 563.884 1334.33 562.549 1333.92 561.816C1333.54 561.053 1332.82 560.672 1331.76 560.672C1330.82 560.672 1330.06 560.98 1329.47 561.596C1328.89 562.183 1328.59 563.092 1328.59 564.324V581H1325.34V565.82C1325.34 563.884 1325.13 562.549 1324.72 561.816C1324.34 561.053 1323.64 560.672 1322.61 560.672C1321.67 560.672 1320.89 560.98 1320.28 561.596C1319.69 562.183 1319.4 563.092 1319.4 564.324V581H1316.14ZM1369.26 564.632V561.64H1390.2V564.632H1369.26ZM1369.26 573.432V570.44H1390.2V573.432H1369.26ZM1481.08 567.316C1481.08 565.175 1481.32 563.121 1481.79 561.156C1482.29 559.161 1482.95 557.313 1483.77 555.612C1484.62 553.911 1485.6 552.385 1486.71 551.036C1487.83 549.657 1489 548.499 1490.23 547.56H1493.8C1492.51 548.528 1491.29 549.657 1490.15 550.948C1489.03 552.209 1488.03 553.603 1487.15 555.128C1486.3 556.624 1485.63 558.252 1485.13 560.012C1484.63 561.743 1484.38 563.547 1484.38 565.424V569.208C1484.38 571.085 1484.63 572.904 1485.13 574.664C1485.63 576.395 1486.3 578.023 1487.15 579.548C1488.03 581.044 1489.03 582.423 1490.15 583.684C1491.29 584.975 1492.51 586.104 1493.8 587.072H1490.23C1489 586.163 1487.83 585.019 1486.71 583.64C1485.6 582.261 1484.62 580.721 1483.77 579.02C1482.95 577.319 1482.29 575.485 1481.79 573.52C1481.32 571.525 1481.08 569.457 1481.08 567.316ZM1511.91 581.528C1509.53 581.528 1507.48 581.132 1505.75 580.34C1504.05 579.519 1502.6 578.433 1501.39 577.084L1503.77 575.016C1504.85 576.16 1506.04 577.04 1507.33 577.656C1508.62 578.272 1510.18 578.58 1512 578.58C1513.76 578.58 1515.19 578.272 1516.31 577.656C1517.45 577.011 1518.03 576.013 1518.03 574.664C1518.03 574.077 1517.91 573.593 1517.67 573.212C1517.47 572.801 1517.17 572.479 1516.79 572.244C1516.41 572.009 1515.99 571.833 1515.52 571.716C1515.05 571.569 1514.55 571.452 1514.02 571.364L1510.46 570.836C1509.67 570.719 1508.8 570.557 1507.86 570.352C1506.95 570.147 1506.12 569.824 1505.35 569.384C1504.59 568.915 1503.95 568.299 1503.42 567.536C1502.92 566.773 1502.67 565.776 1502.67 564.544C1502.67 563.4 1502.89 562.417 1503.33 561.596C1503.8 560.745 1504.44 560.041 1505.27 559.484C1506.09 558.897 1507.05 558.472 1508.17 558.208C1509.28 557.915 1510.5 557.768 1511.82 557.768C1513.87 557.768 1515.65 558.091 1517.15 558.736C1518.67 559.381 1519.98 560.276 1521.06 561.42L1518.77 563.576C1518.51 563.253 1518.17 562.931 1517.76 562.608C1517.38 562.256 1516.9 561.948 1516.31 561.684C1515.75 561.391 1515.09 561.156 1514.33 560.98C1513.57 560.804 1512.69 560.716 1511.69 560.716C1509.9 560.716 1508.52 561.024 1507.55 561.64C1506.61 562.256 1506.15 563.151 1506.15 564.324C1506.15 564.911 1506.25 565.409 1506.45 565.82C1506.69 566.201 1507 566.509 1507.38 566.744C1507.76 566.979 1508.18 567.169 1508.65 567.316C1509.15 567.433 1509.65 567.536 1510.15 567.624L1513.71 568.152C1514.53 568.269 1515.4 568.431 1516.31 568.636C1517.22 568.841 1518.05 569.179 1518.82 569.648C1519.58 570.088 1520.21 570.689 1520.71 571.452C1521.24 572.215 1521.5 573.212 1521.5 574.444C1521.5 576.703 1520.62 578.448 1518.86 579.68C1517.13 580.912 1514.81 581.528 1511.91 581.528ZM1543.4 577.304H1543.22C1542.99 577.861 1542.69 578.404 1542.34 578.932C1541.99 579.431 1541.55 579.871 1541.02 580.252C1540.52 580.633 1539.92 580.941 1539.22 581.176C1538.51 581.411 1537.69 581.528 1536.75 581.528C1534.38 581.528 1532.47 580.78 1531.03 579.284C1529.59 577.759 1528.88 575.617 1528.88 572.86V558.296H1532.4V572.244C1532.4 574.327 1532.85 575.881 1533.76 576.908C1534.67 577.905 1536 578.404 1537.76 578.404C1538.47 578.404 1539.16 578.316 1539.83 578.14C1540.51 577.964 1541.11 577.7 1541.64 577.348C1542.16 576.996 1542.59 576.556 1542.91 576.028C1543.23 575.471 1543.4 574.811 1543.4 574.048V558.296H1546.92V581H1543.4V577.304ZM1553.59 581V558.296H1556.84V560.936H1557.02C1557.37 560.056 1557.87 559.308 1558.51 558.692C1559.16 558.076 1560.11 557.768 1561.37 557.768C1562.69 557.768 1563.68 558.105 1564.32 558.78C1564.97 559.425 1565.36 560.276 1565.51 561.332H1565.64C1566.05 560.305 1566.64 559.455 1567.4 558.78C1568.17 558.105 1569.22 557.768 1570.57 557.768C1572.42 557.768 1573.65 558.413 1574.27 559.704C1574.91 560.995 1575.23 562.843 1575.23 565.248V581H1571.98V565.82C1571.98 563.884 1571.77 562.549 1571.36 561.816C1570.98 561.053 1570.26 560.672 1569.21 560.672C1568.27 560.672 1567.51 560.98 1566.92 561.596C1566.33 562.183 1566.04 563.092 1566.04 564.324V581H1562.78V565.82C1562.78 563.884 1562.58 562.549 1562.17 561.816C1561.79 561.053 1561.08 560.672 1560.05 560.672C1559.12 560.672 1558.34 560.98 1557.72 561.596C1557.14 562.183 1556.84 563.092 1556.84 564.324V581H1553.59ZM1594.97 567.316C1594.97 569.457 1594.72 571.525 1594.23 573.52C1593.76 575.485 1593.1 577.319 1592.25 579.02C1591.42 580.721 1590.46 582.261 1589.34 583.64C1588.23 585.019 1587.05 586.163 1585.82 587.072H1582.26C1583.52 586.104 1584.72 584.975 1585.87 583.684C1587.01 582.423 1588.01 581.044 1588.86 579.548C1589.74 578.023 1590.43 576.395 1590.93 574.664C1591.42 572.904 1591.67 571.085 1591.67 569.208V565.424C1591.67 563.547 1591.42 561.743 1590.93 560.012C1590.43 558.252 1589.74 556.624 1588.86 555.128C1588.01 553.603 1587.01 552.209 1585.87 550.948C1584.72 549.657 1583.52 548.528 1582.26 547.56H1585.82C1587.05 548.499 1588.23 549.657 1589.34 551.036C1590.46 552.385 1591.42 553.911 1592.25 555.612C1593.1 557.313 1593.76 559.161 1594.23 561.156C1594.72 563.121 1594.97 565.175 1594.97 567.316Z" fill="#595959"/>
<path d="M1430.03 578.272V569.824H1422.02V565.292H1430.03V556.844H1434.96V565.292H1442.97V569.824H1434.96V578.272H1430.03ZM1449.68 581V576.292H1458.13V554.468H1457.74L1451.05 562.388L1447.44 559.352L1455.05 550.288H1463.9V576.292H1470.85V581H1449.68Z" fill="#D648BC"/>
</g>
<path id="sum = n" d="M1173.71 433.498C1171.47 433.498 1169.53 433.125 1167.89 432.377C1166.29 431.602 1164.92 430.577 1163.78 429.304L1166.03 427.352C1167.05 428.431 1168.17 429.262 1169.39 429.844C1170.61 430.425 1172.08 430.716 1173.79 430.716C1175.45 430.716 1176.81 430.425 1177.86 429.844C1178.94 429.234 1179.48 428.293 1179.48 427.019C1179.48 426.466 1179.37 426.009 1179.15 425.649C1178.96 425.261 1178.68 424.957 1178.32 424.735C1177.96 424.514 1177.56 424.347 1177.11 424.237C1176.67 424.098 1176.2 423.987 1175.7 423.904L1172.34 423.406C1171.59 423.295 1170.77 423.143 1169.89 422.949C1169.03 422.755 1168.24 422.451 1167.52 422.035C1166.8 421.592 1166.19 421.011 1165.69 420.291C1165.22 419.571 1164.99 418.63 1164.99 417.467C1164.99 416.387 1165.19 415.459 1165.61 414.684C1166.05 413.881 1166.66 413.217 1167.44 412.691C1168.21 412.137 1169.13 411.735 1170.18 411.486C1171.23 411.209 1172.38 411.071 1173.63 411.071C1175.56 411.071 1177.24 411.375 1178.65 411.985C1180.09 412.594 1181.32 413.438 1182.35 414.518L1180.19 416.553C1179.94 416.249 1179.62 415.944 1179.23 415.639C1178.87 415.307 1178.42 415.016 1177.86 414.767C1177.34 414.49 1176.71 414.269 1175.99 414.103C1175.27 413.937 1174.44 413.854 1173.5 413.854C1171.81 413.854 1170.51 414.144 1169.6 414.726C1168.71 415.307 1168.27 416.152 1168.27 417.259C1168.27 417.813 1168.37 418.284 1168.56 418.671C1168.78 419.031 1169.07 419.322 1169.43 419.543C1169.79 419.765 1170.19 419.945 1170.64 420.083C1171.11 420.194 1171.58 420.291 1172.05 420.374L1175.41 420.873C1176.19 420.983 1177 421.136 1177.86 421.329C1178.72 421.523 1179.51 421.842 1180.23 422.285C1180.95 422.7 1181.54 423.268 1182.02 423.987C1182.51 424.707 1182.76 425.649 1182.76 426.812C1182.76 428.944 1181.93 430.591 1180.27 431.754C1178.64 432.917 1176.45 433.498 1173.71 433.498ZM1203.43 429.511H1203.26C1203.04 430.037 1202.77 430.55 1202.43 431.048C1202.1 431.519 1201.69 431.934 1201.19 432.294C1200.72 432.654 1200.15 432.945 1199.48 433.166C1198.82 433.388 1198.04 433.498 1197.16 433.498C1194.92 433.498 1193.12 432.792 1191.76 431.38C1190.4 429.94 1189.72 427.919 1189.72 425.316V411.569H1193.05V424.735C1193.05 426.701 1193.48 428.168 1194.33 429.137C1195.19 430.079 1196.45 430.55 1198.11 430.55C1198.78 430.55 1199.43 430.467 1200.07 430.3C1200.7 430.134 1201.27 429.885 1201.77 429.553C1202.27 429.221 1202.67 428.805 1202.97 428.307C1203.28 427.781 1203.43 427.158 1203.43 426.438V411.569H1206.75V433H1203.43V429.511ZM1213.05 433V411.569H1216.12V414.061H1216.29C1216.62 413.231 1217.09 412.524 1217.7 411.943C1218.31 411.362 1219.21 411.071 1220.4 411.071C1221.65 411.071 1222.57 411.389 1223.18 412.026C1223.79 412.635 1224.17 413.438 1224.3 414.435H1224.43C1224.82 413.466 1225.37 412.663 1226.09 412.026C1226.81 411.389 1227.81 411.071 1229.08 411.071C1230.83 411.071 1231.99 411.68 1232.57 412.898C1233.18 414.117 1233.48 415.861 1233.48 418.131V433H1230.41V418.671C1230.41 416.844 1230.22 415.584 1229.83 414.892C1229.47 414.172 1228.79 413.812 1227.79 413.812C1226.91 413.812 1226.19 414.103 1225.63 414.684C1225.08 415.238 1224.8 416.096 1224.8 417.259V433H1221.73V418.671C1221.73 416.844 1221.54 415.584 1221.15 414.892C1220.79 414.172 1220.12 413.812 1219.15 413.812C1218.27 413.812 1217.53 414.103 1216.95 414.684C1216.4 415.238 1216.12 416.096 1216.12 417.259V433H1213.05ZM1263.19 417.55V414.726H1282.96V417.55H1263.19ZM1263.19 425.856V423.032H1282.96V425.856H1263.19ZM1314.49 433V411.569H1317.81V415.058H1317.98C1318.2 414.532 1318.48 414.033 1318.81 413.563C1319.14 413.064 1319.54 412.635 1320.01 412.275C1320.51 411.915 1321.09 411.625 1321.76 411.403C1322.42 411.182 1323.2 411.071 1324.08 411.071C1326.33 411.071 1328.13 411.791 1329.48 413.231C1330.84 414.643 1331.52 416.65 1331.52 419.253V433H1328.2V419.834C1328.2 417.868 1327.77 416.415 1326.91 415.473C1326.05 414.504 1324.79 414.02 1323.13 414.02C1322.46 414.02 1321.81 414.103 1321.18 414.269C1320.54 414.435 1319.97 414.684 1319.47 415.016C1318.98 415.349 1318.57 415.778 1318.27 416.304C1317.96 416.83 1317.81 417.439 1317.81 418.131V433H1314.49Z" fill="#595959"/>
<g id="return sum">
<path d="M1164.16 651.345H1169.85V637.224H1164.16V633.569H1174.37V639.259H1174.62C1174.82 638.512 1175.09 637.792 1175.45 637.099C1175.81 636.407 1176.27 635.812 1176.82 635.314C1177.38 634.788 1178.06 634.372 1178.86 634.068C1179.66 633.735 1180.6 633.569 1181.68 633.569H1184.26V637.889H1180.02C1178.36 637.889 1177 638.387 1175.95 639.384C1174.9 640.353 1174.37 641.668 1174.37 643.329V651.345H1182.14V655H1164.16V651.345ZM1198.82 655.498C1197.19 655.498 1195.72 655.235 1194.42 654.709C1193.12 654.183 1192.02 653.436 1191.14 652.467C1190.25 651.497 1189.57 650.335 1189.1 648.978C1188.63 647.593 1188.4 646.043 1188.4 644.326C1188.4 642.609 1188.63 641.059 1189.1 639.675C1189.6 638.29 1190.28 637.113 1191.14 636.144C1192.02 635.147 1193.09 634.386 1194.33 633.86C1195.58 633.334 1196.96 633.071 1198.49 633.071C1199.98 633.071 1201.34 633.334 1202.56 633.86C1203.78 634.358 1204.81 635.078 1205.67 636.02C1206.53 636.961 1207.18 638.082 1207.62 639.384C1208.1 640.685 1208.33 642.125 1208.33 643.703V645.406H1192.96V646.112C1192.96 647.801 1193.49 649.185 1194.54 650.265C1195.59 651.317 1197.05 651.844 1198.9 651.844C1200.29 651.844 1201.46 651.553 1202.43 650.971C1203.43 650.362 1204.23 649.559 1204.84 648.562L1207.67 651.054C1206.95 652.3 1205.84 653.353 1204.34 654.211C1202.88 655.069 1201.03 655.498 1198.82 655.498ZM1198.49 636.518C1197.68 636.518 1196.94 636.656 1196.24 636.933C1195.58 637.21 1195 637.612 1194.5 638.138C1194.03 638.636 1193.66 639.232 1193.38 639.924C1193.1 640.616 1192.96 641.377 1192.96 642.208V642.499H1203.72V642.083C1203.72 640.394 1203.24 639.052 1202.27 638.055C1201.33 637.03 1200.07 636.518 1198.49 636.518ZM1224.55 655C1222.67 655 1221.29 654.502 1220.4 653.505C1219.51 652.48 1219.07 651.165 1219.07 649.559V637.224H1212.47V633.569H1217.16C1217.96 633.569 1218.53 633.417 1218.86 633.112C1219.2 632.78 1219.36 632.199 1219.36 631.368V626.01H1223.6V633.569H1232.74V637.224H1223.6V651.345H1232.74V655H1224.55ZM1252.61 651.345H1252.41C1252.18 651.899 1251.89 652.439 1251.53 652.965C1251.2 653.463 1250.79 653.906 1250.29 654.294C1249.79 654.654 1249.21 654.945 1248.54 655.166C1247.88 655.388 1247.1 655.498 1246.22 655.498C1244.06 655.498 1242.31 654.792 1240.98 653.38C1239.66 651.968 1238.99 649.961 1238.99 647.358V633.569H1243.52V646.694C1243.52 650.099 1245 651.802 1247.96 651.802C1248.54 651.802 1249.11 651.733 1249.66 651.594C1250.22 651.428 1250.72 651.193 1251.16 650.888C1251.6 650.584 1251.95 650.21 1252.2 649.767C1252.48 649.296 1252.61 648.742 1252.61 648.106V633.569H1257.14V655H1252.61V651.345ZM1263.77 651.345H1269.46V637.224H1263.77V633.569H1273.99V639.259H1274.24C1274.43 638.512 1274.71 637.792 1275.07 637.099C1275.43 636.407 1275.88 635.812 1276.44 635.314C1276.99 634.788 1277.67 634.372 1278.47 634.068C1279.27 633.735 1280.22 633.569 1281.3 633.569H1283.87V637.889H1279.63C1277.97 637.889 1276.62 638.387 1275.56 639.384C1274.51 640.353 1273.99 641.668 1273.99 643.329V651.345H1281.75V655H1263.77V651.345ZM1289.01 655V633.569H1293.53V637.224H1293.74C1293.96 636.67 1294.24 636.144 1294.57 635.646C1294.93 635.12 1295.36 634.677 1295.86 634.317C1296.36 633.929 1296.94 633.625 1297.6 633.403C1298.27 633.182 1299.04 633.071 1299.93 633.071C1302.09 633.071 1303.83 633.777 1305.16 635.189C1306.49 636.601 1307.15 638.609 1307.15 641.211V655H1302.63V641.876C1302.63 638.47 1301.15 636.767 1298.18 636.767C1297.6 636.767 1297.03 636.85 1296.48 637.016C1295.93 637.155 1295.43 637.376 1294.99 637.681C1294.54 637.986 1294.18 638.373 1293.91 638.844C1293.66 639.315 1293.53 639.854 1293.53 640.464V655H1289.01Z" fill="#4B6584"/>
<path d="M1348.03 655.498C1345.79 655.498 1343.85 655.125 1342.22 654.377C1340.61 653.602 1339.24 652.577 1338.11 651.304L1340.35 649.352C1341.37 650.431 1342.49 651.262 1343.71 651.844C1344.93 652.425 1346.4 652.716 1348.11 652.716C1349.78 652.716 1351.13 652.425 1352.19 651.844C1353.26 651.234 1353.8 650.293 1353.8 649.019C1353.8 648.466 1353.69 648.009 1353.47 647.649C1353.28 647.261 1353 646.957 1352.64 646.735C1352.28 646.514 1351.88 646.347 1351.44 646.237C1350.99 646.098 1350.52 645.987 1350.03 645.904L1346.66 645.406C1345.91 645.295 1345.1 645.143 1344.21 644.949C1343.35 644.755 1342.56 644.451 1341.84 644.035C1341.12 643.592 1340.51 643.011 1340.02 642.291C1339.55 641.571 1339.31 640.63 1339.31 639.467C1339.31 638.387 1339.52 637.459 1339.93 636.684C1340.38 635.881 1340.99 635.217 1341.76 634.691C1342.54 634.137 1343.45 633.735 1344.5 633.486C1345.55 633.209 1346.7 633.071 1347.95 633.071C1349.89 633.071 1351.56 633.375 1352.97 633.985C1354.41 634.594 1355.65 635.438 1356.67 636.518L1354.51 638.553C1354.26 638.249 1353.94 637.944 1353.56 637.639C1353.2 637.307 1352.74 637.016 1352.19 636.767C1351.66 636.49 1351.04 636.269 1350.32 636.103C1349.6 635.937 1348.77 635.854 1347.82 635.854C1346.14 635.854 1344.83 636.144 1343.92 636.726C1343.03 637.307 1342.59 638.152 1342.59 639.259C1342.59 639.813 1342.69 640.284 1342.88 640.671C1343.1 641.031 1343.39 641.322 1343.75 641.543C1344.11 641.765 1344.52 641.945 1344.96 642.083C1345.43 642.194 1345.9 642.291 1346.37 642.374L1349.73 642.873C1350.51 642.983 1351.33 643.136 1352.19 643.329C1353.04 643.523 1353.83 643.842 1354.55 644.285C1355.27 644.7 1355.87 645.268 1356.34 645.987C1356.84 646.707 1357.09 647.649 1357.09 648.812C1357.09 650.944 1356.26 652.591 1354.59 653.754C1352.96 654.917 1350.77 655.498 1348.03 655.498ZM1377.75 651.511H1377.59C1377.37 652.037 1377.09 652.55 1376.76 653.048C1376.42 653.519 1376.01 653.934 1375.51 654.294C1375.04 654.654 1374.47 654.945 1373.81 655.166C1373.14 655.388 1372.37 655.498 1371.48 655.498C1369.24 655.498 1367.44 654.792 1366.08 653.38C1364.73 651.94 1364.05 649.919 1364.05 647.316V633.569H1367.37V646.735C1367.37 648.701 1367.8 650.168 1368.66 651.137C1369.52 652.079 1370.78 652.55 1372.44 652.55C1373.1 652.55 1373.75 652.467 1374.39 652.3C1375.03 652.134 1375.59 651.885 1376.09 651.553C1376.59 651.221 1376.99 650.805 1377.3 650.307C1377.6 649.781 1377.75 649.158 1377.75 648.438V633.569H1381.08V655H1377.75V651.511ZM1387.37 655V633.569H1390.45V636.061H1390.61C1390.94 635.231 1391.41 634.524 1392.02 633.943C1392.63 633.362 1393.53 633.071 1394.72 633.071C1395.97 633.071 1396.9 633.389 1397.51 634.026C1398.12 634.635 1398.49 635.438 1398.63 636.435H1398.75C1399.14 635.466 1399.69 634.663 1400.41 634.026C1401.13 633.389 1402.13 633.071 1403.4 633.071C1405.15 633.071 1406.31 633.68 1406.89 634.898C1407.5 636.117 1407.81 637.861 1407.81 640.131V655H1404.73V640.671C1404.73 638.844 1404.54 637.584 1404.15 636.892C1403.79 636.172 1403.11 635.812 1402.12 635.812C1401.23 635.812 1400.51 636.103 1399.96 636.684C1399.4 637.238 1399.13 638.096 1399.13 639.259V655H1396.05V640.671C1396.05 638.844 1395.86 637.584 1395.47 636.892C1395.11 636.172 1394.45 635.812 1393.48 635.812C1392.59 635.812 1391.86 636.103 1391.28 636.684C1390.72 637.238 1390.45 638.096 1390.45 639.259V655H1387.37Z" fill="#595959"/>
</g>
</g>
</g>
</svg>
