<svg width="1920" height="1080" viewBox="0 0 1920 1080" fill="none" xmlns="http://www.w3.org/2000/svg">
<g id="Morphism">
<rect width="1920" height="1080" fill="white"/>
<g id="Group 125">
<g id="Group 121">
<path id="p" d="M598.622 650.785C600.134 650.785 601.445 651.104 602.553 651.743C603.696 652.381 604.62 653.221 605.325 654.263C606.065 655.304 606.602 656.413 606.938 657.589C607.308 658.732 607.493 659.84 607.493 660.916C607.493 662.495 607.157 664.007 606.485 665.452C605.813 666.863 604.922 668.123 603.813 669.232C602.705 670.307 601.461 671.164 600.084 671.802C598.74 672.44 597.379 672.76 596.001 672.76C595.363 672.76 594.725 672.692 594.086 672.558C593.448 672.457 592.927 672.34 592.524 672.205C592.524 672.205 592.49 672.256 592.423 672.356C592.356 672.491 592.322 672.659 592.322 672.86V677.598C592.322 678.337 592.322 679.026 592.322 679.664C592.356 680.336 592.44 680.874 592.574 681.277C592.641 681.445 592.877 681.58 593.28 681.68C593.717 681.815 594.17 681.899 594.641 681.932C595.145 682 595.497 682.033 595.699 682.033C595.8 682.168 595.85 682.403 595.85 682.739C595.884 683.108 595.833 683.36 595.699 683.495C594.691 683.428 593.801 683.36 593.028 683.293C592.255 683.26 591.381 683.243 590.407 683.243C589.466 683.243 588.609 683.26 587.837 683.293C587.097 683.36 586.224 683.428 585.216 683.495C585.081 683.36 585.014 683.108 585.014 682.739C585.048 682.403 585.115 682.168 585.216 682.033C585.417 682.033 585.753 682 586.224 681.932C586.694 681.899 587.148 681.815 587.585 681.68C588.021 681.58 588.257 681.445 588.29 681.277C588.425 680.874 588.492 680.336 588.492 679.664C588.525 679.026 588.542 678.337 588.542 677.598V657.488C588.542 657.152 588.525 656.716 588.492 656.178C588.492 655.64 588.425 655.22 588.29 654.918C588.189 654.616 587.904 654.414 587.433 654.313C586.963 654.179 586.493 654.112 586.022 654.112C585.552 654.078 585.249 654.061 585.115 654.061C585.081 653.994 585.048 653.792 585.014 653.456C584.981 653.12 585.014 652.885 585.115 652.751C586.392 652.583 587.635 652.331 588.845 651.995C590.088 651.659 591.197 651.222 592.171 650.684C592.305 650.684 592.423 650.785 592.524 650.987C592.625 651.188 592.675 651.356 592.675 651.491C592.641 651.659 592.574 651.995 592.473 652.499C592.373 652.969 592.322 653.305 592.322 653.507C592.322 653.641 592.356 653.708 592.423 653.708C592.457 653.708 592.507 653.675 592.574 653.608C592.977 653.238 593.532 652.835 594.237 652.398C594.943 651.961 595.682 651.592 596.455 651.289C597.261 650.953 597.984 650.785 598.622 650.785ZM596.505 653.708C595.833 653.708 595.178 653.826 594.54 654.061C593.901 654.263 593.364 654.515 592.927 654.817C592.524 655.12 592.322 655.388 592.322 655.624V667.417C592.322 668.257 592.574 668.946 593.078 669.484C593.616 670.021 594.237 670.424 594.943 670.693C595.682 670.928 596.337 671.046 596.909 671.046C598.286 671.046 599.445 670.643 600.386 669.836C601.361 668.996 602.1 667.938 602.604 666.661C603.108 665.384 603.36 664.091 603.36 662.78C603.36 659.857 602.688 657.623 601.344 656.077C600 654.498 598.387 653.708 596.505 653.708Z" fill="black"/>
<path id="Vector 77" d="M722.55 664.316L704.55 653.924V674.709L722.55 664.316ZM631.83 664.316V666.116H706.35V664.316V662.516H631.83V664.316Z" fill="black"/>
<path id="a" d="M680.069 644.197C678.565 644.197 677.493 643.813 676.853 643.045C676.213 642.277 675.813 641.317 675.653 640.165H675.413C674.869 641.605 673.989 642.741 672.773 643.573C671.589 644.373 669.989 644.773 667.973 644.773C665.381 644.773 663.317 644.101 661.781 642.757C660.245 641.413 659.477 639.573 659.477 637.237C659.477 634.933 660.309 633.157 661.973 631.909C663.669 630.661 666.389 630.037 670.133 630.037H675.413V627.589C675.413 625.765 674.901 624.405 673.877 623.509C672.853 622.581 671.397 622.117 669.509 622.117C667.845 622.117 666.485 622.453 665.429 623.125C664.373 623.765 663.525 624.645 662.885 625.765L660.293 623.845C660.613 623.205 661.045 622.581 661.589 621.973C662.133 621.365 662.805 620.837 663.605 620.389C664.405 619.909 665.317 619.541 666.341 619.285C667.365 618.997 668.501 618.853 669.749 618.853C672.661 618.853 674.965 619.589 676.661 621.061C678.389 622.533 679.253 624.581 679.253 627.205V640.837H682.709V644.197H680.069ZM668.645 641.557C669.637 641.557 670.533 641.445 671.333 641.221C672.165 640.965 672.885 640.645 673.493 640.261C674.101 639.845 674.565 639.365 674.885 638.821C675.237 638.245 675.413 637.637 675.413 636.997V632.917H670.133C667.829 632.917 666.149 633.237 665.093 633.877C664.037 634.517 663.509 635.445 663.509 636.661V637.669C663.509 638.949 663.957 639.925 664.853 640.597C665.781 641.237 667.045 641.557 668.645 641.557Z" fill="black"/>
<path id="q" d="M753.892 650.785C754.396 650.785 755 650.886 755.706 651.088C756.412 651.289 757.134 651.508 757.873 651.743C758.612 651.944 759.251 652.045 759.788 652.045C760.124 652.045 760.444 651.995 760.746 651.894C760.914 651.894 761.065 652.045 761.2 652.348C761.334 652.616 761.401 652.818 761.401 652.952C761.166 653.456 760.998 654.078 760.897 654.817C760.83 655.523 760.796 656.128 760.796 656.632V677.648C760.796 678.388 760.796 679.076 760.796 679.715C760.83 680.387 760.914 680.924 761.048 681.328C761.116 681.496 761.351 681.63 761.754 681.731C762.191 681.865 762.644 681.949 763.115 681.983C763.585 682.05 763.921 682.084 764.123 682.084C764.224 682.218 764.274 682.453 764.274 682.789C764.308 683.159 764.257 683.411 764.123 683.545C763.115 683.478 762.224 683.411 761.452 683.344C760.712 683.31 759.856 683.293 758.881 683.293C757.94 683.293 757.084 683.31 756.311 683.344C755.538 683.411 754.648 683.478 753.64 683.545C753.505 683.411 753.438 683.159 753.438 682.789C753.472 682.453 753.539 682.218 753.64 682.084C753.841 682.084 754.177 682.05 754.648 681.983C755.152 681.949 755.622 681.865 756.059 681.731C756.496 681.63 756.731 681.496 756.764 681.328C756.899 680.924 756.966 680.387 756.966 679.715C757 679.076 757.016 678.388 757.016 677.648V670.391C757.016 670.256 756.983 670.122 756.916 669.988C756.882 669.82 756.798 669.786 756.664 669.887C756.428 670.088 755.941 670.424 755.202 670.895C754.496 671.332 753.707 671.752 752.833 672.155C751.993 672.524 751.22 672.709 750.515 672.709C749.104 672.709 747.844 672.39 746.735 671.752C745.66 671.113 744.752 670.29 744.013 669.282C743.274 668.274 742.703 667.182 742.3 666.006C741.93 664.83 741.745 663.688 741.745 662.579C741.745 660.899 742.115 659.336 742.854 657.892C743.627 656.447 744.618 655.204 745.828 654.162C747.071 653.087 748.398 652.264 749.809 651.692C751.22 651.088 752.581 650.785 753.892 650.785ZM752.43 652.549C751.288 652.549 750.296 652.835 749.456 653.406C748.616 653.977 747.928 654.7 747.39 655.573C746.886 656.413 746.5 657.304 746.231 658.244C745.996 659.185 745.878 660.042 745.878 660.815C745.878 663.704 746.567 665.922 747.944 667.468C749.322 668.98 751.036 669.736 753.085 669.736C754.06 669.736 754.95 669.5 755.756 669.03C756.596 668.56 757.016 668.14 757.016 667.77V656.027C757.016 655.321 756.781 654.716 756.311 654.212C755.84 653.675 755.252 653.272 754.547 653.003C753.875 652.7 753.169 652.549 752.43 652.549Z" fill="black"/>
</g>
<g id="Group 123">
<path id="&#206;&#188;(p)" d="M1053.7 672.052C1052.65 672.052 1051.8 671.749 1051.13 671.144C1050.49 670.54 1049.98 669.868 1049.61 669.128C1049.24 668.389 1048.94 667.835 1048.71 667.465H1046.49L1046.44 647.708L1050.97 647.557L1051.18 647.96L1049.36 660.46C1049.36 660.46 1049.34 660.577 1049.31 660.812C1049.31 661.014 1049.31 661.266 1049.31 661.568C1049.31 662.576 1049.5 663.568 1049.87 664.542C1050.27 665.483 1050.81 666.272 1051.48 666.911C1052.18 667.549 1052.99 667.868 1053.9 667.868C1054.8 667.868 1055.63 667.549 1056.37 666.911C1057.11 666.272 1057.76 665.466 1058.33 664.492C1058.9 663.517 1059.37 662.526 1059.74 661.518C1060.15 660.51 1060.45 659.603 1060.65 658.796C1060.85 657.99 1060.95 657.469 1060.95 657.234L1061.1 647.708L1065.44 647.557L1065.69 648.011L1063.52 660.46C1063.52 661.736 1063.61 662.98 1063.78 664.189C1063.94 665.365 1064.26 666.323 1064.73 667.062C1065.24 667.801 1065.93 668.171 1066.8 668.171C1067.61 668.171 1068.23 667.969 1068.66 667.566C1069.14 667.163 1069.56 666.709 1069.92 666.205L1070.78 666.76C1070.51 667.532 1070.13 668.322 1069.62 669.128C1069.15 669.935 1068.53 670.607 1067.76 671.144C1067.02 671.648 1066.09 671.9 1064.99 671.9C1064.18 671.9 1063.54 671.732 1063.07 671.396C1062.6 671.027 1062.23 670.489 1061.96 669.784C1061.69 669.044 1061.47 668.12 1061.31 667.012C1061.17 665.903 1061.04 664.609 1060.9 663.131H1060.6C1060.06 665.584 1059.41 667.465 1058.64 668.776C1057.9 670.052 1057.09 670.926 1056.22 671.396C1055.38 671.833 1054.54 672.052 1053.7 672.052ZM1049.51 681.023L1045.73 682.333L1044.93 682.182C1044.96 679.729 1045.03 677.495 1045.13 675.479C1045.23 673.496 1045.4 671.514 1045.63 669.532C1045.9 667.549 1046.24 665.365 1046.64 662.98L1049.76 667.919H1048.71C1048.74 669.263 1048.77 670.556 1048.81 671.8C1048.84 673.076 1048.91 674.437 1049.01 675.882C1049.14 677.327 1049.31 679.04 1049.51 681.023ZM1075.91 657.385C1075.91 659.939 1076.18 662.526 1076.72 665.147C1077.29 667.768 1078.11 670.187 1079.19 672.404C1080.26 674.622 1081.57 676.42 1083.12 677.797C1083.15 677.797 1083.03 677.932 1082.76 678.2C1082.53 678.469 1082.33 678.654 1082.16 678.755C1079.3 676.47 1076.95 673.53 1075.1 669.935C1073.26 666.34 1072.33 662.156 1072.33 657.385C1072.33 652.58 1073.26 648.38 1075.1 644.785C1076.95 641.19 1079.3 638.267 1082.16 636.016C1082.33 636.116 1082.53 636.301 1082.76 636.57C1083.03 636.839 1083.15 636.973 1083.12 636.973C1081.57 638.317 1080.26 640.098 1079.19 642.316C1078.11 644.533 1077.29 646.952 1076.72 649.573C1076.18 652.194 1075.91 654.798 1075.91 657.385ZM1097.68 649.825C1099.19 649.825 1100.5 650.144 1101.61 650.783C1102.75 651.421 1103.67 652.261 1104.38 653.303C1105.12 654.344 1105.66 655.453 1105.99 656.629C1106.36 657.772 1106.55 658.88 1106.55 659.956C1106.55 661.535 1106.21 663.047 1105.54 664.492C1104.87 665.903 1103.98 667.163 1102.87 668.272C1101.76 669.347 1100.52 670.204 1099.14 670.842C1097.79 671.48 1096.43 671.8 1095.06 671.8C1094.42 671.8 1093.78 671.732 1093.14 671.598C1092.5 671.497 1091.98 671.38 1091.58 671.245C1091.58 671.245 1091.55 671.296 1091.48 671.396C1091.41 671.531 1091.38 671.699 1091.38 671.9V676.638C1091.38 677.377 1091.38 678.066 1091.38 678.704C1091.41 679.376 1091.49 679.914 1091.63 680.317C1091.7 680.485 1091.93 680.62 1092.33 680.72C1092.77 680.855 1093.23 680.939 1093.7 680.972C1094.2 681.04 1094.55 681.073 1094.75 681.073C1094.85 681.208 1094.91 681.443 1094.91 681.779C1094.94 682.148 1094.89 682.4 1094.75 682.535C1093.75 682.468 1092.86 682.4 1092.08 682.333C1091.31 682.3 1090.44 682.283 1089.46 682.283C1088.52 682.283 1087.66 682.3 1086.89 682.333C1086.15 682.4 1085.28 682.468 1084.27 682.535C1084.14 682.4 1084.07 682.148 1084.07 681.779C1084.1 681.443 1084.17 681.208 1084.27 681.073C1084.47 681.073 1084.81 681.04 1085.28 680.972C1085.75 680.939 1086.2 680.855 1086.64 680.72C1087.08 680.62 1087.31 680.485 1087.35 680.317C1087.48 679.914 1087.55 679.376 1087.55 678.704C1087.58 678.066 1087.6 677.377 1087.6 676.638V656.528C1087.6 656.192 1087.58 655.756 1087.55 655.218C1087.55 654.68 1087.48 654.26 1087.35 653.958C1087.24 653.656 1086.96 653.454 1086.49 653.353C1086.02 653.219 1085.55 653.152 1085.08 653.152C1084.61 653.118 1084.3 653.101 1084.17 653.101C1084.14 653.034 1084.1 652.832 1084.07 652.496C1084.04 652.16 1084.07 651.925 1084.17 651.791C1085.45 651.623 1086.69 651.371 1087.9 651.035C1089.14 650.699 1090.25 650.262 1091.23 649.724C1091.36 649.724 1091.48 649.825 1091.58 650.027C1091.68 650.228 1091.73 650.396 1091.73 650.531C1091.7 650.699 1091.63 651.035 1091.53 651.539C1091.43 652.009 1091.38 652.345 1091.38 652.547C1091.38 652.681 1091.41 652.748 1091.48 652.748C1091.51 652.748 1091.56 652.715 1091.63 652.648C1092.03 652.278 1092.59 651.875 1093.29 651.438C1094 651.001 1094.74 650.632 1095.51 650.329C1096.32 649.993 1097.04 649.825 1097.68 649.825ZM1095.56 652.748C1094.89 652.748 1094.23 652.866 1093.59 653.101C1092.96 653.303 1092.42 653.555 1091.98 653.857C1091.58 654.16 1091.38 654.428 1091.38 654.664V666.457C1091.38 667.297 1091.63 667.986 1092.13 668.524C1092.67 669.061 1093.29 669.464 1094 669.733C1094.74 669.968 1095.39 670.086 1095.96 670.086C1097.34 670.086 1098.5 669.683 1099.44 668.876C1100.42 668.036 1101.15 666.978 1101.66 665.701C1102.16 664.424 1102.41 663.131 1102.41 661.82C1102.41 658.897 1101.74 656.663 1100.4 655.117C1099.05 653.538 1097.44 652.748 1095.56 652.748ZM1117.98 657.385C1117.98 662.156 1117.05 666.34 1115.21 669.935C1113.36 673.53 1110.99 676.47 1108.1 678.755C1107.93 678.654 1107.73 678.469 1107.5 678.2C1107.26 677.932 1107.16 677.797 1107.19 677.797C1108.74 676.42 1110.03 674.622 1111.07 672.404C1112.15 670.187 1112.96 667.768 1113.49 665.147C1114.06 662.526 1114.35 659.939 1114.35 657.385C1114.35 654.798 1114.06 652.194 1113.49 649.573C1112.96 646.952 1112.15 644.533 1111.07 642.316C1110.03 640.098 1108.74 638.317 1107.19 636.973C1107.16 636.973 1107.26 636.839 1107.5 636.57C1107.73 636.301 1107.93 636.116 1108.1 636.016C1110.99 638.267 1113.36 641.19 1115.21 644.785C1117.05 648.38 1117.98 652.58 1117.98 657.385Z" fill="black"/>
<path id="&#206;&#188;(q)" d="M1269.7 672.052C1268.65 672.052 1267.8 671.749 1267.13 671.144C1266.49 670.54 1265.98 669.868 1265.61 669.128C1265.24 668.389 1264.94 667.835 1264.71 667.465H1262.49L1262.44 647.708L1266.97 647.557L1267.18 647.96L1265.36 660.46C1265.36 660.46 1265.34 660.577 1265.31 660.812C1265.31 661.014 1265.31 661.266 1265.31 661.568C1265.31 662.576 1265.5 663.568 1265.87 664.542C1266.27 665.483 1266.81 666.272 1267.48 666.911C1268.18 667.549 1268.99 667.868 1269.9 667.868C1270.8 667.868 1271.63 667.549 1272.37 666.911C1273.11 666.272 1273.76 665.466 1274.33 664.492C1274.9 663.517 1275.37 662.526 1275.74 661.518C1276.15 660.51 1276.45 659.603 1276.65 658.796C1276.85 657.99 1276.95 657.469 1276.95 657.234L1277.1 647.708L1281.44 647.557L1281.69 648.011L1279.52 660.46C1279.52 661.736 1279.61 662.98 1279.78 664.189C1279.94 665.365 1280.26 666.323 1280.73 667.062C1281.24 667.801 1281.93 668.171 1282.8 668.171C1283.61 668.171 1284.23 667.969 1284.66 667.566C1285.14 667.163 1285.56 666.709 1285.92 666.205L1286.78 666.76C1286.51 667.532 1286.13 668.322 1285.62 669.128C1285.15 669.935 1284.53 670.607 1283.76 671.144C1283.02 671.648 1282.09 671.9 1280.99 671.9C1280.18 671.9 1279.54 671.732 1279.07 671.396C1278.6 671.027 1278.23 670.489 1277.96 669.784C1277.69 669.044 1277.47 668.12 1277.31 667.012C1277.17 665.903 1277.04 664.609 1276.9 663.131H1276.6C1276.06 665.584 1275.41 667.465 1274.64 668.776C1273.9 670.052 1273.09 670.926 1272.22 671.396C1271.38 671.833 1270.54 672.052 1269.7 672.052ZM1265.51 681.023L1261.73 682.333L1260.93 682.182C1260.96 679.729 1261.03 677.495 1261.13 675.479C1261.23 673.496 1261.4 671.514 1261.63 669.532C1261.9 667.549 1262.24 665.365 1262.64 662.98L1265.76 667.919H1264.71C1264.74 669.263 1264.77 670.556 1264.81 671.8C1264.84 673.076 1264.91 674.437 1265.01 675.882C1265.14 677.327 1265.31 679.04 1265.51 681.023ZM1291.91 657.385C1291.91 659.939 1292.18 662.526 1292.72 665.147C1293.29 667.768 1294.11 670.187 1295.19 672.404C1296.26 674.622 1297.57 676.42 1299.12 677.797C1299.15 677.797 1299.03 677.932 1298.76 678.2C1298.53 678.469 1298.33 678.654 1298.16 678.755C1295.3 676.47 1292.95 673.53 1291.1 669.935C1289.26 666.34 1288.33 662.156 1288.33 657.385C1288.33 652.58 1289.26 648.38 1291.1 644.785C1292.95 641.19 1295.3 638.267 1298.16 636.016C1298.33 636.116 1298.53 636.301 1298.76 636.57C1299.03 636.839 1299.15 636.973 1299.12 636.973C1297.57 638.317 1296.26 640.098 1295.19 642.316C1294.11 644.533 1293.29 646.952 1292.72 649.573C1292.18 652.194 1291.91 654.798 1291.91 657.385ZM1313.43 649.825C1313.93 649.825 1314.53 649.926 1315.24 650.128C1315.95 650.329 1316.67 650.548 1317.41 650.783C1318.15 650.984 1318.78 651.085 1319.32 651.085C1319.66 651.085 1319.98 651.035 1320.28 650.934C1320.45 650.934 1320.6 651.085 1320.73 651.388C1320.87 651.656 1320.93 651.858 1320.93 651.992C1320.7 652.496 1320.53 653.118 1320.43 653.857C1320.36 654.563 1320.33 655.168 1320.33 655.672V676.688C1320.33 677.428 1320.33 678.116 1320.33 678.755C1320.36 679.427 1320.45 679.964 1320.58 680.368C1320.65 680.536 1320.88 680.67 1321.29 680.771C1321.72 680.905 1322.18 680.989 1322.65 681.023C1323.12 681.09 1323.45 681.124 1323.66 681.124C1323.76 681.258 1323.81 681.493 1323.81 681.829C1323.84 682.199 1323.79 682.451 1323.66 682.585C1322.65 682.518 1321.76 682.451 1320.99 682.384C1320.25 682.35 1319.39 682.333 1318.41 682.333C1317.47 682.333 1316.62 682.35 1315.84 682.384C1315.07 682.451 1314.18 682.518 1313.17 682.585C1313.04 682.451 1312.97 682.199 1312.97 681.829C1313.01 681.493 1313.07 681.258 1313.17 681.124C1313.37 681.124 1313.71 681.09 1314.18 681.023C1314.69 680.989 1315.16 680.905 1315.59 680.771C1316.03 680.67 1316.26 680.536 1316.3 680.368C1316.43 679.964 1316.5 679.427 1316.5 678.755C1316.53 678.116 1316.55 677.428 1316.55 676.688V669.431C1316.55 669.296 1316.52 669.162 1316.45 669.028C1316.42 668.86 1316.33 668.826 1316.2 668.927C1315.96 669.128 1315.47 669.464 1314.74 669.935C1314.03 670.372 1313.24 670.792 1312.37 671.195C1311.53 671.564 1310.75 671.749 1310.05 671.749C1308.64 671.749 1307.38 671.43 1306.27 670.792C1305.19 670.153 1304.29 669.33 1303.55 668.322C1302.81 667.314 1302.24 666.222 1301.83 665.046C1301.46 663.87 1301.28 662.728 1301.28 661.619C1301.28 659.939 1301.65 658.376 1302.39 656.932C1303.16 655.487 1304.15 654.244 1305.36 653.202C1306.6 652.127 1307.93 651.304 1309.34 650.732C1310.75 650.128 1312.11 649.825 1313.43 649.825ZM1311.96 651.589C1310.82 651.589 1309.83 651.875 1308.99 652.446C1308.15 653.017 1307.46 653.74 1306.92 654.613C1306.42 655.453 1306.03 656.344 1305.76 657.284C1305.53 658.225 1305.41 659.082 1305.41 659.855C1305.41 662.744 1306.1 664.962 1307.48 666.508C1308.86 668.02 1310.57 668.776 1312.62 668.776C1313.59 668.776 1314.48 668.54 1315.29 668.07C1316.13 667.6 1316.55 667.18 1316.55 666.81V655.067C1316.55 654.361 1316.31 653.756 1315.84 653.252C1315.37 652.715 1314.79 652.312 1314.08 652.043C1313.41 651.74 1312.7 651.589 1311.96 651.589ZM1334.91 657.385C1334.91 662.156 1333.99 666.34 1332.14 669.935C1330.29 673.53 1327.92 676.47 1325.03 678.755C1324.87 678.654 1324.67 678.469 1324.43 678.2C1324.19 677.932 1324.09 677.797 1324.13 677.797C1325.67 676.42 1326.97 674.622 1328.01 672.404C1329.08 670.187 1329.89 667.768 1330.43 665.147C1331 662.526 1331.28 659.939 1331.28 657.385C1331.28 654.798 1331 652.194 1330.43 649.573C1329.89 646.952 1329.08 644.533 1328.01 642.316C1326.97 640.098 1325.67 638.317 1324.13 636.973C1324.09 636.973 1324.19 636.839 1324.43 636.57C1324.67 636.301 1324.87 636.116 1325.03 636.016C1327.92 638.267 1330.29 641.19 1332.14 644.785C1333.99 648.38 1334.91 652.58 1334.91 657.385Z" fill="black"/>
<path id="Vector 77_2" d="M1234.95 663.116L1216.95 652.724V673.509L1234.95 663.116ZM1144.23 663.116V664.916H1218.75V663.116V661.316H1144.23V663.116Z" fill="black"/>
<path id="a_2" d="M1192.47 642.997C1190.96 642.997 1189.89 642.613 1189.25 641.845C1188.61 641.077 1188.21 640.117 1188.05 638.965H1187.81C1187.27 640.405 1186.39 641.541 1185.17 642.373C1183.99 643.173 1182.39 643.573 1180.37 643.573C1177.78 643.573 1175.72 642.901 1174.18 641.557C1172.64 640.213 1171.88 638.373 1171.88 636.037C1171.88 633.733 1172.71 631.957 1174.37 630.709C1176.07 629.461 1178.79 628.837 1182.53 628.837H1187.81V626.389C1187.81 624.565 1187.3 623.205 1186.28 622.309C1185.25 621.381 1183.8 620.917 1181.91 620.917C1180.24 620.917 1178.88 621.253 1177.83 621.925C1176.77 622.565 1175.92 623.445 1175.28 624.565L1172.69 622.645C1173.01 622.005 1173.44 621.381 1173.99 620.773C1174.53 620.165 1175.2 619.637 1176 619.189C1176.8 618.709 1177.72 618.341 1178.74 618.085C1179.76 617.797 1180.9 617.653 1182.15 617.653C1185.06 617.653 1187.36 618.389 1189.06 619.861C1190.79 621.333 1191.65 623.381 1191.65 626.005V639.637H1195.11V642.997H1192.47ZM1181.04 640.357C1182.04 640.357 1182.93 640.245 1183.73 640.021C1184.56 639.765 1185.28 639.445 1185.89 639.061C1186.5 638.645 1186.96 638.165 1187.28 637.621C1187.64 637.045 1187.81 636.437 1187.81 635.797V631.717H1182.53C1180.23 631.717 1178.55 632.037 1177.49 632.677C1176.44 633.317 1175.91 634.245 1175.91 635.461V636.469C1175.91 637.749 1176.36 638.725 1177.25 639.397C1178.18 640.037 1179.44 640.357 1181.04 640.357Z" fill="black"/>
</g>
<g id="Group 122">
<g id="page1">
<path id="Vector" d="M729.387 751.291H738.231C745.262 751.291 747.926 747.242 747.926 746.55C747.926 746.283 747.713 746.177 747.447 746.177C746.861 746.177 745.476 746.709 744.144 747.668C743.718 747.988 743.611 747.988 742.599 747.988H719.319C712.713 747.988 705.309 753.688 705.309 758.056C705.309 758.376 705.309 758.696 705.735 758.696C707.013 758.696 710.369 756.938 710.476 755.659C710.529 754.754 710.636 753.741 711.701 752.356C712.234 751.717 712.66 751.291 715.004 751.291H725.605C724.7 751.877 724.486 752.676 724.38 753.209L718.307 777.341C717.668 779.951 716.549 783.307 715.004 786.77C714.684 787.409 714.684 787.516 714.684 787.622C714.684 787.942 714.898 787.995 715.164 787.995C716.229 787.995 718.84 786.557 719.639 785.438C719.958 784.905 722.302 779.472 723.421 775.05L729.387 751.291Z" fill="black"/>
</g>
<path id="in" d="M638.112 783.177H625.152V781.564C626.457 781.564 627.379 781.449 627.917 781.218C628.493 780.95 628.838 780.508 628.953 779.894C629.107 779.279 629.184 778.434 629.184 777.359V761.289C629.184 760.06 628.973 759.311 628.55 759.042C628.128 758.735 627.494 758.582 626.649 758.582C626.265 758.582 625.92 758.601 625.613 758.639C625.344 758.678 625.209 758.697 625.209 758.697V757.026L632.467 755.414H633.965V777.359C633.965 778.473 634.041 779.337 634.195 779.951C634.349 780.566 634.713 780.988 635.289 781.218C635.904 781.449 636.845 781.564 638.112 781.564V783.177ZM631.661 750.921C630.701 750.921 629.913 750.594 629.299 749.942C628.685 749.289 628.377 748.521 628.377 747.638C628.377 746.754 628.665 746.006 629.241 745.391C629.856 744.738 630.662 744.412 631.661 744.412C632.659 744.412 633.446 744.738 634.022 745.391C634.637 746.006 634.944 746.754 634.944 747.638C634.944 748.521 634.637 749.289 634.022 749.942C633.446 750.594 632.659 750.921 631.661 750.921ZM671.702 783.177H658.396V781.564C659.778 781.564 660.758 781.449 661.334 781.218C661.948 780.95 662.313 780.508 662.428 779.894C662.582 779.279 662.658 778.434 662.658 777.359V766.934C662.658 764.63 662.39 762.902 661.852 761.75C661.353 760.598 660.7 759.849 659.894 759.503C659.087 759.119 658.242 758.927 657.359 758.927C656.246 758.927 655.247 759.158 654.364 759.618C653.481 760.041 652.674 760.559 651.945 761.174C651.254 761.788 650.601 762.364 649.986 762.902L649.583 760.079H650.447C652.022 758.697 653.5 757.545 654.882 756.623C656.303 755.702 657.916 755.241 659.721 755.241C662.332 755.241 664.271 756.124 665.538 757.89C666.806 759.657 667.439 762.191 667.439 765.494V777.359C667.439 778.434 667.516 779.279 667.67 779.894C667.862 780.508 668.265 780.95 668.879 781.218C669.494 781.449 670.434 781.564 671.702 781.564V783.177ZM654.767 783.177H641.577V781.564C642.882 781.564 643.804 781.449 644.342 781.218C644.918 780.95 645.263 780.508 645.378 779.894C645.532 779.279 645.609 778.434 645.609 777.359V761.174C645.609 760.137 645.398 759.465 644.975 759.158C644.553 758.812 643.958 758.639 643.19 758.639C642.69 758.639 642.306 758.658 642.038 758.697C641.769 758.735 641.634 758.754 641.634 758.754V757.084L648.95 755.414H650.274L650.217 760.713L650.39 761.922V777.359C650.39 778.434 650.466 779.279 650.62 779.894C650.774 780.508 651.158 780.95 651.772 781.218C652.386 781.449 653.385 781.564 654.767 781.564V783.177Z" fill="black"/>
</g>
<g id="Group 124">
<g id="Group 120">
<path id="&#226;&#128;&#153;" d="M1258.86 761.235L1256.96 761.12L1257.93 745.025L1263.56 745.367L1258.86 761.235Z" fill="black"/>
<g id="\mathcal{T}" clip-path="url(#clip0_9_222)">
<g id="page1_2">
<path id="Vector_2" d="M1229.39 756.591H1238.24C1245.27 756.591 1247.93 752.542 1247.93 751.849C1247.93 751.583 1247.72 751.477 1247.45 751.477C1246.87 751.477 1245.48 752.009 1244.15 752.968C1243.72 753.288 1243.62 753.288 1242.6 753.288H1219.32C1212.72 753.288 1205.31 758.988 1205.31 763.356C1205.31 763.676 1205.31 763.995 1205.74 763.995C1207.02 763.995 1210.38 762.237 1210.48 760.959C1210.54 760.053 1210.64 759.041 1211.71 757.656C1212.24 757.017 1212.67 756.591 1215.01 756.591H1225.61C1224.71 757.177 1224.49 757.976 1224.39 758.508L1218.31 782.641C1217.67 785.251 1216.55 788.607 1215.01 792.07C1214.69 792.709 1214.69 792.816 1214.69 792.922C1214.69 793.242 1214.9 793.295 1215.17 793.295C1216.24 793.295 1218.85 791.857 1219.64 790.738C1219.96 790.205 1222.31 784.771 1223.43 780.35L1229.39 756.591Z" fill="black"/>
</g>
</g>
</g>
<path id="in_2" d="M1140.11 790.177H1127.15V788.564C1128.46 788.564 1129.38 788.449 1129.92 788.218C1130.49 787.95 1130.84 787.508 1130.95 786.894C1131.11 786.279 1131.18 785.434 1131.18 784.359V768.289C1131.18 767.06 1130.97 766.311 1130.55 766.042C1130.13 765.735 1129.49 765.582 1128.65 765.582C1128.27 765.582 1127.92 765.601 1127.61 765.639C1127.34 765.678 1127.21 765.697 1127.21 765.697V764.026L1134.47 762.414H1135.96V784.359C1135.96 785.473 1136.04 786.337 1136.19 786.951C1136.35 787.566 1136.71 787.988 1137.29 788.218C1137.9 788.449 1138.84 788.564 1140.11 788.564V790.177ZM1133.66 757.921C1132.7 757.921 1131.91 757.594 1131.3 756.942C1130.68 756.289 1130.38 755.521 1130.38 754.638C1130.38 753.754 1130.67 753.006 1131.24 752.391C1131.86 751.738 1132.66 751.412 1133.66 751.412C1134.66 751.412 1135.45 751.738 1136.02 752.391C1136.64 753.006 1136.94 753.754 1136.94 754.638C1136.94 755.521 1136.64 756.289 1136.02 756.942C1135.45 757.594 1134.66 757.921 1133.66 757.921ZM1173.7 790.177H1160.4V788.564C1161.78 788.564 1162.76 788.449 1163.33 788.218C1163.95 787.95 1164.31 787.508 1164.43 786.894C1164.58 786.279 1164.66 785.434 1164.66 784.359V773.934C1164.66 771.63 1164.39 769.902 1163.85 768.75C1163.35 767.598 1162.7 766.849 1161.89 766.503C1161.09 766.119 1160.24 765.927 1159.36 765.927C1158.25 765.927 1157.25 766.158 1156.36 766.618C1155.48 767.041 1154.67 767.559 1153.94 768.174C1153.25 768.788 1152.6 769.364 1151.99 769.902L1151.58 767.079H1152.45C1154.02 765.697 1155.5 764.545 1156.88 763.623C1158.3 762.702 1159.92 762.241 1161.72 762.241C1164.33 762.241 1166.27 763.124 1167.54 764.89C1168.81 766.657 1169.44 769.191 1169.44 772.494V784.359C1169.44 785.434 1169.52 786.279 1169.67 786.894C1169.86 787.508 1170.26 787.95 1170.88 788.218C1171.49 788.449 1172.43 788.564 1173.7 788.564V790.177ZM1156.77 790.177H1143.58V788.564C1144.88 788.564 1145.8 788.449 1146.34 788.218C1146.92 787.95 1147.26 787.508 1147.38 786.894C1147.53 786.279 1147.61 785.434 1147.61 784.359V768.174C1147.61 767.137 1147.4 766.465 1146.98 766.158C1146.55 765.812 1145.96 765.639 1145.19 765.639C1144.69 765.639 1144.31 765.658 1144.04 765.697C1143.77 765.735 1143.63 765.754 1143.63 765.754V764.084L1150.95 762.414H1152.27L1152.22 767.713L1152.39 768.922V784.359C1152.39 785.434 1152.47 786.279 1152.62 786.894C1152.77 787.508 1153.16 787.95 1153.77 788.218C1154.39 788.449 1155.38 788.564 1156.77 788.564V790.177Z" fill="black"/>
</g>
<g id="\implies" clip-path="url(#clip1_9_222)">
<g id="page1_3">
<path id="Vector_3" d="M913.188 655.733C914.132 655.733 915.346 655.733 915.346 654.519C915.346 653.237 914.2 653.237 913.188 653.237H873.467C872.522 653.237 871.309 653.237 871.309 654.451C871.309 655.733 872.455 655.733 873.467 655.733H913.188ZM913.188 668.276C914.132 668.276 915.346 668.276 915.346 667.062C915.346 665.781 914.2 665.781 913.188 665.781H873.467C872.522 665.781 871.309 665.781 871.309 666.995C871.309 668.276 872.455 668.276 873.467 668.276H913.188Z" fill="black"/>
<path id="Vector_4" d="M956.749 655.53C959.582 657.957 963.021 659.711 965.247 660.722C962.819 661.801 959.514 663.555 956.749 665.915H913.926C912.779 665.915 911.498 665.915 911.498 667.264C911.498 668.613 912.712 668.613 913.858 668.613H953.715C950.478 671.715 946.971 677.649 946.971 678.526C946.971 679.268 947.847 679.268 948.252 679.268C948.792 679.268 949.264 679.268 949.533 678.728C950.95 676.166 952.838 672.592 957.221 668.68C961.875 664.566 966.393 662.746 969.9 661.734C971.046 661.329 971.114 661.262 971.249 661.127C971.384 661.06 971.384 660.857 971.384 660.722C971.384 660.588 971.384 660.453 971.316 660.318L971.114 660.183C970.979 660.115 970.911 660.048 969.63 659.643C960.526 656.946 953.782 650.809 950.006 643.593C949.264 642.244 949.196 642.177 948.252 642.177C947.847 642.177 946.971 642.177 946.971 642.919C946.971 643.795 950.41 649.662 953.715 652.832H913.858C912.712 652.832 911.498 652.832 911.498 654.181C911.498 655.53 912.779 655.53 913.926 655.53H956.749Z" fill="black"/>
</g>
</g>
</g>
<g id="Group 127">
<path id="&#226;&#128;&#153;_2" d="M1079.84 488.912L1077.37 488.762L1078.64 467.84L1085.95 468.283L1079.84 488.912Z" fill="black"/>
<g id="\mu: V &#226;&#134;&#146; V" clip-path="url(#clip2_9_222)">
<g id="page1_4">
<path id="Vector_5" d="M746.873 525.481C748.7 527.161 751.403 527.819 753.887 527.819C758.563 527.819 761.777 524.677 763.458 522.412C764.188 526.284 767.257 527.819 769.814 527.819C772.005 527.819 773.759 526.503 775.074 523.873C776.243 521.389 777.266 516.933 777.266 516.641C777.266 516.275 776.973 515.983 776.535 515.983C775.877 515.983 775.804 516.348 775.512 517.444C774.416 521.755 773.028 526.357 770.033 526.357C767.914 526.357 767.768 524.458 767.768 522.997C767.768 521.316 768.425 518.686 768.937 516.494L770.983 508.604C771.275 507.216 772.078 503.928 772.444 502.613C772.882 500.86 773.686 497.718 773.686 497.426C773.686 496.33 772.809 495.6 771.713 495.6C771.056 495.6 769.521 495.892 768.937 498.084L763.823 518.394C763.458 519.855 763.458 520.001 762.508 521.17C761.631 522.412 758.782 526.357 754.179 526.357C750.088 526.357 748.773 523.362 748.773 519.928C748.773 517.81 749.43 515.252 749.723 514.01L753.01 500.86C753.375 499.472 753.96 497.134 753.96 496.696C753.96 495.527 753.01 494.869 752.06 494.869C751.403 494.869 749.796 495.088 749.211 497.426L738.618 539.727C738.545 540.092 738.398 540.531 738.398 540.969C738.398 542.065 739.275 542.796 740.371 542.796C742.49 542.796 742.928 541.115 743.439 539.07L746.873 525.481Z" fill="black"/>
<path id="Vector_6" d="M813.122 499.104C813.122 497.132 811.441 495.598 809.615 495.598C807.496 495.598 806.035 497.278 806.035 499.104C806.035 501.296 807.862 502.684 809.542 502.684C811.515 502.684 813.122 501.15 813.122 499.104ZM813.122 523.506C813.122 521.533 811.441 519.999 809.615 519.999C807.496 519.999 806.035 521.68 806.035 523.506C806.035 525.698 807.862 527.086 809.542 527.086C811.515 527.086 813.122 525.552 813.122 523.506Z" fill="black"/>
<path id="Vector_7" d="M885.069 485.296C887.553 481.351 889.818 479.597 893.544 479.305C894.274 479.232 894.859 479.232 894.859 477.917C894.859 477.625 894.713 477.187 894.055 477.187C892.74 477.187 889.599 477.333 888.284 477.333C886.165 477.333 883.973 477.187 881.928 477.187C881.343 477.187 880.613 477.187 880.613 478.575C880.613 479.232 881.27 479.305 881.562 479.305C884.265 479.524 884.558 480.839 884.558 481.716C884.558 482.812 883.535 484.492 883.462 484.565L860.521 520.949L855.407 481.57C855.407 479.451 859.206 479.305 860.01 479.305C861.106 479.305 861.763 479.305 861.763 477.917C861.763 477.187 860.96 477.187 860.741 477.187C859.499 477.187 858.037 477.333 856.795 477.333H852.704C847.371 477.333 845.179 477.187 845.106 477.187C844.668 477.187 843.791 477.187 843.791 478.502C843.791 479.305 844.302 479.305 845.471 479.305C849.197 479.305 849.417 479.963 849.636 481.789L855.48 526.866C855.7 528.401 855.7 528.62 856.722 528.62C857.599 528.62 857.964 528.401 858.695 527.232L885.069 485.296Z" fill="black"/>
<path id="Vector_8" d="M978.672 510.28C974.654 513.349 972.682 516.344 972.097 517.294C968.809 522.335 968.225 526.938 968.225 527.011C968.225 527.888 969.102 527.888 969.686 527.888C970.928 527.888 971.001 527.741 971.293 526.426C972.974 519.267 977.284 513.13 985.54 509.769C986.417 509.477 986.636 509.331 986.636 508.819C986.636 508.308 986.197 508.089 986.051 508.016C982.837 506.774 973.997 503.121 971.22 490.847C971.001 489.97 970.928 489.751 969.686 489.751C969.102 489.751 968.225 489.751 968.225 490.628C968.225 490.774 968.883 495.376 971.951 500.271C973.412 502.463 975.531 505.02 978.672 507.358H924.39C923.075 507.358 921.76 507.358 921.76 508.819C921.76 510.28 923.075 510.28 924.39 510.28H978.672Z" fill="black"/>
<path id="Vector_9" d="M1056.32 485.296C1058.81 481.351 1061.07 479.597 1064.8 479.305C1065.53 479.232 1066.11 479.232 1066.11 477.917C1066.11 477.625 1065.97 477.187 1065.31 477.187C1063.99 477.187 1060.85 477.333 1059.54 477.333C1057.42 477.333 1055.23 477.187 1053.18 477.187C1052.6 477.187 1051.87 477.187 1051.87 478.575C1051.87 479.232 1052.52 479.305 1052.82 479.305C1055.52 479.524 1055.81 480.839 1055.81 481.716C1055.81 482.812 1054.79 484.492 1054.72 484.565L1031.78 520.949L1026.66 481.57C1026.66 479.451 1030.46 479.305 1031.26 479.305C1032.36 479.305 1033.02 479.305 1033.02 477.917C1033.02 477.187 1032.21 477.187 1031.99 477.187C1030.75 477.187 1029.29 477.333 1028.05 477.333H1023.96C1018.62 477.333 1016.43 477.187 1016.36 477.187C1015.92 477.187 1015.04 477.187 1015.04 478.502C1015.04 479.305 1015.56 479.305 1016.73 479.305C1020.45 479.305 1020.67 479.963 1020.89 481.789L1026.73 526.866C1026.95 528.401 1026.95 528.62 1027.98 528.62C1028.85 528.62 1029.22 528.401 1029.95 527.232L1056.32 485.296Z" fill="black"/>
</g>
</g>
</g>
</g>
<defs>
<clipPath id="clip0_9_222">
<rect width="42.6175" height="41.8184" fill="white" transform="translate(1205.31 751.477)"/>
</clipPath>
<clipPath id="clip1_9_222">
<rect width="100.072" height="37.0912" fill="white" transform="translate(871.309 642.177)"/>
</clipPath>
<clipPath id="clip2_9_222">
<rect width="327.713" height="65.6065" fill="white" transform="translate(738.398 477.187)"/>
</clipPath>
</defs>
</svg>
