<svg width="1024" height="768" viewBox="0 0 1024 768" fill="none" xmlns="http://www.w3.org/2000/svg">
<g id="bordeaux">
<rect width="1024" height="768" fill="white"/>
<rect id="defense" opacity="0.5" x="2" y="177" width="511" height="413" fill="#FF0000"/>
<rect id="reussi" opacity="0.5" x="513" y="177" width="511" height="413" fill="#FF0000"/>
<path id="In_Bordeaux" d="M419.24 113.72C419.24 112.76 419.387 111.52 419.68 110C420 108.453 420.4 106.8 420.88 105.04C421.387 103.253 421.96 101.44 422.6 99.6C423.24 97.7333 423.893 95.9867 424.56 94.36C425.227 92.7333 425.88 91.3067 426.52 90.08C427.16 88.8533 427.733 87.9733 428.24 87.44C428.507 87.4667 428.853 87.5733 429.28 87.76C429.733 87.92 430.187 88.12 430.64 88.36C431.093 88.6 431.507 88.8667 431.88 89.16C432.253 89.4267 432.493 89.68 432.6 89.92C431.827 90.6133 431.053 91.6667 430.28 93.08C429.533 94.4667 428.8 96.0533 428.08 97.84C427.387 99.6267 426.733 101.52 426.12 103.52C425.507 105.493 424.973 107.413 424.52 109.28C424.067 111.147 423.707 112.88 423.44 114.48C423.2 116.08 423.08 117.373 423.08 118.36C423.08 118.813 423.12 119.093 423.2 119.2C422.613 119.173 422.187 119.067 421.92 118.88C421.653 118.72 421.44 118.533 421.28 118.32C421.147 118.133 421.013 117.933 420.88 117.72C420.773 117.533 420.6 117.387 420.36 117.28C420.173 117.2 420.013 117.013 419.88 116.72C419.747 116.427 419.627 116.107 419.52 115.76C419.44 115.387 419.373 115.013 419.32 114.64C419.267 114.267 419.24 113.96 419.24 113.72ZM436.313 96.6C437.006 96.8133 437.66 97.2933 438.273 98.04C438.886 98.76 439.34 99.56 439.633 100.44C439.34 101.16 438.886 102.027 438.273 103.04C437.66 104.053 437.046 105.093 436.433 106.16C435.82 107.2 435.26 108.2 434.753 109.16C434.273 110.093 433.993 110.867 433.913 111.48C434.34 111.027 434.806 110.507 435.313 109.92C435.846 109.307 436.353 108.707 436.833 108.12C437.34 107.507 437.806 106.96 438.233 106.48C438.66 105.973 438.993 105.6 439.233 105.36C439.74 104.827 440.34 104.213 441.033 103.52C441.726 102.8 442.446 102.133 443.193 101.52C443.966 100.88 444.74 100.347 445.513 99.92C446.286 99.4667 446.993 99.24 447.633 99.24C448.326 99.24 448.9 99.48 449.353 99.96C449.833 100.413 450.206 100.893 450.473 101.4C450.473 101.453 450.366 101.533 450.153 101.64C449.966 101.72 449.686 101.973 449.313 102.4C448.94 102.88 448.513 103.547 448.033 104.4C447.58 105.227 447.126 106.133 446.673 107.12C446.246 108.08 445.886 109.067 445.593 110.08C445.3 111.093 445.153 112.013 445.153 112.84C445.153 113.507 445.233 113.933 445.393 114.12C445.58 114.307 445.833 114.4 446.153 114.4C446.446 114.4 446.753 114.333 447.073 114.2C447.393 114.067 447.646 114 447.833 114C447.94 114.053 448.02 114.173 448.073 114.36C448.153 114.52 448.193 114.667 448.193 114.8C447.98 114.987 447.726 115.173 447.433 115.36C447.14 115.547 446.833 115.72 446.513 115.88C446.193 116.04 445.873 116.173 445.553 116.28C445.26 116.387 444.993 116.44 444.753 116.44C443.98 116.44 443.34 116.32 442.833 116.08C442.353 115.867 441.966 115.573 441.673 115.2C441.406 114.827 441.22 114.387 441.113 113.88C441.006 113.347 440.953 112.787 440.953 112.2C440.953 111.88 440.98 111.52 441.033 111.12C441.086 110.72 441.193 110.253 441.353 109.72C441.513 109.16 441.74 108.507 442.033 107.76C442.326 106.987 442.7 106.067 443.153 105C443.1 105 442.74 105.187 442.073 105.56C441.406 105.933 440.686 106.507 439.913 107.28C438.66 108.48 437.526 109.667 436.513 110.84C435.526 112.013 434.513 113.32 433.473 114.76C432.886 115.587 432.366 116.28 431.913 116.84C431.486 117.427 431.113 117.813 430.793 118C430.233 117.68 429.82 117.227 429.553 116.64C429.286 116.08 429.086 115.493 428.953 114.88C428.953 114.373 429.02 113.733 429.153 112.96C429.313 112.187 429.513 111.333 429.753 110.4C430.02 109.44 430.34 108.44 430.713 107.4C431.086 106.36 431.5 105.32 431.953 104.28C432.966 101.933 433.886 100.093 434.713 98.76C435.566 97.4267 436.1 96.7067 436.313 96.6ZM488.686 93.96C488.686 95.6133 488.233 97.0933 487.326 98.4C486.419 99.68 485.179 100.747 483.606 101.6C484.619 102.293 485.419 103.147 486.006 104.16C486.619 105.147 486.926 106.24 486.926 107.44C486.926 108.88 486.486 110.307 485.606 111.72C484.753 113.107 483.606 114.347 482.166 115.44C480.726 116.507 479.086 117.373 477.246 118.04C475.406 118.707 473.526 119.04 471.606 119.04C469.526 119.04 467.699 118.64 466.126 117.84C464.579 117.067 463.366 115.96 462.486 114.52C462.753 113.72 463.099 112.733 463.526 111.56C463.979 110.36 464.473 109.107 465.006 107.8C465.539 106.467 466.073 105.147 466.606 103.84C467.166 102.533 467.686 101.36 468.166 100.32C469.179 98.0533 470.086 96.1733 470.886 94.68C471.686 93.1867 472.419 92 473.086 91.12C471.619 91.5733 470.286 92.0933 469.086 92.68C467.886 93.24 467.006 93.7867 466.446 94.32C466.206 94.16 465.953 93.92 465.686 93.6C465.446 93.28 465.206 92.9333 464.966 92.56C464.753 92.16 464.566 91.76 464.406 91.36C464.273 90.96 464.193 90.6 464.166 90.28C464.859 89.8 465.753 89.3467 466.846 88.92C467.966 88.4667 469.179 88.08 470.486 87.76C471.793 87.44 473.126 87.1867 474.486 87C475.873 86.8133 477.193 86.72 478.446 86.72C481.646 86.72 484.153 87.36 485.966 88.64C487.779 89.92 488.686 91.6933 488.686 93.96ZM473.446 103.52C472.939 103.28 472.473 102.92 472.046 102.44C471.433 103.8 470.846 105.133 470.286 106.44C469.753 107.747 469.273 108.96 468.846 110.08C468.419 111.2 468.073 112.173 467.806 113C467.539 113.827 467.393 114.427 467.366 114.8C467.739 115.013 468.179 115.173 468.686 115.28C469.219 115.387 469.873 115.44 470.646 115.44C472.459 115.44 474.193 115.187 475.846 114.68C477.499 114.173 478.953 113.493 480.206 112.64C481.459 111.76 482.459 110.76 483.206 109.64C483.953 108.52 484.326 107.347 484.326 106.12C484.326 104.36 483.566 103.093 482.046 102.32C479.966 103.173 477.619 103.6 475.006 103.6C474.633 103.6 474.339 103.6 474.126 103.6C473.939 103.6 473.713 103.573 473.446 103.52ZM481.206 89.64C480.646 89.64 480.046 89.68 479.406 89.76C478.793 89.8133 478.139 89.9067 477.446 90.04C477.553 90.1467 477.633 90.2667 477.686 90.4C477.766 90.5067 477.833 90.6267 477.886 90.76C477.646 91.08 477.353 91.5467 477.006 92.16C476.659 92.7733 476.273 93.4933 475.846 94.32C475.419 95.12 474.966 96.0133 474.486 97C474.033 97.9867 473.566 99 473.086 100.04C473.539 99.9333 474.086 99.8533 474.726 99.8C475.393 99.72 476.046 99.68 476.686 99.68C477.033 99.68 477.366 99.6933 477.686 99.72C478.033 99.7467 478.366 99.7867 478.686 99.84C479.966 99.6267 481.113 99.32 482.126 98.92C483.166 98.4933 484.059 98.0133 484.806 97.48C485.553 96.92 486.126 96.3067 486.526 95.64C486.926 94.9733 487.126 94.2667 487.126 93.52C487.126 92.24 486.619 91.28 485.606 90.64C484.593 89.9733 483.126 89.64 481.206 89.64ZM494.241 117.4C492.721 117.24 491.507 116.573 490.601 115.4C489.694 114.227 489.241 112.733 489.241 110.92C489.241 109.853 489.401 108.747 489.721 107.6C490.041 106.453 490.494 105.347 491.081 104.28C491.667 103.187 492.361 102.16 493.161 101.2C493.961 100.24 494.827 99.4133 495.761 98.72C497.227 97.6267 498.601 97.08 499.881 97.08C500.734 97.5333 501.574 98.48 502.401 99.92C502.534 99.92 502.654 99.92 502.761 99.92C502.867 99.8933 502.987 99.88 503.121 99.88C504.534 99.88 505.241 101.133 505.241 103.64C505.241 105.32 504.961 106.92 504.401 108.44C503.867 109.933 503.107 111.293 502.121 112.52C501.161 113.747 500.001 114.787 498.641 115.64C497.307 116.467 495.841 117.053 494.241 117.4ZM496.281 104.8C495.827 105.413 495.401 106.08 495.001 106.8C494.601 107.52 494.254 108.253 493.961 109C493.667 109.72 493.441 110.427 493.281 111.12C493.121 111.787 493.041 112.387 493.041 112.92C493.041 113.56 493.147 114.173 493.361 114.76C493.574 115.347 493.814 115.68 494.081 115.76C495.281 115.493 496.374 115 497.361 114.28C498.374 113.533 499.241 112.613 499.961 111.52C500.707 110.427 501.281 109.187 501.681 107.8C502.107 106.413 502.321 104.933 502.321 103.36C502.321 102.667 502.281 102.12 502.201 101.72C502.121 101.32 501.987 100.973 501.801 100.68C500.627 101.027 499.574 101.587 498.641 102.36C497.734 103.133 496.947 103.947 496.281 104.8ZM506.217 115.2C506.35 114.427 506.577 113.413 506.897 112.16C507.244 110.88 507.644 109.533 508.097 108.12C508.55 106.68 509.03 105.24 509.537 103.8C510.044 102.36 510.537 101.067 511.017 99.92C511.364 99.0933 511.67 98.4533 511.937 98C512.204 97.52 512.497 97.12 512.817 96.8C513.19 96.8533 513.577 96.9467 513.977 97.08C514.377 97.2133 514.764 97.3733 515.137 97.56C515.51 97.7467 515.844 97.9467 516.137 98.16C516.43 98.3467 516.657 98.5333 516.817 98.72C516.097 99.5733 515.457 100.547 514.897 101.64C514.364 102.733 513.817 104.133 513.257 105.84C514.697 104.56 515.964 103.333 517.057 102.16C518.177 100.987 519.217 99.68 520.177 98.24C520.337 98.1067 520.617 98.04 521.017 98.04C521.39 98.04 521.75 98.1067 522.097 98.24C522.444 98.3467 522.684 98.5067 522.817 98.72C522.337 100 522.097 101.267 522.097 102.52C522.097 103.693 522.27 104.573 522.617 105.16C522.59 105.32 522.404 105.627 522.057 106.08C521.737 106.533 521.377 106.96 520.977 107.36C520.257 106.987 519.617 106.48 519.057 105.84C518.497 105.173 518.084 104.453 517.817 103.68C516.564 104.56 515.497 105.427 514.617 106.28C513.737 107.107 512.977 108.04 512.337 109.08C511.724 110.093 511.19 111.267 510.737 112.6C510.31 113.933 509.897 115.52 509.497 117.36C509.257 117.333 508.964 117.24 508.617 117.08C508.297 116.947 507.964 116.773 507.617 116.56C507.297 116.347 507.004 116.12 506.737 115.88C506.47 115.64 506.297 115.413 506.217 115.2ZM532.03 97.32C532.563 97.32 533.176 97.48 533.87 97.8C534.563 98.12 535.176 98.5333 535.71 99.04C535.576 97.9733 535.403 96.9733 535.19 96.04C535.003 95.08 534.71 94.0933 534.31 93.08C533.936 92.0667 533.43 90.96 532.79 89.76C532.15 88.56 531.35 87.1867 530.39 85.64C530.47 85.4 530.643 85.12 530.91 84.8C531.203 84.48 531.523 84.1867 531.87 83.92C532.243 83.6267 532.616 83.3733 532.99 83.16C533.39 82.9467 533.763 82.8133 534.11 82.76C534.856 83.5867 535.563 84.6267 536.23 85.88C536.896 87.1067 537.483 88.44 537.99 89.88C538.496 91.2933 538.883 92.76 539.15 94.28C539.443 95.8 539.59 97.2533 539.59 98.64C539.59 100.027 539.43 101.453 539.11 102.92C538.816 104.387 538.39 105.827 537.83 107.24C537.296 108.627 536.67 109.947 535.95 111.2C535.23 112.453 534.443 113.573 533.59 114.56C532.763 115.547 531.896 116.347 530.99 116.96C530.083 117.6 529.176 118 528.27 118.16C526.43 117.947 525.016 117.347 524.03 116.36C523.07 115.4 522.59 114.067 522.59 112.36C522.59 111.453 522.723 110.467 522.99 109.4C523.283 108.333 523.656 107.28 524.11 106.24C524.59 105.173 525.136 104.147 525.75 103.16C526.39 102.147 527.056 101.24 527.75 100.44C528.47 99.64 529.19 98.96 529.91 98.4C530.63 97.84 531.336 97.48 532.03 97.32ZM527.95 116.56C528.883 116.24 529.816 115.533 530.75 114.44C531.683 113.347 532.523 112.067 533.27 110.6C534.016 109.107 534.616 107.52 535.07 105.84C535.55 104.133 535.79 102.493 535.79 100.92C535.79 100.467 535.79 100.187 535.79 100.08C535.79 99.9733 535.776 99.8667 535.75 99.76C535.11 100.027 534.43 100.48 533.71 101.12C532.99 101.76 532.27 102.507 531.55 103.36C530.83 104.187 530.15 105.093 529.51 106.08C528.87 107.067 528.296 108.053 527.79 109.04C527.283 110.027 526.883 110.973 526.59 111.88C526.296 112.787 526.15 113.587 526.15 114.28C526.15 115.613 526.75 116.373 527.95 116.56ZM554.934 99.44C554.828 101.093 554.534 102.52 554.054 103.72C553.574 104.893 552.881 105.933 551.974 106.84C551.094 107.72 550.014 108.52 548.734 109.24C547.454 109.96 545.961 110.653 544.254 111.32C544.254 111.48 544.241 111.653 544.214 111.84C544.214 112 544.214 112.173 544.214 112.36C544.214 112.707 544.241 113.067 544.294 113.44C544.348 113.813 544.441 114.16 544.574 114.48C544.708 114.8 544.894 115.067 545.134 115.28C545.374 115.467 545.681 115.56 546.054 115.56C546.774 115.56 547.481 115.4 548.174 115.08C548.868 114.76 549.521 114.373 550.134 113.92C550.774 113.44 551.361 112.933 551.894 112.4C552.454 111.84 552.948 111.333 553.374 110.88C553.641 111.12 553.868 111.347 554.054 111.56C552.854 113.16 551.534 114.493 550.094 115.56C548.681 116.6 547.334 117.267 546.054 117.56C544.214 117.347 542.774 116.68 541.734 115.56C540.721 114.413 540.214 113.04 540.214 111.44C540.214 110.347 540.361 109.24 540.654 108.12C540.974 106.973 541.401 105.88 541.934 104.84C542.494 103.773 543.134 102.773 543.854 101.84C544.601 100.907 545.388 100.093 546.214 99.4C547.068 98.7067 547.934 98.16 548.814 97.76C549.721 97.36 550.614 97.16 551.494 97.16C552.721 97.32 553.868 98.08 554.934 99.44ZM552.174 100.76C551.454 100.867 550.708 101.16 549.934 101.64C549.161 102.12 548.428 102.76 547.734 103.56C547.068 104.36 546.454 105.293 545.894 106.36C545.334 107.427 544.894 108.573 544.574 109.8C546.708 108.733 548.481 107.427 549.894 105.88C551.308 104.307 552.068 102.6 552.174 100.76ZM570.586 99.84C570.853 99.84 571.16 99.8933 571.506 100C571.88 100.08 572.213 100.2 572.506 100.36C572.8 100.493 573.04 100.64 573.226 100.8C573.44 100.96 573.546 101.107 573.546 101.24C573.013 102.36 572.52 103.493 572.066 104.64C571.613 105.76 571.226 106.84 570.906 107.88C570.586 108.92 570.333 109.893 570.146 110.8C569.986 111.707 569.906 112.493 569.906 113.16C569.906 113.907 569.986 114.533 570.146 115.04C570.306 115.52 570.573 115.867 570.946 116.08C570.626 116.293 570.213 116.467 569.706 116.6C569.2 116.733 568.746 116.8 568.346 116.8C566.906 116.8 566.186 115.813 566.186 113.84C566.186 112.32 566.693 110.24 567.706 107.6C567.173 108.827 566.56 109.987 565.866 111.08C565.173 112.147 564.466 113.093 563.746 113.92C563.026 114.747 562.293 115.427 561.546 115.96C560.826 116.467 560.16 116.773 559.546 116.88C558.56 116.827 557.76 116.36 557.146 115.48C556.533 114.573 556.226 113.427 556.226 112.04C556.226 110.547 556.546 108.973 557.186 107.32C557.826 105.667 558.64 104.133 559.626 102.72C560.64 101.307 561.733 100.133 562.906 99.2C564.08 98.24 565.213 97.7333 566.306 97.68C566.573 97.76 566.866 97.92 567.186 98.16C567.533 98.4 567.853 98.68 568.146 99C568.466 99.32 568.733 99.6533 568.946 100C569.16 100.32 569.28 100.6 569.306 100.84C568.24 101 567.133 101.52 565.986 102.4C564.866 103.28 563.84 104.347 562.906 105.6C562 106.827 561.253 108.147 560.666 109.56C560.08 110.973 559.786 112.293 559.786 113.52C559.786 114.027 559.973 114.347 560.346 114.48C561.12 114.32 562.013 113.667 563.026 112.52C564.04 111.347 565.266 109.547 566.706 107.12C566.973 106.64 567.266 106.107 567.586 105.52C567.933 104.933 568.28 104.32 568.626 103.68C568.973 103.04 569.306 102.4 569.626 101.76C569.973 101.093 570.293 100.453 570.586 99.84ZM586.299 115.12C585.792 114.693 585.446 114.16 585.259 113.52C585.099 112.88 585.019 112.333 585.019 111.88C585.019 111.32 585.086 110.84 585.219 110.44C585.112 110.44 584.872 110.653 584.499 111.08C584.126 111.507 583.712 112.013 583.259 112.6C582.832 113.187 582.406 113.76 581.979 114.32C581.552 114.88 581.232 115.293 581.019 115.56C580.672 115.933 580.339 116.227 580.019 116.44C579.726 116.653 579.486 116.773 579.299 116.8C578.872 116.773 578.419 116.68 577.939 116.52C577.486 116.387 577.046 116.187 576.619 115.92C576.219 115.653 575.859 115.333 575.539 114.96C575.246 114.587 575.046 114.16 574.939 113.68C574.939 112.933 574.952 112.32 574.979 111.84C575.032 111.36 575.126 110.84 575.259 110.28C575.499 109.267 575.846 108.12 576.299 106.84C576.779 105.56 577.326 104.307 577.939 103.08C578.552 101.827 579.232 100.667 579.979 99.6C580.752 98.5067 581.566 97.6533 582.419 97.04C582.659 97.04 582.939 97.0667 583.259 97.12C583.579 97.1467 583.899 97.2133 584.219 97.32C584.566 97.4267 584.886 97.56 585.179 97.72C585.499 97.8533 585.766 98.04 585.979 98.28C585.739 98.5467 585.126 99.44 584.139 100.96C583.179 102.48 582.099 104.667 580.899 107.52C580.766 107.813 580.606 108.24 580.419 108.8C580.232 109.36 580.046 109.947 579.859 110.56C579.672 111.173 579.512 111.773 579.379 112.36C579.272 112.947 579.219 113.413 579.219 113.76C579.219 113.973 579.246 114.133 579.299 114.24C579.379 114.347 579.446 114.427 579.499 114.48C579.899 114.32 580.406 113.88 581.019 113.16C581.632 112.44 582.486 111.333 583.579 109.84C583.846 109.467 584.152 109.04 584.499 108.56C584.872 108.08 585.246 107.573 585.619 107.04C585.992 106.48 586.339 105.907 586.659 105.32C587.006 104.733 587.286 104.147 587.499 103.56C587.606 103.24 587.739 102.867 587.899 102.44C588.086 101.987 588.299 101.52 588.539 101.04C588.806 100.56 589.099 100.08 589.419 99.6C589.766 99.0933 590.166 98.6267 590.619 98.2C590.966 98.2 591.339 98.24 591.739 98.32C592.139 98.4 592.512 98.5067 592.859 98.64C593.232 98.7467 593.552 98.88 593.819 99.04C594.086 99.1733 594.286 99.32 594.419 99.48C593.939 100.653 593.406 101.813 592.819 102.96C592.232 104.107 591.686 105.24 591.179 106.36C590.672 107.453 590.246 108.547 589.899 109.64C589.552 110.733 589.379 111.8 589.379 112.84C589.379 113.4 589.419 113.893 589.499 114.32C589.606 114.72 589.712 115.067 589.819 115.36C589.926 115.627 590.019 115.853 590.099 116.04C590.206 116.227 590.259 116.387 590.259 116.52C590.259 116.547 590.232 116.587 590.179 116.64C590.152 116.667 590.126 116.68 590.099 116.68C589.912 116.68 589.672 116.64 589.379 116.56C589.086 116.48 588.752 116.36 588.379 116.2C588.032 116.067 587.672 115.907 587.299 115.72C586.952 115.533 586.619 115.333 586.299 115.12ZM607.625 115.76C607.331 116.213 606.865 116.573 606.225 116.84C605.611 117.133 605.025 117.307 604.465 117.36C604.011 116.827 603.505 116.107 602.945 115.2C602.385 114.267 601.851 113.187 601.345 111.96C599.985 113.187 598.625 114.307 597.265 115.32C595.905 116.307 594.638 117.147 593.465 117.84C593.171 117.787 592.931 117.627 592.745 117.36C592.558 117.093 592.451 116.747 592.425 116.32C592.958 116.027 593.585 115.64 594.305 115.16C595.051 114.68 595.798 114.16 596.545 113.6C597.318 113.013 598.051 112.413 598.745 111.8C599.465 111.16 600.078 110.547 600.585 109.96C600.131 108.893 599.705 107.8 599.305 106.68C598.931 105.533 598.598 104.44 598.305 103.4C598.038 102.333 597.825 101.373 597.665 100.52C597.505 99.64 597.425 98.9333 597.425 98.4C597.425 98.0267 597.465 97.7867 597.545 97.68C597.651 97.5467 597.878 97.48 598.225 97.48C598.491 97.48 598.811 97.5067 599.185 97.56C599.585 97.6133 599.985 97.68 600.385 97.76C600.785 97.84 601.185 97.9333 601.585 98.04C601.985 98.12 602.331 98.2133 602.625 98.32C602.571 98.6133 602.545 98.8667 602.545 99.08C602.545 99.2933 602.545 99.6 602.545 100C602.545 101.04 602.625 102.107 602.785 103.2C602.971 104.267 603.265 105.427 603.665 106.68C604.758 105.427 605.771 104.04 606.705 102.52C607.638 100.973 608.585 99.1333 609.545 97C610.211 97.1333 610.785 97.3333 611.265 97.6C611.745 97.84 612.051 98.1067 612.185 98.4C611.891 99.6267 611.065 101.173 609.705 103.04C608.345 104.907 606.611 106.893 604.505 109C604.878 110.013 605.331 111.093 605.865 112.24C606.398 113.36 606.985 114.533 607.625 115.76Z" fill="black"/>
</g>
</svg>
