<svg width="1921" height="1081" viewBox="0 0 1921 1081" fill="none" xmlns="http://www.w3.org/2000/svg">
<g id="proof frontier">
<rect width="1920" height="1080" transform="translate(0.711914 0.431885)" fill="white"/>
<g id="Group 67">
<path id="Proof:" d="M216.276 328.472C216.276 330.281 215.862 331.876 215.034 333.256C214.206 334.605 213.041 335.663 211.538 336.43C210.066 337.166 208.349 337.534 206.386 337.534C206.141 337.534 205.819 337.503 205.42 337.442C205.021 337.381 204.699 337.289 204.454 337.166C204.393 337.105 204.27 336.997 204.086 336.844C203.902 336.66 203.81 336.43 203.81 336.154C203.81 335.97 203.887 335.893 204.04 335.924C204.285 335.985 204.546 336.062 204.822 336.154C205.098 336.215 205.405 336.246 205.742 336.246C207.551 336.246 209.069 335.648 210.296 334.452C211.523 333.225 212.136 331.493 212.136 329.254C212.136 327.015 211.523 325.221 210.296 323.872C209.069 322.523 207.214 321.848 204.73 321.848C204.454 321.848 204.025 321.863 203.442 321.894C202.89 321.925 202.568 322.047 202.476 322.262C202.353 322.538 202.277 323.013 202.246 323.688C202.246 324.332 202.246 324.991 202.246 325.666V344.802C202.246 345.477 202.246 346.105 202.246 346.688C202.277 347.271 202.353 347.746 202.476 348.114C202.537 348.267 202.783 348.405 203.212 348.528C203.641 348.651 204.086 348.743 204.546 348.804C205.037 348.835 205.374 348.85 205.558 348.85C205.65 348.973 205.696 349.187 205.696 349.494C205.727 349.801 205.681 350.015 205.558 350.138C204.638 350.077 203.749 350.031 202.89 350C202.062 349.939 201.203 349.908 200.314 349.908C199.455 349.908 198.581 349.939 197.692 350C196.833 350.031 195.944 350.077 195.024 350.138C194.901 350.015 194.84 349.801 194.84 349.494C194.871 349.187 194.932 348.973 195.024 348.85C195.208 348.85 195.53 348.835 195.99 348.804C196.481 348.743 196.941 348.651 197.37 348.528C197.83 348.405 198.075 348.267 198.106 348.114C198.229 347.746 198.29 347.271 198.29 346.688C198.321 346.105 198.336 345.477 198.336 344.802V325.62C198.336 324.945 198.321 324.317 198.29 323.734C198.29 323.121 198.229 322.63 198.106 322.262C198.075 322.078 197.83 321.94 197.37 321.848C196.941 321.756 196.481 321.695 195.99 321.664C195.53 321.603 195.208 321.572 195.024 321.572C194.932 321.449 194.871 321.235 194.84 320.928C194.84 320.621 194.901 320.407 195.024 320.284C195.944 320.315 196.833 320.361 197.692 320.422C198.581 320.453 199.455 320.468 200.314 320.468C201.203 320.468 202.154 320.453 203.166 320.422C204.209 320.391 205.389 320.376 206.708 320.376C208.303 320.376 209.821 320.698 211.262 321.342C212.734 321.955 213.93 322.86 214.85 324.056C215.801 325.252 216.276 326.724 216.276 328.472ZM231.233 330.358C231.816 330.358 232.368 330.496 232.889 330.772C233.411 331.017 233.779 331.324 233.993 331.692C234.055 331.815 234.101 331.983 234.131 332.198C234.162 332.413 234.177 332.643 234.177 332.888C234.177 333.716 233.978 334.314 233.579 334.682C233.211 335.05 232.905 335.234 232.659 335.234C232.353 335.234 232.061 335.127 231.785 334.912C231.509 334.697 231.249 334.513 231.003 334.36C230.789 334.207 230.559 334.084 230.313 333.992C230.099 333.869 229.777 333.808 229.347 333.808C228.703 333.808 228.105 334.084 227.553 334.636C227.032 335.157 226.603 335.74 226.265 336.384C225.928 337.028 225.759 337.519 225.759 337.856V344.802C225.759 345.477 225.759 346.105 225.759 346.688C225.79 347.271 225.867 347.746 225.989 348.114C226.051 348.267 226.357 348.405 226.909 348.528C227.461 348.651 228.044 348.743 228.657 348.804C229.271 348.835 229.669 348.85 229.853 348.85C229.945 348.973 229.991 349.187 229.991 349.494C230.022 349.801 229.976 350.015 229.853 350.138C228.933 350.077 227.998 350.031 227.047 350C226.097 349.939 225.177 349.908 224.287 349.908C223.429 349.908 222.601 349.939 221.803 350C221.006 350.031 220.147 350.077 219.227 350.138C219.105 350.015 219.043 349.801 219.043 349.494C219.074 349.187 219.135 348.973 219.227 348.85C219.411 348.85 219.718 348.835 220.147 348.804C220.607 348.743 221.037 348.651 221.435 348.528C221.834 348.405 222.049 348.267 222.079 348.114C222.202 347.746 222.263 347.271 222.263 346.688C222.294 346.105 222.309 345.477 222.309 344.802V336.43C222.309 336.123 222.294 335.725 222.263 335.234C222.263 334.743 222.202 334.36 222.079 334.084C221.987 333.808 221.727 333.624 221.297 333.532C220.868 333.409 220.439 333.348 220.009 333.348C219.58 333.317 219.304 333.302 219.181 333.302C219.151 333.241 219.12 333.057 219.089 332.75C219.059 332.443 219.089 332.229 219.181 332.106C220.347 331.953 221.481 331.723 222.585 331.416C223.689 331.109 224.686 330.711 225.575 330.22C225.698 330.22 225.805 330.312 225.897 330.496C226.02 330.68 226.081 330.833 226.081 330.956C226.081 331.048 226.051 331.401 225.989 332.014C225.928 332.627 225.867 333.256 225.805 333.9C225.775 334.513 225.759 334.912 225.759 335.096C225.759 335.188 225.775 335.234 225.805 335.234C225.867 335.234 225.913 335.219 225.943 335.188C226.25 334.544 226.679 333.854 227.231 333.118C227.814 332.351 228.458 331.707 229.163 331.186C229.869 330.634 230.559 330.358 231.233 330.358ZM246.051 330.266C248.044 330.266 249.746 330.695 251.157 331.554C252.598 332.413 253.702 333.578 254.469 335.05C255.266 336.522 255.665 338.193 255.665 340.064C255.665 341.996 255.251 343.744 254.423 345.308C253.595 346.841 252.46 348.068 251.019 348.988C249.577 349.877 247.952 350.322 246.143 350.322C244.18 350.322 242.463 349.893 240.991 349.034C239.549 348.145 238.43 346.964 237.633 345.492C236.866 343.989 236.483 342.303 236.483 340.432C236.483 338.5 236.897 336.767 237.725 335.234C238.583 333.701 239.733 332.489 241.175 331.6C242.616 330.711 244.241 330.266 246.051 330.266ZM245.545 331.784C244.287 331.784 243.275 332.167 242.509 332.934C241.742 333.67 241.19 334.636 240.853 335.832C240.515 336.997 240.347 338.224 240.347 339.512C240.347 340.953 240.577 342.395 241.037 343.836C241.527 345.277 242.233 346.473 243.153 347.424C244.103 348.375 245.253 348.85 246.603 348.85C247.891 348.85 248.903 348.482 249.639 347.746C250.405 346.979 250.957 345.998 251.295 344.802C251.632 343.606 251.801 342.379 251.801 341.122C251.801 339.65 251.555 338.209 251.065 336.798C250.574 335.357 249.869 334.161 248.949 333.21C248.029 332.259 246.894 331.784 245.545 331.784ZM268.916 330.266C270.909 330.266 272.611 330.695 274.022 331.554C275.463 332.413 276.567 333.578 277.334 335.05C278.131 336.522 278.53 338.193 278.53 340.064C278.53 341.996 278.116 343.744 277.288 345.308C276.46 346.841 275.325 348.068 273.884 348.988C272.442 349.877 270.817 350.322 269.008 350.322C267.045 350.322 265.328 349.893 263.856 349.034C262.414 348.145 261.295 346.964 260.498 345.492C259.731 343.989 259.348 342.303 259.348 340.432C259.348 338.5 259.762 336.767 260.59 335.234C261.448 333.701 262.598 332.489 264.04 331.6C265.481 330.711 267.106 330.266 268.916 330.266ZM268.41 331.784C267.152 331.784 266.14 332.167 265.374 332.934C264.607 333.67 264.055 334.636 263.718 335.832C263.38 336.997 263.212 338.224 263.212 339.512C263.212 340.953 263.442 342.395 263.902 343.836C264.392 345.277 265.098 346.473 266.018 347.424C266.968 348.375 268.118 348.85 269.468 348.85C270.756 348.85 271.768 348.482 272.504 347.746C273.27 346.979 273.822 345.998 274.16 344.802C274.497 343.606 274.666 342.379 274.666 341.122C274.666 339.65 274.42 338.209 273.93 336.798C273.439 335.357 272.734 334.161 271.814 333.21C270.894 332.259 269.759 331.784 268.41 331.784ZM292.471 318.674C293.146 318.674 293.575 318.705 293.759 318.766C293.974 318.827 294.25 318.981 294.587 319.226C294.679 319.318 294.771 319.487 294.863 319.732C294.986 319.977 295.047 320.223 295.047 320.468C295.047 321.265 294.817 321.771 294.357 321.986C293.928 322.17 293.56 322.262 293.253 322.262C293.038 322.262 292.824 322.216 292.609 322.124C292.394 322.032 292.164 321.925 291.919 321.802C291.674 321.649 291.474 321.541 291.321 321.48C291.168 321.419 290.938 321.388 290.631 321.388C289.956 321.388 289.358 321.741 288.837 322.446C288.346 323.151 288.116 324.209 288.147 325.62V331.186H293.483C293.606 331.186 293.667 331.309 293.667 331.554C293.667 331.615 293.667 331.661 293.667 331.692C293.667 332.183 293.468 332.627 293.069 333.026H288.147V344.802C288.147 345.477 288.147 346.105 288.147 346.688C288.178 347.271 288.254 347.746 288.377 348.114C288.438 348.267 288.668 348.405 289.067 348.528C289.496 348.651 289.941 348.743 290.401 348.804C290.892 348.835 291.229 348.85 291.413 348.85C291.505 348.973 291.551 349.187 291.551 349.494C291.582 349.801 291.536 350.015 291.413 350.138C290.493 350.077 289.65 350.031 288.883 350C288.116 349.939 287.288 349.908 286.399 349.908C285.54 349.908 284.758 349.939 284.053 350C283.378 350.031 282.581 350.077 281.661 350.138C281.538 350.015 281.477 349.801 281.477 349.494C281.508 349.187 281.569 348.973 281.661 348.85C281.845 348.85 282.152 348.835 282.581 348.804C283.01 348.743 283.424 348.651 283.823 348.528C284.222 348.405 284.436 348.267 284.467 348.114C284.59 347.746 284.651 347.271 284.651 346.688C284.682 346.105 284.697 345.477 284.697 344.802V333.026H282.075C282.014 333.026 281.968 332.98 281.937 332.888C281.906 332.765 281.891 332.673 281.891 332.612C281.891 332.551 281.983 332.413 282.167 332.198C282.351 331.953 282.535 331.723 282.719 331.508C282.934 331.293 283.041 331.186 283.041 331.186H284.697V330.312C284.697 328.687 284.958 327.169 285.479 325.758C286.031 324.347 286.721 323.121 287.549 322.078C288.377 321.005 289.236 320.177 290.125 319.594C291.014 318.981 291.796 318.674 292.471 318.674ZM296.786 333.072C296.786 332.397 297.031 331.83 297.522 331.37C298.013 330.879 298.595 330.634 299.27 330.634C299.945 330.634 300.512 330.879 300.972 331.37C301.463 331.83 301.708 332.397 301.708 333.072C301.708 333.747 301.463 334.345 300.972 334.866C300.512 335.357 299.945 335.602 299.27 335.602C298.595 335.602 298.013 335.357 297.522 334.866C297.031 334.345 296.786 333.747 296.786 333.072ZM296.786 347.976C296.786 347.301 297.031 346.734 297.522 346.274C298.013 345.783 298.595 345.538 299.27 345.538C299.945 345.538 300.512 345.783 300.972 346.274C301.463 346.734 301.708 347.301 301.708 347.976C301.708 348.651 301.463 349.249 300.972 349.77C300.512 350.261 299.945 350.506 299.27 350.506C298.595 350.506 298.013 350.261 297.522 349.77C297.031 349.249 296.786 348.651 296.786 347.976Z" fill="black"/>
<path id="Vector 82" d="M193.304 357L300 358" stroke="black" stroke-width="2"/>
</g>
<g id="Group_93">
<rect id="Rectangle 12" x="194.5" y="433.5" width="483" height="322" rx="28.5" stroke="#808080" stroke-width="3"/>
<g id="frontier">
<path id="Vector 83" d="M355.737 600.982C363.854 575.986 345.409 537.541 355.737 526.319C383.153 501.021 473.595 503.189 487.232 508.059C540.622 527.123 543.463 557.018 548.921 579.475C553.938 600.119 540.398 717.034 530.252 725.555C520.106 734.077 398.757 747.061 368.724 735.294C338.691 723.526 320.023 685.383 317.182 666.718C314.341 648.052 345.591 632.227 355.737 600.982Z" stroke="#4D4DC4" stroke-width="5"/>
</g>
<g id="\overline{A} \setminus A" clip-path="url(#clip0_3_1478)">
<g id="page1">
<path id="Vector" d="M551.718 471.704H513.904V473.765H551.718V471.704Z" fill="#4D4DC4"/>
<path id="Vector_2" d="M522.661 509.431C520.858 512.47 519.107 513.5 516.634 513.655C516.067 513.706 515.655 513.706 515.655 514.634C515.655 514.943 515.913 515.149 516.273 515.149C517.201 515.149 519.519 515.046 520.446 515.046C521.94 515.046 523.589 515.149 525.031 515.149C525.34 515.149 525.958 515.149 525.958 514.17C525.958 513.706 525.546 513.655 525.237 513.655C524.052 513.552 523.074 513.14 523.074 511.903C523.074 511.182 523.383 510.615 524.052 509.482L527.968 502.991H541.104C541.156 503.455 541.156 503.867 541.207 504.331C541.362 505.67 541.98 511.028 541.98 512.006C541.98 513.552 539.352 513.655 538.528 513.655C537.962 513.655 537.395 513.655 537.395 514.582C537.395 515.149 537.859 515.149 538.168 515.149C539.043 515.149 540.074 515.046 540.949 515.046H543.886C547.028 515.046 549.295 515.149 549.346 515.149C549.707 515.149 550.274 515.149 550.274 514.17C550.274 513.655 549.81 513.655 549.037 513.655C546.204 513.655 546.153 513.191 545.998 511.646L542.856 479.5C542.752 478.47 542.546 478.367 541.98 478.367C541.465 478.367 541.156 478.47 540.692 479.242L522.661 509.431ZM528.843 501.497L539.198 484.188L540.949 501.497H528.843Z" fill="#4D4DC4"/>
<path id="Vector_3" d="M583.823 526.791C584.081 527.513 584.339 528.028 585.008 528.028C585.575 528.028 586.039 527.564 586.039 526.998C586.039 526.894 586.039 526.791 585.781 526.173L568.163 477.749C567.854 476.873 567.699 476.512 567.029 476.512C566.463 476.512 565.999 476.976 565.999 477.543C565.999 477.646 565.999 477.749 566.257 478.367L583.823 526.791Z" fill="#4D4DC4"/>
<path id="Vector_4" d="M609.129 509.431C607.326 512.47 605.575 513.5 603.102 513.655C602.535 513.706 602.123 513.706 602.123 514.634C602.123 514.943 602.381 515.149 602.741 515.149C603.669 515.149 605.987 515.046 606.914 515.046C608.408 515.046 610.056 515.149 611.499 515.149C611.808 515.149 612.426 515.149 612.426 514.17C612.426 513.706 612.014 513.655 611.705 513.655C610.52 513.552 609.541 513.14 609.541 511.903C609.541 511.182 609.85 510.615 610.52 509.482L614.435 502.991H627.572C627.623 503.455 627.623 503.867 627.675 504.331C627.829 505.67 628.448 511.028 628.448 512.006C628.448 513.552 625.82 513.655 624.996 513.655C624.429 513.655 623.863 513.655 623.863 514.582C623.863 515.149 624.326 515.149 624.635 515.149C625.511 515.149 626.541 515.046 627.417 515.046H630.354C633.496 515.046 635.763 515.149 635.814 515.149C636.175 515.149 636.742 515.149 636.742 514.17C636.742 513.655 636.278 513.655 635.505 513.655C632.672 513.655 632.62 513.191 632.466 511.646L629.323 479.5C629.22 478.47 629.014 478.367 628.448 478.367C627.932 478.367 627.623 478.47 627.16 479.242L609.129 509.431ZM615.311 501.497L625.666 484.188L627.417 501.497H615.311Z" fill="#4D4DC4"/>
</g>
</g>
</g>
<g id="open_set">
<ellipse id="Ellipse 1" cx="361" cy="581" rx="44" ry="28" fill="#F2CAB2"/>
<path id="open set" d="M250.548 526.5C252.418 526.126 254.095 526.21 255.579 526.751C257.092 527.287 258.345 528.173 259.34 529.41C260.364 530.641 261.051 532.135 261.401 533.889C261.763 535.701 261.702 537.419 261.219 539.041C260.729 540.634 259.895 541.997 258.715 543.13C257.53 544.234 256.088 544.956 254.391 545.295C252.55 545.663 250.859 545.582 249.317 545.052C247.799 544.488 246.528 543.59 245.504 542.358C244.504 541.093 243.828 539.582 243.478 537.828C243.116 536.015 243.179 534.313 243.669 532.719C244.187 531.12 245.039 529.768 246.224 528.664C247.41 527.56 248.851 526.839 250.548 526.5ZM250.358 528.018C249.178 528.254 248.301 528.803 247.725 529.666C247.144 530.5 246.807 531.509 246.715 532.694C246.617 533.85 246.688 535.033 246.93 536.241C247.2 537.593 247.685 538.902 248.387 540.167C249.117 541.428 250.003 542.417 251.044 543.137C252.114 543.85 253.281 544.081 254.547 543.828C255.755 543.587 256.636 543.052 257.188 542.224C257.764 541.361 258.097 540.337 258.19 539.152C258.282 537.967 258.211 536.785 257.975 535.605C257.699 534.225 257.199 532.919 256.475 531.687C255.745 530.427 254.859 529.438 253.818 528.718C252.777 527.999 251.624 527.766 250.358 528.018ZM273.558 521.949C274.852 521.691 276.029 521.74 277.087 522.097C278.174 522.448 279.109 523.009 279.891 523.781C280.702 524.546 281.352 525.403 281.84 526.353C282.352 527.267 282.7 528.185 282.884 529.106C283.154 530.458 283.125 531.809 282.796 533.161C282.462 534.484 281.915 535.715 281.156 536.854C280.39 537.964 279.472 538.91 278.402 539.692C277.361 540.469 276.25 540.974 275.071 541.21C274.524 541.319 273.966 541.371 273.397 541.365C272.833 541.388 272.367 541.376 271.999 541.33C271.999 541.33 271.979 541.379 271.938 541.477C271.904 541.603 271.904 541.753 271.938 541.925L272.748 545.981C272.875 546.614 272.992 547.204 273.102 547.75C273.245 548.32 273.409 548.766 273.593 549.088C273.679 549.22 273.904 549.295 274.266 549.313C274.663 549.353 275.066 549.347 275.474 549.296C275.917 549.267 276.225 549.235 276.397 549.201C276.507 549.299 276.59 549.492 276.648 549.779C276.739 550.09 276.739 550.314 276.647 550.452C275.773 550.567 274.999 550.662 274.326 550.736C273.659 550.84 272.908 550.975 272.074 551.141C271.268 551.302 270.538 551.463 269.882 551.624C269.26 551.808 268.524 552.015 267.673 552.245C267.535 552.152 267.434 551.948 267.371 551.632C267.342 551.338 267.359 551.126 267.423 550.993C267.595 550.959 267.877 550.873 268.268 550.735C268.665 550.625 269.039 550.476 269.39 550.286C269.747 550.125 269.925 549.97 269.925 549.82C269.972 549.452 269.937 548.98 269.822 548.405C269.742 547.853 269.639 547.26 269.512 546.627L266.074 529.411C266.017 529.124 265.928 528.753 265.807 528.298C265.715 527.838 265.586 527.49 265.419 527.254C265.281 527.012 265.002 526.889 264.582 526.883C264.156 526.848 263.742 526.871 263.339 526.951C262.931 527.003 262.669 527.04 262.554 527.063C262.514 527.012 262.451 526.845 262.364 526.563C262.278 526.281 262.267 526.074 262.33 525.941C263.394 525.579 264.416 525.151 265.394 524.657C266.401 524.156 267.275 523.593 268.017 522.966C268.133 522.943 268.25 523.009 268.371 523.165C268.492 523.32 268.564 523.455 268.587 523.57C268.587 523.72 268.587 524.019 268.587 524.468C268.581 524.888 268.595 525.184 268.629 525.356C268.652 525.472 268.693 525.523 268.75 525.512C268.779 525.506 268.816 525.469 268.862 525.4C269.144 525.014 269.55 524.574 270.08 524.08C270.609 523.585 271.179 523.142 271.788 522.751C272.421 522.326 273.011 522.059 273.558 521.949ZM272.245 524.814C271.67 524.929 271.129 525.141 270.623 525.452C270.111 525.734 269.694 526.041 269.371 526.375C269.078 526.703 268.951 526.967 268.991 527.169L271.008 537.265C271.151 537.984 271.485 538.531 272.008 538.905C272.56 539.273 273.161 539.512 273.811 539.622C274.485 539.697 275.066 539.686 275.555 539.588C276.734 539.352 277.657 538.809 278.325 537.958C279.016 537.072 279.467 536.04 279.681 534.86C279.894 533.681 279.888 532.53 279.664 531.409C279.165 528.906 278.207 527.108 276.792 526.015C275.372 524.892 273.856 524.492 272.245 524.814ZM289.056 527.2C289.383 528.989 289.984 530.425 290.858 531.506C291.732 532.588 292.762 533.325 293.947 533.716C295.126 534.079 296.334 534.137 297.571 533.89C298.348 533.735 299.027 533.465 299.608 533.079C300.183 532.665 300.652 532.243 301.015 531.811C301.371 531.351 301.616 531.003 301.748 530.767C301.777 530.762 301.846 530.808 301.956 530.905C302.088 530.969 302.171 531.087 302.206 531.259C302.252 531.489 302.217 531.766 302.102 532.088C301.923 532.542 301.618 533.112 301.187 533.796C300.749 534.452 300.157 535.079 299.409 535.677C298.661 536.275 297.74 536.683 296.647 536.901C295.007 537.229 293.477 537.13 292.056 536.607C290.636 536.083 289.433 535.231 288.45 534.051C287.467 532.872 286.811 531.462 286.484 529.822C286.202 528.413 286.185 527.055 286.433 525.749C286.704 524.409 287.153 523.213 287.78 522.16C288.431 521.073 289.193 520.173 290.068 519.46C290.942 518.747 291.84 518.298 292.761 518.115C294.026 517.862 295.105 517.871 295.996 518.141C296.917 518.406 297.67 518.809 298.257 519.35C298.872 519.885 299.329 520.452 299.628 521.05C299.956 521.643 300.163 522.155 300.249 522.587C300.37 523.191 300.393 523.68 300.318 524.054C300.243 524.427 300.007 524.669 299.61 524.778C299.357 524.859 298.845 524.991 298.074 525.175C297.326 525.324 296.466 525.511 295.494 525.735C294.522 525.959 293.564 526.18 292.62 526.398C291.677 526.617 290.877 526.806 290.221 526.967C289.559 527.099 289.171 527.177 289.056 527.2ZM288.962 525.604L295.822 524.233C296.081 524.182 296.282 524.067 296.426 523.888C296.599 523.704 296.662 523.423 296.616 523.043C296.576 522.692 296.378 522.223 296.021 521.636C295.665 521.049 295.176 520.549 294.555 520.134C293.962 519.714 293.235 519.59 292.372 519.763C291.48 519.941 290.798 520.346 290.326 520.979C289.849 521.583 289.503 522.25 289.29 522.98C289.1 523.676 288.985 524.298 288.945 524.844C288.927 525.356 288.933 525.609 288.962 525.604ZM314.462 513.781C315.986 513.476 317.2 513.563 318.103 514.041C319.006 514.518 319.719 515.393 320.242 516.665C320.794 517.93 321.274 519.584 321.682 521.627L322.613 526.287C322.739 526.919 322.857 527.509 322.966 528.056C323.104 528.597 323.265 529.028 323.449 529.35C323.535 529.483 323.762 529.572 324.13 529.618C324.527 529.658 324.933 529.667 325.347 529.644C325.755 529.593 326.046 529.549 326.219 529.515C326.328 529.613 326.411 529.806 326.469 530.093C326.555 530.375 326.552 530.585 326.46 530.723C325.585 530.838 324.815 530.947 324.147 531.05C323.503 531.119 322.764 531.237 321.929 531.404C321.124 531.564 320.396 531.74 319.746 531.929C319.09 532.09 318.337 532.286 317.485 532.515C317.347 532.423 317.249 532.233 317.192 531.946C317.163 531.652 317.181 531.44 317.244 531.307C317.416 531.273 317.701 531.201 318.098 531.092C318.518 530.948 318.904 530.781 319.255 530.592C319.606 530.402 319.781 530.232 319.781 530.083C319.827 529.714 319.796 529.257 319.687 528.711C319.606 528.158 319.503 527.566 319.376 526.933L318.532 522.704C318.182 520.95 317.794 519.606 317.368 518.674C316.937 517.713 316.376 517.078 315.686 516.767C314.996 516.456 314.104 516.41 313.011 516.628C312.493 516.731 311.953 517.019 311.389 517.49C310.848 517.927 310.384 518.379 309.999 518.845C309.613 519.311 309.435 519.615 309.464 519.759L311.221 528.561C311.348 529.194 311.466 529.784 311.575 530.331C311.713 530.871 311.874 531.303 312.058 531.625C312.144 531.757 312.371 531.847 312.739 531.893C313.136 531.933 313.542 531.942 313.956 531.919C314.364 531.867 314.655 531.824 314.828 531.79C314.937 531.888 315.02 532.08 315.078 532.368C315.164 532.65 315.161 532.86 315.069 532.998C314.194 533.113 313.423 533.222 312.756 533.325C312.112 533.394 311.373 533.512 310.538 533.678C309.733 533.839 309.005 534.014 308.355 534.204C307.699 534.365 306.945 534.56 306.094 534.79C305.956 534.698 305.858 534.508 305.801 534.221C305.772 533.927 305.789 533.714 305.853 533.582C306.025 533.548 306.31 533.476 306.707 533.367C307.127 533.223 307.513 533.056 307.864 532.866C308.215 532.677 308.39 532.507 308.39 532.357C308.436 531.989 308.405 531.532 308.296 530.985C308.215 530.433 308.112 529.841 307.985 529.208L306.452 521.527C306.394 521.24 306.299 520.84 306.167 520.328C306.064 519.81 305.929 519.433 305.762 519.197C305.624 518.956 305.345 518.832 304.925 518.826C304.499 518.791 304.085 518.814 303.682 518.895C303.274 518.946 303.012 518.984 302.897 519.007C302.857 518.955 302.794 518.788 302.707 518.506C302.621 518.224 302.61 518.017 302.673 517.885C303.737 517.523 304.759 517.094 305.737 516.6C306.715 516.106 307.575 515.545 308.317 514.918C308.432 514.895 308.55 514.961 308.671 515.117C308.821 515.266 308.907 515.399 308.93 515.514C308.947 515.6 308.964 515.836 308.981 516.221C309.022 516.572 309.047 516.926 309.059 517.283C309.099 517.634 309.131 517.867 309.154 517.982C309.176 518.097 309.217 518.148 309.274 518.137C309.303 518.131 309.34 518.094 309.386 518.025C309.611 517.651 309.991 517.156 310.526 516.541C311.09 515.92 311.723 515.345 312.425 514.816C313.121 514.258 313.8 513.913 314.462 513.781ZM274.247 562.646C275.081 562.48 275.786 562.414 276.361 562.449C276.959 562.449 277.73 562.414 278.674 562.346C278.944 562.95 279.208 563.675 279.467 564.52C279.72 565.337 279.935 566.117 280.113 566.859C280.142 567.003 280.013 567.104 279.725 567.161C279.61 567.184 279.478 567.196 279.328 567.195C279.207 567.19 279.081 567.155 278.948 567.092C278.701 566.603 278.345 566.091 277.879 565.556C277.442 565.015 276.938 564.592 276.369 564.287C275.823 563.947 275.247 563.838 274.643 563.958C273.637 564.159 272.94 564.568 272.555 565.183C272.163 565.77 272.042 566.437 272.192 567.185C272.335 567.904 272.626 568.459 273.063 568.85C273.494 569.213 274.018 569.512 274.633 569.748C275.272 569.95 275.945 570.174 276.652 570.422C277.36 570.67 278.133 570.949 278.973 571.26C279.813 571.571 280.569 571.988 281.242 572.512C281.909 573.006 282.332 573.7 282.51 574.592C282.734 575.713 282.633 576.78 282.207 577.793C281.775 578.776 281.122 579.625 280.248 580.338C279.367 581.022 278.352 581.479 277.201 581.709C276.223 581.904 275.369 581.97 274.638 581.907C273.913 581.872 273.073 581.86 272.118 581.872C271.94 581.578 271.739 581.17 271.515 580.646C271.291 580.122 271.078 579.582 270.877 579.024C270.704 578.46 270.584 578.005 270.515 577.66C270.71 577.442 270.952 577.304 271.24 577.246C271.383 577.217 271.504 577.223 271.602 577.263C271.89 577.804 272.312 578.348 272.87 578.895C273.422 579.413 274.058 579.824 274.777 580.129C275.49 580.406 276.221 580.469 276.968 580.32C277.831 580.147 278.499 579.745 278.971 579.112C279.443 578.48 279.581 577.674 279.386 576.696C279.213 575.833 278.817 575.195 278.195 574.78C277.568 574.337 276.826 573.992 275.969 573.744C275.107 573.468 274.212 573.183 273.286 572.889C272.354 572.567 271.488 572.126 270.689 571.568C269.913 570.975 269.412 570.118 269.188 568.996C268.981 567.961 269.088 566.997 269.508 566.105C269.957 565.208 270.602 564.466 271.442 563.88C272.276 563.264 273.211 562.853 274.247 562.646ZM287.851 568.23C288.179 570.02 288.779 571.455 289.653 572.537C290.528 573.619 291.557 574.355 292.742 574.747C293.921 575.109 295.129 575.167 296.366 574.92C297.143 574.765 297.822 574.495 298.403 574.11C298.978 573.696 299.447 573.273 299.81 572.842C300.167 572.382 300.411 572.034 300.544 571.798C300.572 571.792 300.641 571.838 300.751 571.936C300.883 571.999 300.966 572.117 301.001 572.29C301.047 572.52 301.012 572.796 300.897 573.118C300.719 573.573 300.413 574.142 299.982 574.826C299.544 575.482 298.952 576.109 298.204 576.707C297.456 577.305 296.535 577.713 295.442 577.932C293.802 578.259 292.272 578.161 290.851 577.637C289.431 577.113 288.229 576.261 287.245 575.082C286.262 573.902 285.606 572.493 285.279 570.853C284.997 569.443 284.981 568.086 285.228 566.78C285.499 565.44 285.948 564.243 286.575 563.191C287.226 562.104 287.988 561.203 288.863 560.49C289.738 559.777 290.635 559.329 291.556 559.145C292.821 558.892 293.9 558.901 294.792 559.172C295.712 559.437 296.465 559.84 297.052 560.381C297.667 560.916 298.125 561.482 298.424 562.081C298.751 562.673 298.958 563.186 299.044 563.617C299.165 564.221 299.188 564.71 299.113 565.084C299.038 565.458 298.802 565.699 298.405 565.809C298.152 565.889 297.64 566.021 296.869 566.205C296.121 566.354 295.261 566.541 294.289 566.765C293.317 566.989 292.359 567.211 291.415 567.429C290.472 567.647 289.672 567.837 289.016 567.998C288.355 568.13 287.966 568.207 287.851 568.23ZM287.757 566.634L294.617 565.264C294.876 565.212 295.077 565.097 295.221 564.919C295.394 564.735 295.457 564.453 295.411 564.073C295.371 563.722 295.173 563.253 294.816 562.667C294.46 562.08 293.971 561.579 293.35 561.165C292.758 560.745 292.03 560.621 291.167 560.793C290.275 560.971 289.593 561.376 289.121 562.009C288.644 562.613 288.298 563.28 288.085 564.011C287.895 564.707 287.78 565.328 287.74 565.875C287.722 566.387 287.728 566.64 287.757 566.634ZM306.448 556.44L311.885 555.354C312.028 555.326 312.132 555.47 312.195 555.786C312.281 556.217 312.163 556.675 311.841 557.158L306.793 558.166L308.998 569.212C309.458 571.513 310.623 572.477 312.492 572.104C313.125 571.977 313.675 571.733 314.141 571.371C314.607 571.008 314.9 570.755 315.021 570.612C315.113 570.623 315.174 570.701 315.202 570.845C315.266 571.161 315.251 571.388 315.159 571.526C315.004 571.797 314.747 572.162 314.391 572.622C314.063 573.076 313.64 573.505 313.122 573.907C312.604 574.31 312 574.58 311.309 574.718C310.59 574.862 309.86 574.873 309.118 574.752C308.404 574.625 307.766 574.274 307.202 573.699C306.639 573.123 306.236 572.231 305.995 571.023L303.556 558.812L301.097 559.303C301.04 559.315 300.988 559.28 300.942 559.2C300.89 559.091 300.858 559.007 300.847 558.95C300.835 558.892 300.896 558.745 301.028 558.51C301.155 558.245 301.284 557.995 301.417 557.759C301.578 557.517 301.658 557.397 301.658 557.397L303.212 557.086L302.686 554.454C302.911 554.081 303.17 553.655 303.463 553.177C303.78 552.666 304.062 552.205 304.309 551.797C304.551 551.36 304.683 551.124 304.706 551.09C304.798 550.952 304.916 550.868 305.06 550.839C305.233 550.805 305.328 550.831 305.345 550.917L306.448 556.44Z" fill="black"/>
<path id="U" d="M351.136 595.528C347.939 595.528 345.622 594.927 344.184 593.724C342.747 592.492 342.028 590.571 342.028 587.96C342.028 587.373 342.072 586.757 342.16 586.112C342.248 585.437 342.366 584.733 342.512 584L345.152 571.284C345.211 570.961 345.255 570.653 345.284 570.36C345.343 570.067 345.372 569.817 345.372 569.612C345.372 568.761 345.094 568.189 344.536 567.896C343.979 567.573 343.011 567.412 341.632 567.412L341.896 566.092H354.524L354.26 567.412C353.028 567.412 352.075 567.529 351.4 567.764C350.755 567.969 350.271 568.365 349.948 568.952C349.655 569.539 349.391 570.389 349.156 571.504L346.56 583.956C346.443 584.543 346.34 585.144 346.252 585.76C346.194 586.347 346.164 586.845 346.164 587.256C346.164 589.133 346.648 590.527 347.616 591.436C348.614 592.316 350.344 592.756 352.808 592.756C355.683 592.756 357.839 592.081 359.276 590.732C360.743 589.353 361.784 587.153 362.4 584.132L364.644 573.044C364.791 572.311 364.908 571.665 364.996 571.108C365.084 570.551 365.128 570.081 365.128 569.7C365.128 568.791 364.879 568.189 364.38 567.896C363.882 567.573 362.987 567.412 361.696 567.412L361.916 566.092H372.696L372.476 567.412C371.215 567.412 370.247 567.559 369.572 567.852C368.927 568.145 368.443 568.688 368.12 569.48C367.798 570.243 367.475 571.387 367.152 572.912L364.996 583.516C364.175 587.505 362.694 590.512 360.552 592.536C358.44 594.531 355.302 595.528 351.136 595.528Z" fill="black"/>
</g>
<g id="Group_85">
<g id="Group 84">
<g id="Group 68">
<path id="does not contain any open" d="M1120.13 519.352C1118.49 519.352 1117.09 518.912 1115.95 518.032C1114.83 517.152 1114 515.964 1113.44 514.468C1112.88 512.943 1112.6 511.241 1112.6 509.364C1112.6 506.929 1113.06 504.847 1113.97 503.116C1114.88 501.356 1116.1 500.007 1117.62 499.068C1119.18 498.129 1120.88 497.66 1122.72 497.66C1123.43 497.66 1124.12 497.748 1124.79 497.924C1125.5 498.1 1126.17 498.364 1126.82 498.716H1126.99V492.952C1126.99 491.984 1126.88 491.353 1126.64 491.06C1126.44 490.767 1125.91 490.62 1125.06 490.62C1124.85 490.62 1124.6 490.635 1124.31 490.664C1124.04 490.693 1123.91 490.708 1123.91 490.708V489.476L1129.46 487.936H1130.64V514.292C1130.64 515.436 1130.81 516.184 1131.13 516.536C1131.45 516.859 1132.02 517.02 1132.84 517.02H1133.77V518.208L1128.14 519.22H1127.12V516.184H1126.95C1126.13 516.917 1125.14 517.636 1124 518.34C1122.89 519.015 1121.6 519.352 1120.13 519.352ZM1122.2 516.184C1123.22 516.184 1124.09 516.052 1124.79 515.788C1125.5 515.495 1126.23 515.084 1126.99 514.556V502.94C1126.82 502.031 1126.39 501.224 1125.72 500.52C1125.04 499.787 1124.02 499.42 1122.64 499.42C1120.79 499.42 1119.29 500.095 1118.15 501.444C1117 502.793 1116.43 504.861 1116.43 507.648C1116.43 510.669 1116.92 512.855 1117.88 514.204C1118.88 515.524 1120.32 516.184 1122.2 516.184ZM1146.22 519.44C1143.14 519.44 1140.72 518.487 1138.96 516.58C1137.23 514.644 1136.37 511.901 1136.37 508.352C1136.37 506.211 1136.78 504.348 1137.6 502.764C1138.42 501.151 1139.56 499.904 1141.03 499.024C1142.53 498.115 1144.26 497.66 1146.22 497.66C1149.24 497.66 1151.62 498.599 1153.35 500.476C1155.11 502.353 1155.99 504.92 1155.99 508.176C1155.99 510.64 1155.57 512.708 1154.72 514.38C1153.89 516.052 1152.75 517.313 1151.28 518.164C1149.82 519.015 1148.13 519.44 1146.22 519.44ZM1146.4 517.68C1147.6 517.68 1148.61 517.401 1149.44 516.844C1150.26 516.287 1150.87 515.333 1151.28 513.984C1151.72 512.635 1151.94 510.772 1151.94 508.396C1151.94 505.697 1151.44 503.512 1150.45 501.84C1149.48 500.168 1148.01 499.332 1146.05 499.332C1144.38 499.332 1143.03 500.036 1142 501.444C1140.97 502.852 1140.46 504.964 1140.46 507.78C1140.46 511.271 1140.97 513.808 1142 515.392C1143.06 516.947 1144.52 517.709 1146.4 517.68ZM1168.34 519.44C1166.58 519.44 1164.98 519.029 1163.54 518.208C1162.14 517.357 1161.02 516.125 1160.2 514.512C1159.38 512.869 1158.97 510.875 1158.97 508.528C1158.97 506.064 1159.38 504.04 1160.2 502.456C1161.05 500.843 1162.18 499.64 1163.59 498.848C1165 498.056 1166.55 497.66 1168.25 497.66C1170.66 497.66 1172.59 498.496 1174.06 500.168C1175.53 501.84 1176.32 504.216 1176.44 507.296H1162.14L1162.09 505.668H1172.3C1172.27 504.583 1172.08 503.571 1171.73 502.632C1171.38 501.664 1170.86 500.887 1170.19 500.3C1169.51 499.713 1168.65 499.42 1167.59 499.42C1165.89 499.42 1164.62 500.095 1163.76 501.444C1162.91 502.764 1162.49 504.641 1162.49 507.076C1162.49 509.1 1162.81 510.787 1163.46 512.136C1164.1 513.485 1164.95 514.497 1166.01 515.172C1167.06 515.817 1168.19 516.14 1169.4 516.14C1170.6 516.14 1171.57 515.979 1172.3 515.656C1173.06 515.333 1173.71 514.923 1174.24 514.424C1174.76 513.896 1175.26 513.324 1175.73 512.708L1176.57 513.324C1176.19 514.145 1175.75 514.937 1175.25 515.7C1174.75 516.433 1174.18 517.079 1173.53 517.636C1172.92 518.193 1172.18 518.633 1171.33 518.956C1170.48 519.279 1169.48 519.44 1168.34 519.44ZM1179.73 519.352L1179.6 511.784H1180.74C1181.21 514.043 1181.9 515.627 1182.81 516.536C1183.72 517.416 1184.98 517.856 1186.59 517.856C1187.71 517.856 1188.62 517.636 1189.32 517.196C1190.03 516.727 1190.38 515.979 1190.38 514.952C1190.38 514.248 1190.25 513.661 1189.98 513.192C1189.75 512.723 1189.28 512.253 1188.57 511.784C1187.87 511.285 1186.83 510.699 1185.45 510.024C1184.1 509.349 1183 508.704 1182.15 508.088C1181.3 507.443 1180.67 506.739 1180.26 505.976C1179.85 505.213 1179.64 504.289 1179.64 503.204C1179.64 501.385 1180.29 500.007 1181.58 499.068C1182.9 498.129 1184.5 497.66 1186.37 497.66C1187.49 497.66 1188.4 497.792 1189.1 498.056C1189.81 498.291 1190.44 498.54 1190.99 498.804H1191.04L1191.79 497.88H1192.67L1192.8 504.612H1191.61C1191.14 502.529 1190.48 501.107 1189.63 500.344C1188.78 499.552 1187.68 499.156 1186.33 499.156C1185.33 499.156 1184.48 499.391 1183.78 499.86C1183.1 500.329 1182.77 501.063 1182.77 502.06C1182.77 502.911 1183.16 503.673 1183.95 504.348C1184.75 505.023 1186.07 505.829 1187.91 506.768C1189.26 507.472 1190.39 508.161 1191.3 508.836C1192.21 509.481 1192.9 510.2 1193.37 510.992C1193.84 511.755 1194.07 512.679 1194.07 513.764C1194.07 515.143 1193.74 516.257 1193.06 517.108C1192.39 517.929 1191.48 518.531 1190.33 518.912C1189.22 519.293 1188 519.484 1186.68 519.484C1185.42 519.484 1184.41 519.352 1183.65 519.088C1182.91 518.824 1182.25 518.575 1181.67 518.34H1181.58L1180.65 519.352H1179.73ZM1230.02 519H1219.85V517.768C1220.91 517.768 1221.66 517.68 1222.1 517.504C1222.57 517.299 1222.85 516.961 1222.93 516.492C1223.05 516.023 1223.11 515.377 1223.11 514.556V506.592C1223.11 504.832 1222.9 503.512 1222.49 502.632C1222.11 501.752 1221.61 501.18 1221 500.916C1220.38 500.623 1219.74 500.476 1219.06 500.476C1218.21 500.476 1217.45 500.652 1216.77 501.004C1216.1 501.327 1215.48 501.723 1214.93 502.192C1214.4 502.661 1213.9 503.101 1213.43 503.512L1213.12 501.356H1213.78C1214.98 500.3 1216.11 499.42 1217.17 498.716C1218.25 498.012 1219.49 497.66 1220.87 497.66C1222.86 497.66 1224.34 498.335 1225.31 499.684C1226.28 501.033 1226.76 502.969 1226.76 505.492V514.556C1226.76 515.377 1226.82 516.023 1226.94 516.492C1227.08 516.961 1227.39 517.299 1227.86 517.504C1228.33 517.68 1229.05 517.768 1230.02 517.768V519ZM1217.08 519H1207.01V517.768C1208 517.768 1208.71 517.68 1209.12 517.504C1209.56 517.299 1209.82 516.961 1209.91 516.492C1210.03 516.023 1210.09 515.377 1210.09 514.556V502.192C1210.09 501.4 1209.92 500.887 1209.6 500.652C1209.28 500.388 1208.82 500.256 1208.24 500.256C1207.86 500.256 1207.56 500.271 1207.36 500.3C1207.15 500.329 1207.05 500.344 1207.05 500.344V499.068L1212.64 497.792H1213.65L1213.61 501.84L1213.74 502.764V514.556C1213.74 515.377 1213.8 516.023 1213.91 516.492C1214.03 516.961 1214.32 517.299 1214.79 517.504C1215.26 517.68 1216.03 517.768 1217.08 517.768V519ZM1242.3 519.44C1239.22 519.44 1236.8 518.487 1235.04 516.58C1233.31 514.644 1232.45 511.901 1232.45 508.352C1232.45 506.211 1232.86 504.348 1233.68 502.764C1234.5 501.151 1235.64 499.904 1237.11 499.024C1238.61 498.115 1240.34 497.66 1242.3 497.66C1245.32 497.66 1247.7 498.599 1249.43 500.476C1251.19 502.353 1252.07 504.92 1252.07 508.176C1252.07 510.64 1251.64 512.708 1250.79 514.38C1249.97 516.052 1248.83 517.313 1247.36 518.164C1245.89 519.015 1244.21 519.44 1242.3 519.44ZM1242.48 517.68C1243.68 517.68 1244.69 517.401 1245.51 516.844C1246.33 516.287 1246.95 515.333 1247.36 513.984C1247.8 512.635 1248.02 510.772 1248.02 508.396C1248.02 505.697 1247.52 503.512 1246.53 501.84C1245.56 500.168 1244.09 499.332 1242.13 499.332C1240.45 499.332 1239.1 500.036 1238.08 501.444C1237.05 502.852 1236.54 504.964 1236.54 507.78C1236.54 511.271 1237.05 513.808 1238.08 515.392C1239.13 516.947 1240.6 517.709 1242.48 517.68ZM1266.44 515.04L1267.28 515.744C1266.72 516.536 1266.19 517.211 1265.69 517.768C1265.23 518.296 1264.7 518.707 1264.11 519C1263.52 519.293 1262.76 519.44 1261.82 519.44C1260.36 519.44 1259.29 519.015 1258.61 518.164C1257.94 517.284 1257.6 515.861 1257.6 513.896V500.256H1255.18V499.244C1256.21 498.599 1257.09 497.733 1257.82 496.648C1258.58 495.533 1259.36 494.037 1260.15 492.16H1261.25V498.408H1266.22V500.256H1261.25V512.664C1261.25 514.219 1261.38 515.304 1261.65 515.92C1261.94 516.536 1262.51 516.844 1263.36 516.844C1264.07 516.844 1264.61 516.697 1264.99 516.404C1265.4 516.111 1265.89 515.656 1266.44 515.04ZM1295.74 512.488L1296.57 513.104C1296.02 514.277 1295.37 515.348 1294.64 516.316C1293.93 517.284 1293.05 518.047 1292 518.604C1290.94 519.161 1289.62 519.44 1288.04 519.44C1286.22 519.44 1284.65 519 1283.33 518.12C1282.01 517.24 1281 516.023 1280.29 514.468C1279.59 512.884 1279.24 511.08 1279.24 509.056C1279.24 506.739 1279.62 504.729 1280.38 503.028C1281.17 501.327 1282.3 500.007 1283.77 499.068C1285.27 498.129 1287.07 497.66 1289.18 497.66C1291.26 497.66 1292.89 498.115 1294.07 499.024C1295.27 499.933 1295.87 501.033 1295.87 502.324C1295.87 502.969 1295.71 503.468 1295.39 503.82C1295.09 504.143 1294.64 504.304 1294.02 504.304C1293.38 504.304 1292.88 504.143 1292.53 503.82C1292.2 503.468 1291.94 503.043 1291.73 502.544C1291.53 502.045 1291.31 501.547 1291.07 501.048C1290.87 500.549 1290.56 500.139 1290.15 499.816C1289.77 499.464 1289.2 499.288 1288.43 499.288C1286.64 499.288 1285.24 499.948 1284.21 501.268C1283.21 502.559 1282.71 504.465 1282.71 506.988C1282.71 509.657 1283.26 511.857 1284.34 513.588C1285.46 515.289 1287.14 516.14 1289.4 516.14C1290.84 516.14 1292 515.847 1292.88 515.26C1293.79 514.673 1294.74 513.749 1295.74 512.488ZM1308.77 519.44C1305.69 519.44 1303.27 518.487 1301.51 516.58C1299.78 514.644 1298.92 511.901 1298.92 508.352C1298.92 506.211 1299.33 504.348 1300.15 502.764C1300.97 501.151 1302.12 499.904 1303.58 499.024C1305.08 498.115 1306.81 497.66 1308.77 497.66C1311.8 497.66 1314.17 498.599 1315.9 500.476C1317.66 502.353 1318.54 504.92 1318.54 508.176C1318.54 510.64 1318.12 512.708 1317.27 514.38C1316.44 516.052 1315.3 517.313 1313.83 518.164C1312.37 519.015 1310.68 519.44 1308.77 519.44ZM1308.95 517.68C1310.15 517.68 1311.16 517.401 1311.99 516.844C1312.81 516.287 1313.42 515.333 1313.83 513.984C1314.27 512.635 1314.49 510.772 1314.49 508.396C1314.49 505.697 1314 503.512 1313 501.84C1312.03 500.168 1310.56 499.332 1308.6 499.332C1306.93 499.332 1305.58 500.036 1304.55 501.444C1303.52 502.852 1303.01 504.964 1303.01 507.78C1303.01 511.271 1303.52 513.808 1304.55 515.392C1305.61 516.947 1307.07 517.709 1308.95 517.68ZM1344.44 519H1334.28V517.768C1335.34 517.768 1336.08 517.68 1336.52 517.504C1336.99 517.299 1337.27 516.961 1337.36 516.492C1337.48 516.023 1337.54 515.377 1337.54 514.556V506.592C1337.54 504.832 1337.33 503.512 1336.92 502.632C1336.54 501.752 1336.04 501.18 1335.42 500.916C1334.81 500.623 1334.16 500.476 1333.49 500.476C1332.64 500.476 1331.87 500.652 1331.2 501.004C1330.52 501.327 1329.91 501.723 1329.35 502.192C1328.82 502.661 1328.32 503.101 1327.86 503.512L1327.55 501.356H1328.21C1329.41 500.3 1330.54 499.42 1331.6 498.716C1332.68 498.012 1333.91 497.66 1335.29 497.66C1337.29 497.66 1338.77 498.335 1339.74 499.684C1340.7 501.033 1341.19 502.969 1341.19 505.492V514.556C1341.19 515.377 1341.25 516.023 1341.36 516.492C1341.51 516.961 1341.82 517.299 1342.29 517.504C1342.76 517.68 1343.48 517.768 1344.44 517.768V519ZM1331.51 519H1321.43V517.768C1322.43 517.768 1323.13 517.68 1323.54 517.504C1323.98 517.299 1324.25 516.961 1324.34 516.492C1324.45 516.023 1324.51 515.377 1324.51 514.556V502.192C1324.51 501.4 1324.35 500.887 1324.03 500.652C1323.7 500.388 1323.25 500.256 1322.66 500.256C1322.28 500.256 1321.99 500.271 1321.78 500.3C1321.58 500.329 1321.48 500.344 1321.48 500.344V499.068L1327.06 497.792H1328.08L1328.03 501.84L1328.16 502.764V514.556C1328.16 515.377 1328.22 516.023 1328.34 516.492C1328.46 516.961 1328.75 517.299 1329.22 517.504C1329.69 517.68 1330.45 517.768 1331.51 517.768V519ZM1358.27 515.04L1359.1 515.744C1358.55 516.536 1358.02 517.211 1357.52 517.768C1357.05 518.296 1356.52 518.707 1355.94 519C1355.35 519.293 1354.59 519.44 1353.65 519.44C1352.18 519.44 1351.11 519.015 1350.44 518.164C1349.76 517.284 1349.42 515.861 1349.42 513.896V500.256H1347V499.244C1348.03 498.599 1348.91 497.733 1349.64 496.648C1350.41 495.533 1351.18 494.037 1351.98 492.16H1353.08V498.408H1358.05V500.256H1353.08V512.664C1353.08 514.219 1353.21 515.304 1353.47 515.92C1353.76 516.536 1354.34 516.844 1355.19 516.844C1355.89 516.844 1356.43 516.697 1356.82 516.404C1357.23 516.111 1357.71 515.656 1358.27 515.04ZM1366.16 519.308C1364.46 519.308 1363.16 518.839 1362.25 517.9C1361.37 516.961 1360.93 515.788 1360.93 514.38C1360.93 513.207 1361.19 512.224 1361.72 511.432C1362.28 510.611 1362.99 509.921 1363.87 509.364C1364.78 508.807 1365.75 508.337 1366.78 507.956C1367.83 507.575 1368.86 507.252 1369.86 506.988C1370.86 506.724 1371.74 506.475 1372.5 506.24V504.304C1372.5 502.397 1372.16 501.048 1371.49 500.256C1370.84 499.435 1369.86 499.024 1368.54 499.024C1367.28 499.024 1366.47 499.288 1366.12 499.816C1365.77 500.344 1365.59 501.268 1365.59 502.588C1365.59 503.263 1365.41 503.776 1365.06 504.128C1364.74 504.451 1364.27 504.612 1363.65 504.612C1363.21 504.612 1362.79 504.451 1362.38 504.128C1362 503.776 1361.81 503.233 1361.81 502.5C1361.81 501.679 1362.11 500.901 1362.73 500.168C1363.38 499.435 1364.27 498.833 1365.41 498.364C1366.59 497.895 1367.97 497.66 1369.55 497.66C1371.96 497.66 1373.66 498.217 1374.65 499.332C1375.65 500.447 1376.15 502.148 1376.15 504.436V514.424C1376.15 515.333 1376.25 515.92 1376.46 516.184C1376.66 516.448 1377 516.58 1377.47 516.58C1377.88 516.58 1378.25 516.477 1378.57 516.272C1378.92 516.067 1379.24 515.803 1379.54 515.48L1380.2 516.184C1379.46 517.24 1378.76 518.017 1378.09 518.516C1377.44 518.985 1376.56 519.22 1375.45 519.22C1374.42 519.22 1373.74 518.927 1373.42 518.34C1373.13 517.753 1372.91 516.917 1372.76 515.832L1372.5 515.304V507.692C1371.18 508.015 1369.93 508.396 1368.76 508.836C1367.58 509.276 1366.63 509.848 1365.9 510.552C1365.16 511.256 1364.8 512.18 1364.8 513.324C1364.8 514.409 1365.09 515.275 1365.68 515.92C1366.26 516.565 1367.03 516.888 1367.97 516.888C1368.73 516.888 1369.52 516.697 1370.34 516.316C1371.19 515.935 1372.01 515.392 1372.81 514.688L1373.16 516.272H1372.63C1371.96 516.859 1371.3 517.387 1370.65 517.856C1370.03 518.325 1369.36 518.692 1368.63 518.956C1367.92 519.191 1367.1 519.308 1366.16 519.308ZM1391.7 519H1381.8V517.768C1382.8 517.768 1383.5 517.68 1383.91 517.504C1384.35 517.299 1384.62 516.961 1384.71 516.492C1384.82 516.023 1384.88 515.377 1384.88 514.556V502.28C1384.88 501.341 1384.72 500.769 1384.4 500.564C1384.08 500.329 1383.59 500.212 1382.95 500.212C1382.65 500.212 1382.39 500.227 1382.15 500.256C1381.95 500.285 1381.85 500.3 1381.85 500.3V499.024L1387.39 497.792H1388.53V514.556C1388.53 515.407 1388.59 516.067 1388.71 516.536C1388.83 517.005 1389.11 517.328 1389.55 517.504C1390.02 517.68 1390.73 517.768 1391.7 517.768V519ZM1386.77 494.36C1386.04 494.36 1385.44 494.111 1384.97 493.612C1384.5 493.113 1384.27 492.527 1384.27 491.852C1384.27 491.177 1384.49 490.605 1384.93 490.136C1385.4 489.637 1386.01 489.388 1386.77 489.388C1387.54 489.388 1388.14 489.637 1388.58 490.136C1389.05 490.605 1389.28 491.177 1389.28 491.852C1389.28 492.527 1389.05 493.113 1388.58 493.612C1388.14 494.111 1387.54 494.36 1386.77 494.36ZM1417.36 519H1407.2V517.768C1408.25 517.768 1409 517.68 1409.44 517.504C1409.91 517.299 1410.19 516.961 1410.28 516.492C1410.39 516.023 1410.45 515.377 1410.45 514.556V506.592C1410.45 504.832 1410.25 503.512 1409.84 502.632C1409.46 501.752 1408.96 501.18 1408.34 500.916C1407.73 500.623 1407.08 500.476 1406.41 500.476C1405.55 500.476 1404.79 500.652 1404.12 501.004C1403.44 501.327 1402.83 501.723 1402.27 502.192C1401.74 502.661 1401.24 503.101 1400.77 503.512L1400.47 501.356H1401.13C1402.33 500.3 1403.46 499.42 1404.51 498.716C1405.6 498.012 1406.83 497.66 1408.21 497.66C1410.2 497.66 1411.69 498.335 1412.65 499.684C1413.62 501.033 1414.11 502.969 1414.11 505.492V514.556C1414.11 515.377 1414.16 516.023 1414.28 516.492C1414.43 516.961 1414.74 517.299 1415.21 517.504C1415.67 517.68 1416.39 517.768 1417.36 517.768V519ZM1404.43 519H1394.35V517.768C1395.35 517.768 1396.05 517.68 1396.46 517.504C1396.9 517.299 1397.17 516.961 1397.25 516.492C1397.37 516.023 1397.43 515.377 1397.43 514.556V502.192C1397.43 501.4 1397.27 500.887 1396.95 500.652C1396.62 500.388 1396.17 500.256 1395.58 500.256C1395.2 500.256 1394.91 500.271 1394.7 500.3C1394.5 500.329 1394.39 500.344 1394.39 500.344V499.068L1399.98 497.792H1400.99L1400.95 501.84L1401.08 502.764V514.556C1401.08 515.377 1401.14 516.023 1401.26 516.492C1401.37 516.961 1401.67 517.299 1402.14 517.504C1402.61 517.68 1403.37 517.768 1404.43 517.768V519ZM1435.56 519.308C1433.86 519.308 1432.55 518.839 1431.64 517.9C1430.76 516.961 1430.32 515.788 1430.32 514.38C1430.32 513.207 1430.58 512.224 1431.11 511.432C1431.67 510.611 1432.39 509.921 1433.27 509.364C1434.18 508.807 1435.15 508.337 1436.17 507.956C1437.23 507.575 1438.26 507.252 1439.25 506.988C1440.25 506.724 1441.13 506.475 1441.89 506.24V504.304C1441.89 502.397 1441.56 501.048 1440.88 500.256C1440.24 499.435 1439.25 499.024 1437.93 499.024C1436.67 499.024 1435.86 499.288 1435.51 499.816C1435.16 500.344 1434.98 501.268 1434.98 502.588C1434.98 503.263 1434.81 503.776 1434.46 504.128C1434.13 504.451 1433.66 504.612 1433.05 504.612C1432.61 504.612 1432.18 504.451 1431.77 504.128C1431.39 503.776 1431.2 503.233 1431.2 502.5C1431.2 501.679 1431.51 500.901 1432.12 500.168C1432.77 499.435 1433.66 498.833 1434.81 498.364C1435.98 497.895 1437.36 497.66 1438.94 497.66C1441.35 497.66 1443.05 498.217 1444.05 499.332C1445.05 500.447 1445.54 502.148 1445.54 504.436V514.424C1445.54 515.333 1445.65 515.92 1445.85 516.184C1446.06 516.448 1446.4 516.58 1446.86 516.58C1447.28 516.58 1447.64 516.477 1447.96 516.272C1448.32 516.067 1448.64 515.803 1448.93 515.48L1449.59 516.184C1448.86 517.24 1448.16 518.017 1447.48 518.516C1446.84 518.985 1445.96 519.22 1444.84 519.22C1443.81 519.22 1443.14 518.927 1442.82 518.34C1442.52 517.753 1442.3 516.917 1442.16 515.832L1441.89 515.304V507.692C1440.57 508.015 1439.33 508.396 1438.15 508.836C1436.98 509.276 1436.03 509.848 1435.29 510.552C1434.56 511.256 1434.19 512.18 1434.19 513.324C1434.19 514.409 1434.49 515.275 1435.07 515.92C1435.66 516.565 1436.42 516.888 1437.36 516.888C1438.12 516.888 1438.92 516.697 1439.74 516.316C1440.59 515.935 1441.41 515.392 1442.2 514.688L1442.55 516.272H1442.02C1441.35 516.859 1440.69 517.387 1440.04 517.856C1439.43 518.325 1438.75 518.692 1438.02 518.956C1437.32 519.191 1436.5 519.308 1435.56 519.308ZM1474.21 519H1464.05V517.768C1465.1 517.768 1465.85 517.68 1466.29 517.504C1466.76 517.299 1467.04 516.961 1467.13 516.492C1467.24 516.023 1467.3 515.377 1467.3 514.556V506.592C1467.3 504.832 1467.1 503.512 1466.69 502.632C1466.3 501.752 1465.81 501.18 1465.19 500.916C1464.57 500.623 1463.93 500.476 1463.25 500.476C1462.4 500.476 1461.64 500.652 1460.97 501.004C1460.29 501.327 1459.67 501.723 1459.12 502.192C1458.59 502.661 1458.09 503.101 1457.62 503.512L1457.31 501.356H1457.97C1459.18 500.3 1460.31 499.42 1461.36 498.716C1462.45 498.012 1463.68 497.66 1465.06 497.66C1467.05 497.66 1468.53 498.335 1469.5 499.684C1470.47 501.033 1470.95 502.969 1470.95 505.492V514.556C1470.95 515.377 1471.01 516.023 1471.13 516.492C1471.28 516.961 1471.58 517.299 1472.05 517.504C1472.52 517.68 1473.24 517.768 1474.21 517.768V519ZM1461.27 519H1451.2V517.768C1452.19 517.768 1452.9 517.68 1453.31 517.504C1453.75 517.299 1454.01 516.961 1454.1 516.492C1454.22 516.023 1454.28 515.377 1454.28 514.556V502.192C1454.28 501.4 1454.12 500.887 1453.79 500.652C1453.47 500.388 1453.02 500.256 1452.43 500.256C1452.05 500.256 1451.75 500.271 1451.55 500.3C1451.34 500.329 1451.24 500.344 1451.24 500.344V499.068L1456.83 497.792H1457.84L1457.8 501.84L1457.93 502.764V514.556C1457.93 515.377 1457.99 516.023 1458.11 516.492C1458.22 516.961 1458.52 517.299 1458.99 517.504C1459.45 517.68 1460.22 517.768 1461.27 517.768V519ZM1477.67 529.34C1476.76 529.34 1476.01 529.164 1475.43 528.812C1474.84 528.46 1474.55 527.873 1474.55 527.052C1474.55 526.377 1474.74 525.893 1475.12 525.6C1475.53 525.307 1476.01 525.16 1476.57 525.16C1477.33 525.16 1478.01 525.321 1478.59 525.644C1479.21 525.967 1479.66 526.128 1479.96 526.128C1480.37 526.128 1480.81 525.805 1481.28 525.16C1481.75 524.544 1482.2 523.796 1482.64 522.916C1483.11 522.036 1483.48 521.2 1483.74 520.408C1484.03 519.645 1484.18 519.103 1484.18 518.78C1484.18 518.487 1484.02 517.959 1483.7 517.196C1483.4 516.433 1483.13 515.759 1482.86 515.172L1476.39 501.048C1476.19 500.549 1475.89 500.168 1475.51 499.904C1475.13 499.611 1474.55 499.464 1473.75 499.464V498.188H1483.17V499.508C1482.17 499.508 1481.5 499.611 1481.15 499.816C1480.82 499.992 1480.66 500.271 1480.66 500.652C1480.66 500.945 1480.73 501.268 1480.88 501.62C1481.03 501.943 1481.16 502.265 1481.28 502.588L1485.59 512.268L1486.16 514.424H1486.47L1490.74 501.664C1490.8 501.517 1490.84 501.341 1490.87 501.136C1490.93 500.901 1490.96 500.711 1490.96 500.564C1490.96 500.124 1490.72 499.831 1490.25 499.684C1489.81 499.537 1489.23 499.464 1488.49 499.464V498.188H1495.97V499.464C1495.09 499.464 1494.45 499.669 1494.04 500.08C1493.63 500.461 1493.26 501.077 1492.94 501.928L1486.07 519.968C1485.22 522.197 1484.39 524.001 1483.57 525.38C1482.77 526.759 1481.91 527.756 1480.97 528.372C1480.03 529.017 1478.93 529.34 1477.67 529.34ZM1517.26 519.44C1514.18 519.44 1511.76 518.487 1510 516.58C1508.27 514.644 1507.4 511.901 1507.4 508.352C1507.4 506.211 1507.81 504.348 1508.63 502.764C1509.46 501.151 1510.6 499.904 1512.07 499.024C1513.56 498.115 1515.29 497.66 1517.26 497.66C1520.28 497.66 1522.66 498.599 1524.39 500.476C1526.15 502.353 1527.03 504.92 1527.03 508.176C1527.03 510.64 1526.6 512.708 1525.75 514.38C1524.93 516.052 1523.78 517.313 1522.32 518.164C1520.85 519.015 1519.16 519.44 1517.26 519.44ZM1517.43 517.68C1518.64 517.68 1519.65 517.401 1520.47 516.844C1521.29 516.287 1521.91 515.333 1522.32 513.984C1522.76 512.635 1522.98 510.772 1522.98 508.396C1522.98 505.697 1522.48 503.512 1521.48 501.84C1520.51 500.168 1519.05 499.332 1517.08 499.332C1515.41 499.332 1514.06 500.036 1513.03 501.444C1512.01 502.852 1511.49 504.964 1511.49 507.78C1511.49 511.271 1512.01 513.808 1513.03 515.392C1514.09 516.947 1515.56 517.709 1517.43 517.68ZM1540.61 528.68H1529.48V527.448C1530.85 527.448 1531.73 527.213 1532.12 526.744C1532.5 526.304 1532.69 525.468 1532.69 524.236V502.456C1532.69 501.605 1532.59 501.019 1532.38 500.696C1532.2 500.373 1531.75 500.212 1531.02 500.212C1530.72 500.212 1530.41 500.227 1530.09 500.256C1529.77 500.285 1529.61 500.3 1529.61 500.3V499.024L1535.15 497.792H1536.25V501.488H1536.38C1537.44 500.256 1538.51 499.317 1539.6 498.672C1540.71 497.997 1541.91 497.66 1543.2 497.66C1544.67 497.66 1545.95 498.085 1547.03 498.936C1548.15 499.757 1549.01 500.916 1549.63 502.412C1550.27 503.879 1550.6 505.58 1550.6 507.516C1550.6 510.009 1550.16 512.151 1549.28 513.94C1548.43 515.7 1547.27 517.064 1545.8 518.032C1544.33 518.971 1542.72 519.44 1540.96 519.44C1540.14 519.44 1539.35 519.337 1538.58 519.132C1537.85 518.956 1537.16 518.648 1536.52 518.208H1536.34V523.972C1536.34 524.911 1536.46 525.629 1536.69 526.128C1536.93 526.627 1537.35 526.964 1537.97 527.14C1538.58 527.316 1539.46 527.404 1540.61 527.404V528.68ZM1541.18 517.724C1542.73 517.724 1544.03 516.991 1545.05 515.524C1546.08 514.057 1546.59 511.799 1546.59 508.748C1546.59 505.961 1546.14 503.923 1545.23 502.632C1544.32 501.312 1543.04 500.652 1541.4 500.652C1540.23 500.652 1539.19 500.96 1538.28 501.576C1537.4 502.192 1536.75 502.779 1536.34 503.336V514.82C1536.63 515.113 1537 515.495 1537.44 515.964C1537.88 516.433 1538.41 516.844 1539.02 517.196C1539.64 517.548 1540.36 517.724 1541.18 517.724ZM1563.01 519.44C1561.25 519.44 1559.65 519.029 1558.21 518.208C1556.8 517.357 1555.69 516.125 1554.87 514.512C1554.05 512.869 1553.64 510.875 1553.64 508.528C1553.64 506.064 1554.05 504.04 1554.87 502.456C1555.72 500.843 1556.85 499.64 1558.26 498.848C1559.66 498.056 1561.22 497.66 1562.92 497.66C1565.33 497.66 1567.26 498.496 1568.73 500.168C1570.2 501.84 1570.99 504.216 1571.1 507.296H1556.8L1556.76 505.668H1566.97C1566.94 504.583 1566.75 503.571 1566.4 502.632C1566.04 501.664 1565.53 500.887 1564.86 500.3C1564.18 499.713 1563.32 499.42 1562.26 499.42C1560.56 499.42 1559.28 500.095 1558.43 501.444C1557.58 502.764 1557.16 504.641 1557.16 507.076C1557.16 509.1 1557.48 510.787 1558.12 512.136C1558.77 513.485 1559.62 514.497 1560.68 515.172C1561.73 515.817 1562.86 516.14 1564.06 516.14C1565.27 516.14 1566.24 515.979 1566.97 515.656C1567.73 515.333 1568.38 514.923 1568.9 514.424C1569.43 513.896 1569.93 513.324 1570.4 512.708L1571.24 513.324C1570.86 514.145 1570.42 514.937 1569.92 515.7C1569.42 516.433 1568.85 517.079 1568.2 517.636C1567.58 518.193 1566.85 518.633 1566 518.956C1565.15 519.279 1564.15 519.44 1563.01 519.44ZM1596.97 519H1586.81V517.768C1587.86 517.768 1588.61 517.68 1589.05 517.504C1589.52 517.299 1589.8 516.961 1589.89 516.492C1590 516.023 1590.06 515.377 1590.06 514.556V506.592C1590.06 504.832 1589.86 503.512 1589.45 502.632C1589.07 501.752 1588.57 501.18 1587.95 500.916C1587.33 500.623 1586.69 500.476 1586.01 500.476C1585.16 500.476 1584.4 500.652 1583.73 501.004C1583.05 501.327 1582.44 501.723 1581.88 502.192C1581.35 502.661 1580.85 503.101 1580.38 503.512L1580.07 501.356H1580.73C1581.94 500.3 1583.07 499.42 1584.12 498.716C1585.21 498.012 1586.44 497.66 1587.82 497.66C1589.81 497.66 1591.29 498.335 1592.26 499.684C1593.23 501.033 1593.71 502.969 1593.71 505.492V514.556C1593.71 515.377 1593.77 516.023 1593.89 516.492C1594.04 516.961 1594.35 517.299 1594.81 517.504C1595.28 517.68 1596 517.768 1596.97 517.768V519ZM1584.03 519H1573.96V517.768C1574.96 517.768 1575.66 517.68 1576.07 517.504C1576.51 517.299 1576.77 516.961 1576.86 516.492C1576.98 516.023 1577.04 515.377 1577.04 514.556V502.192C1577.04 501.4 1576.88 500.887 1576.55 500.652C1576.23 500.388 1575.78 500.256 1575.19 500.256C1574.81 500.256 1574.52 500.271 1574.31 500.3C1574.11 500.329 1574 500.344 1574 500.344V499.068L1579.59 497.792H1580.6L1580.56 501.84L1580.69 502.764V514.556C1580.69 515.377 1580.75 516.023 1580.87 516.492C1580.98 516.961 1581.28 517.299 1581.75 517.504C1582.22 517.68 1582.98 517.768 1584.03 517.768V519Z" fill="black"/>
</g>
<path id="Aim:" d="M844.372 523.855H835.132V522.535C835.953 522.535 836.613 522.403 837.112 522.139C837.611 521.875 838.095 521.347 838.564 520.555C839.033 519.734 839.62 518.487 840.324 516.815L849.652 494.727H851.456L861.884 518.619C862.529 520.057 863.145 521.069 863.732 521.655C864.348 522.242 865.243 522.535 866.416 522.535V523.855H854.58V522.535C855.02 522.535 855.475 522.506 855.944 522.447C856.413 522.389 856.809 522.242 857.132 522.007C857.455 521.773 857.616 521.406 857.616 520.907C857.616 520.585 857.557 520.218 857.44 519.807C857.352 519.367 857.161 518.825 856.868 518.179L854.976 513.779L854.668 512.899L849.652 500.139H849.52L844.372 512.899L844.064 513.779L841.908 518.883C841.791 519.235 841.673 519.587 841.556 519.939C841.468 520.262 841.424 520.629 841.424 521.039C841.424 521.655 841.659 522.066 842.128 522.271C842.597 522.447 843.345 522.535 844.372 522.535V523.855ZM855.636 514.219H843.404L844.064 512.459H854.976L855.636 514.219ZM877.89 523.855H867.99V522.623C868.987 522.623 869.691 522.535 870.102 522.359C870.542 522.154 870.806 521.817 870.894 521.347C871.011 520.878 871.07 520.233 871.07 519.411V507.135C871.07 506.197 870.909 505.625 870.586 505.419C870.263 505.185 869.779 505.067 869.134 505.067C868.841 505.067 868.577 505.082 868.342 505.111C868.137 505.141 868.034 505.155 868.034 505.155V503.879L873.578 502.647H874.722V519.411C874.722 520.262 874.781 520.922 874.898 521.391C875.015 521.861 875.294 522.183 875.734 522.359C876.203 522.535 876.922 522.623 877.89 522.623V523.855ZM872.962 499.215C872.229 499.215 871.627 498.966 871.158 498.467C870.689 497.969 870.454 497.382 870.454 496.707C870.454 496.033 870.674 495.461 871.114 494.991C871.583 494.493 872.199 494.243 872.962 494.243C873.725 494.243 874.326 494.493 874.766 494.991C875.235 495.461 875.47 496.033 875.47 496.707C875.47 497.382 875.235 497.969 874.766 498.467C874.326 498.966 873.725 499.215 872.962 499.215ZM903.329 523.855H892.901V522.579C893.957 522.579 894.72 522.477 895.189 522.271C895.658 522.066 895.952 521.685 896.069 521.127C896.216 520.57 896.289 519.778 896.289 518.751V510.039C896.289 508.162 895.952 506.915 895.277 506.299C894.632 505.654 893.796 505.331 892.769 505.331C891.948 505.331 891.17 505.507 890.437 505.859C889.733 506.211 889.088 506.622 888.501 507.091C887.914 507.561 887.416 508.001 887.005 508.411L886.653 506.211H887.313C888.516 505.185 889.674 504.319 890.789 503.615C891.904 502.882 893.209 502.515 894.705 502.515C896.025 502.515 897.081 502.897 897.873 503.659C898.694 504.422 899.31 505.375 899.721 506.519C899.78 506.607 899.824 506.71 899.853 506.827C899.882 506.915 899.912 507.018 899.941 507.135V518.751C899.941 519.749 900 520.526 900.117 521.083C900.264 521.641 900.572 522.037 901.041 522.271C901.51 522.477 902.273 522.579 903.329 522.579V523.855ZM890.569 523.855H880.537V522.579C881.476 522.579 882.15 522.506 882.561 522.359C883.001 522.183 883.28 521.875 883.397 521.435C883.544 520.966 883.617 520.291 883.617 519.411V507.091C883.617 506.299 883.456 505.771 883.133 505.507C882.84 505.243 882.385 505.111 881.769 505.111C881.446 505.111 881.168 505.126 880.933 505.155C880.698 505.185 880.581 505.199 880.581 505.199V503.923L886.081 502.647H887.137V506.695L887.269 507.663V519.587C887.269 520.409 887.357 521.039 887.533 521.479C887.709 521.89 888.032 522.183 888.501 522.359C888.97 522.506 889.66 522.579 890.569 522.579V523.855ZM915.605 523.855H905.661V522.579C906.658 522.579 907.377 522.447 907.817 522.183C908.257 521.919 908.521 521.509 908.609 520.951C908.726 520.365 908.785 519.631 908.785 518.751V510.303C908.785 508.954 908.609 507.927 908.257 507.223C907.934 506.519 907.48 506.035 906.893 505.771C906.336 505.478 905.705 505.331 905.001 505.331C904.033 505.331 903.08 505.683 902.141 506.387C901.202 507.062 900.352 507.722 899.589 508.367L899.105 506.167H899.765C900.968 504.965 902.141 504.055 903.285 503.439C904.429 502.823 905.588 502.515 906.761 502.515C908.492 502.515 909.87 503.058 910.897 504.143C911.924 505.229 912.437 507.106 912.437 509.775V518.751C912.437 519.661 912.481 520.409 912.569 520.995C912.686 521.553 912.965 521.963 913.405 522.227C913.874 522.462 914.608 522.579 915.605 522.579V523.855ZM922.362 524.207C921.482 524.207 920.822 523.958 920.382 523.459C919.971 522.961 919.766 522.345 919.766 521.611C919.766 520.849 920 520.203 920.47 519.675C920.939 519.118 921.584 518.839 922.406 518.839C923.256 518.839 923.916 519.118 924.386 519.675C924.855 520.233 925.09 520.893 925.09 521.655C925.09 522.33 924.855 522.931 924.386 523.459C923.916 523.958 923.242 524.207 922.362 524.207ZM922.362 508.191C921.482 508.191 920.822 507.942 920.382 507.443C919.971 506.945 919.766 506.329 919.766 505.595C919.766 504.833 920 504.187 920.47 503.659C920.939 503.102 921.584 502.823 922.406 502.823C923.256 502.823 923.916 503.102 924.386 503.659C924.855 504.217 925.09 504.877 925.09 505.639C925.09 506.314 924.855 506.915 924.386 507.443C923.916 507.942 923.242 508.191 922.362 508.191Z" fill="black"/>
</g>
<g id="\overline{A} \setminus A_2" clip-path="url(#clip1_3_1478)">
<g id="page1_2">
<path id="Vector_5" d="M996.813 480H959V482.061H996.813V480Z" fill="black"/>
<path id="Vector_6" d="M967.757 517.727C965.954 520.766 964.203 521.796 961.73 521.951C961.163 522.002 960.751 522.002 960.751 522.93C960.751 523.239 961.009 523.445 961.369 523.445C962.296 523.445 964.615 523.342 965.542 523.342C967.036 523.342 968.684 523.445 970.127 523.445C970.436 523.445 971.054 523.445 971.054 522.466C971.054 522.002 970.642 521.951 970.333 521.951C969.148 521.848 968.169 521.436 968.169 520.199C968.169 519.478 968.478 518.911 969.148 517.778L973.063 511.287H986.2C986.251 511.751 986.251 512.163 986.303 512.626C986.457 513.966 987.075 519.323 987.075 520.302C987.075 521.848 984.448 521.951 983.624 521.951C983.057 521.951 982.491 521.951 982.491 522.878C982.491 523.445 982.954 523.445 983.263 523.445C984.139 523.445 985.169 523.342 986.045 523.342H988.982C992.124 523.342 994.391 523.445 994.442 523.445C994.803 523.445 995.369 523.445 995.369 522.466C995.369 521.951 994.906 521.951 994.133 521.951C991.3 521.951 991.248 521.487 991.094 519.942L987.951 487.796C987.848 486.766 987.642 486.663 987.075 486.663C986.56 486.663 986.251 486.766 985.788 487.538L967.757 517.727ZM973.939 509.793L984.294 492.484L986.045 509.793H973.939Z" fill="black"/>
<path id="Vector_7" d="M1028.92 535.087C1029.18 535.809 1029.43 536.324 1030.1 536.324C1030.67 536.324 1031.13 535.86 1031.13 535.293C1031.13 535.19 1031.13 535.087 1030.88 534.469L1013.26 486.044C1012.95 485.169 1012.79 484.808 1012.13 484.808C1011.56 484.808 1011.09 485.272 1011.09 485.838C1011.09 485.941 1011.09 486.044 1011.35 486.663L1028.92 535.087Z" fill="black"/>
<path id="Vector_8" d="M1054.22 517.727C1052.42 520.766 1050.67 521.796 1048.2 521.951C1047.63 522.002 1047.22 522.002 1047.22 522.93C1047.22 523.239 1047.48 523.445 1047.84 523.445C1048.76 523.445 1051.08 523.342 1052.01 523.342C1053.5 523.342 1055.15 523.445 1056.59 523.445C1056.9 523.445 1057.52 523.445 1057.52 522.466C1057.52 522.002 1057.11 521.951 1056.8 521.951C1055.62 521.848 1054.64 521.436 1054.64 520.199C1054.64 519.478 1054.95 518.911 1055.62 517.778L1059.53 511.287H1072.67C1072.72 511.751 1072.72 512.163 1072.77 512.626C1072.93 513.966 1073.54 519.323 1073.54 520.302C1073.54 521.848 1070.92 521.951 1070.09 521.951C1069.53 521.951 1068.96 521.951 1068.96 522.878C1068.96 523.445 1069.42 523.445 1069.73 523.445C1070.61 523.445 1071.64 523.342 1072.51 523.342H1075.45C1078.59 523.342 1080.86 523.445 1080.91 523.445C1081.27 523.445 1081.84 523.445 1081.84 522.466C1081.84 521.951 1081.37 521.951 1080.6 521.951C1077.77 521.951 1077.72 521.487 1077.56 519.942L1074.42 487.796C1074.32 486.766 1074.11 486.663 1073.54 486.663C1073.03 486.663 1072.72 486.766 1072.26 487.538L1054.22 517.727ZM1060.41 509.793L1070.76 492.484L1072.51 509.793H1060.41Z" fill="black"/>
</g>
</g>
</g>
<g id="U___overline_A___implies_U__text__intersects___mathring_A_" clip-path="url(#clip2_3_1478)">
<g id="page1_3">
<path id="Vector_9" d="M868.564 636.596C866.761 643.808 860.785 648.032 855.943 648.032C852.233 648.032 849.709 645.56 849.709 641.284C849.709 641.078 849.709 639.532 850.276 637.266L855.324 617.02C855.788 615.268 855.891 614.753 859.549 614.753C860.476 614.753 860.991 614.753 860.991 613.826C860.991 613.259 860.527 613.259 860.218 613.259C859.291 613.259 858.209 613.362 857.23 613.362H851.152C850.173 613.362 849.091 613.259 848.112 613.259C847.752 613.259 847.133 613.259 847.133 614.238C847.133 614.753 847.494 614.753 848.473 614.753C851.564 614.753 851.564 615.165 851.564 615.732C851.564 616.041 851.203 617.535 850.946 618.411L846.464 636.441C846.309 637.008 846 638.399 846 639.79C846 645.457 850.07 649.526 855.685 649.526C860.888 649.526 866.658 645.405 869.285 638.863C869.646 637.987 870.109 636.184 870.418 634.793C870.934 632.938 872.015 628.405 872.376 627.065L874.334 619.338C875.003 616.659 875.415 614.959 879.949 614.753C880.361 614.702 880.567 614.29 880.567 613.826C880.567 613.259 880.103 613.259 879.897 613.259C879.176 613.259 878.249 613.362 877.528 613.362H875.106C871.912 613.362 870.264 613.259 870.212 613.259C869.903 613.259 869.285 613.259 869.285 614.238C869.285 614.753 869.697 614.753 870.058 614.753C873.149 614.856 873.355 616.041 873.355 616.968C873.355 617.432 873.355 617.587 873.149 618.308L868.564 636.596Z" fill="black"/>
<path id="Vector_10" d="M930.396 617.741C931.271 617.741 932.199 617.741 932.199 616.71C932.199 615.68 931.271 615.68 930.396 615.68H916.538C907.677 615.68 900.723 622.429 900.723 630.568C900.723 638.862 907.832 645.508 916.538 645.508H930.396C931.271 645.508 932.199 645.508 932.199 644.477C932.199 643.447 931.271 643.447 930.396 643.447H916.641C908.502 643.447 902.783 637.42 902.783 630.62C902.783 623.614 908.656 617.741 916.641 617.741H930.396ZM903.556 653.441C902.68 653.441 901.753 653.441 901.753 654.471C901.753 655.502 902.68 655.502 903.556 655.502H930.396C931.271 655.502 932.199 655.502 932.199 654.471C932.199 653.441 931.271 653.441 930.396 653.441H903.556Z" fill="black"/>
<path id="Vector_11" d="M988.637 605H950.823V607.061H988.637V605Z" fill="black"/>
<path id="Vector_12" d="M959.58 642.727C957.777 645.766 956.026 646.796 953.553 646.951C952.986 647.002 952.574 647.002 952.574 647.93C952.574 648.239 952.832 648.445 953.192 648.445C954.12 648.445 956.438 648.342 957.365 648.342C958.859 648.342 960.508 648.445 961.95 648.445C962.259 648.445 962.877 648.445 962.877 647.466C962.877 647.002 962.465 646.951 962.156 646.951C960.971 646.848 959.992 646.436 959.992 645.199C959.992 644.478 960.302 643.911 960.971 642.778L964.886 636.287H978.023C978.074 636.751 978.074 637.163 978.126 637.626C978.281 638.966 978.899 644.323 978.899 645.302C978.899 646.848 976.271 646.951 975.447 646.951C974.88 646.951 974.314 646.951 974.314 647.878C974.314 648.445 974.777 648.445 975.087 648.445C975.962 648.445 976.993 648.342 977.868 648.342H980.805C983.947 648.342 986.214 648.445 986.265 648.445C986.626 648.445 987.193 648.445 987.193 647.466C987.193 646.951 986.729 646.951 985.956 646.951C983.123 646.951 983.071 646.487 982.917 644.942L979.774 612.796C979.671 611.766 979.465 611.663 978.899 611.663C978.384 611.663 978.074 611.766 977.611 612.538L959.58 642.727ZM965.762 634.793L976.117 617.484L977.868 634.793H965.762Z" fill="black"/>
<path id="Vector_13" d="M1052.03 631.754C1052.75 631.754 1053.68 631.754 1053.68 630.826C1053.68 629.848 1052.8 629.848 1052.03 629.848H1021.69C1020.97 629.848 1020.04 629.848 1020.04 630.775C1020.04 631.754 1020.91 631.754 1021.69 631.754H1052.03ZM1052.03 641.336C1052.75 641.336 1053.68 641.336 1053.68 640.408C1053.68 639.43 1052.8 639.43 1052.03 639.43H1021.69C1020.97 639.43 1020.04 639.43 1020.04 640.357C1020.04 641.336 1020.91 641.336 1021.69 641.336H1052.03Z" fill="black"/>
<path id="Vector_14" d="M1085.3 631.599C1087.47 633.454 1090.09 634.793 1091.79 635.566C1089.94 636.39 1087.41 637.729 1085.3 639.532H1052.59C1051.71 639.532 1050.74 639.532 1050.74 640.563C1050.74 641.593 1051.66 641.593 1052.54 641.593H1082.98C1080.51 643.963 1077.83 648.496 1077.83 649.166C1077.83 649.733 1078.5 649.733 1078.81 649.733C1079.22 649.733 1079.58 649.733 1079.79 649.32C1080.87 647.363 1082.31 644.632 1085.66 641.645C1089.22 638.502 1092.67 637.111 1095.35 636.338C1096.22 636.029 1096.28 635.978 1096.38 635.875C1096.48 635.823 1096.48 635.669 1096.48 635.566C1096.48 635.463 1096.48 635.36 1096.43 635.257L1096.28 635.154C1096.17 635.102 1096.12 635.051 1095.14 634.741C1088.19 632.681 1083.04 627.993 1080.15 622.481C1079.58 621.45 1079.53 621.399 1078.81 621.399C1078.5 621.399 1077.83 621.399 1077.83 621.966C1077.83 622.635 1080.46 627.117 1082.98 629.538H1052.54C1051.66 629.538 1050.74 629.538 1050.74 630.569C1050.74 631.599 1051.71 631.599 1052.59 631.599H1085.3Z" fill="black"/>
<path id="Vector_15" d="M1154.11 636.596C1152.3 643.808 1146.33 648.032 1141.48 648.032C1137.78 648.032 1135.25 645.56 1135.25 641.284C1135.25 641.078 1135.25 639.532 1135.82 637.266L1140.87 617.02C1141.33 615.268 1141.43 614.753 1145.09 614.753C1146.02 614.753 1146.53 614.753 1146.53 613.826C1146.53 613.259 1146.07 613.259 1145.76 613.259C1144.83 613.259 1143.75 613.362 1142.77 613.362H1136.69C1135.71 613.362 1134.63 613.259 1133.65 613.259C1133.29 613.259 1132.68 613.259 1132.68 614.238C1132.68 614.753 1133.04 614.753 1134.01 614.753C1137.11 614.753 1137.11 615.165 1137.11 615.732C1137.11 616.041 1136.75 617.535 1136.49 618.411L1132.01 636.441C1131.85 637.008 1131.54 638.399 1131.54 639.79C1131.54 645.457 1135.61 649.526 1141.23 649.526C1146.43 649.526 1152.2 645.405 1154.83 638.863C1155.19 637.987 1155.65 636.184 1155.96 634.793C1156.48 632.938 1157.56 628.405 1157.92 627.065L1159.88 619.338C1160.55 616.659 1160.96 614.959 1165.49 614.753C1165.9 614.702 1166.11 614.29 1166.11 613.826C1166.11 613.259 1165.65 613.259 1165.44 613.259C1164.72 613.259 1163.79 613.362 1163.07 613.362H1160.65C1157.45 613.362 1155.81 613.259 1155.75 613.259C1155.45 613.259 1154.83 613.259 1154.83 614.238C1154.83 614.753 1155.24 614.753 1155.6 614.753C1158.69 614.856 1158.9 616.041 1158.9 616.968C1158.9 617.432 1158.9 617.587 1158.69 618.308L1154.11 636.596Z" fill="black"/>
<path id="Vector_16" d="M1193.46 616.711C1193.46 615.372 1192.37 614.187 1190.93 614.187C1189.59 614.187 1188.46 615.269 1188.46 616.66C1188.46 618.205 1189.7 619.184 1190.93 619.184C1192.53 619.184 1193.46 617.845 1193.46 616.711ZM1186.35 626.293V627.787C1189.64 627.787 1190.11 628.096 1190.11 630.62V644.633C1190.11 646.951 1189.54 646.951 1186.19 646.951V648.445C1187.63 648.342 1190.11 648.342 1191.6 648.342C1192.17 648.342 1195.16 648.342 1196.91 648.445V646.951C1193.56 646.951 1193.35 646.693 1193.35 644.684V625.727L1186.35 626.293Z" fill="black"/>
<path id="Vector_17" d="M1221.43 635.926C1221.43 631.135 1221.43 629.693 1220.24 628.044C1218.75 626.035 1216.33 625.726 1214.58 625.726C1209.58 625.726 1207.62 630.002 1207.21 631.032H1207.16V625.726L1200.15 626.293V627.787C1203.65 627.787 1204.07 628.147 1204.07 630.672V644.632C1204.07 646.951 1203.5 646.951 1200.15 646.951V648.444C1201.49 648.341 1204.27 648.341 1205.72 648.341C1207.21 648.341 1209.99 648.341 1211.33 648.444V646.951C1208.03 646.951 1207.42 646.951 1207.42 644.632V635.05C1207.42 629.641 1210.97 626.756 1214.16 626.756C1217.36 626.756 1218.08 629.384 1218.08 632.526V644.632C1218.08 646.951 1217.51 646.951 1214.16 646.951V648.444C1215.5 648.341 1218.28 648.341 1219.73 648.341C1221.22 648.341 1224 648.341 1225.34 648.444V646.951C1222.77 646.951 1221.48 646.951 1221.43 645.405V635.926Z" fill="black"/>
<path id="Vector_18" d="M1233.78 627.736H1241.04V626.242H1233.78V616.763H1232.65C1232.6 621.605 1230.74 626.551 1226.05 626.705V627.736H1230.43V642.057C1230.43 647.775 1234.24 648.96 1236.97 648.96C1240.22 648.96 1241.92 645.766 1241.92 642.057V639.12H1240.79V641.954C1240.79 645.663 1239.29 647.827 1237.28 647.827C1233.78 647.827 1233.78 643.036 1233.78 642.16V627.736Z" fill="black"/>
<path id="Vector_19" d="M1264.47 636.493C1265.6 636.493 1265.71 636.493 1265.71 635.514C1265.71 630.311 1262.92 625.468 1256.69 625.468C1250.82 625.468 1246.29 630.774 1246.29 637.162C1246.29 643.962 1251.54 648.959 1257.26 648.959C1263.39 648.959 1265.71 643.396 1265.71 642.314C1265.71 642.005 1265.45 641.799 1265.14 641.799C1264.73 641.799 1264.62 642.056 1264.52 642.314C1263.18 646.641 1259.73 647.826 1257.57 647.826C1255.4 647.826 1250.2 646.384 1250.2 637.471V636.493H1264.47ZM1250.25 635.514C1250.66 627.426 1255.2 626.499 1256.64 626.499C1262.15 626.499 1262.46 633.762 1262.51 635.514H1250.25Z" fill="black"/>
<path id="Vector_20" d="M1275.76 636.441C1275.76 631.444 1277.82 626.756 1281.79 626.756C1282.2 626.756 1282.3 626.756 1282.51 626.808C1282.1 627.014 1281.27 627.323 1281.27 628.714C1281.27 630.208 1282.46 630.775 1283.28 630.775C1284.31 630.775 1285.34 630.105 1285.34 628.714C1285.34 627.169 1283.95 625.726 1281.74 625.726C1277.36 625.726 1275.87 630.466 1275.56 631.444H1275.5V625.726L1268.6 626.293V627.787C1272.1 627.787 1272.52 628.147 1272.52 630.672V644.632C1272.52 646.951 1271.95 646.951 1268.6 646.951V648.444C1270.04 648.341 1272.88 648.341 1274.42 648.341C1275.81 648.341 1279.47 648.341 1280.66 648.444V646.951H1279.63C1275.87 646.951 1275.76 646.384 1275.76 644.529V636.441Z" fill="black"/>
<path id="Vector_21" d="M1303.67 626.653C1303.67 625.726 1303.67 625.468 1303.16 625.468C1302.75 625.468 1301.77 626.602 1301.41 627.065C1299.81 625.777 1298.21 625.468 1296.56 625.468C1290.33 625.468 1288.48 628.868 1288.48 631.702C1288.48 632.268 1288.48 634.071 1290.43 635.874C1292.08 637.317 1293.83 637.677 1296.2 638.141C1299.04 638.708 1299.71 638.862 1300.99 639.893C1301.92 640.665 1302.59 641.799 1302.59 643.241C1302.59 645.456 1301.3 647.929 1296.77 647.929C1293.37 647.929 1290.9 645.971 1289.76 640.82C1289.56 639.893 1289.56 639.841 1289.51 639.79C1289.4 639.584 1289.2 639.584 1289.04 639.584C1288.48 639.584 1288.48 639.841 1288.48 640.768V647.775C1288.48 648.702 1288.48 648.959 1288.99 648.959C1289.25 648.959 1289.3 648.908 1290.18 647.826C1290.43 647.465 1290.43 647.362 1291.21 646.538C1293.16 648.959 1295.95 648.959 1296.82 648.959C1302.23 648.959 1304.91 645.971 1304.91 641.902C1304.91 639.12 1303.21 637.471 1302.75 637.008C1300.89 635.411 1299.5 635.102 1296.1 634.483C1294.56 634.174 1290.79 633.453 1290.79 630.362C1290.79 628.765 1291.88 626.396 1296.51 626.396C1302.13 626.396 1302.44 631.186 1302.54 632.783C1302.59 633.196 1302.95 633.196 1303.11 633.196C1303.67 633.196 1303.67 632.938 1303.67 632.011V626.653Z" fill="black"/>
<path id="Vector_22" d="M1326.4 636.493C1327.54 636.493 1327.64 636.493 1327.64 635.514C1327.64 630.311 1324.86 625.468 1318.63 625.468C1312.75 625.468 1308.22 630.774 1308.22 637.162C1308.22 643.962 1313.47 648.959 1319.19 648.959C1325.32 648.959 1327.64 643.396 1327.64 642.314C1327.64 642.005 1327.38 641.799 1327.07 641.799C1326.66 641.799 1326.56 642.056 1326.46 642.314C1325.12 646.641 1321.67 647.826 1319.5 647.826C1317.34 647.826 1312.13 646.384 1312.13 637.471V636.493H1326.4ZM1312.19 635.514C1312.6 627.426 1317.13 626.499 1318.57 626.499C1324.09 626.499 1324.4 633.762 1324.45 635.514H1312.19Z" fill="black"/>
<path id="Vector_23" d="M1347.74 629.383C1347.12 629.383 1345.22 629.383 1345.22 631.496C1345.22 632.732 1346.09 633.608 1347.33 633.608C1348.51 633.608 1349.49 632.887 1349.49 631.393C1349.49 627.941 1345.89 625.468 1341.71 625.468C1335.69 625.468 1330.9 630.826 1330.9 637.317C1330.9 643.911 1335.84 648.959 1341.66 648.959C1348.46 648.959 1350.01 642.778 1350.01 642.314C1350.01 641.85 1349.65 641.85 1349.49 641.85C1349.03 641.85 1348.98 642.005 1348.82 642.623C1347.69 646.281 1344.91 647.826 1342.13 647.826C1338.98 647.826 1334.81 645.096 1334.81 637.265C1334.81 628.714 1339.19 626.602 1341.77 626.602C1343.72 626.602 1346.56 627.374 1347.74 629.383Z" fill="black"/>
<path id="Vector_24" d="M1360.16 627.736H1367.43V626.242H1360.16V616.763H1359.03C1358.98 621.605 1357.13 626.551 1352.44 626.705V627.736H1356.82V642.057C1356.82 647.775 1360.63 648.96 1363.36 648.96C1366.6 648.96 1368.3 645.766 1368.3 642.057V639.12H1367.17V641.954C1367.17 645.663 1365.68 647.827 1363.67 647.827C1360.16 647.827 1360.16 643.036 1360.16 642.16V627.736Z" fill="black"/>
<path id="Vector_25" d="M1388.02 626.653C1388.02 625.726 1388.02 625.468 1387.51 625.468C1387.1 625.468 1386.12 626.602 1385.76 627.065C1384.16 625.777 1382.56 625.468 1380.91 625.468C1374.68 625.468 1372.83 628.868 1372.83 631.702C1372.83 632.268 1372.83 634.071 1374.78 635.874C1376.43 637.317 1378.18 637.677 1380.55 638.141C1383.39 638.708 1384.06 638.862 1385.34 639.893C1386.27 640.665 1386.94 641.799 1386.94 643.241C1386.94 645.456 1385.65 647.929 1381.12 647.929C1377.72 647.929 1375.25 645.971 1374.11 640.82C1373.91 639.893 1373.91 639.841 1373.86 639.79C1373.75 639.584 1373.55 639.584 1373.39 639.584C1372.83 639.584 1372.83 639.841 1372.83 640.768V647.775C1372.83 648.702 1372.83 648.959 1373.34 648.959C1373.6 648.959 1373.65 648.908 1374.53 647.826C1374.78 647.465 1374.78 647.362 1375.56 646.538C1377.51 648.959 1380.3 648.959 1381.17 648.959C1386.58 648.959 1389.26 645.971 1389.26 641.902C1389.26 639.12 1387.56 637.471 1387.1 637.008C1385.24 635.411 1383.85 635.102 1380.45 634.483C1378.91 634.174 1375.14 633.453 1375.14 630.362C1375.14 628.765 1376.23 626.396 1380.86 626.396C1386.48 626.396 1386.79 631.186 1386.89 632.783C1386.94 633.196 1387.3 633.196 1387.46 633.196C1388.02 633.196 1388.02 632.938 1388.02 632.011V626.653Z" fill="black"/>
<path id="Vector_26" d="M1416.59 642.727C1414.79 645.766 1413.04 646.796 1410.57 646.951C1410 647.002 1409.59 647.002 1409.59 647.93C1409.59 648.239 1409.85 648.445 1410.21 648.445C1411.13 648.445 1413.45 648.342 1414.38 648.342C1415.87 648.342 1417.52 648.445 1418.96 648.445C1419.27 648.445 1419.89 648.445 1419.89 647.466C1419.89 647.002 1419.48 646.951 1419.17 646.951C1417.98 646.848 1417.01 646.436 1417.01 645.199C1417.01 644.478 1417.32 643.911 1417.98 642.778L1421.9 636.287H1435.04C1435.09 636.751 1435.09 637.163 1435.14 637.626C1435.29 638.966 1435.91 644.323 1435.91 645.302C1435.91 646.848 1433.29 646.951 1432.46 646.951C1431.89 646.951 1431.33 646.951 1431.33 647.878C1431.33 648.445 1431.79 648.445 1432.1 648.445C1432.98 648.445 1434.01 648.342 1434.88 648.342H1437.82C1440.96 648.342 1443.23 648.445 1443.28 648.445C1443.64 648.445 1444.21 648.445 1444.21 647.466C1444.21 646.951 1443.74 646.951 1442.97 646.951C1440.14 646.951 1440.09 646.487 1439.93 644.942L1436.79 612.796C1436.69 611.766 1436.48 611.663 1435.91 611.663C1435.4 611.663 1435.09 611.766 1434.62 612.538L1416.59 642.727ZM1422.78 634.793L1433.13 617.484L1434.88 634.793H1422.78Z" fill="black"/>
</g>
</g>
</g>
<defs>
<clipPath id="clip0_3_1478">
<rect width="122.837" height="56.3234" fill="white" transform="translate(513.904 471.704)"/>
</clipPath>
<clipPath id="clip1_3_1478">
<rect width="122.837" height="56.3234" fill="white" transform="translate(959 480)"/>
</clipPath>
<clipPath id="clip2_3_1478">
<rect width="598.207" height="50.5021" fill="white" transform="translate(846 605)"/>
</clipPath>
</defs>
</svg>
