<svg width="1921" height="1081" viewBox="0 0 1921 1081" fill="none" xmlns="http://www.w3.org/2000/svg">
<g id="proof frontier">
<rect width="1920" height="1080" transform="translate(0.711914 0.431885)" fill="white"/>
<g id="Group 67">
<path id="Proof:" d="M234.372 436.768C234.372 438.577 233.958 440.172 233.13 441.552C232.302 442.901 231.136 443.959 229.634 444.726C228.162 445.462 226.444 445.83 224.482 445.83C224.236 445.83 223.914 445.799 223.516 445.738C223.117 445.677 222.795 445.585 222.55 445.462C222.488 445.401 222.366 445.293 222.182 445.14C221.998 444.956 221.906 444.726 221.906 444.45C221.906 444.266 221.982 444.189 222.136 444.22C222.381 444.281 222.642 444.358 222.918 444.45C223.194 444.511 223.5 444.542 223.838 444.542C225.647 444.542 227.165 443.944 228.392 442.748C229.618 441.521 230.232 439.789 230.232 437.55C230.232 435.311 229.618 433.517 228.392 432.168C227.165 430.819 225.31 430.144 222.826 430.144C222.55 430.144 222.12 430.159 221.538 430.19C220.986 430.221 220.664 430.343 220.572 430.558C220.449 430.834 220.372 431.309 220.342 431.984C220.342 432.628 220.342 433.287 220.342 433.962V453.098C220.342 453.773 220.342 454.401 220.342 454.984C220.372 455.567 220.449 456.042 220.572 456.41C220.633 456.563 220.878 456.701 221.308 456.824C221.737 456.947 222.182 457.039 222.642 457.1C223.132 457.131 223.47 457.146 223.654 457.146C223.746 457.269 223.792 457.483 223.792 457.79C223.822 458.097 223.776 458.311 223.654 458.434C222.734 458.373 221.844 458.327 220.986 458.296C220.158 458.235 219.299 458.204 218.41 458.204C217.551 458.204 216.677 458.235 215.788 458.296C214.929 458.327 214.04 458.373 213.12 458.434C212.997 458.311 212.936 458.097 212.936 457.79C212.966 457.483 213.028 457.269 213.12 457.146C213.304 457.146 213.626 457.131 214.086 457.1C214.576 457.039 215.036 456.947 215.466 456.824C215.926 456.701 216.171 456.563 216.202 456.41C216.324 456.042 216.386 455.567 216.386 454.984C216.416 454.401 216.432 453.773 216.432 453.098V433.916C216.432 433.241 216.416 432.613 216.386 432.03C216.386 431.417 216.324 430.926 216.202 430.558C216.171 430.374 215.926 430.236 215.466 430.144C215.036 430.052 214.576 429.991 214.086 429.96C213.626 429.899 213.304 429.868 213.12 429.868C213.028 429.745 212.966 429.531 212.936 429.224C212.936 428.917 212.997 428.703 213.12 428.58C214.04 428.611 214.929 428.657 215.788 428.718C216.677 428.749 217.551 428.764 218.41 428.764C219.299 428.764 220.25 428.749 221.262 428.718C222.304 428.687 223.485 428.672 224.804 428.672C226.398 428.672 227.916 428.994 229.358 429.638C230.83 430.251 232.026 431.156 232.946 432.352C233.896 433.548 234.372 435.02 234.372 436.768ZM249.329 438.654C249.912 438.654 250.464 438.792 250.985 439.068C251.506 439.313 251.874 439.62 252.089 439.988C252.15 440.111 252.196 440.279 252.227 440.494C252.258 440.709 252.273 440.939 252.273 441.184C252.273 442.012 252.074 442.61 251.675 442.978C251.307 443.346 251 443.53 250.755 443.53C250.448 443.53 250.157 443.423 249.881 443.208C249.605 442.993 249.344 442.809 249.099 442.656C248.884 442.503 248.654 442.38 248.409 442.288C248.194 442.165 247.872 442.104 247.443 442.104C246.799 442.104 246.201 442.38 245.649 442.932C245.128 443.453 244.698 444.036 244.361 444.68C244.024 445.324 243.855 445.815 243.855 446.152V453.098C243.855 453.773 243.855 454.401 243.855 454.984C243.886 455.567 243.962 456.042 244.085 456.41C244.146 456.563 244.453 456.701 245.005 456.824C245.557 456.947 246.14 457.039 246.753 457.1C247.366 457.131 247.765 457.146 247.949 457.146C248.041 457.269 248.087 457.483 248.087 457.79C248.118 458.097 248.072 458.311 247.949 458.434C247.029 458.373 246.094 458.327 245.143 458.296C244.192 458.235 243.272 458.204 242.383 458.204C241.524 458.204 240.696 458.235 239.899 458.296C239.102 458.327 238.243 458.373 237.323 458.434C237.2 458.311 237.139 458.097 237.139 457.79C237.17 457.483 237.231 457.269 237.323 457.146C237.507 457.146 237.814 457.131 238.243 457.1C238.703 457.039 239.132 456.947 239.531 456.824C239.93 456.701 240.144 456.563 240.175 456.41C240.298 456.042 240.359 455.567 240.359 454.984C240.39 454.401 240.405 453.773 240.405 453.098V444.726C240.405 444.419 240.39 444.021 240.359 443.53C240.359 443.039 240.298 442.656 240.175 442.38C240.083 442.104 239.822 441.92 239.393 441.828C238.964 441.705 238.534 441.644 238.105 441.644C237.676 441.613 237.4 441.598 237.277 441.598C237.246 441.537 237.216 441.353 237.185 441.046C237.154 440.739 237.185 440.525 237.277 440.402C238.442 440.249 239.577 440.019 240.681 439.712C241.785 439.405 242.782 439.007 243.671 438.516C243.794 438.516 243.901 438.608 243.993 438.792C244.116 438.976 244.177 439.129 244.177 439.252C244.177 439.344 244.146 439.697 244.085 440.31C244.024 440.923 243.962 441.552 243.901 442.196C243.87 442.809 243.855 443.208 243.855 443.392C243.855 443.484 243.87 443.53 243.901 443.53C243.962 443.53 244.008 443.515 244.039 443.484C244.346 442.84 244.775 442.15 245.327 441.414C245.91 440.647 246.554 440.003 247.259 439.482C247.964 438.93 248.654 438.654 249.329 438.654ZM264.146 438.562C266.14 438.562 267.842 438.991 269.252 439.85C270.694 440.709 271.798 441.874 272.564 443.346C273.362 444.818 273.76 446.489 273.76 448.36C273.76 450.292 273.346 452.04 272.518 453.604C271.69 455.137 270.556 456.364 269.114 457.284C267.673 458.173 266.048 458.618 264.238 458.618C262.276 458.618 260.558 458.189 259.086 457.33C257.645 456.441 256.526 455.26 255.728 453.788C254.962 452.285 254.578 450.599 254.578 448.728C254.578 446.796 254.992 445.063 255.82 443.53C256.679 441.997 257.829 440.785 259.27 439.896C260.712 439.007 262.337 438.562 264.146 438.562ZM263.64 440.08C262.383 440.08 261.371 440.463 260.604 441.23C259.838 441.966 259.286 442.932 258.948 444.128C258.611 445.293 258.442 446.52 258.442 447.808C258.442 449.249 258.672 450.691 259.132 452.132C259.623 453.573 260.328 454.769 261.248 455.72C262.199 456.671 263.349 457.146 264.698 457.146C265.986 457.146 266.998 456.778 267.734 456.042C268.501 455.275 269.053 454.294 269.39 453.098C269.728 451.902 269.896 450.675 269.896 449.418C269.896 447.946 269.651 446.505 269.16 445.094C268.67 443.653 267.964 442.457 267.044 441.506C266.124 440.555 264.99 440.08 263.64 440.08ZM287.012 438.562C289.005 438.562 290.707 438.991 292.118 439.85C293.559 440.709 294.663 441.874 295.43 443.346C296.227 444.818 296.626 446.489 296.626 448.36C296.626 450.292 296.212 452.04 295.384 453.604C294.556 455.137 293.421 456.364 291.98 457.284C290.538 458.173 288.913 458.618 287.104 458.618C285.141 458.618 283.424 458.189 281.952 457.33C280.51 456.441 279.391 455.26 278.594 453.788C277.827 452.285 277.444 450.599 277.444 448.728C277.444 446.796 277.858 445.063 278.686 443.53C279.544 441.997 280.694 440.785 282.136 439.896C283.577 439.007 285.202 438.562 287.012 438.562ZM286.506 440.08C285.248 440.08 284.236 440.463 283.47 441.23C282.703 441.966 282.151 442.932 281.814 444.128C281.476 445.293 281.308 446.52 281.308 447.808C281.308 449.249 281.538 450.691 281.998 452.132C282.488 453.573 283.194 454.769 284.114 455.72C285.064 456.671 286.214 457.146 287.564 457.146C288.852 457.146 289.864 456.778 290.6 456.042C291.366 455.275 291.918 454.294 292.256 453.098C292.593 451.902 292.762 450.675 292.762 449.418C292.762 447.946 292.516 446.505 292.026 445.094C291.535 443.653 290.83 442.457 289.91 441.506C288.99 440.555 287.855 440.08 286.506 440.08ZM310.567 426.97C311.241 426.97 311.671 427.001 311.855 427.062C312.069 427.123 312.345 427.277 312.683 427.522C312.775 427.614 312.867 427.783 312.959 428.028C313.081 428.273 313.143 428.519 313.143 428.764C313.143 429.561 312.913 430.067 312.453 430.282C312.023 430.466 311.655 430.558 311.349 430.558C311.134 430.558 310.919 430.512 310.705 430.42C310.49 430.328 310.26 430.221 310.015 430.098C309.769 429.945 309.57 429.837 309.417 429.776C309.263 429.715 309.033 429.684 308.727 429.684C308.052 429.684 307.454 430.037 306.933 430.742C306.442 431.447 306.212 432.505 306.243 433.916V439.482H311.579C311.701 439.482 311.763 439.605 311.763 439.85C311.763 439.911 311.763 439.957 311.763 439.988C311.763 440.479 311.563 440.923 311.165 441.322H306.243V453.098C306.243 453.773 306.243 454.401 306.243 454.984C306.273 455.567 306.35 456.042 306.473 456.41C306.534 456.563 306.764 456.701 307.163 456.824C307.592 456.947 308.037 457.039 308.497 457.1C308.987 457.131 309.325 457.146 309.509 457.146C309.601 457.269 309.647 457.483 309.647 457.79C309.677 458.097 309.631 458.311 309.509 458.434C308.589 458.373 307.745 458.327 306.979 458.296C306.212 458.235 305.384 458.204 304.495 458.204C303.636 458.204 302.854 458.235 302.149 458.296C301.474 458.327 300.677 458.373 299.757 458.434C299.634 458.311 299.573 458.097 299.573 457.79C299.603 457.483 299.665 457.269 299.757 457.146C299.941 457.146 300.247 457.131 300.677 457.1C301.106 457.039 301.52 456.947 301.919 456.824C302.317 456.701 302.532 456.563 302.563 456.41C302.685 456.042 302.747 455.567 302.747 454.984C302.777 454.401 302.793 453.773 302.793 453.098V441.322H300.171C300.109 441.322 300.063 441.276 300.033 441.184C300.002 441.061 299.987 440.969 299.987 440.908C299.987 440.847 300.079 440.709 300.263 440.494C300.447 440.249 300.631 440.019 300.815 439.804C301.029 439.589 301.137 439.482 301.137 439.482H302.793V438.608C302.793 436.983 303.053 435.465 303.575 434.054C304.127 432.643 304.817 431.417 305.645 430.374C306.473 429.301 307.331 428.473 308.221 427.89C309.11 427.277 309.892 426.97 310.567 426.97ZM314.882 441.368C314.882 440.693 315.127 440.126 315.618 439.666C316.108 439.175 316.691 438.93 317.366 438.93C318.04 438.93 318.608 439.175 319.068 439.666C319.558 440.126 319.804 440.693 319.804 441.368C319.804 442.043 319.558 442.641 319.068 443.162C318.608 443.653 318.04 443.898 317.366 443.898C316.691 443.898 316.108 443.653 315.618 443.162C315.127 442.641 314.882 442.043 314.882 441.368ZM314.882 456.272C314.882 455.597 315.127 455.03 315.618 454.57C316.108 454.079 316.691 453.834 317.366 453.834C318.04 453.834 318.608 454.079 319.068 454.57C319.558 455.03 319.804 455.597 319.804 456.272C319.804 456.947 319.558 457.545 319.068 458.066C318.608 458.557 318.04 458.802 317.366 458.802C316.691 458.802 316.108 458.557 315.618 458.066C315.127 457.545 314.882 456.947 314.882 456.272Z" fill="black"/>
<path id="Vector 82" d="M211.399 465.296L318.096 466.296" stroke="black" stroke-width="2"/>
</g>
<g id="Group_94">
<g id="&#226;&#136;&#130; A := \overline{A} \setminus \mathring{A}" clip-path="url(#clip0_3_1478)">
<g id="page1">
<path id="Vector" d="M1196.06 640.989C1195.74 637.973 1193.85 634.365 1189.01 634.365C1181.41 634.365 1173.66 642.066 1173.66 650.63C1173.66 653.915 1175.92 660.109 1183.24 660.109C1195.95 660.109 1201.39 641.582 1201.39 634.203C1201.39 626.448 1197.03 620.47 1190.14 620.47C1182.33 620.47 1180.01 627.31 1180.01 628.764C1180.01 629.248 1180.33 630.433 1181.84 630.433C1183.73 630.433 1184.54 628.71 1184.54 627.794C1184.54 626.125 1182.87 626.125 1182.17 626.125C1184.37 622.139 1188.47 621.762 1189.92 621.762C1194.66 621.762 1197.68 625.532 1197.68 631.564C1197.68 635.011 1196.65 638.997 1196.11 640.989H1196.06ZM1183.4 658.655C1178.34 658.655 1177.48 654.669 1177.48 652.407C1177.48 650.037 1178.99 644.49 1179.8 642.497C1180.5 640.882 1183.57 635.442 1189.17 635.442C1194.07 635.442 1195.2 639.697 1195.2 642.605C1195.2 646.59 1191.7 658.655 1183.4 658.655Z" fill="black"/>
<path id="Vector_2" d="M1211.53 652.999C1209.65 656.176 1207.82 657.254 1205.23 657.415C1204.64 657.469 1204.21 657.469 1204.21 658.438C1204.21 658.762 1204.48 658.977 1204.86 658.977C1205.83 658.977 1208.25 658.869 1209.22 658.869C1210.78 658.869 1212.5 658.977 1214.01 658.977C1214.34 658.977 1214.98 658.977 1214.98 657.954C1214.98 657.469 1214.55 657.415 1214.23 657.415C1212.99 657.307 1211.97 656.877 1211.97 655.584C1211.97 654.83 1212.29 654.238 1212.99 653.053L1217.08 646.267H1230.82C1230.87 646.751 1230.87 647.182 1230.92 647.667C1231.08 649.067 1231.73 654.668 1231.73 655.692C1231.73 657.307 1228.98 657.415 1228.12 657.415C1227.53 657.415 1226.94 657.415 1226.94 658.385C1226.94 658.977 1227.42 658.977 1227.75 658.977C1228.66 658.977 1229.74 658.869 1230.65 658.869H1233.72C1237.01 658.869 1239.38 658.977 1239.43 658.977C1239.81 658.977 1240.4 658.977 1240.4 657.954C1240.4 657.415 1239.92 657.415 1239.11 657.415C1236.15 657.415 1236.09 656.93 1235.93 655.315L1232.65 621.708C1232.54 620.631 1232.32 620.523 1231.73 620.523C1231.19 620.523 1230.87 620.631 1230.38 621.439L1211.53 652.999ZM1218 644.705L1228.82 626.609L1230.65 644.705H1218Z" fill="black"/>
<path id="Vector_3" d="M1266.78 638.35C1266.78 636.896 1265.54 635.765 1264.19 635.765C1262.63 635.765 1261.55 637.003 1261.55 638.35C1261.55 639.966 1262.9 640.989 1264.14 640.989C1265.59 640.989 1266.78 639.858 1266.78 638.35ZM1266.78 656.338C1266.78 654.884 1265.54 653.753 1264.19 653.753C1262.63 653.753 1261.55 654.992 1261.55 656.338C1261.55 657.954 1262.9 658.977 1264.14 658.977C1265.59 658.977 1266.78 657.846 1266.78 656.338Z" fill="black"/>
<path id="Vector_4" d="M1307.87 641.527C1308.63 641.527 1309.59 641.527 1309.59 640.558C1309.59 639.535 1308.68 639.535 1307.87 639.535H1276.15C1275.4 639.535 1274.43 639.535 1274.43 640.504C1274.43 641.527 1275.34 641.527 1276.15 641.527H1307.87ZM1307.87 651.545C1308.63 651.545 1309.59 651.545 1309.59 650.575C1309.59 649.552 1308.68 649.552 1307.87 649.552H1276.15C1275.4 649.552 1274.43 649.552 1274.43 650.522C1274.43 651.545 1275.34 651.545 1276.15 651.545H1307.87Z" fill="black"/>
<path id="Vector_5" d="M1367.03 613.558H1327.5V615.712H1367.03V613.558Z" fill="black"/>
<path id="Vector_6" d="M1336.65 652.999C1334.77 656.176 1332.93 657.254 1330.35 657.415C1329.76 657.469 1329.33 657.469 1329.33 658.438C1329.33 658.762 1329.6 658.977 1329.97 658.977C1330.94 658.977 1333.37 658.869 1334.33 658.869C1335.9 658.869 1337.62 658.977 1339.13 658.977C1339.45 658.977 1340.1 658.977 1340.1 657.954C1340.1 657.469 1339.67 657.415 1339.34 657.415C1338.1 657.307 1337.08 656.877 1337.08 655.584C1337.08 654.83 1337.4 654.238 1338.1 653.053L1342.2 646.267H1355.93C1355.99 646.751 1355.99 647.182 1356.04 647.667C1356.2 649.067 1356.85 654.668 1356.85 655.692C1356.85 657.307 1354.1 657.415 1353.24 657.415C1352.65 657.415 1352.05 657.415 1352.05 658.385C1352.05 658.977 1352.54 658.977 1352.86 658.977C1353.78 658.977 1354.85 658.869 1355.77 658.869H1358.84C1362.13 658.869 1364.49 658.977 1364.55 658.977C1364.93 658.977 1365.52 658.977 1365.52 657.954C1365.52 657.415 1365.03 657.415 1364.23 657.415C1361.26 657.415 1361.21 656.93 1361.05 655.315L1357.76 621.708C1357.66 620.631 1357.44 620.523 1356.85 620.523C1356.31 620.523 1355.99 620.631 1355.5 621.439L1336.65 652.999ZM1343.11 644.705L1353.94 626.609L1355.77 644.705H1343.11Z" fill="black"/>
<path id="Vector_7" d="M1400.59 671.149C1400.86 671.903 1401.13 672.441 1401.83 672.441C1402.42 672.441 1402.91 671.957 1402.91 671.364C1402.91 671.256 1402.91 671.149 1402.64 670.502L1384.22 619.877C1383.9 618.961 1383.74 618.584 1383.04 618.584C1382.44 618.584 1381.96 619.069 1381.96 619.661C1381.96 619.769 1381.96 619.877 1382.23 620.523L1400.59 671.149Z" fill="black"/>
<path id="Vector_8" d="M1449.94 611.595C1449.94 608.848 1447.57 606.855 1444.98 606.855C1442.07 606.855 1439.97 609.117 1439.97 611.541C1439.97 614.288 1442.34 616.28 1444.93 616.28C1447.84 616.28 1449.94 614.018 1449.94 611.595ZM1444.98 615.203C1442.13 615.203 1441.16 613.534 1441.16 611.595C1441.16 608.902 1442.88 607.933 1444.93 607.933C1447.78 607.933 1448.75 609.602 1448.75 611.541C1448.75 614.234 1447.03 615.203 1444.98 615.203Z" fill="black"/>
<path id="Vector_9" d="M1427.05 652.999C1425.16 656.176 1423.33 657.254 1420.75 657.415C1420.15 657.469 1419.72 657.469 1419.72 658.438C1419.72 658.762 1419.99 658.977 1420.37 658.977C1421.34 658.977 1423.76 658.869 1424.73 658.869C1426.29 658.869 1428.02 658.977 1429.53 658.977C1429.85 658.977 1430.5 658.977 1430.5 657.954C1430.5 657.469 1430.06 657.415 1429.74 657.415C1428.5 657.307 1427.48 656.877 1427.48 655.584C1427.48 654.83 1427.8 654.238 1428.5 653.053L1432.6 646.267H1446.33C1446.38 646.751 1446.38 647.182 1446.44 647.667C1446.6 649.067 1447.24 654.668 1447.24 655.692C1447.24 657.307 1444.5 657.415 1443.64 657.415C1443.04 657.415 1442.45 657.415 1442.45 658.385C1442.45 658.977 1442.94 658.977 1443.26 658.977C1444.17 658.977 1445.25 658.869 1446.17 658.869H1449.24C1452.52 658.869 1454.89 658.977 1454.95 658.977C1455.32 658.977 1455.92 658.977 1455.92 657.954C1455.92 657.415 1455.43 657.415 1454.62 657.415C1451.66 657.415 1451.61 656.93 1451.45 655.315L1448.16 621.708C1448.05 620.631 1447.84 620.523 1447.24 620.523C1446.71 620.523 1446.38 620.631 1445.9 621.439L1427.05 652.999ZM1433.51 644.705L1444.34 626.609L1446.17 644.705H1433.51Z" fill="black"/>
</g>
</g>
<path id="Frontier of A:" d="M859.79 657.855H846.312V656.475C847.57 656.475 848.505 656.383 849.118 656.199C849.762 656.015 850.192 655.647 850.406 655.095C850.652 654.513 850.774 653.654 850.774 652.519V632.831C850.774 631.758 850.636 630.961 850.36 630.439C850.084 629.887 849.609 629.519 848.934 629.335C848.29 629.121 847.416 629.013 846.312 629.013V627.633H870.784L871.06 635.177H869.588C869.374 634.073 869.144 633.169 868.898 632.463C868.684 631.758 868.346 631.206 867.886 630.807C867.426 630.409 866.752 630.133 865.862 629.979C865.004 629.795 863.823 629.703 862.32 629.703H855.006V641.341H860.434C861.753 641.341 862.765 641.219 863.47 640.973C864.176 640.728 864.651 640.283 864.896 639.639C865.172 638.965 865.31 638.014 865.31 636.787H866.874V647.459H865.31C865.31 646.202 865.172 645.267 864.896 644.653C864.651 644.04 864.176 643.641 863.47 643.457C862.765 643.243 861.753 643.135 860.434 643.135H855.006V652.795C855.006 653.838 855.144 654.62 855.42 655.141C855.727 655.663 856.233 656.015 856.938 656.199C857.644 656.383 858.594 656.475 859.79 656.475V657.855ZM883.859 657.855H872.359V656.521C873.371 656.521 874.107 656.445 874.567 656.291C875.058 656.107 875.365 655.801 875.487 655.371C875.641 654.911 875.717 654.252 875.717 653.393V640.743C875.717 639.915 875.641 639.302 875.487 638.903C875.365 638.474 874.889 638.259 874.061 638.259C873.601 638.259 873.249 638.275 873.003 638.305C872.758 638.336 872.635 638.351 872.635 638.351V637.063L878.339 635.683H879.443V640.421H879.581C880.379 639.287 881.084 638.351 881.697 637.615C882.311 636.879 882.909 636.327 883.491 635.959C884.105 635.591 884.779 635.407 885.515 635.407C886.405 635.407 887.064 635.637 887.493 636.097C887.953 636.557 888.183 637.186 888.183 637.983C888.183 638.842 887.969 639.471 887.539 639.869C887.141 640.268 886.681 640.467 886.159 640.467C885.669 640.467 885.224 640.345 884.825 640.099C884.457 639.823 884.135 639.563 883.859 639.317C883.583 639.041 883.353 638.903 883.169 638.903C882.648 638.903 882.05 639.302 881.375 640.099C880.701 640.897 880.087 641.755 879.535 642.675V653.163C879.535 654.114 879.658 654.835 879.903 655.325C880.149 655.816 880.578 656.138 881.191 656.291C881.835 656.445 882.725 656.521 883.859 656.521V657.855ZM899.919 658.315C896.699 658.315 894.169 657.319 892.329 655.325C890.519 653.301 889.615 650.434 889.615 646.723C889.615 644.485 890.044 642.537 890.903 640.881C891.761 639.195 892.957 637.891 894.491 636.971C896.055 636.021 897.864 635.545 899.919 635.545C903.077 635.545 905.561 636.527 907.371 638.489C909.211 640.452 910.131 643.135 910.131 646.539C910.131 649.115 909.686 651.277 908.797 653.025C907.938 654.773 906.742 656.092 905.209 656.981C903.675 657.871 901.912 658.315 899.919 658.315ZM900.103 656.475C901.36 656.475 902.418 656.184 903.277 655.601C904.135 655.019 904.779 654.022 905.209 652.611C905.669 651.201 905.899 649.253 905.899 646.769C905.899 643.948 905.377 641.663 904.335 639.915C903.323 638.167 901.789 637.293 899.735 637.293C897.987 637.293 896.576 638.029 895.503 639.501C894.429 640.973 893.893 643.181 893.893 646.125C893.893 649.775 894.429 652.427 895.503 654.083C896.607 655.709 898.14 656.506 900.103 656.475ZM937.21 657.855H926.584V656.567C927.688 656.567 928.47 656.475 928.93 656.291C929.42 656.077 929.712 655.724 929.804 655.233C929.926 654.743 929.988 654.068 929.988 653.209V644.883C929.988 643.043 929.773 641.663 929.344 640.743C928.945 639.823 928.424 639.225 927.78 638.949C927.136 638.643 926.461 638.489 925.756 638.489C924.866 638.489 924.069 638.673 923.364 639.041C922.658 639.379 922.014 639.793 921.432 640.283C920.88 640.774 920.358 641.234 919.868 641.663L919.546 639.409H920.236C921.493 638.305 922.674 637.385 923.778 636.649C924.912 635.913 926.2 635.545 927.642 635.545C929.727 635.545 931.276 636.251 932.288 637.661C933.3 639.072 933.806 641.096 933.806 643.733V653.209C933.806 654.068 933.867 654.743 933.99 655.233C934.143 655.724 934.465 656.077 934.956 656.291C935.446 656.475 936.198 656.567 937.21 656.567V657.855ZM923.686 657.855H913.152V656.567C914.194 656.567 914.93 656.475 915.36 656.291C915.82 656.077 916.096 655.724 916.188 655.233C916.31 654.743 916.372 654.068 916.372 653.209V640.283C916.372 639.455 916.203 638.919 915.866 638.673C915.528 638.397 915.053 638.259 914.44 638.259C914.041 638.259 913.734 638.275 913.52 638.305C913.305 638.336 913.198 638.351 913.198 638.351V637.017L919.04 635.683H920.098L920.052 639.915L920.19 640.881V653.209C920.19 654.068 920.251 654.743 920.374 655.233C920.496 655.724 920.803 656.077 921.294 656.291C921.784 656.475 922.582 656.567 923.686 656.567V657.855ZM951.662 653.715L952.536 654.451C951.953 655.279 951.401 655.985 950.88 656.567C950.389 657.119 949.837 657.549 949.224 657.855C948.61 658.162 947.813 658.315 946.832 658.315C945.298 658.315 944.179 657.871 943.474 656.981C942.768 656.061 942.416 654.574 942.416 652.519V638.259H939.886V637.201C940.959 636.527 941.879 635.622 942.646 634.487C943.443 633.322 944.256 631.758 945.084 629.795H946.234V636.327H951.432V638.259H946.234V651.231C946.234 652.857 946.372 653.991 946.648 654.635C946.954 655.279 947.552 655.601 948.442 655.601C949.178 655.601 949.745 655.448 950.144 655.141C950.573 654.835 951.079 654.359 951.662 653.715ZM964.515 657.855H954.165V656.567C955.208 656.567 955.944 656.475 956.373 656.291C956.833 656.077 957.109 655.724 957.201 655.233C957.324 654.743 957.385 654.068 957.385 653.209V640.375C957.385 639.394 957.217 638.796 956.879 638.581C956.542 638.336 956.036 638.213 955.361 638.213C955.055 638.213 954.779 638.229 954.533 638.259C954.319 638.29 954.211 638.305 954.211 638.305V636.971L960.007 635.683H961.203V653.209C961.203 654.099 961.265 654.789 961.387 655.279C961.51 655.77 961.801 656.107 962.261 656.291C962.752 656.475 963.503 656.567 964.515 656.567V657.855ZM959.363 632.095C958.597 632.095 957.968 631.835 957.477 631.313C956.987 630.792 956.741 630.179 956.741 629.473C956.741 628.768 956.971 628.17 957.431 627.679C957.922 627.158 958.566 626.897 959.363 626.897C960.161 626.897 960.789 627.158 961.249 627.679C961.74 628.17 961.985 628.768 961.985 629.473C961.985 630.179 961.74 630.792 961.249 631.313C960.789 631.835 960.161 632.095 959.363 632.095ZM977.173 658.315C975.333 658.315 973.661 657.886 972.159 657.027C970.687 656.138 969.521 654.85 968.663 653.163C967.804 651.446 967.375 649.361 967.375 646.907C967.375 644.331 967.804 642.215 968.663 640.559C969.552 638.873 970.733 637.615 972.205 636.787C973.677 635.959 975.302 635.545 977.081 635.545C979.595 635.545 981.619 636.419 983.153 638.167C984.686 639.915 985.514 642.399 985.637 645.619H970.687L970.641 643.917H981.313C981.282 642.783 981.083 641.725 980.715 640.743C980.347 639.731 979.81 638.919 979.105 638.305C978.399 637.692 977.495 637.385 976.391 637.385C974.612 637.385 973.278 638.091 972.389 639.501C971.499 640.881 971.055 642.844 971.055 645.389C971.055 647.505 971.392 649.269 972.067 650.679C972.741 652.09 973.631 653.148 974.735 653.853C975.839 654.528 977.019 654.865 978.277 654.865C979.534 654.865 980.546 654.697 981.313 654.359C982.11 654.022 982.785 653.593 983.337 653.071C983.889 652.519 984.41 651.921 984.901 651.277L985.775 651.921C985.376 652.78 984.916 653.608 984.395 654.405C983.873 655.172 983.275 655.847 982.601 656.429C981.957 657.012 981.19 657.472 980.301 657.809C979.411 658.147 978.369 658.315 977.173 658.315ZM999.982 657.855H988.482V656.521C989.494 656.521 990.23 656.445 990.69 656.291C991.181 656.107 991.488 655.801 991.61 655.371C991.764 654.911 991.84 654.252 991.84 653.393V640.743C991.84 639.915 991.764 639.302 991.61 638.903C991.488 638.474 991.012 638.259 990.184 638.259C989.724 638.259 989.372 638.275 989.126 638.305C988.881 638.336 988.758 638.351 988.758 638.351V637.063L994.462 635.683H995.566V640.421H995.704C996.502 639.287 997.207 638.351 997.82 637.615C998.434 636.879 999.032 636.327 999.614 635.959C1000.23 635.591 1000.9 635.407 1001.64 635.407C1002.53 635.407 1003.19 635.637 1003.62 636.097C1004.08 636.557 1004.31 637.186 1004.31 637.983C1004.31 638.842 1004.09 639.471 1003.66 639.869C1003.26 640.268 1002.8 640.467 1002.28 640.467C1001.79 640.467 1001.35 640.345 1000.95 640.099C1000.58 639.823 1000.26 639.563 999.982 639.317C999.706 639.041 999.476 638.903 999.292 638.903C998.771 638.903 998.173 639.302 997.498 640.099C996.824 640.897 996.21 641.755 995.658 642.675V653.163C995.658 654.114 995.781 654.835 996.026 655.325C996.272 655.816 996.701 656.138 997.314 656.291C997.958 656.445 998.848 656.521 999.982 656.521V657.855ZM1027.32 658.315C1024.1 658.315 1021.57 657.319 1019.73 655.325C1017.92 653.301 1017.01 650.434 1017.01 646.723C1017.01 644.485 1017.44 642.537 1018.3 640.881C1019.16 639.195 1020.36 637.891 1021.89 636.971C1023.45 636.021 1025.26 635.545 1027.32 635.545C1030.48 635.545 1032.96 636.527 1034.77 638.489C1036.61 640.452 1037.53 643.135 1037.53 646.539C1037.53 649.115 1037.08 651.277 1036.2 653.025C1035.34 654.773 1034.14 656.092 1032.61 656.981C1031.07 657.871 1029.31 658.315 1027.32 658.315ZM1027.5 656.475C1028.76 656.475 1029.82 656.184 1030.68 655.601C1031.53 655.019 1032.18 654.022 1032.61 652.611C1033.07 651.201 1033.3 649.253 1033.3 646.769C1033.3 643.948 1032.78 641.663 1031.73 639.915C1030.72 638.167 1029.19 637.293 1027.13 637.293C1025.39 637.293 1023.97 638.029 1022.9 639.501C1021.83 640.973 1021.29 643.181 1021.29 646.125C1021.29 649.775 1021.83 652.427 1022.9 654.083C1024.01 655.709 1025.54 656.506 1027.5 656.475ZM1052.28 657.855H1039.91V656.521C1041.04 656.521 1041.87 656.429 1042.39 656.245C1042.94 656.031 1043.31 655.632 1043.49 655.049C1043.68 654.467 1043.77 653.577 1043.77 652.381V637.753C1043.77 636.005 1043.8 634.579 1043.86 633.475C1043.95 632.341 1044.11 631.39 1044.32 630.623C1044.54 629.857 1044.84 629.121 1045.24 628.415C1045.86 627.342 1046.62 626.514 1047.54 625.931C1048.49 625.349 1049.77 625.057 1051.36 625.057C1052.37 625.057 1053.26 625.18 1054.03 625.425C1054.79 625.671 1055.39 626.039 1055.82 626.529C1056.28 626.989 1056.51 627.572 1056.51 628.277C1056.51 628.952 1056.33 629.458 1055.96 629.795C1055.59 630.102 1055.15 630.255 1054.63 630.255C1054.04 630.255 1053.57 630.071 1053.2 629.703C1052.83 629.305 1052.48 628.891 1052.14 628.461C1051.84 628.032 1051.5 627.649 1051.13 627.311C1050.79 626.943 1050.35 626.759 1049.8 626.759C1048.94 626.759 1048.35 627.158 1048.05 627.955C1047.74 628.722 1047.59 630.071 1047.59 632.003V652.381C1047.59 653.577 1047.71 654.467 1047.96 655.049C1048.2 655.632 1048.66 656.031 1049.34 656.245C1050.01 656.429 1050.99 656.521 1052.28 656.521V657.855ZM1053.2 638.259H1040.27V636.327H1053.2V638.259ZM1073.06 657.855H1063.45L1063.77 656.475C1064.63 656.475 1065.35 656.337 1065.93 656.061C1066.52 655.785 1067.16 655.233 1067.86 654.405C1068.57 653.547 1069.49 652.243 1070.62 650.495L1086.54 627.449H1088.47L1092.11 652.381C1092.41 653.884 1092.81 654.942 1093.3 655.555C1093.79 656.169 1094.73 656.475 1096.11 656.475L1095.83 657.855H1083.55L1083.83 656.475C1084.59 656.475 1085.24 656.414 1085.76 656.291C1086.31 656.169 1086.74 655.923 1087.05 655.555C1087.35 655.187 1087.51 654.62 1087.51 653.853C1087.51 653.485 1087.49 653.148 1087.46 652.841C1087.46 652.504 1087.45 652.197 1087.41 651.921L1086.91 647.321L1086.82 646.401L1085.25 632.647H1085.11L1075.91 646.401L1075.36 647.321L1071.87 652.657C1071.56 653.087 1071.28 653.516 1071.04 653.945C1070.82 654.375 1070.72 654.804 1070.72 655.233C1070.72 655.724 1070.9 656.061 1071.27 656.245C1071.67 656.399 1072.37 656.475 1073.38 656.475L1073.06 657.855ZM1087.41 647.781H1074.53L1075.64 645.941H1087.23L1087.41 647.781ZM1103.64 658.223C1102.72 658.223 1102.03 657.963 1101.57 657.441C1101.14 656.92 1100.92 656.276 1100.92 655.509C1100.92 654.712 1101.17 654.037 1101.66 653.485C1102.15 652.903 1102.82 652.611 1103.68 652.611C1104.57 652.611 1105.26 652.903 1105.75 653.485C1106.24 654.068 1106.49 654.758 1106.49 655.555C1106.49 656.261 1106.24 656.889 1105.75 657.441C1105.26 657.963 1104.56 658.223 1103.64 658.223ZM1103.64 641.479C1102.72 641.479 1102.03 641.219 1101.57 640.697C1101.14 640.176 1100.92 639.532 1100.92 638.765C1100.92 637.968 1101.17 637.293 1101.66 636.741C1102.15 636.159 1102.82 635.867 1103.68 635.867C1104.57 635.867 1105.26 636.159 1105.75 636.741C1106.24 637.324 1106.49 638.014 1106.49 638.811C1106.49 639.517 1106.24 640.145 1105.75 640.697C1105.26 641.219 1104.56 641.479 1103.64 641.479Z" fill="black"/>
</g>
<g id="Group_93">
<rect id="Rectangle 12" x="212.596" y="541.796" width="483" height="322" rx="28.5" stroke="#808080" stroke-width="3"/>
<g id="frontier">
<path id="Vector 83" d="M373.833 709.278C381.95 684.282 363.505 645.837 373.833 634.614C401.249 609.317 491.691 611.485 505.328 616.354C558.718 635.419 561.559 665.314 567.016 687.771C572.033 708.415 558.494 825.33 548.347 833.851C538.201 842.372 416.853 855.357 386.82 843.59C356.787 831.822 338.118 793.679 335.277 775.013C332.437 756.348 363.687 740.522 373.833 709.278Z" stroke="#4D4DC4" stroke-width="5"/>
<g id="&#226;&#136;&#130; A" clip-path="url(#clip1_3_1478)">
<g id="page1_2">
<path id="Vector_10" d="M544.449 600.6C544.097 597.322 542.048 593.399 536.78 593.399C528.526 593.399 520.096 601.771 520.096 611.079C520.096 614.65 522.554 621.382 530.516 621.382C544.331 621.382 550.244 601.244 550.244 593.224C550.244 584.794 545.502 578.296 538.009 578.296C529.521 578.296 527.003 585.731 527.003 587.311C527.003 587.838 527.355 589.126 528.994 589.126C531.043 589.126 531.921 587.253 531.921 586.257C531.921 584.443 530.106 584.443 529.345 584.443C531.745 580.111 536.194 579.701 537.775 579.701C542.926 579.701 546.205 583.799 546.205 590.355C546.205 594.102 545.092 598.434 544.507 600.6H544.449ZM530.692 619.801C525.189 619.801 524.252 615.469 524.252 613.01C524.252 610.435 525.891 604.405 526.769 602.239C527.53 600.483 530.867 594.57 536.955 594.57C542.283 594.57 543.512 599.195 543.512 602.356C543.512 606.688 539.707 619.801 530.692 619.801Z" fill="#3F3F9F"/>
<path id="Vector_11" d="M561.268 613.654C559.219 617.108 557.229 618.279 554.419 618.455C553.775 618.513 553.307 618.513 553.307 619.567C553.307 619.918 553.599 620.152 554.009 620.152C555.063 620.152 557.697 620.035 558.751 620.035C560.449 620.035 562.322 620.152 563.961 620.152C564.312 620.152 565.015 620.152 565.015 619.04C565.015 618.513 564.546 618.455 564.195 618.455C562.849 618.338 561.736 617.869 561.736 616.464C561.736 615.645 562.088 615.001 562.849 613.713L567.298 606.337H582.226C582.284 606.864 582.284 607.332 582.343 607.859C582.518 609.381 583.221 615.469 583.221 616.581C583.221 618.338 580.235 618.455 579.299 618.455C578.655 618.455 578.011 618.455 578.011 619.508C578.011 620.152 578.538 620.152 578.889 620.152C579.884 620.152 581.055 620.035 582.05 620.035H585.387C588.958 620.035 591.534 620.152 591.592 620.152C592.002 620.152 592.646 620.152 592.646 619.04C592.646 618.455 592.119 618.455 591.241 618.455C588.021 618.455 587.963 617.928 587.787 616.172L584.216 579.642C584.099 578.472 583.865 578.354 583.221 578.354C582.635 578.354 582.284 578.472 581.757 579.35L561.268 613.654ZM568.293 604.639L580.06 584.97L582.05 604.639H568.293Z" fill="#3F3F9F"/>
</g>
</g>
</g>
</g>
<g id="open_set">
<ellipse id="Ellipse 1" cx="379.096" cy="689.296" rx="44" ry="28" fill="#F2CAB2"/>
<path id="open set" d="M268.644 634.795C270.514 634.422 272.19 634.506 273.675 635.047C275.187 635.583 276.441 636.469 277.436 637.706C278.46 638.937 279.147 640.43 279.497 642.185C279.859 643.997 279.798 645.715 279.314 647.337C278.825 648.93 277.99 650.293 276.811 651.426C275.625 652.53 274.184 653.252 272.487 653.591C270.646 653.958 268.955 653.877 267.413 653.348C265.895 652.784 264.624 651.886 263.6 650.654C262.599 649.388 261.924 647.878 261.573 646.123C261.211 644.311 261.275 642.608 261.765 641.015C262.283 639.416 263.135 638.064 264.32 636.96C265.505 635.856 266.947 635.134 268.644 634.795ZM268.454 636.314C267.274 636.55 266.397 637.099 265.821 637.962C265.24 638.796 264.903 639.805 264.811 640.99C264.713 642.146 264.784 643.329 265.025 644.537C265.295 645.889 265.781 647.198 266.483 648.463C267.213 649.723 268.099 650.713 269.14 651.433C270.209 652.146 271.377 652.377 272.643 652.124C273.851 651.883 274.731 651.348 275.284 650.52C275.859 649.657 276.193 648.633 276.286 647.448C276.378 646.263 276.306 645.081 276.071 643.901C275.795 642.521 275.295 641.215 274.571 639.983C273.84 638.723 272.955 637.734 271.914 637.014C270.873 636.295 269.719 636.061 268.454 636.314ZM291.653 630.245C292.948 629.987 294.124 630.036 295.183 630.393C296.27 630.744 297.204 631.305 297.987 632.076C298.798 632.842 299.447 633.699 299.936 634.649C300.448 635.563 300.796 636.481 300.979 637.401C301.249 638.753 301.22 640.105 300.892 641.457C300.558 642.78 300.011 644.011 299.251 645.15C298.486 646.26 297.568 647.206 296.498 647.988C295.456 648.764 294.346 649.27 293.167 649.506C292.62 649.615 292.062 649.667 291.492 649.661C290.929 649.684 290.463 649.672 290.095 649.626C290.095 649.626 290.074 649.675 290.034 649.773C290 649.899 290 650.049 290.034 650.221L290.844 654.277C290.97 654.91 291.088 655.5 291.197 656.046C291.341 656.616 291.505 657.062 291.689 657.384C291.775 657.516 291.999 657.591 292.362 657.608C292.759 657.649 293.161 657.643 293.57 657.591C294.013 657.563 294.321 657.531 294.493 657.497C294.602 657.595 294.686 657.787 294.743 658.075C294.835 658.386 294.835 658.61 294.743 658.748C293.869 658.863 293.095 658.958 292.422 659.032C291.754 659.136 291.004 659.271 290.169 659.437C289.364 659.598 288.633 659.759 287.977 659.92C287.356 660.104 286.62 660.311 285.768 660.54C285.63 660.448 285.53 660.244 285.466 659.928C285.438 659.634 285.455 659.421 285.518 659.289C285.691 659.255 285.973 659.168 286.364 659.03C286.761 658.921 287.135 658.772 287.486 658.582C287.843 658.421 288.021 658.266 288.021 658.116C288.067 657.748 288.033 657.276 287.918 656.701C287.838 656.149 287.734 655.556 287.608 654.923L284.17 637.707C284.112 637.42 284.023 637.049 283.903 636.594C283.811 636.134 283.681 635.786 283.515 635.55C283.377 635.308 283.098 635.184 282.678 635.179C282.252 635.144 281.838 635.167 281.435 635.247C281.027 635.299 280.765 635.336 280.65 635.359C280.61 635.307 280.546 635.141 280.46 634.859C280.374 634.577 280.362 634.37 280.426 634.237C281.49 633.875 282.511 633.447 283.489 632.953C284.496 632.452 285.371 631.889 286.113 631.262C286.228 631.239 286.346 631.305 286.467 631.461C286.588 631.616 286.66 631.751 286.683 631.866C286.682 632.016 286.682 632.315 286.682 632.764C286.676 633.184 286.691 633.48 286.725 633.652C286.748 633.767 286.788 633.819 286.846 633.808C286.875 633.802 286.912 633.765 286.958 633.696C287.24 633.31 287.646 632.87 288.175 632.376C288.705 631.881 289.274 631.438 289.884 631.047C290.517 630.622 291.107 630.354 291.653 630.245ZM290.341 633.11C289.766 633.225 289.225 633.437 288.718 633.748C288.206 634.03 287.789 634.337 287.467 634.671C287.173 634.999 287.047 635.263 287.087 635.465L289.103 645.561C289.247 646.28 289.581 646.827 290.104 647.201C290.656 647.569 291.257 647.808 291.907 647.918C292.58 647.993 293.161 647.981 293.65 647.884C294.83 647.648 295.753 647.105 296.421 646.254C297.111 645.368 297.563 644.335 297.776 643.156C297.99 641.977 297.984 640.826 297.76 639.705C297.26 637.202 296.303 635.404 294.888 634.311C293.467 633.188 291.952 632.788 290.341 633.11ZM307.152 635.496C307.479 637.285 308.08 638.72 308.954 639.802C309.828 640.884 310.858 641.621 312.043 642.012C313.222 642.375 314.43 642.433 315.667 642.186C316.443 642.031 317.122 641.761 317.703 641.375C318.279 640.961 318.748 640.539 319.11 640.107C319.467 639.647 319.712 639.299 319.844 639.063C319.873 639.058 319.942 639.104 320.051 639.201C320.184 639.265 320.267 639.383 320.301 639.555C320.347 639.785 320.313 640.061 320.198 640.384C320.019 640.838 319.714 641.407 319.282 642.092C318.845 642.748 318.252 643.374 317.504 643.973C316.756 644.571 315.836 644.979 314.743 645.197C313.103 645.525 311.573 645.426 310.152 644.902C308.731 644.378 307.529 643.527 306.546 642.347C305.562 641.168 304.907 639.758 304.58 638.118C304.298 636.709 304.281 635.351 304.529 634.045C304.8 632.705 305.249 631.509 305.876 630.456C306.526 629.369 307.289 628.469 308.164 627.756C309.038 627.043 309.936 626.594 310.856 626.41C312.122 626.158 313.201 626.167 314.092 626.437C315.013 626.702 315.766 627.105 316.353 627.646C316.968 628.181 317.425 628.748 317.724 629.346C318.052 629.939 318.259 630.451 318.345 630.882C318.466 631.487 318.489 631.975 318.414 632.349C318.339 632.723 318.103 632.965 317.706 633.074C317.453 633.155 316.941 633.287 316.17 633.471C315.422 633.62 314.562 633.807 313.589 634.031C312.617 634.255 311.659 634.476 310.716 634.694C309.772 634.913 308.973 635.102 308.317 635.263C307.655 635.395 307.267 635.473 307.152 635.496ZM307.057 633.899L313.918 632.529C314.177 632.478 314.378 632.363 314.522 632.184C314.695 632 314.758 631.718 314.712 631.339C314.672 630.988 314.474 630.519 314.117 629.932C313.761 629.345 313.272 628.845 312.651 628.43C312.058 628.01 311.33 627.886 310.467 628.058C309.576 628.237 308.894 628.642 308.422 629.275C307.944 629.878 307.599 630.546 307.386 631.276C307.196 631.972 307.081 632.594 307.04 633.14C307.023 633.652 307.029 633.905 307.057 633.899ZM332.557 622.077C334.082 621.772 335.296 621.859 336.199 622.337C337.102 622.814 337.815 623.689 338.338 624.96C338.89 626.226 339.37 627.88 339.778 629.923L340.708 634.583C340.835 635.215 340.952 635.805 341.062 636.352C341.199 636.892 341.36 637.324 341.544 637.646C341.631 637.778 341.858 637.868 342.226 637.914C342.623 637.954 343.029 637.963 343.443 637.94C343.851 637.888 344.142 637.845 344.314 637.811C344.424 637.909 344.507 638.101 344.564 638.389C344.651 638.671 344.648 638.881 344.556 639.019C343.681 639.134 342.91 639.243 342.243 639.346C341.599 639.415 340.859 639.533 340.025 639.699C339.22 639.86 338.492 640.036 337.842 640.225C337.186 640.386 336.432 640.581 335.581 640.811C335.443 640.719 335.345 640.529 335.288 640.242C335.259 639.948 335.276 639.735 335.34 639.603C335.512 639.569 335.797 639.497 336.194 639.388C336.614 639.244 336.999 639.077 337.35 638.888C337.701 638.698 337.877 638.528 337.877 638.379C337.923 638.01 337.891 637.553 337.782 637.007C337.702 636.454 337.599 635.862 337.472 635.229L336.628 631C336.277 629.246 335.889 627.902 335.464 626.97C335.033 626.009 334.472 625.374 333.782 625.063C333.092 624.752 332.2 624.706 331.107 624.924C330.589 625.027 330.048 625.315 329.484 625.786C328.943 626.223 328.48 626.675 328.095 627.141C327.709 627.607 327.531 627.911 327.559 628.055L329.317 636.857C329.444 637.49 329.561 638.08 329.67 638.626C329.808 639.167 329.969 639.599 330.153 639.921C330.24 640.053 330.467 640.143 330.835 640.189C331.232 640.229 331.637 640.238 332.052 640.215C332.46 640.163 332.751 640.12 332.923 640.086C333.033 640.184 333.116 640.376 333.173 640.664C333.26 640.946 333.257 641.156 333.165 641.294C332.29 641.409 331.519 641.518 330.852 641.621C330.207 641.69 329.468 641.808 328.634 641.974C327.829 642.135 327.101 642.31 326.451 642.5C325.795 642.661 325.041 642.856 324.19 643.086C324.052 642.994 323.954 642.804 323.896 642.517C323.868 642.223 323.885 642.01 323.948 641.878C324.121 641.844 324.406 641.772 324.803 641.663C325.223 641.519 325.608 641.352 325.959 641.162C326.31 640.973 326.486 640.803 326.486 640.653C326.532 640.285 326.5 639.828 326.391 639.281C326.311 638.729 326.207 638.136 326.081 637.504L324.547 629.823C324.49 629.536 324.395 629.136 324.263 628.624C324.159 628.106 324.024 627.729 323.858 627.493C323.72 627.252 323.441 627.128 323.021 627.122C322.595 627.087 322.181 627.11 321.778 627.191C321.37 627.242 321.108 627.28 320.993 627.303C320.953 627.251 320.889 627.084 320.803 626.802C320.717 626.52 320.705 626.313 320.769 626.181C321.833 625.819 322.854 625.39 323.832 624.896C324.811 624.401 325.671 623.841 326.413 623.214C326.528 623.191 326.646 623.257 326.767 623.413C326.916 623.562 327.003 623.694 327.026 623.81C327.043 623.896 327.06 624.132 327.077 624.517C327.117 624.868 327.143 625.222 327.155 625.579C327.195 625.929 327.226 626.162 327.249 626.278C327.272 626.393 327.312 626.444 327.37 626.433C327.399 626.427 327.436 626.39 327.482 626.321C327.707 625.947 328.086 625.452 328.622 624.837C329.186 624.216 329.819 623.641 330.521 623.112C331.217 622.554 331.896 622.209 332.557 622.077ZM292.342 670.942C293.177 670.776 293.881 670.71 294.457 670.745C295.055 670.745 295.826 670.71 296.769 670.642C297.039 671.246 297.304 671.971 297.563 672.816C297.815 673.633 298.031 674.413 298.209 675.155C298.238 675.299 298.108 675.4 297.821 675.457C297.706 675.48 297.573 675.491 297.424 675.491C297.303 675.486 297.176 675.451 297.044 675.388C296.797 674.899 296.44 674.387 295.974 673.851C295.537 673.311 295.034 672.888 294.465 672.583C293.918 672.243 293.343 672.133 292.739 672.254C291.732 672.455 291.036 672.863 290.65 673.479C290.259 674.066 290.138 674.733 290.287 675.481C290.431 676.2 290.721 676.755 291.158 677.146C291.59 677.509 292.113 677.808 292.729 678.044C293.367 678.246 294.04 678.47 294.748 678.718C295.455 678.965 296.229 679.245 297.069 679.556C297.909 679.866 298.665 680.284 299.338 680.807C300.005 681.302 300.428 681.996 300.606 682.887C300.83 684.009 300.729 685.076 300.303 686.089C299.871 687.072 299.218 687.921 298.343 688.634C297.463 689.318 296.447 689.775 295.297 690.005C294.319 690.2 293.464 690.266 292.734 690.203C292.009 690.168 291.169 690.156 290.214 690.167C290.036 689.874 289.835 689.465 289.61 688.942C289.386 688.418 289.174 687.878 288.972 687.319C288.8 686.756 288.679 686.301 288.61 685.956C288.806 685.737 289.048 685.599 289.335 685.542C289.479 685.513 289.6 685.519 289.698 685.559C289.985 686.1 290.408 686.644 290.966 687.191C291.518 687.709 292.153 688.12 292.872 688.425C293.586 688.701 294.316 688.765 295.064 688.616C295.927 688.443 296.595 688.041 297.066 687.408C297.538 686.775 297.677 685.97 297.481 684.992C297.309 684.129 296.912 683.49 296.291 683.076C295.664 682.633 294.922 682.288 294.065 682.04C293.202 681.764 292.308 681.479 291.382 681.185C290.45 680.862 289.584 680.422 288.785 679.864C288.008 679.271 287.508 678.414 287.284 677.292C287.077 676.256 287.184 675.293 287.604 674.401C288.053 673.504 288.698 672.762 289.538 672.176C290.372 671.56 291.307 671.149 292.342 670.942ZM305.947 676.526C306.274 678.315 306.875 679.751 307.749 680.833C308.623 681.914 309.653 682.651 310.838 683.043C312.017 683.405 313.225 683.463 314.462 683.216C315.239 683.061 315.917 682.791 316.499 682.406C317.074 681.992 317.543 681.569 317.905 681.138C318.262 680.678 318.507 680.33 318.639 680.094C318.668 680.088 318.737 680.134 318.846 680.232C318.979 680.295 319.062 680.413 319.096 680.586C319.142 680.816 319.108 681.092 318.993 681.414C318.814 681.868 318.509 682.438 318.078 683.122C317.64 683.778 317.047 684.405 316.299 685.003C315.551 685.601 314.631 686.009 313.538 686.228C311.898 686.555 310.368 686.457 308.947 685.933C307.526 685.409 306.324 684.557 305.341 683.378C304.357 682.198 303.702 680.788 303.375 679.149C303.093 677.739 303.076 676.382 303.324 675.076C303.595 673.736 304.044 672.539 304.671 671.486C305.322 670.399 306.084 669.499 306.959 668.786C307.833 668.073 308.731 667.625 309.651 667.441C310.917 667.188 311.996 667.197 312.887 667.468C313.808 667.733 314.561 668.135 315.148 668.676C315.763 669.212 316.22 669.778 316.519 670.377C316.847 670.969 317.054 671.481 317.14 671.913C317.261 672.517 317.284 673.006 317.209 673.38C317.134 673.754 316.898 673.995 316.501 674.104C316.248 674.185 315.736 674.317 314.965 674.501C314.217 674.65 313.357 674.837 312.385 675.061C311.412 675.285 310.454 675.506 309.511 675.725C308.567 675.943 307.768 676.133 307.112 676.294C306.45 676.426 306.062 676.503 305.947 676.526ZM305.852 674.93L312.713 673.56C312.972 673.508 313.173 673.393 313.317 673.215C313.49 673.031 313.553 672.749 313.507 672.369C313.467 672.018 313.269 671.549 312.912 670.962C312.556 670.376 312.067 669.875 311.446 669.461C310.853 669.04 310.126 668.917 309.263 669.089C308.371 669.267 307.689 669.672 307.217 670.305C306.739 670.909 306.394 671.576 306.181 672.307C305.991 673.003 305.876 673.624 305.835 674.17C305.818 674.682 305.824 674.936 305.852 674.93ZM324.544 664.736L329.98 663.65C330.124 663.622 330.228 663.765 330.291 664.082C330.377 664.513 330.259 664.971 329.937 665.454L324.888 666.462L327.094 677.508C327.554 679.809 328.718 680.773 330.588 680.4C331.221 680.273 331.77 680.029 332.237 679.667C332.703 679.304 332.996 679.051 333.117 678.908C333.209 678.919 333.269 678.997 333.298 679.141C333.361 679.457 333.347 679.684 333.255 679.822C333.099 680.093 332.843 680.458 332.486 680.918C332.158 681.372 331.735 681.801 331.218 682.203C330.7 682.606 330.096 682.876 329.405 683.014C328.686 683.158 327.955 683.169 327.213 683.048C326.5 682.921 325.862 682.57 325.298 681.994C324.734 681.419 324.332 680.527 324.091 679.319L321.652 667.108L319.193 667.599C319.135 667.611 319.083 667.576 319.037 667.496C318.986 667.386 318.954 667.303 318.943 667.246C318.931 667.188 318.992 667.041 319.124 666.805C319.251 666.541 319.38 666.291 319.512 666.055C319.674 665.813 319.754 665.693 319.754 665.693L321.308 665.382L320.782 662.75C321.006 662.376 321.265 661.951 321.559 661.473C321.875 660.961 322.157 660.501 322.405 660.093C322.647 659.656 322.779 659.42 322.802 659.386C322.894 659.247 323.012 659.164 323.156 659.135C323.329 659.101 323.423 659.127 323.441 659.213L324.544 664.736Z" fill="black"/>
<path id="U" d="M369.232 703.824C366.035 703.824 363.717 703.223 362.28 702.02C360.843 700.788 360.124 698.867 360.124 696.256C360.124 695.669 360.168 695.053 360.256 694.408C360.344 693.733 360.461 693.029 360.608 692.296L363.248 679.58C363.307 679.257 363.351 678.949 363.38 678.656C363.439 678.363 363.468 678.113 363.468 677.908C363.468 677.057 363.189 676.485 362.632 676.192C362.075 675.869 361.107 675.708 359.728 675.708L359.992 674.388H372.62L372.356 675.708C371.124 675.708 370.171 675.825 369.496 676.06C368.851 676.265 368.367 676.661 368.044 677.248C367.751 677.835 367.487 678.685 367.252 679.8L364.656 692.252C364.539 692.839 364.436 693.44 364.348 694.056C364.289 694.643 364.26 695.141 364.26 695.552C364.26 697.429 364.744 698.823 365.712 699.732C366.709 700.612 368.44 701.052 370.904 701.052C373.779 701.052 375.935 700.377 377.372 699.028C378.839 697.649 379.88 695.449 380.496 692.428L382.74 681.34C382.887 680.607 383.004 679.961 383.092 679.404C383.18 678.847 383.224 678.377 383.224 677.996C383.224 677.087 382.975 676.485 382.476 676.192C381.977 675.869 381.083 675.708 379.792 675.708L380.012 674.388H390.792L390.572 675.708C389.311 675.708 388.343 675.855 387.668 676.148C387.023 676.441 386.539 676.984 386.216 677.776C385.893 678.539 385.571 679.683 385.248 681.208L383.092 691.812C382.271 695.801 380.789 698.808 378.648 700.832C376.536 702.827 373.397 703.824 369.232 703.824Z" fill="black"/>
</g>
<g id="U___overline_A___implies_U__text__intersects___mathring_A_" clip-path="url(#clip2_3_1478)">
<g id="page1_3">
<path id="Vector_12" d="M914.22 766.863C912.417 774.075 906.441 778.299 901.599 778.299C897.89 778.299 895.365 775.827 895.365 771.551C895.365 771.345 895.365 769.799 895.932 767.533L900.981 747.287C901.444 745.535 901.547 745.02 905.205 745.02C906.132 745.02 906.647 745.02 906.647 744.093C906.647 743.526 906.184 743.526 905.875 743.526C904.947 743.526 903.865 743.629 902.887 743.629H896.808C895.829 743.629 894.747 743.526 893.768 743.526C893.408 743.526 892.79 743.526 892.79 744.505C892.79 745.02 893.15 745.02 894.129 745.02C897.22 745.02 897.22 745.432 897.22 745.999C897.22 746.308 896.859 747.802 896.602 748.678L892.12 766.708C891.965 767.275 891.656 768.666 891.656 770.057C891.656 775.724 895.726 779.793 901.341 779.793C906.544 779.793 912.314 775.672 914.941 769.13C915.302 768.254 915.766 766.451 916.075 765.06C916.59 763.205 917.672 758.672 918.032 757.333L919.99 749.605C920.66 746.926 921.072 745.226 925.605 745.02C926.017 744.969 926.223 744.557 926.223 744.093C926.223 743.526 925.76 743.526 925.554 743.526C924.832 743.526 923.905 743.629 923.184 743.629H920.763C917.569 743.629 915.92 743.526 915.869 743.526C915.559 743.526 914.941 743.526 914.941 744.505C914.941 745.02 915.353 745.02 915.714 745.02C918.805 745.123 919.011 746.308 919.011 747.235C919.011 747.699 919.011 747.854 918.805 748.575L914.22 766.863Z" fill="black"/>
<path id="Vector_13" d="M976.052 748.008C976.928 748.008 977.855 748.008 977.855 746.978C977.855 745.947 976.928 745.947 976.052 745.947H962.194C953.334 745.947 946.379 752.696 946.379 760.835C946.379 769.129 953.488 775.775 962.194 775.775H976.052C976.928 775.775 977.855 775.775 977.855 774.744C977.855 773.714 976.928 773.714 976.052 773.714H962.297C954.158 773.714 948.44 767.687 948.44 760.887C948.44 753.881 954.312 748.008 962.297 748.008H976.052ZM949.212 783.708C948.336 783.708 947.409 783.708 947.409 784.739C947.409 785.769 948.336 785.769 949.212 785.769H976.052C976.928 785.769 977.855 785.769 977.855 784.739C977.855 783.708 976.928 783.708 976.052 783.708H949.212Z" fill="black"/>
<path id="Vector_14" d="M1034.29 735.267H996.479V737.327H1034.29V735.267Z" fill="black"/>
<path id="Vector_15" d="M1005.24 772.993C1003.43 776.032 1001.68 777.062 999.209 777.217C998.643 777.268 998.23 777.268 998.23 778.196C998.23 778.505 998.488 778.711 998.849 778.711C999.776 778.711 1002.09 778.608 1003.02 778.608C1004.52 778.608 1006.16 778.711 1007.61 778.711C1007.92 778.711 1008.53 778.711 1008.53 777.732C1008.53 777.268 1008.12 777.217 1007.81 777.217C1006.63 777.114 1005.65 776.702 1005.65 775.465C1005.65 774.744 1005.96 774.177 1006.63 773.044L1010.54 766.553H1023.68C1023.73 767.017 1023.73 767.429 1023.78 767.893C1023.94 769.232 1024.55 774.59 1024.55 775.568C1024.55 777.114 1021.93 777.217 1021.1 777.217C1020.54 777.217 1019.97 777.217 1019.97 778.144C1019.97 778.711 1020.43 778.711 1020.74 778.711C1021.62 778.711 1022.65 778.608 1023.52 778.608H1026.46C1029.6 778.608 1031.87 778.711 1031.92 778.711C1032.28 778.711 1032.85 778.711 1032.85 777.732C1032.85 777.217 1032.39 777.217 1031.61 777.217C1028.78 777.217 1028.73 776.753 1028.57 775.208L1025.43 743.062C1025.33 742.032 1025.12 741.929 1024.55 741.929C1024.04 741.929 1023.73 742.032 1023.27 742.804L1005.24 772.993ZM1011.42 765.059L1021.77 747.75L1023.52 765.059H1011.42Z" fill="black"/>
<path id="Vector_16" d="M1097.69 762.02C1098.41 762.02 1099.33 762.02 1099.33 761.093C1099.33 760.114 1098.46 760.114 1097.69 760.114H1067.34C1066.62 760.114 1065.69 760.114 1065.69 761.041C1065.69 762.02 1066.57 762.02 1067.34 762.02H1097.69ZM1097.69 771.602C1098.41 771.602 1099.33 771.602 1099.33 770.674C1099.33 769.696 1098.46 769.696 1097.69 769.696H1067.34C1066.62 769.696 1065.69 769.696 1065.69 770.623C1065.69 771.602 1066.57 771.602 1067.34 771.602H1097.69Z" fill="black"/>
<path id="Vector_17" d="M1130.96 761.866C1133.12 763.72 1135.75 765.06 1137.45 765.832C1135.59 766.657 1133.07 767.996 1130.96 769.799H1098.25C1097.37 769.799 1096.39 769.799 1096.39 770.829C1096.39 771.86 1097.32 771.86 1098.19 771.86H1128.64C1126.17 774.229 1123.49 778.763 1123.49 779.432C1123.49 779.999 1124.16 779.999 1124.47 779.999C1124.88 779.999 1125.24 779.999 1125.45 779.587C1126.53 777.629 1127.97 774.899 1131.32 771.911C1134.87 768.769 1138.33 767.378 1141 766.605C1141.88 766.296 1141.93 766.244 1142.03 766.141C1142.14 766.09 1142.14 765.935 1142.14 765.832C1142.14 765.729 1142.14 765.626 1142.09 765.523L1141.93 765.42C1141.83 765.369 1141.78 765.317 1140.8 765.008C1133.84 762.947 1128.69 758.26 1125.81 752.747C1125.24 751.717 1125.19 751.666 1124.47 751.666C1124.16 751.666 1123.49 751.666 1123.49 752.232C1123.49 752.902 1126.12 757.384 1128.64 759.805H1098.19C1097.32 759.805 1096.39 759.805 1096.39 760.835C1096.39 761.866 1097.37 761.866 1098.25 761.866H1130.96Z" fill="black"/>
<path id="Vector_18" d="M1199.76 766.863C1197.96 774.075 1191.98 778.299 1187.14 778.299C1183.43 778.299 1180.91 775.827 1180.91 771.551C1180.91 771.345 1180.91 769.799 1181.47 767.533L1186.52 747.287C1186.99 745.535 1187.09 745.02 1190.75 745.02C1191.67 745.02 1192.19 745.02 1192.19 744.093C1192.19 743.526 1191.73 743.526 1191.42 743.526C1190.49 743.526 1189.41 743.629 1188.43 743.629H1182.35C1181.37 743.629 1180.29 743.526 1179.31 743.526C1178.95 743.526 1178.33 743.526 1178.33 744.505C1178.33 745.02 1178.69 745.02 1179.67 745.02C1182.76 745.02 1182.76 745.432 1182.76 745.999C1182.76 746.308 1182.4 747.802 1182.14 748.678L1177.66 766.708C1177.51 767.275 1177.2 768.666 1177.2 770.057C1177.2 775.724 1181.27 779.793 1186.88 779.793C1192.09 779.793 1197.86 775.672 1200.48 769.13C1200.84 768.254 1201.31 766.451 1201.62 765.06C1202.13 763.205 1203.21 758.672 1203.57 757.333L1205.53 749.605C1206.2 746.926 1206.61 745.226 1211.15 745.02C1211.56 744.969 1211.77 744.557 1211.77 744.093C1211.77 743.526 1211.3 743.526 1211.1 743.526C1210.37 743.526 1209.45 743.629 1208.73 743.629H1206.3C1203.11 743.629 1201.46 743.526 1201.41 743.526C1201.1 743.526 1200.48 743.526 1200.48 744.505C1200.48 745.02 1200.9 745.02 1201.26 745.02C1204.35 745.123 1204.55 746.308 1204.55 747.235C1204.55 747.699 1204.55 747.854 1204.35 748.575L1199.76 766.863Z" fill="black"/>
<path id="Vector_19" d="M1239.11 746.978C1239.11 745.638 1238.03 744.454 1236.59 744.454C1235.25 744.454 1234.12 745.535 1234.12 746.926C1234.12 748.472 1235.35 749.451 1236.59 749.451C1238.19 749.451 1239.11 748.111 1239.11 746.978ZM1232 756.56V758.054C1235.3 758.054 1235.76 758.363 1235.76 760.887V774.899C1235.76 777.218 1235.2 777.218 1231.85 777.218V778.711C1233.29 778.608 1235.76 778.608 1237.26 778.608C1237.82 778.608 1240.81 778.608 1242.56 778.711V777.218C1239.22 777.218 1239.01 776.96 1239.01 774.951V755.993L1232 756.56Z" fill="black"/>
<path id="Vector_20" d="M1267.08 766.193C1267.08 761.402 1267.08 759.959 1265.9 758.311C1264.4 756.302 1261.98 755.993 1260.23 755.993C1255.23 755.993 1253.28 760.268 1252.87 761.299H1252.81V755.993L1245.81 756.559V758.053C1249.31 758.053 1249.72 758.414 1249.72 760.938V774.899C1249.72 777.217 1249.16 777.217 1245.81 777.217V778.711C1247.15 778.608 1249.93 778.608 1251.37 778.608C1252.87 778.608 1255.65 778.608 1256.99 778.711V777.217C1253.69 777.217 1253.07 777.217 1253.07 774.899V765.317C1253.07 759.908 1256.63 757.023 1259.82 757.023C1263.01 757.023 1263.74 759.65 1263.74 762.793V774.899C1263.74 777.217 1263.17 777.217 1259.82 777.217V778.711C1261.16 778.608 1263.94 778.608 1265.38 778.608C1266.88 778.608 1269.66 778.608 1271 778.711V777.217C1268.42 777.217 1267.14 777.217 1267.08 775.672V766.193Z" fill="black"/>
<path id="Vector_21" d="M1279.44 758.002H1286.7V756.508H1279.44V747.029H1278.3C1278.25 751.871 1276.4 756.817 1271.71 756.971V758.002H1276.09V772.323C1276.09 778.041 1279.9 779.226 1282.63 779.226C1285.88 779.226 1287.58 776.032 1287.58 772.323V769.387H1286.44V772.22C1286.44 775.929 1284.95 778.093 1282.94 778.093C1279.44 778.093 1279.44 773.302 1279.44 772.426V758.002Z" fill="black"/>
<path id="Vector_22" d="M1310.13 766.759C1311.26 766.759 1311.36 766.759 1311.36 765.78C1311.36 760.577 1308.58 755.735 1302.35 755.735C1296.47 755.735 1291.94 761.041 1291.94 767.429C1291.94 774.229 1297.2 779.226 1302.91 779.226C1309.04 779.226 1311.36 773.662 1311.36 772.58C1311.36 772.271 1311.11 772.065 1310.8 772.065C1310.38 772.065 1310.28 772.323 1310.18 772.58C1308.84 776.908 1305.39 778.093 1303.22 778.093C1301.06 778.093 1295.86 776.65 1295.86 767.738V766.759H1310.13ZM1295.91 765.78C1296.32 757.692 1300.85 756.765 1302.3 756.765C1307.81 756.765 1308.12 764.029 1308.17 765.78H1295.91Z" fill="black"/>
<path id="Vector_23" d="M1321.42 766.708C1321.42 761.711 1323.48 757.023 1327.45 757.023C1327.86 757.023 1327.96 757.023 1328.17 757.075C1327.75 757.281 1326.93 757.59 1326.93 758.981C1326.93 760.475 1328.12 761.041 1328.94 761.041C1329.97 761.041 1331 760.372 1331 758.981C1331 757.435 1329.61 755.993 1327.39 755.993C1323.02 755.993 1321.52 760.732 1321.21 761.711H1321.16V755.993L1314.26 756.559V758.053C1317.76 758.053 1318.17 758.414 1318.17 760.938V774.899C1318.17 777.217 1317.61 777.217 1314.26 777.217V778.711C1315.7 778.608 1318.53 778.608 1320.08 778.608C1321.47 778.608 1325.13 778.608 1326.31 778.711V777.217H1325.28C1321.52 777.217 1321.42 776.65 1321.42 774.796V766.708Z" fill="black"/>
<path id="Vector_24" d="M1349.33 756.92C1349.33 755.992 1349.33 755.735 1348.81 755.735C1348.4 755.735 1347.42 756.868 1347.06 757.332C1345.47 756.044 1343.87 755.735 1342.22 755.735C1335.99 755.735 1334.13 759.135 1334.13 761.968C1334.13 762.535 1334.13 764.338 1336.09 766.141C1337.74 767.583 1339.49 767.944 1341.86 768.408C1344.69 768.974 1345.36 769.129 1346.65 770.159C1347.58 770.932 1348.25 772.065 1348.25 773.508C1348.25 775.723 1346.96 778.196 1342.43 778.196C1339.03 778.196 1336.55 776.238 1335.42 771.087C1335.21 770.159 1335.21 770.108 1335.16 770.056C1335.06 769.85 1334.85 769.85 1334.7 769.85C1334.13 769.85 1334.13 770.108 1334.13 771.035V778.041C1334.13 778.968 1334.13 779.226 1334.65 779.226C1334.91 779.226 1334.96 779.174 1335.83 778.093C1336.09 777.732 1336.09 777.629 1336.86 776.805C1338.82 779.226 1341.6 779.226 1342.48 779.226C1347.89 779.226 1350.57 776.238 1350.57 772.168C1350.57 769.387 1348.87 767.738 1348.4 767.274C1346.55 765.677 1345.16 765.368 1341.76 764.75C1340.21 764.441 1336.45 763.72 1336.45 760.629C1336.45 759.032 1337.53 756.662 1342.17 756.662C1347.78 756.662 1348.09 761.453 1348.2 763.05C1348.25 763.462 1348.61 763.462 1348.76 763.462C1349.33 763.462 1349.33 763.205 1349.33 762.277V756.92Z" fill="black"/>
<path id="Vector_25" d="M1372.06 766.759C1373.19 766.759 1373.3 766.759 1373.3 765.78C1373.3 760.577 1370.52 755.735 1364.28 755.735C1358.41 755.735 1353.88 761.041 1353.88 767.429C1353.88 774.229 1359.13 779.226 1364.85 779.226C1370.98 779.226 1373.3 773.662 1373.3 772.58C1373.3 772.271 1373.04 772.065 1372.73 772.065C1372.32 772.065 1372.22 772.323 1372.11 772.58C1370.77 776.908 1367.32 778.093 1365.16 778.093C1362.99 778.093 1357.79 776.65 1357.79 767.738V766.759H1372.06ZM1357.84 765.78C1358.25 757.692 1362.79 756.765 1364.23 756.765C1369.74 756.765 1370.05 764.029 1370.1 765.78H1357.84Z" fill="black"/>
<path id="Vector_26" d="M1393.4 759.65C1392.78 759.65 1390.87 759.65 1390.87 761.762C1390.87 762.999 1391.75 763.874 1392.99 763.874C1394.17 763.874 1395.15 763.153 1395.15 761.659C1395.15 758.208 1391.54 755.735 1387.37 755.735C1381.34 755.735 1376.55 761.092 1376.55 767.583C1376.55 774.177 1381.5 779.226 1387.32 779.226C1394.12 779.226 1395.66 773.044 1395.66 772.58C1395.66 772.117 1395.3 772.117 1395.15 772.117C1394.69 772.117 1394.63 772.271 1394.48 772.89C1393.35 776.547 1390.56 778.093 1387.78 778.093C1384.64 778.093 1380.47 775.362 1380.47 767.532C1380.47 758.98 1384.85 756.868 1387.42 756.868C1389.38 756.868 1392.21 757.641 1393.4 759.65Z" fill="black"/>
<path id="Vector_27" d="M1405.82 758.002H1413.08V756.508H1405.82V747.029H1404.69C1404.64 751.871 1402.78 756.817 1398.09 756.971V758.002H1402.47V772.323C1402.47 778.041 1406.28 779.226 1409.02 779.226C1412.26 779.226 1413.96 776.032 1413.96 772.323V769.387H1412.83V772.22C1412.83 775.929 1411.33 778.093 1409.32 778.093C1405.82 778.093 1405.82 773.302 1405.82 772.426V758.002Z" fill="black"/>
<path id="Vector_28" d="M1433.68 756.92C1433.68 755.992 1433.68 755.735 1433.16 755.735C1432.75 755.735 1431.77 756.868 1431.41 757.332C1429.82 756.044 1428.22 755.735 1426.57 755.735C1420.34 755.735 1418.48 759.135 1418.48 761.968C1418.48 762.535 1418.48 764.338 1420.44 766.141C1422.09 767.583 1423.84 767.944 1426.21 768.408C1429.04 768.974 1429.71 769.129 1431 770.159C1431.93 770.932 1432.6 772.065 1432.6 773.508C1432.6 775.723 1431.31 778.196 1426.78 778.196C1423.38 778.196 1420.9 776.238 1419.77 771.087C1419.56 770.159 1419.56 770.108 1419.51 770.056C1419.41 769.85 1419.2 769.85 1419.05 769.85C1418.48 769.85 1418.48 770.108 1418.48 771.035V778.041C1418.48 778.968 1418.48 779.226 1419 779.226C1419.26 779.226 1419.31 779.174 1420.18 778.093C1420.44 777.732 1420.44 777.629 1421.21 776.805C1423.17 779.226 1425.95 779.226 1426.83 779.226C1432.24 779.226 1434.92 776.238 1434.92 772.168C1434.92 769.387 1433.22 767.738 1432.75 767.274C1430.9 765.677 1429.51 765.368 1426.11 764.75C1424.56 764.441 1420.8 763.72 1420.8 760.629C1420.8 759.032 1421.88 756.662 1426.52 756.662C1432.13 756.662 1432.44 761.453 1432.55 763.05C1432.6 763.462 1432.96 763.462 1433.11 763.462C1433.68 763.462 1433.68 763.205 1433.68 762.277V756.92Z" fill="black"/>
<path id="Vector_29" d="M1484.14 733.389C1484.14 730.762 1481.88 728.855 1479.4 728.855C1476.62 728.855 1474.61 731.019 1474.61 733.337C1474.61 735.965 1476.88 737.871 1479.35 737.871C1482.13 737.871 1484.14 735.707 1484.14 733.389ZM1479.4 736.84C1476.67 736.84 1475.75 735.243 1475.75 733.389C1475.75 730.813 1477.4 729.886 1479.35 729.886C1482.08 729.886 1483.01 731.483 1483.01 733.337C1483.01 735.913 1481.36 736.84 1479.4 736.84Z" fill="black"/>
<path id="Vector_30" d="M1462.25 772.993C1460.45 776.032 1458.7 777.062 1456.22 777.217C1455.66 777.268 1455.24 777.268 1455.24 778.196C1455.24 778.505 1455.5 778.711 1455.86 778.711C1456.79 778.711 1459.11 778.608 1460.04 778.608C1461.53 778.608 1463.18 778.711 1464.62 778.711C1464.93 778.711 1465.55 778.711 1465.55 777.732C1465.55 777.268 1465.14 777.217 1464.83 777.217C1463.64 777.114 1462.66 776.702 1462.66 775.465C1462.66 774.744 1462.97 774.177 1463.64 773.044L1467.56 766.553H1480.69C1480.74 767.017 1480.74 767.429 1480.8 767.893C1480.95 769.232 1481.57 774.59 1481.57 775.568C1481.57 777.114 1478.94 777.217 1478.12 777.217C1477.55 777.217 1476.98 777.217 1476.98 778.144C1476.98 778.711 1477.45 778.711 1477.76 778.711C1478.63 778.711 1479.66 778.608 1480.54 778.608H1483.47C1486.62 778.608 1488.88 778.711 1488.94 778.711C1489.3 778.711 1489.86 778.711 1489.86 777.732C1489.86 777.217 1489.4 777.217 1488.63 777.217C1485.79 777.217 1485.74 776.753 1485.59 775.208L1482.44 743.062C1482.34 742.032 1482.14 741.929 1481.57 741.929C1481.05 741.929 1480.74 742.032 1480.28 742.804L1462.25 772.993ZM1468.43 765.059L1478.79 747.75L1480.54 765.059H1468.43Z" fill="black"/>
</g>
</g>
<g id="Group_85">
<g id="Group 84">
<g id="Group 68">
<path id="does not contain any open" d="M1059.63 532.207C1057.99 532.207 1056.6 531.767 1055.45 530.887C1054.34 530.007 1053.5 528.819 1052.94 527.323C1052.39 525.798 1052.11 524.097 1052.11 522.219C1052.11 519.785 1052.56 517.702 1053.47 515.971C1054.38 514.211 1055.6 512.862 1057.12 511.923C1058.68 510.985 1060.38 510.515 1062.23 510.515C1062.93 510.515 1063.62 510.603 1064.3 510.779C1065 510.955 1065.67 511.219 1066.32 511.571H1066.5V505.807C1066.5 504.839 1066.38 504.209 1066.14 503.915C1065.94 503.622 1065.41 503.475 1064.56 503.475C1064.35 503.475 1064.11 503.49 1063.81 503.519C1063.55 503.549 1063.42 503.563 1063.42 503.563V502.331L1068.96 500.791H1070.15V527.147C1070.15 528.291 1070.31 529.039 1070.63 529.391C1070.95 529.714 1071.53 529.875 1072.35 529.875H1073.27V531.063L1067.64 532.075H1066.63V529.039H1066.45C1065.63 529.773 1064.65 530.491 1063.5 531.195C1062.39 531.87 1061.1 532.207 1059.63 532.207ZM1061.7 529.039C1062.73 529.039 1063.59 528.907 1064.3 528.643C1065 528.35 1065.73 527.939 1066.5 527.411V515.795C1066.32 514.886 1065.89 514.079 1065.22 513.375C1064.55 512.642 1063.52 512.275 1062.14 512.275C1060.29 512.275 1058.8 512.95 1057.65 514.299C1056.51 515.649 1055.94 517.717 1055.94 520.503C1055.94 523.525 1056.42 525.71 1057.39 527.059C1058.39 528.379 1059.82 529.039 1061.7 529.039ZM1085.73 532.295C1082.65 532.295 1080.23 531.342 1078.47 529.435C1076.74 527.499 1075.87 524.757 1075.87 521.207C1075.87 519.066 1076.28 517.203 1077.1 515.619C1077.92 514.006 1079.07 512.759 1080.54 511.879C1082.03 510.97 1083.76 510.515 1085.73 510.515C1088.75 510.515 1091.12 511.454 1092.86 513.331C1094.62 515.209 1095.5 517.775 1095.5 521.031C1095.5 523.495 1095.07 525.563 1094.22 527.235C1093.4 528.907 1092.25 530.169 1090.79 531.019C1089.32 531.87 1087.63 532.295 1085.73 532.295ZM1085.9 530.535C1087.11 530.535 1088.12 530.257 1088.94 529.699C1089.76 529.142 1090.38 528.189 1090.79 526.839C1091.23 525.49 1091.45 523.627 1091.45 521.251C1091.45 518.553 1090.95 516.367 1089.95 514.695C1088.98 513.023 1087.52 512.187 1085.55 512.187C1083.88 512.187 1082.53 512.891 1081.5 514.299C1080.48 515.707 1079.96 517.819 1079.96 520.635C1079.96 524.126 1080.48 526.663 1081.5 528.247C1082.56 529.802 1084.03 530.565 1085.9 530.535ZM1107.84 532.295C1106.08 532.295 1104.49 531.885 1103.05 531.063C1101.64 530.213 1100.53 528.981 1099.7 527.367C1098.88 525.725 1098.47 523.73 1098.47 521.383C1098.47 518.919 1098.88 516.895 1099.7 515.311C1100.56 513.698 1101.68 512.495 1103.09 511.703C1104.5 510.911 1106.06 510.515 1107.76 510.515C1110.16 510.515 1112.1 511.351 1113.56 513.023C1115.03 514.695 1115.82 517.071 1115.94 520.151H1101.64L1101.6 518.523H1111.8C1111.78 517.438 1111.58 516.426 1111.23 515.487C1110.88 514.519 1110.37 513.742 1109.69 513.155C1109.02 512.569 1108.15 512.275 1107.1 512.275C1105.4 512.275 1104.12 512.95 1103.27 514.299C1102.42 515.619 1101.99 517.497 1101.99 519.931C1101.99 521.955 1102.32 523.642 1102.96 524.991C1103.61 526.341 1104.46 527.353 1105.51 528.027C1106.57 528.673 1107.7 528.995 1108.9 528.995C1110.1 528.995 1111.07 528.834 1111.8 528.511C1112.57 528.189 1113.21 527.778 1113.74 527.279C1114.27 526.751 1114.77 526.179 1115.24 525.563L1116.07 526.179C1115.69 527.001 1115.25 527.793 1114.75 528.555C1114.25 529.289 1113.68 529.934 1113.04 530.491C1112.42 531.049 1111.69 531.489 1110.84 531.811C1109.99 532.134 1108.99 532.295 1107.84 532.295ZM1119.23 532.207L1119.1 524.639H1120.25C1120.72 526.898 1121.41 528.482 1122.31 529.391C1123.22 530.271 1124.49 530.711 1126.1 530.711C1127.21 530.711 1128.12 530.491 1128.83 530.051C1129.53 529.582 1129.88 528.834 1129.88 527.807C1129.88 527.103 1129.75 526.517 1129.49 526.047C1129.25 525.578 1128.78 525.109 1128.08 524.639C1127.37 524.141 1126.33 523.554 1124.95 522.879C1123.61 522.205 1122.51 521.559 1121.65 520.943C1120.8 520.298 1120.17 519.594 1119.76 518.831C1119.35 518.069 1119.15 517.145 1119.15 516.059C1119.15 514.241 1119.79 512.862 1121.08 511.923C1122.4 510.985 1124 510.515 1125.88 510.515C1126.99 510.515 1127.9 510.647 1128.61 510.911C1129.31 511.146 1129.94 511.395 1130.5 511.659H1130.54L1131.29 510.735H1132.17L1132.3 517.467H1131.11C1130.65 515.385 1129.99 513.962 1129.13 513.199C1128.28 512.407 1127.18 512.011 1125.83 512.011C1124.84 512.011 1123.99 512.246 1123.28 512.715C1122.61 513.185 1122.27 513.918 1122.27 514.915C1122.27 515.766 1122.67 516.529 1123.46 517.203C1124.25 517.878 1125.57 518.685 1127.42 519.623C1128.77 520.327 1129.9 521.017 1130.81 521.691C1131.72 522.337 1132.41 523.055 1132.87 523.847C1133.34 524.61 1133.58 525.534 1133.58 526.619C1133.58 527.998 1133.24 529.113 1132.57 529.963C1131.89 530.785 1130.98 531.386 1129.84 531.767C1128.72 532.149 1127.51 532.339 1126.19 532.339C1124.93 532.339 1123.91 532.207 1123.15 531.943C1122.42 531.679 1121.76 531.43 1121.17 531.195H1121.08L1120.16 532.207H1119.23ZM1169.52 531.855H1159.36V530.623C1160.41 530.623 1161.16 530.535 1161.6 530.359C1162.07 530.154 1162.35 529.817 1162.44 529.347C1162.55 528.878 1162.61 528.233 1162.61 527.411V519.447C1162.61 517.687 1162.41 516.367 1162 515.487C1161.62 514.607 1161.12 514.035 1160.5 513.771C1159.89 513.478 1159.24 513.331 1158.57 513.331C1157.71 513.331 1156.95 513.507 1156.28 513.859C1155.6 514.182 1154.99 514.578 1154.43 515.047C1153.9 515.517 1153.4 515.957 1152.93 516.367L1152.63 514.211H1153.29C1154.49 513.155 1155.62 512.275 1156.67 511.571C1157.76 510.867 1158.99 510.515 1160.37 510.515C1162.36 510.515 1163.85 511.19 1164.81 512.539C1165.78 513.889 1166.27 515.825 1166.27 518.347V527.411C1166.27 528.233 1166.32 528.878 1166.44 529.347C1166.59 529.817 1166.9 530.154 1167.37 530.359C1167.83 530.535 1168.55 530.623 1169.52 530.623V531.855ZM1156.59 531.855H1146.51V530.623C1147.51 530.623 1148.21 530.535 1148.62 530.359C1149.06 530.154 1149.33 529.817 1149.41 529.347C1149.53 528.878 1149.59 528.233 1149.59 527.411V515.047C1149.59 514.255 1149.43 513.742 1149.11 513.507C1148.78 513.243 1148.33 513.111 1147.74 513.111C1147.36 513.111 1147.07 513.126 1146.86 513.155C1146.66 513.185 1146.55 513.199 1146.55 513.199V511.923L1152.14 510.647H1153.15L1153.11 514.695L1153.24 515.619V527.411C1153.24 528.233 1153.3 528.878 1153.42 529.347C1153.53 529.817 1153.83 530.154 1154.3 530.359C1154.77 530.535 1155.53 530.623 1156.59 530.623V531.855ZM1181.81 532.295C1178.73 532.295 1176.31 531.342 1174.55 529.435C1172.81 527.499 1171.95 524.757 1171.95 521.207C1171.95 519.066 1172.36 517.203 1173.18 515.619C1174 514.006 1175.15 512.759 1176.61 511.879C1178.11 510.97 1179.84 510.515 1181.81 510.515C1184.83 510.515 1187.2 511.454 1188.93 513.331C1190.69 515.209 1191.57 517.775 1191.57 521.031C1191.57 523.495 1191.15 525.563 1190.3 527.235C1189.48 528.907 1188.33 530.169 1186.87 531.019C1185.4 531.87 1183.71 532.295 1181.81 532.295ZM1181.98 530.535C1183.18 530.535 1184.2 530.257 1185.02 529.699C1185.84 529.142 1186.45 528.189 1186.87 526.839C1187.31 525.49 1187.53 523.627 1187.53 521.251C1187.53 518.553 1187.03 516.367 1186.03 514.695C1185.06 513.023 1183.59 512.187 1181.63 512.187C1179.96 512.187 1178.61 512.891 1177.58 514.299C1176.55 515.707 1176.04 517.819 1176.04 520.635C1176.04 524.126 1176.55 526.663 1177.58 528.247C1178.64 529.802 1180.1 530.565 1181.98 530.535ZM1205.95 527.895L1206.78 528.599C1206.23 529.391 1205.7 530.066 1205.2 530.623C1204.73 531.151 1204.2 531.562 1203.61 531.855C1203.03 532.149 1202.27 532.295 1201.33 532.295C1199.86 532.295 1198.79 531.87 1198.11 531.019C1197.44 530.139 1197.1 528.717 1197.1 526.751V513.111H1194.68V512.099C1195.71 511.454 1196.59 510.589 1197.32 509.503C1198.09 508.389 1198.86 506.893 1199.65 505.015H1200.75V511.263H1205.73V513.111H1200.75V525.519C1200.75 527.074 1200.89 528.159 1201.15 528.775C1201.44 529.391 1202.02 529.699 1202.87 529.699C1203.57 529.699 1204.11 529.553 1204.49 529.259C1204.91 528.966 1205.39 528.511 1205.95 527.895ZM1235.24 525.343L1236.08 525.959C1235.52 527.133 1234.87 528.203 1234.14 529.171C1233.44 530.139 1232.56 530.902 1231.5 531.459C1230.45 532.017 1229.13 532.295 1227.54 532.295C1225.72 532.295 1224.15 531.855 1222.83 530.975C1221.51 530.095 1220.5 528.878 1219.8 527.323C1219.09 525.739 1218.74 523.935 1218.74 521.911C1218.74 519.594 1219.12 517.585 1219.89 515.883C1220.68 514.182 1221.81 512.862 1223.27 511.923C1224.77 510.985 1226.57 510.515 1228.69 510.515C1230.77 510.515 1232.4 510.97 1233.57 511.879C1234.77 512.789 1235.37 513.889 1235.37 515.179C1235.37 515.825 1235.21 516.323 1234.89 516.675C1234.6 516.998 1234.14 517.159 1233.53 517.159C1232.88 517.159 1232.38 516.998 1232.03 516.675C1231.71 516.323 1231.44 515.898 1231.24 515.399C1231.03 514.901 1230.81 514.402 1230.58 513.903C1230.37 513.405 1230.06 512.994 1229.65 512.671C1229.27 512.319 1228.7 512.143 1227.94 512.143C1226.15 512.143 1224.74 512.803 1223.71 514.123C1222.72 515.414 1222.22 517.321 1222.22 519.843C1222.22 522.513 1222.76 524.713 1223.85 526.443C1224.96 528.145 1226.65 528.995 1228.91 528.995C1230.34 528.995 1231.5 528.702 1232.38 528.115C1233.29 527.529 1234.24 526.605 1235.24 525.343ZM1248.28 532.295C1245.2 532.295 1242.78 531.342 1241.02 529.435C1239.29 527.499 1238.42 524.757 1238.42 521.207C1238.42 519.066 1238.83 517.203 1239.65 515.619C1240.48 514.006 1241.62 512.759 1243.09 511.879C1244.58 510.97 1246.31 510.515 1248.28 510.515C1251.3 510.515 1253.68 511.454 1255.41 513.331C1257.17 515.209 1258.05 517.775 1258.05 521.031C1258.05 523.495 1257.62 525.563 1256.77 527.235C1255.95 528.907 1254.8 530.169 1253.34 531.019C1251.87 531.87 1250.18 532.295 1248.28 532.295ZM1248.45 530.535C1249.66 530.535 1250.67 530.257 1251.49 529.699C1252.31 529.142 1252.93 528.189 1253.34 526.839C1253.78 525.49 1254 523.627 1254 521.251C1254 518.553 1253.5 516.367 1252.5 514.695C1251.53 513.023 1250.07 512.187 1248.1 512.187C1246.43 512.187 1245.08 512.891 1244.05 514.299C1243.03 515.707 1242.51 517.819 1242.51 520.635C1242.51 524.126 1243.03 526.663 1244.05 528.247C1245.11 529.802 1246.58 530.565 1248.45 530.535ZM1283.95 531.855H1273.78V530.623C1274.84 530.623 1275.59 530.535 1276.03 530.359C1276.5 530.154 1276.78 529.817 1276.86 529.347C1276.98 528.878 1277.04 528.233 1277.04 527.411V519.447C1277.04 517.687 1276.83 516.367 1276.42 515.487C1276.04 514.607 1275.54 514.035 1274.93 513.771C1274.31 513.478 1273.67 513.331 1272.99 513.331C1272.14 513.331 1271.38 513.507 1270.7 513.859C1270.03 514.182 1269.41 514.578 1268.86 515.047C1268.33 515.517 1267.83 515.957 1267.36 516.367L1267.05 514.211H1267.71C1268.91 513.155 1270.04 512.275 1271.1 511.571C1272.18 510.867 1273.42 510.515 1274.8 510.515C1276.79 510.515 1278.27 511.19 1279.24 512.539C1280.21 513.889 1280.69 515.825 1280.69 518.347V527.411C1280.69 528.233 1280.75 528.878 1280.87 529.347C1281.01 529.817 1281.32 530.154 1281.79 530.359C1282.26 530.535 1282.98 530.623 1283.95 530.623V531.855ZM1271.01 531.855H1260.94V530.623C1261.93 530.623 1262.64 530.535 1263.05 530.359C1263.49 530.154 1263.75 529.817 1263.84 529.347C1263.96 528.878 1264.02 528.233 1264.02 527.411V515.047C1264.02 514.255 1263.85 513.742 1263.53 513.507C1263.21 513.243 1262.75 513.111 1262.17 513.111C1261.79 513.111 1261.49 513.126 1261.29 513.155C1261.08 513.185 1260.98 513.199 1260.98 513.199V511.923L1266.57 510.647H1267.58L1267.54 514.695L1267.67 515.619V527.411C1267.67 528.233 1267.73 528.878 1267.84 529.347C1267.96 529.817 1268.25 530.154 1268.72 530.359C1269.19 530.535 1269.96 530.623 1271.01 530.623V531.855ZM1297.77 527.895L1298.61 528.599C1298.05 529.391 1297.52 530.066 1297.02 530.623C1296.55 531.151 1296.03 531.562 1295.44 531.855C1294.85 532.149 1294.09 532.295 1293.15 532.295C1291.68 532.295 1290.61 531.87 1289.94 531.019C1289.26 530.139 1288.93 528.717 1288.93 526.751V513.111H1286.51V512.099C1287.53 511.454 1288.41 510.589 1289.15 509.503C1289.91 508.389 1290.69 506.893 1291.48 505.015H1292.58V511.263H1297.55V513.111H1292.58V525.519C1292.58 527.074 1292.71 528.159 1292.97 528.775C1293.27 529.391 1293.84 529.699 1294.69 529.699C1295.39 529.699 1295.94 529.553 1296.32 529.259C1296.73 528.966 1297.21 528.511 1297.77 527.895ZM1305.67 532.163C1303.96 532.163 1302.66 531.694 1301.75 530.755C1300.87 529.817 1300.43 528.643 1300.43 527.235C1300.43 526.062 1300.69 525.079 1301.22 524.287C1301.78 523.466 1302.5 522.777 1303.38 522.219C1304.29 521.662 1305.26 521.193 1306.28 520.811C1307.34 520.43 1308.36 520.107 1309.36 519.843C1310.36 519.579 1311.24 519.33 1312 519.095V517.159C1312 515.253 1311.66 513.903 1310.99 513.111C1310.34 512.29 1309.36 511.879 1308.04 511.879C1306.78 511.879 1305.97 512.143 1305.62 512.671C1305.27 513.199 1305.09 514.123 1305.09 515.443C1305.09 516.118 1304.92 516.631 1304.57 516.983C1304.24 517.306 1303.77 517.467 1303.16 517.467C1302.72 517.467 1302.29 517.306 1301.88 516.983C1301.5 516.631 1301.31 516.089 1301.31 515.355C1301.31 514.534 1301.62 513.757 1302.23 513.023C1302.88 512.29 1303.77 511.689 1304.92 511.219C1306.09 510.75 1307.47 510.515 1309.05 510.515C1311.46 510.515 1313.16 511.073 1314.16 512.187C1315.16 513.302 1315.65 515.003 1315.65 517.291V527.279C1315.65 528.189 1315.76 528.775 1315.96 529.039C1316.17 529.303 1316.5 529.435 1316.97 529.435C1317.38 529.435 1317.75 529.333 1318.07 529.127C1318.43 528.922 1318.75 528.658 1319.04 528.335L1319.7 529.039C1318.97 530.095 1318.26 530.873 1317.59 531.371C1316.94 531.841 1316.06 532.075 1314.95 532.075C1313.92 532.075 1313.25 531.782 1312.93 531.195C1312.63 530.609 1312.41 529.773 1312.27 528.687L1312 528.159V520.547C1310.68 520.87 1309.44 521.251 1308.26 521.691C1307.09 522.131 1306.14 522.703 1305.4 523.407C1304.67 524.111 1304.3 525.035 1304.3 526.179C1304.3 527.265 1304.6 528.13 1305.18 528.775C1305.77 529.421 1306.53 529.743 1307.47 529.743C1308.23 529.743 1309.02 529.553 1309.85 529.171C1310.7 528.79 1311.52 528.247 1312.31 527.543L1312.66 529.127H1312.13C1311.46 529.714 1310.8 530.242 1310.15 530.711C1309.54 531.181 1308.86 531.547 1308.13 531.811C1307.43 532.046 1306.6 532.163 1305.67 532.163ZM1331.21 531.855H1321.31V530.623C1322.3 530.623 1323.01 530.535 1323.42 530.359C1323.86 530.154 1324.12 529.817 1324.21 529.347C1324.33 528.878 1324.39 528.233 1324.39 527.411V515.135C1324.39 514.197 1324.23 513.625 1323.9 513.419C1323.58 513.185 1323.1 513.067 1322.45 513.067C1322.16 513.067 1321.89 513.082 1321.66 513.111C1321.45 513.141 1321.35 513.155 1321.35 513.155V511.879L1326.89 510.647H1328.04V527.411C1328.04 528.262 1328.1 528.922 1328.21 529.391C1328.33 529.861 1328.61 530.183 1329.05 530.359C1329.52 530.535 1330.24 530.623 1331.21 530.623V531.855ZM1326.28 507.215C1325.55 507.215 1324.94 506.966 1324.47 506.467C1324.01 505.969 1323.77 505.382 1323.77 504.707C1323.77 504.033 1323.99 503.461 1324.43 502.991C1324.9 502.493 1325.52 502.243 1326.28 502.243C1327.04 502.243 1327.64 502.493 1328.08 502.991C1328.55 503.461 1328.79 504.033 1328.79 504.707C1328.79 505.382 1328.55 505.969 1328.08 506.467C1327.64 506.966 1327.04 507.215 1326.28 507.215ZM1356.87 531.855H1346.7V530.623C1347.76 530.623 1348.51 530.535 1348.95 530.359C1349.41 530.154 1349.69 529.817 1349.78 529.347C1349.9 528.878 1349.96 528.233 1349.96 527.411V519.447C1349.96 517.687 1349.75 516.367 1349.34 515.487C1348.96 514.607 1348.46 514.035 1347.85 513.771C1347.23 513.478 1346.58 513.331 1345.91 513.331C1345.06 513.331 1344.3 513.507 1343.62 513.859C1342.95 514.182 1342.33 514.578 1341.77 515.047C1341.25 515.517 1340.75 515.957 1340.28 516.367L1339.97 514.211H1340.63C1341.83 513.155 1342.96 512.275 1344.02 511.571C1345.1 510.867 1346.33 510.515 1347.71 510.515C1349.71 510.515 1351.19 511.19 1352.16 512.539C1353.13 513.889 1353.61 515.825 1353.61 518.347V527.411C1353.61 528.233 1353.67 528.878 1353.79 529.347C1353.93 529.817 1354.24 530.154 1354.71 530.359C1355.18 530.535 1355.9 530.623 1356.87 530.623V531.855ZM1343.93 531.855H1333.85V530.623C1334.85 530.623 1335.55 530.535 1335.97 530.359C1336.41 530.154 1336.67 529.817 1336.76 529.347C1336.87 528.878 1336.93 528.233 1336.93 527.411V515.047C1336.93 514.255 1336.77 513.742 1336.45 513.507C1336.13 513.243 1335.67 513.111 1335.09 513.111C1334.7 513.111 1334.41 513.126 1334.21 513.155C1334 513.185 1333.9 513.199 1333.9 513.199V511.923L1339.49 510.647H1340.5L1340.45 514.695L1340.59 515.619V527.411C1340.59 528.233 1340.64 528.878 1340.76 529.347C1340.88 529.817 1341.17 530.154 1341.64 530.359C1342.11 530.535 1342.87 530.623 1343.93 530.623V531.855ZM1375.06 532.163C1373.36 532.163 1372.05 531.694 1371.14 530.755C1370.26 529.817 1369.82 528.643 1369.82 527.235C1369.82 526.062 1370.09 525.079 1370.62 524.287C1371.17 523.466 1371.89 522.777 1372.77 522.219C1373.68 521.662 1374.65 521.193 1375.68 520.811C1376.73 520.43 1377.76 520.107 1378.76 519.843C1379.75 519.579 1380.63 519.33 1381.4 519.095V517.159C1381.4 515.253 1381.06 513.903 1380.38 513.111C1379.74 512.29 1378.76 511.879 1377.44 511.879C1376.18 511.879 1375.37 512.143 1375.02 512.671C1374.66 513.199 1374.49 514.123 1374.49 515.443C1374.49 516.118 1374.31 516.631 1373.96 516.983C1373.64 517.306 1373.17 517.467 1372.55 517.467C1372.11 517.467 1371.69 517.306 1371.28 516.983C1370.9 516.631 1370.7 516.089 1370.7 515.355C1370.7 514.534 1371.01 513.757 1371.63 513.023C1372.27 512.29 1373.17 511.689 1374.31 511.219C1375.49 510.75 1376.86 510.515 1378.45 510.515C1380.85 510.515 1382.56 511.073 1383.55 512.187C1384.55 513.302 1385.05 515.003 1385.05 517.291V527.279C1385.05 528.189 1385.15 528.775 1385.36 529.039C1385.56 529.303 1385.9 529.435 1386.37 529.435C1386.78 529.435 1387.15 529.333 1387.47 529.127C1387.82 528.922 1388.14 528.658 1388.44 528.335L1389.1 529.039C1388.36 530.095 1387.66 530.873 1386.98 531.371C1386.34 531.841 1385.46 532.075 1384.34 532.075C1383.32 532.075 1382.64 531.782 1382.32 531.195C1382.03 530.609 1381.81 529.773 1381.66 528.687L1381.4 528.159V520.547C1380.08 520.87 1378.83 521.251 1377.66 521.691C1376.48 522.131 1375.53 522.703 1374.8 523.407C1374.06 524.111 1373.7 525.035 1373.7 526.179C1373.7 527.265 1373.99 528.13 1374.58 528.775C1375.16 529.421 1375.93 529.743 1376.86 529.743C1377.63 529.743 1378.42 529.553 1379.24 529.171C1380.09 528.79 1380.91 528.247 1381.7 527.543L1382.06 529.127H1381.53C1380.85 529.714 1380.19 530.242 1379.55 530.711C1378.93 531.181 1378.26 531.547 1377.52 531.811C1376.82 532.046 1376 532.163 1375.06 532.163ZM1413.71 531.855H1403.55V530.623C1404.6 530.623 1405.35 530.535 1405.79 530.359C1406.26 530.154 1406.54 529.817 1406.63 529.347C1406.75 528.878 1406.8 528.233 1406.8 527.411V519.447C1406.8 517.687 1406.6 516.367 1406.19 515.487C1405.81 514.607 1405.31 514.035 1404.69 513.771C1404.08 513.478 1403.43 513.331 1402.76 513.331C1401.91 513.331 1401.14 513.507 1400.47 513.859C1399.79 514.182 1399.18 514.578 1398.62 515.047C1398.09 515.517 1397.59 515.957 1397.12 516.367L1396.82 514.211H1397.48C1398.68 513.155 1399.81 512.275 1400.86 511.571C1401.95 510.867 1403.18 510.515 1404.56 510.515C1406.56 510.515 1408.04 511.19 1409 512.539C1409.97 513.889 1410.46 515.825 1410.46 518.347V527.411C1410.46 528.233 1410.52 528.878 1410.63 529.347C1410.78 529.817 1411.09 530.154 1411.56 530.359C1412.03 530.535 1412.74 530.623 1413.71 530.623V531.855ZM1400.78 531.855H1390.7V530.623C1391.7 530.623 1392.4 530.535 1392.81 530.359C1393.25 530.154 1393.52 529.817 1393.6 529.347C1393.72 528.878 1393.78 528.233 1393.78 527.411V515.047C1393.78 514.255 1393.62 513.742 1393.3 513.507C1392.97 513.243 1392.52 513.111 1391.93 513.111C1391.55 513.111 1391.26 513.126 1391.05 513.155C1390.85 513.185 1390.74 513.199 1390.74 513.199V511.923L1396.33 510.647H1397.34L1397.3 514.695L1397.43 515.619V527.411C1397.43 528.233 1397.49 528.878 1397.61 529.347C1397.73 529.817 1398.02 530.154 1398.49 530.359C1398.96 530.535 1399.72 530.623 1400.78 530.623V531.855ZM1417.17 542.195C1416.26 542.195 1415.52 542.019 1414.93 541.667C1414.34 541.315 1414.05 540.729 1414.05 539.907C1414.05 539.233 1414.24 538.749 1414.62 538.455C1415.03 538.162 1415.52 538.015 1416.07 538.015C1416.84 538.015 1417.51 538.177 1418.1 538.499C1418.71 538.822 1419.17 538.983 1419.46 538.983C1419.87 538.983 1420.31 538.661 1420.78 538.015C1421.25 537.399 1421.71 536.651 1422.15 535.771C1422.61 534.891 1422.98 534.055 1423.25 533.263C1423.54 532.501 1423.69 531.958 1423.69 531.635C1423.69 531.342 1423.52 530.814 1423.2 530.051C1422.91 529.289 1422.63 528.614 1422.37 528.027L1415.9 513.903C1415.69 513.405 1415.4 513.023 1415.02 512.759C1414.64 512.466 1414.05 512.319 1413.26 512.319V511.043H1422.67V512.363C1421.68 512.363 1421 512.466 1420.65 512.671C1420.33 512.847 1420.17 513.126 1420.17 513.507C1420.17 513.801 1420.24 514.123 1420.39 514.475C1420.53 514.798 1420.66 515.121 1420.78 515.443L1425.09 525.123L1425.67 527.279H1425.97L1430.24 514.519C1430.3 514.373 1430.34 514.197 1430.37 513.991C1430.43 513.757 1430.46 513.566 1430.46 513.419C1430.46 512.979 1430.23 512.686 1429.76 512.539C1429.32 512.393 1428.73 512.319 1428 512.319V511.043H1435.48V512.319C1434.6 512.319 1433.95 512.525 1433.54 512.935C1433.13 513.317 1432.76 513.933 1432.44 514.783L1425.58 532.823C1424.73 535.053 1423.89 536.857 1423.07 538.235C1422.28 539.614 1421.41 540.611 1420.47 541.227C1419.53 541.873 1418.43 542.195 1417.17 542.195ZM1456.76 532.295C1453.68 532.295 1451.26 531.342 1449.5 529.435C1447.77 527.499 1446.91 524.757 1446.91 521.207C1446.91 519.066 1447.32 517.203 1448.14 515.619C1448.96 514.006 1450.1 512.759 1451.57 511.879C1453.07 510.97 1454.8 510.515 1456.76 510.515C1459.78 510.515 1462.16 511.454 1463.89 513.331C1465.65 515.209 1466.53 517.775 1466.53 521.031C1466.53 523.495 1466.1 525.563 1465.25 527.235C1464.43 528.907 1463.29 530.169 1461.82 531.019C1460.36 531.87 1458.67 532.295 1456.76 532.295ZM1456.94 530.535C1458.14 530.535 1459.15 530.257 1459.97 529.699C1460.8 529.142 1461.41 528.189 1461.82 526.839C1462.26 525.49 1462.48 523.627 1462.48 521.251C1462.48 518.553 1461.98 516.367 1460.99 514.695C1460.02 513.023 1458.55 512.187 1456.59 512.187C1454.91 512.187 1453.56 512.891 1452.54 514.299C1451.51 515.707 1451 517.819 1451 520.635C1451 524.126 1451.51 526.663 1452.54 528.247C1453.59 529.802 1455.06 530.565 1456.94 530.535ZM1480.11 541.535H1468.98V540.303C1470.36 540.303 1471.24 540.069 1471.62 539.599C1472 539.159 1472.19 538.323 1472.19 537.091V515.311C1472.19 514.461 1472.09 513.874 1471.88 513.551C1471.71 513.229 1471.25 513.067 1470.52 513.067C1470.23 513.067 1469.92 513.082 1469.6 513.111C1469.27 513.141 1469.11 513.155 1469.11 513.155V511.879L1474.66 510.647H1475.76V514.343H1475.89C1476.94 513.111 1478.01 512.173 1479.1 511.527C1480.21 510.853 1481.42 510.515 1482.71 510.515C1484.17 510.515 1485.45 510.941 1486.54 511.791C1487.65 512.613 1488.52 513.771 1489.13 515.267C1489.78 516.734 1490.1 518.435 1490.1 520.371C1490.1 522.865 1489.66 525.006 1488.78 526.795C1487.93 528.555 1486.77 529.919 1485.3 530.887C1483.84 531.826 1482.22 532.295 1480.46 532.295C1479.64 532.295 1478.85 532.193 1478.09 531.987C1477.35 531.811 1476.67 531.503 1476.02 531.063H1475.84V536.827C1475.84 537.766 1475.96 538.485 1476.2 538.983C1476.43 539.482 1476.86 539.819 1477.47 539.995C1478.09 540.171 1478.97 540.259 1480.11 540.259V541.535ZM1480.68 530.579C1482.24 530.579 1483.53 529.846 1484.56 528.379C1485.58 526.913 1486.1 524.654 1486.1 521.603C1486.1 518.817 1485.64 516.778 1484.73 515.487C1483.82 514.167 1482.55 513.507 1480.9 513.507C1479.73 513.507 1478.69 513.815 1477.78 514.431C1476.9 515.047 1476.25 515.634 1475.84 516.191V527.675C1476.14 527.969 1476.5 528.35 1476.94 528.819C1477.38 529.289 1477.91 529.699 1478.53 530.051C1479.14 530.403 1479.86 530.579 1480.68 530.579ZM1502.51 532.295C1500.75 532.295 1499.15 531.885 1497.72 531.063C1496.31 530.213 1495.19 528.981 1494.37 527.367C1493.55 525.725 1493.14 523.73 1493.14 521.383C1493.14 518.919 1493.55 516.895 1494.37 515.311C1495.22 513.698 1496.35 512.495 1497.76 511.703C1499.17 510.911 1500.72 510.515 1502.42 510.515C1504.83 510.515 1506.77 511.351 1508.23 513.023C1509.7 514.695 1510.49 517.071 1510.61 520.151H1496.31L1496.26 518.523H1506.47C1506.44 517.438 1506.25 516.426 1505.9 515.487C1505.55 514.519 1505.04 513.742 1504.36 513.155C1503.69 512.569 1502.82 512.275 1501.76 512.275C1500.06 512.275 1498.79 512.95 1497.94 514.299C1497.09 515.619 1496.66 517.497 1496.66 519.931C1496.66 521.955 1496.98 523.642 1497.63 524.991C1498.27 526.341 1499.12 527.353 1500.18 528.027C1501.24 528.673 1502.37 528.995 1503.57 528.995C1504.77 528.995 1505.74 528.834 1506.47 528.511C1507.24 528.189 1507.88 527.778 1508.41 527.279C1508.94 526.751 1509.44 526.179 1509.9 525.563L1510.74 526.179C1510.36 527.001 1509.92 527.793 1509.42 528.555C1508.92 529.289 1508.35 529.934 1507.7 530.491C1507.09 531.049 1506.36 531.489 1505.5 531.811C1504.65 532.134 1503.66 532.295 1502.51 532.295ZM1536.47 531.855H1526.31V530.623C1527.37 530.623 1528.11 530.535 1528.55 530.359C1529.02 530.154 1529.3 529.817 1529.39 529.347C1529.51 528.878 1529.57 528.233 1529.57 527.411V519.447C1529.57 517.687 1529.36 516.367 1528.95 515.487C1528.57 514.607 1528.07 514.035 1527.45 513.771C1526.84 513.478 1526.19 513.331 1525.52 513.331C1524.67 513.331 1523.91 513.507 1523.23 513.859C1522.56 514.182 1521.94 514.578 1521.38 515.047C1520.85 515.517 1520.36 515.957 1519.89 516.367L1519.58 514.211H1520.24C1521.44 513.155 1522.57 512.275 1523.63 511.571C1524.71 510.867 1525.94 510.515 1527.32 510.515C1529.32 510.515 1530.8 511.19 1531.77 512.539C1532.73 513.889 1533.22 515.825 1533.22 518.347V527.411C1533.22 528.233 1533.28 528.878 1533.39 529.347C1533.54 529.817 1533.85 530.154 1534.32 530.359C1534.79 530.535 1535.51 530.623 1536.47 530.623V531.855ZM1523.54 531.855H1513.46V530.623C1514.46 530.623 1515.16 530.535 1515.57 530.359C1516.01 530.154 1516.28 529.817 1516.37 529.347C1516.48 528.878 1516.54 528.233 1516.54 527.411V515.047C1516.54 514.255 1516.38 513.742 1516.06 513.507C1515.74 513.243 1515.28 513.111 1514.69 513.111C1514.31 513.111 1514.02 513.126 1513.81 513.155C1513.61 513.185 1513.51 513.199 1513.51 513.199V511.923L1519.09 510.647H1520.11L1520.06 514.695L1520.19 515.619V527.411C1520.19 528.233 1520.25 528.878 1520.37 529.347C1520.49 529.817 1520.78 530.154 1521.25 530.359C1521.72 530.535 1522.48 530.623 1523.54 530.623V531.855Z" fill="black"/>
</g>
<path id="Aim:" d="M854.028 531.855H844.788V530.535C845.61 530.535 846.27 530.403 846.768 530.139C847.267 529.875 847.751 529.347 848.22 528.555C848.69 527.734 849.276 526.487 849.98 524.815L859.308 502.727H861.112L871.54 526.619C872.186 528.057 872.802 529.069 873.388 529.655C874.004 530.242 874.899 530.535 876.072 530.535V531.855H864.236V530.535C864.676 530.535 865.131 530.506 865.6 530.447C866.07 530.389 866.466 530.242 866.788 530.007C867.111 529.773 867.272 529.406 867.272 528.907C867.272 528.585 867.214 528.218 867.096 527.807C867.008 527.367 866.818 526.825 866.524 526.179L864.632 521.779L864.324 520.899L859.308 508.139H859.176L854.028 520.899L853.72 521.779L851.564 526.883C851.447 527.235 851.33 527.587 851.212 527.939C851.124 528.262 851.08 528.629 851.08 529.039C851.08 529.655 851.315 530.066 851.784 530.271C852.254 530.447 853.002 530.535 854.028 530.535V531.855ZM865.292 522.219H853.06L853.72 520.459H864.632L865.292 522.219ZM887.546 531.855H877.646V530.623C878.644 530.623 879.348 530.535 879.758 530.359C880.198 530.154 880.462 529.817 880.55 529.347C880.668 528.878 880.726 528.233 880.726 527.411V515.135C880.726 514.197 880.565 513.625 880.242 513.419C879.92 513.185 879.436 513.067 878.79 513.067C878.497 513.067 878.233 513.082 877.998 513.111C877.793 513.141 877.69 513.155 877.69 513.155V511.879L883.234 510.647H884.378V527.411C884.378 528.262 884.437 528.922 884.554 529.391C884.672 529.861 884.95 530.183 885.39 530.359C885.86 530.535 886.578 530.623 887.546 530.623V531.855ZM882.618 507.215C881.885 507.215 881.284 506.966 880.814 506.467C880.345 505.969 880.11 505.382 880.11 504.707C880.11 504.033 880.33 503.461 880.77 502.991C881.24 502.493 881.856 502.243 882.618 502.243C883.381 502.243 883.982 502.493 884.422 502.991C884.892 503.461 885.126 504.033 885.126 504.707C885.126 505.382 884.892 505.969 884.422 506.467C883.982 506.966 883.381 507.215 882.618 507.215ZM912.985 531.855H902.557V530.579C903.613 530.579 904.376 530.477 904.845 530.271C905.314 530.066 905.608 529.685 905.725 529.127C905.872 528.57 905.945 527.778 905.945 526.751V518.039C905.945 516.162 905.608 514.915 904.933 514.299C904.288 513.654 903.452 513.331 902.425 513.331C901.604 513.331 900.826 513.507 900.093 513.859C899.389 514.211 898.744 514.622 898.157 515.091C897.57 515.561 897.072 516.001 896.661 516.411L896.309 514.211H896.969C898.172 513.185 899.33 512.319 900.445 511.615C901.56 510.882 902.865 510.515 904.361 510.515C905.681 510.515 906.737 510.897 907.529 511.659C908.35 512.422 908.966 513.375 909.377 514.519C909.436 514.607 909.48 514.71 909.509 514.827C909.538 514.915 909.568 515.018 909.597 515.135V526.751C909.597 527.749 909.656 528.526 909.773 529.083C909.92 529.641 910.228 530.037 910.697 530.271C911.166 530.477 911.929 530.579 912.985 530.579V531.855ZM900.225 531.855H890.193V530.579C891.132 530.579 891.806 530.506 892.217 530.359C892.657 530.183 892.936 529.875 893.053 529.435C893.2 528.966 893.273 528.291 893.273 527.411V515.091C893.273 514.299 893.112 513.771 892.789 513.507C892.496 513.243 892.041 513.111 891.425 513.111C891.102 513.111 890.824 513.126 890.589 513.155C890.354 513.185 890.237 513.199 890.237 513.199V511.923L895.737 510.647H896.793V514.695L896.925 515.663V527.587C896.925 528.409 897.013 529.039 897.189 529.479C897.365 529.89 897.688 530.183 898.157 530.359C898.626 530.506 899.316 530.579 900.225 530.579V531.855ZM925.261 531.855H915.317V530.579C916.314 530.579 917.033 530.447 917.473 530.183C917.913 529.919 918.177 529.509 918.265 528.951C918.382 528.365 918.441 527.631 918.441 526.751V518.303C918.441 516.954 918.265 515.927 917.913 515.223C917.59 514.519 917.136 514.035 916.549 513.771C915.992 513.478 915.361 513.331 914.657 513.331C913.689 513.331 912.736 513.683 911.797 514.387C910.858 515.062 910.008 515.722 909.245 516.367L908.761 514.167H909.421C910.624 512.965 911.797 512.055 912.941 511.439C914.085 510.823 915.244 510.515 916.417 510.515C918.148 510.515 919.526 511.058 920.553 512.143C921.58 513.229 922.093 515.106 922.093 517.775V526.751C922.093 527.661 922.137 528.409 922.225 528.995C922.342 529.553 922.621 529.963 923.061 530.227C923.53 530.462 924.264 530.579 925.261 530.579V531.855ZM932.018 532.207C931.138 532.207 930.478 531.958 930.038 531.459C929.627 530.961 929.422 530.345 929.422 529.611C929.422 528.849 929.657 528.203 930.126 527.675C930.595 527.118 931.241 526.839 932.062 526.839C932.913 526.839 933.573 527.118 934.042 527.675C934.511 528.233 934.746 528.893 934.746 529.655C934.746 530.33 934.511 530.931 934.042 531.459C933.573 531.958 932.898 532.207 932.018 532.207ZM932.018 516.191C931.138 516.191 930.478 515.942 930.038 515.443C929.627 514.945 929.422 514.329 929.422 513.595C929.422 512.833 929.657 512.187 930.126 511.659C930.595 511.102 931.241 510.823 932.062 510.823C932.913 510.823 933.573 511.102 934.042 511.659C934.511 512.217 934.746 512.877 934.746 513.639C934.746 514.314 934.511 514.915 934.042 515.443C933.573 515.942 932.898 516.191 932.018 516.191Z" fill="black"/>
</g>
<g id="page1_4">
<path id="Vector_31" d="M991.945 515.52C991.666 512.924 990.044 509.817 985.871 509.817C979.334 509.817 972.657 516.447 972.657 523.819C972.657 526.648 974.605 531.979 980.91 531.979C991.852 531.979 996.535 516.03 996.535 509.678C996.535 503.002 992.779 497.855 986.845 497.855C980.122 497.855 978.128 503.744 978.128 504.996C978.128 505.413 978.406 506.433 979.705 506.433C981.327 506.433 982.023 504.949 982.023 504.161C982.023 502.724 980.585 502.724 979.983 502.724C981.884 499.293 985.407 498.968 986.659 498.968C990.739 498.968 993.336 502.214 993.336 507.406C993.336 510.374 992.455 513.805 991.991 515.52H991.945ZM981.049 530.728C976.691 530.728 975.949 527.297 975.949 525.349C975.949 523.309 977.247 518.534 977.943 516.818C978.545 515.427 981.188 510.745 986.01 510.745C990.229 510.745 991.203 514.407 991.203 516.911C991.203 520.342 988.189 530.728 981.049 530.728Z" fill="black"/>
<path id="Vector_32" d="M1005.27 525.859C1003.64 528.595 1002.07 529.522 999.842 529.661C999.332 529.708 998.961 529.708 998.961 530.542C998.961 530.82 999.193 531.006 999.517 531.006C1000.35 531.006 1002.44 530.913 1003.27 530.913C1004.62 530.913 1006.1 531.006 1007.4 531.006C1007.68 531.006 1008.23 531.006 1008.23 530.125C1008.23 529.708 1007.86 529.661 1007.58 529.661C1006.52 529.569 1005.64 529.198 1005.64 528.085C1005.64 527.436 1005.92 526.926 1006.52 525.906L1010.04 520.064H1021.86C1021.91 520.481 1021.91 520.852 1021.96 521.269C1022.1 522.475 1022.65 527.297 1022.65 528.178C1022.65 529.569 1020.29 529.661 1019.55 529.661C1019.04 529.661 1018.53 529.661 1018.53 530.496C1018.53 531.006 1018.94 531.006 1019.22 531.006C1020.01 531.006 1020.94 530.913 1021.73 530.913H1024.37C1027.2 530.913 1029.24 531.006 1029.28 531.006C1029.61 531.006 1030.12 531.006 1030.12 530.125C1030.12 529.661 1029.7 529.661 1029 529.661C1026.45 529.661 1026.41 529.244 1026.27 527.853L1023.44 498.922C1023.35 497.995 1023.16 497.902 1022.65 497.902C1022.19 497.902 1021.91 497.995 1021.49 498.69L1005.27 525.859ZM1010.83 518.719L1020.15 503.141L1021.73 518.719H1010.83Z" fill="black"/>
</g>
</g>
</g>
<defs>
<clipPath id="clip0_3_1478">
<rect width="282.259" height="65.5861" fill="white" transform="translate(1173.66 606.855)"/>
</clipPath>
<clipPath id="clip1_3_1478">
<rect width="72.5486" height="43.0858" fill="white" transform="translate(520.096 578.296)"/>
</clipPath>
<clipPath id="clip2_3_1478">
<rect width="598.207" height="56.9133" fill="white" transform="translate(891.656 728.855)"/>
</clipPath>
</defs>
</svg>
