<svg width="1024" height="768" viewBox="0 0 1024 768" fill="none" xmlns="http://www.w3.org/2000/svg">
<g id="main">
<rect width="1024" height="768" fill="white"/>
<rect id="bordeaux" opacity="0.5" x="20" y="285.4" width="464" height="347" fill="#FF0000"/>
<rect id="warsawa" opacity="0.5" x="542" y="285.4" width="462" height="347" fill="#FF0000"/>
<path id="Antonio meets Slajdomat" d="M295.12 134.8L287.76 112.8H287.6L287.32 111.64L289.24 104.76H290.44L300.48 134.8H295.12ZM275.36 135.4V134.4H284.96V135.4H275.36ZM283.16 125.96V124.96H296.12V125.96H283.16ZM290.32 135.4V134.4H304.04V135.4H290.32ZM278.8 134.8L289.24 104.76H290.44L288 111.64L280.12 134.8H278.8ZM319.342 134.8V121.28C319.342 119.28 318.542 118.28 316.942 118.28C316.062 118.28 315.249 118.64 314.502 119.36C313.782 120.08 313.195 121.067 312.742 122.32C312.315 123.547 312.102 124.947 312.102 126.52L311.302 120.72H312.262C312.822 119.627 313.582 118.72 314.542 118C315.529 117.28 316.795 116.92 318.342 116.92C319.915 116.92 321.209 117.347 322.222 118.2C323.235 119.027 323.742 120.053 323.742 121.28V134.8H319.342ZM304.542 135.4V134.4H314.702V135.4H304.542ZM307.702 134.8V118.04H312.102V134.8H307.702ZM316.302 135.4V134.4H326.462V135.4H316.302ZM304.542 118.4V117.4H312.102V118.4H304.542ZM335.09 135.92C333.703 135.92 332.663 135.64 331.97 135.08C331.303 134.52 330.97 133.68 330.97 132.56V118.44H327.73V117.44C328.663 117.36 329.53 117 330.33 116.36C331.157 115.693 331.903 114.853 332.57 113.84C333.263 112.827 333.823 111.72 334.25 110.52H335.37V117.44H339.97V118.44H335.37V132.28C335.37 133.48 335.863 134.08 336.85 134.08C337.41 134.08 337.917 133.893 338.37 133.52C338.85 133.12 339.343 132.467 339.85 131.56L340.65 132C339.983 133.467 339.223 134.493 338.37 135.08C337.517 135.64 336.423 135.92 335.09 135.92ZM352.162 135.88C350.855 135.88 349.629 135.613 348.482 135.08C347.362 134.547 346.362 133.84 345.482 132.96C344.629 132.053 343.962 131.04 343.482 129.92C343.002 128.773 342.762 127.6 342.762 126.4C342.762 125.2 343.002 124.04 343.482 122.92C343.962 121.773 344.629 120.76 345.482 119.88C346.362 118.973 347.362 118.253 348.482 117.72C349.629 117.187 350.855 116.92 352.162 116.92C353.469 116.92 354.682 117.187 355.802 117.72C356.949 118.253 357.949 118.973 358.802 119.88C359.682 120.76 360.362 121.773 360.842 122.92C361.322 124.04 361.562 125.2 361.562 126.4C361.562 127.6 361.322 128.773 360.842 129.92C360.362 131.04 359.682 132.053 358.802 132.96C357.949 133.84 356.949 134.547 355.802 135.08C354.682 135.613 353.469 135.88 352.162 135.88ZM352.162 134.68C353.175 134.68 353.989 134.453 354.602 134C355.215 133.547 355.655 132.733 355.922 131.56C356.215 130.36 356.362 128.64 356.362 126.4C356.362 124.16 356.215 122.44 355.922 121.24C355.655 120.04 355.215 119.227 354.602 118.8C353.989 118.347 353.175 118.12 352.162 118.12C351.149 118.12 350.335 118.347 349.722 118.8C349.109 119.227 348.655 120.04 348.362 121.24C348.095 122.44 347.962 124.16 347.962 126.4C347.962 128.64 348.095 130.36 348.362 131.56C348.655 132.733 349.109 133.547 349.722 134C350.335 134.453 351.149 134.68 352.162 134.68ZM379.303 134.8V121.28C379.303 119.28 378.503 118.28 376.903 118.28C376.023 118.28 375.209 118.64 374.463 119.36C373.743 120.08 373.156 121.067 372.703 122.32C372.276 123.547 372.063 124.947 372.063 126.52L371.263 120.72H372.223C372.783 119.627 373.543 118.72 374.503 118C375.489 117.28 376.756 116.92 378.303 116.92C379.876 116.92 381.169 117.347 382.183 118.2C383.196 119.027 383.703 120.053 383.703 121.28V134.8H379.303ZM364.503 135.4V134.4H374.663V135.4H364.503ZM367.663 134.8V118.04H372.063V134.8H367.663ZM376.263 135.4V134.4H386.423V135.4H376.263ZM364.503 118.4V117.4H372.063V118.4H364.503ZM391.771 134.8V118.4H396.171V134.8H391.771ZM388.611 135.4V134.4H399.371V135.4H388.611ZM388.211 118.76V117.76H396.171V118.76H388.211ZM393.891 111.48C393.171 111.48 392.544 111.227 392.011 110.72C391.504 110.187 391.251 109.56 391.251 108.84C391.251 108.12 391.504 107.507 392.011 107C392.544 106.467 393.171 106.2 393.891 106.2C394.611 106.2 395.224 106.467 395.731 107C396.264 107.507 396.531 108.12 396.531 108.84C396.531 109.56 396.264 110.187 395.731 110.72C395.224 111.227 394.611 111.48 393.891 111.48ZM411.654 135.88C410.347 135.88 409.121 135.613 407.974 135.08C406.854 134.547 405.854 133.84 404.974 132.96C404.121 132.053 403.454 131.04 402.974 129.92C402.494 128.773 402.254 127.6 402.254 126.4C402.254 125.2 402.494 124.04 402.974 122.92C403.454 121.773 404.121 120.76 404.974 119.88C405.854 118.973 406.854 118.253 407.974 117.72C409.121 117.187 410.347 116.92 411.654 116.92C412.961 116.92 414.174 117.187 415.294 117.72C416.441 118.253 417.441 118.973 418.294 119.88C419.174 120.76 419.854 121.773 420.334 122.92C420.814 124.04 421.054 125.2 421.054 126.4C421.054 127.6 420.814 128.773 420.334 129.92C419.854 131.04 419.174 132.053 418.294 132.96C417.441 133.84 416.441 134.547 415.294 135.08C414.174 135.613 412.961 135.88 411.654 135.88ZM411.654 134.68C412.667 134.68 413.481 134.453 414.094 134C414.707 133.547 415.147 132.733 415.414 131.56C415.707 130.36 415.854 128.64 415.854 126.4C415.854 124.16 415.707 122.44 415.414 121.24C415.147 120.04 414.707 119.227 414.094 118.8C413.481 118.347 412.667 118.12 411.654 118.12C410.641 118.12 409.827 118.347 409.214 118.8C408.601 119.227 408.147 120.04 407.854 121.24C407.587 122.44 407.454 124.16 407.454 126.4C407.454 128.64 407.587 130.36 407.854 131.56C408.147 132.733 408.601 133.547 409.214 134C409.827 134.453 410.641 134.68 411.654 134.68ZM458.157 134.8V121.28C458.157 119.28 457.397 118.28 455.877 118.28C455.024 118.28 454.237 118.64 453.517 119.36C452.797 120.08 452.224 121.067 451.797 122.32C451.371 123.547 451.157 124.947 451.157 126.52L450.357 120.72H451.317C451.851 119.627 452.597 118.72 453.557 118C454.544 117.28 455.784 116.92 457.277 116.92C458.824 116.92 460.091 117.347 461.077 118.2C462.064 119.027 462.557 120.053 462.557 121.28V134.8H458.157ZM432.197 135.4V134.4H442.357V135.4H432.197ZM435.357 134.8V118.04H439.757V134.8H435.357ZM443.717 135.4V134.4H453.877V135.4H443.717ZM432.197 118.4V117.4H439.757V118.4H432.197ZM446.757 134.8V121.28C446.757 119.28 445.997 118.28 444.477 118.28C443.624 118.28 442.837 118.64 442.117 119.36C441.397 120.08 440.824 121.067 440.397 122.32C439.971 123.547 439.757 124.947 439.757 126.52L438.957 120.72H439.917C440.451 119.627 441.197 118.72 442.157 118C443.144 117.28 444.384 116.92 445.877 116.92C447.424 116.92 448.691 117.347 449.677 118.2C450.664 119.027 451.157 120.053 451.157 121.28V134.8H446.757ZM455.117 135.4V134.4H465.277V135.4H455.117ZM477.116 135.88C475.836 135.88 474.623 135.627 473.476 135.12C472.356 134.587 471.37 133.88 470.516 133C469.663 132.093 468.996 131.08 468.516 129.96C468.036 128.813 467.796 127.627 467.796 126.4C467.796 124.773 468.17 123.24 468.916 121.8C469.69 120.36 470.756 119.187 472.116 118.28C473.476 117.373 475.076 116.92 476.916 116.92C478.356 116.92 479.65 117.253 480.796 117.92C481.97 118.56 482.89 119.467 483.556 120.64C484.223 121.813 484.556 123.16 484.556 124.68V124.92H471.476V123.92H479.916V121.64C479.916 119.213 478.85 118 476.716 118C475.836 118 475.116 118.267 474.556 118.8C474.023 119.307 473.623 120.173 473.356 121.4C473.116 122.627 472.996 124.293 472.996 126.4C472.996 128.56 473.13 130.24 473.396 131.44C473.663 132.64 474.103 133.48 474.716 133.96C475.356 134.44 476.196 134.68 477.236 134.68C478.65 134.68 479.876 134.32 480.916 133.6C481.956 132.88 482.836 131.627 483.556 129.84H484.676C484.143 131.707 483.196 133.187 481.836 134.28C480.503 135.347 478.93 135.88 477.116 135.88ZM497.312 135.88C496.032 135.88 494.818 135.627 493.672 135.12C492.552 134.587 491.565 133.88 490.712 133C489.858 132.093 489.192 131.08 488.712 129.96C488.232 128.813 487.992 127.627 487.992 126.4C487.992 124.773 488.365 123.24 489.112 121.8C489.885 120.36 490.952 119.187 492.312 118.28C493.672 117.373 495.272 116.92 497.112 116.92C498.552 116.92 499.845 117.253 500.992 117.92C502.165 118.56 503.085 119.467 503.752 120.64C504.418 121.813 504.752 123.16 504.752 124.68V124.92H491.672V123.92H500.112V121.64C500.112 119.213 499.045 118 496.912 118C496.032 118 495.312 118.267 494.752 118.8C494.218 119.307 493.818 120.173 493.552 121.4C493.312 122.627 493.192 124.293 493.192 126.4C493.192 128.56 493.325 130.24 493.592 131.44C493.858 132.64 494.298 133.48 494.912 133.96C495.552 134.44 496.392 134.68 497.432 134.68C498.845 134.68 500.072 134.32 501.112 133.6C502.152 132.88 503.032 131.627 503.752 129.84H504.872C504.338 131.707 503.392 133.187 502.032 134.28C500.698 135.347 499.125 135.88 497.312 135.88ZM514.387 135.92C513 135.92 511.96 135.64 511.267 135.08C510.6 134.52 510.267 133.68 510.267 132.56V118.44H507.027V117.44C507.96 117.36 508.827 117 509.627 116.36C510.454 115.693 511.2 114.853 511.867 113.84C512.56 112.827 513.12 111.72 513.547 110.52H514.667V117.44H519.267V118.44H514.667V132.28C514.667 133.48 515.16 134.08 516.147 134.08C516.707 134.08 517.214 133.893 517.667 133.52C518.147 133.12 518.64 132.467 519.147 131.56L519.947 132C519.28 133.467 518.52 134.493 517.667 135.08C516.814 135.64 515.72 135.92 514.387 135.92ZM530.248 135.88C529.154 135.88 528.088 135.693 527.048 135.32C526.034 134.947 525.208 134.453 524.568 133.84L523.968 135.4H522.808V129.28H524.088L524.288 130.04C524.661 131.48 525.328 132.573 526.288 133.32C527.274 134.067 528.581 134.44 530.208 134.44C531.541 134.44 532.474 134.213 533.008 133.76C533.541 133.28 533.808 132.6 533.808 131.72C533.808 130.84 533.448 130.2 532.728 129.8C532.008 129.373 530.901 129 529.408 128.68C528.128 128.413 527.008 128.08 526.048 127.68C525.114 127.253 524.381 126.667 523.848 125.92C523.314 125.147 523.048 124.093 523.048 122.76C523.048 120.867 523.594 119.427 524.688 118.44C525.781 117.427 527.341 116.92 529.368 116.92C530.514 116.92 531.501 117.08 532.328 117.4C533.181 117.72 533.781 118.16 534.128 118.72L534.568 117.4H535.608V123.2H534.368L534.248 122.6C533.954 121.107 533.434 120.027 532.688 119.36C531.968 118.693 530.888 118.36 529.448 118.36C528.168 118.36 527.208 118.613 526.567 119.12C525.954 119.6 525.648 120.28 525.648 121.16C525.648 121.587 525.768 121.973 526.008 122.32C526.248 122.64 526.688 122.933 527.328 123.2C527.994 123.467 528.914 123.733 530.088 124C531.448 124.293 532.594 124.667 533.528 125.12C534.461 125.573 535.168 126.173 535.648 126.92C536.154 127.667 536.408 128.64 536.408 129.84C536.408 131.68 535.848 133.147 534.728 134.24C533.608 135.333 532.114 135.88 530.248 135.88ZM557.789 135.88C556.349 135.88 555.109 135.68 554.069 135.28C553.055 134.88 552.055 134.293 551.069 133.52L549.629 135.4H548.629V127H549.669C549.989 128.28 550.482 129.507 551.149 130.68C551.815 131.827 552.709 132.773 553.829 133.52C554.975 134.267 556.402 134.64 558.109 134.64C559.629 134.64 560.882 134.36 561.869 133.8C562.882 133.213 563.629 132.48 564.109 131.6C564.615 130.693 564.869 129.76 564.869 128.8C564.869 127.947 564.682 127.2 564.309 126.56C563.962 125.92 563.442 125.373 562.749 124.92C562.055 124.44 561.242 124.027 560.309 123.68C559.375 123.333 558.322 123.027 557.149 122.76C555.229 122.307 553.655 121.667 552.429 120.84C551.229 120.013 550.335 119.013 549.749 117.84C549.162 116.64 548.869 115.253 548.869 113.68C548.869 111.733 549.295 110.107 550.149 108.8C551.002 107.467 552.122 106.467 553.509 105.8C554.895 105.107 556.375 104.76 557.949 104.76C559.229 104.76 560.335 104.947 561.269 105.32C562.229 105.667 563.202 106.227 564.189 107L565.229 105.24H566.229V113.4L565.229 113.44C564.589 110.907 563.642 109.027 562.389 107.8C561.135 106.573 559.602 105.96 557.789 105.96C556.695 105.96 555.669 106.187 554.709 106.64C553.775 107.093 553.029 107.707 552.469 108.48C551.909 109.227 551.629 110.093 551.629 111.08C551.629 111.907 551.802 112.6 552.149 113.16C552.495 113.693 552.989 114.147 553.629 114.52C554.269 114.893 555.015 115.213 555.869 115.48C556.749 115.747 557.709 116.027 558.749 116.32C560.669 116.827 562.269 117.493 563.549 118.32C564.829 119.12 565.789 120.16 566.429 121.44C567.095 122.693 567.429 124.253 567.429 126.12C567.429 129.133 566.589 131.52 564.909 133.28C563.255 135.013 560.882 135.88 557.789 135.88ZM573.118 134.8V105.88H577.518V134.8H573.118ZM569.958 135.4V134.4H580.718V135.4H569.958ZM569.958 106.24V105.24H577.518V106.24H569.958ZM587.793 135.88C586.353 135.88 585.18 135.467 584.273 134.64C583.367 133.813 582.913 132.733 582.913 131.4C582.913 130.12 583.34 129.027 584.193 128.12C585.073 127.213 586.313 126.52 587.913 126.04C589.513 125.533 591.407 125.28 593.593 125.28V120.4C593.593 119.707 593.327 119.16 592.793 118.76C592.26 118.36 591.527 118.16 590.593 118.16C589.793 118.16 589.14 118.293 588.633 118.56C588.127 118.827 587.873 119.173 587.873 119.6C587.873 119.867 587.967 120.107 588.153 120.32C588.34 120.533 588.433 120.867 588.433 121.32C588.433 121.88 588.22 122.347 587.793 122.72C587.393 123.067 586.873 123.24 586.233 123.24C585.593 123.24 585.087 123.053 584.713 122.68C584.34 122.28 584.153 121.787 584.153 121.2C584.153 120.4 584.473 119.68 585.113 119.04C585.753 118.373 586.62 117.853 587.713 117.48C588.807 117.107 590.033 116.92 591.393 116.92C593.34 116.92 594.927 117.307 596.153 118.08C597.38 118.827 597.993 119.813 597.993 121.04V133.2C597.993 133.467 598.073 133.693 598.233 133.88C598.42 134.04 598.633 134.12 598.873 134.12C599.113 134.12 599.393 134 599.713 133.76C600.033 133.493 600.433 133.093 600.913 132.56L601.473 133.2C600.22 134.987 598.82 135.88 597.273 135.88C596.34 135.88 595.567 135.627 594.953 135.12C594.367 134.587 593.967 133.853 593.753 132.92H593.593C593.087 133.773 592.287 134.48 591.193 135.04C590.1 135.6 588.967 135.88 587.793 135.88ZM590.193 133.68C591.207 133.68 592.02 133.307 592.633 132.56C593.273 131.787 593.593 130.787 593.593 129.56V126.32C591.593 126.32 590.087 126.693 589.073 127.44C588.06 128.16 587.553 129.227 587.553 130.64C587.553 131.6 587.78 132.347 588.233 132.88C588.713 133.413 589.367 133.68 590.193 133.68ZM603.075 148.44C601.929 148.44 601.049 148.16 600.435 147.6C599.822 147.067 599.515 146.413 599.515 145.64C599.515 144.947 599.729 144.387 600.155 143.96C600.582 143.533 601.102 143.32 601.715 143.32C602.249 143.32 602.715 143.48 603.115 143.8C603.542 144.12 603.755 144.547 603.755 145.08C603.755 145.267 603.729 145.48 603.675 145.72C603.649 145.987 603.635 146.2 603.635 146.36C603.635 146.627 603.715 146.813 603.875 146.92C604.035 147.053 604.195 147.12 604.355 147.12C604.675 147.12 604.982 146.853 605.275 146.32C605.595 145.813 605.755 144.8 605.755 143.28V118.4H602.195V117.4H610.155V137.28C610.155 139.787 609.835 141.867 609.195 143.52C608.582 145.173 607.742 146.4 606.675 147.2C605.609 148.027 604.409 148.44 603.075 148.44ZM607.875 111.48C607.155 111.48 606.529 111.227 605.995 110.72C605.489 110.187 605.235 109.56 605.235 108.84C605.235 108.12 605.489 107.507 605.995 107C606.529 106.467 607.155 106.2 607.875 106.2C608.595 106.2 609.209 106.467 609.715 107C610.249 107.507 610.515 108.12 610.515 108.84C610.515 109.56 610.249 110.187 609.715 110.72C609.209 111.227 608.595 111.48 607.875 111.48ZM624.078 135.88C622.745 135.88 621.478 135.493 620.278 134.72C619.105 133.92 618.145 132.813 617.398 131.4C616.678 129.96 616.318 128.293 616.318 126.4C616.318 124.507 616.678 122.853 617.398 121.44C618.145 120 619.105 118.893 620.278 118.12C621.452 117.32 622.705 116.92 624.038 116.92C625.292 116.92 626.385 117.187 627.318 117.72C628.278 118.253 628.972 118.92 629.398 119.72H630.358L629.558 125.8C629.558 123.187 629.078 121.28 628.118 120.08C627.185 118.88 625.998 118.28 624.558 118.28C623.812 118.28 623.212 118.507 622.758 118.96C622.305 119.387 621.972 120.187 621.758 121.36C621.545 122.533 621.438 124.227 621.438 126.44C621.438 128.627 621.532 130.307 621.718 131.48C621.932 132.653 622.265 133.453 622.718 133.88C623.172 134.307 623.772 134.52 624.518 134.52C625.958 134.52 627.158 133.92 628.118 132.72C629.078 131.493 629.558 129.587 629.558 127L630.358 133.08H629.398C628.972 133.88 628.292 134.547 627.358 135.08C626.425 135.613 625.332 135.88 624.078 135.88ZM629.558 135.4V134.4H636.678V135.4H629.558ZM629.558 134.8V105.88H633.958V134.8H629.558ZM625.598 106.24V105.24H633.958V106.24H625.598ZM648.373 135.88C647.066 135.88 645.839 135.613 644.693 135.08C643.573 134.547 642.573 133.84 641.693 132.96C640.839 132.053 640.173 131.04 639.693 129.92C639.213 128.773 638.973 127.6 638.973 126.4C638.973 125.2 639.213 124.04 639.693 122.92C640.173 121.773 640.839 120.76 641.693 119.88C642.573 118.973 643.573 118.253 644.693 117.72C645.839 117.187 647.066 116.92 648.373 116.92C649.679 116.92 650.893 117.187 652.013 117.72C653.159 118.253 654.159 118.973 655.013 119.88C655.893 120.76 656.573 121.773 657.053 122.92C657.533 124.04 657.773 125.2 657.773 126.4C657.773 127.6 657.533 128.773 657.053 129.92C656.573 131.04 655.893 132.053 655.013 132.96C654.159 133.84 653.159 134.547 652.013 135.08C650.893 135.613 649.679 135.88 648.373 135.88ZM648.373 134.68C649.386 134.68 650.199 134.453 650.813 134C651.426 133.547 651.866 132.733 652.133 131.56C652.426 130.36 652.573 128.64 652.573 126.4C652.573 124.16 652.426 122.44 652.133 121.24C651.866 120.04 651.426 119.227 650.813 118.8C650.199 118.347 649.386 118.12 648.373 118.12C647.359 118.12 646.546 118.347 645.933 118.8C645.319 119.227 644.866 120.04 644.573 121.24C644.306 122.44 644.173 124.16 644.173 126.4C644.173 128.64 644.306 130.36 644.573 131.56C644.866 132.733 645.319 133.547 645.933 134C646.546 134.453 647.359 134.68 648.373 134.68ZM686.634 134.8V121.28C686.634 119.28 685.874 118.28 684.354 118.28C683.5 118.28 682.714 118.64 681.994 119.36C681.274 120.08 680.7 121.067 680.274 122.32C679.847 123.547 679.634 124.947 679.634 126.52L678.834 120.72H679.794C680.327 119.627 681.074 118.72 682.034 118C683.02 117.28 684.26 116.92 685.754 116.92C687.3 116.92 688.567 117.347 689.554 118.2C690.54 119.027 691.034 120.053 691.034 121.28V134.8H686.634ZM660.674 135.4V134.4H670.834V135.4H660.674ZM663.834 134.8V118.04H668.234V134.8H663.834ZM672.194 135.4V134.4H682.354V135.4H672.194ZM660.674 118.4V117.4H668.234V118.4H660.674ZM675.234 134.8V121.28C675.234 119.28 674.474 118.28 672.954 118.28C672.1 118.28 671.314 118.64 670.594 119.36C669.874 120.08 669.3 121.067 668.874 122.32C668.447 123.547 668.234 124.947 668.234 126.52L667.434 120.72H668.394C668.927 119.627 669.674 118.72 670.634 118C671.62 117.28 672.86 116.92 674.354 116.92C675.9 116.92 677.167 117.347 678.154 118.2C679.14 119.027 679.634 120.053 679.634 121.28V134.8H675.234ZM683.594 135.4V134.4H693.754V135.4H683.594ZM701.153 135.88C699.713 135.88 698.539 135.467 697.633 134.64C696.726 133.813 696.273 132.733 696.273 131.4C696.273 130.12 696.699 129.027 697.553 128.12C698.433 127.213 699.673 126.52 701.273 126.04C702.873 125.533 704.766 125.28 706.953 125.28V120.4C706.953 119.707 706.686 119.16 706.153 118.76C705.619 118.36 704.886 118.16 703.953 118.16C703.153 118.16 702.499 118.293 701.993 118.56C701.486 118.827 701.233 119.173 701.233 119.6C701.233 119.867 701.326 120.107 701.513 120.32C701.699 120.533 701.793 120.867 701.793 121.32C701.793 121.88 701.579 122.347 701.153 122.72C700.753 123.067 700.233 123.24 699.593 123.24C698.953 123.24 698.446 123.053 698.073 122.68C697.699 122.28 697.513 121.787 697.513 121.2C697.513 120.4 697.833 119.68 698.473 119.04C699.113 118.373 699.979 117.853 701.073 117.48C702.166 117.107 703.393 116.92 704.753 116.92C706.699 116.92 708.286 117.307 709.513 118.08C710.739 118.827 711.353 119.813 711.353 121.04V133.2C711.353 133.467 711.433 133.693 711.593 133.88C711.779 134.04 711.993 134.12 712.233 134.12C712.473 134.12 712.753 134 713.073 133.76C713.393 133.493 713.793 133.093 714.273 132.56L714.833 133.2C713.579 134.987 712.179 135.88 710.633 135.88C709.699 135.88 708.926 135.627 708.313 135.12C707.726 134.587 707.326 133.853 707.113 132.92H706.953C706.446 133.773 705.646 134.48 704.553 135.04C703.459 135.6 702.326 135.88 701.153 135.88ZM703.553 133.68C704.566 133.68 705.379 133.307 705.993 132.56C706.633 131.787 706.953 130.787 706.953 129.56V126.32C704.953 126.32 703.446 126.693 702.433 127.44C701.419 128.16 700.913 129.227 700.913 130.64C700.913 131.6 701.139 132.347 701.593 132.88C702.073 133.413 702.726 133.68 703.553 133.68ZM722.707 135.92C721.321 135.92 720.281 135.64 719.587 135.08C718.921 134.52 718.587 133.68 718.587 132.56V118.44H715.347V117.44C716.281 117.36 717.147 117 717.947 116.36C718.774 115.693 719.521 114.853 720.187 113.84C720.881 112.827 721.441 111.72 721.867 110.52H722.987V117.44H727.587V118.44H722.987V132.28C722.987 133.48 723.481 134.08 724.467 134.08C725.027 134.08 725.534 133.893 725.987 133.52C726.467 133.12 726.961 132.467 727.467 131.56L728.267 132C727.601 133.467 726.841 134.493 725.987 135.08C725.134 135.64 724.041 135.92 722.707 135.92Z" fill="black"/>
<path id="Bordeaux,_Nov_2023" d="M118.88 268.72C116.64 268.72 115.52 267.84 115.52 266.08C115.52 265.253 115.8 264.547 116.36 263.96C116.92 263.347 117.587 263.04 118.36 263.04C118.92 263.04 119.36 263.227 119.68 263.6C119.92 263.92 120.04 264.267 120.04 264.64C120.04 264.96 119.973 265.28 119.84 265.6C119.733 265.893 119.533 266.147 119.24 266.36C118.813 266.76 118.32 266.96 117.76 266.96C117.28 266.96 116.88 266.8 116.56 266.48C116.853 267.253 117.613 267.64 118.84 267.64C119.16 267.64 119.453 267.6 119.72 267.52C122.013 266.907 124.013 265.587 125.72 263.56C127.187 261.773 129.107 258.547 131.48 253.88L137.44 242.16C137.76 241.547 138.12 240.987 138.52 240.48C138.947 239.947 139.387 239.467 139.84 239.04C138.827 239.067 137.76 239.2 136.64 239.44C135.547 239.68 134.4 240 133.2 240.4C130.773 241.227 128.88 242.187 127.52 243.28C124.907 245.333 123.6 247.24 123.6 249C123.6 250.04 124.2 250.56 125.4 250.56C126.813 250.56 128.293 250.107 129.84 249.2C131.253 248.373 132.48 247.32 133.52 246.04C133.6 245.96 133.68 245.92 133.76 245.92C133.947 245.92 134.04 245.987 134.04 246.12C134.04 247.16 132.76 248.36 130.2 249.72C127.853 251 126.067 251.64 124.84 251.64C122.36 251.64 121.12 250.693 121.12 248.8C121.12 247.92 121.467 246.987 122.16 246C122.987 244.827 124.093 243.773 125.48 242.84C126.867 241.88 128.547 241.04 130.52 240.32C133.933 239.067 137.267 238.427 140.52 238.4C142.2 236.96 143.933 236.24 145.72 236.24C146.467 236.24 147.173 236.387 147.84 236.68C147.973 236.733 148.04 236.827 148.04 236.96C148.04 237.36 147.933 237.493 147.72 237.36C147.293 237.12 146.76 237 146.12 237C144.84 237 143.613 237.48 142.44 238.44C144.653 238.653 146.307 239.267 147.4 240.28C148.307 241.187 148.76 242.227 148.76 243.4C148.76 245.16 148 246.92 146.48 248.68C145.013 250.387 143.2 251.613 141.04 252.36C144.667 253 146.48 254.76 146.48 257.64C146.48 260.04 145.24 262.347 142.76 264.56C140.067 266.933 136.813 268.253 133 268.52C132.813 268.547 132.613 268.56 132.4 268.56C132.213 268.56 132.013 268.56 131.8 268.56C128.307 268.56 126.573 267.507 126.6 265.4C123.907 267.613 121.333 268.72 118.88 268.72ZM135.52 252.32C136.053 252.267 136.573 252.227 137.08 252.2C137.613 252.147 138.12 252.12 138.6 252.12C140.6 251.773 142.347 250.747 143.84 249.04C145.387 247.28 146.16 245.44 146.16 243.52C146.16 242.48 145.853 241.587 145.24 240.84C144.467 239.88 143.293 239.293 141.72 239.08C141.213 239.587 140.76 240.173 140.36 240.84C139.987 241.48 139.64 242.187 139.32 242.96L135.52 252.32ZM131.56 267.88C132.093 267.88 132.68 267.813 133.32 267.68C133.96 267.547 134.68 267.36 135.48 267.12C137.8 266.373 139.733 265.08 141.28 263.24C142.88 261.347 143.68 259.533 143.68 257.8C143.68 256.44 143.173 255.36 142.16 254.56C141.04 253.68 139.4 253.24 137.24 253.24C136.573 253.24 135.853 253.28 135.08 253.36C134.867 253.893 134.573 254.547 134.2 255.32C133.853 256.093 133.413 256.96 132.88 257.92C132.693 258.24 132.493 258.573 132.28 258.92C132.067 259.267 131.827 259.627 131.56 260C132.627 259.467 133.72 259.013 134.84 258.64C135.987 258.24 137.173 257.907 138.4 257.64C138.773 257.56 139.053 257.52 139.24 257.52C139.533 257.52 139.68 257.573 139.68 257.68C139.68 257.947 139.267 258.173 138.44 258.36C134.893 259.293 132.2 260.72 130.36 262.64C129.213 263.813 128.64 264.84 128.64 265.72C128.64 266.173 128.787 266.587 129.08 266.96C129.613 267.573 130.44 267.88 131.56 267.88ZM151.791 266.4C149.844 266.4 148.871 265.213 148.871 262.84C148.871 261.667 149.151 260.427 149.711 259.12C150.511 257.227 151.644 255.627 153.111 254.32C154.551 253.04 155.911 252.4 157.191 252.4C159.164 252.4 160.151 253.56 160.151 255.88C160.151 257.08 159.857 258.347 159.271 259.68C158.577 261.28 157.577 262.733 156.271 264.04C154.644 265.613 153.151 266.4 151.791 266.4ZM152.431 265.52C153.044 265.52 153.697 265.267 154.391 264.76C155.271 264.12 156.271 262.787 157.391 260.76C158.617 258.573 159.231 256.813 159.231 255.48C159.231 254.28 158.724 253.68 157.711 253.68C156.911 253.68 156.004 254.187 154.991 255.2C154.004 256.187 153.164 257.44 152.471 258.96C151.537 260.96 151.071 262.56 151.071 263.76C151.071 264.933 151.524 265.52 152.431 265.52ZM159.353 266.68C159.86 265.4 160.526 263.8 161.353 261.88C162.206 259.96 163.166 257.773 164.233 255.32C164.446 254.787 164.646 254.36 164.833 254.04C165.046 253.72 165.233 253.467 165.393 253.28C165.74 252.88 166.206 252.72 166.793 252.8L167.633 252.92C167.82 252.947 167.98 252.973 168.113 253C168.273 253 168.406 252.987 168.513 252.96C167.98 253.227 167.353 253.987 166.633 255.24C165.94 256.467 165.166 258.147 164.313 260.28C164.606 259.907 164.98 259.413 165.433 258.8C165.886 258.16 166.46 257.427 167.153 256.6C167.926 255.693 168.726 254.853 169.553 254.08C170.38 253.307 171.18 252.92 171.953 252.92C172.566 252.92 173.006 253.12 173.273 253.52C173.54 253.92 173.673 254.373 173.673 254.88C173.673 255.493 173.433 256.04 172.953 256.52C172.473 257 172.006 257.24 171.553 257.24C171.366 257.24 171.166 257.2 170.953 257.12C170.766 257.04 170.673 256.92 170.673 256.76C170.673 256.627 170.7 256.507 170.753 256.4C170.806 256.267 170.833 256.12 170.833 255.96C170.833 255.56 170.646 255.36 170.273 255.36C170.14 255.36 169.953 255.4 169.713 255.48C169.5 255.533 169.206 255.747 168.833 256.12C168.086 256.813 167.273 257.653 166.393 258.64C165.54 259.6 164.726 260.68 163.953 261.88C163.206 263.08 162.593 264.4 162.113 265.84C161.98 266.24 161.58 266.453 160.913 266.48C160.006 266.533 159.486 266.6 159.353 266.68ZM182.55 266.4C181.003 266.4 180.23 265.413 180.23 263.44C180.23 262.587 180.377 261.787 180.67 261.04C178.67 264.56 176.75 266.32 174.91 266.32C174.803 266.32 174.697 266.32 174.59 266.32C174.483 266.293 174.363 266.267 174.23 266.24C172.897 265.867 172.23 264.853 172.23 263.2C172.23 261.973 172.563 260.613 173.23 259.12C173.55 258.4 173.897 257.72 174.27 257.08C174.67 256.413 175.11 255.8 175.59 255.24C177.27 253.213 179.19 252.2 181.35 252.2C182.31 252.2 183.203 252.44 184.03 252.92C184.483 252.04 185.017 250.813 185.63 249.24C186.27 247.64 187.003 245.707 187.83 243.44C188.15 242.56 188.483 241.987 188.83 241.72C189.23 241.453 189.763 241.333 190.43 241.36L191.27 241.48C191.457 241.507 191.617 241.533 191.75 241.56C191.883 241.56 192.003 241.547 192.11 241.52C191.843 241.813 191.35 242.64 190.63 244C189.91 245.333 188.977 247.213 187.83 249.64C186.657 252.093 185.657 254.28 184.83 256.2C184.03 258.12 183.39 259.747 182.91 261.08C182.51 262.2 182.31 263.173 182.31 264C182.31 264.907 182.617 265.36 183.23 265.36C184.03 265.36 184.883 264.627 185.79 263.16L185.95 262.96L186.59 263.28L186.43 263.48C185.203 265.427 183.91 266.4 182.55 266.4ZM175.31 265.2C176.19 265.2 177.257 264.333 178.51 262.6C179.843 260.707 181.617 257.693 183.83 253.56C183.51 253.24 183.123 253.08 182.67 253.08C181.577 253.08 180.297 253.813 178.83 255.28C177.443 256.64 176.283 258.2 175.35 259.96C174.603 261.347 174.23 262.56 174.23 263.6C174.23 264.667 174.59 265.2 175.31 265.2ZM191.531 266.56C190.491 266.56 189.598 266.227 188.851 265.56C188.451 265.187 188.158 264.76 187.971 264.28C187.811 263.773 187.731 263.2 187.731 262.56C187.731 260.107 188.745 257.667 190.771 255.24C192.478 253.187 194.251 252.16 196.091 252.16C196.705 252.16 197.225 252.32 197.651 252.64C198.105 253.013 198.331 253.493 198.331 254.08C198.331 255.547 197.358 257.013 195.411 258.48C194.798 258.933 193.985 259.333 192.971 259.68C191.851 260.053 191.038 260.24 190.531 260.24C190.158 261.147 189.971 262.107 189.971 263.12C189.971 264.853 190.611 265.72 191.891 265.72C193.571 265.72 195.145 264.627 196.611 262.44L196.771 262.2L197.451 262.48L197.331 262.72C196.665 264.053 195.825 265.027 194.811 265.64C193.798 266.253 192.705 266.56 191.531 266.56ZM190.771 259.56C191.225 259.56 191.851 259.413 192.651 259.12C193.105 258.933 193.531 258.733 193.931 258.52C194.358 258.307 194.731 258.067 195.051 257.8C196.518 256.573 197.251 255.28 197.251 253.92C197.251 253.333 197.038 253.04 196.611 253.04C195.865 253.04 194.731 253.96 193.211 255.8C192.438 256.733 191.625 257.987 190.771 259.56ZM208.037 266.48C207.451 266.48 206.971 266.307 206.597 265.96C206.064 265.507 205.797 264.747 205.797 263.68C205.797 262.987 205.917 262.2 206.157 261.32C205.251 262.84 204.304 264.08 203.317 265.04C202.304 265.973 201.397 266.44 200.597 266.44C199.904 266.44 199.357 266.133 198.957 265.52C198.531 264.933 198.317 264.12 198.317 263.08C198.317 260.547 199.451 257.933 201.717 255.24C202.091 254.787 202.517 254.373 202.997 254C203.477 253.627 203.997 253.293 204.557 253C205.704 252.413 206.811 252.12 207.877 252.12C209.184 252.12 210.224 252.547 210.997 253.4C211.184 253.587 211.277 253.8 211.277 254.04C211.277 254.493 211.037 254.667 210.557 254.56C210.291 253.6 209.664 253.12 208.677 253.12C207.557 253.12 206.237 253.907 204.717 255.48C204.184 256.067 203.677 256.68 203.197 257.32C202.717 257.933 202.264 258.587 201.837 259.28C200.691 261.2 200.117 262.76 200.117 263.96C200.117 264.867 200.464 265.32 201.157 265.32C201.931 265.32 202.824 264.733 203.837 263.56C204.397 262.92 204.971 262.133 205.557 261.2C206.144 260.267 206.757 259.187 207.397 257.96C207.664 257.453 207.904 257.04 208.117 256.72C208.331 256.4 208.504 256.16 208.637 256C209.064 255.573 209.571 255.373 210.157 255.4L210.957 255.52C211.304 255.6 211.597 255.613 211.837 255.56C211.597 255.8 211.304 256.187 210.957 256.72C210.637 257.227 210.264 257.893 209.837 258.72C209.384 259.6 209.011 260.4 208.717 261.12C208.424 261.84 208.224 262.48 208.117 263.04C208.064 263.307 208.024 263.56 207.997 263.8C207.971 264.013 207.957 264.213 207.957 264.4C207.957 265.093 208.144 265.44 208.517 265.44C209.051 265.44 209.784 264.853 210.717 263.68L210.877 263.48L211.437 263.84L211.277 264.08C210.184 265.68 209.104 266.48 208.037 266.48ZM215.373 266.36C213.666 266.36 212.813 265.56 212.813 263.96C212.813 263.4 212.973 262.653 213.293 261.72C213.613 260.76 214.066 259.627 214.653 258.32L216.853 253.48C217.093 252.92 217.613 252.64 218.413 252.64H220.813C219.88 253.333 219.026 254.453 218.253 256C217.96 256.587 217.6 257.32 217.173 258.2C216.773 259.053 216.306 260.04 215.773 261.16C215.266 262.2 215.013 263.133 215.013 263.96C215.013 264.813 215.306 265.24 215.893 265.24C216.533 265.24 217.293 264.733 218.173 263.72C219.64 262.013 221.613 258.6 224.093 253.48C224.386 252.92 224.893 252.64 225.613 252.64H227.773C226.893 253.36 225.973 254.68 225.013 256.6C223.68 259.293 222.88 261.347 222.613 262.76C222.586 262.92 222.56 263.067 222.533 263.2C222.533 263.333 222.533 263.467 222.533 263.6C222.533 264.64 222.893 265.16 223.613 265.16C224.386 265.16 225.293 264.4 226.333 262.88L226.933 263.16C225.493 265.293 224.066 266.36 222.653 266.36C221.16 266.36 220.413 265.413 220.413 263.52C220.413 262.8 220.546 262.04 220.813 261.24C218.84 264.653 217.026 266.36 215.373 266.36ZM225.574 267.76C225.014 267.76 224.547 267.573 224.174 267.2C224.094 267.12 224.054 267.027 224.054 266.92C224.054 266.6 224.214 266.44 224.534 266.44C224.641 266.44 224.734 266.48 224.814 266.56C225.001 266.773 225.281 266.88 225.654 266.88C225.814 266.88 226.001 266.853 226.214 266.8C226.401 266.747 226.614 266.667 226.854 266.56C227.547 266.213 228.227 265.64 228.894 264.84C229.587 264.013 230.241 262.947 230.854 261.64C231.467 260.387 231.907 259.227 232.174 258.16C232.441 257.067 232.574 256.067 232.574 255.16C232.574 254.44 232.334 254.08 231.854 254.08C231.321 254.08 230.707 254.64 230.014 255.76L229.414 255.52C230.427 253.84 231.494 253 232.614 253C234.001 253 234.694 253.92 234.694 255.76C234.694 256.053 234.667 256.4 234.614 256.8C234.587 257.173 234.521 257.587 234.414 258.04C234.787 257.347 235.174 256.693 235.574 256.08C236.001 255.44 236.441 254.827 236.894 254.24C237.827 253.093 238.587 252.44 239.174 252.28C239.281 252.253 239.374 252.24 239.454 252.24C239.534 252.24 239.601 252.24 239.654 252.24C240.401 252.24 240.774 252.613 240.774 253.36C240.774 253.76 240.601 254.093 240.254 254.36C239.907 254.627 239.547 254.76 239.174 254.76C238.641 254.76 238.307 254.533 238.174 254.08C235.374 256.8 233.974 259.653 233.974 262.64C233.974 264.56 234.454 265.52 235.414 265.52C235.894 265.52 236.401 265.307 236.934 264.88C237.494 264.427 238.067 263.76 238.654 262.88L239.254 263.2C237.894 265.333 236.347 266.4 234.614 266.4C233.681 266.4 232.934 265.96 232.374 265.08C231.921 264.333 231.694 263.533 231.694 262.68C231.694 262.493 231.694 262.333 231.694 262.2C231.694 262.04 231.707 261.867 231.734 261.68C230.187 264.747 228.667 266.64 227.174 267.36C226.641 267.627 226.107 267.76 225.574 267.76ZM239.236 270.48C238.969 270.56 238.836 270.52 238.836 270.36C238.836 270.227 238.943 270.12 239.156 270.04C240.996 269.427 242.009 268.267 242.196 266.56C241.849 266.827 241.476 266.96 241.076 266.96C240.649 266.96 240.289 266.8 239.996 266.48C239.783 266.213 239.676 265.933 239.676 265.64C239.676 265.053 239.903 264.56 240.356 264.16C240.756 263.84 241.183 263.68 241.636 263.68C242.729 263.68 243.276 264.4 243.276 265.84C243.276 268 241.929 269.547 239.236 270.48ZM254.138 270.2C251.925 270.2 250.818 269.24 250.818 267.32C250.818 266.68 251.018 266.08 251.418 265.52C251.845 264.933 252.378 264.64 253.018 264.64C253.578 264.64 254.058 264.84 254.458 265.24C254.805 265.64 254.978 266.067 254.978 266.52C254.978 267.8 254.405 268.44 253.258 268.44C252.565 268.44 252.085 268.173 251.818 267.64C251.978 268.6 252.792 269.08 254.258 269.08C254.552 269.08 254.832 269.04 255.098 268.96C258.112 268.16 261.045 265.227 263.898 260.16C264.378 259.307 264.938 258.213 265.578 256.88C266.218 255.52 266.952 253.92 267.778 252.08C269.272 248.773 270.552 246.24 271.618 244.48C273.272 241.813 275.232 239.507 277.498 237.56L276.778 237.44C276.352 237.36 275.898 237.307 275.418 237.28C274.965 237.253 274.472 237.24 273.938 237.24C272.978 237.24 272.005 237.293 271.018 237.4C270.058 237.507 269.085 237.667 268.098 237.88C267.112 238.093 266.218 238.347 265.418 238.64C264.645 238.933 263.952 239.253 263.338 239.6C260.325 241.36 258.818 243.12 258.818 244.88C258.818 246.32 259.792 247.04 261.738 247.04C262.858 247.04 264.138 246.733 265.578 246.12C267.018 245.48 268.258 244.64 269.298 243.6C269.405 243.547 269.485 243.52 269.538 243.52C269.752 243.52 269.858 243.613 269.858 243.8C269.858 243.853 269.845 243.893 269.818 243.92C269.018 244.96 267.818 245.867 266.218 246.64C264.618 247.413 262.978 247.8 261.298 247.8C259.805 247.8 258.565 247.507 257.578 246.92C256.592 246.333 256.098 245.547 256.098 244.56C256.098 243.627 256.592 242.587 257.578 241.44C258.992 239.787 261.245 238.52 264.338 237.64C265.645 237.267 267.005 236.987 268.418 236.8C269.858 236.613 271.365 236.52 272.938 236.52C273.792 236.52 274.605 236.56 275.378 236.64C276.152 236.72 276.898 236.8 277.618 236.88C277.672 236.88 277.752 236.893 277.858 236.92C277.992 236.92 278.152 236.933 278.338 236.96C278.765 236.747 279.112 236.693 279.378 236.8C279.672 236.747 279.938 236.707 280.178 236.68C280.418 236.653 280.645 236.64 280.858 236.64C282.138 236.64 282.778 236.973 282.778 237.64C282.778 237.96 282.605 238.213 282.258 238.4C281.885 238.587 281.472 238.68 281.018 238.68C280.405 238.68 279.645 238.413 278.738 237.88C277.458 238.627 276.818 240.56 276.818 243.68C276.818 246.027 277.098 248.6 277.658 251.4C278.245 254.2 279.112 257.253 280.258 260.56C280.552 261.36 280.738 261.76 280.818 261.76C280.845 261.76 280.858 261.307 280.858 260.4C280.938 255.253 282.085 250.227 284.298 245.32C287.045 239.32 290.592 236.32 294.938 236.32C296.938 236.32 297.938 236.987 297.938 238.32C297.938 238.933 297.765 239.467 297.418 239.92C296.992 240.48 296.472 240.76 295.858 240.76C295.352 240.76 294.938 240.587 294.618 240.24C294.298 239.92 294.138 239.56 294.138 239.16C294.138 237.96 294.712 237.36 295.858 237.36C296.392 237.36 296.792 237.573 297.058 238C296.952 237.227 296.352 236.84 295.258 236.84C294.912 236.84 294.552 236.893 294.178 237C293.832 237.08 293.485 237.227 293.138 237.44C290.498 239.067 287.845 242.84 285.178 248.76C282.565 254.493 281.325 259.147 281.458 262.72C281.885 263.227 282.205 263.6 282.418 263.84C282.632 264.08 282.752 264.213 282.778 264.24C283.312 264.96 283.578 265.68 283.578 266.4C283.578 266.827 283.445 267.213 283.178 267.56C282.912 267.907 282.565 268.08 282.138 268.08C281.392 268.08 280.872 267.52 280.578 266.4C280.552 266.213 280.512 266.013 280.458 265.8C280.432 265.587 280.418 265.36 280.418 265.12C280.418 264.533 280.498 263.867 280.658 263.12C279.405 261.093 278.245 258.36 277.178 254.92C275.898 250.84 275.258 247.307 275.258 244.32C275.258 242.453 275.512 240.933 276.018 239.76C274.365 240.853 272.752 243.947 271.178 249.04C270.192 252.267 269.285 254.973 268.458 257.16C267.632 259.32 266.885 260.96 266.218 262.08C263.552 266.667 259.845 269.347 255.098 270.12C254.938 270.147 254.778 270.16 254.618 270.16C254.458 270.187 254.298 270.2 254.138 270.2ZM291.752 266.4C289.805 266.4 288.832 265.213 288.832 262.84C288.832 261.667 289.112 260.427 289.672 259.12C290.472 257.227 291.605 255.627 293.072 254.32C294.512 253.04 295.872 252.4 297.152 252.4C299.125 252.4 300.112 253.56 300.112 255.88C300.112 257.08 299.818 258.347 299.232 259.68C298.538 261.28 297.538 262.733 296.232 264.04C294.605 265.613 293.112 266.4 291.752 266.4ZM292.392 265.52C293.005 265.52 293.658 265.267 294.352 264.76C295.232 264.12 296.232 262.787 297.352 260.76C298.578 258.573 299.192 256.813 299.192 255.48C299.192 254.28 298.685 253.68 297.672 253.68C296.872 253.68 295.965 254.187 294.952 255.2C293.965 256.187 293.125 257.44 292.432 258.96C291.498 260.96 291.032 262.56 291.032 263.76C291.032 264.933 291.485 265.52 292.392 265.52ZM303.274 266.68C301.487 266.68 300.594 265.573 300.594 263.36C300.594 262.107 300.874 260.787 301.434 259.4C301.861 258.36 302.287 257.347 302.714 256.36C303.167 255.373 303.607 254.427 304.034 253.52C304.327 252.96 304.847 252.68 305.594 252.68H308.034C307.554 253.027 307.101 253.48 306.674 254.04C306.247 254.6 305.847 255.267 305.474 256.04C303.741 259.56 302.874 262.08 302.874 263.6C302.874 264.773 303.341 265.36 304.274 265.36C305.874 265.36 307.554 263.16 309.314 258.76C308.967 258.04 308.794 257.187 308.794 256.2C308.794 255.72 308.861 255.24 308.994 254.76C309.287 253.773 309.727 253.027 310.314 252.52C310.847 252.04 311.341 251.8 311.794 251.8C312.274 251.8 312.514 252.013 312.514 252.44L312.314 253.16C311.727 254.973 311.167 256.573 310.634 257.96C310.127 259.32 309.634 260.467 309.154 261.4C307.314 264.92 305.354 266.68 303.274 266.68ZM326.245 266.88C325.765 266.88 323.685 266.093 320.005 264.52L317.205 266.72L316.685 266.4C316.712 266.32 316.885 266.093 317.205 265.72C317.499 265.347 317.952 264.827 318.565 264.16C319.792 262.827 320.472 262.133 320.605 262.08C320.685 262.053 320.765 262.04 320.845 262.04C320.925 262.04 320.992 262.04 321.045 262.04C321.259 262.04 321.405 262.067 321.485 262.12C329.805 254.76 333.965 249.507 333.965 246.36C333.965 245.187 333.325 244.6 332.045 244.6C330.659 244.6 329.299 245.307 327.965 246.72C326.899 247.867 326.059 249.227 325.445 250.8L325.285 250.96H324.805L324.725 250.72C325.392 248.773 326.445 247.107 327.885 245.72C329.512 244.147 331.259 243.36 333.125 243.36C334.192 243.36 335.059 243.653 335.725 244.24C336.419 244.853 336.765 245.667 336.765 246.68C336.765 248.547 334.739 251.387 330.685 255.2C330.045 255.787 329.019 256.68 327.605 257.88C326.219 259.08 324.445 260.573 322.285 262.36C325.299 263.88 327.125 264.64 327.765 264.64C328.699 264.64 329.672 264.173 330.685 263.24C330.979 263 331.245 262.76 331.485 262.52C331.752 262.253 332.019 261.987 332.285 261.72L332.565 261.96V262.12C329.925 265.293 327.819 266.88 326.245 266.88ZM341.439 266.84C340.026 266.84 338.919 266.307 338.119 265.24C337.426 264.307 337.079 263.107 337.079 261.64C337.079 259.587 337.826 257.093 339.319 254.16C340.093 252.667 340.919 251.293 341.799 250.04C342.706 248.787 343.693 247.653 344.759 246.64C347.106 244.373 349.346 243.24 351.479 243.24C353.959 243.24 355.199 244.72 355.199 247.68C355.199 248.773 355.026 249.973 354.679 251.28C354.359 252.56 353.879 253.947 353.239 255.44C351.879 258.587 350.199 261.2 348.199 263.28C345.906 265.653 343.653 266.84 341.439 266.84ZM341.919 266.04C343.599 266.04 345.413 264.747 347.359 262.16C349.013 259.947 350.506 257.227 351.839 254C353.066 250.987 353.679 248.627 353.679 246.92C353.679 244.973 352.959 244 351.519 244C349.946 244 348.133 245.307 346.079 247.92C344.319 250.187 342.773 252.907 341.439 256.08C340.133 259.12 339.479 261.44 339.479 263.04C339.479 265.04 340.293 266.04 341.919 266.04ZM362.3 266.88C361.82 266.88 359.74 266.093 356.06 264.52L353.26 266.72L352.74 266.4C352.767 266.32 352.94 266.093 353.26 265.72C353.553 265.347 354.007 264.827 354.62 264.16C355.847 262.827 356.527 262.133 356.66 262.08C356.74 262.053 356.82 262.04 356.9 262.04C356.98 262.04 357.047 262.04 357.1 262.04C357.313 262.04 357.46 262.067 357.54 262.12C365.86 254.76 370.02 249.507 370.02 246.36C370.02 245.187 369.38 244.6 368.1 244.6C366.713 244.6 365.353 245.307 364.02 246.72C362.953 247.867 362.113 249.227 361.5 250.8L361.34 250.96H360.86L360.78 250.72C361.447 248.773 362.5 247.107 363.94 245.72C365.567 244.147 367.313 243.36 369.18 243.36C370.247 243.36 371.113 243.653 371.78 244.24C372.473 244.853 372.82 245.667 372.82 246.68C372.82 248.547 370.793 251.387 366.74 255.2C366.1 255.787 365.073 256.68 363.66 257.88C362.273 259.08 360.5 260.573 358.34 262.36C361.353 263.88 363.18 264.64 363.82 264.64C364.753 264.64 365.727 264.173 366.74 263.24C367.033 263 367.3 262.76 367.54 262.52C367.807 262.253 368.073 261.987 368.34 261.72L368.62 261.96V262.12C365.98 265.293 363.873 266.88 362.3 266.88ZM372.334 266.84C370.734 266.84 369.494 266.52 368.614 265.88V265.68L368.894 265.44L369.094 265.36C369.947 265.76 370.881 265.96 371.894 265.96C373.974 265.96 376.081 264.933 378.214 262.88C380.374 260.827 381.454 258.76 381.454 256.68C381.454 255.907 381.187 255.293 380.654 254.84C380.147 254.413 379.481 254.2 378.654 254.2C378.334 254.2 377.401 254.387 375.854 254.76L375.574 254.64L375.534 254.28L375.694 254.08C376.814 253.627 377.854 253.147 378.814 252.64C379.774 252.133 380.641 251.6 381.414 251.04C383.734 249.387 384.894 247.707 384.894 246C384.894 245.04 384.374 244.56 383.334 244.56C381.814 244.56 379.974 245.747 377.814 248.12H377.614L377.334 247.88V247.68C379.734 244.747 382.161 243.28 384.614 243.28C386.641 243.28 387.654 244.107 387.654 245.76C387.654 248.667 384.694 251.187 378.774 253.32C380.241 253.32 381.441 253.573 382.374 254.08C383.574 254.72 384.174 255.693 384.174 257C384.174 259.347 382.774 261.6 379.974 263.76C377.281 265.813 374.734 266.84 372.334 266.84Z" fill="black"/>
<path id="Warsaw,_Dec_2023" d="M646.2 267.56C644.947 267.56 643.96 267.08 643.24 266.12C642.6 265.24 642.28 264.067 642.28 262.6C642.28 260.787 642.893 258.613 644.12 256.08C640.28 255.84 638.36 253.933 638.36 250.36C638.36 248.333 639 246.147 640.28 243.8C640.733 242.947 641.24 242.147 641.8 241.4C642.36 240.627 642.973 239.947 643.64 239.36C645.32 237.787 647.04 237 648.8 237C652.08 237 653.72 238.747 653.72 242.24C653.72 243.173 653.56 244.16 653.24 245.2C652.947 246.24 652.453 247.333 651.76 248.48C651.093 249.627 650.387 250.76 649.64 251.88C648.893 252.973 648.173 254.08 647.48 255.2C648.733 254.987 650.12 254.613 651.64 254.08C651.72 254.053 651.813 254.04 651.92 254.04C652.133 254.04 652.24 254.133 652.24 254.32C652.24 254.48 652.093 254.627 651.8 254.76C650.92 255.053 650.08 255.307 649.28 255.52C648.48 255.733 647.72 255.893 647 256C645.48 258.64 644.72 260.973 644.72 263C644.72 263.987 644.88 264.8 645.2 265.44C645.653 266.213 646.28 266.6 647.08 266.6C648.547 266.6 650.253 265.507 652.2 263.32C653.027 262.413 654.347 260.387 656.16 257.24C656.533 255.08 657.027 253.28 657.64 251.84C658.28 250.347 659.12 249.6 660.16 249.6C660.853 249.6 661.2 250.013 661.2 250.84C661.2 251.267 661.053 251.84 660.76 252.56C660.547 253.067 660.293 253.56 660 254.04C659.733 254.52 659.453 254.987 659.16 255.44L657.72 257.44C657.08 259.147 656.76 260.867 656.76 262.6C656.76 263.16 656.8 263.667 656.88 264.12C657.2 265.827 658 266.68 659.28 266.68C662.56 266.68 666.12 263 669.96 255.64C671.293 253.133 671.96 250.44 671.96 247.56C671.96 244.893 671.2 243 669.68 241.88C669.013 241.373 668.067 241.12 666.84 241.12C665.533 241.12 664.573 241.48 663.96 242.2C663.747 242.413 663.56 242.52 663.4 242.52C663.24 242.52 663.16 242.453 663.16 242.32C663.16 242.187 663.213 242.067 663.32 241.96C664.2 240.893 665.667 240.36 667.72 240.36C668.92 240.36 669.933 240.56 670.76 240.96C673.267 242.187 674.52 244.493 674.52 247.88C674.52 250.387 673.84 252.947 672.48 255.56C671.707 257.053 670.88 258.44 670 259.72C669.12 261 668.187 262.147 667.2 263.16C664.507 266.013 661.867 267.44 659.28 267.44C657.227 267.44 655.933 266.56 655.4 264.8C655.213 264.213 655.12 263.533 655.12 262.76C655.12 262.067 655.2 261.347 655.36 260.6C654.853 261.347 654.347 262.04 653.84 262.68C653.36 263.293 652.867 263.853 652.36 264.36C650.227 266.493 648.173 267.56 646.2 267.56ZM644.48 255.36C645.093 254.267 645.707 253.173 646.32 252.08C646.96 250.987 647.587 249.88 648.2 248.76C649.667 246.12 650.613 243.96 651.04 242.28C651.2 241.587 651.28 240.96 651.28 240.4C651.28 238.667 650.52 237.8 649 237.8C647.907 237.8 646.693 238.387 645.36 239.56C643.92 240.84 642.707 242.507 641.72 244.56C640.68 246.72 640.16 248.693 640.16 250.48C640.16 253.44 641.6 255.067 644.48 255.36ZM682.709 266.48C682.122 266.48 681.642 266.307 681.269 265.96C680.736 265.507 680.469 264.747 680.469 263.68C680.469 262.987 680.589 262.2 680.829 261.32C679.922 262.84 678.976 264.08 677.989 265.04C676.976 265.973 676.069 266.44 675.269 266.44C674.576 266.44 674.029 266.133 673.629 265.52C673.202 264.933 672.989 264.12 672.989 263.08C672.989 260.547 674.122 257.933 676.389 255.24C676.762 254.787 677.189 254.373 677.669 254C678.149 253.627 678.669 253.293 679.229 253C680.376 252.413 681.482 252.12 682.549 252.12C683.856 252.12 684.896 252.547 685.669 253.4C685.856 253.587 685.949 253.8 685.949 254.04C685.949 254.493 685.709 254.667 685.229 254.56C684.962 253.6 684.336 253.12 683.349 253.12C682.229 253.12 680.909 253.907 679.389 255.48C678.856 256.067 678.349 256.68 677.869 257.32C677.389 257.933 676.936 258.587 676.509 259.28C675.362 261.2 674.789 262.76 674.789 263.96C674.789 264.867 675.136 265.32 675.829 265.32C676.602 265.32 677.496 264.733 678.509 263.56C679.069 262.92 679.642 262.133 680.229 261.2C680.816 260.267 681.429 259.187 682.069 257.96C682.336 257.453 682.576 257.04 682.789 256.72C683.002 256.4 683.176 256.16 683.309 256C683.736 255.573 684.242 255.373 684.829 255.4L685.629 255.52C685.976 255.6 686.269 255.613 686.509 255.56C686.269 255.8 685.976 256.187 685.629 256.72C685.309 257.227 684.936 257.893 684.509 258.72C684.056 259.6 683.682 260.4 683.389 261.12C683.096 261.84 682.896 262.48 682.789 263.04C682.736 263.307 682.696 263.56 682.669 263.8C682.642 264.013 682.629 264.213 682.629 264.4C682.629 265.093 682.816 265.44 683.189 265.44C683.722 265.44 684.456 264.853 685.389 263.68L685.549 263.48L686.109 263.84L685.949 264.08C684.856 265.68 683.776 266.48 682.709 266.48ZM686.525 266.68C687.032 265.4 687.698 263.8 688.525 261.88C689.378 259.96 690.338 257.773 691.405 255.32C691.618 254.787 691.818 254.36 692.005 254.04C692.218 253.72 692.405 253.467 692.565 253.28C692.912 252.88 693.378 252.72 693.965 252.8L694.805 252.92C694.992 252.947 695.152 252.973 695.285 253C695.445 253 695.578 252.987 695.685 252.96C695.152 253.227 694.525 253.987 693.805 255.24C693.112 256.467 692.338 258.147 691.485 260.28C691.778 259.907 692.152 259.413 692.605 258.8C693.058 258.16 693.632 257.427 694.325 256.6C695.098 255.693 695.898 254.853 696.725 254.08C697.552 253.307 698.352 252.92 699.125 252.92C699.738 252.92 700.178 253.12 700.445 253.52C700.712 253.92 700.845 254.373 700.845 254.88C700.845 255.493 700.605 256.04 700.125 256.52C699.645 257 699.178 257.24 698.725 257.24C698.538 257.24 698.338 257.2 698.125 257.12C697.938 257.04 697.845 256.92 697.845 256.76C697.845 256.627 697.872 256.507 697.925 256.4C697.978 256.267 698.005 256.12 698.005 255.96C698.005 255.56 697.818 255.36 697.445 255.36C697.312 255.36 697.125 255.4 696.885 255.48C696.672 255.533 696.378 255.747 696.005 256.12C695.258 256.813 694.445 257.653 693.565 258.64C692.712 259.6 691.898 260.68 691.125 261.88C690.378 263.08 689.765 264.4 689.285 265.84C689.152 266.24 688.752 266.453 688.085 266.48C687.178 266.533 686.658 266.6 686.525 266.68ZM702.482 266.56C701.149 266.56 700.122 266.16 699.402 265.36C698.815 264.693 698.522 263.893 698.522 262.96C698.522 261.6 698.949 260.92 699.802 260.92C700.122 260.92 700.415 261.04 700.682 261.28C700.949 261.547 701.082 261.853 701.082 262.2C701.082 262.413 701.029 262.587 700.922 262.72C700.575 263.147 700.402 263.613 700.402 264.12C700.402 264.627 700.562 265.04 700.882 265.36C701.229 265.707 701.669 265.88 702.202 265.88C702.762 265.88 703.269 265.693 703.722 265.32C704.335 264.76 704.642 263.987 704.642 263C704.642 262.147 704.415 261.187 703.962 260.12C703.775 259.853 703.549 259.507 703.282 259.08C703.042 258.653 702.762 258.147 702.442 257.56C702.255 257.24 702.122 256.92 702.042 256.6C701.989 256.253 701.962 255.92 701.962 255.6C701.962 254.48 702.375 253.587 703.202 252.92C704.055 252.227 705.149 251.88 706.482 251.88C706.855 251.88 707.215 251.92 707.562 252C707.935 252.08 708.269 252.227 708.562 252.44C709.175 252.893 709.482 253.453 709.482 254.12C709.482 254.413 709.429 254.68 709.322 254.92C709.082 255.613 708.562 255.96 707.762 255.96C706.882 255.96 706.442 255.507 706.442 254.6C706.442 254.333 706.482 254.107 706.562 253.92C706.642 253.653 706.935 253.387 707.442 253.12C707.255 252.773 706.909 252.6 706.402 252.6C705.949 252.6 705.615 252.707 705.402 252.92C704.762 253.48 704.442 254.187 704.442 255.04C704.442 255.627 704.602 256.267 704.922 256.96C704.975 257.067 705.495 257.907 706.482 259.48C707.149 260.547 707.482 261.44 707.482 262.16C707.482 263.307 706.949 264.32 705.882 265.2C704.815 266.107 703.682 266.56 702.482 266.56ZM718.803 266.48C718.216 266.48 717.736 266.307 717.363 265.96C716.829 265.507 716.563 264.747 716.563 263.68C716.563 262.987 716.683 262.2 716.923 261.32C716.016 262.84 715.069 264.08 714.083 265.04C713.069 265.973 712.163 266.44 711.363 266.44C710.669 266.44 710.123 266.133 709.723 265.52C709.296 264.933 709.083 264.12 709.083 263.08C709.083 260.547 710.216 257.933 712.483 255.24C712.856 254.787 713.283 254.373 713.763 254C714.243 253.627 714.763 253.293 715.323 253C716.469 252.413 717.576 252.12 718.643 252.12C719.949 252.12 720.989 252.547 721.763 253.4C721.949 253.587 722.043 253.8 722.043 254.04C722.043 254.493 721.803 254.667 721.323 254.56C721.056 253.6 720.429 253.12 719.443 253.12C718.323 253.12 717.003 253.907 715.483 255.48C714.949 256.067 714.443 256.68 713.963 257.32C713.483 257.933 713.029 258.587 712.603 259.28C711.456 261.2 710.883 262.76 710.883 263.96C710.883 264.867 711.229 265.32 711.923 265.32C712.696 265.32 713.589 264.733 714.603 263.56C715.163 262.92 715.736 262.133 716.323 261.2C716.909 260.267 717.523 259.187 718.163 257.96C718.429 257.453 718.669 257.04 718.883 256.72C719.096 256.4 719.269 256.16 719.403 256C719.829 255.573 720.336 255.373 720.923 255.4L721.723 255.52C722.069 255.6 722.363 255.613 722.603 255.56C722.363 255.8 722.069 256.187 721.723 256.72C721.403 257.227 721.029 257.893 720.603 258.72C720.149 259.6 719.776 260.4 719.483 261.12C719.189 261.84 718.989 262.48 718.883 263.04C718.829 263.307 718.789 263.56 718.763 263.8C718.736 264.013 718.723 264.213 718.723 264.4C718.723 265.093 718.909 265.44 719.283 265.44C719.816 265.44 720.549 264.853 721.483 263.68L721.643 263.48L722.203 263.84L722.043 264.08C720.949 265.68 719.869 266.48 718.803 266.48ZM734.299 266.48C732.379 266.48 731.419 265.267 731.419 262.84C731.419 262.173 731.499 261.56 731.659 261C730.592 262.947 729.925 264.093 729.659 264.44C728.672 265.827 727.699 266.48 726.739 266.4C724.845 266.187 723.899 265.027 723.899 262.92C723.899 262.067 724.192 260.84 724.779 259.24C725.392 257.613 726.272 255.587 727.419 253.16C727.685 252.573 728.205 252.28 728.979 252.28L731.379 252.32C730.419 253.04 729.565 254.16 728.819 255.68C727.965 257.44 727.312 258.973 726.859 260.28C726.405 261.56 726.179 262.613 726.179 263.44C726.179 264.667 726.619 265.28 727.499 265.28C728.619 265.28 730.019 263.587 731.699 260.2C732.232 259.107 732.752 258 733.259 256.88C733.765 255.733 734.272 254.6 734.779 253.48C735.072 252.92 735.579 252.64 736.299 252.64H738.739C738.365 252.853 737.832 253.347 737.139 254.12C736.819 254.653 736.472 255.28 736.099 256C735.752 256.693 735.365 257.467 734.939 258.32C733.899 260.48 733.379 262.36 733.379 263.96C733.379 265.107 733.805 265.68 734.659 265.68C736.632 265.68 738.539 263.36 740.379 258.72C740.005 257.84 739.819 257.027 739.819 256.28C739.819 255.747 739.899 255.227 740.059 254.72C740.352 253.733 740.765 252.987 741.299 252.48C741.779 252 742.245 251.76 742.699 251.76C743.152 251.76 743.379 251.973 743.379 252.4L743.179 253.12C742.112 256.747 741.112 259.467 740.179 261.28C738.419 264.747 736.459 266.48 734.299 266.48ZM741.759 270.48C741.493 270.56 741.359 270.52 741.359 270.36C741.359 270.227 741.466 270.12 741.679 270.04C743.519 269.427 744.533 268.267 744.719 266.56C744.373 266.827 743.999 266.96 743.599 266.96C743.173 266.96 742.813 266.8 742.519 266.48C742.306 266.213 742.199 265.933 742.199 265.64C742.199 265.053 742.426 264.56 742.879 264.16C743.279 263.84 743.706 263.68 744.159 263.68C745.253 263.68 745.799 264.4 745.799 265.84C745.799 268 744.453 269.547 741.759 270.48ZM757.462 268.72C755.169 268.72 754.022 267.787 754.022 265.92C754.022 265.2 754.275 264.547 754.782 263.96C755.342 263.347 756.009 263.04 756.782 263.04C757.342 263.04 757.782 263.227 758.102 263.6C758.395 263.947 758.542 264.32 758.542 264.72C758.542 265.36 758.275 265.907 757.742 266.36C757.315 266.76 756.835 266.96 756.302 266.96C755.849 266.96 755.435 266.8 755.062 266.48C755.355 267.253 756.115 267.64 757.342 267.64C757.689 267.64 757.995 267.6 758.262 267.52C760.475 266.907 762.395 265.56 764.022 263.48C764.609 262.733 765.382 261.573 766.342 260C767.302 258.4 768.395 256.36 769.622 253.88C770.182 252.733 770.689 251.64 771.142 250.6C771.622 249.533 772.075 248.547 772.502 247.64C774.609 243.24 776.235 240.413 777.382 239.16C776.342 238.813 775.209 238.64 773.982 238.64C770.302 238.64 766.715 240.08 763.222 242.96C761.382 244.48 759.929 246.093 758.862 247.8C757.902 249.32 757.422 250.653 757.422 251.8C757.422 253.133 758.049 253.8 759.302 253.8C760.449 253.8 761.955 253.16 763.822 251.88C765.715 250.573 767.022 249 767.742 247.16C767.822 246.947 767.929 246.84 768.062 246.84C768.195 246.893 768.235 247 768.182 247.16C767.409 249.507 766.022 251.373 764.022 252.76C762.422 253.827 760.942 254.36 759.582 254.36C758.462 254.36 757.555 254.013 756.862 253.32C756.142 252.627 755.782 251.707 755.782 250.56C755.782 247.947 757.462 245.267 760.822 242.52C764.609 239.427 768.969 237.88 773.902 237.88C774.649 237.88 775.382 237.92 776.102 238C776.822 238.08 777.515 238.213 778.182 238.4C779.835 236.96 781.555 236.24 783.342 236.24C784.035 236.24 784.742 236.387 785.462 236.68C785.649 236.76 785.715 236.867 785.662 237C785.582 237.133 785.489 237.187 785.382 237.16C784.982 236.973 784.502 236.88 783.942 236.88C782.422 236.88 780.995 237.533 779.662 238.84C782.062 239.693 783.915 241.013 785.222 242.8C786.689 244.747 787.422 247.107 787.422 249.88C787.422 250.147 787.422 250.427 787.422 250.72C787.422 250.987 787.395 251.267 787.342 251.56C786.915 255.853 785.182 259.6 782.142 262.8C779.102 266.053 775.382 267.88 770.982 268.28C770.795 268.307 770.609 268.32 770.422 268.32C770.235 268.347 770.049 268.36 769.862 268.36C767.169 268.36 765.822 267.493 765.822 265.76C765.822 265.333 765.915 264.92 766.102 264.52C763.195 267.32 760.315 268.72 757.462 268.72ZM769.942 267.6C770.075 267.6 770.209 267.6 770.342 267.6C770.502 267.6 770.662 267.587 770.822 267.56C774.609 267.16 777.769 265.413 780.302 262.32C782.515 259.573 783.889 256.2 784.422 252.2C784.475 251.8 784.515 251.413 784.542 251.04C784.569 250.64 784.582 250.253 784.582 249.88C784.582 244.947 782.675 241.56 778.862 239.72C778.409 240.307 777.889 241.213 777.302 242.44C776.715 243.667 776.075 245.227 775.382 247.12C775.035 248.053 774.702 249 774.382 249.96C774.089 250.92 773.769 251.867 773.422 252.8C772.969 254.08 772.209 255.787 771.142 257.92C770.875 258.427 770.569 258.947 770.222 259.48C769.875 260.013 769.489 260.573 769.062 261.16L769.142 261.12C769.835 260.747 770.582 260.373 771.382 260C772.182 259.627 773.089 259.347 774.102 259.16C774.955 258.973 775.795 258.853 776.622 258.8C777.475 258.72 778.315 258.707 779.142 258.76C779.329 258.76 779.422 258.827 779.422 258.96C779.422 259.12 779.315 259.2 779.102 259.2C778.969 259.2 778.809 259.2 778.622 259.2C778.462 259.173 778.315 259.16 778.182 259.16C777.089 259.16 775.835 259.36 774.422 259.76C772.609 260.293 771.182 261.013 770.142 261.92C768.382 263.467 767.502 264.773 767.502 265.84C767.502 267.013 768.315 267.6 769.942 267.6ZM791.008 266.56C789.968 266.56 789.074 266.227 788.328 265.56C787.928 265.187 787.634 264.76 787.448 264.28C787.288 263.773 787.208 263.2 787.208 262.56C787.208 260.107 788.221 257.667 790.248 255.24C791.954 253.187 793.728 252.16 795.568 252.16C796.181 252.16 796.701 252.32 797.128 252.64C797.581 253.013 797.808 253.493 797.808 254.08C797.808 255.547 796.834 257.013 794.888 258.48C794.274 258.933 793.461 259.333 792.448 259.68C791.328 260.053 790.514 260.24 790.008 260.24C789.634 261.147 789.448 262.107 789.448 263.12C789.448 264.853 790.088 265.72 791.368 265.72C793.048 265.72 794.621 264.627 796.088 262.44L796.248 262.2L796.928 262.48L796.808 262.72C796.141 264.053 795.301 265.027 794.288 265.64C793.274 266.253 792.181 266.56 791.008 266.56ZM790.248 259.56C790.701 259.56 791.328 259.413 792.128 259.12C792.581 258.933 793.008 258.733 793.408 258.52C793.834 258.307 794.208 258.067 794.528 257.8C795.994 256.573 796.728 255.28 796.728 253.92C796.728 253.333 796.514 253.04 796.088 253.04C795.341 253.04 794.208 253.96 792.688 255.8C791.914 256.733 791.101 257.987 790.248 259.56ZM802.074 266.56C799.407 266.56 798.074 265.227 798.074 262.56C798.074 260.32 798.847 258.107 800.394 255.92C802.074 253.52 804.007 252.32 806.194 252.32C808.22 252.32 809.127 253.24 808.914 255.08C808.887 255.56 808.634 256.08 808.154 256.64C807.7 257.173 807.26 257.44 806.834 257.44C806.594 257.44 806.394 257.36 806.234 257.2C806.9 256.533 807.314 255.853 807.474 255.16C807.527 254.973 807.567 254.813 807.594 254.68C807.62 254.52 807.634 254.373 807.634 254.24C807.634 253.547 807.314 253.2 806.674 253.2C805.74 253.2 804.434 254.333 802.754 256.6C801.154 258.76 800.354 260.867 800.354 262.92C800.354 264.867 801.1 265.84 802.594 265.84C804.034 265.84 805.434 264.933 806.794 263.12L807.034 262.8L807.594 263.12L807.314 263.52C805.9 265.547 804.154 266.56 802.074 266.56ZM823.105 266.88C822.625 266.88 820.545 266.093 816.865 264.52L814.065 266.72L813.545 266.4C813.571 266.32 813.745 266.093 814.065 265.72C814.358 265.347 814.811 264.827 815.425 264.16C816.651 262.827 817.331 262.133 817.465 262.08C817.545 262.053 817.625 262.04 817.705 262.04C817.785 262.04 817.851 262.04 817.905 262.04C818.118 262.04 818.265 262.067 818.345 262.12C826.665 254.76 830.825 249.507 830.825 246.36C830.825 245.187 830.185 244.6 828.905 244.6C827.518 244.6 826.158 245.307 824.825 246.72C823.758 247.867 822.918 249.227 822.305 250.8L822.145 250.96H821.665L821.585 250.72C822.251 248.773 823.305 247.107 824.745 245.72C826.371 244.147 828.118 243.36 829.985 243.36C831.051 243.36 831.918 243.653 832.585 244.24C833.278 244.853 833.625 245.667 833.625 246.68C833.625 248.547 831.598 251.387 827.545 255.2C826.905 255.787 825.878 256.68 824.465 257.88C823.078 259.08 821.305 260.573 819.145 262.36C822.158 263.88 823.985 264.64 824.625 264.64C825.558 264.64 826.531 264.173 827.545 263.24C827.838 263 828.105 262.76 828.345 262.52C828.611 262.253 828.878 261.987 829.145 261.72L829.425 261.96V262.12C826.785 265.293 824.678 266.88 823.105 266.88ZM838.299 266.84C836.885 266.84 835.779 266.307 834.979 265.24C834.285 264.307 833.939 263.107 833.939 261.64C833.939 259.587 834.685 257.093 836.179 254.16C836.952 252.667 837.779 251.293 838.659 250.04C839.565 248.787 840.552 247.653 841.619 246.64C843.965 244.373 846.205 243.24 848.339 243.24C850.819 243.24 852.059 244.72 852.059 247.68C852.059 248.773 851.885 249.973 851.539 251.28C851.219 252.56 850.739 253.947 850.099 255.44C848.739 258.587 847.059 261.2 845.059 263.28C842.765 265.653 840.512 266.84 838.299 266.84ZM838.779 266.04C840.459 266.04 842.272 264.747 844.219 262.16C845.872 259.947 847.365 257.227 848.699 254C849.925 250.987 850.539 248.627 850.539 246.92C850.539 244.973 849.819 244 848.379 244C846.805 244 844.992 245.307 842.939 247.92C841.179 250.187 839.632 252.907 838.299 256.08C836.992 259.12 836.339 261.44 836.339 263.04C836.339 265.04 837.152 266.04 838.779 266.04ZM859.159 266.88C858.679 266.88 856.599 266.093 852.919 264.52L850.119 266.72L849.599 266.4C849.626 266.32 849.799 266.093 850.119 265.72C850.413 265.347 850.866 264.827 851.479 264.16C852.706 262.827 853.386 262.133 853.519 262.08C853.599 262.053 853.679 262.04 853.759 262.04C853.839 262.04 853.906 262.04 853.959 262.04C854.173 262.04 854.319 262.067 854.399 262.12C862.719 254.76 866.879 249.507 866.879 246.36C866.879 245.187 866.239 244.6 864.959 244.6C863.573 244.6 862.213 245.307 860.879 246.72C859.813 247.867 858.973 249.227 858.359 250.8L858.199 250.96H857.719L857.639 250.72C858.306 248.773 859.359 247.107 860.799 245.72C862.426 244.147 864.173 243.36 866.039 243.36C867.106 243.36 867.973 243.653 868.639 244.24C869.333 244.853 869.679 245.667 869.679 246.68C869.679 248.547 867.653 251.387 863.599 255.2C862.959 255.787 861.933 256.68 860.519 257.88C859.133 259.08 857.359 260.573 855.199 262.36C858.213 263.88 860.039 264.64 860.679 264.64C861.613 264.64 862.586 264.173 863.599 263.24C863.893 263 864.159 262.76 864.399 262.52C864.666 262.253 864.933 261.987 865.199 261.72L865.479 261.96V262.12C862.839 265.293 860.733 266.88 859.159 266.88ZM869.193 266.84C867.593 266.84 866.353 266.52 865.473 265.88V265.68L865.753 265.44L865.953 265.36C866.807 265.76 867.74 265.96 868.753 265.96C870.833 265.96 872.94 264.933 875.073 262.88C877.233 260.827 878.313 258.76 878.313 256.68C878.313 255.907 878.047 255.293 877.513 254.84C877.007 254.413 876.34 254.2 875.513 254.2C875.193 254.2 874.26 254.387 872.713 254.76L872.433 254.64L872.393 254.28L872.553 254.08C873.673 253.627 874.713 253.147 875.673 252.64C876.633 252.133 877.5 251.6 878.273 251.04C880.593 249.387 881.753 247.707 881.753 246C881.753 245.04 881.233 244.56 880.193 244.56C878.673 244.56 876.833 245.747 874.673 248.12H874.473L874.193 247.88V247.68C876.593 244.747 879.02 243.28 881.473 243.28C883.5 243.28 884.513 244.107 884.513 245.76C884.513 248.667 881.553 251.187 875.633 253.32C877.1 253.32 878.3 253.573 879.233 254.08C880.433 254.72 881.033 255.693 881.033 257C881.033 259.347 879.633 261.6 876.833 263.76C874.14 265.813 871.593 266.84 869.193 266.84Z" fill="black"/>
<g id="antonio-goes-w">
<path id="Arrow 1" d="M489.011 665.9L489.011 664.4L489.011 665.9ZM638.009 612.48C638.053 611.652 637.418 610.946 636.59 610.902L623.109 610.186C622.282 610.142 621.576 610.777 621.532 611.605C621.488 612.432 622.123 613.138 622.95 613.182L634.933 613.818L634.297 625.802C634.253 626.629 634.888 627.335 635.715 627.379C636.543 627.423 637.249 626.788 637.293 625.961L638.009 612.48ZM358.011 620.9C357.105 622.096 357.106 622.097 357.107 622.097C357.107 622.098 357.108 622.098 357.11 622.099C357.112 622.101 357.115 622.103 357.119 622.106C357.127 622.112 357.139 622.121 357.154 622.133C357.185 622.156 357.23 622.19 357.289 622.233C357.408 622.321 357.583 622.451 357.813 622.618C358.274 622.954 358.956 623.443 359.847 624.064C361.63 625.307 364.251 627.077 367.618 629.2C374.351 633.445 384.072 639.101 396.04 644.756C419.96 656.06 452.936 667.4 489.011 667.4L489.011 664.4C453.538 664.4 421.015 653.24 397.322 642.044C385.483 636.449 375.868 630.855 369.218 626.662C365.894 624.566 363.311 622.821 361.563 621.603C360.689 620.994 360.024 620.516 359.579 620.193C359.356 620.031 359.189 619.907 359.078 619.825C359.022 619.784 358.981 619.753 358.954 619.733C358.94 619.722 358.93 619.715 358.924 619.71C358.921 619.708 358.919 619.706 358.917 619.705C358.917 619.705 358.916 619.704 358.916 619.704C358.916 619.704 358.916 619.704 358.011 620.9ZM489.011 667.4C533.315 667.4 570.428 653.933 596.45 640.482C609.463 633.756 619.714 627.027 626.716 621.976C630.218 619.45 632.909 617.342 634.729 615.863C635.638 615.123 636.33 614.54 636.797 614.14C637.03 613.94 637.207 613.786 637.327 613.681C637.387 613.628 637.433 613.588 637.464 613.56C637.479 613.546 637.491 613.536 637.5 613.528C637.504 613.524 637.507 613.521 637.509 613.519C637.511 613.518 637.512 613.517 637.512 613.517C637.513 613.516 637.514 613.515 636.511 612.4C635.508 611.285 635.508 611.284 635.508 611.285C635.508 611.285 635.507 611.285 635.507 611.286C635.505 611.287 635.503 611.289 635.5 611.291C635.494 611.297 635.484 611.306 635.471 611.318C635.444 611.341 635.403 611.378 635.348 611.426C635.237 611.524 635.069 611.67 634.845 611.862C634.397 612.246 633.725 612.812 632.836 613.535C631.058 614.981 628.413 617.053 624.961 619.543C618.058 624.523 607.933 631.169 595.072 637.817C569.344 651.117 532.706 664.4 489.011 664.4L489.011 667.4Z" fill="black"/>
<path id="Antonio can go to Warsaw" d="M364 700.4L370.696 683.192H372.64L379.312 700.4H377.08L375.016 695.096H368.224L366.184 700.4H364ZM368.944 693.176H374.368L372.448 687.992C372.4 687.864 372.32 687.632 372.208 687.296C372.096 686.96 371.984 686.616 371.872 686.264C371.776 685.896 371.696 685.616 371.632 685.424C371.52 685.92 371.392 686.408 371.248 686.888C371.104 687.352 370.984 687.72 370.888 687.992L368.944 693.176ZM381.368 700.4V687.536H383.072L383.384 689.288H383.504C383.92 688.616 384.496 688.12 385.232 687.8C385.968 687.464 386.744 687.296 387.56 687.296C389.096 687.296 390.256 687.672 391.04 688.424C391.824 689.16 392.216 690.36 392.216 692.024V700.4H390.128V692.168C390.128 690.104 389.168 689.072 387.248 689.072C385.824 689.072 384.84 689.472 384.296 690.272C383.752 691.072 383.48 692.224 383.48 693.728V700.4H381.368ZM400.14 700.64C399.468 700.64 398.844 700.528 398.268 700.304C397.708 700.064 397.252 699.656 396.9 699.08C396.548 698.504 396.372 697.696 396.372 696.656V689.168H394.548V688.16L396.396 687.32L397.236 684.584H398.484V687.536H402.204V689.168H398.484V696.608C398.484 697.392 398.668 697.976 399.036 698.36C399.42 698.728 399.908 698.912 400.5 698.912C400.82 698.912 401.148 698.888 401.484 698.84C401.82 698.776 402.092 698.712 402.3 698.648V700.256C402.076 700.368 401.756 700.456 401.34 700.52C400.924 700.6 400.524 700.64 400.14 700.64ZM410.06 700.64C408.924 700.64 407.908 700.384 407.012 699.872C406.132 699.344 405.436 698.584 404.924 697.592C404.412 696.584 404.156 695.368 404.156 693.944C404.156 691.816 404.692 690.176 405.764 689.024C406.836 687.872 408.292 687.296 410.132 687.296C411.3 687.296 412.324 687.56 413.204 688.088C414.1 688.6 414.796 689.352 415.292 690.344C415.804 691.32 416.06 692.52 416.06 693.944C416.06 696.072 415.516 697.72 414.428 698.888C413.356 700.056 411.9 700.64 410.06 700.64ZM410.108 698.888C411.404 698.888 412.356 698.448 412.964 697.568C413.572 696.672 413.876 695.464 413.876 693.944C413.876 692.424 413.572 691.232 412.964 690.368C412.356 689.504 411.396 689.072 410.084 689.072C408.772 689.072 407.82 689.504 407.228 690.368C406.636 691.232 406.34 692.424 406.34 693.944C406.34 695.464 406.636 696.672 407.228 697.568C407.836 698.448 408.796 698.888 410.108 698.888ZM419.407 700.4V687.536H421.111L421.423 689.288H421.543C421.959 688.616 422.535 688.12 423.271 687.8C424.007 687.464 424.783 687.296 425.599 687.296C427.135 687.296 428.295 687.672 429.079 688.424C429.863 689.16 430.255 690.36 430.255 692.024V700.4H428.167V692.168C428.167 690.104 427.207 689.072 425.287 689.072C423.863 689.072 422.879 689.472 422.335 690.272C421.791 691.072 421.519 692.224 421.519 693.728V700.4H419.407ZM435.323 685.4C434.971 685.4 434.675 685.288 434.435 685.064C434.195 684.84 434.075 684.504 434.075 684.056C434.075 683.592 434.195 683.256 434.435 683.048C434.675 682.824 434.971 682.712 435.323 682.712C435.643 682.712 435.923 682.824 436.163 683.048C436.419 683.256 436.547 683.592 436.547 684.056C436.547 684.504 436.419 684.84 436.163 685.064C435.923 685.288 435.643 685.4 435.323 685.4ZM434.243 700.4V687.536H436.355V700.4H434.243ZM445.615 700.64C444.479 700.64 443.463 700.384 442.567 699.872C441.687 699.344 440.991 698.584 440.479 697.592C439.967 696.584 439.711 695.368 439.711 693.944C439.711 691.816 440.247 690.176 441.319 689.024C442.391 687.872 443.847 687.296 445.687 687.296C446.855 687.296 447.879 687.56 448.759 688.088C449.655 688.6 450.351 689.352 450.847 690.344C451.359 691.32 451.615 692.52 451.615 693.944C451.615 696.072 451.071 697.72 449.983 698.888C448.911 700.056 447.455 700.64 445.615 700.64ZM445.663 698.888C446.959 698.888 447.911 698.448 448.519 697.568C449.127 696.672 449.431 695.464 449.431 693.944C449.431 692.424 449.127 691.232 448.519 690.368C447.911 689.504 446.951 689.072 445.639 689.072C444.327 689.072 443.375 689.504 442.783 690.368C442.191 691.232 441.895 692.424 441.895 693.944C441.895 695.464 442.191 696.672 442.783 697.568C443.391 698.448 444.351 698.888 445.663 698.888ZM466.356 700.64C465.22 700.64 464.204 700.408 463.308 699.944C462.428 699.48 461.732 698.76 461.22 697.784C460.724 696.808 460.476 695.56 460.476 694.04C460.476 692.456 460.74 691.168 461.268 690.176C461.796 689.184 462.508 688.456 463.404 687.992C464.316 687.528 465.348 687.296 466.5 687.296C467.156 687.296 467.788 687.368 468.396 687.512C469.004 687.64 469.5 687.8 469.884 687.992L469.236 689.744C468.852 689.6 468.404 689.464 467.892 689.336C467.38 689.208 466.9 689.144 466.452 689.144C463.924 689.144 462.66 690.768 462.66 694.016C462.66 695.568 462.964 696.76 463.572 697.592C464.196 698.408 465.116 698.816 466.332 698.816C467.036 698.816 467.652 698.744 468.18 698.6C468.724 698.456 469.22 698.28 469.668 698.072V699.944C469.236 700.168 468.756 700.336 468.228 700.448C467.716 700.576 467.092 700.64 466.356 700.64ZM475.848 700.64C474.68 700.64 473.712 700.336 472.944 699.728C472.176 699.104 471.792 698.136 471.792 696.824C471.792 695.544 472.296 694.56 473.304 693.872C474.312 693.168 475.864 692.784 477.96 692.72L480.144 692.648V691.88C480.144 690.808 479.912 690.064 479.448 689.648C478.984 689.232 478.328 689.024 477.48 689.024C476.808 689.024 476.168 689.128 475.56 689.336C474.952 689.528 474.384 689.752 473.855 690.008L473.208 688.424C473.768 688.12 474.432 687.864 475.2 687.656C475.968 687.432 476.768 687.32 477.6 687.32C479.168 687.32 480.328 687.664 481.08 688.352C481.832 689.04 482.208 690.136 482.208 691.64V700.4H480.672L480.264 698.576H480.168C479.608 699.28 479.016 699.8 478.392 700.136C477.784 700.472 476.936 700.64 475.848 700.64ZM476.328 698.936C477.416 698.936 478.32 698.64 479.04 698.048C479.76 697.44 480.12 696.512 480.12 695.264V694.112L478.224 694.184C476.624 694.248 475.512 694.504 474.888 694.952C474.28 695.4 473.976 696.032 473.976 696.848C473.976 697.568 474.192 698.096 474.624 698.432C475.072 698.768 475.64 698.936 476.328 698.936ZM486.181 700.4V687.536H487.885L488.197 689.288H488.317C488.733 688.616 489.309 688.12 490.045 687.8C490.781 687.464 491.557 687.296 492.373 687.296C493.909 687.296 495.069 687.672 495.853 688.424C496.637 689.16 497.029 690.36 497.029 692.024V700.4H494.941V692.168C494.941 690.104 493.981 689.072 492.061 689.072C490.637 689.072 489.653 689.472 489.109 690.272C488.565 691.072 488.293 692.224 488.293 693.728V700.4H486.181ZM512.171 706.16C510.283 706.16 508.739 705.888 507.539 705.344V703.4C508.803 704.072 510.387 704.408 512.291 704.408C513.395 704.408 514.259 704.08 514.883 703.424C515.523 702.784 515.843 701.904 515.843 700.784V700.28C515.843 700.088 515.851 699.816 515.867 699.464C515.883 699.096 515.899 698.84 515.915 698.696H515.819C514.955 699.992 513.627 700.64 511.835 700.64C510.171 700.64 508.867 700.056 507.923 698.888C506.995 697.72 506.531 696.088 506.531 693.992C506.531 691.944 506.995 690.32 507.923 689.12C508.867 687.904 510.163 687.296 511.811 687.296C512.659 687.296 513.419 687.456 514.091 687.776C514.779 688.096 515.363 688.584 515.843 689.24H515.963L516.251 687.536H517.931V700.616C517.931 702.456 517.459 703.84 516.515 704.768C515.587 705.696 514.139 706.16 512.171 706.16ZM512.147 698.912C513.443 698.912 514.387 698.568 514.979 697.88C515.571 697.176 515.867 696.048 515.867 694.496V693.992C515.867 692.232 515.563 690.976 514.955 690.224C514.347 689.456 513.395 689.072 512.099 689.072C511.027 689.072 510.195 689.504 509.603 690.368C509.011 691.216 508.715 692.432 508.715 694.016C508.715 695.6 509.003 696.816 509.579 697.664C510.171 698.496 511.027 698.912 512.147 698.912ZM527.201 700.64C526.065 700.64 525.049 700.384 524.153 699.872C523.273 699.344 522.577 698.584 522.065 697.592C521.553 696.584 521.297 695.368 521.297 693.944C521.297 691.816 521.833 690.176 522.905 689.024C523.977 687.872 525.433 687.296 527.273 687.296C528.441 687.296 529.465 687.56 530.345 688.088C531.241 688.6 531.937 689.352 532.433 690.344C532.945 691.32 533.201 692.52 533.201 693.944C533.201 696.072 532.657 697.72 531.569 698.888C530.497 700.056 529.041 700.64 527.201 700.64ZM527.249 698.888C528.545 698.888 529.497 698.448 530.105 697.568C530.713 696.672 531.017 695.464 531.017 693.944C531.017 692.424 530.713 691.232 530.105 690.368C529.497 689.504 528.537 689.072 527.225 689.072C525.913 689.072 524.961 689.504 524.369 690.368C523.777 691.232 523.481 692.424 523.481 693.944C523.481 695.464 523.777 696.672 524.369 697.568C524.977 698.448 525.937 698.888 527.249 698.888ZM546.718 700.64C546.046 700.64 545.422 700.528 544.846 700.304C544.286 700.064 543.83 699.656 543.478 699.08C543.126 698.504 542.95 697.696 542.95 696.656V689.168H541.126V688.16L542.974 687.32L543.814 684.584H545.062V687.536H548.782V689.168H545.062V696.608C545.062 697.392 545.246 697.976 545.614 698.36C545.998 698.728 546.486 698.912 547.078 698.912C547.398 698.912 547.726 698.888 548.062 698.84C548.398 698.776 548.67 698.712 548.878 698.648V700.256C548.654 700.368 548.334 700.456 547.918 700.52C547.502 700.6 547.102 700.64 546.718 700.64ZM556.638 700.64C555.502 700.64 554.486 700.384 553.59 699.872C552.71 699.344 552.014 698.584 551.502 697.592C550.99 696.584 550.734 695.368 550.734 693.944C550.734 691.816 551.27 690.176 552.342 689.024C553.414 687.872 554.87 687.296 556.71 687.296C557.878 687.296 558.902 687.56 559.782 688.088C560.678 688.6 561.374 689.352 561.87 690.344C562.382 691.32 562.638 692.52 562.638 693.944C562.638 696.072 562.094 697.72 561.006 698.888C559.934 700.056 558.478 700.64 556.638 700.64ZM556.686 698.888C557.982 698.888 558.934 698.448 559.542 697.568C560.15 696.672 560.454 695.464 560.454 693.944C560.454 692.424 560.15 691.232 559.542 690.368C558.934 689.504 557.974 689.072 556.662 689.072C555.35 689.072 554.398 689.504 553.806 690.368C553.214 691.232 552.918 692.424 552.918 693.944C552.918 695.464 553.214 696.672 553.806 697.568C554.414 698.448 555.374 698.888 556.686 698.888ZM575.004 700.4L570.468 683.264H572.724L575.388 693.728C575.58 694.464 575.74 695.176 575.868 695.864C576.012 696.552 576.124 697.2 576.204 697.808C576.284 697.184 576.404 696.504 576.564 695.768C576.724 695.032 576.908 694.312 577.116 693.608L580.14 683.264H582.372L585.516 693.68C585.74 694.416 585.932 695.152 586.092 695.888C586.252 696.608 586.372 697.248 586.452 697.808C586.532 697.216 586.644 696.576 586.788 695.888C586.932 695.184 587.1 694.456 587.292 693.704L589.932 683.264H592.188L587.628 700.4H585.444L582.108 689.168C581.98 688.704 581.852 688.24 581.724 687.776C581.596 687.312 581.492 686.904 581.412 686.552C581.332 686.184 581.276 685.928 581.244 685.784C581.228 685.992 581.14 686.44 580.98 687.128C580.836 687.8 580.652 688.504 580.428 689.24L577.188 700.4H575.004ZM597.652 700.64C596.484 700.64 595.516 700.336 594.748 699.728C593.98 699.104 593.596 698.136 593.596 696.824C593.596 695.544 594.1 694.56 595.108 693.872C596.116 693.168 597.668 692.784 599.764 692.72L601.948 692.648V691.88C601.948 690.808 601.716 690.064 601.252 689.648C600.788 689.232 600.132 689.024 599.284 689.024C598.612 689.024 597.972 689.128 597.364 689.336C596.756 689.528 596.188 689.752 595.66 690.008L595.012 688.424C595.572 688.12 596.236 687.864 597.004 687.656C597.772 687.432 598.572 687.32 599.404 687.32C600.972 687.32 602.132 687.664 602.884 688.352C603.636 689.04 604.012 690.136 604.012 691.64V700.4H602.476L602.068 698.576H601.972C601.412 699.28 600.82 699.8 600.196 700.136C599.588 700.472 598.74 700.64 597.652 700.64ZM598.132 698.936C599.22 698.936 600.124 698.64 600.844 698.048C601.564 697.44 601.924 696.512 601.924 695.264V694.112L600.028 694.184C598.428 694.248 597.316 694.504 596.692 694.952C596.084 695.4 595.78 696.032 595.78 696.848C595.78 697.568 595.996 698.096 596.428 698.432C596.876 698.768 597.444 698.936 598.132 698.936ZM607.985 700.4V687.536H609.713L609.953 689.888H610.049C610.465 689.184 611.001 688.576 611.657 688.064C612.313 687.552 613.089 687.296 613.985 687.296C614.225 687.296 614.481 687.312 614.753 687.344C615.041 687.36 615.289 687.392 615.497 687.44L615.233 689.384C615.025 689.336 614.793 689.296 614.537 689.264C614.297 689.232 614.065 689.216 613.841 689.216C613.185 689.216 612.569 689.4 611.993 689.768C611.417 690.12 610.953 690.624 610.601 691.28C610.265 691.92 610.097 692.672 610.097 693.536V700.4H607.985ZM621.139 700.64C620.243 700.64 619.467 700.568 618.811 700.424C618.171 700.28 617.603 700.08 617.107 699.824V697.904C617.619 698.16 618.235 698.4 618.955 698.624C619.691 698.832 620.435 698.936 621.187 698.936C622.259 698.936 623.035 698.768 623.515 698.432C623.995 698.08 624.235 697.616 624.235 697.04C624.235 696.72 624.147 696.432 623.971 696.176C623.795 695.92 623.475 695.664 623.011 695.408C622.563 695.152 621.915 694.864 621.067 694.544C620.235 694.224 619.523 693.904 618.931 693.584C618.339 693.264 617.883 692.88 617.563 692.432C617.243 691.984 617.083 691.408 617.083 690.704C617.083 689.616 617.523 688.776 618.403 688.184C619.299 687.592 620.467 687.296 621.907 687.296C622.691 687.296 623.419 687.376 624.091 687.536C624.779 687.68 625.419 687.888 626.011 688.16L625.291 689.84C624.747 689.616 624.179 689.424 623.587 689.264C622.995 689.104 622.387 689.024 621.763 689.024C620.899 689.024 620.235 689.168 619.771 689.456C619.323 689.728 619.099 690.104 619.099 690.584C619.099 690.936 619.203 691.24 619.411 691.496C619.619 691.736 619.963 691.976 620.443 692.216C620.939 692.44 621.595 692.712 622.411 693.032C623.227 693.336 623.923 693.656 624.499 693.992C625.075 694.312 625.515 694.696 625.819 695.144C626.123 695.592 626.275 696.16 626.275 696.848C626.275 698.096 625.811 699.04 624.883 699.68C623.955 700.32 622.707 700.64 621.139 700.64ZM632.504 700.64C631.336 700.64 630.368 700.336 629.6 699.728C628.832 699.104 628.448 698.136 628.448 696.824C628.448 695.544 628.952 694.56 629.96 693.872C630.968 693.168 632.52 692.784 634.616 692.72L636.8 692.648V691.88C636.8 690.808 636.568 690.064 636.104 689.648C635.64 689.232 634.984 689.024 634.136 689.024C633.464 689.024 632.824 689.128 632.216 689.336C631.608 689.528 631.04 689.752 630.512 690.008L629.864 688.424C630.424 688.12 631.088 687.864 631.856 687.656C632.624 687.432 633.424 687.32 634.256 687.32C635.824 687.32 636.984 687.664 637.736 688.352C638.488 689.04 638.864 690.136 638.864 691.64V700.4H637.328L636.92 698.576H636.824C636.264 699.28 635.672 699.8 635.048 700.136C634.44 700.472 633.592 700.64 632.504 700.64ZM632.984 698.936C634.072 698.936 634.976 698.64 635.696 698.048C636.416 697.44 636.776 696.512 636.776 695.264V694.112L634.88 694.184C633.28 694.248 632.168 694.504 631.544 694.952C630.936 695.4 630.632 696.032 630.632 696.848C630.632 697.568 630.848 698.096 631.28 698.432C631.728 698.768 632.296 698.936 632.984 698.936ZM644.589 700.376L641.061 687.512H643.245L645.021 694.376C645.197 695.064 645.365 695.76 645.525 696.464C645.685 697.168 645.797 697.752 645.861 698.216H645.957C646.021 697.944 646.093 697.608 646.173 697.208C646.269 696.808 646.373 696.392 646.485 695.96C646.597 695.512 646.709 695.112 646.821 694.76L649.101 687.512H651.405L653.613 694.76C653.789 695.304 653.957 695.896 654.117 696.536C654.293 697.176 654.413 697.728 654.477 698.192H654.573C654.621 697.792 654.725 697.24 654.885 696.536C655.061 695.832 655.245 695.112 655.437 694.376L657.237 687.512H659.397L655.821 700.376H653.349L651.141 693.128C650.933 692.472 650.749 691.832 650.589 691.208C650.445 690.568 650.333 690.072 650.253 689.72H650.157C650.093 690.072 649.989 690.568 649.845 691.208C649.701 691.832 649.517 692.48 649.293 693.152L646.989 700.376H644.589Z" fill="black"/>
</g>
</g>
</svg>
