<svg width="1920" height="1080" viewBox="0 0 1920 1080" fill="none" xmlns="http://www.w3.org/2000/svg">
<g id="This work - goal">
<rect width="1920" height="1080" fill="white"/>
<g id="Deciding the L-theory of S">
<g id="Group 31">
<g id="Group 29">
<path id="Show decidability of MSO over the full binary tree with branches via automata methods." d="M424.118 465.675H422.426L421.934 453.881H423.627C424.282 456.393 425.047 458.322 425.92 459.669C426.794 460.979 427.868 461.889 429.142 462.399C430.452 462.872 432.035 463.109 433.892 463.109C435.275 463.109 436.458 462.927 437.441 462.563C438.424 462.162 439.188 461.544 439.734 460.706C440.28 459.833 440.553 458.704 440.553 457.321C440.553 455.72 440.098 454.391 439.188 453.335C438.314 452.28 437.186 451.352 435.803 450.551C434.42 449.714 432.982 448.876 431.489 448.039C430.033 447.202 428.632 446.31 427.285 445.364C425.938 444.417 424.828 443.289 423.955 441.979C423.117 440.668 422.699 439.067 422.699 437.174C422.699 435.245 423.172 433.643 424.118 432.369C425.065 431.059 426.321 430.058 427.886 429.366C429.451 428.674 431.18 428.329 433.073 428.329C434.747 428.329 436.039 428.474 436.949 428.765C437.859 429.02 438.569 429.293 439.079 429.584C439.625 429.876 440.116 430.021 440.553 430.021C440.99 430.021 441.336 429.912 441.59 429.694C441.882 429.439 442.1 429.02 442.246 428.438H443.665L444.047 439.358H442.409C441.645 436.337 440.626 434.098 439.352 432.642C438.078 431.186 436.058 430.476 433.291 430.513C431.435 430.513 429.997 430.949 428.978 431.823C427.959 432.66 427.449 433.934 427.449 435.645C427.449 436.992 427.831 438.157 428.596 439.139C429.36 440.086 430.361 440.941 431.599 441.706C432.836 442.47 434.128 443.253 435.475 444.053C436.676 444.745 437.878 445.437 439.079 446.128C440.316 446.82 441.427 447.602 442.409 448.476C443.429 449.35 444.229 450.369 444.812 451.534C445.431 452.698 445.74 454.1 445.74 455.738C445.74 457.849 445.249 459.633 444.266 461.089C443.319 462.545 442.009 463.655 440.335 464.419C438.66 465.147 436.767 465.511 434.656 465.511C432.763 465.511 431.216 465.366 430.015 465.074C428.85 464.82 427.922 464.565 427.231 464.31C426.575 464.019 426.029 463.873 425.593 463.873C425.229 463.873 424.901 464.037 424.61 464.365C424.319 464.692 424.155 465.129 424.118 465.675ZM477.894 464.856H465.336V463.273C466.61 463.273 467.52 463.145 468.066 462.89C468.612 462.636 468.958 462.235 469.104 461.689C469.249 461.143 469.322 460.433 469.322 459.56V450.114C469.322 448.622 469.213 447.257 468.995 446.019C468.776 444.745 468.303 443.744 467.575 443.016C466.883 442.252 465.791 441.869 464.299 441.869C463.171 441.869 462.024 442.179 460.859 442.798C459.694 443.38 458.366 444.399 456.873 445.855L456.928 442.852H457.692C459.403 441.251 460.932 440.104 462.279 439.412C463.662 438.721 465.082 438.375 466.538 438.375C468.103 438.375 469.359 438.684 470.305 439.303C471.288 439.922 472.034 440.741 472.544 441.76C473.053 442.743 473.399 443.835 473.581 445.036C473.763 446.201 473.854 447.348 473.854 448.476V459.341C473.854 460.797 474.091 461.817 474.564 462.399C475.073 462.981 476.184 463.273 477.894 463.273V464.856ZM461.569 464.856H449.175V463.273C450.594 463.273 451.577 463.072 452.123 462.672C452.706 462.272 452.997 461.307 452.997 459.778V431.823C452.997 430.877 452.724 430.276 452.178 430.021C451.668 429.766 451.049 429.639 450.321 429.639C449.885 429.639 449.502 429.657 449.175 429.694C448.884 429.73 448.738 429.748 448.738 429.748V428.219L456.054 426.308H457.529V459.56C457.529 460.506 457.601 461.252 457.747 461.798C457.893 462.344 458.257 462.727 458.839 462.945C459.421 463.163 460.331 463.273 461.569 463.273V464.856ZM493.136 465.402C489.314 465.402 486.311 464.219 484.127 461.853C481.979 459.451 480.905 456.047 480.905 451.643C480.905 448.986 481.415 446.674 482.434 444.709C483.453 442.707 484.873 441.16 486.693 440.068C488.549 438.939 490.697 438.375 493.136 438.375C496.885 438.375 499.833 439.54 501.981 441.869C504.165 444.199 505.257 447.384 505.257 451.424C505.257 454.482 504.729 457.048 503.674 459.123C502.654 461.198 501.235 462.763 499.415 463.819C497.595 464.874 495.502 465.402 493.136 465.402ZM493.354 463.218C494.847 463.218 496.102 462.872 497.122 462.181C498.141 461.489 498.905 460.306 499.415 458.632C499.961 456.957 500.234 454.646 500.234 451.697C500.234 448.349 499.615 445.637 498.377 443.562C497.176 441.487 495.356 440.45 492.917 440.45C490.843 440.45 489.168 441.323 487.894 443.071C486.62 444.818 485.983 447.439 485.983 450.933C485.983 455.265 486.62 458.413 487.894 460.379C489.205 462.308 491.025 463.254 493.354 463.218ZM536.525 465.184H533.904L527.844 448.531L527.079 447.002L526.206 444.599C525.769 443.398 525.35 442.525 524.95 441.979C524.586 441.396 524.149 441.032 523.639 440.887C523.13 440.705 522.475 440.614 521.674 440.614V439.03H533.085V440.614C532.066 440.614 531.356 440.741 530.956 440.996C530.555 441.214 530.355 441.542 530.355 441.979C530.355 442.306 530.392 442.67 530.464 443.071C530.574 443.435 530.701 443.817 530.847 444.217L535.269 456.175L536.252 459.341H536.58L537.672 456.175L541.985 443.944C542.021 443.799 542.076 443.562 542.149 443.234C542.258 442.87 542.313 442.452 542.313 441.979C542.313 441.469 542.058 441.123 541.548 440.941C541.039 440.723 540.274 440.614 539.255 440.614V439.03H548.701V440.614C547.645 440.614 546.844 440.868 546.298 441.378C545.752 441.851 545.206 442.798 544.66 444.217L536.525 465.184ZM521.51 465.184H518.998L510.808 444.599C510.335 443.471 509.898 442.634 509.498 442.088C509.098 441.505 508.643 441.123 508.133 440.941C507.623 440.723 506.968 440.614 506.167 440.614V439.03H517.906V440.614C516.814 440.614 516.05 440.741 515.613 440.996C515.213 441.214 515.013 441.542 515.013 441.979C515.013 442.343 515.067 442.688 515.176 443.016C515.322 443.344 515.468 443.708 515.613 444.108L520.363 456.175L521.346 459.341H521.728L522.875 456.175L527.025 445.691L528.826 449.295H527.898L521.51 465.184ZM571.981 465.293C569.942 465.293 568.213 464.747 566.794 463.655C565.411 462.563 564.373 461.089 563.682 459.232C562.99 457.339 562.644 455.228 562.644 452.899C562.644 449.877 563.208 447.293 564.337 445.145C565.465 442.961 566.976 441.287 568.869 440.122C570.798 438.957 572.909 438.375 575.202 438.375C576.076 438.375 576.931 438.484 577.768 438.703C578.642 438.921 579.479 439.249 580.28 439.685H580.498V432.533C580.498 431.332 580.353 430.549 580.062 430.185C579.807 429.821 579.152 429.639 578.096 429.639C577.841 429.639 577.532 429.657 577.168 429.694C576.84 429.73 576.676 429.748 576.676 429.748V428.219L583.556 426.308H585.03V459.014C585.03 460.433 585.23 461.362 585.631 461.798C586.031 462.199 586.741 462.399 587.76 462.399H588.907V463.873L581.918 465.129H580.662V461.362H580.444C579.425 462.272 578.205 463.163 576.786 464.037C575.402 464.874 573.801 465.293 571.981 465.293ZM574.547 461.362C575.821 461.362 576.895 461.198 577.768 460.87C578.642 460.506 579.552 459.997 580.498 459.341V444.927C580.28 443.799 579.752 442.798 578.915 441.924C578.078 441.014 576.804 440.559 575.093 440.559C572.8 440.559 570.943 441.396 569.524 443.071C568.104 444.745 567.394 447.311 567.394 450.769C567.394 454.518 567.995 457.23 569.196 458.905C570.434 460.543 572.217 461.362 574.547 461.362ZM603.761 465.402C601.577 465.402 599.594 464.892 597.81 463.873C596.063 462.818 594.68 461.289 593.66 459.287C592.641 457.248 592.132 454.773 592.132 451.861C592.132 448.804 592.641 446.292 593.66 444.326C594.716 442.324 596.117 440.832 597.865 439.849C599.612 438.866 601.541 438.375 603.652 438.375C606.637 438.375 609.039 439.412 610.859 441.487C612.679 443.562 613.662 446.51 613.808 450.332H596.063L596.008 448.312H608.675C608.639 446.965 608.402 445.71 607.966 444.545C607.529 443.344 606.892 442.379 606.055 441.651C605.217 440.923 604.144 440.559 602.833 440.559C600.722 440.559 599.139 441.396 598.083 443.071C597.027 444.709 596.5 447.038 596.5 450.059C596.5 452.571 596.9 454.664 597.701 456.338C598.502 458.013 599.557 459.269 600.868 460.106C602.178 460.907 603.579 461.307 605.072 461.307C606.564 461.307 607.765 461.107 608.675 460.706C609.622 460.306 610.423 459.796 611.078 459.178C611.733 458.522 612.352 457.813 612.934 457.048L613.972 457.813C613.498 458.832 612.952 459.815 612.334 460.761C611.715 461.671 611.005 462.472 610.204 463.163C609.44 463.855 608.53 464.401 607.474 464.801C606.419 465.202 605.181 465.402 603.761 465.402ZM637.879 456.775L638.917 457.54C638.225 458.996 637.424 460.324 636.514 461.525C635.641 462.727 634.549 463.673 633.238 464.365C631.928 465.056 630.29 465.402 628.324 465.402C626.067 465.402 624.12 464.856 622.482 463.764C620.844 462.672 619.588 461.161 618.715 459.232C617.841 457.267 617.404 455.028 617.404 452.516C617.404 449.641 617.877 447.147 618.824 445.036C619.807 442.925 621.208 441.287 623.028 440.122C624.884 438.957 627.123 438.375 629.744 438.375C632.328 438.375 634.348 438.939 635.804 440.068C637.297 441.196 638.043 442.561 638.043 444.163C638.043 444.963 637.843 445.582 637.442 446.019C637.078 446.419 636.514 446.62 635.75 446.62C634.949 446.62 634.33 446.419 633.893 446.019C633.493 445.582 633.165 445.054 632.911 444.436C632.656 443.817 632.383 443.198 632.092 442.579C631.837 441.96 631.455 441.451 630.945 441.05C630.472 440.614 629.762 440.395 628.816 440.395C626.595 440.395 624.848 441.214 623.574 442.852C622.336 444.454 621.718 446.82 621.718 449.95C621.718 453.263 622.391 455.993 623.738 458.14C625.121 460.251 627.214 461.307 630.017 461.307C631.8 461.307 633.238 460.943 634.33 460.215C635.459 459.487 636.642 458.34 637.879 456.775ZM654.002 464.856H641.717V463.327C642.955 463.327 643.828 463.218 644.338 463C644.884 462.745 645.211 462.326 645.321 461.744C645.466 461.161 645.539 460.361 645.539 459.341V444.108C645.539 442.943 645.339 442.233 644.938 441.979C644.538 441.687 643.937 441.542 643.137 441.542C642.773 441.542 642.445 441.56 642.154 441.596C641.899 441.633 641.772 441.651 641.772 441.651V440.068L648.651 438.539H650.071V459.341C650.071 460.397 650.144 461.216 650.289 461.798C650.435 462.381 650.781 462.781 651.327 463C651.909 463.218 652.801 463.327 654.002 463.327V464.856ZM647.887 434.28C646.977 434.28 646.231 433.971 645.648 433.352C645.066 432.733 644.775 432.005 644.775 431.168C644.775 430.331 645.048 429.621 645.594 429.038C646.176 428.42 646.94 428.11 647.887 428.11C648.833 428.11 649.579 428.42 650.125 429.038C650.708 429.621 650.999 430.331 650.999 431.168C650.999 432.005 650.708 432.733 650.125 433.352C649.579 433.971 648.833 434.28 647.887 434.28ZM666.678 465.293C664.639 465.293 662.91 464.747 661.491 463.655C660.107 462.563 659.07 461.089 658.378 459.232C657.687 457.339 657.341 455.228 657.341 452.899C657.341 449.877 657.905 447.293 659.034 445.145C660.162 442.961 661.673 441.287 663.565 440.122C665.495 438.957 667.606 438.375 669.899 438.375C670.773 438.375 671.628 438.484 672.465 438.703C673.339 438.921 674.176 439.249 674.977 439.685H675.195V432.533C675.195 431.332 675.05 430.549 674.758 430.185C674.504 429.821 673.848 429.639 672.793 429.639C672.538 429.639 672.229 429.657 671.865 429.694C671.537 429.73 671.373 429.748 671.373 429.748V428.219L678.253 426.308H679.727V459.014C679.727 460.433 679.927 461.362 680.328 461.798C680.728 462.199 681.438 462.399 682.457 462.399H683.604V463.873L676.615 465.129H675.359V461.362H675.141C674.121 462.272 672.902 463.163 671.482 464.037C670.099 464.874 668.498 465.293 666.678 465.293ZM669.244 461.362C670.518 461.362 671.592 461.198 672.465 460.87C673.339 460.506 674.249 459.997 675.195 459.341V444.927C674.977 443.799 674.449 442.798 673.612 441.924C672.775 441.014 671.501 440.559 669.79 440.559C667.497 440.559 665.64 441.396 664.221 443.071C662.801 444.745 662.091 447.311 662.091 450.769C662.091 454.518 662.692 457.23 663.893 458.905C665.131 460.543 666.914 461.362 669.244 461.362ZM693.544 465.238C691.433 465.238 689.813 464.656 688.685 463.491C687.593 462.326 687.047 460.87 687.047 459.123C687.047 457.667 687.374 456.448 688.03 455.465C688.721 454.446 689.613 453.59 690.705 452.899C691.833 452.207 693.035 451.625 694.309 451.151C695.619 450.678 696.893 450.278 698.131 449.95C699.368 449.623 700.46 449.313 701.407 449.022V446.62C701.407 444.254 700.988 442.579 700.151 441.596C699.35 440.577 698.131 440.068 696.493 440.068C694.927 440.068 693.926 440.395 693.49 441.05C693.053 441.706 692.834 442.852 692.834 444.49C692.834 445.327 692.616 445.964 692.179 446.401C691.779 446.802 691.196 447.002 690.432 447.002C689.886 447.002 689.358 446.802 688.849 446.401C688.375 445.964 688.139 445.291 688.139 444.381C688.139 443.362 688.521 442.397 689.285 441.487C690.086 440.577 691.196 439.831 692.616 439.249C694.072 438.666 695.783 438.375 697.748 438.375C700.733 438.375 702.844 439.067 704.082 440.45C705.32 441.833 705.938 443.944 705.938 446.783V459.178C705.938 460.306 706.066 461.034 706.321 461.362C706.575 461.689 706.994 461.853 707.576 461.853C708.086 461.853 708.541 461.726 708.941 461.471C709.378 461.216 709.779 460.888 710.143 460.488L710.962 461.362C710.052 462.672 709.178 463.637 708.341 464.255C707.54 464.838 706.448 465.129 705.065 465.129C703.791 465.129 702.954 464.765 702.553 464.037C702.189 463.309 701.916 462.272 701.734 460.925L701.407 460.27V450.824C699.769 451.224 698.222 451.697 696.766 452.243C695.31 452.789 694.127 453.499 693.217 454.373C692.307 455.246 691.852 456.393 691.852 457.813C691.852 459.159 692.216 460.233 692.944 461.034C693.672 461.835 694.618 462.235 695.783 462.235C696.729 462.235 697.712 461.999 698.731 461.525C699.787 461.052 700.806 460.379 701.789 459.505L702.226 461.471H701.57C700.733 462.199 699.914 462.854 699.113 463.436C698.349 464.019 697.512 464.474 696.602 464.801C695.728 465.093 694.709 465.238 693.544 465.238ZM718.686 426.308H720.105V443.016H720.269C721.216 441.851 722.399 440.796 723.818 439.849C725.238 438.866 726.858 438.375 728.678 438.375C730.498 438.375 732.081 438.903 733.428 439.958C734.811 440.978 735.885 442.397 736.649 444.217C737.414 446.037 737.796 448.13 737.796 450.496C737.796 453.736 737.232 456.466 736.103 458.686C734.975 460.907 733.428 462.581 731.462 463.709C729.497 464.838 727.24 465.402 724.692 465.402C722.362 465.402 720.415 465.129 718.85 464.583C717.321 464.037 716.229 463.582 715.574 463.218V432.533C715.574 431.295 715.428 430.513 715.137 430.185C714.882 429.821 714.227 429.639 713.171 429.639C712.734 429.639 712.37 429.657 712.079 429.694C711.788 429.73 711.642 429.748 711.642 429.748V428.219L718.686 426.308ZM720.105 445.418V460.597C720.615 461.216 721.307 461.798 722.18 462.344C723.054 462.89 724.219 463.163 725.675 463.163C727.422 463.163 728.805 462.672 729.824 461.689C730.88 460.706 731.644 459.396 732.117 457.758C732.591 456.084 732.827 454.245 732.827 452.243C732.827 450.496 732.645 448.858 732.281 447.329C731.917 445.764 731.262 444.508 730.316 443.562C729.369 442.579 728.022 442.088 726.275 442.088C724.892 442.088 723.636 442.488 722.508 443.289C721.416 444.053 720.615 444.763 720.105 445.418ZM753.764 464.856H741.479V463.327C742.717 463.327 743.59 463.218 744.1 463C744.646 462.745 744.974 462.326 745.083 461.744C745.228 461.161 745.301 460.361 745.301 459.341V444.108C745.301 442.943 745.101 442.233 744.701 441.979C744.3 441.687 743.7 441.542 742.899 441.542C742.535 441.542 742.207 441.56 741.916 441.596C741.661 441.633 741.534 441.651 741.534 441.651V440.068L748.413 438.539H749.833V459.341C749.833 460.397 749.906 461.216 750.051 461.798C750.197 462.381 750.543 462.781 751.089 463C751.671 463.218 752.563 463.327 753.764 463.327V464.856ZM747.649 434.28C746.739 434.28 745.993 433.971 745.41 433.352C744.828 432.733 744.537 432.005 744.537 431.168C744.537 430.331 744.81 429.621 745.356 429.038C745.938 428.42 746.703 428.11 747.649 428.11C748.595 428.11 749.342 428.42 749.888 429.038C750.47 429.621 750.761 430.331 750.761 431.168C750.761 432.005 750.47 432.733 749.888 433.352C749.342 433.971 748.595 434.28 747.649 434.28ZM769.498 464.856H756.94V463.273C758.141 463.273 759.014 463.163 759.56 462.945C760.106 462.69 760.434 462.29 760.543 461.744C760.689 461.161 760.762 460.361 760.762 459.341V431.932C760.762 430.804 760.543 430.13 760.106 429.912C759.706 429.694 759.16 429.584 758.468 429.584C757.995 429.584 757.577 429.603 757.213 429.639C756.885 429.675 756.721 429.694 756.721 429.694V428.219L763.928 426.308H765.293V459.341C765.293 460.397 765.366 461.216 765.512 461.798C765.694 462.344 766.076 462.727 766.658 462.945C767.241 463.163 768.187 463.273 769.498 463.273V464.856ZM784.797 464.856H772.512V463.327C773.749 463.327 774.623 463.218 775.132 463C775.678 462.745 776.006 462.326 776.115 461.744C776.261 461.161 776.334 460.361 776.334 459.341V444.108C776.334 442.943 776.133 442.233 775.733 441.979C775.333 441.687 774.732 441.542 773.931 441.542C773.567 441.542 773.24 441.56 772.948 441.596C772.694 441.633 772.566 441.651 772.566 441.651V440.068L779.446 438.539H780.865V459.341C780.865 460.397 780.938 461.216 781.084 461.798C781.229 462.381 781.575 462.781 782.121 463C782.704 463.218 783.595 463.327 784.797 463.327V464.856ZM778.681 434.28C777.771 434.28 777.025 433.971 776.443 433.352C775.86 432.733 775.569 432.005 775.569 431.168C775.569 430.331 775.842 429.621 776.388 429.038C776.971 428.42 777.735 428.11 778.681 428.11C779.628 428.11 780.374 428.42 780.92 429.038C781.502 429.621 781.794 430.331 781.794 431.168C781.794 432.005 781.502 432.733 780.92 433.352C780.374 433.971 779.628 434.28 778.681 434.28ZM802.332 459.942L803.369 460.816C802.678 461.798 802.022 462.636 801.404 463.327C800.821 463.982 800.166 464.492 799.438 464.856C798.71 465.22 797.764 465.402 796.599 465.402C794.779 465.402 793.45 464.874 792.613 463.819C791.776 462.727 791.357 460.961 791.357 458.522V441.596H788.354V440.341C789.628 439.54 790.72 438.466 791.63 437.119C792.577 435.736 793.541 433.88 794.524 431.55H795.889V439.303H802.059V441.596H795.889V456.994C795.889 458.923 796.053 460.27 796.38 461.034C796.744 461.798 797.454 462.181 798.51 462.181C799.383 462.181 800.057 461.999 800.53 461.635C801.04 461.271 801.64 460.706 802.332 459.942ZM807.761 477.687C806.632 477.687 805.704 477.469 804.976 477.032C804.248 476.595 803.884 475.867 803.884 474.848C803.884 474.011 804.121 473.41 804.594 473.046C805.103 472.682 805.704 472.5 806.396 472.5C807.342 472.5 808.179 472.7 808.907 473.101C809.672 473.501 810.236 473.701 810.6 473.701C811.109 473.701 811.655 473.301 812.238 472.5C812.82 471.736 813.384 470.807 813.93 469.715C814.513 468.623 814.968 467.586 815.295 466.603C815.659 465.657 815.841 464.983 815.841 464.583C815.841 464.219 815.641 463.564 815.241 462.617C814.877 461.671 814.531 460.834 814.203 460.106L806.177 442.579C805.922 441.96 805.558 441.487 805.085 441.16C804.612 440.796 803.884 440.614 802.901 440.614V439.03H814.586V440.668C813.348 440.668 812.511 440.796 812.074 441.05C811.674 441.269 811.473 441.615 811.473 442.088C811.473 442.452 811.564 442.852 811.746 443.289C811.928 443.689 812.092 444.09 812.238 444.49L817.589 456.502L818.298 459.178H818.681L823.977 443.344C824.05 443.162 824.104 442.943 824.141 442.688C824.213 442.397 824.25 442.161 824.25 441.979C824.25 441.433 823.959 441.069 823.376 440.887C822.83 440.705 822.102 440.614 821.192 440.614V439.03H830.474V440.614C829.382 440.614 828.581 440.868 828.072 441.378C827.562 441.851 827.107 442.616 826.707 443.671L818.189 466.057C817.134 468.824 816.096 471.062 815.077 472.773C814.094 474.484 813.02 475.721 811.856 476.486C810.691 477.287 809.326 477.687 807.761 477.687ZM856.887 465.402C853.065 465.402 850.062 464.219 847.878 461.853C845.73 459.451 844.657 456.047 844.657 451.643C844.657 448.986 845.166 446.674 846.185 444.709C847.205 442.707 848.624 441.16 850.444 440.068C852.301 438.939 854.448 438.375 856.887 438.375C860.636 438.375 863.585 439.54 865.732 441.869C867.916 444.199 869.008 447.384 869.008 451.424C869.008 454.482 868.48 457.048 867.425 459.123C866.406 461.198 864.986 462.763 863.166 463.819C861.346 464.874 859.253 465.402 856.887 465.402ZM857.105 463.218C858.598 463.218 859.854 462.872 860.873 462.181C861.892 461.489 862.656 460.306 863.166 458.632C863.712 456.957 863.985 454.646 863.985 451.697C863.985 448.349 863.366 445.637 862.129 443.562C860.927 441.487 859.107 440.45 856.669 440.45C854.594 440.45 852.919 441.323 851.645 443.071C850.371 444.818 849.734 447.439 849.734 450.933C849.734 455.265 850.371 458.413 851.645 460.379C852.956 462.308 854.776 463.254 857.105 463.218ZM886.517 464.856H871.83V463.273C873.176 463.273 874.159 463.163 874.778 462.945C875.433 462.69 875.87 462.217 876.088 461.525C876.307 460.834 876.416 459.778 876.416 458.359V440.996C876.416 438.921 876.452 437.228 876.525 435.918C876.634 434.571 876.816 433.443 877.071 432.533C877.326 431.623 877.69 430.749 878.163 429.912C878.891 428.638 879.801 427.655 880.893 426.964C882.022 426.272 883.532 425.926 885.425 425.926C886.626 425.926 887.682 426.072 888.592 426.363C889.502 426.654 890.212 427.091 890.721 427.673C891.267 428.219 891.54 428.911 891.54 429.748C891.54 430.549 891.322 431.15 890.885 431.55C890.448 431.914 889.92 432.096 889.302 432.096C888.61 432.096 888.046 431.878 887.609 431.441C887.172 430.968 886.754 430.476 886.353 429.967C885.989 429.457 885.589 429.002 885.152 428.602C884.752 428.165 884.224 427.946 883.569 427.946C882.549 427.946 881.858 428.42 881.494 429.366C881.13 430.276 880.948 431.878 880.948 434.171V458.359C880.948 459.778 881.093 460.834 881.385 461.525C881.676 462.217 882.222 462.69 883.023 462.945C883.823 463.163 884.988 463.273 886.517 463.273V464.856ZM887.609 441.596H872.266V439.303H887.609V441.596ZM917.519 464.856H904.688V463.218C906.18 463.218 907.29 463.091 908.018 462.836C908.746 462.545 909.238 461.944 909.492 461.034C909.747 460.124 909.875 458.741 909.875 456.884V435.645C909.875 434.262 909.747 433.224 909.492 432.533C909.238 431.805 908.746 431.313 908.018 431.059C907.327 430.767 906.253 430.622 904.797 430.622V428.984H915.935L927.456 456.448H927.674L939.14 428.984H949.514V430.622C948.24 430.622 947.257 430.767 946.566 431.059C945.874 431.313 945.401 431.805 945.146 432.533C944.891 433.224 944.764 434.244 944.764 435.59V458.359C944.764 459.669 944.891 460.688 945.146 461.416C945.401 462.108 945.874 462.581 946.566 462.836C947.257 463.091 948.258 463.218 949.569 463.218V464.856H935.045V463.218C936.465 463.218 937.52 463.091 938.212 462.836C938.904 462.581 939.359 462.108 939.577 461.416C939.795 460.688 939.905 459.669 939.905 458.359V434.826H939.686L926.964 464.856H925.654L912.768 434.881H912.55V456.884C912.55 458.741 912.677 460.124 912.932 461.034C913.187 461.944 913.66 462.545 914.352 462.836C915.08 463.091 916.135 463.218 917.519 463.218V464.856ZM956.095 465.675H954.403L953.911 453.881H955.604C956.259 456.393 957.023 458.322 957.897 459.669C958.771 460.979 959.844 461.889 961.118 462.399C962.429 462.872 964.012 463.109 965.869 463.109C967.252 463.109 968.435 462.927 969.418 462.563C970.4 462.162 971.165 461.544 971.711 460.706C972.257 459.833 972.53 458.704 972.53 457.321C972.53 455.72 972.075 454.391 971.165 453.335C970.291 452.28 969.163 451.352 967.78 450.551C966.396 449.714 964.959 448.876 963.466 448.039C962.01 447.202 960.609 446.31 959.262 445.364C957.915 444.417 956.805 443.289 955.931 441.979C955.094 440.668 954.676 439.067 954.676 437.174C954.676 435.245 955.149 433.643 956.095 432.369C957.042 431.059 958.297 430.058 959.863 429.366C961.428 428.674 963.157 428.329 965.05 428.329C966.724 428.329 968.016 428.474 968.926 428.765C969.836 429.02 970.546 429.293 971.056 429.584C971.602 429.876 972.093 430.021 972.53 430.021C972.967 430.021 973.312 429.912 973.567 429.694C973.858 429.439 974.077 429.02 974.222 428.438H975.642L976.024 439.358H974.386C973.622 436.337 972.603 434.098 971.329 432.642C970.055 431.186 968.034 430.476 965.268 430.513C963.412 430.513 961.974 430.949 960.955 431.823C959.935 432.66 959.426 433.934 959.426 435.645C959.426 436.992 959.808 438.157 960.572 439.139C961.337 440.086 962.338 440.941 963.575 441.706C964.813 442.47 966.105 443.253 967.452 444.053C968.653 444.745 969.854 445.437 971.056 446.128C972.293 446.82 973.403 447.602 974.386 448.476C975.405 449.35 976.206 450.369 976.789 451.534C977.407 452.698 977.717 454.1 977.717 455.738C977.717 457.849 977.225 459.633 976.243 461.089C975.296 462.545 973.986 463.655 972.311 464.419C970.637 465.147 968.744 465.511 966.633 465.511C964.74 465.511 963.193 465.366 961.992 465.074C960.827 464.82 959.899 464.565 959.207 464.31C958.552 464.019 958.006 463.873 957.569 463.873C957.205 463.873 956.878 464.037 956.587 464.365C956.295 464.692 956.132 465.129 956.095 465.675ZM999.661 465.511C996.057 465.511 992.945 464.765 990.324 463.273C987.74 461.78 985.738 459.651 984.318 456.884C982.935 454.082 982.243 450.751 982.243 446.893C982.243 443.18 982.935 439.94 984.318 437.174C985.738 434.371 987.74 432.205 990.324 430.676C992.945 429.111 996.057 428.329 999.661 428.329C1003.3 428.329 1006.41 429.093 1009 430.622C1011.58 432.114 1013.57 434.225 1014.95 436.955C1016.33 439.649 1017.02 442.798 1017.02 446.401C1017.02 450.223 1016.31 453.572 1014.89 456.448C1013.51 459.287 1011.53 461.507 1008.94 463.109C1006.36 464.71 1003.26 465.511 999.661 465.511ZM999.715 463.218C1003.61 463.218 1006.5 461.817 1008.4 459.014C1010.33 456.211 1011.29 452.061 1011.29 446.565C1011.29 443.289 1010.8 440.468 1009.82 438.102C1008.83 435.7 1007.45 433.861 1005.67 432.587C1003.92 431.277 1001.86 430.622 999.497 430.622C995.966 430.622 993.163 432.041 991.089 434.881C989.014 437.683 987.976 441.578 987.976 446.565C987.976 451.697 988.941 455.756 990.87 458.741C992.836 461.726 995.784 463.218 999.715 463.218ZM1046.71 465.402C1042.89 465.402 1039.88 464.219 1037.7 461.853C1035.55 459.451 1034.48 456.047 1034.48 451.643C1034.48 448.986 1034.99 446.674 1036.01 444.709C1037.02 442.707 1038.44 441.16 1040.26 440.068C1042.12 438.939 1044.27 438.375 1046.71 438.375C1050.46 438.375 1053.4 439.54 1055.55 441.869C1057.74 444.199 1058.83 447.384 1058.83 451.424C1058.83 454.482 1058.3 457.048 1057.25 459.123C1056.23 461.198 1054.81 462.763 1052.99 463.819C1051.17 464.874 1049.07 465.402 1046.71 465.402ZM1046.93 463.218C1048.42 463.218 1049.67 462.872 1050.69 462.181C1051.71 461.489 1052.48 460.306 1052.99 458.632C1053.53 456.957 1053.81 454.646 1053.81 451.697C1053.81 448.349 1053.19 445.637 1051.95 443.562C1050.75 441.487 1048.93 440.45 1046.49 440.45C1044.41 440.45 1042.74 441.323 1041.47 443.071C1040.19 444.818 1039.55 447.439 1039.55 450.933C1039.55 455.265 1040.19 458.413 1041.47 460.379C1042.78 462.308 1044.6 463.254 1046.93 463.218ZM1075.14 465.184H1072.52L1064.38 444.599C1063.91 443.471 1063.49 442.634 1063.12 442.088C1062.76 441.505 1062.34 441.123 1061.87 440.941C1061.39 440.723 1060.76 440.614 1059.96 440.614V439.03H1071.48V440.614C1070.42 440.614 1069.68 440.741 1069.24 440.996C1068.84 441.214 1068.64 441.542 1068.64 441.979C1068.64 442.343 1068.69 442.688 1068.8 443.016C1068.91 443.344 1069.04 443.708 1069.18 444.108L1073.83 456.284L1074.86 459.56H1075.19L1076.34 456.229L1081.03 443.89C1081.07 443.744 1081.14 443.526 1081.25 443.234C1081.36 442.907 1081.41 442.525 1081.41 442.088C1081.41 441.469 1081.14 441.069 1080.6 440.887C1080.05 440.705 1079.29 440.614 1078.3 440.614V439.03H1087.86V440.614C1086.8 440.614 1085.98 440.868 1085.4 441.378C1084.85 441.851 1084.31 442.798 1083.76 444.217L1075.14 465.184ZM1100.17 465.402C1097.99 465.402 1096.01 464.892 1094.22 463.873C1092.47 462.818 1091.09 461.289 1090.07 459.287C1089.05 457.248 1088.54 454.773 1088.54 451.861C1088.54 448.804 1089.05 446.292 1090.07 444.326C1091.13 442.324 1092.53 440.832 1094.28 439.849C1096.02 438.866 1097.95 438.375 1100.06 438.375C1103.05 438.375 1105.45 439.412 1107.27 441.487C1109.09 443.562 1110.07 446.51 1110.22 450.332H1092.47L1092.42 448.312H1105.09C1105.05 446.965 1104.81 445.71 1104.38 444.545C1103.94 443.344 1103.3 442.379 1102.47 441.651C1101.63 440.923 1100.56 440.559 1099.25 440.559C1097.13 440.559 1095.55 441.396 1094.5 443.071C1093.44 444.709 1092.91 447.038 1092.91 450.059C1092.91 452.571 1093.31 454.664 1094.11 456.338C1094.91 458.013 1095.97 459.269 1097.28 460.106C1098.59 460.907 1099.99 461.307 1101.48 461.307C1102.98 461.307 1104.18 461.107 1105.09 460.706C1106.03 460.306 1106.83 459.796 1107.49 459.178C1108.15 458.522 1108.76 457.813 1109.35 457.048L1110.38 457.813C1109.91 458.832 1109.36 459.815 1108.75 460.761C1108.13 461.671 1107.42 462.472 1106.62 463.163C1105.85 463.855 1104.94 464.401 1103.89 464.801C1102.83 465.202 1101.59 465.402 1100.17 465.402ZM1127.25 464.856H1113.6V463.273C1114.8 463.273 1115.67 463.182 1116.22 463C1116.8 462.781 1117.17 462.417 1117.31 461.908C1117.49 461.362 1117.58 460.579 1117.58 459.56V444.545C1117.58 443.562 1117.49 442.834 1117.31 442.361C1117.17 441.851 1116.6 441.596 1115.62 441.596C1115.07 441.596 1114.65 441.615 1114.36 441.651C1114.07 441.687 1113.93 441.706 1113.93 441.706V440.177L1120.7 438.539H1122.01V444.163H1122.17C1123.12 442.816 1123.95 441.706 1124.68 440.832C1125.41 439.958 1126.12 439.303 1126.81 438.866C1127.54 438.43 1128.34 438.211 1129.21 438.211C1130.27 438.211 1131.05 438.484 1131.56 439.03C1132.11 439.576 1132.38 440.322 1132.38 441.269C1132.38 442.288 1132.13 443.034 1131.62 443.507C1131.14 443.981 1130.6 444.217 1129.98 444.217C1129.4 444.217 1128.87 444.072 1128.39 443.78C1127.96 443.453 1127.58 443.143 1127.25 442.852C1126.92 442.525 1126.65 442.361 1126.43 442.361C1125.81 442.361 1125.1 442.834 1124.3 443.78C1123.5 444.727 1122.77 445.746 1122.12 446.838V459.287C1122.12 460.415 1122.26 461.271 1122.55 461.853C1122.84 462.435 1123.35 462.818 1124.08 463C1124.85 463.182 1125.9 463.273 1127.25 463.273V464.856ZM1161.6 459.942L1162.64 460.816C1161.95 461.798 1161.29 462.636 1160.68 463.327C1160.09 463.982 1159.44 464.492 1158.71 464.856C1157.98 465.22 1157.04 465.402 1155.87 465.402C1154.05 465.402 1152.72 464.874 1151.89 463.819C1151.05 462.727 1150.63 460.961 1150.63 458.522V441.596H1147.63V440.341C1148.9 439.54 1149.99 438.466 1150.9 437.119C1151.85 435.736 1152.81 433.88 1153.8 431.55H1155.16V439.303H1161.33V441.596H1155.16V456.994C1155.16 458.923 1155.33 460.27 1155.65 461.034C1156.02 461.798 1156.73 462.181 1157.78 462.181C1158.66 462.181 1159.33 461.999 1159.8 461.635C1160.31 461.271 1160.91 460.706 1161.6 459.942ZM1193.19 464.856H1180.63V463.273C1181.9 463.273 1182.81 463.145 1183.36 462.89C1183.9 462.636 1184.25 462.235 1184.4 461.689C1184.54 461.143 1184.61 460.433 1184.61 459.56V450.114C1184.61 448.622 1184.5 447.257 1184.29 446.019C1184.07 444.745 1183.59 443.744 1182.87 443.016C1182.18 442.252 1181.08 441.869 1179.59 441.869C1178.46 441.869 1177.32 442.179 1176.15 442.798C1174.99 443.38 1173.66 444.399 1172.17 445.855L1172.22 442.852H1172.98C1174.7 441.251 1176.22 440.104 1177.57 439.412C1178.95 438.721 1180.37 438.375 1181.83 438.375C1183.39 438.375 1184.65 438.684 1185.6 439.303C1186.58 439.922 1187.33 440.741 1187.84 441.76C1188.35 442.743 1188.69 443.835 1188.87 445.036C1189.05 446.201 1189.15 447.348 1189.15 448.476V459.341C1189.15 460.797 1189.38 461.817 1189.86 462.399C1190.37 462.981 1191.48 463.273 1193.19 463.273V464.856ZM1176.86 464.856H1164.47V463.273C1165.89 463.273 1166.87 463.072 1167.42 462.672C1168 462.272 1168.29 461.307 1168.29 459.778V431.823C1168.29 430.877 1168.02 430.276 1167.47 430.021C1166.96 429.766 1166.34 429.639 1165.61 429.639C1165.18 429.639 1164.79 429.657 1164.47 429.694C1164.18 429.73 1164.03 429.748 1164.03 429.748V428.219L1171.35 426.308H1172.82V459.56C1172.82 460.506 1172.89 461.252 1173.04 461.798C1173.18 462.344 1173.55 462.727 1174.13 462.945C1174.71 463.163 1175.62 463.273 1176.86 463.273V464.856ZM1207.83 465.402C1205.64 465.402 1203.66 464.892 1201.88 463.873C1200.13 462.818 1198.75 461.289 1197.73 459.287C1196.71 457.248 1196.2 454.773 1196.2 451.861C1196.2 448.804 1196.71 446.292 1197.73 444.326C1198.78 442.324 1200.18 440.832 1201.93 439.849C1203.68 438.866 1205.61 438.375 1207.72 438.375C1210.7 438.375 1213.11 439.412 1214.93 441.487C1216.75 443.562 1217.73 446.51 1217.87 450.332H1200.13L1200.07 448.312H1212.74C1212.7 446.965 1212.47 445.71 1212.03 444.545C1211.59 443.344 1210.96 442.379 1210.12 441.651C1209.28 440.923 1208.21 440.559 1206.9 440.559C1204.79 440.559 1203.2 441.396 1202.15 443.071C1201.09 444.709 1200.57 447.038 1200.57 450.059C1200.57 452.571 1200.97 454.664 1201.77 456.338C1202.57 458.013 1203.62 459.269 1204.93 460.106C1206.24 460.907 1207.65 461.307 1209.14 461.307C1210.63 461.307 1211.83 461.107 1212.74 460.706C1213.69 460.306 1214.49 459.796 1215.14 459.178C1215.8 458.522 1216.42 457.813 1217 457.048L1218.04 457.813C1217.56 458.832 1217.02 459.815 1216.4 460.761C1215.78 461.671 1215.07 462.472 1214.27 463.163C1213.51 463.855 1212.6 464.401 1211.54 464.801C1210.48 465.202 1209.25 465.402 1207.83 465.402ZM1248.19 464.856H1233.5V463.273C1234.85 463.273 1235.83 463.163 1236.45 462.945C1237.1 462.69 1237.54 462.217 1237.76 461.525C1237.98 460.834 1238.09 459.778 1238.09 458.359V440.996C1238.09 438.921 1238.12 437.228 1238.2 435.918C1238.31 434.571 1238.49 433.443 1238.74 432.533C1239 431.623 1239.36 430.749 1239.83 429.912C1240.56 428.638 1241.47 427.655 1242.56 426.964C1243.69 426.272 1245.2 425.926 1247.1 425.926C1248.3 425.926 1249.35 426.072 1250.26 426.363C1251.17 426.654 1251.88 427.091 1252.39 427.673C1252.94 428.219 1253.21 428.911 1253.21 429.748C1253.21 430.549 1252.99 431.15 1252.56 431.55C1252.12 431.914 1251.59 432.096 1250.97 432.096C1250.28 432.096 1249.72 431.878 1249.28 431.441C1248.84 430.968 1248.43 430.476 1248.02 429.967C1247.66 429.457 1247.26 429.002 1246.82 428.602C1246.42 428.165 1245.9 427.946 1245.24 427.946C1244.22 427.946 1243.53 428.42 1243.17 429.366C1242.8 430.276 1242.62 431.878 1242.62 434.171V458.359C1242.62 459.778 1242.76 460.834 1243.06 461.525C1243.35 462.217 1243.89 462.69 1244.69 462.945C1245.49 463.163 1246.66 463.273 1248.19 463.273V464.856ZM1249.28 441.596H1233.94V439.303H1249.28V441.596ZM1261.38 465.402C1259.13 465.402 1257.36 464.674 1256.09 463.218C1254.85 461.726 1254.23 459.123 1254.23 455.41V444.326C1254.23 443.344 1254.12 442.634 1253.9 442.197C1253.72 441.724 1253.36 441.433 1252.81 441.323C1252.26 441.178 1251.5 441.105 1250.52 441.105V439.576L1257.56 438.757H1258.76V454.7C1258.76 456.557 1258.96 458.013 1259.36 459.068C1259.8 460.088 1260.38 460.816 1261.11 461.252C1261.87 461.689 1262.73 461.908 1263.68 461.908C1265.06 461.908 1266.24 461.598 1267.22 460.979C1268.24 460.361 1269.3 459.578 1270.39 458.632V444.272C1270.39 443.289 1270.26 442.579 1270.01 442.142C1269.75 441.706 1269.3 441.433 1268.64 441.323C1268.03 441.178 1267.13 441.105 1265.97 441.105V439.576L1273.61 438.757H1274.92V458.795C1274.92 460.397 1275.14 461.398 1275.58 461.798C1276.01 462.199 1276.89 462.399 1278.2 462.399H1278.74V463.873L1271.81 465.129H1270.61V460.925H1270.34C1269.39 461.871 1268.44 462.69 1267.5 463.382C1266.59 464.037 1265.62 464.528 1264.6 464.856C1263.62 465.22 1262.55 465.402 1261.38 465.402ZM1294.6 464.856H1282.04V463.273C1283.24 463.273 1284.11 463.163 1284.66 462.945C1285.2 462.69 1285.53 462.29 1285.64 461.744C1285.79 461.161 1285.86 460.361 1285.86 459.341V431.932C1285.86 430.804 1285.64 430.13 1285.2 429.912C1284.8 429.694 1284.26 429.584 1283.57 429.584C1283.09 429.584 1282.68 429.603 1282.31 429.639C1281.98 429.675 1281.82 429.694 1281.82 429.694V428.219L1289.03 426.308H1290.39V459.341C1290.39 460.397 1290.46 461.216 1290.61 461.798C1290.79 462.344 1291.17 462.727 1291.76 462.945C1292.34 463.163 1293.29 463.273 1294.6 463.273V464.856ZM1310.06 464.856H1297.5V463.273C1298.7 463.273 1299.58 463.163 1300.12 462.945C1300.67 462.69 1301 462.29 1301.1 461.744C1301.25 461.161 1301.32 460.361 1301.32 459.341V431.932C1301.32 430.804 1301.1 430.13 1300.67 429.912C1300.27 429.694 1299.72 429.584 1299.03 429.584C1298.56 429.584 1298.14 429.603 1297.77 429.639C1297.45 429.675 1297.28 429.694 1297.28 429.694V428.219L1304.49 426.308H1305.85V459.341C1305.85 460.397 1305.93 461.216 1306.07 461.798C1306.26 462.344 1306.64 462.727 1307.22 462.945C1307.8 463.163 1308.75 463.273 1310.06 463.273V464.856ZM1331.66 426.308H1333.08V443.016H1333.24C1334.19 441.851 1335.37 440.796 1336.79 439.849C1338.21 438.866 1339.83 438.375 1341.65 438.375C1343.47 438.375 1345.05 438.903 1346.4 439.958C1347.78 440.978 1348.86 442.397 1349.62 444.217C1350.38 446.037 1350.77 448.13 1350.77 450.496C1350.77 453.736 1350.2 456.466 1349.07 458.686C1347.95 460.907 1346.4 462.581 1344.43 463.709C1342.47 464.838 1340.21 465.402 1337.66 465.402C1335.33 465.402 1333.39 465.129 1331.82 464.583C1330.29 464.037 1329.2 463.582 1328.54 463.218V432.533C1328.54 431.295 1328.4 430.513 1328.11 430.185C1327.85 429.821 1327.2 429.639 1326.14 429.639C1325.7 429.639 1325.34 429.657 1325.05 429.694C1324.76 429.73 1324.61 429.748 1324.61 429.748V428.219L1331.66 426.308ZM1333.08 445.418V460.597C1333.59 461.216 1334.28 461.798 1335.15 462.344C1336.02 462.89 1337.19 463.163 1338.65 463.163C1340.39 463.163 1341.78 462.672 1342.79 461.689C1343.85 460.706 1344.61 459.396 1345.09 457.758C1345.56 456.084 1345.8 454.245 1345.8 452.243C1345.8 450.496 1345.62 448.858 1345.25 447.329C1344.89 445.764 1344.23 444.508 1343.29 443.562C1342.34 442.579 1340.99 442.088 1339.25 442.088C1337.86 442.088 1336.61 442.488 1335.48 443.289C1334.39 444.053 1333.59 444.763 1333.08 445.418ZM1366.73 464.856H1354.45V463.327C1355.69 463.327 1356.56 463.218 1357.07 463C1357.62 462.745 1357.94 462.326 1358.05 461.744C1358.2 461.161 1358.27 460.361 1358.27 459.341V444.108C1358.27 442.943 1358.07 442.233 1357.67 441.979C1357.27 441.687 1356.67 441.542 1355.87 441.542C1355.51 441.542 1355.18 441.56 1354.89 441.596C1354.63 441.633 1354.5 441.651 1354.5 441.651V440.068L1361.38 438.539H1362.8V459.341C1362.8 460.397 1362.88 461.216 1363.02 461.798C1363.17 462.381 1363.51 462.781 1364.06 463C1364.64 463.218 1365.53 463.327 1366.73 463.327V464.856ZM1360.62 434.28C1359.71 434.28 1358.96 433.971 1358.38 433.352C1357.8 432.733 1357.51 432.005 1357.51 431.168C1357.51 430.331 1357.78 429.621 1358.33 429.038C1358.91 428.42 1359.67 428.11 1360.62 428.11C1361.57 428.11 1362.31 428.42 1362.86 429.038C1363.44 429.621 1363.73 430.331 1363.73 431.168C1363.73 432.005 1363.44 432.733 1362.86 433.352C1362.31 433.971 1361.57 434.28 1360.62 434.28ZM1398.57 464.856H1385.96V463.327C1387.27 463.327 1388.2 463.218 1388.75 463C1389.33 462.745 1389.68 462.326 1389.78 461.744C1389.93 461.161 1390 460.361 1390 459.341V449.459C1390 447.275 1389.75 445.637 1389.24 444.545C1388.77 443.453 1388.15 442.743 1387.38 442.415C1386.62 442.051 1385.82 441.869 1384.98 441.869C1383.92 441.869 1382.98 442.088 1382.14 442.525C1381.3 442.925 1380.54 443.416 1379.85 443.999C1379.19 444.581 1378.57 445.127 1377.99 445.637L1377.61 442.961H1378.43C1379.92 441.651 1381.32 440.559 1382.63 439.685C1383.98 438.812 1385.51 438.375 1387.22 438.375C1389.69 438.375 1391.53 439.212 1392.73 440.887C1393.93 442.561 1394.53 444.963 1394.53 448.094V459.341C1394.53 460.361 1394.61 461.161 1394.75 461.744C1394.93 462.326 1395.32 462.745 1395.9 463C1396.48 463.218 1397.37 463.327 1398.57 463.327V464.856ZM1382.52 464.856H1370.02V463.327C1371.26 463.327 1372.13 463.218 1372.64 463C1373.19 462.745 1373.51 462.326 1373.62 461.744C1373.77 461.161 1373.84 460.361 1373.84 459.341V443.999C1373.84 443.016 1373.64 442.379 1373.24 442.088C1372.84 441.76 1372.28 441.596 1371.55 441.596C1371.07 441.596 1370.71 441.615 1370.46 441.651C1370.2 441.687 1370.07 441.706 1370.07 441.706V440.122L1377.01 438.539H1378.26L1378.21 443.562L1378.37 444.709V459.341C1378.37 460.361 1378.45 461.161 1378.59 461.744C1378.74 462.326 1379.1 462.745 1379.68 463C1380.27 463.218 1381.21 463.327 1382.52 463.327V464.856ZM1408.3 465.238C1406.19 465.238 1404.57 464.656 1403.44 463.491C1402.35 462.326 1401.81 460.87 1401.81 459.123C1401.81 457.667 1402.13 456.448 1402.79 455.465C1403.48 454.446 1404.37 453.59 1405.46 452.899C1406.59 452.207 1407.79 451.625 1409.07 451.151C1410.38 450.678 1411.65 450.278 1412.89 449.95C1414.13 449.623 1415.22 449.313 1416.17 449.022V446.62C1416.17 444.254 1415.75 442.579 1414.91 441.596C1414.11 440.577 1412.89 440.068 1411.25 440.068C1409.69 440.068 1408.69 440.395 1408.25 441.05C1407.81 441.706 1407.59 442.852 1407.59 444.49C1407.59 445.327 1407.37 445.964 1406.94 446.401C1406.54 446.802 1405.96 447.002 1405.19 447.002C1404.64 447.002 1404.12 446.802 1403.61 446.401C1403.13 445.964 1402.9 445.291 1402.9 444.381C1402.9 443.362 1403.28 442.397 1404.04 441.487C1404.85 440.577 1405.96 439.831 1407.37 439.249C1408.83 438.666 1410.54 438.375 1412.51 438.375C1415.49 438.375 1417.6 439.067 1418.84 440.45C1420.08 441.833 1420.7 443.944 1420.7 446.783V459.178C1420.7 460.306 1420.82 461.034 1421.08 461.362C1421.33 461.689 1421.75 461.853 1422.34 461.853C1422.84 461.853 1423.3 461.726 1423.7 461.471C1424.14 461.216 1424.54 460.888 1424.9 460.488L1425.72 461.362C1424.81 462.672 1423.94 463.637 1423.1 464.255C1422.3 464.838 1421.21 465.129 1419.82 465.129C1418.55 465.129 1417.71 464.765 1417.31 464.037C1416.95 463.309 1416.68 462.272 1416.49 460.925L1416.17 460.27V450.824C1414.53 451.224 1412.98 451.697 1411.52 452.243C1410.07 452.789 1408.89 453.499 1407.98 454.373C1407.07 455.246 1406.61 456.393 1406.61 457.813C1406.61 459.159 1406.97 460.233 1407.7 461.034C1408.43 461.835 1409.38 462.235 1410.54 462.235C1411.49 462.235 1412.47 461.999 1413.49 461.525C1414.55 461.052 1415.56 460.379 1416.55 459.505L1416.98 461.471H1416.33C1415.49 462.199 1414.67 462.854 1413.87 463.436C1413.11 464.019 1412.27 464.474 1411.36 464.801C1410.49 465.093 1409.47 465.238 1408.3 465.238ZM1441.2 464.856H1427.55V463.273C1428.75 463.273 1429.62 463.182 1430.17 463C1430.75 462.781 1431.12 462.417 1431.26 461.908C1431.44 461.362 1431.53 460.579 1431.53 459.56V444.545C1431.53 443.562 1431.44 442.834 1431.26 442.361C1431.12 441.851 1430.55 441.596 1429.57 441.596C1429.02 441.596 1428.6 441.615 1428.31 441.651C1428.02 441.687 1427.88 441.706 1427.88 441.706V440.177L1434.65 438.539H1435.96V444.163H1436.12C1437.07 442.816 1437.9 441.706 1438.63 440.832C1439.36 439.958 1440.07 439.303 1440.76 438.866C1441.49 438.43 1442.29 438.211 1443.16 438.211C1444.22 438.211 1445 438.484 1445.51 439.03C1446.06 439.576 1446.33 440.322 1446.33 441.269C1446.33 442.288 1446.08 443.034 1445.57 443.507C1445.09 443.981 1444.55 444.217 1443.93 444.217C1443.35 444.217 1442.82 444.072 1442.34 443.78C1441.91 443.453 1441.53 443.143 1441.2 442.852C1440.87 442.525 1440.6 442.361 1440.38 442.361C1439.76 442.361 1439.05 442.834 1438.25 443.78C1437.45 444.727 1436.72 445.746 1436.07 446.838V459.287C1436.07 460.415 1436.21 461.271 1436.5 461.853C1436.79 462.435 1437.3 462.818 1438.03 463C1438.8 463.182 1439.85 463.273 1441.2 463.273V464.856ZM1450.91 477.687C1449.78 477.687 1448.85 477.469 1448.13 477.032C1447.4 476.595 1447.03 475.867 1447.03 474.848C1447.03 474.011 1447.27 473.41 1447.74 473.046C1448.25 472.682 1448.85 472.5 1449.55 472.5C1450.49 472.5 1451.33 472.7 1452.06 473.101C1452.82 473.501 1453.39 473.701 1453.75 473.701C1454.26 473.701 1454.81 473.301 1455.39 472.5C1455.97 471.736 1456.53 470.807 1457.08 469.715C1457.66 468.623 1458.12 467.586 1458.45 466.603C1458.81 465.657 1458.99 464.983 1458.99 464.583C1458.99 464.219 1458.79 463.564 1458.39 462.617C1458.03 461.671 1457.68 460.834 1457.35 460.106L1449.33 442.579C1449.07 441.96 1448.71 441.487 1448.23 441.16C1447.76 440.796 1447.03 440.614 1446.05 440.614V439.03H1457.74V440.668C1456.5 440.668 1455.66 440.796 1455.22 441.05C1454.82 441.269 1454.62 441.615 1454.62 442.088C1454.62 442.452 1454.71 442.852 1454.9 443.289C1455.08 443.689 1455.24 444.09 1455.39 444.49L1460.74 456.502L1461.45 459.178H1461.83L1467.13 443.344C1467.2 443.162 1467.25 442.943 1467.29 442.688C1467.36 442.397 1467.4 442.161 1467.4 441.979C1467.4 441.433 1467.11 441.069 1466.53 440.887C1465.98 440.705 1465.25 440.614 1464.34 440.614V439.03H1473.62V440.614C1472.53 440.614 1471.73 440.868 1471.22 441.378C1470.71 441.851 1470.26 442.616 1469.86 443.671L1461.34 466.057C1460.28 468.824 1459.25 471.062 1458.23 472.773C1457.24 474.484 1456.17 475.721 1455.01 476.486C1453.84 477.287 1452.48 477.687 1450.91 477.687ZM436.021 527.942L437.059 528.816C436.367 529.798 435.712 530.636 435.093 531.327C434.511 531.982 433.855 532.492 433.127 532.856C432.399 533.22 431.453 533.402 430.288 533.402C428.468 533.402 427.14 532.874 426.302 531.819C425.465 530.727 425.047 528.961 425.047 526.522V509.596H422.044V508.341C423.318 507.54 424.41 506.466 425.32 505.119C426.266 503.736 427.231 501.88 428.213 499.55H429.578V507.303H435.748V509.596H429.578V524.994C429.578 526.923 429.742 528.27 430.07 529.034C430.434 529.798 431.144 530.181 432.199 530.181C433.073 530.181 433.746 529.999 434.219 529.635C434.729 529.271 435.33 528.706 436.021 527.942ZM452.479 532.856H438.829V531.273C440.03 531.273 440.904 531.182 441.45 531C442.032 530.781 442.396 530.417 442.542 529.908C442.724 529.362 442.815 528.579 442.815 527.56V512.545C442.815 511.562 442.724 510.834 442.542 510.361C442.396 509.851 441.832 509.596 440.849 509.596C440.303 509.596 439.885 509.615 439.594 509.651C439.302 509.687 439.157 509.706 439.157 509.706V508.177L445.927 506.539H447.238V512.163H447.401C448.348 510.816 449.185 509.706 449.913 508.832C450.641 507.958 451.351 507.303 452.043 506.866C452.771 506.43 453.571 506.211 454.445 506.211C455.501 506.211 456.283 506.484 456.793 507.03C457.339 507.576 457.612 508.322 457.612 509.269C457.612 510.288 457.357 511.034 456.847 511.507C456.374 511.981 455.828 512.217 455.209 512.217C454.627 512.217 454.099 512.072 453.626 511.78C453.189 511.453 452.807 511.143 452.479 510.852C452.152 510.525 451.879 510.361 451.66 510.361C451.042 510.361 450.332 510.834 449.531 511.78C448.73 512.727 448.002 513.746 447.347 514.838V527.287C447.347 528.415 447.492 529.271 447.784 529.853C448.075 530.435 448.585 530.818 449.313 531C450.077 531.182 451.133 531.273 452.479 531.273V532.856ZM470.941 533.402C468.757 533.402 466.773 532.892 464.989 531.873C463.242 530.818 461.859 529.289 460.84 527.287C459.82 525.248 459.311 522.773 459.311 519.861C459.311 516.804 459.82 514.292 460.84 512.326C461.895 510.324 463.297 508.832 465.044 507.849C466.791 506.866 468.72 506.375 470.831 506.375C473.816 506.375 476.219 507.412 478.039 509.487C479.859 511.562 480.841 514.51 480.987 518.332H463.242L463.187 516.312H475.855C475.818 514.965 475.582 513.71 475.145 512.545C474.708 511.344 474.071 510.379 473.234 509.651C472.397 508.923 471.323 508.559 470.012 508.559C467.901 508.559 466.318 509.396 465.262 511.071C464.207 512.709 463.679 515.038 463.679 518.059C463.679 520.571 464.079 522.664 464.88 524.338C465.681 526.013 466.736 527.269 468.047 528.106C469.357 528.907 470.759 529.307 472.251 529.307C473.743 529.307 474.945 529.107 475.855 528.706C476.801 528.306 477.602 527.796 478.257 527.178C478.912 526.522 479.531 525.813 480.113 525.048L481.151 525.813C480.678 526.832 480.132 527.815 479.513 528.761C478.894 529.671 478.184 530.472 477.383 531.163C476.619 531.855 475.709 532.401 474.653 532.801C473.598 533.202 472.36 533.402 470.941 533.402ZM496.268 533.402C494.084 533.402 492.1 532.892 490.316 531.873C488.569 530.818 487.186 529.289 486.167 527.287C485.147 525.248 484.638 522.773 484.638 519.861C484.638 516.804 485.147 514.292 486.167 512.326C487.222 510.324 488.624 508.832 490.371 507.849C492.118 506.866 494.047 506.375 496.158 506.375C499.143 506.375 501.546 507.412 503.366 509.487C505.186 511.562 506.168 514.51 506.314 518.332H488.569L488.514 516.312H501.182C501.145 514.965 500.909 513.71 500.472 512.545C500.035 511.344 499.398 510.379 498.561 509.651C497.724 508.923 496.65 508.559 495.339 508.559C493.228 508.559 491.645 509.396 490.589 511.071C489.534 512.709 489.006 515.038 489.006 518.059C489.006 520.571 489.406 522.664 490.207 524.338C491.008 526.013 492.063 527.269 493.374 528.106C494.684 528.907 496.086 529.307 497.578 529.307C499.07 529.307 500.272 529.107 501.182 528.706C502.128 528.306 502.929 527.796 503.584 527.178C504.239 526.522 504.858 525.813 505.44 525.048L506.478 525.813C506.005 526.832 505.459 527.815 504.84 528.761C504.221 529.671 503.511 530.472 502.71 531.163C501.946 531.855 501.036 532.401 499.98 532.801C498.925 533.202 497.687 533.402 496.268 533.402ZM550.388 533.184H547.767L541.707 516.531L540.942 515.002L540.069 512.599C539.632 511.398 539.213 510.525 538.813 509.979C538.449 509.396 538.012 509.032 537.503 508.887C536.993 508.705 536.338 508.614 535.537 508.614V507.03H546.948V508.614C545.929 508.614 545.219 508.741 544.819 508.996C544.419 509.214 544.218 509.542 544.218 509.979C544.218 510.306 544.255 510.67 544.328 511.071C544.437 511.435 544.564 511.817 544.71 512.217L549.132 524.175L550.115 527.341H550.443L551.535 524.175L555.848 511.944C555.885 511.799 555.939 511.562 556.012 511.234C556.121 510.87 556.176 510.452 556.176 509.979C556.176 509.469 555.921 509.123 555.411 508.941C554.902 508.723 554.137 508.614 553.118 508.614V507.03H562.564V508.614C561.508 508.614 560.708 508.868 560.162 509.378C559.616 509.851 559.07 510.798 558.524 512.217L550.388 533.184ZM535.373 533.184H532.862L524.672 512.599C524.198 511.471 523.762 510.634 523.361 510.088C522.961 509.505 522.506 509.123 521.996 508.941C521.487 508.723 520.831 508.614 520.031 508.614V507.03H531.77V508.614C530.678 508.614 529.913 508.741 529.476 508.996C529.076 509.214 528.876 509.542 528.876 509.979C528.876 510.343 528.93 510.688 529.04 511.016C529.185 511.344 529.331 511.708 529.476 512.108L534.227 524.175L535.209 527.341H535.592L536.738 524.175L540.888 513.691L542.69 517.295H541.761L535.373 533.184ZM575.888 532.856H563.603V531.327C564.84 531.327 565.714 531.218 566.223 531C566.769 530.745 567.097 530.326 567.206 529.744C567.352 529.161 567.425 528.361 567.425 527.341V512.108C567.425 510.943 567.224 510.233 566.824 509.979C566.424 509.687 565.823 509.542 565.022 509.542C564.658 509.542 564.331 509.56 564.039 509.596C563.785 509.633 563.657 509.651 563.657 509.651V508.068L570.537 506.539H571.956V527.341C571.956 528.397 572.029 529.216 572.175 529.798C572.32 530.381 572.666 530.781 573.212 531C573.795 531.218 574.686 531.327 575.888 531.327V532.856ZM569.772 502.28C568.862 502.28 568.116 501.971 567.534 501.352C566.951 500.733 566.66 500.005 566.66 499.168C566.66 498.331 566.933 497.621 567.479 497.038C568.062 496.42 568.826 496.11 569.772 496.11C570.719 496.11 571.465 496.42 572.011 497.038C572.593 497.621 572.885 498.331 572.885 499.168C572.885 500.005 572.593 500.733 572.011 501.352C571.465 501.971 570.719 502.28 569.772 502.28ZM593.423 527.942L594.46 528.816C593.769 529.798 593.113 530.636 592.495 531.327C591.912 531.982 591.257 532.492 590.529 532.856C589.801 533.22 588.855 533.402 587.69 533.402C585.87 533.402 584.541 532.874 583.704 531.819C582.867 530.727 582.448 528.961 582.448 526.522V509.596H579.445V508.341C580.719 507.54 581.811 506.466 582.721 505.119C583.668 503.736 584.632 501.88 585.615 499.55H586.98V507.303H593.15V509.596H586.98V524.994C586.98 526.923 587.144 528.27 587.471 529.034C587.835 529.798 588.545 530.181 589.601 530.181C590.474 530.181 591.148 529.999 591.621 529.635C592.131 529.271 592.731 528.706 593.423 527.942ZM625.005 532.856H612.447V531.273C613.721 531.273 614.631 531.145 615.177 530.89C615.723 530.636 616.069 530.235 616.214 529.689C616.36 529.143 616.433 528.433 616.433 527.56V518.114C616.433 516.622 616.324 515.257 616.105 514.019C615.887 512.745 615.414 511.744 614.686 511.016C613.994 510.252 612.902 509.869 611.41 509.869C610.281 509.869 609.135 510.179 607.97 510.798C606.805 511.38 605.476 512.399 603.984 513.855L604.039 510.852H604.803C606.514 509.251 608.043 508.104 609.389 507.412C610.773 506.721 612.192 506.375 613.648 506.375C615.213 506.375 616.469 506.684 617.416 507.303C618.398 507.922 619.145 508.741 619.654 509.76C620.164 510.743 620.51 511.835 620.692 513.036C620.874 514.201 620.965 515.348 620.965 516.476V527.341C620.965 528.797 621.201 529.817 621.674 530.399C622.184 530.981 623.294 531.273 625.005 531.273V532.856ZM608.68 532.856H596.285V531.273C597.705 531.273 598.688 531.072 599.234 530.672C599.816 530.272 600.107 529.307 600.107 527.778V499.823C600.107 498.877 599.834 498.276 599.288 498.021C598.779 497.766 598.16 497.639 597.432 497.639C596.995 497.639 596.613 497.657 596.285 497.694C595.994 497.73 595.849 497.748 595.849 497.748V496.219L603.165 494.308H604.639V527.56C604.639 528.506 604.712 529.252 604.858 529.798C605.003 530.344 605.367 530.727 605.95 530.945C606.532 531.163 607.442 531.273 608.68 531.273V532.856ZM646.49 494.308H647.91V511.016H648.074C649.02 509.851 650.203 508.796 651.623 507.849C653.042 506.866 654.662 506.375 656.482 506.375C658.302 506.375 659.885 506.903 661.232 507.958C662.615 508.978 663.689 510.397 664.454 512.217C665.218 514.037 665.6 516.13 665.6 518.496C665.6 521.736 665.036 524.466 663.908 526.686C662.779 528.907 661.232 530.581 659.267 531.709C657.301 532.838 655.044 533.402 652.496 533.402C650.167 533.402 648.219 533.129 646.654 532.583C645.125 532.037 644.033 531.582 643.378 531.218V500.533C643.378 499.295 643.232 498.513 642.941 498.185C642.686 497.821 642.031 497.639 640.976 497.639C640.539 497.639 640.175 497.657 639.884 497.694C639.592 497.73 639.447 497.748 639.447 497.748V496.219L646.49 494.308ZM647.91 513.418V528.597C648.419 529.216 649.111 529.798 649.985 530.344C650.858 530.89 652.023 531.163 653.479 531.163C655.226 531.163 656.609 530.672 657.629 529.689C658.684 528.706 659.449 527.396 659.922 525.758C660.395 524.084 660.632 522.245 660.632 520.243C660.632 518.496 660.45 516.858 660.086 515.329C659.722 513.764 659.066 512.508 658.12 511.562C657.174 510.579 655.827 510.088 654.08 510.088C652.696 510.088 651.441 510.488 650.312 511.289C649.22 512.053 648.419 512.763 647.91 513.418ZM682.77 532.856H669.12V531.273C670.321 531.273 671.195 531.182 671.741 531C672.323 530.781 672.687 530.417 672.833 529.908C673.015 529.362 673.106 528.579 673.106 527.56V512.545C673.106 511.562 673.015 510.834 672.833 510.361C672.687 509.851 672.123 509.596 671.14 509.596C670.594 509.596 670.175 509.615 669.884 509.651C669.593 509.687 669.447 509.706 669.447 509.706V508.177L676.218 506.539H677.528V512.163H677.692C678.638 510.816 679.476 509.706 680.204 508.832C680.932 507.958 681.641 507.303 682.333 506.866C683.061 506.43 683.862 506.211 684.735 506.211C685.791 506.211 686.574 506.484 687.083 507.03C687.629 507.576 687.902 508.322 687.902 509.269C687.902 510.288 687.647 511.034 687.138 511.507C686.665 511.981 686.119 512.217 685.5 512.217C684.917 512.217 684.39 512.072 683.916 511.78C683.48 511.453 683.097 511.143 682.77 510.852C682.442 510.525 682.169 510.361 681.951 510.361C681.332 510.361 680.622 510.834 679.821 511.78C679.021 512.727 678.293 513.746 677.637 514.838V527.287C677.637 528.415 677.783 529.271 678.074 529.853C678.365 530.435 678.875 530.818 679.603 531C680.367 531.182 681.423 531.273 682.77 531.273V532.856ZM696.05 533.238C693.939 533.238 692.319 532.656 691.191 531.491C690.099 530.326 689.553 528.87 689.553 527.123C689.553 525.667 689.881 524.448 690.536 523.465C691.227 522.446 692.119 521.59 693.211 520.899C694.34 520.207 695.541 519.625 696.815 519.151C698.125 518.678 699.399 518.278 700.637 517.95C701.874 517.623 702.966 517.313 703.913 517.022V514.62C703.913 512.254 703.494 510.579 702.657 509.596C701.856 508.577 700.637 508.068 698.999 508.068C697.434 508.068 696.433 508.395 695.996 509.05C695.559 509.706 695.341 510.852 695.341 512.49C695.341 513.327 695.122 513.964 694.685 514.401C694.285 514.802 693.703 515.002 692.938 515.002C692.392 515.002 691.864 514.802 691.355 514.401C690.882 513.964 690.645 513.291 690.645 512.381C690.645 511.362 691.027 510.397 691.792 509.487C692.592 508.577 693.703 507.831 695.122 507.249C696.578 506.666 698.289 506.375 700.255 506.375C703.239 506.375 705.351 507.067 706.588 508.45C707.826 509.833 708.445 511.944 708.445 514.783V527.178C708.445 528.306 708.572 529.034 708.827 529.362C709.082 529.689 709.5 529.853 710.083 529.853C710.592 529.853 711.047 529.726 711.448 529.471C711.884 529.216 712.285 528.888 712.649 528.488L713.468 529.362C712.558 530.672 711.684 531.637 710.847 532.255C710.046 532.838 708.954 533.129 707.571 533.129C706.297 533.129 705.46 532.765 705.059 532.037C704.695 531.309 704.422 530.272 704.24 528.925L703.913 528.27V518.824C702.275 519.224 700.728 519.697 699.272 520.243C697.816 520.789 696.633 521.499 695.723 522.373C694.813 523.246 694.358 524.393 694.358 525.813C694.358 527.159 694.722 528.233 695.45 529.034C696.178 529.835 697.124 530.235 698.289 530.235C699.235 530.235 700.218 529.999 701.237 529.525C702.293 529.052 703.312 528.379 704.295 527.505L704.732 529.471H704.077C703.239 530.199 702.42 530.854 701.62 531.436C700.855 532.019 700.018 532.474 699.108 532.801C698.234 533.093 697.215 533.238 696.05 533.238ZM744.015 532.856H731.402V531.327C732.713 531.327 733.641 531.218 734.187 531C734.769 530.745 735.115 530.326 735.224 529.744C735.37 529.161 735.443 528.361 735.443 527.341V517.459C735.443 515.275 735.188 513.637 734.678 512.545C734.205 511.453 733.586 510.743 732.822 510.415C732.057 510.051 731.257 509.869 730.419 509.869C729.364 509.869 728.417 510.088 727.58 510.525C726.743 510.925 725.979 511.416 725.287 511.999C724.632 512.581 724.013 513.127 723.431 513.637L723.048 510.961H723.867C725.36 509.651 726.761 508.559 728.072 507.685C729.418 506.812 730.947 506.375 732.658 506.375C735.133 506.375 736.971 507.212 738.173 508.887C739.374 510.561 739.974 512.963 739.974 516.094V527.341C739.974 528.361 740.047 529.161 740.193 529.744C740.375 530.326 740.757 530.745 741.339 531C741.922 531.218 742.814 531.327 744.015 531.327V532.856ZM727.962 532.856H715.459V531.327C716.697 531.327 717.57 531.218 718.08 531C718.626 530.745 718.953 530.326 719.063 529.744C719.208 529.161 719.281 528.361 719.281 527.341V511.999C719.281 511.016 719.081 510.379 718.68 510.088C718.28 509.76 717.716 509.596 716.988 509.596C716.515 509.596 716.151 509.615 715.896 509.651C715.641 509.687 715.514 509.706 715.514 509.706V508.122L722.448 506.539H723.704L723.649 511.562L723.813 512.709V527.341C723.813 528.361 723.886 529.161 724.031 529.744C724.177 530.326 724.541 530.745 725.123 531C725.706 531.218 726.652 531.327 727.962 531.327V532.856ZM767.448 524.775L768.485 525.54C767.793 526.996 766.993 528.324 766.083 529.525C765.209 530.727 764.117 531.673 762.807 532.365C761.496 533.056 759.858 533.402 757.893 533.402C755.636 533.402 753.688 532.856 752.05 531.764C750.412 530.672 749.157 529.161 748.283 527.232C747.409 525.267 746.973 523.028 746.973 520.516C746.973 517.641 747.446 515.147 748.392 513.036C749.375 510.925 750.776 509.287 752.596 508.122C754.453 506.957 756.691 506.375 759.312 506.375C761.897 506.375 763.917 506.939 765.373 508.068C766.865 509.196 767.611 510.561 767.611 512.163C767.611 512.963 767.411 513.582 767.011 514.019C766.647 514.419 766.083 514.62 765.318 514.62C764.517 514.62 763.899 514.419 763.462 514.019C763.061 513.582 762.734 513.054 762.479 512.436C762.224 511.817 761.951 511.198 761.66 510.579C761.405 509.96 761.023 509.451 760.513 509.05C760.04 508.614 759.33 508.395 758.384 508.395C756.164 508.395 754.416 509.214 753.142 510.852C751.905 512.454 751.286 514.82 751.286 517.95C751.286 521.263 751.959 523.993 753.306 526.14C754.689 528.251 756.782 529.307 759.585 529.307C761.369 529.307 762.807 528.943 763.899 528.215C765.027 527.487 766.21 526.34 767.448 524.775ZM799.896 532.856H787.338V531.273C788.612 531.273 789.522 531.145 790.068 530.89C790.614 530.636 790.96 530.235 791.105 529.689C791.251 529.143 791.324 528.433 791.324 527.56V518.114C791.324 516.622 791.214 515.257 790.996 514.019C790.778 512.745 790.304 511.744 789.576 511.016C788.885 510.252 787.793 509.869 786.3 509.869C785.172 509.869 784.025 510.179 782.861 510.798C781.696 511.38 780.367 512.399 778.875 513.855L778.929 510.852H779.694C781.405 509.251 782.933 508.104 784.28 507.412C785.663 506.721 787.083 506.375 788.539 506.375C790.104 506.375 791.36 506.684 792.306 507.303C793.289 507.922 794.035 508.741 794.545 509.76C795.055 510.743 795.4 511.835 795.582 513.036C795.764 514.201 795.855 515.348 795.855 516.476V527.341C795.855 528.797 796.092 529.817 796.565 530.399C797.075 530.981 798.185 531.273 799.896 531.273V532.856ZM783.57 532.856H771.176V531.273C772.596 531.273 773.579 531.072 774.125 530.672C774.707 530.272 774.998 529.307 774.998 527.778V499.823C774.998 498.877 774.725 498.276 774.179 498.021C773.67 497.766 773.051 497.639 772.323 497.639C771.886 497.639 771.504 497.657 771.176 497.694C770.885 497.73 770.739 497.748 770.739 497.748V496.219L778.056 494.308H779.53V527.56C779.53 528.506 779.603 529.252 779.748 529.798C779.894 530.344 780.258 530.727 780.84 530.945C781.423 531.163 782.333 531.273 783.57 531.273V532.856ZM814.537 533.402C812.353 533.402 810.369 532.892 808.585 531.873C806.838 530.818 805.455 529.289 804.436 527.287C803.416 525.248 802.907 522.773 802.907 519.861C802.907 516.804 803.416 514.292 804.436 512.326C805.491 510.324 806.893 508.832 808.64 507.849C810.387 506.866 812.316 506.375 814.427 506.375C817.412 506.375 819.815 507.412 821.635 509.487C823.455 511.562 824.437 514.51 824.583 518.332H806.838L806.783 516.312H819.451C819.414 514.965 819.178 513.71 818.741 512.545C818.304 511.344 817.667 510.379 816.83 509.651C815.993 508.923 814.919 508.559 813.608 508.559C811.497 508.559 809.914 509.396 808.858 511.071C807.803 512.709 807.275 515.038 807.275 518.059C807.275 520.571 807.675 522.664 808.476 524.338C809.277 526.013 810.332 527.269 811.643 528.106C812.953 528.907 814.355 529.307 815.847 529.307C817.339 529.307 818.541 529.107 819.451 528.706C820.397 528.306 821.198 527.796 821.853 527.178C822.508 526.522 823.127 525.813 823.709 525.048L824.747 525.813C824.274 526.832 823.728 527.815 823.109 528.761C822.49 529.671 821.78 530.472 820.979 531.163C820.215 531.855 819.305 532.401 818.249 532.801C817.194 533.202 815.956 533.402 814.537 533.402ZM828.671 533.293L828.507 523.902H829.927C830.509 526.704 831.364 528.67 832.493 529.798C833.621 530.89 835.186 531.436 837.188 531.436C838.572 531.436 839.7 531.163 840.574 530.617C841.447 530.035 841.884 529.107 841.884 527.833C841.884 526.959 841.72 526.231 841.393 525.649C841.101 525.066 840.519 524.484 839.645 523.902C838.772 523.283 837.48 522.555 835.769 521.718C834.094 520.88 832.729 520.08 831.674 519.315C830.618 518.514 829.836 517.641 829.326 516.694C828.816 515.748 828.562 514.601 828.562 513.255C828.562 510.998 829.362 509.287 830.964 508.122C832.602 506.957 834.586 506.375 836.915 506.375C838.299 506.375 839.427 506.539 840.301 506.866C841.174 507.158 841.957 507.467 842.648 507.795H842.703L843.631 506.648H844.723L844.887 515.002H843.413C842.83 512.417 842.011 510.652 840.956 509.706C839.9 508.723 838.535 508.231 836.861 508.231C835.623 508.231 834.568 508.523 833.694 509.105C832.857 509.687 832.438 510.597 832.438 511.835C832.438 512.891 832.93 513.837 833.912 514.674C834.895 515.511 836.533 516.512 838.826 517.677C840.501 518.551 841.902 519.406 843.031 520.243C844.159 521.044 845.014 521.936 845.597 522.919C846.179 523.865 846.47 525.012 846.47 526.359C846.47 528.069 846.052 529.453 845.215 530.508C844.377 531.527 843.249 532.274 841.829 532.747C840.446 533.22 838.936 533.457 837.298 533.457C835.732 533.457 834.477 533.293 833.53 532.965C832.62 532.638 831.801 532.328 831.073 532.037H830.964L829.817 533.293H828.671ZM875.238 533.184H872.617L864.482 512.599C864.009 511.471 863.59 510.634 863.226 510.088C862.862 509.505 862.444 509.123 861.97 508.941C861.497 508.723 860.86 508.614 860.059 508.614V507.03H871.58V508.614C870.524 508.614 869.778 508.741 869.341 508.996C868.941 509.214 868.741 509.542 868.741 509.979C868.741 510.343 868.795 510.688 868.905 511.016C869.014 511.344 869.141 511.708 869.287 512.108L873.928 524.284L874.965 527.56H875.293L876.439 524.229L881.135 511.89C881.171 511.744 881.244 511.526 881.353 511.234C881.463 510.907 881.517 510.525 881.517 510.088C881.517 509.469 881.244 509.069 880.698 508.887C880.152 508.705 879.388 508.614 878.405 508.614V507.03H887.96V508.614C886.904 508.614 886.085 508.868 885.503 509.378C884.957 509.851 884.411 510.798 883.865 512.217L875.238 533.184ZM901.088 532.856H888.803V531.327C890.041 531.327 890.914 531.218 891.424 531C891.97 530.745 892.298 530.326 892.407 529.744C892.552 529.161 892.625 528.361 892.625 527.341V512.108C892.625 510.943 892.425 510.233 892.025 509.979C891.624 509.687 891.024 509.542 890.223 509.542C889.859 509.542 889.531 509.56 889.24 509.596C888.985 509.633 888.858 509.651 888.858 509.651V508.068L895.737 506.539H897.157V527.341C897.157 528.397 897.23 529.216 897.375 529.798C897.521 530.381 897.867 530.781 898.413 531C898.995 531.218 899.887 531.327 901.088 531.327V532.856ZM894.973 502.28C894.063 502.28 893.317 501.971 892.734 501.352C892.152 500.733 891.861 500.005 891.861 499.168C891.861 498.331 892.134 497.621 892.68 497.038C893.262 496.42 894.027 496.11 894.973 496.11C895.919 496.11 896.666 496.42 897.212 497.038C897.794 497.621 898.085 498.331 898.085 499.168C898.085 500.005 897.794 500.733 897.212 501.352C896.666 501.971 895.919 502.28 894.973 502.28ZM911.198 533.238C909.087 533.238 907.467 532.656 906.338 531.491C905.246 530.326 904.7 528.87 904.7 527.123C904.7 525.667 905.028 524.448 905.683 523.465C906.375 522.446 907.267 521.59 908.359 520.899C909.487 520.207 910.688 519.625 911.962 519.151C913.273 518.678 914.547 518.278 915.784 517.95C917.022 517.623 918.114 517.313 919.06 517.022V514.62C919.06 512.254 918.642 510.579 917.804 509.596C917.004 508.577 915.784 508.068 914.146 508.068C912.581 508.068 911.58 508.395 911.143 509.05C910.706 509.706 910.488 510.852 910.488 512.49C910.488 513.327 910.27 513.964 909.833 514.401C909.432 514.802 908.85 515.002 908.086 515.002C907.54 515.002 907.012 514.802 906.502 514.401C906.029 513.964 905.792 513.291 905.792 512.381C905.792 511.362 906.175 510.397 906.939 509.487C907.74 508.577 908.85 507.831 910.27 507.249C911.726 506.666 913.436 506.375 915.402 506.375C918.387 506.375 920.498 507.067 921.736 508.45C922.973 509.833 923.592 511.944 923.592 514.783V527.178C923.592 528.306 923.719 529.034 923.974 529.362C924.229 529.689 924.648 529.853 925.23 529.853C925.74 529.853 926.195 529.726 926.595 529.471C927.032 529.216 927.432 528.888 927.796 528.488L928.615 529.362C927.705 530.672 926.832 531.637 925.994 532.255C925.194 532.838 924.102 533.129 922.718 533.129C921.444 533.129 920.607 532.765 920.207 532.037C919.843 531.309 919.57 530.272 919.388 528.925L919.06 528.27V518.824C917.422 519.224 915.875 519.697 914.419 520.243C912.963 520.789 911.78 521.499 910.87 522.373C909.96 523.246 909.505 524.393 909.505 525.813C909.505 527.159 909.869 528.233 910.597 529.034C911.325 529.835 912.272 530.235 913.436 530.235C914.383 530.235 915.366 529.999 916.385 529.525C917.44 529.052 918.46 528.379 919.442 527.505L919.879 529.471H919.224C918.387 530.199 917.568 530.854 916.767 531.436C916.003 532.019 915.165 532.474 914.255 532.801C913.382 533.093 912.363 533.238 911.198 533.238ZM950.282 533.238C948.17 533.238 946.551 532.656 945.422 531.491C944.33 530.326 943.784 528.87 943.784 527.123C943.784 525.667 944.112 524.448 944.767 523.465C945.459 522.446 946.35 521.59 947.442 520.899C948.571 520.207 949.772 519.625 951.046 519.151C952.356 518.678 953.63 518.278 954.868 517.95C956.106 517.623 957.198 517.313 958.144 517.022V514.62C958.144 512.254 957.725 510.579 956.888 509.596C956.087 508.577 954.868 508.068 953.23 508.068C951.665 508.068 950.664 508.395 950.227 509.05C949.79 509.706 949.572 510.852 949.572 512.49C949.572 513.327 949.353 513.964 948.917 514.401C948.516 514.802 947.934 515.002 947.169 515.002C946.623 515.002 946.096 514.802 945.586 514.401C945.113 513.964 944.876 513.291 944.876 512.381C944.876 511.362 945.258 510.397 946.023 509.487C946.824 508.577 947.934 507.831 949.353 507.249C950.809 506.666 952.52 506.375 954.486 506.375C957.471 506.375 959.582 507.067 960.819 508.45C962.057 509.833 962.676 511.944 962.676 514.783V527.178C962.676 528.306 962.803 529.034 963.058 529.362C963.313 529.689 963.731 529.853 964.314 529.853C964.823 529.853 965.278 529.726 965.679 529.471C966.116 529.216 966.516 528.888 966.88 528.488L967.699 529.362C966.789 530.672 965.915 531.637 965.078 532.255C964.277 532.838 963.185 533.129 961.802 533.129C960.528 533.129 959.691 532.765 959.291 532.037C958.927 531.309 958.654 530.272 958.472 528.925L958.144 528.27V518.824C956.506 519.224 954.959 519.697 953.503 520.243C952.047 520.789 950.864 521.499 949.954 522.373C949.044 523.246 948.589 524.393 948.589 525.813C948.589 527.159 948.953 528.233 949.681 529.034C950.409 529.835 951.355 530.235 952.52 530.235C953.467 530.235 954.449 529.999 955.469 529.525C956.524 529.052 957.543 528.379 958.526 527.505L958.963 529.471H958.308C957.471 530.199 956.652 530.854 955.851 531.436C955.086 532.019 954.249 532.474 953.339 532.801C952.466 533.093 951.446 533.238 950.282 533.238ZM980.064 533.402C977.807 533.402 976.042 532.674 974.768 531.218C973.53 529.726 972.912 527.123 972.912 523.41V512.326C972.912 511.344 972.802 510.634 972.584 510.197C972.402 509.724 972.038 509.433 971.492 509.323C970.946 509.178 970.182 509.105 969.199 509.105V507.576L976.242 506.757H977.443V522.7C977.443 524.557 977.644 526.013 978.044 527.068C978.481 528.088 979.063 528.816 979.791 529.252C980.556 529.689 981.411 529.908 982.357 529.908C983.741 529.908 984.924 529.598 985.906 528.979C986.926 528.361 987.981 527.578 989.073 526.632V512.272C989.073 511.289 988.946 510.579 988.691 510.142C988.436 509.706 987.981 509.433 987.326 509.323C986.707 509.178 985.815 509.105 984.651 509.105V507.576L992.295 506.757H993.605V526.795C993.605 528.397 993.823 529.398 994.26 529.798C994.697 530.199 995.571 530.399 996.881 530.399H997.427V531.873L990.493 533.129H989.292V528.925H989.019C988.072 529.871 987.126 530.69 986.179 531.382C985.269 532.037 984.305 532.528 983.286 532.856C982.303 533.22 981.229 533.402 980.064 533.402ZM1015.08 527.942L1016.12 528.816C1015.43 529.798 1014.77 530.636 1014.15 531.327C1013.57 531.982 1012.91 532.492 1012.19 532.856C1011.46 533.22 1010.51 533.402 1009.35 533.402C1007.53 533.402 1006.2 532.874 1005.36 531.819C1004.52 530.727 1004.11 528.961 1004.11 526.522V509.596H1001.1V508.341C1002.38 507.54 1003.47 506.466 1004.38 505.119C1005.32 503.736 1006.29 501.88 1007.27 499.55H1008.64V507.303H1014.81V509.596H1008.64V524.994C1008.64 526.923 1008.8 528.27 1009.13 529.034C1009.49 529.798 1010.2 530.181 1011.26 530.181C1012.13 530.181 1012.8 529.999 1013.28 529.635C1013.79 529.271 1014.39 528.706 1015.08 527.942ZM1030.12 533.402C1026.3 533.402 1023.3 532.219 1021.12 529.853C1018.97 527.451 1017.89 524.047 1017.89 519.643C1017.89 516.986 1018.4 514.674 1019.42 512.709C1020.44 510.707 1021.86 509.16 1023.68 508.068C1025.54 506.939 1027.69 506.375 1030.12 506.375C1033.87 506.375 1036.82 507.54 1038.97 509.869C1041.15 512.199 1042.25 515.384 1042.25 519.424C1042.25 522.482 1041.72 525.048 1040.66 527.123C1039.64 529.198 1038.22 530.763 1036.4 531.819C1034.58 532.874 1032.49 533.402 1030.12 533.402ZM1030.34 531.218C1031.84 531.218 1033.09 530.872 1034.11 530.181C1035.13 529.489 1035.89 528.306 1036.4 526.632C1036.95 524.957 1037.22 522.646 1037.22 519.697C1037.22 516.349 1036.6 513.637 1035.37 511.562C1034.17 509.487 1032.35 508.45 1029.91 508.45C1027.83 508.45 1026.16 509.323 1024.88 511.071C1023.61 512.818 1022.97 515.439 1022.97 518.933C1022.97 523.265 1023.61 526.413 1024.88 528.379C1026.19 530.308 1028.01 531.254 1030.34 531.218ZM1074.11 532.856H1061.17V531.273C1062.48 531.273 1063.43 531.145 1064.01 530.89C1064.6 530.636 1064.96 530.162 1065.11 529.471C1065.29 528.779 1065.38 527.796 1065.38 526.522V515.712C1065.38 513.382 1064.96 511.835 1064.12 511.071C1063.32 510.27 1062.28 509.869 1061.01 509.869C1059.99 509.869 1059.03 510.088 1058.12 510.525C1057.24 510.961 1056.44 511.471 1055.71 512.053C1054.99 512.636 1054.37 513.182 1053.86 513.691L1053.42 510.961H1054.24C1055.73 509.687 1057.17 508.614 1058.55 507.74C1059.94 506.83 1061.56 506.375 1063.41 506.375C1065.05 506.375 1066.36 506.848 1067.34 507.795C1068.36 508.741 1069.13 509.924 1069.64 511.344C1069.71 511.453 1069.76 511.58 1069.8 511.726C1069.84 511.835 1069.87 511.962 1069.91 512.108V526.522C1069.91 527.76 1069.98 528.725 1070.13 529.416C1070.31 530.108 1070.69 530.599 1071.28 530.89C1071.86 531.145 1072.8 531.273 1074.11 531.273V532.856ZM1058.28 532.856H1045.83V531.273C1047 531.273 1047.83 531.182 1048.34 531C1048.89 530.781 1049.24 530.399 1049.38 529.853C1049.56 529.271 1049.65 528.433 1049.65 527.341V512.053C1049.65 511.071 1049.45 510.415 1049.05 510.088C1048.69 509.76 1048.12 509.596 1047.36 509.596C1046.96 509.596 1046.61 509.615 1046.32 509.651C1046.03 509.687 1045.89 509.706 1045.89 509.706V508.122L1052.71 506.539H1054.02V511.562L1054.19 512.763V527.56C1054.19 528.579 1054.29 529.362 1054.51 529.908C1054.73 530.417 1055.13 530.781 1055.71 531C1056.3 531.182 1057.15 531.273 1058.28 531.273V532.856ZM1089.35 532.856H1077.01V531.273C1078.25 531.273 1079.14 531.109 1079.68 530.781C1080.23 530.454 1080.56 529.944 1080.67 529.252C1080.81 528.524 1080.88 527.614 1080.88 526.522V516.039C1080.88 514.365 1080.67 513.091 1080.23 512.217C1079.83 511.344 1079.27 510.743 1078.54 510.415C1077.85 510.051 1077.06 509.869 1076.19 509.869C1074.99 509.869 1073.81 510.306 1072.64 511.18C1071.48 512.017 1070.42 512.836 1069.47 513.637L1068.87 510.907H1069.69C1071.18 509.414 1072.64 508.286 1074.06 507.522C1075.48 506.757 1076.92 506.375 1078.37 506.375C1080.52 506.375 1082.23 507.048 1083.51 508.395C1084.78 509.742 1085.42 512.072 1085.42 515.384V526.522C1085.42 527.651 1085.47 528.579 1085.58 529.307C1085.73 529.999 1086.07 530.508 1086.62 530.836C1087.2 531.127 1088.11 531.273 1089.35 531.273V532.856ZM1099.15 533.238C1097.04 533.238 1095.42 532.656 1094.29 531.491C1093.2 530.326 1092.65 528.87 1092.65 527.123C1092.65 525.667 1092.98 524.448 1093.64 523.465C1094.33 522.446 1095.22 521.59 1096.31 520.899C1097.44 520.207 1098.64 519.625 1099.92 519.151C1101.23 518.678 1102.5 518.278 1103.74 517.95C1104.98 517.623 1106.07 517.313 1107.01 517.022V514.62C1107.01 512.254 1106.6 510.579 1105.76 509.596C1104.96 508.577 1103.74 508.068 1102.1 508.068C1100.54 508.068 1099.53 508.395 1099.1 509.05C1098.66 509.706 1098.44 510.852 1098.44 512.49C1098.44 513.327 1098.22 513.964 1097.79 514.401C1097.39 514.802 1096.8 515.002 1096.04 515.002C1095.49 515.002 1094.97 514.802 1094.46 514.401C1093.98 513.964 1093.75 513.291 1093.75 512.381C1093.75 511.362 1094.13 510.397 1094.89 509.487C1095.69 508.577 1096.8 507.831 1098.22 507.249C1099.68 506.666 1101.39 506.375 1103.36 506.375C1106.34 506.375 1108.45 507.067 1109.69 508.45C1110.93 509.833 1111.55 511.944 1111.55 514.783V527.178C1111.55 528.306 1111.67 529.034 1111.93 529.362C1112.18 529.689 1112.6 529.853 1113.18 529.853C1113.69 529.853 1114.15 529.726 1114.55 529.471C1114.99 529.216 1115.39 528.888 1115.75 528.488L1116.57 529.362C1115.66 530.672 1114.79 531.637 1113.95 532.255C1113.15 532.838 1112.06 533.129 1110.67 533.129C1109.4 533.129 1108.56 532.765 1108.16 532.037C1107.8 531.309 1107.52 530.272 1107.34 528.925L1107.01 528.27V518.824C1105.38 519.224 1103.83 519.697 1102.37 520.243C1100.92 520.789 1099.73 521.499 1098.82 522.373C1097.91 523.246 1097.46 524.393 1097.46 525.813C1097.46 527.159 1097.82 528.233 1098.55 529.034C1099.28 529.835 1100.23 530.235 1101.39 530.235C1102.34 530.235 1103.32 529.999 1104.34 529.525C1105.39 529.052 1106.41 528.379 1107.4 527.505L1107.83 529.471H1107.18C1106.34 530.199 1105.52 530.854 1104.72 531.436C1103.96 532.019 1103.12 532.474 1102.21 532.801C1101.34 533.093 1100.32 533.238 1099.15 533.238ZM1132.81 527.942L1133.85 528.816C1133.16 529.798 1132.5 530.636 1131.88 531.327C1131.3 531.982 1130.65 532.492 1129.92 532.856C1129.19 533.22 1128.24 533.402 1127.08 533.402C1125.26 533.402 1123.93 532.874 1123.09 531.819C1122.26 530.727 1121.84 528.961 1121.84 526.522V509.596H1118.83V508.341C1120.11 507.54 1121.2 506.466 1122.11 505.119C1123.06 503.736 1124.02 501.88 1125 499.55H1126.37V507.303H1132.54V509.596H1126.37V524.994C1126.37 526.923 1126.53 528.27 1126.86 529.034C1127.22 529.798 1127.93 530.181 1128.99 530.181C1129.86 530.181 1130.54 529.999 1131.01 529.635C1131.52 529.271 1132.12 528.706 1132.81 527.942ZM1142.61 533.238C1140.5 533.238 1138.88 532.656 1137.75 531.491C1136.66 530.326 1136.11 528.87 1136.11 527.123C1136.11 525.667 1136.44 524.448 1137.09 523.465C1137.78 522.446 1138.68 521.59 1139.77 520.899C1140.9 520.207 1142.1 519.625 1143.37 519.151C1144.68 518.678 1145.96 518.278 1147.19 517.95C1148.43 517.623 1149.52 517.313 1150.47 517.022V514.62C1150.47 512.254 1150.05 510.579 1149.21 509.596C1148.41 508.577 1147.19 508.068 1145.56 508.068C1143.99 508.068 1142.99 508.395 1142.55 509.05C1142.12 509.706 1141.9 510.852 1141.9 512.49C1141.9 513.327 1141.68 513.964 1141.24 514.401C1140.84 514.802 1140.26 515.002 1139.5 515.002C1138.95 515.002 1138.42 514.802 1137.91 514.401C1137.44 513.964 1137.2 513.291 1137.2 512.381C1137.2 511.362 1137.58 510.397 1138.35 509.487C1139.15 508.577 1140.26 507.831 1141.68 507.249C1143.14 506.666 1144.85 506.375 1146.81 506.375C1149.8 506.375 1151.91 507.067 1153.15 508.45C1154.38 509.833 1155 511.944 1155 514.783V527.178C1155 528.306 1155.13 529.034 1155.38 529.362C1155.64 529.689 1156.06 529.853 1156.64 529.853C1157.15 529.853 1157.6 529.726 1158.01 529.471C1158.44 529.216 1158.84 528.888 1159.21 528.488L1160.03 529.362C1159.12 530.672 1158.24 531.637 1157.4 532.255C1156.6 532.838 1155.51 533.129 1154.13 533.129C1152.85 533.129 1152.02 532.765 1151.62 532.037C1151.25 531.309 1150.98 530.272 1150.8 528.925L1150.47 528.27V518.824C1148.83 519.224 1147.29 519.697 1145.83 520.243C1144.37 520.789 1143.19 521.499 1142.28 522.373C1141.37 523.246 1140.92 524.393 1140.92 525.813C1140.92 527.159 1141.28 528.233 1142.01 529.034C1142.74 529.835 1143.68 530.235 1144.85 530.235C1145.79 530.235 1146.78 529.999 1147.79 529.525C1148.85 529.052 1149.87 528.379 1150.85 527.505L1151.29 529.471H1150.63C1149.8 530.199 1148.98 530.854 1148.18 531.436C1147.41 532.019 1146.58 532.474 1145.67 532.801C1144.79 533.093 1143.77 533.238 1142.61 533.238ZM1203.15 532.856H1190.21V531.273C1191.52 531.273 1192.47 531.145 1193.05 530.89C1193.63 530.636 1193.99 530.162 1194.14 529.471C1194.32 528.779 1194.41 527.796 1194.41 526.522V515.712C1194.41 513.382 1193.99 511.835 1193.16 511.071C1192.36 510.27 1191.32 509.869 1190.05 509.869C1189.03 509.869 1188.06 510.088 1187.15 510.525C1186.28 510.961 1185.48 511.471 1184.75 512.053C1184.02 512.636 1183.4 513.182 1182.89 513.691L1182.46 510.961H1183.28C1184.77 509.687 1186.21 508.614 1187.59 507.74C1188.97 506.83 1190.59 506.375 1192.45 506.375C1194.09 506.375 1195.4 506.848 1196.38 507.795C1197.4 508.741 1198.16 509.924 1198.67 511.344C1198.75 511.453 1198.8 511.58 1198.84 511.726C1198.87 511.835 1198.91 511.962 1198.95 512.108V526.522C1198.95 527.76 1199.02 528.725 1199.16 529.416C1199.35 530.108 1199.73 530.599 1200.31 530.89C1200.89 531.145 1201.84 531.273 1203.15 531.273V532.856ZM1187.32 532.856H1174.87V531.273C1176.03 531.273 1176.87 531.182 1177.38 531C1177.92 530.781 1178.27 530.399 1178.42 529.853C1178.6 529.271 1178.69 528.433 1178.69 527.341V512.053C1178.69 511.071 1178.49 510.415 1178.09 510.088C1177.72 509.76 1177.16 509.596 1176.4 509.596C1176 509.596 1175.65 509.615 1175.36 509.651C1175.07 509.687 1174.92 509.706 1174.92 509.706V508.122L1181.75 506.539H1183.06V511.562L1183.22 512.763V527.56C1183.22 528.579 1183.33 529.362 1183.55 529.908C1183.77 530.417 1184.17 530.781 1184.75 531C1185.33 531.182 1186.19 531.273 1187.32 531.273V532.856ZM1218.38 532.856H1206.04V531.273C1207.28 531.273 1208.17 531.109 1208.72 530.781C1209.26 530.454 1209.59 529.944 1209.7 529.252C1209.85 528.524 1209.92 527.614 1209.92 526.522V516.039C1209.92 514.365 1209.7 513.091 1209.26 512.217C1208.86 511.344 1208.3 510.743 1207.57 510.415C1206.88 510.051 1206.1 509.869 1205.22 509.869C1204.02 509.869 1202.84 510.306 1201.68 511.18C1200.51 512.017 1199.45 512.836 1198.51 513.637L1197.91 510.907H1198.73C1200.22 509.414 1201.68 508.286 1203.09 507.522C1204.51 506.757 1205.95 506.375 1207.41 506.375C1209.56 506.375 1211.27 507.048 1212.54 508.395C1213.81 509.742 1214.45 512.072 1214.45 515.384V526.522C1214.45 527.651 1214.51 528.579 1214.62 529.307C1214.76 529.999 1215.11 530.508 1215.65 530.836C1216.24 531.127 1217.15 531.273 1218.38 531.273V532.856ZM1233.1 533.402C1230.92 533.402 1228.93 532.892 1227.15 531.873C1225.4 530.818 1224.02 529.289 1223 527.287C1221.98 525.248 1221.47 522.773 1221.47 519.861C1221.47 516.804 1221.98 514.292 1223 512.326C1224.06 510.324 1225.46 508.832 1227.2 507.849C1228.95 506.866 1230.88 506.375 1232.99 506.375C1235.98 506.375 1238.38 507.412 1240.2 509.487C1242.02 511.562 1243 514.51 1243.15 518.332H1225.4L1225.35 516.312H1238.02C1237.98 514.965 1237.74 513.71 1237.31 512.545C1236.87 511.344 1236.23 510.379 1235.39 509.651C1234.56 508.923 1233.48 508.559 1232.17 508.559C1230.06 508.559 1228.48 509.396 1227.42 511.071C1226.37 512.709 1225.84 515.038 1225.84 518.059C1225.84 520.571 1226.24 522.664 1227.04 524.338C1227.84 526.013 1228.9 527.269 1230.21 528.106C1231.52 528.907 1232.92 529.307 1234.41 529.307C1235.9 529.307 1237.11 529.107 1238.02 528.706C1238.96 528.306 1239.76 527.796 1240.42 527.178C1241.07 526.522 1241.69 525.813 1242.27 525.048L1243.31 525.813C1242.84 526.832 1242.29 527.815 1241.67 528.761C1241.05 529.671 1240.34 530.472 1239.54 531.163C1238.78 531.855 1237.87 532.401 1236.81 532.801C1235.76 533.202 1234.52 533.402 1233.1 533.402ZM1260.94 527.942L1261.98 528.816C1261.29 529.798 1260.63 530.636 1260.01 531.327C1259.43 531.982 1258.77 532.492 1258.05 532.856C1257.32 533.22 1256.37 533.402 1255.21 533.402C1253.39 533.402 1252.06 532.874 1251.22 531.819C1250.38 530.727 1249.97 528.961 1249.97 526.522V509.596H1246.96V508.341C1248.24 507.54 1249.33 506.466 1250.24 505.119C1251.18 503.736 1252.15 501.88 1253.13 499.55H1254.5V507.303H1260.67V509.596H1254.5V524.994C1254.5 526.923 1254.66 528.27 1254.99 529.034C1255.35 529.798 1256.06 530.181 1257.12 530.181C1257.99 530.181 1258.66 529.999 1259.14 529.635C1259.65 529.271 1260.25 528.706 1260.94 527.942ZM1292.52 532.856H1279.96V531.273C1281.24 531.273 1282.15 531.145 1282.69 530.89C1283.24 530.636 1283.59 530.235 1283.73 529.689C1283.88 529.143 1283.95 528.433 1283.95 527.56V518.114C1283.95 516.622 1283.84 515.257 1283.62 514.019C1283.4 512.745 1282.93 511.744 1282.2 511.016C1281.51 510.252 1280.42 509.869 1278.93 509.869C1277.8 509.869 1276.65 510.179 1275.49 510.798C1274.32 511.38 1272.99 512.399 1271.5 513.855L1271.56 510.852H1272.32C1274.03 509.251 1275.56 508.104 1276.91 507.412C1278.29 506.721 1279.71 506.375 1281.17 506.375C1282.73 506.375 1283.99 506.684 1284.93 507.303C1285.92 507.922 1286.66 508.741 1287.17 509.76C1287.68 510.743 1288.03 511.835 1288.21 513.036C1288.39 514.201 1288.48 515.348 1288.48 516.476V527.341C1288.48 528.797 1288.72 529.817 1289.19 530.399C1289.7 530.981 1290.81 531.273 1292.52 531.273V532.856ZM1276.2 532.856H1263.8V531.273C1265.22 531.273 1266.2 531.072 1266.75 530.672C1267.33 530.272 1267.62 529.307 1267.62 527.778V499.823C1267.62 498.877 1267.35 498.276 1266.81 498.021C1266.3 497.766 1265.68 497.639 1264.95 497.639C1264.51 497.639 1264.13 497.657 1263.8 497.694C1263.51 497.73 1263.37 497.748 1263.37 497.748V496.219L1270.68 494.308H1272.16V527.56C1272.16 528.506 1272.23 529.252 1272.37 529.798C1272.52 530.344 1272.88 530.727 1273.47 530.945C1274.05 531.163 1274.96 531.273 1276.2 531.273V532.856ZM1307.76 533.402C1303.94 533.402 1300.94 532.219 1298.75 529.853C1296.61 527.451 1295.53 524.047 1295.53 519.643C1295.53 516.986 1296.04 514.674 1297.06 512.709C1298.08 510.707 1299.5 509.16 1301.32 508.068C1303.18 506.939 1305.32 506.375 1307.76 506.375C1311.51 506.375 1314.46 507.54 1316.61 509.869C1318.79 512.199 1319.88 515.384 1319.88 519.424C1319.88 522.482 1319.36 525.048 1318.3 527.123C1317.28 529.198 1315.86 530.763 1314.04 531.819C1312.22 532.874 1310.13 533.402 1307.76 533.402ZM1307.98 531.218C1309.47 531.218 1310.73 530.872 1311.75 530.181C1312.77 529.489 1313.53 528.306 1314.04 526.632C1314.59 524.957 1314.86 522.646 1314.86 519.697C1314.86 516.349 1314.24 513.637 1313.01 511.562C1311.8 509.487 1309.98 508.45 1307.55 508.45C1305.47 508.45 1303.8 509.323 1302.52 511.071C1301.25 512.818 1300.61 515.439 1300.61 518.933C1300.61 523.265 1301.25 526.413 1302.52 528.379C1303.83 530.308 1305.65 531.254 1307.98 531.218ZM1332.86 533.293C1330.82 533.293 1329.09 532.747 1327.67 531.655C1326.29 530.563 1325.25 529.089 1324.56 527.232C1323.87 525.339 1323.53 523.228 1323.53 520.899C1323.53 517.877 1324.09 515.293 1325.22 513.145C1326.35 510.961 1327.86 509.287 1329.75 508.122C1331.68 506.957 1333.79 506.375 1336.08 506.375C1336.96 506.375 1337.81 506.484 1338.65 506.703C1339.52 506.921 1340.36 507.249 1341.16 507.685H1341.38V500.533C1341.38 499.332 1341.23 498.549 1340.94 498.185C1340.69 497.821 1340.03 497.639 1338.98 497.639C1338.72 497.639 1338.41 497.657 1338.05 497.694C1337.72 497.73 1337.56 497.748 1337.56 497.748V496.219L1344.44 494.308H1345.91V527.014C1345.91 528.433 1346.11 529.362 1346.51 529.798C1346.91 530.199 1347.62 530.399 1348.64 530.399H1349.79V531.873L1342.8 533.129H1341.54V529.362H1341.32C1340.31 530.272 1339.09 531.163 1337.67 532.037C1336.28 532.874 1334.68 533.293 1332.86 533.293ZM1335.43 529.362C1336.7 529.362 1337.78 529.198 1338.65 528.87C1339.52 528.506 1340.43 527.997 1341.38 527.341V512.927C1341.16 511.799 1340.63 510.798 1339.8 509.924C1338.96 509.014 1337.68 508.559 1335.97 508.559C1333.68 508.559 1331.82 509.396 1330.4 511.071C1328.99 512.745 1328.28 515.311 1328.28 518.769C1328.28 522.518 1328.88 525.23 1330.08 526.905C1331.31 528.543 1333.1 529.362 1335.43 529.362ZM1353.45 533.293L1353.29 523.902H1354.71C1355.29 526.704 1356.14 528.67 1357.27 529.798C1358.4 530.89 1359.96 531.436 1361.97 531.436C1363.35 531.436 1364.48 531.163 1365.35 530.617C1366.23 530.035 1366.66 529.107 1366.66 527.833C1366.66 526.959 1366.5 526.231 1366.17 525.649C1365.88 525.066 1365.3 524.484 1364.42 523.902C1363.55 523.283 1362.26 522.555 1360.55 521.718C1358.87 520.88 1357.51 520.08 1356.45 519.315C1355.4 518.514 1354.61 517.641 1354.1 516.694C1353.59 515.748 1353.34 514.601 1353.34 513.255C1353.34 510.998 1354.14 509.287 1355.74 508.122C1357.38 506.957 1359.36 506.375 1361.69 506.375C1363.08 506.375 1364.21 506.539 1365.08 506.866C1365.95 507.158 1366.74 507.467 1367.43 507.795H1367.48L1368.41 506.648H1369.5L1369.67 515.002H1368.19C1367.61 512.417 1366.79 510.652 1365.73 509.706C1364.68 508.723 1363.31 508.231 1361.64 508.231C1360.4 508.231 1359.35 508.523 1358.47 509.105C1357.64 509.687 1357.22 510.597 1357.22 511.835C1357.22 512.891 1357.71 513.837 1358.69 514.674C1359.67 515.511 1361.31 516.512 1363.6 517.677C1365.28 518.551 1366.68 519.406 1367.81 520.243C1368.94 521.044 1369.79 521.936 1370.38 522.919C1370.96 523.865 1371.25 525.012 1371.25 526.359C1371.25 528.069 1370.83 529.453 1369.99 530.508C1369.16 531.527 1368.03 532.274 1366.61 532.747C1365.22 533.22 1363.71 533.457 1362.08 533.457C1360.51 533.457 1359.26 533.293 1358.31 532.965C1357.4 532.638 1356.58 532.328 1355.85 532.037H1355.74L1354.6 533.293H1353.45ZM1379.3 533.293C1378.21 533.293 1377.39 532.983 1376.85 532.365C1376.34 531.746 1376.08 530.981 1376.08 530.071C1376.08 529.125 1376.37 528.324 1376.96 527.669C1377.54 526.977 1378.34 526.632 1379.36 526.632C1380.41 526.632 1381.23 526.977 1381.82 527.669C1382.4 528.361 1382.69 529.18 1382.69 530.126C1382.69 530.963 1382.4 531.709 1381.82 532.365C1381.23 532.983 1380.4 533.293 1379.3 533.293Z" fill="black"/>
</g>
<rect id="Rectangle 12" x="298.473" y="364.206" width="1322.1" height="241.8" rx="15.6" stroke="#2D98DA" stroke-width="3.9"/>
</g>
<g id="Group 30">
<rect id="Rectangle 11" x="357.625" y="336.256" width="137.8" height="46.8" rx="22.464" fill="white"/>
<path id="Goal" d="M403.937 379.83C399.818 379.83 396.224 379.006 393.154 377.359C390.121 375.712 387.8 373.484 386.19 370.676C384.58 367.868 383.775 364.779 383.775 361.41C383.775 357.778 384.693 354.614 386.527 351.919C388.362 349.186 390.87 347.089 394.053 345.629C397.272 344.169 400.867 343.438 404.835 343.438C406.82 343.438 408.692 343.626 410.451 344C412.211 344.374 413.671 344.917 414.832 345.629C415.131 345.778 415.3 345.91 415.337 346.022C415.375 346.134 415.412 346.415 415.45 346.864L416.123 353.491C416.123 353.603 416.011 353.678 415.786 353.716C415.599 353.753 415.487 353.697 415.45 353.547C413.727 347.407 409.834 344.337 403.768 344.337C400.81 344.337 398.134 345.011 395.737 346.359C393.379 347.669 391.507 349.56 390.121 352.031C388.774 354.465 388.1 357.31 388.1 360.567C388.1 363.75 388.755 366.745 390.065 369.553C391.376 372.361 393.322 374.645 395.906 376.404C398.527 378.127 401.709 378.988 405.453 378.988C408.111 378.988 409.983 378.482 411.069 377.471C412.155 376.423 412.698 374.645 412.698 372.136C412.698 370.189 412.567 368.842 412.305 368.093C412.08 367.306 411.537 366.782 410.676 366.52C409.852 366.258 408.392 366.127 406.295 366.127C406.071 366.127 405.958 365.977 405.958 365.678C405.958 365.566 405.977 365.472 406.015 365.397C406.09 365.285 406.164 365.229 406.239 365.229C409.16 365.416 411.518 365.509 413.315 365.509C415.075 365.509 416.928 365.453 418.875 365.341C418.95 365.341 419.006 365.397 419.044 365.509C419.119 365.584 419.156 365.659 419.156 365.734C419.156 365.996 419.062 366.127 418.875 366.127C417.939 366.09 417.284 366.221 416.91 366.52C416.535 366.782 416.292 367.344 416.18 368.205C416.067 369.066 416.011 370.564 416.011 372.698C416.011 374.383 416.067 375.581 416.18 376.292C416.329 377.003 416.404 377.453 416.404 377.64C416.404 377.865 416.367 378.014 416.292 378.089C416.217 378.164 416.049 378.239 415.786 378.314C411.219 379.325 407.269 379.83 403.937 379.83ZM434.032 379.886C431.861 379.886 429.933 379.362 428.248 378.314C426.6 377.228 425.328 375.787 424.429 373.99C423.53 372.155 423.081 370.171 423.081 368.037C423.081 365.603 423.661 363.544 424.822 361.859C426.02 360.137 427.536 358.864 429.371 358.04C431.243 357.179 433.134 356.748 435.043 356.748C437.252 356.748 439.18 357.291 440.828 358.377C442.475 359.463 443.729 360.904 444.59 362.701C445.489 364.461 445.938 366.333 445.938 368.317C445.938 370.639 445.395 372.679 444.31 374.439C443.224 376.161 441.764 377.509 439.929 378.482C438.132 379.418 436.166 379.886 434.032 379.886ZM435.661 378.819C437.72 378.819 439.311 378.089 440.435 376.629C441.558 375.169 442.119 372.922 442.119 369.89C442.119 367.569 441.726 365.491 440.94 363.656C440.191 361.822 439.143 360.399 437.795 359.388C436.447 358.34 434.912 357.815 433.19 357.815C431.168 357.815 429.596 358.546 428.472 360.006C427.387 361.466 426.844 363.562 426.844 366.296C426.844 368.579 427.218 370.676 427.967 372.586C428.716 374.495 429.764 376.011 431.112 377.134C432.46 378.258 433.976 378.819 435.661 378.819ZM465.567 379.493C465.417 379.568 465.268 379.606 465.118 379.606C464.556 379.606 464.069 379.175 463.658 378.314C463.246 377.453 463.04 376.311 463.04 374.888V364.274C463.04 360.081 461.86 357.984 459.502 357.984C458.229 357.984 457.255 358.414 456.581 359.276C455.945 360.099 455.514 361.054 455.29 362.14C455.14 362.851 454.915 363.413 454.616 363.825C454.354 364.236 453.867 364.442 453.156 364.442C452.557 364.442 452.089 364.274 451.752 363.937C451.452 363.6 451.302 363.207 451.302 362.758C451.302 361.859 451.883 360.96 453.043 360.062C454.204 359.163 455.589 358.414 457.199 357.815C458.809 357.216 460.251 356.917 461.524 356.917C463.059 356.917 464.219 357.404 465.005 358.377C465.792 359.35 466.185 360.754 466.185 362.589V373.091C466.185 374.401 466.353 375.356 466.69 375.955C467.027 376.554 467.57 376.854 468.319 376.854C469.068 376.854 470.004 376.61 471.127 376.124H471.239C471.389 376.124 471.483 376.217 471.52 376.404C471.557 376.554 471.501 376.666 471.352 376.741L465.567 379.493ZM455.458 379.549C454.073 379.549 452.987 379.194 452.201 378.482C451.452 377.734 451.078 376.798 451.078 375.674C451.078 374.551 451.527 373.578 452.426 372.754C453.324 371.93 454.803 371.144 456.862 370.395L463.601 367.868L463.77 368.598L457.817 370.901C456.769 371.313 456.001 371.799 455.514 372.361C455.065 372.885 454.84 373.522 454.84 374.27C454.84 375.169 455.121 375.936 455.683 376.573C456.282 377.172 457.049 377.471 457.985 377.471C458.734 377.471 459.633 377.172 460.681 376.573L464.219 374.439L464.332 375.169L460.176 377.865C459.24 378.464 458.416 378.894 457.705 379.156C456.993 379.418 456.244 379.549 455.458 379.549ZM473.707 379.156C473.595 379.156 473.539 379.044 473.539 378.819C473.539 378.595 473.595 378.482 473.707 378.482C474.718 378.482 475.467 378.389 475.954 378.202C476.44 377.977 476.777 377.602 476.964 377.078C477.152 376.517 477.245 375.693 477.245 374.607V345.573C477.245 344.225 477.114 343.251 476.852 342.652C476.59 342.053 476.122 341.754 475.448 341.754C474.887 341.754 474.025 342.016 472.865 342.54H472.752C472.64 342.54 472.547 342.446 472.472 342.259C472.434 342.072 472.472 341.96 472.584 341.922L479.772 338.496C479.847 338.459 479.941 338.44 480.053 338.44C480.166 338.44 480.278 338.496 480.39 338.609C480.503 338.684 480.559 338.777 480.559 338.89V374.607C480.559 375.693 480.634 376.498 480.783 377.022C480.971 377.546 481.308 377.921 481.794 378.145C482.281 378.37 483.03 378.482 484.041 378.482C484.153 378.482 484.209 378.595 484.209 378.819C484.209 379.044 484.153 379.156 484.041 379.156C483.217 379.156 482.543 379.138 482.019 379.1L478.874 379.044L475.841 379.1C475.317 379.138 474.606 379.156 473.707 379.156Z" fill="black"/>
</g>
</g>
</g>
</svg>
