<svg width="1921" height="1081" viewBox="0 0 1921 1081" fill="none" xmlns="http://www.w3.org/2000/svg">
<g id="example 3">
<rect width="1920" height="1080" transform="translate(0.720703 0.279785)" fill="white"/>
<path id="Vector 86" d="M340.182 296.622C339.822 297.369 340.136 298.265 340.882 298.625C341.629 298.984 342.525 298.67 342.885 297.924L340.182 296.622ZM427.415 219.493C427.687 218.711 427.274 217.856 426.491 217.584L413.74 213.149C412.958 212.877 412.103 213.29 411.831 214.073C411.559 214.855 411.972 215.71 412.755 215.982L424.089 219.924L420.147 231.258C419.875 232.041 420.288 232.896 421.071 233.168C421.853 233.44 422.708 233.026 422.98 232.244L427.415 219.493ZM342.885 297.924C360.148 262.073 395.816 235.272 426.652 220.351L425.345 217.65C394.184 232.728 357.852 259.927 340.182 296.622L342.885 297.924Z" fill="black"/>
<path id="2n" d="M469 226H449.5L449.85 224.3L459 216.8C460.9 215.133 462.517 213.667 463.85 212.4C465.183 211.133 466.25 209.95 467.05 208.85C467.883 207.75 468.483 206.65 468.85 205.55C469.217 204.417 469.4 203.183 469.4 201.85C469.4 200.383 468.983 199.2 468.15 198.3C467.317 197.4 466.083 196.95 464.45 196.95C462.817 196.95 461.367 197.317 460.1 198.05C458.867 198.783 457.533 200.083 456.1 201.95L455 201.45C456.4 199.083 458 197.217 459.8 195.85C461.633 194.483 463.85 193.8 466.45 193.8C468.817 193.8 470.683 194.433 472.05 195.7C473.417 196.967 474.1 198.667 474.1 200.8C474.1 202.533 473.7 204.133 472.9 205.6C472.1 207.067 470.883 208.6 469.25 210.2C467.617 211.767 465.533 213.6 463 215.7L455.3 221.95L455.25 222.2L458.6 222.05H465.55C466.45 222.05 467.167 221.917 467.7 221.65C468.267 221.383 468.783 220.967 469.25 220.4C469.717 219.8 470.25 219 470.85 218H472.3L469 226ZM493.906 213.65C492.906 213.65 492.223 213.417 491.856 212.95C491.489 212.45 491.306 211.883 491.306 211.25C491.306 210.917 491.339 210.6 491.406 210.3C491.473 210 491.523 209.8 491.556 209.7L493.906 200.45C493.906 200.45 493.939 200.25 494.006 199.85C494.106 199.417 494.156 199 494.156 198.6C494.156 198.133 494.073 197.75 493.906 197.45C493.773 197.117 493.473 196.95 493.006 196.95C492.406 196.95 491.739 197.233 491.006 197.8C490.306 198.333 489.606 199.033 488.906 199.9C488.206 200.767 487.539 201.683 486.906 202.65C486.273 203.583 485.723 204.483 485.256 205.35C484.823 206.183 484.506 206.833 484.306 207.3L485.056 203.25C485.423 202.55 485.923 201.683 486.556 200.65C487.189 199.583 487.923 198.533 488.756 197.5C489.589 196.467 490.523 195.6 491.556 194.9C492.623 194.2 493.773 193.85 495.006 193.85C496.006 193.85 496.723 194.15 497.156 194.75C497.623 195.317 497.856 195.983 497.856 196.75C497.856 197.383 497.806 197.967 497.706 198.5C497.639 199.033 497.573 199.433 497.506 199.7L495.306 208.95C495.306 208.95 495.289 209.05 495.256 209.25C495.223 209.417 495.206 209.633 495.206 209.9C495.206 210.4 495.456 210.65 495.956 210.65C496.689 210.65 497.306 210.433 497.806 210C498.306 209.533 498.706 209.1 499.006 208.7L499.956 209.4C499.623 209.9 499.156 210.483 498.556 211.15C497.989 211.817 497.306 212.4 496.506 212.9C495.739 213.4 494.873 213.65 493.906 213.65ZM483.006 213.25H479.406L482.706 198C482.706 198 482.723 197.867 482.756 197.6C482.789 197.3 482.806 196.983 482.806 196.65C482.806 195.95 482.373 195.6 481.506 195.6C481.273 195.6 480.989 195.617 480.656 195.65C480.323 195.65 480.156 195.65 480.156 195.65V194.4L486.106 193.95H487.006L484.956 202.75H485.456L483.006 213.25Z" fill="black"/>
<g id="exp_full">
<rect id="Rectangle 12" x="318" y="536" width="510" height="72" rx="36" fill="#FED330" fill-opacity="0.5"/>
<path id="Vector 85" d="M1084.53 618.786C1085.24 617.941 1085.13 616.679 1084.29 615.969L1070.5 604.391C1069.66 603.681 1068.4 603.79 1067.69 604.636C1066.98 605.482 1067.09 606.744 1067.93 607.454L1080.18 617.745L1069.89 629.996C1069.18 630.842 1069.29 632.104 1070.14 632.814C1070.98 633.525 1072.24 633.415 1072.95 632.569L1084.53 618.786ZM874.094 583.783C935.454 614.966 990.833 627.522 1083.17 619.492L1082.83 615.508C991.167 623.478 936.546 611.034 875.906 580.217L874.094 583.783Z" fill="black"/>
<g id="Group 24">
<rect id="Rectangle 13" x="1176.97" y="515" width="586" height="144" rx="50" fill="#FED330" fill-opacity="0.5"/>
<path id="exp(n):" d="M1086.7 358.528C1084.88 358.528 1083.26 358.249 1081.86 357.692C1080.45 357.135 1079.26 356.343 1078.29 355.316C1077.35 354.289 1076.64 353.057 1076.14 351.62C1075.64 350.153 1075.39 348.511 1075.39 346.692C1075.39 344.844 1075.64 343.187 1076.14 341.72C1076.66 340.253 1077.4 339.007 1078.34 337.98C1079.28 336.953 1080.4 336.161 1081.72 335.604C1083.07 335.047 1084.58 334.768 1086.26 334.768C1087.9 334.768 1089.38 335.047 1090.7 335.604C1092.02 336.132 1093.14 336.895 1094.04 337.892C1094.98 338.889 1095.7 340.092 1096.2 341.5C1096.7 342.908 1096.95 344.463 1096.95 346.164V348.012H1081.02V348.584C1081.02 350.227 1081.53 351.561 1082.56 352.588C1083.59 353.585 1085.02 354.084 1086.87 354.084C1088.28 354.084 1089.48 353.805 1090.48 353.248C1091.51 352.661 1092.36 351.899 1093.03 350.96L1096.24 354.172C1095.42 355.375 1094.22 356.401 1092.64 357.252C1091.08 358.103 1089.1 358.528 1086.7 358.528ZM1086.3 338.904C1084.72 338.904 1083.44 339.403 1082.47 340.4C1081.5 341.397 1081.02 342.717 1081.02 344.36V344.668H1091.32V344.272C1091.32 342.629 1090.86 341.324 1089.95 340.356C1089.07 339.388 1087.86 338.904 1086.3 338.904ZM1100.85 358L1109.34 346.472L1101.33 335.296H1107.8L1110.53 339.3L1112.64 342.468H1112.95L1115.06 339.3L1117.79 335.296H1123.77L1115.76 346.208L1124.26 358H1117.74L1114.62 353.424L1112.46 350.212H1112.16L1110 353.424L1106.88 358H1100.85ZM1128.77 335.296H1134.4V339.3H1134.71C1135.33 337.921 1136.16 336.821 1137.22 336C1138.3 335.179 1139.73 334.768 1141.49 334.768C1142.78 334.768 1143.95 335.017 1145.01 335.516C1146.09 335.985 1147.02 336.719 1147.78 337.716C1148.54 338.684 1149.13 339.916 1149.54 341.412C1149.95 342.908 1150.15 344.653 1150.15 346.648C1150.15 348.643 1149.95 350.388 1149.54 351.884C1149.13 353.38 1148.54 354.627 1147.78 355.624C1147.02 356.592 1146.09 357.325 1145.01 357.824C1143.95 358.293 1142.78 358.528 1141.49 358.528C1139.73 358.528 1138.3 358.117 1137.22 357.296C1136.16 356.475 1135.33 355.375 1134.71 353.996H1134.4V366.8H1128.77V335.296ZM1139.11 354.04C1140.75 354.04 1142.01 353.541 1142.89 352.544C1143.8 351.547 1144.26 350.183 1144.26 348.452V344.844C1144.26 343.113 1143.8 341.749 1142.89 340.752C1142.01 339.755 1140.75 339.256 1139.11 339.256C1137.82 339.256 1136.71 339.579 1135.77 340.224C1134.86 340.84 1134.4 341.793 1134.4 343.084V350.212C1134.4 351.503 1134.86 352.471 1135.77 353.116C1136.71 353.732 1137.82 354.04 1139.11 354.04ZM1160.17 344.316C1160.17 342.175 1160.4 340.121 1160.87 338.156C1161.37 336.161 1162.03 334.313 1162.85 332.612C1163.7 330.911 1164.69 329.385 1165.8 328.036C1166.92 326.657 1168.09 325.499 1169.32 324.56H1174.95C1173.63 325.499 1172.37 326.599 1171.17 327.86C1169.97 329.121 1168.91 330.515 1168 332.04C1167.09 333.536 1166.36 335.149 1165.8 336.88C1165.27 338.581 1165.01 340.356 1165.01 342.204V346.428C1165.01 348.276 1165.27 350.065 1165.8 351.796C1166.36 353.497 1167.09 355.111 1168 356.636C1168.91 358.132 1169.97 359.511 1171.17 360.772C1172.37 362.033 1173.63 363.133 1174.95 364.072H1169.32C1168.09 363.163 1166.92 362.019 1165.8 360.64C1164.69 359.261 1163.7 357.721 1162.85 356.02C1162.03 354.319 1161.37 352.485 1160.87 350.52C1160.4 348.525 1160.17 346.457 1160.17 344.316ZM1181.8 358V335.296H1187.43V339.3H1187.65C1188.15 338.068 1188.91 337.012 1189.94 336.132C1191 335.223 1192.45 334.768 1194.3 334.768C1196.53 334.768 1198.33 335.516 1199.71 337.012C1201.12 338.479 1201.82 340.591 1201.82 343.348V358H1196.19V344.14C1196.19 340.855 1194.77 339.212 1191.92 339.212C1191.33 339.212 1190.78 339.285 1190.25 339.432C1189.72 339.579 1189.24 339.813 1188.8 340.136C1188.39 340.429 1188.05 340.796 1187.78 341.236C1187.55 341.676 1187.43 342.204 1187.43 342.82V358H1181.8ZM1223.23 344.316C1223.23 346.457 1222.98 348.525 1222.48 350.52C1222.01 352.485 1221.35 354.319 1220.5 356.02C1219.68 357.721 1218.71 359.261 1217.6 360.64C1216.48 362.019 1215.31 363.163 1214.08 364.072H1208.45C1209.77 363.133 1211.03 362.033 1212.23 360.772C1213.43 359.511 1214.49 358.132 1215.4 356.636C1216.31 355.111 1217.03 353.497 1217.55 351.796C1218.11 350.065 1218.39 348.276 1218.39 346.428V342.204C1218.39 340.356 1218.11 338.581 1217.55 336.88C1217.03 335.149 1216.31 333.536 1215.4 332.04C1214.49 330.515 1213.43 329.121 1212.23 327.86C1211.03 326.599 1209.77 325.499 1208.45 324.56H1214.08C1215.31 325.499 1216.48 326.657 1217.6 328.036C1218.71 329.385 1219.68 330.911 1220.5 332.612C1221.35 334.313 1222.01 336.161 1222.48 338.156C1222.98 340.121 1223.23 342.175 1223.23 344.316ZM1244.47 358.484C1242.94 358.484 1241.85 358.161 1241.21 357.516C1240.56 356.871 1240.24 356.079 1240.24 355.14V353.82C1240.24 352.881 1240.56 352.089 1241.21 351.444C1241.85 350.799 1242.94 350.476 1244.47 350.476C1245.99 350.476 1247.08 350.799 1247.72 351.444C1248.37 352.089 1248.69 352.881 1248.69 353.82V355.14C1248.69 356.079 1248.37 356.871 1247.72 357.516C1247.08 358.161 1245.99 358.484 1244.47 358.484ZM1244.47 342.864C1242.94 342.864 1241.85 342.541 1241.21 341.896C1240.56 341.251 1240.24 340.459 1240.24 339.52V338.2C1240.24 337.261 1240.56 336.469 1241.21 335.824C1241.85 335.179 1242.94 334.856 1244.47 334.856C1245.99 334.856 1247.08 335.179 1247.72 335.824C1248.37 336.469 1248.69 337.261 1248.69 338.2V339.52C1248.69 340.459 1248.37 341.251 1247.72 341.896C1247.08 342.541 1245.99 342.864 1244.47 342.864Z" fill="black"/>
<g id="for i in 1..n:">
<path d="M1144.21 490.345H1151.06V476.224H1143.79V472.569H1151.06V468.707C1151.06 467.101 1151.5 465.799 1152.39 464.803C1153.28 463.778 1154.66 463.266 1156.54 463.266H1163.77V466.921H1155.59V472.569H1163.77V476.224H1155.59V490.345H1162.81V494H1144.21V490.345ZM1178.33 494.498C1176.75 494.498 1175.33 494.235 1174.05 493.709C1172.81 493.183 1171.74 492.436 1170.86 491.467C1170 490.497 1169.33 489.321 1168.86 487.936C1168.39 486.552 1168.16 485.001 1168.16 483.285C1168.16 481.568 1168.39 480.017 1168.86 478.633C1169.33 477.249 1170 476.072 1170.86 475.103C1171.74 474.134 1172.81 473.386 1174.05 472.86C1175.33 472.334 1176.75 472.071 1178.33 472.071C1179.91 472.071 1181.32 472.334 1182.57 472.86C1183.84 473.386 1184.91 474.134 1185.77 475.103C1186.65 476.072 1187.33 477.249 1187.8 478.633C1188.27 480.017 1188.51 481.568 1188.51 483.285C1188.51 485.001 1188.27 486.552 1187.8 487.936C1187.33 489.321 1186.65 490.497 1185.77 491.467C1184.91 492.436 1183.84 493.183 1182.57 493.709C1181.32 494.235 1179.91 494.498 1178.33 494.498ZM1178.33 490.927C1179.99 490.927 1181.31 490.428 1182.28 489.431C1183.27 488.407 1183.77 486.898 1183.77 484.904V481.665C1183.77 479.671 1183.27 478.176 1182.28 477.179C1181.31 476.155 1179.99 475.643 1178.33 475.643C1176.67 475.643 1175.34 476.155 1174.34 477.179C1173.38 478.176 1172.89 479.671 1172.89 481.665V484.904C1172.89 486.898 1173.38 488.407 1174.34 489.431C1175.34 490.428 1176.67 490.927 1178.33 490.927ZM1193.93 490.345H1199.62V476.224H1193.93V472.569H1204.15V478.259H1204.4C1204.59 477.512 1204.87 476.792 1205.23 476.099C1205.59 475.407 1206.05 474.812 1206.6 474.314C1207.15 473.788 1207.83 473.372 1208.63 473.068C1209.44 472.735 1210.38 472.569 1211.46 472.569H1214.03V476.889H1209.8C1208.14 476.889 1206.78 477.387 1205.73 478.384C1204.67 479.353 1204.15 480.668 1204.15 482.329V490.345H1211.92V494H1193.93V490.345Z" fill="#3867D6"/>
<path d="M1254.37 467.835C1253.4 467.835 1252.72 467.641 1252.34 467.253C1251.95 466.838 1251.75 466.326 1251.75 465.716V465.052C1251.75 464.443 1251.95 463.944 1252.34 463.557C1252.72 463.141 1253.4 462.934 1254.37 462.934C1255.34 462.934 1256.02 463.141 1256.41 463.557C1256.79 463.944 1256.99 464.443 1256.99 465.052V465.716C1256.99 466.326 1256.79 466.838 1256.41 467.253C1256.02 467.641 1255.34 467.835 1254.37 467.835ZM1244.98 491.176H1252.71V475.393H1244.98V472.569H1256.03V491.176H1263.26V494H1244.98V491.176ZM1304.18 467.835C1303.21 467.835 1302.53 467.641 1302.14 467.253C1301.75 466.838 1301.56 466.326 1301.56 465.716V465.052C1301.56 464.443 1301.75 463.944 1302.14 463.557C1302.53 463.141 1303.21 462.934 1304.18 462.934C1305.15 462.934 1305.82 463.141 1306.21 463.557C1306.6 463.944 1306.79 464.443 1306.79 465.052V465.716C1306.79 466.326 1306.6 466.838 1306.21 467.253C1305.82 467.641 1305.15 467.835 1304.18 467.835ZM1294.79 491.176H1302.52V475.393H1294.79V472.569H1305.84V491.176H1313.07V494H1294.79V491.176ZM1319.36 494V472.569H1322.68V476.058H1322.85C1323.07 475.532 1323.35 475.033 1323.68 474.563C1324.01 474.064 1324.41 473.635 1324.89 473.275C1325.38 472.915 1325.97 472.625 1326.63 472.403C1327.29 472.182 1328.07 472.071 1328.96 472.071C1331.2 472.071 1333 472.791 1334.36 474.231C1335.71 475.643 1336.39 477.65 1336.39 480.253V494H1333.07V480.834C1333.07 478.868 1332.64 477.415 1331.78 476.473C1330.92 475.504 1329.66 475.02 1328 475.02C1327.34 475.02 1326.69 475.103 1326.05 475.269C1325.41 475.435 1324.84 475.684 1324.35 476.016C1323.85 476.349 1323.45 476.778 1323.14 477.304C1322.84 477.83 1322.68 478.439 1322.68 479.131V494H1319.36ZM1368.63 494V490.968H1376.93V467.585H1376.64L1369.33 474.397L1367.3 472.195L1374.98 465.01H1380.42V490.968H1388.07V494H1368.63ZM1402.46 494.374C1401.33 494.374 1400.52 494.138 1400.05 493.668C1399.61 493.197 1399.39 492.602 1399.39 491.882V491.134C1399.39 490.414 1399.61 489.819 1400.05 489.348C1400.52 488.878 1401.33 488.642 1402.46 488.642C1403.6 488.642 1404.39 488.878 1404.83 489.348C1405.3 489.819 1405.53 490.414 1405.53 491.134V491.882C1405.53 492.602 1405.3 493.197 1404.83 493.668C1404.39 494.138 1403.6 494.374 1402.46 494.374ZM1427.36 494.374C1426.23 494.374 1425.43 494.138 1424.96 493.668C1424.51 493.197 1424.29 492.602 1424.29 491.882V491.134C1424.29 490.414 1424.51 489.819 1424.96 489.348C1425.43 488.878 1426.23 488.642 1427.36 488.642C1428.5 488.642 1429.29 488.878 1429.73 489.348C1430.2 489.819 1430.44 490.414 1430.44 491.134V491.882C1430.44 492.602 1430.2 493.197 1429.73 493.668C1429.29 494.138 1428.5 494.374 1427.36 494.374ZM1443.88 494V472.569H1447.2V476.058H1447.37C1447.59 475.532 1447.87 475.033 1448.2 474.563C1448.53 474.064 1448.93 473.635 1449.4 473.275C1449.9 472.915 1450.48 472.625 1451.15 472.403C1451.81 472.182 1452.59 472.071 1453.47 472.071C1455.71 472.071 1457.51 472.791 1458.87 474.231C1460.23 475.643 1460.91 477.65 1460.91 480.253V494H1457.58V480.834C1457.58 478.868 1457.15 477.415 1456.3 476.473C1455.44 475.504 1454.18 475.02 1452.52 475.02C1451.85 475.02 1451.2 475.103 1450.56 475.269C1449.93 475.435 1449.36 475.684 1448.86 476.016C1448.36 476.349 1447.96 476.778 1447.66 477.304C1447.35 477.83 1447.2 478.439 1447.2 479.131V494H1443.88ZM1477.17 494.374C1476.04 494.374 1475.23 494.138 1474.76 493.668C1474.32 493.197 1474.1 492.602 1474.1 491.882V491.134C1474.1 490.414 1474.32 489.819 1474.76 489.348C1475.23 488.878 1476.04 488.642 1477.17 488.642C1478.31 488.642 1479.1 488.878 1479.54 489.348C1480.01 489.819 1480.24 490.414 1480.24 491.134V491.882C1480.24 492.602 1480.01 493.197 1479.54 493.668C1479.1 494.138 1478.31 494.374 1477.17 494.374ZM1477.17 477.927C1476.04 477.927 1475.23 477.692 1474.76 477.221C1474.32 476.75 1474.1 476.155 1474.1 475.435V474.687C1474.1 473.967 1474.32 473.372 1474.76 472.901C1475.23 472.431 1476.04 472.195 1477.17 472.195C1478.31 472.195 1479.1 472.431 1479.54 472.901C1480.01 473.372 1480.24 473.967 1480.24 474.687V475.435C1480.24 476.155 1480.01 476.75 1479.54 477.221C1479.1 477.692 1478.31 477.927 1477.17 477.927Z" fill="#595959"/>
</g>
<path id="power = 2" d="M1144.91 405.569H1148.24V409.058H1148.4C1149.79 406.4 1151.99 405.071 1155.01 405.071C1157.64 405.071 1159.69 406.054 1161.15 408.02C1162.65 409.986 1163.4 412.741 1163.4 416.285C1163.4 419.829 1162.65 422.584 1161.15 424.55C1159.69 426.515 1157.64 427.498 1155.01 427.498C1151.99 427.498 1149.79 426.169 1148.4 423.511H1148.24V435.306H1144.91V405.569ZM1153.72 424.55C1155.66 424.55 1157.15 423.968 1158.2 422.805C1159.28 421.615 1159.82 420.05 1159.82 418.112V414.457C1159.82 412.519 1159.28 410.968 1158.2 409.806C1157.15 408.615 1155.66 408.02 1153.72 408.02C1152.97 408.02 1152.27 408.117 1151.6 408.31C1150.94 408.504 1150.36 408.795 1149.86 409.183C1149.36 409.543 1148.96 409.999 1148.65 410.553C1148.38 411.079 1148.24 411.702 1148.24 412.422V420.147C1148.24 420.867 1148.38 421.504 1148.65 422.058C1148.96 422.584 1149.36 423.041 1149.86 423.428C1150.36 423.788 1150.94 424.065 1151.6 424.259C1152.27 424.453 1152.97 424.55 1153.72 424.55ZM1178.33 427.498C1176.84 427.498 1175.48 427.235 1174.26 426.709C1173.07 426.183 1172.05 425.436 1171.19 424.467C1170.36 423.47 1169.72 422.293 1169.28 420.936C1168.83 419.552 1168.61 418.001 1168.61 416.285C1168.61 414.596 1168.83 413.059 1169.28 411.675C1169.72 410.29 1170.36 409.113 1171.19 408.144C1172.05 407.147 1173.07 406.386 1174.26 405.86C1175.48 405.334 1176.84 405.071 1178.33 405.071C1179.83 405.071 1181.17 405.334 1182.36 405.86C1183.58 406.386 1184.6 407.147 1185.43 408.144C1186.29 409.113 1186.94 410.29 1187.39 411.675C1187.83 413.059 1188.05 414.596 1188.05 416.285C1188.05 418.001 1187.83 419.552 1187.39 420.936C1186.94 422.293 1186.29 423.47 1185.43 424.467C1184.6 425.436 1183.58 426.183 1182.36 426.709C1181.17 427.235 1179.83 427.498 1178.33 427.498ZM1178.33 424.633C1180.19 424.633 1181.68 424.079 1182.82 422.971C1183.95 421.864 1184.52 420.147 1184.52 417.821V414.748C1184.52 412.422 1183.95 410.705 1182.82 409.598C1181.68 408.49 1180.19 407.937 1178.33 407.937C1176.48 407.937 1174.98 408.49 1173.85 409.598C1172.71 410.705 1172.14 412.422 1172.14 414.748V417.821C1172.14 420.147 1172.71 421.864 1173.85 422.971C1174.98 424.079 1176.48 424.633 1178.33 424.633ZM1192.02 405.569H1194.97L1197.42 424.093H1197.79L1201.45 405.569H1205.1L1208.76 424.093H1209.13L1211.58 405.569H1214.45L1211.17 427H1206.85L1203.44 409.058H1203.11L1199.62 427H1195.3L1192.02 405.569ZM1228.51 427.498C1226.96 427.498 1225.56 427.235 1224.32 426.709C1223.1 426.183 1222.05 425.436 1221.16 424.467C1220.3 423.47 1219.64 422.293 1219.17 420.936C1218.7 419.552 1218.46 418.015 1218.46 416.326C1218.46 414.609 1218.7 413.059 1219.17 411.675C1219.67 410.29 1220.34 409.113 1221.2 408.144C1222.06 407.147 1223.09 406.386 1224.28 405.86C1225.49 405.334 1226.84 405.071 1228.3 405.071C1229.74 405.071 1231.05 405.334 1232.21 405.86C1233.4 406.386 1234.41 407.12 1235.24 408.061C1236.07 408.975 1236.71 410.069 1237.15 411.342C1237.59 412.616 1237.82 414.014 1237.82 415.537V417.115H1221.95V418.112C1221.95 419.053 1222.1 419.926 1222.41 420.729C1222.71 421.532 1223.14 422.224 1223.69 422.805C1224.28 423.387 1224.97 423.844 1225.77 424.176C1226.6 424.48 1227.52 424.633 1228.51 424.633C1229.95 424.633 1231.2 424.3 1232.25 423.636C1233.3 422.971 1234.11 422.058 1234.66 420.895L1237.11 422.556C1236.47 423.996 1235.41 425.186 1233.91 426.128C1232.44 427.042 1230.64 427.498 1228.51 427.498ZM1228.3 407.812C1227.39 407.812 1226.55 407.978 1225.77 408.31C1225 408.643 1224.32 409.099 1223.74 409.681C1223.18 410.262 1222.74 410.955 1222.41 411.758C1222.1 412.533 1221.95 413.391 1221.95 414.333V414.623H1234.24V414.166C1234.24 413.225 1234.09 412.367 1233.79 411.591C1233.51 410.816 1233.11 410.152 1232.58 409.598C1232.08 409.016 1231.46 408.573 1230.71 408.269C1229.99 407.964 1229.19 407.812 1228.3 407.812ZM1243.78 424.176H1250.05V408.393H1243.78V405.569H1253.37V410.968H1253.58C1254.02 409.279 1254.86 407.964 1256.07 407.023C1257.32 406.054 1258.9 405.569 1260.81 405.569H1263.8V408.892H1259.77C1257.86 408.892 1256.31 409.446 1255.12 410.553C1253.96 411.661 1253.37 413.114 1253.37 414.914V424.176H1261.68V427H1243.78V424.176ZM1292.96 411.55V408.726H1312.73V411.55H1292.96ZM1292.96 419.856V417.032H1312.73V419.856H1292.96ZM1362.5 427H1343.14V423.428L1352.82 414.706C1354.23 413.433 1355.4 412.131 1356.31 410.802C1357.22 409.446 1357.68 408.02 1357.68 406.524V406.026C1357.68 404.282 1357.22 402.939 1356.31 401.997C1355.4 401.028 1354.04 400.544 1352.24 400.544C1350.47 400.544 1349.1 401.001 1348.13 401.914C1347.19 402.8 1346.48 403.991 1346.01 405.486L1342.89 404.323C1343.17 403.465 1343.55 402.634 1344.02 401.831C1344.51 401.001 1345.14 400.267 1345.88 399.63C1346.63 398.993 1347.53 398.481 1348.58 398.093C1349.66 397.706 1350.91 397.512 1352.32 397.512C1353.76 397.512 1355.04 397.72 1356.14 398.135C1357.28 398.55 1358.22 399.132 1358.97 399.879C1359.74 400.627 1360.32 401.513 1360.71 402.537C1361.13 403.562 1361.33 404.683 1361.33 405.901C1361.33 407.009 1361.17 408.047 1360.84 409.016C1360.53 409.986 1360.09 410.913 1359.51 411.799C1358.95 412.685 1358.28 413.557 1357.47 414.416C1356.7 415.246 1355.82 416.077 1354.86 416.908L1346.76 423.968H1362.5V427Z" fill="#595959"/>
<g id="return power">
<path d="M1148.13 694.345H1153.82V680.224H1148.13V676.569H1158.34V682.259H1158.59C1158.79 681.512 1159.06 680.792 1159.42 680.099C1159.78 679.407 1160.24 678.812 1160.79 678.314C1161.35 677.788 1162.02 677.372 1162.83 677.068C1163.63 676.735 1164.57 676.569 1165.65 676.569H1168.23V680.889H1163.99C1162.33 680.889 1160.97 681.387 1159.92 682.384C1158.87 683.353 1158.34 684.668 1158.34 686.329V694.345H1166.11V698H1148.13V694.345ZM1182.79 698.498C1181.16 698.498 1179.69 698.235 1178.39 697.709C1177.08 697.183 1175.99 696.436 1175.11 695.467C1174.22 694.497 1173.54 693.335 1173.07 691.978C1172.6 690.593 1172.36 689.043 1172.36 687.326C1172.36 685.609 1172.6 684.059 1173.07 682.675C1173.57 681.29 1174.25 680.113 1175.11 679.144C1175.99 678.147 1177.06 677.386 1178.3 676.86C1179.55 676.334 1180.93 676.071 1182.46 676.071C1183.95 676.071 1185.31 676.334 1186.53 676.86C1187.74 677.358 1188.78 678.078 1189.64 679.02C1190.5 679.961 1191.15 681.082 1191.59 682.384C1192.06 683.685 1192.3 685.125 1192.3 686.703V688.406H1176.93V689.112C1176.93 690.801 1177.46 692.185 1178.51 693.265C1179.56 694.317 1181.02 694.844 1182.87 694.844C1184.26 694.844 1185.43 694.553 1186.4 693.971C1187.4 693.362 1188.2 692.559 1188.81 691.562L1191.64 694.054C1190.92 695.3 1189.81 696.353 1188.31 697.211C1186.84 698.069 1185 698.498 1182.79 698.498ZM1182.46 679.518C1181.65 679.518 1180.91 679.656 1180.21 679.933C1179.55 680.21 1178.97 680.612 1178.47 681.138C1178 681.636 1177.62 682.232 1177.35 682.924C1177.07 683.616 1176.93 684.377 1176.93 685.208V685.499H1187.69V685.083C1187.69 683.394 1187.2 682.052 1186.24 681.055C1185.29 680.03 1184.03 679.518 1182.46 679.518ZM1208.52 698C1206.64 698 1205.26 697.502 1204.37 696.505C1203.48 695.48 1203.04 694.165 1203.04 692.559V680.224H1196.44V676.569H1201.13C1201.93 676.569 1202.5 676.417 1202.83 676.112C1203.16 675.78 1203.33 675.199 1203.33 674.368V669.01H1207.57V676.569H1216.7V680.224H1207.57V694.345H1216.7V698H1208.52ZM1236.58 694.345H1236.37C1236.15 694.899 1235.86 695.439 1235.5 695.965C1235.17 696.463 1234.75 696.906 1234.26 697.294C1233.76 697.654 1233.18 697.945 1232.51 698.166C1231.85 698.388 1231.07 698.498 1230.19 698.498C1228.03 698.498 1226.28 697.792 1224.95 696.38C1223.62 694.968 1222.96 692.961 1222.96 690.358V676.569H1227.49V689.694C1227.49 693.099 1228.97 694.802 1231.93 694.802C1232.51 694.802 1233.08 694.733 1233.63 694.594C1234.19 694.428 1234.69 694.193 1235.13 693.888C1235.57 693.584 1235.92 693.21 1236.17 692.767C1236.44 692.296 1236.58 691.742 1236.58 691.106V676.569H1241.11V698H1236.58V694.345ZM1247.74 694.345H1253.43V680.224H1247.74V676.569H1257.96V682.259H1258.2C1258.4 681.512 1258.68 680.792 1259.04 680.099C1259.4 679.407 1259.85 678.812 1260.41 678.314C1260.96 677.788 1261.64 677.372 1262.44 677.068C1263.24 676.735 1264.19 676.569 1265.26 676.569H1267.84V680.889H1263.6C1261.94 680.889 1260.59 681.387 1259.53 682.384C1258.48 683.353 1257.96 684.668 1257.96 686.329V694.345H1265.72V698H1247.74V694.345ZM1272.97 698V676.569H1277.5V680.224H1277.71C1277.93 679.67 1278.21 679.144 1278.54 678.646C1278.9 678.12 1279.33 677.677 1279.83 677.317C1280.33 676.929 1280.91 676.625 1281.57 676.403C1282.24 676.182 1283.01 676.071 1283.9 676.071C1286.06 676.071 1287.8 676.777 1289.13 678.189C1290.46 679.601 1291.12 681.609 1291.12 684.211V698H1286.6V684.876C1286.6 681.47 1285.12 679.767 1282.15 679.767C1281.57 679.767 1281 679.85 1280.45 680.016C1279.9 680.155 1279.4 680.376 1278.95 680.681C1278.51 680.986 1278.15 681.373 1277.87 681.844C1277.63 682.315 1277.5 682.854 1277.5 683.464V698H1272.97Z" fill="#4B6584"/>
<path d="M1323.24 676.569H1326.56V680.058H1326.73C1328.11 677.4 1330.31 676.071 1333.33 676.071C1335.96 676.071 1338.01 677.054 1339.48 679.02C1340.97 680.986 1341.72 683.741 1341.72 687.285C1341.72 690.829 1340.97 693.584 1339.48 695.55C1338.01 697.515 1335.96 698.498 1333.33 698.498C1330.31 698.498 1328.11 697.169 1326.73 694.511H1326.56V706.306H1323.24V676.569ZM1332.04 695.55C1333.98 695.55 1335.48 694.968 1336.53 693.805C1337.61 692.615 1338.15 691.05 1338.15 689.112V685.457C1338.15 683.519 1337.61 681.968 1336.53 680.806C1335.48 679.615 1333.98 679.02 1332.04 679.02C1331.29 679.02 1330.59 679.117 1329.92 679.31C1329.26 679.504 1328.68 679.795 1328.18 680.183C1327.68 680.543 1327.28 680.999 1326.98 681.553C1326.7 682.079 1326.56 682.702 1326.56 683.422V691.147C1326.56 691.867 1326.7 692.504 1326.98 693.058C1327.28 693.584 1327.68 694.041 1328.18 694.428C1328.68 694.788 1329.26 695.065 1329.92 695.259C1330.59 695.453 1331.29 695.55 1332.04 695.55ZM1356.65 698.498C1355.16 698.498 1353.8 698.235 1352.58 697.709C1351.39 697.183 1350.37 696.436 1349.51 695.467C1348.68 694.47 1348.04 693.293 1347.6 691.936C1347.16 690.552 1346.94 689.001 1346.94 687.285C1346.94 685.596 1347.16 684.059 1347.6 682.675C1348.04 681.29 1348.68 680.113 1349.51 679.144C1350.37 678.147 1351.39 677.386 1352.58 676.86C1353.8 676.334 1355.16 676.071 1356.65 676.071C1358.15 676.071 1359.49 676.334 1360.68 676.86C1361.9 677.386 1362.93 678.147 1363.76 679.144C1364.62 680.113 1365.27 681.29 1365.71 682.675C1366.15 684.059 1366.37 685.596 1366.37 687.285C1366.37 689.001 1366.15 690.552 1365.71 691.936C1365.27 693.293 1364.62 694.47 1363.76 695.467C1362.93 696.436 1361.9 697.183 1360.68 697.709C1359.49 698.235 1358.15 698.498 1356.65 698.498ZM1356.65 695.633C1358.51 695.633 1360 695.079 1361.14 693.971C1362.28 692.864 1362.84 691.147 1362.84 688.821V685.748C1362.84 683.422 1362.28 681.705 1361.14 680.598C1360 679.49 1358.51 678.937 1356.65 678.937C1354.8 678.937 1353.3 679.49 1352.17 680.598C1351.03 681.705 1350.47 683.422 1350.47 685.748V688.821C1350.47 691.147 1351.03 692.864 1352.17 693.971C1353.3 695.079 1354.8 695.633 1356.65 695.633ZM1370.34 676.569H1373.29L1375.74 695.093H1376.12L1379.77 676.569H1383.43L1387.08 695.093H1387.46L1389.91 676.569H1392.77L1389.49 698H1385.17L1381.77 680.058H1381.43L1377.94 698H1373.63L1370.34 676.569ZM1406.83 698.498C1405.28 698.498 1403.89 698.235 1402.64 697.709C1401.42 697.183 1400.37 696.436 1399.48 695.467C1398.63 694.47 1397.96 693.293 1397.49 691.936C1397.02 690.552 1396.78 689.015 1396.78 687.326C1396.78 685.609 1397.02 684.059 1397.49 682.675C1397.99 681.29 1398.67 680.113 1399.53 679.144C1400.38 678.147 1401.41 677.386 1402.6 676.86C1403.82 676.334 1405.16 676.071 1406.63 676.071C1408.07 676.071 1409.37 676.334 1410.53 676.86C1411.72 677.386 1412.73 678.12 1413.56 679.061C1414.39 679.975 1415.03 681.069 1415.47 682.342C1415.92 683.616 1416.14 685.014 1416.14 686.537V688.115H1400.27V689.112C1400.27 690.053 1400.43 690.926 1400.73 691.729C1401.03 692.532 1401.46 693.224 1402.02 693.805C1402.6 694.387 1403.29 694.844 1404.09 695.176C1404.92 695.48 1405.84 695.633 1406.83 695.633C1408.27 695.633 1409.52 695.3 1410.57 694.636C1411.63 693.971 1412.43 693.058 1412.98 691.895L1415.43 693.556C1414.8 694.996 1413.73 696.186 1412.23 697.128C1410.77 698.042 1408.97 698.498 1406.83 698.498ZM1406.63 678.812C1405.71 678.812 1404.87 678.978 1404.09 679.31C1403.32 679.643 1402.64 680.099 1402.06 680.681C1401.5 681.262 1401.06 681.955 1400.73 682.758C1400.43 683.533 1400.27 684.391 1400.27 685.333V685.623H1412.57V685.166C1412.57 684.225 1412.41 683.367 1412.11 682.591C1411.83 681.816 1411.43 681.152 1410.91 680.598C1410.41 680.016 1409.78 679.573 1409.04 679.269C1408.32 678.964 1407.51 678.812 1406.63 678.812ZM1422.1 695.176H1428.37V679.393H1422.1V676.569H1431.7V681.968H1431.9C1432.35 680.279 1433.18 678.964 1434.4 678.023C1435.64 677.054 1437.22 676.569 1439.13 676.569H1442.12V679.892H1438.09C1436.18 679.892 1434.63 680.446 1433.44 681.553C1432.28 682.661 1431.7 684.114 1431.7 685.914V695.176H1440V698H1422.1V695.176Z" fill="#595959"/>
</g>
<g id="for j in 1..n:">
<path d="M1230.21 557.345H1237.06V543.224H1229.79V539.569H1237.06V535.707C1237.06 534.101 1237.5 532.799 1238.39 531.803C1239.28 530.778 1240.66 530.266 1242.54 530.266H1249.77V533.921H1241.59V539.569H1249.77V543.224H1241.59V557.345H1248.81V561H1230.21V557.345ZM1264.33 561.498C1262.75 561.498 1261.33 561.235 1260.05 560.709C1258.81 560.183 1257.74 559.436 1256.86 558.467C1256 557.497 1255.33 556.321 1254.86 554.936C1254.39 553.552 1254.16 552.001 1254.16 550.285C1254.16 548.568 1254.39 547.017 1254.86 545.633C1255.33 544.249 1256 543.072 1256.86 542.103C1257.74 541.134 1258.81 540.386 1260.05 539.86C1261.33 539.334 1262.75 539.071 1264.33 539.071C1265.91 539.071 1267.32 539.334 1268.57 539.86C1269.84 540.386 1270.91 541.134 1271.77 542.103C1272.65 543.072 1273.33 544.249 1273.8 545.633C1274.27 547.017 1274.51 548.568 1274.51 550.285C1274.51 552.001 1274.27 553.552 1273.8 554.936C1273.33 556.321 1272.65 557.497 1271.77 558.467C1270.91 559.436 1269.84 560.183 1268.57 560.709C1267.32 561.235 1265.91 561.498 1264.33 561.498ZM1264.33 557.927C1265.99 557.927 1267.31 557.428 1268.28 556.431C1269.27 555.407 1269.77 553.898 1269.77 551.904V548.665C1269.77 546.671 1269.27 545.176 1268.28 544.179C1267.31 543.155 1265.99 542.643 1264.33 542.643C1262.67 542.643 1261.34 543.155 1260.34 544.179C1259.38 545.176 1258.89 546.671 1258.89 548.665V551.904C1258.89 553.898 1259.38 555.407 1260.34 556.431C1261.34 557.428 1262.67 557.927 1264.33 557.927ZM1279.93 557.345H1285.62V543.224H1279.93V539.569H1290.15V545.259H1290.4C1290.59 544.512 1290.87 543.792 1291.23 543.099C1291.59 542.407 1292.05 541.812 1292.6 541.314C1293.15 540.788 1293.83 540.372 1294.63 540.068C1295.44 539.735 1296.38 539.569 1297.46 539.569H1300.03V543.889H1295.8C1294.14 543.889 1292.78 544.387 1291.73 545.384C1290.67 546.353 1290.15 547.668 1290.15 549.329V557.345H1297.92V561H1279.93V557.345Z" fill="#3867D6"/>
<path d="M1330.82 566.482H1341.2V542.393H1330.44V539.569H1344.52V564.406C1344.52 565.845 1344.14 567.022 1343.36 567.936C1342.61 568.85 1341.42 569.306 1339.79 569.306H1330.82V566.482ZM1342.86 534.835C1341.89 534.835 1341.22 534.641 1340.83 534.253C1340.44 533.838 1340.25 533.326 1340.25 532.716V532.052C1340.25 531.443 1340.44 530.944 1340.83 530.557C1341.22 530.141 1341.89 529.934 1342.86 529.934C1343.83 529.934 1344.51 530.141 1344.9 530.557C1345.29 530.944 1345.48 531.443 1345.48 532.052V532.716C1345.48 533.326 1345.29 533.838 1344.9 534.253C1344.51 534.641 1343.83 534.835 1342.86 534.835ZM1390.18 534.835C1389.21 534.835 1388.53 534.641 1388.14 534.253C1387.75 533.838 1387.56 533.326 1387.56 532.716V532.052C1387.56 531.443 1387.75 530.944 1388.14 530.557C1388.53 530.141 1389.21 529.934 1390.18 529.934C1391.15 529.934 1391.82 530.141 1392.21 530.557C1392.6 530.944 1392.79 531.443 1392.79 532.052V532.716C1392.79 533.326 1392.6 533.838 1392.21 534.253C1391.82 534.641 1391.15 534.835 1390.18 534.835ZM1380.79 558.176H1388.52V542.393H1380.79V539.569H1391.84V558.176H1399.07V561H1380.79V558.176ZM1405.36 561V539.569H1408.68V543.058H1408.85C1409.07 542.532 1409.35 542.033 1409.68 541.563C1410.01 541.064 1410.41 540.635 1410.89 540.275C1411.38 539.915 1411.97 539.625 1412.63 539.403C1413.29 539.182 1414.07 539.071 1414.96 539.071C1417.2 539.071 1419 539.791 1420.36 541.231C1421.71 542.643 1422.39 544.65 1422.39 547.253V561H1419.07V547.834C1419.07 545.868 1418.64 544.415 1417.78 543.473C1416.92 542.504 1415.66 542.02 1414 542.02C1413.34 542.02 1412.69 542.103 1412.05 542.269C1411.41 542.435 1410.84 542.684 1410.35 543.016C1409.85 543.349 1409.45 543.778 1409.14 544.304C1408.84 544.83 1408.68 545.439 1408.68 546.131V561H1405.36ZM1454.63 561V557.968H1462.93V534.585H1462.64L1455.33 541.397L1453.3 539.195L1460.98 532.01H1466.42V557.968H1474.07V561H1454.63ZM1488.46 561.374C1487.33 561.374 1486.52 561.138 1486.05 560.668C1485.61 560.197 1485.39 559.602 1485.39 558.882V558.134C1485.39 557.414 1485.61 556.819 1486.05 556.348C1486.52 555.878 1487.33 555.642 1488.46 555.642C1489.6 555.642 1490.39 555.878 1490.83 556.348C1491.3 556.819 1491.53 557.414 1491.53 558.134V558.882C1491.53 559.602 1491.3 560.197 1490.83 560.668C1490.39 561.138 1489.6 561.374 1488.46 561.374ZM1513.36 561.374C1512.23 561.374 1511.43 561.138 1510.96 560.668C1510.51 560.197 1510.29 559.602 1510.29 558.882V558.134C1510.29 557.414 1510.51 556.819 1510.96 556.348C1511.43 555.878 1512.23 555.642 1513.36 555.642C1514.5 555.642 1515.29 555.878 1515.73 556.348C1516.2 556.819 1516.44 557.414 1516.44 558.134V558.882C1516.44 559.602 1516.2 560.197 1515.73 560.668C1515.29 561.138 1514.5 561.374 1513.36 561.374ZM1529.88 561V539.569H1533.2V543.058H1533.37C1533.59 542.532 1533.87 542.033 1534.2 541.563C1534.53 541.064 1534.93 540.635 1535.4 540.275C1535.9 539.915 1536.48 539.625 1537.15 539.403C1537.81 539.182 1538.59 539.071 1539.47 539.071C1541.71 539.071 1543.51 539.791 1544.87 541.231C1546.23 542.643 1546.91 544.65 1546.91 547.253V561H1543.58V547.834C1543.58 545.868 1543.15 544.415 1542.3 543.473C1541.44 542.504 1540.18 542.02 1538.52 542.02C1537.85 542.02 1537.2 542.103 1536.56 542.269C1535.93 542.435 1535.36 542.684 1534.86 543.016C1534.36 543.349 1533.96 543.778 1533.66 544.304C1533.35 544.83 1533.2 545.439 1533.2 546.131V561H1529.88ZM1563.17 561.374C1562.04 561.374 1561.23 561.138 1560.76 560.668C1560.32 560.197 1560.1 559.602 1560.1 558.882V558.134C1560.1 557.414 1560.32 556.819 1560.76 556.348C1561.23 555.878 1562.04 555.642 1563.17 555.642C1564.31 555.642 1565.1 555.878 1565.54 556.348C1566.01 556.819 1566.24 557.414 1566.24 558.134V558.882C1566.24 559.602 1566.01 560.197 1565.54 560.668C1565.1 561.138 1564.31 561.374 1563.17 561.374ZM1563.17 544.927C1562.04 544.927 1561.23 544.692 1560.76 544.221C1560.32 543.75 1560.1 543.155 1560.1 542.435V541.687C1560.1 540.967 1560.32 540.372 1560.76 539.901C1561.23 539.431 1562.04 539.195 1563.17 539.195C1564.31 539.195 1565.1 539.431 1565.54 539.901C1566.01 540.372 1566.24 540.967 1566.24 541.687V542.435C1566.24 543.155 1566.01 543.75 1565.54 544.221C1565.1 544.692 1564.31 544.927 1563.17 544.927Z" fill="#595959"/>
</g>
<g id="power = +1(power)">
<path d="M1291.15 607.296H1294.67V610.992H1294.84C1296.31 608.176 1298.64 606.768 1301.84 606.768C1304.63 606.768 1306.8 607.809 1308.35 609.892C1309.94 611.975 1310.73 614.893 1310.73 618.648C1310.73 622.403 1309.94 625.321 1308.35 627.404C1306.8 629.487 1304.63 630.528 1301.84 630.528C1298.64 630.528 1296.31 629.12 1294.84 626.304H1294.67V638.8H1291.15V607.296ZM1300.48 627.404C1302.53 627.404 1304.11 626.788 1305.23 625.556C1306.37 624.295 1306.94 622.637 1306.94 620.584V616.712C1306.94 614.659 1306.37 613.016 1305.23 611.784C1304.11 610.523 1302.53 609.892 1300.48 609.892C1299.68 609.892 1298.94 609.995 1298.23 610.2C1297.53 610.405 1296.91 610.713 1296.38 611.124C1295.86 611.505 1295.43 611.989 1295.11 612.576C1294.82 613.133 1294.67 613.793 1294.67 614.556V622.74C1294.67 623.503 1294.82 624.177 1295.11 624.764C1295.43 625.321 1295.86 625.805 1296.38 626.216C1296.91 626.597 1297.53 626.891 1298.23 627.096C1298.94 627.301 1299.68 627.404 1300.48 627.404ZM1326.55 630.528C1324.97 630.528 1323.53 630.249 1322.24 629.692C1320.98 629.135 1319.89 628.343 1318.98 627.316C1318.1 626.26 1317.43 625.013 1316.96 623.576C1316.49 622.109 1316.26 620.467 1316.26 618.648C1316.26 616.859 1316.49 615.231 1316.96 613.764C1317.43 612.297 1318.1 611.051 1318.98 610.024C1319.89 608.968 1320.98 608.161 1322.24 607.604C1323.53 607.047 1324.97 606.768 1326.55 606.768C1328.14 606.768 1329.56 607.047 1330.82 607.604C1332.11 608.161 1333.2 608.968 1334.08 610.024C1334.98 611.051 1335.67 612.297 1336.14 613.764C1336.61 615.231 1336.85 616.859 1336.85 618.648C1336.85 620.467 1336.61 622.109 1336.14 623.576C1335.67 625.013 1334.98 626.26 1334.08 627.316C1333.2 628.343 1332.11 629.135 1330.82 629.692C1329.56 630.249 1328.14 630.528 1326.55 630.528ZM1326.55 627.492C1328.52 627.492 1330.1 626.905 1331.3 625.732C1332.51 624.559 1333.11 622.74 1333.11 620.276V617.02C1333.11 614.556 1332.51 612.737 1331.3 611.564C1330.1 610.391 1328.52 609.804 1326.55 609.804C1324.59 609.804 1323 610.391 1321.8 611.564C1320.6 612.737 1320 614.556 1320 617.02V620.276C1320 622.74 1320.6 624.559 1321.8 625.732C1323 626.905 1324.59 627.492 1326.55 627.492ZM1341.05 607.296H1344.18L1346.77 626.92H1347.17L1351.04 607.296H1354.91L1358.79 626.92H1359.18L1361.78 607.296H1364.81L1361.34 630H1356.76L1353.15 610.992H1352.8L1349.11 630H1344.53L1341.05 607.296ZM1379.71 630.528C1378.07 630.528 1376.59 630.249 1375.27 629.692C1373.98 629.135 1372.86 628.343 1371.93 627.316C1371.02 626.26 1370.31 625.013 1369.81 623.576C1369.31 622.109 1369.07 620.481 1369.07 618.692C1369.07 616.873 1369.31 615.231 1369.81 613.764C1370.34 612.297 1371.06 611.051 1371.97 610.024C1372.88 608.968 1373.96 608.161 1375.23 607.604C1376.52 607.047 1377.94 606.768 1379.49 606.768C1381.02 606.768 1382.4 607.047 1383.63 607.604C1384.89 608.161 1385.96 608.939 1386.84 609.936C1387.72 610.904 1388.4 612.063 1388.87 613.412C1389.33 614.761 1389.57 616.243 1389.57 617.856V619.528H1372.76V620.584C1372.76 621.581 1372.92 622.505 1373.25 623.356C1373.57 624.207 1374.02 624.94 1374.61 625.556C1375.23 626.172 1375.96 626.656 1376.81 627.008C1377.69 627.331 1378.66 627.492 1379.71 627.492C1381.24 627.492 1382.56 627.14 1383.67 626.436C1384.79 625.732 1385.64 624.764 1386.23 623.532L1388.82 625.292C1388.15 626.817 1387.02 628.079 1385.43 629.076C1383.88 630.044 1381.97 630.528 1379.71 630.528ZM1379.49 609.672C1378.53 609.672 1377.63 609.848 1376.81 610.2C1375.99 610.552 1375.27 611.036 1374.65 611.652C1374.07 612.268 1373.6 613.001 1373.25 613.852C1372.92 614.673 1372.76 615.583 1372.76 616.58V616.888H1385.79V616.404C1385.79 615.407 1385.62 614.497 1385.3 613.676C1385.01 612.855 1384.58 612.151 1384.03 611.564C1383.5 610.948 1382.84 610.479 1382.05 610.156C1381.28 609.833 1380.43 609.672 1379.49 609.672ZM1395.89 627.008H1402.53V610.288H1395.89V607.296H1406.05V613.016H1406.27C1406.74 611.227 1407.62 609.833 1408.91 608.836C1410.23 607.809 1411.9 607.296 1413.93 607.296H1417.1V610.816H1412.83C1410.8 610.816 1409.16 611.403 1407.9 612.576C1406.67 613.749 1406.05 615.289 1406.05 617.196V627.008H1414.85V630H1395.89V627.008ZM1447.99 613.632V610.64H1468.94V613.632H1447.99ZM1447.99 622.432V619.44H1468.94V622.432H1447.99ZM1559.82 616.316C1559.82 614.175 1560.05 612.121 1560.52 610.156C1561.02 608.161 1561.68 606.313 1562.5 604.612C1563.35 602.911 1564.33 601.385 1565.45 600.036C1566.56 598.657 1567.74 597.499 1568.97 596.56H1572.53C1571.24 597.528 1570.02 598.657 1568.88 599.948C1567.77 601.209 1566.77 602.603 1565.89 604.128C1565.04 605.624 1564.36 607.252 1563.86 609.012C1563.37 610.743 1563.12 612.547 1563.12 614.424V618.208C1563.12 620.085 1563.37 621.904 1563.86 623.664C1564.36 625.395 1565.04 627.023 1565.89 628.548C1566.77 630.044 1567.77 631.423 1568.88 632.684C1570.02 633.975 1571.24 635.104 1572.53 636.072H1568.97C1567.74 635.163 1566.56 634.019 1565.45 632.64C1564.33 631.261 1563.35 629.721 1562.5 628.02C1561.68 626.319 1561.02 624.485 1560.52 622.52C1560.05 620.525 1559.82 618.457 1559.82 616.316ZM1581.36 607.296H1584.88V610.992H1585.06C1586.52 608.176 1588.85 606.768 1592.05 606.768C1594.84 606.768 1597.01 607.809 1598.56 609.892C1600.15 611.975 1600.94 614.893 1600.94 618.648C1600.94 622.403 1600.15 625.321 1598.56 627.404C1597.01 629.487 1594.84 630.528 1592.05 630.528C1588.85 630.528 1586.52 629.12 1585.06 626.304H1584.88V638.8H1581.36V607.296ZM1590.69 627.404C1592.74 627.404 1594.33 626.788 1595.44 625.556C1596.58 624.295 1597.16 622.637 1597.16 620.584V616.712C1597.16 614.659 1596.58 613.016 1595.44 611.784C1594.33 610.523 1592.74 609.892 1590.69 609.892C1589.9 609.892 1589.15 609.995 1588.44 610.2C1587.74 610.405 1587.12 610.713 1586.6 611.124C1586.07 611.505 1585.64 611.989 1585.32 612.576C1585.03 613.133 1584.88 613.793 1584.88 614.556V622.74C1584.88 623.503 1585.03 624.177 1585.32 624.764C1585.64 625.321 1586.07 625.805 1586.6 626.216C1587.12 626.597 1587.74 626.891 1588.44 627.096C1589.15 627.301 1589.9 627.404 1590.69 627.404ZM1616.76 630.528C1615.18 630.528 1613.74 630.249 1612.45 629.692C1611.19 629.135 1610.1 628.343 1609.19 627.316C1608.31 626.26 1607.64 625.013 1607.17 623.576C1606.7 622.109 1606.47 620.467 1606.47 618.648C1606.47 616.859 1606.7 615.231 1607.17 613.764C1607.64 612.297 1608.31 611.051 1609.19 610.024C1610.1 608.968 1611.19 608.161 1612.45 607.604C1613.74 607.047 1615.18 606.768 1616.76 606.768C1618.35 606.768 1619.77 607.047 1621.03 607.604C1622.32 608.161 1623.41 608.968 1624.29 610.024C1625.2 611.051 1625.89 612.297 1626.35 613.764C1626.82 615.231 1627.06 616.859 1627.06 618.648C1627.06 620.467 1626.82 622.109 1626.35 623.576C1625.89 625.013 1625.2 626.26 1624.29 627.316C1623.41 628.343 1622.32 629.135 1621.03 629.692C1619.77 630.249 1618.35 630.528 1616.76 630.528ZM1616.76 627.492C1618.73 627.492 1620.31 626.905 1621.51 625.732C1622.72 624.559 1623.32 622.74 1623.32 620.276V617.02C1623.32 614.556 1622.72 612.737 1621.51 611.564C1620.31 610.391 1618.73 609.804 1616.76 609.804C1614.8 609.804 1613.21 610.391 1612.01 611.564C1610.81 612.737 1610.21 614.556 1610.21 617.02V620.276C1610.21 622.74 1610.81 624.559 1612.01 625.732C1613.21 626.905 1614.8 627.492 1616.76 627.492ZM1631.27 607.296H1634.39L1636.99 626.92H1637.38L1641.25 607.296H1645.13L1649 626.92H1649.39L1651.99 607.296H1655.03L1651.55 630H1646.97L1643.37 610.992H1643.01L1639.32 630H1634.74L1631.27 607.296ZM1669.92 630.528C1668.28 630.528 1666.8 630.249 1665.48 629.692C1664.19 629.135 1663.07 628.343 1662.14 627.316C1661.23 626.26 1660.52 625.013 1660.02 623.576C1659.53 622.109 1659.28 620.481 1659.28 618.692C1659.28 616.873 1659.53 615.231 1660.02 613.764C1660.55 612.297 1661.27 611.051 1662.18 610.024C1663.09 608.968 1664.17 608.161 1665.44 607.604C1666.73 607.047 1668.15 606.768 1669.7 606.768C1671.23 606.768 1672.61 607.047 1673.84 607.604C1675.1 608.161 1676.17 608.939 1677.05 609.936C1677.93 610.904 1678.61 612.063 1679.08 613.412C1679.55 614.761 1679.78 616.243 1679.78 617.856V619.528H1662.97V620.584C1662.97 621.581 1663.13 622.505 1663.46 623.356C1663.78 624.207 1664.23 624.94 1664.82 625.556C1665.44 626.172 1666.17 626.656 1667.02 627.008C1667.9 627.331 1668.87 627.492 1669.92 627.492C1671.45 627.492 1672.77 627.14 1673.88 626.436C1675 625.732 1675.85 624.764 1676.44 623.532L1679.03 625.292C1678.36 626.817 1677.23 628.079 1675.64 629.076C1674.09 630.044 1672.18 630.528 1669.92 630.528ZM1669.7 609.672C1668.74 609.672 1667.84 609.848 1667.02 610.2C1666.2 610.552 1665.48 611.036 1664.86 611.652C1664.28 612.268 1663.81 613.001 1663.46 613.852C1663.13 614.673 1662.97 615.583 1662.97 616.58V616.888H1676V616.404C1676 615.407 1675.83 614.497 1675.51 613.676C1675.22 612.855 1674.79 612.151 1674.24 611.564C1673.71 610.948 1673.05 610.479 1672.26 610.156C1671.49 609.833 1670.64 609.672 1669.7 609.672ZM1686.1 627.008H1692.74V610.288H1686.1V607.296H1696.26V613.016H1696.48C1696.95 611.227 1697.83 609.833 1699.12 608.836C1700.44 607.809 1702.11 607.296 1704.14 607.296H1707.31V610.816H1703.04C1701.01 610.816 1699.37 611.403 1698.11 612.576C1696.88 613.749 1696.26 615.289 1696.26 617.196V627.008H1705.06V630H1686.1V627.008ZM1726.47 616.316C1726.47 618.457 1726.22 620.525 1725.73 622.52C1725.26 624.485 1724.6 626.319 1723.75 628.02C1722.92 629.721 1721.96 631.261 1720.84 632.64C1719.73 634.019 1718.55 635.163 1717.32 636.072H1713.76C1715.02 635.104 1716.22 633.975 1717.37 632.684C1718.51 631.423 1719.51 630.044 1720.36 628.548C1721.24 627.023 1721.93 625.395 1722.43 623.664C1722.92 621.904 1723.17 620.085 1723.17 618.208V614.424C1723.17 612.547 1722.92 610.743 1722.43 609.012C1721.93 607.252 1721.24 605.624 1720.36 604.128C1719.51 602.603 1718.51 601.209 1717.37 599.948C1716.22 598.657 1715.02 597.528 1713.76 596.56H1717.32C1718.55 597.499 1719.73 598.657 1720.84 600.036C1721.96 601.385 1722.92 602.911 1723.75 604.612C1724.6 606.313 1725.26 608.161 1725.73 610.156C1726.22 612.121 1726.47 614.175 1726.47 616.316Z" fill="#595959"/>
<path d="M1508.77 627.272V618.824H1500.76V614.292H1508.77V605.844H1513.7V614.292H1521.7V618.824H1513.7V627.272H1508.77ZM1528.42 630V625.292H1536.87V603.468H1536.47L1529.78 611.388L1526.17 608.352L1533.79 599.288H1542.63V625.292H1549.58V630H1528.42Z" fill="#D648BC"/>
</g>
</g>
<path id="times2" d="M900.564 677C898.569 677 897.103 676.472 896.164 675.416C895.225 674.331 894.756 672.937 894.756 671.236V658.168H887.76V654.296H892.732C893.583 654.296 894.184 654.135 894.536 653.812C894.888 653.46 895.064 652.844 895.064 651.964V646.288H899.552V654.296H909.232V658.168H899.552V673.128H909.232V677H900.564ZM926.991 650.16C925.759 650.16 924.893 649.911 924.395 649.412C923.925 648.913 923.691 648.297 923.691 647.564V646.64C923.691 645.907 923.925 645.291 924.395 644.792C924.893 644.293 925.744 644.044 926.947 644.044C928.179 644.044 929.029 644.293 929.499 644.792C929.997 645.291 930.247 645.907 930.247 646.64V647.564C930.247 648.297 929.997 648.913 929.499 649.412C929.029 649.911 928.193 650.16 926.991 650.16ZM916.827 673.128H924.571V658.168H916.827V654.296H929.367V673.128H936.627V677H916.827V673.128ZM940.702 677V654.296H944.794V657.244H945.014C945.366 656.276 945.864 655.455 946.51 654.78C947.184 654.105 948.138 653.768 949.37 653.768C950.572 653.768 951.496 654.105 952.142 654.78C952.816 655.425 953.242 656.32 953.418 657.464H953.594C954.004 656.437 954.576 655.572 955.31 654.868C956.043 654.135 957.099 653.768 958.478 653.768C960.238 653.768 961.455 654.384 962.13 655.616C962.834 656.848 963.186 658.652 963.186 661.028V677H959.094V661.644C959.094 660.06 958.903 658.975 958.522 658.388C958.14 657.772 957.524 657.464 956.674 657.464C955.911 657.464 955.266 657.728 954.738 658.256C954.239 658.755 953.99 659.517 953.99 660.544V677H949.898V661.644C949.898 660.06 949.707 658.975 949.326 658.388C948.974 657.772 948.372 657.464 947.522 657.464C946.73 657.464 946.07 657.728 945.542 658.256C945.043 658.755 944.794 659.517 944.794 660.544V677H940.702ZM978.832 677.528C977.102 677.528 975.547 677.249 974.168 676.692C972.79 676.135 971.631 675.343 970.692 674.316C969.754 673.289 969.035 672.057 968.536 670.62C968.038 669.153 967.788 667.511 967.788 665.692C967.788 663.873 968.038 662.231 968.536 660.764C969.064 659.297 969.783 658.051 970.692 657.024C971.631 655.968 972.76 655.161 974.08 654.604C975.4 654.047 976.867 653.768 978.48 653.768C980.064 653.768 981.502 654.047 982.792 654.604C984.083 655.132 985.183 655.895 986.092 656.892C987.002 657.889 987.691 659.077 988.16 660.456C988.659 661.835 988.908 663.36 988.908 665.032V666.836H972.628V667.584C972.628 669.373 973.186 670.84 974.3 671.984C975.415 673.099 976.955 673.656 978.92 673.656C980.387 673.656 981.634 673.348 982.66 672.732C983.716 672.087 984.567 671.236 985.212 670.18L988.204 672.82C987.442 674.14 986.268 675.255 984.684 676.164C983.13 677.073 981.179 677.528 978.832 677.528ZM978.48 657.42C977.63 657.42 976.838 657.567 976.104 657.86C975.4 658.153 974.784 658.579 974.256 659.136C973.758 659.664 973.362 660.295 973.068 661.028C972.775 661.761 972.628 662.568 972.628 663.448V663.756H984.024V663.316C984.024 661.527 983.511 660.104 982.484 659.048C981.487 657.963 980.152 657.42 978.48 657.42ZM1004.78 677.528C1002.31 677.528 1000.18 677.132 998.395 676.34C996.635 675.548 995.213 674.492 994.127 673.172L997.075 670.532C998.073 671.617 999.187 672.453 1000.42 673.04C1001.68 673.597 1003.16 673.876 1004.86 673.876C1006.42 673.876 1007.66 673.612 1008.6 673.084C1009.57 672.556 1010.06 671.735 1010.06 670.62C1010.06 670.151 1009.97 669.755 1009.79 669.432C1009.62 669.109 1009.37 668.845 1009.04 668.64C1008.72 668.435 1008.34 668.273 1007.9 668.156C1007.49 668.039 1007.05 667.951 1006.58 667.892L1002.97 667.32C1002.09 667.203 1001.2 667.012 1000.29 666.748C999.378 666.484 998.557 666.117 997.823 665.648C997.119 665.149 996.533 664.519 996.063 663.756C995.623 662.993 995.403 662.025 995.403 660.852C995.403 658.535 996.283 656.775 998.043 655.572C999.833 654.369 1002.18 653.768 1005.08 653.768C1007.2 653.768 1009.01 654.091 1010.54 654.736C1012.09 655.352 1013.38 656.217 1014.41 657.332L1011.73 660.148C1011.14 659.473 1010.3 658.857 1009.22 658.3C1008.13 657.713 1006.7 657.42 1004.91 657.42C1001.71 657.42 1000.11 658.432 1000.11 660.456C1000.11 661.424 1000.45 662.099 1001.12 662.48C1001.83 662.832 1002.65 663.067 1003.59 663.184L1007.2 663.756C1008.1 663.903 1009 664.093 1009.88 664.328C1010.79 664.563 1011.6 664.929 1012.3 665.428C1013.03 665.897 1013.62 666.513 1014.06 667.276C1014.53 668.039 1014.76 669.007 1014.76 670.18C1014.76 672.468 1013.87 674.272 1012.08 675.592C1010.32 676.883 1007.88 677.528 1004.78 677.528ZM1041.89 677H1020.69V672.292L1030.72 663.536C1032.3 662.128 1033.52 660.793 1034.37 659.532C1035.25 658.271 1035.69 656.936 1035.69 655.528V655.044C1035.69 653.431 1035.25 652.199 1034.37 651.348C1033.49 650.468 1032.21 650.028 1030.54 650.028C1028.84 650.028 1027.52 650.483 1026.58 651.392C1025.67 652.301 1025.01 653.46 1024.6 654.868L1020.29 653.24C1020.58 652.272 1021.01 651.348 1021.57 650.468C1022.12 649.559 1022.83 648.752 1023.68 648.048C1024.56 647.344 1025.58 646.787 1026.76 646.376C1027.96 645.965 1029.34 645.76 1030.89 645.76C1032.48 645.76 1033.89 645.995 1035.12 646.464C1036.38 646.904 1037.44 647.52 1038.29 648.312C1039.14 649.104 1039.78 650.057 1040.22 651.172C1040.66 652.257 1040.88 653.46 1040.88 654.78C1040.88 656.012 1040.69 657.156 1040.31 658.212C1039.96 659.239 1039.44 660.236 1038.77 661.204C1038.12 662.143 1037.35 663.052 1036.44 663.932C1035.53 664.812 1034.53 665.692 1033.45 666.572L1026.01 672.82H1041.89V677Z" fill="black"/>
</g>
<g id="Group_27">
<path id="Vector 87" d="M1352.47 485.122C1351.72 484.775 1351.39 483.884 1351.74 483.132L1357.39 470.872C1357.73 470.119 1358.62 469.79 1359.38 470.137C1360.13 470.484 1360.46 471.375 1360.11 472.127L1355.09 483.025L1365.99 488.048C1366.74 488.395 1367.07 489.286 1366.72 490.038C1366.37 490.791 1365.48 491.12 1364.73 490.773L1352.47 485.122ZM1527.32 363.92C1485.16 418.2 1440.49 453.107 1353.62 485.167L1352.58 482.353C1438.97 450.47 1483.16 415.881 1524.95 362.08L1527.32 363.92Z" fill="#FC5C65"/>
<path id="Ellipse 1" d="M1332.82 579.606C1324.44 594.595 1304.27 602.194 1276.76 601.013C1249.47 599.842 1216.09 590.01 1183.19 571.631C1150.3 553.253 1124.42 529.976 1109.12 507.353C1093.69 484.544 1089.59 463.383 1097.96 448.394C1106.34 433.405 1126.51 425.806 1154.02 426.987C1181.3 428.158 1214.69 437.99 1247.59 456.369C1280.48 474.747 1306.36 498.024 1321.66 520.647C1337.09 543.456 1341.19 564.617 1332.82 579.606Z" stroke="#FC5C65" stroke-width="7"/>
<path id="Nested loops" d="M1468.16 306.028L1465.72 305.76L1451.44 282.09L1450.16 281.95L1449.44 280.116C1449.02 279.346 1448.63 278.773 1448.25 278.398C1447.91 277.997 1447.52 277.718 1447.09 277.56C1446.69 277.377 1446.18 277.251 1445.54 277.181L1445.7 275.778L1453.67 276.652L1466.52 298.077L1466.73 298.099L1468.16 285.053C1468.29 283.842 1468.32 282.843 1468.24 282.054C1468.16 281.237 1467.87 280.606 1467.36 280.161C1466.88 279.718 1466.03 279.43 1464.82 279.297L1464.98 277.894L1474.93 278.986L1474.77 280.389C1473.67 280.268 1472.82 280.384 1472.23 280.737C1471.66 281.065 1471.25 281.619 1471 282.399C1470.75 283.179 1470.55 284.202 1470.41 285.468L1468.16 306.028ZM1452.63 303.989L1442.72 302.901L1442.87 301.498C1443.98 301.619 1444.82 301.517 1445.42 301.192C1446.01 300.839 1446.45 300.247 1446.74 299.415C1447.03 298.555 1447.25 297.437 1447.4 296.061L1449.28 278.887L1451.55 279.136L1449.57 297.26C1449.41 298.636 1449.4 299.693 1449.51 300.429C1449.63 301.139 1449.95 301.647 1450.47 301.955C1450.99 302.264 1451.76 302.474 1452.78 302.585L1452.63 303.989ZM1482.85 307.723C1481.08 307.53 1479.56 306.972 1478.27 306.051C1477 305.132 1476.07 303.874 1475.46 302.275C1474.89 300.652 1474.72 298.74 1474.97 296.538C1475.22 294.226 1475.84 292.359 1476.83 290.936C1477.83 289.512 1479.05 288.505 1480.51 287.913C1481.97 287.321 1483.53 287.117 1485.21 287.301C1487.58 287.561 1489.39 288.554 1490.65 290.28C1491.91 292.005 1492.42 294.359 1492.17 297.341L1478.88 295.882L1479.02 294.226L1487.69 295.177C1487.78 294.101 1487.74 293.107 1487.56 292.196C1487.38 291.285 1487.03 290.537 1486.51 289.95C1486.02 289.367 1485.32 289.025 1484.41 288.926C1482.92 288.763 1481.75 289.247 1480.91 290.38C1480.08 291.515 1479.55 293.253 1479.29 295.592C1479.08 297.464 1479.19 299.035 1479.61 300.307C1480.03 301.551 1480.67 302.513 1481.55 303.194C1482.42 303.847 1483.44 304.237 1484.59 304.364C1485.69 304.484 1486.62 304.447 1487.36 304.25C1488.14 304.056 1488.8 303.753 1489.34 303.339C1489.92 302.929 1490.46 302.459 1490.96 301.929L1491.76 302.685C1491.29 303.413 1490.78 304.123 1490.23 304.815C1489.68 305.479 1489.06 306.052 1488.37 306.533C1487.7 307.017 1486.91 307.375 1485.99 307.609C1485.11 307.818 1484.06 307.856 1482.85 307.723ZM1494.02 308.908L1494.69 301.587L1496.02 301.732C1496.2 303.841 1496.66 305.382 1497.39 306.353C1498.12 307.324 1499.24 307.893 1500.75 308.059C1501.77 308.171 1502.62 308.055 1503.3 307.712C1504.01 307.344 1504.41 306.72 1504.51 305.839C1504.57 305.233 1504.51 304.711 1504.3 304.271C1504.13 303.834 1503.72 303.357 1503.08 302.841C1502.47 302.328 1501.55 301.684 1500.33 300.909C1499.15 300.168 1498.2 299.464 1497.47 298.799C1496.73 298.133 1496.2 297.406 1495.87 296.618C1495.56 295.832 1495.47 294.903 1495.59 293.83C1495.78 292.123 1496.52 290.882 1497.84 290.107C1499.18 289.307 1500.81 289.013 1502.74 289.224C1503.84 289.345 1504.72 289.581 1505.38 289.932C1506.03 290.283 1506.58 290.607 1507.02 290.906L1507.11 290.916L1507.91 290.043L1508.98 290.161L1508.4 296.615L1507.08 296.47C1506.83 294.464 1506.34 293.06 1505.62 292.257C1504.9 291.426 1503.93 290.943 1502.69 290.807C1501.75 290.704 1500.97 290.841 1500.35 291.218C1499.72 291.595 1499.36 292.196 1499.27 293.022C1499.18 293.848 1499.47 294.59 1500.15 295.25C1500.86 295.885 1501.99 296.704 1503.52 297.708C1504.69 298.477 1505.68 299.213 1506.49 299.915C1507.31 300.617 1507.91 301.366 1508.29 302.16C1508.68 302.955 1508.81 303.902 1508.69 305.003C1508.54 306.352 1508.08 307.401 1507.3 308.151C1506.55 308.905 1505.59 309.398 1504.42 309.632C1503.29 309.841 1502.07 309.875 1500.78 309.733C1499.57 309.6 1498.62 309.371 1497.93 309.045C1497.27 308.721 1496.67 308.419 1496.15 308.139L1496.02 308.125L1495.05 309.021L1494.02 308.908ZM1522.62 307.618L1523.4 308.539C1522.79 309.225 1522.2 309.814 1521.61 310.307C1521.06 310.776 1520.44 311.125 1519.74 311.355C1519.08 311.588 1518.21 311.646 1517.13 311.528C1515.7 311.371 1514.68 310.841 1514.05 309.936C1513.45 309.035 1513.26 307.58 1513.48 305.571L1514.84 293.268L1512.48 293.01L1512.61 291.813C1513.7 291.291 1514.7 290.551 1515.61 289.593C1516.56 288.638 1517.51 287.322 1518.47 285.645L1519.92 285.804L1519.26 291.749L1524.09 292.279L1523.88 294.26L1519.05 293.73L1517.84 304.753C1517.67 306.239 1517.7 307.287 1517.91 307.895C1518.12 308.476 1518.63 308.81 1519.43 308.897C1520.14 308.976 1520.71 308.899 1521.13 308.666C1521.57 308.436 1522.07 308.087 1522.62 307.618ZM1533.24 313.255C1531.48 313.061 1529.95 312.504 1528.66 311.582C1527.4 310.663 1526.46 309.405 1525.86 307.807C1525.29 306.184 1525.12 304.271 1525.36 302.069C1525.62 299.758 1526.24 297.89 1527.23 296.467C1528.22 295.044 1529.45 294.036 1530.9 293.444C1532.36 292.852 1533.93 292.648 1535.61 292.832C1537.98 293.092 1539.79 294.085 1541.05 295.811C1542.31 297.537 1542.81 299.89 1542.57 302.872L1529.28 301.413L1529.42 299.757L1538.09 300.709C1538.18 299.632 1538.13 298.638 1537.95 297.728C1537.78 296.817 1537.43 296.068 1536.91 295.482C1536.41 294.898 1535.71 294.557 1534.8 294.457C1533.32 294.294 1532.15 294.779 1531.3 295.911C1530.48 297.047 1529.94 298.784 1529.69 301.123C1529.48 302.995 1529.59 304.567 1530 305.838C1530.42 307.082 1531.07 308.044 1531.94 308.725C1532.82 309.378 1533.83 309.768 1534.99 309.895C1536.09 310.016 1537.01 309.978 1537.76 309.781C1538.53 309.587 1539.19 309.284 1539.74 308.87C1540.31 308.46 1540.85 307.99 1541.36 307.46L1542.15 308.216C1541.68 308.944 1541.17 309.654 1540.62 310.346C1540.08 311.01 1539.46 311.583 1538.76 312.064C1538.1 312.548 1537.31 312.907 1536.39 313.14C1535.5 313.349 1534.45 313.387 1533.24 313.255ZM1551.14 315.177C1549.57 315.005 1548.31 314.449 1547.36 313.508C1546.4 312.54 1545.75 311.312 1545.38 309.824C1545.01 308.335 1544.93 306.71 1545.12 304.948C1545.38 302.581 1546.01 300.631 1547.02 299.098C1548.05 297.568 1549.32 296.468 1550.85 295.8C1552.4 295.107 1554.04 294.855 1555.78 295.046C1556.41 295.115 1557.05 295.269 1557.69 295.506C1558.33 295.716 1558.96 296.021 1559.55 296.421L1559.72 296.439L1560.28 291.279C1560.38 290.37 1560.34 289.767 1560.15 289.467C1559.99 289.171 1559.51 288.979 1558.71 288.891C1558.51 288.87 1558.28 288.858 1558 288.855C1557.72 288.853 1557.58 288.851 1557.58 288.851L1557.73 287.489L1563.51 286.66L1565.03 286.828L1562.33 311.475C1562.21 312.521 1562.29 313.225 1562.56 313.589C1562.83 313.925 1563.35 314.135 1564.12 314.22L1564.98 314.315L1564.84 315.636L1558.8 315.851L1557.68 315.728L1557.99 312.962L1557.82 312.944C1556.98 313.547 1556 314.108 1554.88 314.627C1553.76 315.145 1552.52 315.328 1551.14 315.177ZM1553.63 312.275C1554.54 312.375 1555.31 312.334 1555.94 312.153C1556.61 311.947 1557.32 311.636 1558.09 311.219L1559.26 300.609C1559.15 299.79 1558.84 299.017 1558.3 298.289C1557.77 297.535 1556.89 297.09 1555.65 296.954C1554.11 296.785 1552.8 297.268 1551.73 298.404C1550.69 299.515 1550.03 301.364 1549.74 303.952C1549.44 306.704 1549.62 308.743 1550.28 310.069C1550.98 311.371 1552.09 312.106 1553.63 312.275ZM1586.85 318.721L1576.53 317.588L1576.68 316.267C1577.59 316.367 1578.26 316.357 1578.69 316.237C1579.12 316.089 1579.4 315.8 1579.53 315.369C1579.69 314.94 1579.81 314.355 1579.89 313.612L1582.14 293.135C1582.23 292.281 1582.11 291.752 1581.77 291.548C1581.46 291.347 1581.04 291.217 1580.52 291.16C1580.16 291.121 1579.86 291.101 1579.61 291.102C1579.36 291.102 1579.23 291.102 1579.23 291.102L1579.37 289.822L1585.26 289.048L1586.83 289.221L1584.11 314.033C1584.02 314.831 1584.02 315.458 1584.11 315.913C1584.2 316.341 1584.46 316.675 1584.88 316.916C1585.3 317.13 1586.01 317.291 1587 317.4L1586.85 318.721ZM1598.49 320.415C1595.49 320.086 1593.24 318.949 1591.76 317.003C1590.3 315.06 1589.76 312.396 1590.13 309.011C1590.35 307.029 1590.91 305.322 1591.82 303.89C1592.76 302.461 1593.99 301.398 1595.51 300.702C1597.04 300.006 1598.79 299.767 1600.77 299.984C1603.74 300.31 1605.94 301.443 1607.38 303.383C1608.84 305.298 1609.4 307.77 1609.07 310.797C1608.81 313.137 1608.21 315.062 1607.26 316.574C1606.32 318.058 1605.09 319.121 1603.57 319.762C1602.08 320.406 1600.39 320.624 1598.49 320.415ZM1598.85 318.658C1599.89 318.773 1600.79 318.593 1601.54 318.118C1602.31 317.646 1602.94 316.809 1603.4 315.607C1603.87 314.377 1604.22 312.689 1604.46 310.542C1604.74 308.01 1604.55 305.942 1603.89 304.337C1603.23 302.733 1602.06 301.838 1600.38 301.654C1598.89 301.491 1597.66 302.038 1596.69 303.296C1595.72 304.554 1595.09 306.463 1594.81 309.023C1594.46 312.188 1594.63 314.547 1595.33 316.099C1596.02 317.652 1597.19 318.505 1598.85 318.658ZM1620.18 322.796C1617.18 322.467 1614.93 321.329 1613.45 319.384C1611.99 317.441 1611.45 314.777 1611.82 311.392C1612.04 309.41 1612.6 307.703 1613.51 306.271C1614.45 304.842 1615.68 303.779 1617.2 303.083C1618.73 302.387 1620.48 302.147 1622.46 302.365C1625.43 302.691 1627.64 303.824 1629.07 305.764C1630.53 307.679 1631.09 310.15 1630.76 313.178C1630.5 315.517 1629.9 317.443 1628.96 318.955C1628.01 320.439 1626.78 321.502 1625.26 322.143C1623.77 322.787 1622.08 323.005 1620.18 322.796ZM1620.54 321.039C1621.58 321.154 1622.48 320.974 1623.23 320.499C1624 320.027 1624.63 319.19 1625.09 317.987C1625.56 316.758 1625.91 315.069 1626.15 312.923C1626.43 310.39 1626.24 308.322 1625.58 306.718C1624.92 305.113 1623.75 304.219 1622.07 304.035C1620.58 303.872 1619.35 304.419 1618.38 305.677C1617.41 306.935 1616.78 308.844 1616.5 311.404C1616.15 314.569 1616.32 316.928 1617.02 318.48C1617.71 320.032 1618.88 320.885 1620.54 321.039ZM1642.07 333.973L1630.84 332.741L1630.99 331.42C1632.28 331.562 1633.13 331.446 1633.53 331.072C1633.94 330.699 1634.2 329.934 1634.33 328.778L1636.54 308.631C1636.63 307.833 1636.59 307.272 1636.43 306.948C1636.3 306.6 1635.89 306.388 1635.21 306.312C1634.93 306.282 1634.64 306.264 1634.33 306.258C1634.03 306.253 1633.88 306.25 1633.88 306.25L1634.03 304.887L1639.73 304.343L1641.17 304.502L1640.79 307.97L1640.95 307.988C1642.1 306.971 1643.21 306.216 1644.3 305.722C1645.38 305.201 1646.55 305.008 1647.79 305.144C1649.16 305.295 1650.32 305.798 1651.25 306.653C1652.19 307.508 1652.87 308.655 1653.3 310.095C1653.73 311.534 1653.83 313.218 1653.62 315.144C1653.37 317.484 1652.73 319.447 1651.72 321.036C1650.74 322.6 1649.52 323.76 1648.04 324.517C1646.57 325.247 1645.01 325.521 1643.35 325.34C1642.56 325.252 1641.82 325.088 1641.15 324.848C1640.48 324.607 1639.87 324.247 1639.31 323.768L1639.14 323.749L1638.57 328.951C1638.47 329.832 1638.51 330.518 1638.68 331.01C1638.85 331.503 1639.21 331.863 1639.77 332.091C1640.33 332.32 1641.15 332.493 1642.22 332.611L1642.07 333.973ZM1643.35 323.501C1644.7 323.649 1645.88 323.124 1646.9 321.927C1647.93 320.703 1648.6 318.66 1648.91 315.797C1649.19 313.265 1649.01 311.379 1648.37 310.138C1647.75 308.901 1646.75 308.206 1645.38 308.055C1644.36 307.944 1643.43 308.121 1642.6 308.586C1641.77 309.025 1641.13 309.469 1640.66 309.919L1639.49 320.529C1639.71 320.832 1639.99 321.21 1640.33 321.666C1640.67 322.093 1641.09 322.487 1641.58 322.847C1642.07 323.207 1642.66 323.425 1643.35 323.501ZM1655.49 326.63L1656.16 319.309L1657.49 319.454C1657.67 321.563 1658.13 323.104 1658.86 324.075C1659.59 325.046 1660.71 325.615 1662.22 325.781C1663.24 325.893 1664.09 325.777 1664.77 325.434C1665.48 325.066 1665.88 324.442 1665.98 323.561C1666.04 322.956 1665.97 322.433 1665.77 321.993C1665.6 321.556 1665.19 321.079 1664.55 320.563C1663.94 320.051 1663.02 319.407 1661.8 318.632C1660.62 317.89 1659.67 317.187 1658.94 316.521C1658.2 315.855 1657.67 315.128 1657.34 314.34C1657.03 313.555 1656.94 312.625 1657.06 311.552C1657.24 309.845 1657.99 308.604 1659.3 307.829C1660.65 307.029 1662.28 306.735 1664.21 306.947C1665.31 307.067 1666.19 307.303 1666.84 307.654C1667.5 308.005 1668.05 308.33 1668.49 308.629L1668.57 308.638L1669.38 307.765L1670.45 307.883L1669.87 314.337L1668.55 314.192C1668.3 312.186 1667.81 310.782 1667.09 309.979C1666.37 309.148 1665.4 308.665 1664.16 308.529C1663.22 308.426 1662.44 308.563 1661.81 308.94C1661.19 309.317 1660.83 309.919 1660.74 310.744C1660.65 311.57 1660.94 312.313 1661.62 312.972C1662.33 313.607 1663.45 314.427 1664.99 315.431C1666.16 316.199 1667.15 316.935 1667.96 317.637C1668.78 318.339 1669.38 319.088 1669.76 319.882C1670.15 320.677 1670.28 321.624 1670.16 322.725C1670.01 324.074 1669.55 325.123 1668.77 325.873C1668.02 326.627 1667.06 327.12 1665.89 327.354C1664.76 327.564 1663.54 327.597 1662.25 327.455C1661.04 327.322 1660.09 327.093 1659.4 326.767C1658.74 326.443 1658.14 326.142 1657.62 325.861L1657.49 325.847L1656.52 326.743L1655.49 326.63Z" fill="#B53239"/>
</g>
<g id="Group 25">
<path id="exp(n):_2" d="M229.728 358.528C227.909 358.528 226.296 358.249 224.888 357.692C223.48 357.135 222.292 356.343 221.324 355.316C220.385 354.289 219.667 353.057 219.168 351.62C218.669 350.153 218.42 348.511 218.42 346.692C218.42 344.844 218.669 343.187 219.168 341.72C219.696 340.253 220.429 339.007 221.368 337.98C222.307 336.953 223.436 336.161 224.756 335.604C226.105 335.047 227.616 334.768 229.288 334.768C230.931 334.768 232.412 335.047 233.732 335.604C235.052 336.132 236.167 336.895 237.076 337.892C238.015 338.889 238.733 340.092 239.232 341.5C239.731 342.908 239.98 344.463 239.98 346.164V348.012H224.052V348.584C224.052 350.227 224.565 351.561 225.592 352.588C226.619 353.585 228.056 354.084 229.904 354.084C231.312 354.084 232.515 353.805 233.512 353.248C234.539 352.661 235.389 351.899 236.064 350.96L239.276 354.172C238.455 355.375 237.252 356.401 235.668 357.252C234.113 358.103 232.133 358.528 229.728 358.528ZM229.332 338.904C227.748 338.904 226.472 339.403 225.504 340.4C224.536 341.397 224.052 342.717 224.052 344.36V344.668H234.348V344.272C234.348 342.629 233.893 341.324 232.984 340.356C232.104 339.388 230.887 338.904 229.332 338.904ZM243.879 358L252.371 346.472L244.363 335.296H250.831L253.559 339.3L255.671 342.468H255.979L258.091 339.3L260.819 335.296H266.803L258.795 346.208L267.287 358H260.775L257.651 353.424L255.495 350.212H255.187L253.031 353.424L249.907 358H243.879ZM271.802 335.296H277.434V339.3H277.742C278.358 337.921 279.194 336.821 280.25 336C281.335 335.179 282.758 334.768 284.518 334.768C285.808 334.768 286.982 335.017 288.038 335.516C289.123 335.985 290.047 336.719 290.81 337.716C291.572 338.684 292.159 339.916 292.57 341.412C292.98 342.908 293.186 344.653 293.186 346.648C293.186 348.643 292.98 350.388 292.57 351.884C292.159 353.38 291.572 354.627 290.81 355.624C290.047 356.592 289.123 357.325 288.038 357.824C286.982 358.293 285.808 358.528 284.518 358.528C282.758 358.528 281.335 358.117 280.25 357.296C279.194 356.475 278.358 355.375 277.742 353.996H277.434V366.8H271.802V335.296ZM282.142 354.04C283.784 354.04 285.046 353.541 285.926 352.544C286.835 351.547 287.29 350.183 287.29 348.452V344.844C287.29 343.113 286.835 341.749 285.926 340.752C285.046 339.755 283.784 339.256 282.142 339.256C280.851 339.256 279.736 339.579 278.798 340.224C277.888 340.84 277.434 341.793 277.434 343.084V350.212C277.434 351.503 277.888 352.471 278.798 353.116C279.736 353.732 280.851 354.04 282.142 354.04ZM303.2 344.316C303.2 342.175 303.435 340.121 303.904 338.156C304.403 336.161 305.063 334.313 305.884 332.612C306.735 330.911 307.718 329.385 308.832 328.036C309.947 326.657 311.12 325.499 312.352 324.56H317.984C316.664 325.499 315.403 326.599 314.2 327.86C312.998 329.121 311.942 330.515 311.032 332.04C310.123 333.536 309.39 335.149 308.832 336.88C308.304 338.581 308.04 340.356 308.04 342.204V346.428C308.04 348.276 308.304 350.065 308.832 351.796C309.39 353.497 310.123 355.111 311.032 356.636C311.942 358.132 312.998 359.511 314.2 360.772C315.403 362.033 316.664 363.133 317.984 364.072H312.352C311.12 363.163 309.947 362.019 308.832 360.64C307.718 359.261 306.735 357.721 305.884 356.02C305.063 354.319 304.403 352.485 303.904 350.52C303.435 348.525 303.2 346.457 303.2 344.316ZM324.831 358V335.296H330.463V339.3H330.683C331.182 338.068 331.945 337.012 332.971 336.132C334.027 335.223 335.479 334.768 337.327 334.768C339.557 334.768 341.361 335.516 342.739 337.012C344.147 338.479 344.851 340.591 344.851 343.348V358H339.219V344.14C339.219 340.855 337.797 339.212 334.951 339.212C334.365 339.212 333.807 339.285 333.279 339.432C332.751 339.579 332.267 339.813 331.827 340.136C331.417 340.429 331.079 340.796 330.815 341.236C330.581 341.676 330.463 342.204 330.463 342.82V358H324.831ZM366.262 344.316C366.262 346.457 366.013 348.525 365.514 350.52C365.045 352.485 364.385 354.319 363.534 356.02C362.713 357.721 361.745 359.261 360.63 360.64C359.515 362.019 358.342 363.163 357.11 364.072H351.478C352.798 363.133 354.059 362.033 355.262 360.772C356.465 359.511 357.521 358.132 358.43 356.636C359.339 355.111 360.058 353.497 360.586 351.796C361.143 350.065 361.422 348.276 361.422 346.428V342.204C361.422 340.356 361.143 338.581 360.586 336.88C360.058 335.149 359.339 333.536 358.43 332.04C357.521 330.515 356.465 329.121 355.262 327.86C354.059 326.599 352.798 325.499 351.478 324.56H357.11C358.342 325.499 359.515 326.657 360.63 328.036C361.745 329.385 362.713 330.911 363.534 332.612C364.385 334.313 365.045 336.161 365.514 338.156C366.013 340.121 366.262 342.175 366.262 344.316ZM387.497 358.484C385.972 358.484 384.886 358.161 384.241 357.516C383.596 356.871 383.273 356.079 383.273 355.14V353.82C383.273 352.881 383.596 352.089 384.241 351.444C384.886 350.799 385.972 350.476 387.497 350.476C389.022 350.476 390.108 350.799 390.753 351.444C391.398 352.089 391.721 352.881 391.721 353.82V355.14C391.721 356.079 391.398 356.871 390.753 357.516C390.108 358.161 389.022 358.484 387.497 358.484ZM387.497 342.864C385.972 342.864 384.886 342.541 384.241 341.896C383.596 341.251 383.273 340.459 383.273 339.52V338.2C383.273 337.261 383.596 336.469 384.241 335.824C384.886 335.179 385.972 334.856 387.497 334.856C389.022 334.856 390.108 335.179 390.753 335.824C391.398 336.469 391.721 337.261 391.721 338.2V339.52C391.721 340.459 391.398 341.251 390.753 341.896C390.108 342.541 389.022 342.864 387.497 342.864Z" fill="black"/>
<g id="for i in 1..n:_2">
<path d="M287.24 502.345H294.092V488.224H286.824V484.569H294.092V480.707C294.092 479.101 294.535 477.799 295.421 476.803C296.307 475.778 297.692 475.266 299.575 475.266H306.801V478.921H298.619V484.569H306.801V488.224H298.619V502.345H305.846V506H287.24V502.345ZM321.363 506.498C319.785 506.498 318.359 506.235 317.085 505.709C315.839 505.183 314.773 504.436 313.887 503.467C313.029 502.497 312.364 501.321 311.894 499.936C311.423 498.552 311.188 497.001 311.188 495.285C311.188 493.568 311.423 492.017 311.894 490.633C312.364 489.249 313.029 488.072 313.887 487.103C314.773 486.134 315.839 485.386 317.085 484.86C318.359 484.334 319.785 484.071 321.363 484.071C322.941 484.071 324.353 484.334 325.599 484.86C326.873 485.386 327.939 486.134 328.797 487.103C329.683 488.072 330.362 489.249 330.832 490.633C331.303 492.017 331.538 493.568 331.538 495.285C331.538 497.001 331.303 498.552 330.832 499.936C330.362 501.321 329.683 502.497 328.797 503.467C327.939 504.436 326.873 505.183 325.599 505.709C324.353 506.235 322.941 506.498 321.363 506.498ZM321.363 502.927C323.024 502.927 324.34 502.428 325.309 501.431C326.305 500.407 326.804 498.898 326.804 496.904V493.665C326.804 491.671 326.305 490.176 325.309 489.179C324.34 488.155 323.024 487.643 321.363 487.643C319.702 487.643 318.373 488.155 317.376 489.179C316.407 490.176 315.922 491.671 315.922 493.665V496.904C315.922 498.898 316.407 500.407 317.376 501.431C318.373 502.428 319.702 502.927 321.363 502.927ZM336.963 502.345H342.653V488.224H336.963V484.569H347.18V490.259H347.429C347.623 489.512 347.9 488.792 348.26 488.099C348.62 487.407 349.077 486.812 349.63 486.314C350.184 485.788 350.863 485.372 351.665 485.068C352.468 484.735 353.41 484.569 354.49 484.569H357.065V488.889H352.828C351.167 488.889 349.81 489.387 348.758 490.384C347.706 491.353 347.18 492.668 347.18 494.329V502.345H354.947V506H336.963V502.345Z" fill="#3867D6"/>
<path d="M397.402 479.835C396.433 479.835 395.754 479.641 395.367 479.253C394.979 478.838 394.785 478.326 394.785 477.716V477.052C394.785 476.443 394.979 475.944 395.367 475.557C395.754 475.141 396.433 474.934 397.402 474.934C398.371 474.934 399.049 475.141 399.437 475.557C399.825 475.944 400.018 476.443 400.018 477.052V477.716C400.018 478.326 399.825 478.838 399.437 479.253C399.049 479.641 398.371 479.835 397.402 479.835ZM388.016 503.176H395.741V487.393H388.016V484.569H399.063V503.176H406.29V506H388.016V503.176ZM447.208 479.835C446.239 479.835 445.561 479.641 445.173 479.253C444.786 478.838 444.592 478.326 444.592 477.716V477.052C444.592 476.443 444.786 475.944 445.173 475.557C445.561 475.141 446.239 474.934 447.208 474.934C448.177 474.934 448.856 475.141 449.243 475.557C449.631 475.944 449.825 476.443 449.825 477.052V477.716C449.825 478.326 449.631 478.838 449.243 479.253C448.856 479.641 448.177 479.835 447.208 479.835ZM437.822 503.176H445.547V487.393H437.822V484.569H448.87V503.176H456.096V506H437.822V503.176ZM462.393 506V484.569H465.716V488.058H465.882C466.103 487.532 466.38 487.033 466.712 486.563C467.045 486.064 467.446 485.635 467.917 485.275C468.415 484.915 468.997 484.625 469.661 484.403C470.326 484.182 471.101 484.071 471.987 484.071C474.23 484.071 476.03 484.791 477.386 486.231C478.743 487.643 479.421 489.65 479.421 492.253V506H476.099V492.834C476.099 490.868 475.67 489.415 474.811 488.473C473.953 487.504 472.693 487.02 471.032 487.02C470.367 487.02 469.717 487.103 469.08 487.269C468.443 487.435 467.875 487.684 467.377 488.016C466.879 488.349 466.477 488.778 466.173 489.304C465.868 489.83 465.716 490.439 465.716 491.131V506H462.393ZM511.66 506V502.968H519.966V479.585H519.675L512.366 486.397L510.331 484.195L518.014 477.01H523.455V502.968H531.097V506H511.66ZM545.492 506.374C544.357 506.374 543.554 506.138 543.084 505.668C542.641 505.197 542.419 504.602 542.419 503.882V503.134C542.419 502.414 542.641 501.819 543.084 501.348C543.554 500.878 544.357 500.642 545.492 500.642C546.628 500.642 547.417 500.878 547.86 501.348C548.33 501.819 548.566 502.414 548.566 503.134V503.882C548.566 504.602 548.33 505.197 547.86 505.668C547.417 506.138 546.628 506.374 545.492 506.374ZM570.396 506.374C569.26 506.374 568.457 506.138 567.987 505.668C567.544 505.197 567.322 504.602 567.322 503.882V503.134C567.322 502.414 567.544 501.819 567.987 501.348C568.457 500.878 569.26 500.642 570.396 500.642C571.531 500.642 572.32 500.878 572.763 501.348C573.234 501.819 573.469 502.414 573.469 503.134V503.882C573.469 504.602 573.234 505.197 572.763 505.668C572.32 506.138 571.531 506.374 570.396 506.374ZM586.909 506V484.569H590.232V488.058H590.398C590.62 487.532 590.896 487.033 591.229 486.563C591.561 486.064 591.962 485.635 592.433 485.275C592.932 484.915 593.513 484.625 594.178 484.403C594.842 484.182 595.617 484.071 596.503 484.071C598.746 484.071 600.546 484.791 601.903 486.231C603.259 487.643 603.938 489.65 603.938 492.253V506H600.615V492.834C600.615 490.868 600.186 489.415 599.328 488.473C598.469 487.504 597.209 487.02 595.548 487.02C594.884 487.02 594.233 487.103 593.596 487.269C592.959 487.435 592.392 487.684 591.893 488.016C591.395 488.349 590.993 488.778 590.689 489.304C590.384 489.83 590.232 490.439 590.232 491.131V506H586.909ZM620.202 506.374C619.067 506.374 618.264 506.138 617.793 505.668C617.35 505.197 617.129 504.602 617.129 503.882V503.134C617.129 502.414 617.35 501.819 617.793 501.348C618.264 500.878 619.067 500.642 620.202 500.642C621.337 500.642 622.127 500.878 622.57 501.348C623.04 501.819 623.276 502.414 623.276 503.134V503.882C623.276 504.602 623.04 505.197 622.57 505.668C622.127 506.138 621.337 506.374 620.202 506.374ZM620.202 489.927C619.067 489.927 618.264 489.692 617.793 489.221C617.35 488.75 617.129 488.155 617.129 487.435V486.687C617.129 485.967 617.35 485.372 617.793 484.901C618.264 484.431 619.067 484.195 620.202 484.195C621.337 484.195 622.127 484.431 622.57 484.901C623.04 485.372 623.276 485.967 623.276 486.687V487.435C623.276 488.155 623.04 488.75 622.57 489.221C622.127 489.692 621.337 489.927 620.202 489.927Z" fill="#595959"/>
</g>
<path id="power = 2 * power" d="M357.18 562.296H360.7V565.992H360.876C362.343 563.176 364.675 561.768 367.872 561.768C370.659 561.768 372.829 562.809 374.384 564.892C375.968 566.975 376.76 569.893 376.76 573.648C376.76 577.403 375.968 580.321 374.384 582.404C372.829 584.487 370.659 585.528 367.872 585.528C364.675 585.528 362.343 584.12 360.876 581.304H360.7V593.8H357.18V562.296ZM366.508 582.404C368.561 582.404 370.145 581.788 371.26 580.556C372.404 579.295 372.976 577.637 372.976 575.584V571.712C372.976 569.659 372.404 568.016 371.26 566.784C370.145 565.523 368.561 564.892 366.508 564.892C365.716 564.892 364.968 564.995 364.264 565.2C363.56 565.405 362.944 565.713 362.416 566.124C361.888 566.505 361.463 566.989 361.14 567.576C360.847 568.133 360.7 568.793 360.7 569.556V577.74C360.7 578.503 360.847 579.177 361.14 579.764C361.463 580.321 361.888 580.805 362.416 581.216C362.944 581.597 363.56 581.891 364.264 582.096C364.968 582.301 365.716 582.404 366.508 582.404ZM392.583 585.528C390.999 585.528 389.561 585.249 388.271 584.692C387.009 584.135 385.924 583.343 385.015 582.316C384.135 581.26 383.46 580.013 382.991 578.576C382.521 577.109 382.287 575.467 382.287 573.648C382.287 571.859 382.521 570.231 382.991 568.764C383.46 567.297 384.135 566.051 385.015 565.024C385.924 563.968 387.009 563.161 388.271 562.604C389.561 562.047 390.999 561.768 392.583 561.768C394.167 561.768 395.589 562.047 396.851 562.604C398.141 563.161 399.227 563.968 400.107 565.024C401.016 566.051 401.705 567.297 402.175 568.764C402.644 570.231 402.879 571.859 402.879 573.648C402.879 575.467 402.644 577.109 402.175 578.576C401.705 580.013 401.016 581.26 400.107 582.316C399.227 583.343 398.141 584.135 396.851 584.692C395.589 585.249 394.167 585.528 392.583 585.528ZM392.583 582.492C394.548 582.492 396.132 581.905 397.335 580.732C398.537 579.559 399.139 577.74 399.139 575.276V572.02C399.139 569.556 398.537 567.737 397.335 566.564C396.132 565.391 394.548 564.804 392.583 564.804C390.617 564.804 389.033 565.391 387.831 566.564C386.628 567.737 386.027 569.556 386.027 572.02V575.276C386.027 577.74 386.628 579.559 387.831 580.732C389.033 581.905 390.617 582.492 392.583 582.492ZM407.086 562.296H410.21L412.806 581.92H413.202L417.074 562.296H420.946L424.818 581.92H425.214L427.81 562.296H430.846L427.37 585H422.794L419.186 565.992H418.834L415.138 585H410.562L407.086 562.296ZM445.744 585.528C444.102 585.528 442.62 585.249 441.3 584.692C440.01 584.135 438.895 583.343 437.956 582.316C437.047 581.26 436.343 580.013 435.844 578.576C435.346 577.109 435.096 575.481 435.096 573.692C435.096 571.873 435.346 570.231 435.844 568.764C436.372 567.297 437.091 566.051 438 565.024C438.91 563.968 439.995 563.161 441.256 562.604C442.547 562.047 443.97 561.768 445.524 561.768C447.05 561.768 448.428 562.047 449.66 562.604C450.922 563.161 451.992 563.939 452.872 564.936C453.752 565.904 454.427 567.063 454.896 568.412C455.366 569.761 455.6 571.243 455.6 572.856V574.528H438.792V575.584C438.792 576.581 438.954 577.505 439.276 578.356C439.599 579.207 440.054 579.94 440.64 580.556C441.256 581.172 441.99 581.656 442.84 582.008C443.72 582.331 444.688 582.492 445.744 582.492C447.27 582.492 448.59 582.14 449.704 581.436C450.819 580.732 451.67 579.764 452.256 578.532L454.852 580.292C454.178 581.817 453.048 583.079 451.464 584.076C449.91 585.044 448.003 585.528 445.744 585.528ZM445.524 564.672C444.556 564.672 443.662 564.848 442.84 565.2C442.019 565.552 441.3 566.036 440.684 566.652C440.098 567.268 439.628 568.001 439.276 568.852C438.954 569.673 438.792 570.583 438.792 571.58V571.888H451.816V571.404C451.816 570.407 451.655 569.497 451.332 568.676C451.039 567.855 450.614 567.151 450.056 566.564C449.528 565.948 448.868 565.479 448.076 565.156C447.314 564.833 446.463 564.672 445.524 564.672ZM461.919 582.008H468.563V565.288H461.919V562.296H472.083V568.016H472.303C472.773 566.227 473.653 564.833 474.943 563.836C476.263 562.809 477.935 562.296 479.959 562.296H483.127V565.816H478.859C476.835 565.816 475.193 566.403 473.931 567.576C472.699 568.749 472.083 570.289 472.083 572.196V582.008H480.883V585H461.919V582.008ZM514.025 568.632V565.64H534.969V568.632H514.025ZM514.025 577.432V574.44H534.969V577.432H514.025ZM587.691 585H567.187V581.216L577.439 571.976C578.935 570.627 580.167 569.248 581.135 567.84C582.103 566.403 582.587 564.892 582.587 563.308V562.78C582.587 560.932 582.103 559.509 581.135 558.512C580.167 557.485 578.729 556.972 576.823 556.972C574.945 556.972 573.493 557.456 572.467 558.424C571.469 559.363 570.721 560.624 570.223 562.208L566.923 560.976C567.216 560.067 567.612 559.187 568.111 558.336C568.639 557.456 569.299 556.679 570.091 556.004C570.883 555.329 571.836 554.787 572.951 554.376C574.095 553.965 575.415 553.76 576.911 553.76C578.436 553.76 579.785 553.98 580.959 554.42C582.161 554.86 583.159 555.476 583.951 556.268C584.772 557.06 585.388 557.999 585.799 559.084C586.239 560.169 586.459 561.357 586.459 562.648C586.459 563.821 586.283 564.921 585.931 565.948C585.608 566.975 585.139 567.957 584.523 568.896C583.936 569.835 583.217 570.759 582.367 571.668C581.545 572.548 580.621 573.428 579.595 574.308L571.015 581.788H587.691V585ZM624.528 581.832L622.02 579.984L627.476 572.504L618.72 569.6L619.644 566.696L628.4 569.512V560.008H631.656V569.512L640.412 566.696L641.336 569.6L632.58 572.504L638.036 579.984L635.528 581.832L630.028 574.264L624.528 581.832ZM673.774 562.296H677.294V565.992H677.47C678.936 563.176 681.268 561.768 684.466 561.768C687.252 561.768 689.423 562.809 690.978 564.892C692.562 566.975 693.354 569.893 693.354 573.648C693.354 577.403 692.562 580.321 690.978 582.404C689.423 584.487 687.252 585.528 684.466 585.528C681.268 585.528 678.936 584.12 677.47 581.304H677.294V593.8H673.774V562.296ZM683.102 582.404C685.155 582.404 686.739 581.788 687.854 580.556C688.998 579.295 689.57 577.637 689.57 575.584V571.712C689.57 569.659 688.998 568.016 687.854 566.784C686.739 565.523 685.155 564.892 683.102 564.892C682.31 564.892 681.562 564.995 680.858 565.2C680.154 565.405 679.538 565.713 679.01 566.124C678.482 566.505 678.056 566.989 677.734 567.576C677.44 568.133 677.294 568.793 677.294 569.556V577.74C677.294 578.503 677.44 579.177 677.734 579.764C678.056 580.321 678.482 580.805 679.01 581.216C679.538 581.597 680.154 581.891 680.858 582.096C681.562 582.301 682.31 582.404 683.102 582.404ZM709.177 585.528C707.593 585.528 706.155 585.249 704.865 584.692C703.603 584.135 702.518 583.343 701.609 582.316C700.729 581.26 700.054 580.013 699.585 578.576C699.115 577.109 698.881 575.467 698.881 573.648C698.881 571.859 699.115 570.231 699.585 568.764C700.054 567.297 700.729 566.051 701.609 565.024C702.518 563.968 703.603 563.161 704.865 562.604C706.155 562.047 707.593 561.768 709.177 561.768C710.761 561.768 712.183 562.047 713.445 562.604C714.735 563.161 715.821 563.968 716.701 565.024C717.61 566.051 718.299 567.297 718.769 568.764C719.238 570.231 719.473 571.859 719.473 573.648C719.473 575.467 719.238 577.109 718.769 578.576C718.299 580.013 717.61 581.26 716.701 582.316C715.821 583.343 714.735 584.135 713.445 584.692C712.183 585.249 710.761 585.528 709.177 585.528ZM709.177 582.492C711.142 582.492 712.726 581.905 713.929 580.732C715.131 579.559 715.733 577.74 715.733 575.276V572.02C715.733 569.556 715.131 567.737 713.929 566.564C712.726 565.391 711.142 564.804 709.177 564.804C707.211 564.804 705.627 565.391 704.425 566.564C703.222 567.737 702.621 569.556 702.621 572.02V575.276C702.621 577.74 703.222 579.559 704.425 580.732C705.627 581.905 707.211 582.492 709.177 582.492ZM723.679 562.296H726.803L729.399 581.92H729.795L733.667 562.296H737.539L741.411 581.92H741.807L744.403 562.296H747.439L743.963 585H739.387L735.779 565.992H735.427L731.731 585H727.155L723.679 562.296ZM762.338 585.528C760.696 585.528 759.214 585.249 757.894 584.692C756.604 584.135 755.489 583.343 754.55 582.316C753.641 581.26 752.937 580.013 752.438 578.576C751.94 577.109 751.69 575.481 751.69 573.692C751.69 571.873 751.94 570.231 752.438 568.764C752.966 567.297 753.685 566.051 754.594 565.024C755.504 563.968 756.589 563.161 757.85 562.604C759.141 562.047 760.564 561.768 762.118 561.768C763.644 561.768 765.022 562.047 766.254 562.604C767.516 563.161 768.586 563.939 769.466 564.936C770.346 565.904 771.021 567.063 771.49 568.412C771.96 569.761 772.194 571.243 772.194 572.856V574.528H755.386V575.584C755.386 576.581 755.548 577.505 755.87 578.356C756.193 579.207 756.648 579.94 757.234 580.556C757.85 581.172 758.584 581.656 759.434 582.008C760.314 582.331 761.282 582.492 762.338 582.492C763.864 582.492 765.184 582.14 766.298 581.436C767.413 580.732 768.264 579.764 768.85 578.532L771.446 580.292C770.772 581.817 769.642 583.079 768.058 584.076C766.504 585.044 764.597 585.528 762.338 585.528ZM762.118 564.672C761.15 564.672 760.256 564.848 759.434 565.2C758.613 565.552 757.894 566.036 757.278 566.652C756.692 567.268 756.222 568.001 755.87 568.852C755.548 569.673 755.386 570.583 755.386 571.58V571.888H768.41V571.404C768.41 570.407 768.249 569.497 767.926 568.676C767.633 567.855 767.208 567.151 766.65 566.564C766.122 565.948 765.462 565.479 764.67 565.156C763.908 564.833 763.057 564.672 762.118 564.672ZM778.513 582.008H785.157V565.288H778.513V562.296H788.677V568.016H788.897C789.366 566.227 790.246 564.833 791.537 563.836C792.857 562.809 794.529 562.296 796.553 562.296H799.721V565.816H795.453C793.429 565.816 791.786 566.403 790.525 567.576C789.293 568.749 788.677 570.289 788.677 572.196V582.008H797.477V585H778.513V582.008Z" fill="#595959"/>
<path id="power = 2_2" d="M287.946 411.569H291.268V415.058H291.434C292.819 412.4 295.02 411.071 298.038 411.071C300.668 411.071 302.717 412.054 304.185 414.02C305.68 415.986 306.428 418.741 306.428 422.285C306.428 425.829 305.68 428.584 304.185 430.55C302.717 432.515 300.668 433.498 298.038 433.498C295.02 433.498 292.819 432.169 291.434 429.511H291.268V441.306H287.946V411.569ZM296.75 430.55C298.689 430.55 300.184 429.968 301.236 428.805C302.316 427.615 302.856 426.05 302.856 424.112V420.457C302.856 418.519 302.316 416.968 301.236 415.806C300.184 414.615 298.689 414.02 296.75 414.02C296.003 414.02 295.297 414.117 294.632 414.31C293.968 414.504 293.386 414.795 292.888 415.183C292.39 415.543 291.988 415.999 291.684 416.553C291.407 417.079 291.268 417.702 291.268 418.422V426.147C291.268 426.867 291.407 427.504 291.684 428.058C291.988 428.584 292.39 429.041 292.888 429.428C293.386 429.788 293.968 430.065 294.632 430.259C295.297 430.453 296.003 430.55 296.75 430.55ZM321.363 433.498C319.868 433.498 318.511 433.235 317.293 432.709C316.102 432.183 315.078 431.436 314.219 430.467C313.389 429.47 312.752 428.293 312.309 426.936C311.866 425.552 311.644 424.001 311.644 422.285C311.644 420.596 311.866 419.059 312.309 417.675C312.752 416.29 313.389 415.113 314.219 414.144C315.078 413.147 316.102 412.386 317.293 411.86C318.511 411.334 319.868 411.071 321.363 411.071C322.858 411.071 324.201 411.334 325.392 411.86C326.61 412.386 327.634 413.147 328.465 414.144C329.323 415.113 329.974 416.29 330.417 417.675C330.86 419.059 331.082 420.596 331.082 422.285C331.082 424.001 330.86 425.552 330.417 426.936C329.974 428.293 329.323 429.47 328.465 430.467C327.634 431.436 326.61 432.183 325.392 432.709C324.201 433.235 322.858 433.498 321.363 433.498ZM321.363 430.633C323.218 430.633 324.713 430.079 325.849 428.971C326.984 427.864 327.551 426.147 327.551 423.821V420.748C327.551 418.422 326.984 416.705 325.849 415.598C324.713 414.49 323.218 413.937 321.363 413.937C319.508 413.937 318.013 414.49 316.878 415.598C315.742 416.705 315.175 418.422 315.175 420.748V423.821C315.175 426.147 315.742 427.864 316.878 428.971C318.013 430.079 319.508 430.633 321.363 430.633ZM335.053 411.569H338.001L340.452 430.093H340.826L344.48 411.569H348.135L351.79 430.093H352.164L354.614 411.569H357.48L354.199 433H349.88L346.474 415.058H346.142L342.653 433H338.334L335.053 411.569ZM371.543 433.498C369.993 433.498 368.595 433.235 367.349 432.709C366.13 432.183 365.078 431.436 364.192 430.467C363.334 429.47 362.669 428.293 362.199 426.936C361.728 425.552 361.492 424.015 361.492 422.326C361.492 420.609 361.728 419.059 362.199 417.675C362.697 416.29 363.375 415.113 364.234 414.144C365.092 413.147 366.116 412.386 367.307 411.86C368.525 411.334 369.868 411.071 371.336 411.071C372.775 411.071 374.077 411.334 375.24 411.86C376.43 412.386 377.441 413.12 378.272 414.061C379.102 414.975 379.739 416.069 380.182 417.342C380.625 418.616 380.847 420.014 380.847 421.537V423.115H364.981V424.112C364.981 425.053 365.133 425.926 365.438 426.729C365.743 427.532 366.172 428.224 366.726 428.805C367.307 429.387 367.999 429.844 368.802 430.176C369.633 430.48 370.547 430.633 371.543 430.633C372.983 430.633 374.229 430.3 375.281 429.636C376.333 428.971 377.136 428.058 377.69 426.895L380.141 428.556C379.504 429.996 378.438 431.186 376.943 432.128C375.475 433.042 373.675 433.498 371.543 433.498ZM371.336 413.812C370.422 413.812 369.577 413.978 368.802 414.31C368.027 414.643 367.349 415.099 366.767 415.681C366.213 416.262 365.77 416.955 365.438 417.758C365.133 418.533 364.981 419.391 364.981 420.333V420.623H377.275V420.166C377.275 419.225 377.123 418.367 376.818 417.591C376.541 416.816 376.14 416.152 375.614 415.598C375.115 415.016 374.492 414.573 373.745 414.269C373.025 413.964 372.222 413.812 371.336 413.812ZM386.811 430.176H393.082V414.393H386.811V411.569H396.405V416.968H396.613C397.056 415.279 397.886 413.964 399.105 413.023C400.351 412.054 401.929 411.569 403.839 411.569H406.83V414.892H402.801C400.891 414.892 399.34 415.446 398.149 416.553C396.987 417.661 396.405 419.114 396.405 420.914V430.176H404.712V433H386.811V430.176ZM435.995 417.55V414.726H455.764V417.55H435.995ZM435.995 425.856V423.032H455.764V425.856H435.995ZM505.529 433H486.175V429.428L495.852 420.706C497.264 419.433 498.427 418.131 499.341 416.802C500.254 415.446 500.711 414.02 500.711 412.524V412.026C500.711 410.282 500.254 408.939 499.341 407.997C498.427 407.028 497.07 406.544 495.271 406.544C493.498 406.544 492.128 407.001 491.159 407.914C490.217 408.8 489.511 409.991 489.041 411.486L485.926 410.323C486.203 409.465 486.576 408.634 487.047 407.831C487.545 407.001 488.168 406.267 488.916 405.63C489.664 404.993 490.564 404.481 491.616 404.093C492.696 403.706 493.942 403.512 495.354 403.512C496.793 403.512 498.067 403.72 499.175 404.135C500.31 404.55 501.251 405.132 501.999 405.879C502.774 406.627 503.356 407.513 503.743 408.537C504.158 409.562 504.366 410.683 504.366 411.901C504.366 413.009 504.2 414.047 503.868 415.016C503.563 415.986 503.12 416.913 502.539 417.799C501.985 418.685 501.307 419.557 500.504 420.416C499.728 421.246 498.856 422.077 497.887 422.908L489.788 429.968H505.529V433Z" fill="#595959"/>
<g id="return power_2">
<path d="M287.156 651.345H292.846V637.224H287.156V633.569H297.373V639.259H297.623C297.816 638.512 298.093 637.792 298.453 637.099C298.813 636.407 299.27 635.812 299.824 635.314C300.378 634.788 301.056 634.372 301.859 634.068C302.662 633.735 303.603 633.569 304.683 633.569H307.258V637.889H303.022C301.361 637.889 300.004 638.387 298.952 639.384C297.9 640.353 297.373 641.668 297.373 643.329V651.345H305.14V655H287.156V651.345ZM321.82 655.498C320.186 655.498 318.719 655.235 317.417 654.709C316.116 654.183 315.022 653.436 314.136 652.467C313.25 651.497 312.572 650.335 312.101 648.978C311.631 647.593 311.395 646.043 311.395 644.326C311.395 642.609 311.631 641.059 312.101 639.675C312.6 638.29 313.278 637.113 314.136 636.144C315.022 635.147 316.088 634.386 317.334 633.86C318.58 633.334 319.965 633.071 321.488 633.071C322.983 633.071 324.34 633.334 325.558 633.86C326.776 634.358 327.814 635.078 328.673 636.02C329.531 636.961 330.182 638.082 330.625 639.384C331.095 640.685 331.331 642.125 331.331 643.703V645.406H315.964V646.112C315.964 647.801 316.49 649.185 317.542 650.265C318.594 651.317 320.048 651.844 321.903 651.844C323.287 651.844 324.464 651.553 325.433 650.971C326.43 650.362 327.233 649.559 327.842 648.562L330.666 651.054C329.946 652.3 328.839 653.353 327.344 654.211C325.876 655.069 324.035 655.498 321.82 655.498ZM321.488 636.518C320.685 636.518 319.937 636.656 319.245 636.933C318.58 637.21 317.999 637.612 317.5 638.138C317.03 638.636 316.656 639.232 316.379 639.924C316.102 640.616 315.964 641.377 315.964 642.208V642.499H326.721V642.083C326.721 640.394 326.236 639.052 325.267 638.055C324.326 637.03 323.066 636.518 321.488 636.518ZM347.554 655C345.671 655 344.287 654.502 343.401 653.505C342.515 652.48 342.071 651.165 342.071 649.559V637.224H335.468V633.569H340.161C340.964 633.569 341.532 633.417 341.864 633.112C342.196 632.78 342.362 632.199 342.362 631.368V626.01H346.599V633.569H355.736V637.224H346.599V651.345H355.736V655H347.554ZM375.614 651.345H375.406C375.184 651.899 374.894 652.439 374.534 652.965C374.201 653.463 373.786 653.906 373.288 654.294C372.789 654.654 372.208 654.945 371.543 655.166C370.879 655.388 370.104 655.498 369.218 655.498C367.058 655.498 365.313 654.792 363.984 653.38C362.655 651.968 361.991 649.961 361.991 647.358V633.569H366.518V646.694C366.518 650.099 367.999 651.802 370.962 651.802C371.543 651.802 372.111 651.733 372.665 651.594C373.218 651.428 373.717 651.193 374.16 650.888C374.603 650.584 374.949 650.21 375.198 649.767C375.475 649.296 375.614 648.742 375.614 648.106V633.569H380.141V655H375.614V651.345ZM386.77 651.345H392.459V637.224H386.77V633.569H396.987V639.259H397.236C397.43 638.512 397.706 637.792 398.066 637.099C398.426 636.407 398.883 635.812 399.437 635.314C399.991 634.788 400.669 634.372 401.472 634.068C402.275 633.735 403.216 633.569 404.296 633.569H406.871V637.889H402.635C400.974 637.889 399.617 638.387 398.565 639.384C397.513 640.353 396.987 641.668 396.987 643.329V651.345H404.753V655H386.77V651.345ZM412.005 655V633.569H416.532V637.224H416.74C416.961 636.67 417.238 636.144 417.57 635.646C417.93 635.12 418.36 634.677 418.858 634.317C419.356 633.929 419.938 633.625 420.602 633.403C421.267 633.182 422.042 633.071 422.928 633.071C425.088 633.071 426.832 633.777 428.161 635.189C429.49 636.601 430.155 638.609 430.155 641.211V655H425.628V641.876C425.628 638.47 424.146 636.767 421.184 636.767C420.602 636.767 420.035 636.85 419.481 637.016C418.927 637.155 418.429 637.376 417.986 637.681C417.543 637.986 417.183 638.373 416.906 638.844C416.657 639.315 416.532 639.854 416.532 640.464V655H412.005Z" fill="#4B6584"/>
<path d="M462.268 633.569H465.591V637.058H465.757C467.142 634.4 469.343 633.071 472.361 633.071C474.991 633.071 477.04 634.054 478.508 636.02C480.003 637.986 480.75 640.741 480.75 644.285C480.75 647.829 480.003 650.584 478.508 652.55C477.04 654.515 474.991 655.498 472.361 655.498C469.343 655.498 467.142 654.169 465.757 651.511H465.591V663.306H462.268V633.569ZM471.073 652.55C473.012 652.55 474.507 651.968 475.559 650.805C476.639 649.615 477.179 648.05 477.179 646.112V642.457C477.179 640.519 476.639 638.968 475.559 637.806C474.507 636.615 473.012 636.02 471.073 636.02C470.326 636.02 469.62 636.117 468.955 636.31C468.291 636.504 467.709 636.795 467.211 637.183C466.712 637.543 466.311 637.999 466.006 638.553C465.729 639.079 465.591 639.702 465.591 640.422V648.147C465.591 648.867 465.729 649.504 466.006 650.058C466.311 650.584 466.712 651.041 467.211 651.428C467.709 651.788 468.291 652.065 468.955 652.259C469.62 652.453 470.326 652.55 471.073 652.55ZM495.686 655.498C494.191 655.498 492.834 655.235 491.616 654.709C490.425 654.183 489.401 653.436 488.542 652.467C487.712 651.47 487.075 650.293 486.632 648.936C486.189 647.552 485.967 646.001 485.967 644.285C485.967 642.596 486.189 641.059 486.632 639.675C487.075 638.29 487.712 637.113 488.542 636.144C489.401 635.147 490.425 634.386 491.616 633.86C492.834 633.334 494.191 633.071 495.686 633.071C497.181 633.071 498.524 633.334 499.715 633.86C500.933 634.386 501.957 635.147 502.788 636.144C503.646 637.113 504.297 638.29 504.74 639.675C505.183 641.059 505.404 642.596 505.404 644.285C505.404 646.001 505.183 647.552 504.74 648.936C504.297 650.293 503.646 651.47 502.788 652.467C501.957 653.436 500.933 654.183 499.715 654.709C498.524 655.235 497.181 655.498 495.686 655.498ZM495.686 652.633C497.541 652.633 499.036 652.079 500.171 650.971C501.307 649.864 501.874 648.147 501.874 645.821V642.748C501.874 640.422 501.307 638.705 500.171 637.598C499.036 636.49 497.541 635.937 495.686 635.937C493.831 635.937 492.336 636.49 491.2 637.598C490.065 638.705 489.498 640.422 489.498 642.748V645.821C489.498 648.147 490.065 649.864 491.2 650.971C492.336 652.079 493.831 652.633 495.686 652.633ZM509.375 633.569H512.324L514.775 652.093H515.148L518.803 633.569H522.458L526.113 652.093H526.487L528.937 633.569H531.803L528.522 655H524.202L520.797 637.058H520.465L516.976 655H512.656L509.375 633.569ZM545.866 655.498C544.316 655.498 542.917 655.235 541.671 654.709C540.453 654.183 539.401 653.436 538.515 652.467C537.657 651.47 536.992 650.293 536.521 648.936C536.051 647.552 535.815 646.015 535.815 644.326C535.815 642.609 536.051 641.059 536.521 639.675C537.02 638.29 537.698 637.113 538.556 636.144C539.415 635.147 540.439 634.386 541.63 633.86C542.848 633.334 544.191 633.071 545.659 633.071C547.098 633.071 548.4 633.334 549.563 633.86C550.753 634.386 551.764 635.12 552.594 636.061C553.425 636.975 554.062 638.069 554.505 639.342C554.948 640.616 555.169 642.014 555.169 643.537V645.115H539.304V646.112C539.304 647.053 539.456 647.926 539.761 648.729C540.065 649.532 540.495 650.224 541.048 650.805C541.63 651.387 542.322 651.844 543.125 652.176C543.956 652.48 544.869 652.633 545.866 652.633C547.306 652.633 548.552 652.3 549.604 651.636C550.656 650.971 551.459 650.058 552.013 648.895L554.463 650.556C553.827 651.996 552.761 653.186 551.265 654.128C549.798 655.042 547.998 655.498 545.866 655.498ZM545.659 635.812C544.745 635.812 543.9 635.978 543.125 636.31C542.35 636.643 541.671 637.099 541.09 637.681C540.536 638.262 540.093 638.955 539.761 639.758C539.456 640.533 539.304 641.391 539.304 642.333V642.623H551.598V642.166C551.598 641.225 551.445 640.367 551.141 639.591C550.864 638.816 550.462 638.152 549.936 637.598C549.438 637.016 548.815 636.573 548.067 636.269C547.348 635.964 546.545 635.812 545.659 635.812ZM561.134 652.176H567.405V636.393H561.134V633.569H570.728V638.968H570.936C571.379 637.279 572.209 635.964 573.428 635.023C574.674 634.054 576.252 633.569 578.162 633.569H581.153V636.892H577.124C575.213 636.892 573.663 637.446 572.472 638.553C571.309 639.661 570.728 641.114 570.728 642.914V652.176H579.034V655H561.134V652.176Z" fill="#595959"/>
</g>
</g>
</g>
</svg>
