<svg width="1921" height="1081" viewBox="0 0 1921 1081" fill="none" xmlns="http://www.w3.org/2000/svg">
<g id="st-to-trans">
<rect width="1920" height="1080" transform="translate(0.983887 0.983887)" fill="white"/>
<g id="automaton">
<circle id="Ellipse 5" cx="497.524" cy="559.324" r="52.65" fill="white" fill-opacity="0.46" stroke="black" stroke-width="2.7"/>
<circle id="Ellipse 6" cx="249.124" cy="559.324" r="52.65" fill="white" fill-opacity="0.46" stroke="black" stroke-width="2.7"/>
<circle id="Ellipse 7" cx="745.924" cy="559.324" r="52.65" fill="white" fill-opacity="0.46" stroke="black" stroke-width="2.7"/>
<circle id="Ellipse 8" cx="745.924" cy="559.324" r="38.25" fill="#C4F0C9" fill-opacity="0.46" stroke="black" stroke-width="2.7"/>
<path id="Arrow 6" d="M313.924 557.974C313.179 557.974 312.574 558.578 312.574 559.324C312.574 560.07 313.179 560.674 313.924 560.674V557.974ZM431.824 559.324L418.324 551.53V567.118L431.824 559.324ZM313.924 560.674H419.674V557.974H313.924V560.674Z" fill="black"/>
<path id="Arrow 7" d="M562.324 557.974C561.579 557.974 560.974 558.578 560.974 559.324C560.974 560.07 561.579 560.674 562.324 560.674V557.974ZM680.224 559.324L666.724 551.53V567.118L680.224 559.324ZM562.324 560.674H668.074V557.974H562.324V560.674Z" fill="black"/>
<path id="Vector 1" d="M450.111 513.805C450.57 514.393 451.418 514.497 452.006 514.037C452.593 513.578 452.697 512.73 452.238 512.142L450.111 513.805ZM299.074 512.974L314.094 508.803L302.973 497.881L299.074 512.974ZM452.238 512.142C442.494 499.679 432.894 490.621 420.773 484.704C408.656 478.79 394.145 476.074 374.674 476.074V478.774C393.904 478.774 407.967 481.458 419.588 487.131C431.204 492.801 440.504 501.518 450.111 513.805L452.238 512.142ZM374.674 476.074C342.431 476.074 321.254 489.652 306.666 503.319L308.512 505.289C322.759 491.942 343.308 478.774 374.674 478.774V476.074Z" fill="black"/>
<path id="Vector 2" d="M711.56 615.642C712.02 615.055 712.868 614.951 713.456 615.41C714.043 615.87 714.147 616.718 713.688 617.305L711.56 615.642ZM287.374 616.474L302.596 619.833L292.076 631.336L287.374 616.474ZM713.688 617.305C708.713 623.668 698.948 631.921 685.578 640.7C672.178 649.499 655.066 658.886 635.313 667.493C595.817 684.702 545.681 698.824 493.474 698.824V696.124C545.217 696.124 594.981 682.121 634.235 665.017C653.857 656.468 670.833 647.152 684.096 638.443C697.388 629.715 706.86 621.655 711.56 615.642L713.688 617.305ZM493.474 698.824C402.337 698.824 323.675 648.943 295.481 625.716L297.198 623.632C325.148 646.659 403.216 696.124 493.474 696.124V698.824Z" fill="black"/>
<path id="Arrow 8" d="M187.979 560.279C188.506 559.751 188.506 558.897 187.979 558.369L179.387 549.778C178.86 549.251 178.005 549.251 177.478 549.778C176.951 550.305 176.951 551.16 177.478 551.687L185.115 559.324L177.478 566.961C176.951 567.488 176.951 568.343 177.478 568.87C178.005 569.397 178.86 569.397 179.387 568.87L187.979 560.279ZM140.224 560.674L187.024 560.674L187.024 557.974L140.224 557.974L140.224 560.674Z" fill="black"/>
<path id="Vector 3" d="M726.131 502.1C726.587 502.69 727.435 502.798 728.024 502.342C728.614 501.886 728.722 501.038 728.266 500.448L726.131 502.1ZM745.198 440.524L745.198 441.874L745.198 440.524ZM768.148 505.324L780.819 496.244L766.62 489.811L768.148 505.324ZM728.266 500.448C719.253 488.797 715.79 474.014 718.445 462.253C719.769 456.39 722.601 451.314 726.98 447.704C731.352 444.099 737.364 441.874 745.198 441.874L745.198 439.174C736.831 439.174 730.186 441.561 725.262 445.621C720.346 449.674 717.244 455.314 715.811 461.658C712.955 474.309 716.694 489.901 726.131 502.1L728.266 500.448ZM745.198 441.874C752.819 441.874 758.568 443.906 762.853 447.172C767.147 450.446 770.07 455.035 771.895 460.308C775.561 470.896 774.722 484.031 771.867 493.878L774.46 494.63C777.421 484.417 778.346 470.687 774.447 459.425C772.49 453.772 769.299 448.691 764.489 445.025C759.669 441.351 753.323 439.174 745.198 439.174L745.198 441.874Z" fill="black"/>
<path id="Vector 4" d="M226.63 502.1C227.086 502.69 227.934 502.798 228.524 502.342C229.114 501.886 229.222 501.038 228.766 500.448L226.63 502.1ZM245.698 440.524L245.698 441.874L245.698 440.524ZM268.648 505.324L281.319 496.244L267.12 489.811L268.648 505.324ZM228.766 500.448C219.753 488.797 216.289 474.014 218.945 462.253C220.268 456.39 223.1 451.314 227.479 447.704C231.851 444.099 237.863 441.874 245.698 441.874L245.698 439.174C237.33 439.174 230.685 441.561 225.762 445.621C220.845 449.674 217.743 455.314 216.311 461.658C213.455 474.309 217.193 489.901 226.63 502.1L228.766 500.448ZM245.698 441.874C253.318 441.874 259.067 443.906 263.352 447.172C267.647 450.446 270.57 455.035 272.395 460.308C276.06 470.896 275.222 484.031 272.367 493.878L274.96 494.63C277.921 484.417 278.845 470.687 274.946 459.425C272.99 453.772 269.799 448.691 264.989 445.025C260.169 441.351 253.823 439.174 245.698 439.174L245.698 441.874Z" fill="black"/>
<path id="a" d="M379.462 550.024C378.447 550.024 377.724 549.765 377.292 549.246C376.86 548.728 376.59 548.08 376.482 547.302H376.32C375.952 548.274 375.358 549.041 374.538 549.603C373.738 550.143 372.658 550.413 371.298 550.413C369.548 550.413 368.155 549.959 367.118 549.052C366.081 548.145 365.563 546.903 365.563 545.326C365.563 543.771 366.124 542.572 367.248 541.73C368.392 540.887 370.228 540.466 372.756 540.466H376.32V538.814C376.32 537.582 375.974 536.664 375.283 536.06C374.592 535.433 373.609 535.12 372.334 535.12C371.211 535.12 370.293 535.347 369.58 535.8C368.868 536.232 368.295 536.826 367.863 537.582L366.114 536.286C366.33 535.854 366.621 535.433 366.988 535.023C367.356 534.612 367.809 534.256 368.349 533.954C368.889 533.63 369.505 533.381 370.196 533.208C370.887 533.014 371.654 532.917 372.496 532.917C374.462 532.917 376.017 533.414 377.162 534.407C378.328 535.401 378.912 536.783 378.912 538.554V547.756H381.244V550.024H379.462ZM371.751 548.242C372.421 548.242 373.026 548.166 373.566 548.015C374.127 547.842 374.613 547.626 375.024 547.367C375.434 547.086 375.747 546.762 375.963 546.395C376.201 546.006 376.32 545.596 376.32 545.164V542.41H372.756C371.2 542.41 370.066 542.626 369.354 543.058C368.641 543.49 368.284 544.116 368.284 544.937V545.618C368.284 546.482 368.587 547.14 369.192 547.594C369.818 548.026 370.671 548.242 371.751 548.242Z" fill="black"/>
<path id="a_2" d="M627.862 550.024C626.847 550.024 626.123 549.765 625.691 549.246C625.259 548.728 624.989 548.08 624.881 547.302H624.719C624.352 548.274 623.758 549.041 622.937 549.603C622.138 550.143 621.058 550.413 619.697 550.413C617.948 550.413 616.555 549.959 615.518 549.052C614.481 548.145 613.963 546.903 613.963 545.326C613.963 543.771 614.524 542.572 615.647 541.73C616.792 540.887 618.628 540.466 621.155 540.466H624.719V538.814C624.719 537.582 624.374 536.664 623.683 536.06C622.991 535.433 622.009 535.12 620.734 535.12C619.611 535.12 618.693 535.347 617.98 535.8C617.267 536.232 616.695 536.826 616.263 537.582L614.513 536.286C614.729 535.854 615.021 535.433 615.388 535.023C615.755 534.612 616.209 534.256 616.749 533.954C617.289 533.63 617.905 533.381 618.596 533.208C619.287 533.014 620.054 532.917 620.896 532.917C622.862 532.917 624.417 533.414 625.562 534.407C626.728 535.401 627.311 536.783 627.311 538.554V547.756H629.644V550.024H627.862ZM620.151 548.242C620.821 548.242 621.425 548.166 621.965 548.015C622.527 547.842 623.013 547.626 623.423 547.367C623.834 547.086 624.147 546.762 624.363 546.395C624.601 546.006 624.719 545.596 624.719 545.164V542.41H621.155C619.6 542.41 618.466 542.626 617.753 543.058C617.041 543.49 616.684 544.116 616.684 544.937V545.618C616.684 546.482 616.987 547.14 617.591 547.594C618.218 548.026 619.071 548.242 620.151 548.242Z" fill="black"/>
<path id="b" d="M368.302 444.148H370.894V454.127H371.024C372.104 452.053 373.821 451.017 376.175 451.017C378.227 451.017 379.826 451.783 380.971 453.317C382.137 454.851 382.72 457 382.72 459.765C382.72 462.529 382.137 464.679 380.971 466.212C379.826 467.746 378.227 468.513 376.175 468.513C373.821 468.513 372.104 467.476 371.024 465.402H370.894V468.124H368.302V444.148ZM375.171 466.212C376.683 466.212 377.849 465.759 378.67 464.851C379.513 463.923 379.934 462.702 379.934 461.19V458.339C379.934 456.827 379.513 455.617 378.67 454.71C377.849 453.781 376.683 453.317 375.171 453.317C374.588 453.317 374.037 453.393 373.519 453.544C373 453.695 372.547 453.922 372.158 454.224C371.769 454.505 371.456 454.861 371.218 455.293C371.002 455.704 370.894 456.19 370.894 456.751V462.778C370.894 463.339 371.002 463.836 371.218 464.268C371.456 464.679 371.769 465.035 372.158 465.337C372.547 465.618 373 465.834 373.519 465.985C374.037 466.137 374.588 466.212 375.171 466.212Z" fill="black"/>
<path id="b_2" d="M239.602 407.248H242.194V417.227H242.324C243.404 415.153 245.121 414.117 247.475 414.117C249.527 414.117 251.126 414.883 252.27 416.417C253.437 417.951 254.02 420.1 254.02 422.865C254.02 425.629 253.437 427.779 252.27 429.312C251.126 430.846 249.527 431.613 247.475 431.613C245.121 431.613 243.404 430.576 242.324 428.502H242.194V431.224H239.602V407.248ZM246.471 429.312C247.983 429.312 249.149 428.859 249.97 427.951C250.812 427.023 251.234 425.802 251.234 424.29V421.439C251.234 419.927 250.812 418.717 249.97 417.81C249.149 416.881 247.983 416.417 246.471 416.417C245.888 416.417 245.337 416.493 244.818 416.644C244.3 416.795 243.846 417.022 243.458 417.324C243.069 417.605 242.756 417.961 242.518 418.393C242.302 418.804 242.194 419.29 242.194 419.851V425.878C242.194 426.439 242.302 426.936 242.518 427.368C242.756 427.779 243.069 428.135 243.458 428.437C243.846 428.718 244.3 428.934 244.818 429.085C245.337 429.237 245.888 429.312 246.471 429.312Z" fill="black"/>
<path id="b_3" d="M490.702 706.048H493.294V716.027H493.424C494.504 713.954 496.221 712.917 498.575 712.917C500.627 712.917 502.226 713.684 503.37 715.217C504.537 716.751 505.12 718.9 505.12 721.665C505.12 724.43 504.537 726.579 503.37 728.112C502.226 729.646 500.627 730.413 498.575 730.413C496.221 730.413 494.504 729.376 493.424 727.302H493.294V730.024H490.702V706.048ZM497.571 728.112C499.083 728.112 500.249 727.659 501.07 726.752C501.912 725.823 502.334 724.602 502.334 723.09V720.239C502.334 718.727 501.912 717.518 501.07 716.61C500.249 715.682 499.083 715.217 497.571 715.217C496.988 715.217 496.437 715.293 495.918 715.444C495.4 715.595 494.946 715.822 494.558 716.124C494.169 716.405 493.856 716.762 493.618 717.194C493.402 717.604 493.294 718.09 493.294 718.652V724.678C493.294 725.24 493.402 725.736 493.618 726.168C493.856 726.579 494.169 726.935 494.558 727.238C494.946 727.518 495.4 727.734 495.918 727.886C496.437 728.037 496.988 728.112 497.571 728.112Z" fill="black"/>
<path id="a_3" d="M752.962 431.224C751.947 431.224 751.223 430.965 750.791 430.446C750.359 429.928 750.089 429.28 749.981 428.502H749.819C749.452 429.474 748.858 430.241 748.037 430.803C747.238 431.343 746.158 431.613 744.797 431.613C743.047 431.613 741.654 431.159 740.617 430.252C739.581 429.345 739.062 428.103 739.062 426.526C739.062 424.971 739.624 423.772 740.747 422.929C741.892 422.087 743.728 421.666 746.255 421.666H749.819V420.013C749.819 418.782 749.473 417.864 748.782 417.259C748.091 416.633 747.108 416.32 745.834 416.32C744.711 416.32 743.793 416.547 743.08 417C742.367 417.432 741.795 418.026 741.363 418.782L739.613 417.486C739.829 417.054 740.121 416.633 740.488 416.223C740.855 415.812 741.309 415.456 741.849 415.153C742.389 414.829 743.004 414.581 743.695 414.408C744.387 414.214 745.153 414.117 745.996 414.117C747.961 414.117 749.517 414.613 750.661 415.607C751.828 416.601 752.411 417.983 752.411 419.754V428.956H754.744V431.224H752.962ZM745.251 429.442C745.92 429.442 746.525 429.366 747.065 429.215C747.627 429.042 748.113 428.826 748.523 428.567C748.933 428.286 749.247 427.962 749.463 427.595C749.7 427.206 749.819 426.796 749.819 426.364V423.61H746.255C744.7 423.61 743.566 423.826 742.853 424.258C742.14 424.69 741.784 425.316 741.784 426.137V426.817C741.784 427.681 742.086 428.34 742.691 428.794C743.317 429.226 744.171 429.442 745.251 429.442Z" fill="black"/>
</g>
<g id="Group_58">
<g id="t-automaton">
<circle id="Ellipse 5_2" cx="1471.32" cy="567.2" r="52.65" fill="white" fill-opacity="0.46" stroke="black" stroke-width="2.7"/>
<circle id="Ellipse 6_2" cx="1222.92" cy="567.2" r="52.65" fill="white" fill-opacity="0.46" stroke="black" stroke-width="2.7"/>
<circle id="Ellipse 7_2" cx="1719.72" cy="567.2" r="52.65" fill="white" fill-opacity="0.46" stroke="black" stroke-width="2.7"/>
<path id="Arrow 6_2" d="M1287.72 565.85C1286.97 565.85 1286.37 566.454 1286.37 567.2C1286.37 567.946 1286.97 568.55 1287.72 568.55V565.85ZM1405.62 567.2L1392.12 559.406V574.994L1405.62 567.2ZM1287.72 568.55H1393.47V565.85H1287.72V568.55Z" fill="black"/>
<path id="Arrow 7_2" d="M1536.12 565.85C1535.37 565.85 1534.77 566.454 1534.77 567.2C1534.77 567.946 1535.37 568.55 1536.12 568.55V565.85ZM1654.02 567.2L1640.52 559.406V574.994L1654.02 567.2ZM1536.12 568.55H1641.87V565.85H1536.12V568.55Z" fill="black"/>
<path id="Vector 1_2" d="M1423.9 521.682C1424.36 522.269 1425.21 522.373 1425.8 521.914C1426.38 521.454 1426.49 520.606 1426.03 520.019L1423.9 521.682ZM1272.87 520.85L1287.89 516.68L1276.76 505.757L1272.87 520.85ZM1426.03 520.019C1416.29 507.556 1406.69 498.498 1394.56 492.581C1382.45 486.666 1367.94 483.95 1348.47 483.95V486.65C1367.69 486.65 1381.76 489.334 1393.38 495.007C1405 500.677 1414.3 509.394 1423.9 521.682L1426.03 520.019ZM1348.47 483.95C1316.22 483.95 1295.04 497.528 1280.46 511.195L1282.3 513.166C1296.55 499.818 1317.1 486.65 1348.47 486.65V483.95Z" fill="black"/>
<path id="Vector 2_2" d="M1685.35 623.519C1685.81 622.931 1686.66 622.827 1687.25 623.287C1687.83 623.746 1687.94 624.594 1687.48 625.182L1685.35 623.519ZM1261.17 624.35L1276.39 627.709L1265.87 639.213L1261.17 624.35ZM1687.48 625.182C1682.51 631.544 1672.74 639.797 1659.37 648.576C1645.97 657.375 1628.86 666.763 1609.11 675.369C1569.61 692.578 1519.47 706.7 1467.27 706.7V704C1519.01 704 1568.77 689.997 1608.03 672.894C1627.65 664.344 1644.62 655.028 1657.89 646.319C1671.18 637.591 1680.65 629.531 1685.35 623.519L1687.48 625.182ZM1467.27 706.7C1376.13 706.7 1297.47 656.819 1269.27 633.592L1270.99 631.508C1298.94 654.535 1377.01 704 1467.27 704V706.7Z" fill="black"/>
<path id="Arrow 8_2" d="M1161.77 568.155C1162.3 567.627 1162.3 566.773 1161.77 566.245L1153.18 557.654C1152.65 557.127 1151.8 557.127 1151.27 557.654C1150.74 558.181 1150.74 559.036 1151.27 559.563L1158.91 567.2L1151.27 574.837C1150.74 575.364 1150.74 576.219 1151.27 576.746C1151.8 577.273 1152.65 577.273 1153.18 576.746L1161.77 568.155ZM1114.02 568.55L1160.82 568.55L1160.82 565.85L1114.02 565.85L1114.02 568.55Z" fill="black"/>
<path id="Vector 3_2" d="M1699.92 509.976C1700.38 510.566 1701.23 510.674 1701.82 510.218C1702.41 509.761 1702.51 508.914 1702.06 508.324L1699.92 509.976ZM1718.99 448.4L1718.99 449.75L1718.99 448.4ZM1741.94 513.2L1754.61 504.12L1740.41 497.687L1741.94 513.2ZM1702.06 508.324C1693.04 496.673 1689.58 481.89 1692.24 470.128C1693.56 464.266 1696.39 459.19 1700.77 455.58C1705.14 451.975 1711.15 449.75 1718.99 449.75L1718.99 447.05C1710.62 447.05 1703.98 449.437 1699.05 453.497C1694.14 457.55 1691.03 463.19 1689.6 469.534C1686.75 482.185 1690.48 497.777 1699.92 509.976L1702.06 508.324ZM1718.99 449.75C1726.61 449.75 1732.36 451.782 1736.64 455.048C1740.94 458.322 1743.86 462.911 1745.69 468.184C1749.35 478.772 1748.51 491.907 1745.66 501.754L1748.25 502.506C1751.21 492.293 1752.14 478.563 1748.24 467.301C1746.28 461.648 1743.09 456.567 1738.28 452.901C1733.46 449.227 1727.11 447.05 1718.99 447.05L1718.99 449.75Z" fill="black"/>
<path id="Vector 4_2" d="M1200.42 509.976C1200.88 510.566 1201.73 510.674 1202.32 510.218C1202.91 509.761 1203.01 508.914 1202.56 508.324L1200.42 509.976ZM1219.49 448.4L1219.49 449.75L1219.49 448.4ZM1242.44 513.2L1255.11 504.12L1240.91 497.687L1242.44 513.2ZM1202.56 508.324C1193.54 496.673 1190.08 481.89 1192.74 470.128C1194.06 464.266 1196.89 459.19 1201.27 455.58C1205.64 451.975 1211.65 449.75 1219.49 449.75L1219.49 447.05C1211.12 447.05 1204.48 449.437 1199.55 453.497C1194.64 457.55 1191.53 463.19 1190.1 469.534C1187.25 482.185 1190.98 497.777 1200.42 509.976L1202.56 508.324ZM1219.49 449.75C1227.11 449.75 1232.86 451.782 1237.14 455.048C1241.44 458.322 1244.36 462.911 1246.19 468.184C1249.85 478.772 1249.01 491.907 1246.16 501.754L1248.75 502.506C1251.71 492.293 1252.64 478.563 1248.74 467.301C1246.78 461.648 1243.59 456.567 1238.78 452.901C1233.96 449.227 1227.61 447.05 1219.49 447.05L1219.49 449.75Z" fill="black"/>
<path id="a_4" d="M1353.25 554.3C1352.24 554.3 1351.52 554.041 1351.08 553.522C1350.65 553.004 1350.38 552.356 1350.27 551.578H1350.11C1349.74 552.55 1349.15 553.317 1348.33 553.879C1347.53 554.419 1346.45 554.689 1345.09 554.689C1343.34 554.689 1341.95 554.235 1340.91 553.328C1339.87 552.421 1339.35 551.179 1339.35 549.602C1339.35 548.047 1339.92 546.848 1341.04 546.006C1342.18 545.163 1344.02 544.742 1346.55 544.742H1350.11V543.09C1350.11 541.858 1349.77 540.94 1349.07 540.336C1348.38 539.709 1347.4 539.396 1346.13 539.396C1345 539.396 1344.08 539.623 1343.37 540.076C1342.66 540.508 1342.09 541.102 1341.65 541.858L1339.91 540.562C1340.12 540.13 1340.41 539.709 1340.78 539.299C1341.15 538.888 1341.6 538.532 1342.14 538.23C1342.68 537.906 1343.3 537.657 1343.99 537.484C1344.68 537.29 1345.45 537.193 1346.29 537.193C1348.25 537.193 1349.81 537.69 1350.95 538.683C1352.12 539.677 1352.7 541.059 1352.7 542.83V552.032H1355.04V554.3H1353.25ZM1345.54 552.518C1346.21 552.518 1346.82 552.442 1347.36 552.291C1347.92 552.118 1348.4 551.902 1348.82 551.643C1349.23 551.362 1349.54 551.038 1349.75 550.671C1349.99 550.282 1350.11 549.872 1350.11 549.44V546.686H1346.55C1344.99 546.686 1343.86 546.902 1343.15 547.334C1342.43 547.766 1342.08 548.392 1342.08 549.213V549.894C1342.08 550.758 1342.38 551.416 1342.98 551.87C1343.61 552.302 1344.46 552.518 1345.54 552.518Z" fill="black"/>
<path id="a_5" d="M1601.65 550.7C1600.64 550.7 1599.91 550.441 1599.48 549.922C1599.05 549.404 1598.78 548.756 1598.67 547.978H1598.51C1598.14 548.95 1597.55 549.717 1596.73 550.279C1595.93 550.819 1594.85 551.089 1593.49 551.089C1591.74 551.089 1590.35 550.635 1589.31 549.728C1588.27 548.821 1587.75 547.579 1587.75 546.002C1587.75 544.447 1588.32 543.248 1589.44 542.406C1590.58 541.563 1592.42 541.142 1594.95 541.142H1598.51V539.49C1598.51 538.258 1598.16 537.34 1597.47 536.736C1596.78 536.109 1595.8 535.796 1594.53 535.796C1593.4 535.796 1592.48 536.023 1591.77 536.476C1591.06 536.908 1590.49 537.502 1590.05 538.258L1588.3 536.962C1588.52 536.53 1588.81 536.109 1589.18 535.699C1589.55 535.288 1590 534.932 1590.54 534.63C1591.08 534.306 1591.7 534.057 1592.39 533.884C1593.08 533.69 1593.84 533.593 1594.69 533.593C1596.65 533.593 1598.21 534.09 1599.35 535.083C1600.52 536.077 1601.1 537.459 1601.1 539.23V548.432H1603.44V550.7H1601.65ZM1593.94 548.918C1594.61 548.918 1595.22 548.842 1595.76 548.691C1596.32 548.518 1596.8 548.302 1597.21 548.043C1597.62 547.762 1597.94 547.438 1598.15 547.071C1598.39 546.682 1598.51 546.272 1598.51 545.84V543.086H1594.95C1593.39 543.086 1592.26 543.302 1591.54 543.734C1590.83 544.166 1590.48 544.792 1590.48 545.613V546.294C1590.48 547.158 1590.78 547.816 1591.38 548.27C1592.01 548.702 1592.86 548.918 1593.94 548.918Z" fill="black"/>
<path id="a_6" d="M1725.85 431C1724.84 431 1724.11 430.741 1723.68 430.222C1723.25 429.704 1722.98 429.056 1722.87 428.278H1722.71C1722.34 429.25 1721.75 430.017 1720.93 430.579C1720.13 431.119 1719.05 431.389 1717.69 431.389C1715.94 431.389 1714.55 430.935 1713.51 430.028C1712.47 429.121 1711.95 427.879 1711.95 426.302C1711.95 424.747 1712.52 423.548 1713.64 422.706C1714.78 421.863 1716.62 421.442 1719.15 421.442H1722.71V419.79C1722.71 418.558 1722.37 417.64 1721.67 417.036C1720.98 416.409 1720 416.096 1718.73 416.096C1717.6 416.096 1716.68 416.323 1715.97 416.776C1715.26 417.208 1714.69 417.802 1714.25 418.558L1712.5 417.262C1712.72 416.83 1713.01 416.409 1713.38 415.999C1713.75 415.588 1714.2 415.232 1714.74 414.93C1715.28 414.606 1715.9 414.357 1716.59 414.184C1717.28 413.99 1718.05 413.893 1718.89 413.893C1720.85 413.893 1722.41 414.39 1723.55 415.383C1724.72 416.377 1725.3 417.759 1725.3 419.53V428.732H1727.64V431H1725.85ZM1718.14 429.218C1718.81 429.218 1719.42 429.142 1719.96 428.991C1720.52 428.818 1721 428.602 1721.41 428.343C1721.83 428.062 1722.14 427.738 1722.35 427.371C1722.59 426.982 1722.71 426.572 1722.71 426.14V423.386H1719.15C1717.59 423.386 1716.46 423.602 1715.74 424.034C1715.03 424.466 1714.68 425.092 1714.68 425.913V426.594C1714.68 427.458 1714.98 428.116 1715.58 428.57C1716.21 429.002 1717.06 429.218 1718.14 429.218Z" fill="black"/>
<path id="b_4" d="M1342.09 452.024H1344.69V462.003H1344.82C1345.9 459.93 1347.61 458.893 1349.97 458.893C1352.02 458.893 1353.62 459.66 1354.76 461.193C1355.93 462.727 1356.51 464.876 1356.51 467.641C1356.51 470.406 1355.93 472.555 1354.76 474.088C1353.62 475.622 1352.02 476.389 1349.97 476.389C1347.61 476.389 1345.9 475.352 1344.82 473.278H1344.69V476H1342.09V452.024ZM1348.96 474.088C1350.47 474.088 1351.64 473.635 1352.46 472.728C1353.3 471.799 1353.73 470.578 1353.73 469.066V466.215C1353.73 464.703 1353.3 463.494 1352.46 462.586C1351.64 461.658 1350.47 461.193 1348.96 461.193C1348.38 461.193 1347.83 461.269 1347.31 461.42C1346.79 461.571 1346.34 461.798 1345.95 462.1C1345.56 462.381 1345.25 462.738 1345.01 463.17C1344.79 463.58 1344.69 464.066 1344.69 464.628V470.654C1344.69 471.216 1344.79 471.712 1345.01 472.144C1345.25 472.555 1345.56 472.911 1345.95 473.214C1346.34 473.494 1346.79 473.71 1347.31 473.862C1347.83 474.013 1348.38 474.088 1348.96 474.088Z" fill="black"/>
<path id="b_5" d="M1213.39 415.124H1215.99V425.103H1216.12C1217.2 423.03 1218.91 421.993 1221.27 421.993C1223.32 421.993 1224.92 422.76 1226.06 424.293C1227.23 425.827 1227.81 427.976 1227.81 430.741C1227.81 433.506 1227.23 435.655 1226.06 437.188C1224.92 438.722 1223.32 439.489 1221.27 439.489C1218.91 439.489 1217.2 438.452 1216.12 436.378H1215.99V439.1H1213.39V415.124ZM1220.26 437.188C1221.77 437.188 1222.94 436.735 1223.76 435.828C1224.6 434.899 1225.03 433.678 1225.03 432.166V429.315C1225.03 427.803 1224.6 426.594 1223.76 425.686C1222.94 424.758 1221.77 424.293 1220.26 424.293C1219.68 424.293 1219.13 424.369 1218.61 424.52C1218.09 424.671 1217.64 424.898 1217.25 425.2C1216.86 425.481 1216.55 425.838 1216.31 426.27C1216.09 426.68 1215.99 427.166 1215.99 427.728V433.754C1215.99 434.316 1216.09 434.812 1216.31 435.244C1216.55 435.655 1216.86 436.011 1217.25 436.314C1217.64 436.594 1218.09 436.81 1218.61 436.962C1219.13 437.113 1219.68 437.188 1220.26 437.188Z" fill="black"/>
<path id="b_6" d="M1464.49 713.924H1467.09V723.903H1467.22C1468.3 721.83 1470.01 720.793 1472.37 720.793C1474.42 720.793 1476.02 721.56 1477.16 723.093C1478.33 724.627 1478.91 726.776 1478.91 729.541C1478.91 732.306 1478.33 734.455 1477.16 735.988C1476.02 737.522 1474.42 738.289 1472.37 738.289C1470.01 738.289 1468.3 737.252 1467.22 735.178H1467.09V737.9H1464.49V713.924ZM1471.36 735.988C1472.87 735.988 1474.04 735.535 1474.86 734.628C1475.7 733.699 1476.13 732.478 1476.13 730.966V728.115C1476.13 726.603 1475.7 725.394 1474.86 724.486C1474.04 723.558 1472.87 723.093 1471.36 723.093C1470.78 723.093 1470.23 723.169 1469.71 723.32C1469.19 723.471 1468.74 723.698 1468.35 724C1467.96 724.281 1467.65 724.638 1467.41 725.07C1467.19 725.48 1467.09 725.966 1467.09 726.528V732.554C1467.09 733.116 1467.19 733.612 1467.41 734.044C1467.65 734.455 1467.96 734.811 1468.35 735.114C1468.74 735.394 1469.19 735.61 1469.71 735.762C1470.23 735.913 1470.78 735.988 1471.36 735.988Z" fill="black"/>
<circle id="Ellipse 9" cx="1595.07" cy="566.75" r="10.35" fill="#409252"/>
<circle id="Ellipse 11" cx="1719.27" cy="447.95" r="10.35" fill="#409252"/>
</g>
<path id="Line 47" d="M1015.49 541.975C1016.86 540.608 1016.86 538.392 1015.49 537.025L993.216 514.751C991.849 513.384 989.633 513.384 988.267 514.751C986.9 516.118 986.9 518.334 988.267 519.701L1008.07 539.5L988.267 559.299C986.9 560.666 986.9 562.882 988.267 564.249C989.633 565.616 991.849 565.616 993.216 564.249L1015.49 541.975ZM882 543H1013.02V536H882V543Z" fill="black"/>
</g>
<path id="No_extra_states_needed" d="M764.913 872.648C764.913 868.28 764.097 868.088 760.737 867.752C760.449 867.464 760.449 866.456 760.737 866.168C762.849 866.216 765.009 866.264 766.065 866.264C767.169 866.264 769.473 866.216 771.441 866.168C771.729 866.456 771.729 867.464 771.441 867.752C768.081 868.088 767.265 868.376 767.265 872.648V896.216C767.265 897.128 766.833 897.704 766.161 897.704C765.393 897.704 764.769 897.272 764.241 896.552L747.489 875.384C746.673 874.328 746.145 873.8 745.857 873.8C745.473 873.8 745.473 874.52 745.473 876.152V890.84C745.473 895.208 746.289 895.4 749.649 895.736C749.937 896.024 749.937 897.032 749.649 897.32C747.633 897.272 745.425 897.224 744.321 897.224C743.169 897.224 741.009 897.272 738.945 897.32C738.657 897.032 738.657 896.024 738.945 895.736C742.305 895.4 743.121 895.112 743.121 890.84V870.824C742.833 869.576 741.393 867.896 739.329 867.752C739.041 867.464 739.041 866.456 739.329 866.168L745.809 866.264L762.273 887.144C763.665 888.92 764.385 889.784 764.577 889.784C764.913 889.784 764.913 889.256 764.913 888.344V872.648ZM773.755 887.384C773.755 884.36 774.667 881.576 776.395 879.512C778.123 877.448 780.763 876.152 783.931 876.152C791.275 876.152 794.011 881.96 794.011 886.952C794.011 889.928 793.003 892.952 790.843 895.016C789.211 896.648 786.907 897.704 783.835 897.704C777.019 897.704 773.755 892.28 773.755 887.384ZM783.211 877.832C778.891 877.832 777.883 882.104 777.883 886.28C777.883 889.976 779.515 896.024 784.507 896.024C786.763 896.024 789.883 894.536 789.883 888.488C789.883 881.576 787.339 877.832 783.211 877.832ZM813.927 883.688L822.615 883.544C823.143 883.544 823.335 883.304 823.335 882.872C823.335 878.84 821.175 877.832 819.351 877.832C818.199 877.832 814.839 878.264 813.927 883.688ZM826.503 892.76C827.079 892.808 827.367 893.048 827.511 893.528C825.591 896.024 822.999 897.704 819.351 897.704C815.895 897.704 813.639 896.552 812.007 894.632C810.423 892.808 809.751 890.216 809.751 887.528C809.751 880.232 815.175 876.248 819.351 876.248C826.023 876.248 827.463 880.568 827.463 884.6C827.463 885.128 827.127 885.416 826.551 885.416L813.783 885.32C813.783 888.104 814.359 890.312 815.319 891.896C816.807 894.344 818.823 895.352 820.551 895.352C823.335 895.352 824.727 894.584 826.503 892.76ZM837.851 880.04L840.779 884.36C841.115 884.936 841.307 884.936 841.691 884.456L844.811 880.088C845.963 878.504 845.387 878.312 843.659 878.12C843.371 877.832 843.371 876.824 843.659 876.536C844.907 876.584 846.251 876.632 847.691 876.632C849.131 876.632 850.235 876.584 851.195 876.536C851.483 876.824 851.483 877.832 851.195 878.12C849.419 878.264 848.315 878.504 846.539 880.76L842.507 885.896C842.267 886.184 842.267 886.376 842.507 886.616L846.827 892.712C848.747 895.448 849.419 895.592 851.627 895.736C851.915 896.024 851.915 897.032 851.627 897.32C850.475 897.272 849.179 897.224 847.355 897.224C845.627 897.224 844.043 897.272 842.603 897.32C842.315 897.032 842.315 896.024 842.603 895.736C844.091 895.592 844.859 895.496 843.227 893.192L840.443 889.352C840.107 888.968 839.963 888.92 839.579 889.448L836.555 893.816C835.451 895.4 835.883 895.592 837.611 895.736C837.899 896.024 837.899 897.032 837.611 897.32C836.363 897.272 835.019 897.224 833.579 897.224C832.139 897.224 831.083 897.272 830.123 897.32C829.835 897.032 829.835 896.024 830.123 895.736C831.803 895.64 832.859 895.496 834.779 893.048L838.811 887.864C838.955 887.672 838.955 887.528 838.763 887.144L834.587 881.048C833.243 879.08 831.899 878.264 830.267 878.12C829.979 877.832 829.979 876.824 830.267 876.536C831.515 876.584 832.955 876.632 834.395 876.632C835.835 876.632 837.947 876.584 839.243 876.536C839.531 876.824 839.531 877.832 839.243 878.12C837.083 878.36 836.747 878.456 837.851 880.04ZM854.71 876.632H856.918C856.918 871.304 856.774 871.64 856.774 871.064C856.774 870.776 857.254 870.584 857.83 870.44C858.406 870.248 858.886 870.056 859.462 869.768C859.894 869.528 860.278 869.336 860.518 869.336C860.758 869.336 860.902 869.432 860.902 869.72C860.902 869.72 860.71 871.64 860.71 874.76V876.632H866.47C866.71 876.632 866.854 876.728 866.854 876.92V877.88C866.854 878.312 866.182 878.504 865.702 878.504H860.71V890.648C860.71 893.624 860.998 895.064 862.294 895.064C863.542 895.064 864.982 894.68 866.23 893.72C866.71 893.768 866.998 894.056 867.094 894.536C865.222 896.648 862.822 897.704 860.614 897.704C858.406 897.704 856.918 896.36 856.918 892.952V878.504H854.086C853.894 878.504 853.846 878.456 853.846 878.216V877.592C853.846 877.208 854.038 876.632 854.71 876.632ZM876.282 880.04C876.282 880.28 876.522 880.664 876.81 880.136C877.914 878.264 879.882 876.152 882.138 876.152C884.154 876.152 885.018 877.544 885.018 878.456C885.018 879.656 883.914 880.856 882.762 880.856C881.898 880.856 881.37 880.232 880.986 879.752C880.65 879.272 880.218 879.128 879.786 879.128C879.21 879.128 878.106 880.712 877.578 881.48C877.002 882.344 876.426 883.448 876.426 884.696V891.368C876.426 895.352 877.002 895.496 880.362 895.736C880.65 896.024 880.65 897.032 880.362 897.32C878.682 897.272 876.474 897.224 874.554 897.224C872.634 897.224 870.762 897.272 869.082 897.32C868.794 897.032 868.794 896.024 869.082 895.736C872.058 895.544 872.634 895.352 872.634 891.368V882.008C872.634 879.224 872.106 878.984 869.514 878.744C869.418 878.456 869.322 877.688 869.418 877.4C872.73 876.968 873.978 876.536 875.322 876.008C875.706 876.008 875.754 876.2 875.898 876.392C876.09 876.92 876.186 878.12 876.282 880.04ZM899.757 886.04L895.965 887.048C892.413 887.96 891.405 890.168 891.405 892.328C891.405 893.816 892.461 895.736 894.861 895.736C896.205 895.736 897.837 894.632 899.085 893.624C899.469 893.336 899.757 893 899.757 892.376V886.04ZM899.757 894.92H899.661L898.701 895.688C896.589 897.32 895.101 897.704 893.469 897.704C890.109 897.704 887.421 896.456 887.421 892.52C887.421 889.256 890.733 886.712 895.341 885.56L899.469 884.552C899.613 884.504 899.757 884.312 899.757 883.976C899.757 878.552 897.501 877.736 895.869 877.736C894.045 877.736 892.029 878.264 892.029 879.752C892.029 880.28 892.077 880.568 892.125 880.712C892.221 880.904 892.269 881.24 892.269 881.576C892.269 882.2 891.405 883.208 890.013 883.208C888.909 883.208 888.333 882.632 888.333 881.48C888.333 878.744 892.317 876.152 896.253 876.152C899.757 876.152 903.501 877.448 903.501 884.264V891.32C903.501 893.528 903.549 895.4 904.941 895.4C905.517 895.4 906.333 894.968 906.717 894.632C907.245 894.968 907.437 895.352 907.533 895.928C906.525 896.888 904.797 897.704 902.973 897.704C900.525 897.704 900.045 896.408 899.757 894.92ZM921.935 890.6C922.223 890.312 923.135 890.264 923.423 890.552C923.711 891.752 924.239 893.864 925.295 894.968C925.775 895.496 926.831 896.12 928.703 896.12C930.479 896.12 932.783 895.112 932.783 892.76C932.783 890.696 931.871 889.688 927.887 888.056C924.191 886.52 922.607 885.032 922.607 881.528C922.607 878.456 925.823 876.152 929.375 876.152C931.871 876.152 934.175 876.824 935.663 877.064C935.615 878.648 935.519 880.424 935.375 882.152C935.087 882.44 934.127 882.488 933.839 882.2C933.215 878.12 930.431 877.736 929.375 877.736C927.743 877.736 926.015 878.84 926.015 880.808C926.015 883.448 927.887 884.216 930.815 885.272C934.079 886.472 936.431 888.392 936.431 891.656C936.431 896.408 931.487 897.704 928.799 897.704C927.023 897.704 925.727 897.512 924.431 897.176C924.095 897.08 923.807 897.08 923.471 897.08C923.231 897.08 922.751 897.128 922.271 897.224C922.271 895.208 922.127 892.952 921.935 890.6ZM940.398 876.632H942.606C942.606 871.304 942.462 871.64 942.462 871.064C942.462 870.776 942.942 870.584 943.518 870.44C944.094 870.248 944.574 870.056 945.15 869.768C945.582 869.528 945.966 869.336 946.206 869.336C946.446 869.336 946.59 869.432 946.59 869.72C946.59 869.72 946.398 871.64 946.398 874.76V876.632H952.158C952.398 876.632 952.542 876.728 952.542 876.92V877.88C952.542 878.312 951.87 878.504 951.39 878.504H946.398V890.648C946.398 893.624 946.686 895.064 947.982 895.064C949.23 895.064 950.67 894.68 951.918 893.72C952.398 893.768 952.686 894.056 952.782 894.536C950.91 896.648 948.51 897.704 946.302 897.704C944.094 897.704 942.606 896.36 942.606 892.952V878.504H939.774C939.582 878.504 939.534 878.456 939.534 878.216V877.592C939.534 877.208 939.726 876.632 940.398 876.632ZM967.585 886.04L963.793 887.048C960.241 887.96 959.233 890.168 959.233 892.328C959.233 893.816 960.289 895.736 962.689 895.736C964.033 895.736 965.665 894.632 966.913 893.624C967.297 893.336 967.585 893 967.585 892.376V886.04ZM967.585 894.92H967.489L966.529 895.688C964.417 897.32 962.929 897.704 961.297 897.704C957.937 897.704 955.249 896.456 955.249 892.52C955.249 889.256 958.561 886.712 963.169 885.56L967.297 884.552C967.441 884.504 967.585 884.312 967.585 883.976C967.585 878.552 965.329 877.736 963.697 877.736C961.873 877.736 959.857 878.264 959.857 879.752C959.857 880.28 959.905 880.568 959.953 880.712C960.049 880.904 960.097 881.24 960.097 881.576C960.097 882.2 959.233 883.208 957.841 883.208C956.737 883.208 956.161 882.632 956.161 881.48C956.161 878.744 960.145 876.152 964.081 876.152C967.585 876.152 971.329 877.448 971.329 884.264V891.32C971.329 893.528 971.377 895.4 972.769 895.4C973.345 895.4 974.161 894.968 974.545 894.632C975.073 894.968 975.265 895.352 975.361 895.928C974.353 896.888 972.625 897.704 970.801 897.704C968.353 897.704 967.873 896.408 967.585 894.92ZM977.523 876.632H979.731C979.731 871.304 979.587 871.64 979.587 871.064C979.587 870.776 980.067 870.584 980.643 870.44C981.219 870.248 981.699 870.056 982.275 869.768C982.707 869.528 983.091 869.336 983.331 869.336C983.571 869.336 983.715 869.432 983.715 869.72C983.715 869.72 983.523 871.64 983.523 874.76V876.632H989.283C989.523 876.632 989.667 876.728 989.667 876.92V877.88C989.667 878.312 988.995 878.504 988.515 878.504H983.523V890.648C983.523 893.624 983.811 895.064 985.107 895.064C986.355 895.064 987.795 894.68 989.043 893.72C989.523 893.768 989.811 894.056 989.907 894.536C988.035 896.648 985.635 897.704 983.427 897.704C981.219 897.704 979.731 896.36 979.731 892.952V878.504H976.899C976.707 878.504 976.659 878.456 976.659 878.216V877.592C976.659 877.208 976.851 876.632 977.523 876.632ZM996.598 883.688L1005.29 883.544C1005.81 883.544 1006.01 883.304 1006.01 882.872C1006.01 878.84 1003.85 877.832 1002.02 877.832C1000.87 877.832 997.51 878.264 996.598 883.688ZM1009.17 892.76C1009.75 892.808 1010.04 893.048 1010.18 893.528C1008.26 896.024 1005.67 897.704 1002.02 897.704C998.566 897.704 996.31 896.552 994.678 894.632C993.094 892.808 992.422 890.216 992.422 887.528C992.422 880.232 997.846 876.248 1002.02 876.248C1008.69 876.248 1010.13 880.568 1010.13 884.6C1010.13 885.128 1009.8 885.416 1009.22 885.416L996.454 885.32C996.454 888.104 997.03 890.312 997.99 891.896C999.478 894.344 1001.49 895.352 1003.22 895.352C1006.01 895.352 1007.4 894.584 1009.17 892.76ZM1014.42 890.6C1014.71 890.312 1015.62 890.264 1015.91 890.552C1016.2 891.752 1016.72 893.864 1017.78 894.968C1018.26 895.496 1019.32 896.12 1021.19 896.12C1022.96 896.12 1025.27 895.112 1025.27 892.76C1025.27 890.696 1024.36 889.688 1020.37 888.056C1016.68 886.52 1015.09 885.032 1015.09 881.528C1015.09 878.456 1018.31 876.152 1021.86 876.152C1024.36 876.152 1026.66 876.824 1028.15 877.064C1028.1 878.648 1028 880.424 1027.86 882.152C1027.57 882.44 1026.61 882.488 1026.32 882.2C1025.7 878.12 1022.92 877.736 1021.86 877.736C1020.23 877.736 1018.5 878.84 1018.5 880.808C1018.5 883.448 1020.37 884.216 1023.3 885.272C1026.56 886.472 1028.92 888.392 1028.92 891.656C1028.92 896.408 1023.97 897.704 1021.28 897.704C1019.51 897.704 1018.21 897.512 1016.92 897.176C1016.58 897.08 1016.29 897.08 1015.96 897.08C1015.72 897.08 1015.24 897.128 1014.76 897.224C1014.76 895.208 1014.61 892.952 1014.42 890.6ZM1051.65 880.04C1054.48 876.776 1057.17 876.152 1059.52 876.152C1061.2 876.152 1062.69 876.728 1063.51 877.784C1064.61 879.272 1064.8 881.576 1064.8 884.216V891.368C1064.8 895.304 1065.33 895.496 1068.02 895.736C1068.26 896.024 1068.26 897.032 1068.02 897.32C1066.58 897.272 1064.85 897.224 1062.93 897.224C1061.01 897.224 1059.47 897.272 1058.03 897.32C1057.79 897.032 1057.79 896.024 1058.03 895.736C1060.53 895.496 1061.01 895.304 1061.01 891.368V884.072C1061.01 882.632 1060.91 881.336 1060.43 880.376C1059.86 879.272 1058.85 878.648 1057.89 878.648C1056.02 878.648 1053.86 879.704 1052.03 881.48C1051.65 881.912 1051.22 882.488 1051.22 883.496V891.368C1051.22 895.304 1051.7 895.496 1054.15 895.736C1054.43 896.024 1054.43 897.032 1054.15 897.32C1052.71 897.272 1051.27 897.224 1049.35 897.224C1047.43 897.224 1045.51 897.272 1044.07 897.32C1043.78 897.032 1043.78 896.024 1044.07 895.736C1046.95 895.496 1047.43 895.304 1047.43 891.368V882.008C1047.43 879.224 1046.9 878.984 1044.31 878.744C1044.21 878.456 1044.11 877.688 1044.21 877.4C1047.52 876.968 1048.77 876.536 1050.11 876.008C1050.5 876.008 1050.55 876.2 1050.69 876.392C1050.88 876.92 1051.03 878.744 1051.07 880.04C1051.07 880.52 1051.31 880.376 1051.65 880.04ZM1074.79 883.688L1083.47 883.544C1084 883.544 1084.19 883.304 1084.19 882.872C1084.19 878.84 1082.03 877.832 1080.21 877.832C1079.06 877.832 1075.7 878.264 1074.79 883.688ZM1087.36 892.76C1087.94 892.808 1088.23 893.048 1088.37 893.528C1086.45 896.024 1083.86 897.704 1080.21 897.704C1076.75 897.704 1074.5 896.552 1072.87 894.632C1071.28 892.808 1070.61 890.216 1070.61 887.528C1070.61 880.232 1076.03 876.248 1080.21 876.248C1086.88 876.248 1088.32 880.568 1088.32 884.6C1088.32 885.128 1087.99 885.416 1087.41 885.416L1074.64 885.32C1074.64 888.104 1075.22 890.312 1076.18 891.896C1077.67 894.344 1079.68 895.352 1081.41 895.352C1084.19 895.352 1085.59 894.584 1087.36 892.76ZM1096.58 883.688L1105.27 883.544C1105.8 883.544 1105.99 883.304 1105.99 882.872C1105.99 878.84 1103.83 877.832 1102.01 877.832C1100.85 877.832 1097.49 878.264 1096.58 883.688ZM1109.16 892.76C1109.73 892.808 1110.02 893.048 1110.17 893.528C1108.25 896.024 1105.65 897.704 1102.01 897.704C1098.55 897.704 1096.29 896.552 1094.66 894.632C1093.08 892.808 1092.41 890.216 1092.41 887.528C1092.41 880.232 1097.83 876.248 1102.01 876.248C1108.68 876.248 1110.12 880.568 1110.12 884.6C1110.12 885.128 1109.78 885.416 1109.21 885.416L1096.44 885.32C1096.44 888.104 1097.01 890.312 1097.97 891.896C1099.46 894.344 1101.48 895.352 1103.21 895.352C1105.99 895.352 1107.38 894.584 1109.16 892.76ZM1128.99 891.272V882.152C1128.99 880.664 1128.84 880.328 1128.17 879.56C1127.21 878.456 1126.01 877.832 1124.28 877.832C1123.32 877.832 1121.31 877.976 1119.82 880.232C1119.1 881.24 1118.43 883.16 1118.43 886.616C1118.43 892.616 1121.12 895.448 1123.71 895.448C1124.91 895.448 1126.44 894.68 1128.22 893.144C1128.89 892.568 1128.99 892.184 1128.99 891.272ZM1128.46 894.824C1126.11 896.744 1124.33 897.704 1122.46 897.704C1117.28 897.704 1114.3 893.384 1114.3 887.48C1114.3 883.928 1115.55 881.096 1117.61 879.032C1119.53 877.208 1121.64 876.152 1124.81 876.152C1126.4 876.152 1128.36 876.968 1128.56 876.968C1128.89 876.968 1128.99 876.872 1128.99 876.536V870.392C1128.99 866.36 1128.41 866.6 1125.92 866.456C1125.63 866.168 1125.53 865.4 1125.63 865.016C1127.55 864.872 1131.15 864.2 1132.35 863.72C1132.78 863.72 1132.97 863.864 1132.97 864.2C1132.97 864.2 1132.78 866.12 1132.78 869.24V890.984C1132.78 893.336 1133.21 894.248 1136.28 894.488C1136.57 894.776 1136.57 895.496 1136.28 895.784C1133.36 896.12 1131.68 896.84 1130.62 897.704C1130.33 897.848 1130.09 897.848 1129.71 897.704C1129.71 897.704 1129.28 896.072 1129.18 894.872C1129.13 894.536 1128.65 894.632 1128.46 894.824ZM1142.66 883.688L1151.35 883.544C1151.88 883.544 1152.07 883.304 1152.07 882.872C1152.07 878.84 1149.91 877.832 1148.08 877.832C1146.93 877.832 1143.57 878.264 1142.66 883.688ZM1155.24 892.76C1155.81 892.808 1156.1 893.048 1156.24 893.528C1154.32 896.024 1151.73 897.704 1148.08 897.704C1144.63 897.704 1142.37 896.552 1140.74 894.632C1139.16 892.808 1138.48 890.216 1138.48 887.528C1138.48 880.232 1143.91 876.248 1148.08 876.248C1154.76 876.248 1156.2 880.568 1156.2 884.6C1156.2 885.128 1155.86 885.416 1155.28 885.416L1142.52 885.32C1142.52 888.104 1143.09 890.312 1144.05 891.896C1145.54 894.344 1147.56 895.352 1149.28 895.352C1152.07 895.352 1153.46 894.584 1155.24 892.76ZM1175.07 891.272V882.152C1175.07 880.664 1174.92 880.328 1174.25 879.56C1173.29 878.456 1172.09 877.832 1170.36 877.832C1169.4 877.832 1167.39 877.976 1165.9 880.232C1165.18 881.24 1164.51 883.16 1164.51 886.616C1164.51 892.616 1167.19 895.448 1169.79 895.448C1170.99 895.448 1172.52 894.68 1174.3 893.144C1174.97 892.568 1175.07 892.184 1175.07 891.272ZM1174.54 894.824C1172.19 896.744 1170.41 897.704 1168.54 897.704C1163.35 897.704 1160.38 893.384 1160.38 887.48C1160.38 883.928 1161.63 881.096 1163.69 879.032C1165.61 877.208 1167.72 876.152 1170.89 876.152C1172.47 876.152 1174.44 876.968 1174.63 876.968C1174.97 876.968 1175.07 876.872 1175.07 876.536V870.392C1175.07 866.36 1174.49 866.6 1171.99 866.456C1171.71 866.168 1171.61 865.4 1171.71 865.016C1173.63 864.872 1177.23 864.2 1178.43 863.72C1178.86 863.72 1179.05 863.864 1179.05 864.2C1179.05 864.2 1178.86 866.12 1178.86 869.24V890.984C1178.86 893.336 1179.29 894.248 1182.36 894.488C1182.65 894.776 1182.65 895.496 1182.36 895.784C1179.43 896.12 1177.75 896.84 1176.7 897.704C1176.41 897.848 1176.17 897.848 1175.79 897.704C1175.79 897.704 1175.35 896.072 1175.26 894.872C1175.21 894.536 1174.73 894.632 1174.54 894.824Z" fill="black"/>
<path id="From states to transitions" d="M646.112 123.328H640.16V136.192C640.16 141.504 641.248 141.824 645.728 142.016C646.112 142.4 646.112 143.744 645.728 144.128C643.488 144.064 640.352 144 637.472 144C634.592 144 631.392 144.064 629.152 144.128C628.768 143.744 628.768 142.4 629.152 142.016C633.632 141.824 634.72 141.504 634.72 136.192V110.528C634.72 105.216 633.632 104.896 629.152 104.704C628.768 104.32 628.768 102.976 629.152 102.592C631.712 102.656 635.36 102.72 637.408 102.72H653.728C655.328 102.72 655.584 102.72 656.736 102.464C656.864 102.464 656.928 102.528 656.992 102.656C657.056 103.168 658.016 109.312 658.4 111.936C657.888 112.128 657.184 112.256 656.416 112.256C655.008 107.84 653.408 105.28 646.624 105.28H643.744C640.928 105.28 640.16 105.92 640.16 109.376V120.896H646.112C651.552 120.896 651.744 120.064 651.936 116.544C652.32 116.16 653.664 116.16 654.048 116.544C653.984 118.208 653.92 119.936 653.92 122.048C653.92 124.288 653.984 126.08 654.048 127.68C653.664 128.064 652.32 128.064 651.936 127.68C651.744 124.8 651.552 123.328 646.112 123.328ZM670.327 121.088C670.327 121.408 670.647 121.92 671.031 121.216C672.503 118.72 675.127 115.904 678.135 115.904C680.823 115.904 681.975 117.76 681.975 118.976C681.975 120.576 680.503 122.176 678.967 122.176C677.815 122.176 677.111 121.344 676.599 120.704C676.151 120.064 675.575 119.872 674.999 119.872C674.231 119.872 672.759 121.984 672.055 123.008C671.287 124.16 670.519 125.632 670.519 127.296V136.192C670.519 141.504 671.287 141.696 675.767 142.016C676.151 142.4 676.151 143.744 675.767 144.128C673.527 144.064 670.583 144 668.023 144C665.463 144 662.967 144.064 660.727 144.128C660.343 143.744 660.343 142.4 660.727 142.016C664.695 141.76 665.463 141.504 665.463 136.192V123.712C665.463 120 664.759 119.68 661.303 119.36C661.174 118.976 661.047 117.952 661.174 117.568C665.591 116.992 667.255 116.416 669.047 115.712C669.559 115.712 669.623 115.968 669.815 116.224C670.071 116.928 670.199 118.528 670.327 121.088ZM684.999 130.88C684.999 126.848 686.215 123.136 688.519 120.384C690.823 117.632 694.343 115.904 698.567 115.904C708.359 115.904 712.007 123.648 712.007 130.304C712.007 134.272 710.663 138.304 707.783 141.056C705.607 143.232 702.535 144.64 698.439 144.64C689.351 144.64 684.999 137.408 684.999 130.88ZM697.607 118.144C691.847 118.144 690.503 123.84 690.503 129.408C690.503 134.336 692.679 142.4 699.335 142.4C702.343 142.4 706.503 140.416 706.503 132.352C706.503 123.136 703.111 118.144 697.607 118.144ZM725.505 121.088C725.505 121.856 725.953 121.472 726.273 121.088C728.897 118.144 732.289 115.904 736.001 115.904C739.329 115.904 741.761 118.016 742.401 120.64C742.529 121.152 742.913 120.832 743.105 120.64C746.433 117.12 750.337 115.904 753.665 115.904C759.297 115.904 760.257 120.384 760.257 126.08V136.192C760.257 141.44 760.833 141.76 764.353 142.016C764.673 142.4 764.673 143.744 764.353 144.128C762.561 144.064 760.321 144 757.761 144C755.201 144 752.833 144.064 751.233 144.128C750.913 143.744 750.913 142.4 751.233 142.016C754.561 141.76 755.201 141.44 755.201 136.192V124.928C755.201 120.64 753.793 119.232 751.361 119.232C748.865 119.232 745.985 120.064 742.913 123.456C742.977 124.224 742.977 125.12 742.977 126.016V136.192C742.977 141.44 743.553 141.76 746.753 142.016C747.073 142.4 747.073 143.744 746.753 144.128C745.153 144.064 743.041 144 740.481 144C737.921 144 735.553 144.064 733.953 144.128C733.633 143.744 733.633 142.4 733.953 142.016C737.409 141.76 737.921 141.44 737.921 136.192V125.056C737.921 120.768 736.129 119.232 733.697 119.232C731.713 119.232 729.281 120.576 726.785 123.008C726.273 123.584 725.697 124.352 725.697 125.696V136.192C725.697 141.44 726.401 141.696 729.601 142.016C729.985 142.4 729.985 143.744 729.601 144.128C727.681 144.064 725.761 144 723.201 144C720.641 144 718.209 144.064 716.289 144.128C715.905 143.744 715.905 142.4 716.289 142.016C719.809 141.76 720.641 141.44 720.641 136.192V123.712C720.641 120 719.937 119.68 716.481 119.36C716.353 118.976 716.225 117.952 716.353 117.568C720.769 116.992 722.433 116.416 724.225 115.712C724.737 115.712 724.801 115.968 724.993 116.224C725.249 116.928 725.377 119.232 725.505 121.088ZM784.26 135.168C784.644 134.784 785.86 134.72 786.244 135.104C786.628 136.704 787.332 139.52 788.74 140.992C789.38 141.696 790.788 142.528 793.284 142.528C795.652 142.528 798.724 141.184 798.724 138.048C798.724 135.296 797.508 133.952 792.196 131.776C787.268 129.728 785.156 127.744 785.156 123.072C785.156 118.976 789.444 115.904 794.18 115.904C797.508 115.904 800.58 116.8 802.564 117.12C802.5 119.232 802.372 121.6 802.18 123.904C801.796 124.288 800.516 124.352 800.132 123.968C799.3 118.528 795.588 118.016 794.18 118.016C792.004 118.016 789.7 119.488 789.7 122.112C789.7 125.632 792.196 126.656 796.1 128.064C800.452 129.664 803.588 132.224 803.588 136.576C803.588 142.912 796.996 144.64 793.412 144.64C791.044 144.64 789.316 144.384 787.588 143.936C787.14 143.808 786.756 143.808 786.308 143.808C785.988 143.808 785.348 143.872 784.708 144C784.708 141.312 784.516 138.304 784.26 135.168ZM808.877 116.544H811.821C811.821 109.44 811.629 109.888 811.629 109.12C811.629 108.736 812.269 108.48 813.037 108.288C813.805 108.032 814.445 107.776 815.213 107.392C815.789 107.072 816.301 106.816 816.621 106.816C816.941 106.816 817.133 106.944 817.133 107.328C817.133 107.328 816.877 109.888 816.877 114.048V116.544H824.557C824.877 116.544 825.069 116.672 825.069 116.928V118.208C825.069 118.784 824.173 119.04 823.533 119.04H816.877V135.232C816.877 139.2 817.261 141.12 818.989 141.12C820.653 141.12 822.573 140.608 824.237 139.328C824.877 139.392 825.261 139.776 825.389 140.416C822.893 143.232 819.693 144.64 816.749 144.64C813.805 144.64 811.821 142.848 811.821 138.304V119.04H808.045C807.789 119.04 807.725 118.976 807.725 118.656V117.824C807.725 117.312 807.981 116.544 808.877 116.544ZM845.127 129.088L840.071 130.432C835.335 131.648 833.991 134.592 833.991 137.472C833.991 139.456 835.399 142.016 838.599 142.016C840.391 142.016 842.567 140.544 844.231 139.2C844.743 138.816 845.127 138.368 845.127 137.536V129.088ZM845.127 140.928H844.999L843.719 141.952C840.903 144.128 838.919 144.64 836.743 144.64C832.263 144.64 828.679 142.976 828.679 137.728C828.679 133.376 833.095 129.984 839.239 128.448L844.743 127.104C844.935 127.04 845.127 126.784 845.127 126.336C845.127 119.104 842.119 118.016 839.943 118.016C837.511 118.016 834.823 118.72 834.823 120.704C834.823 121.408 834.887 121.792 834.951 121.984C835.079 122.24 835.143 122.688 835.143 123.136C835.143 123.968 833.991 125.312 832.135 125.312C830.663 125.312 829.895 124.544 829.895 123.008C829.895 119.36 835.207 115.904 840.455 115.904C845.127 115.904 850.119 117.632 850.119 126.72V136.128C850.119 139.072 850.183 141.568 852.039 141.568C852.807 141.568 853.895 140.992 854.407 140.544C855.111 140.992 855.367 141.504 855.495 142.272C854.151 143.552 851.847 144.64 849.415 144.64C846.151 144.64 845.511 142.912 845.127 140.928ZM858.377 116.544H861.321C861.321 109.44 861.129 109.888 861.129 109.12C861.129 108.736 861.769 108.48 862.537 108.288C863.305 108.032 863.945 107.776 864.713 107.392C865.289 107.072 865.801 106.816 866.121 106.816C866.441 106.816 866.633 106.944 866.633 107.328C866.633 107.328 866.377 109.888 866.377 114.048V116.544H874.057C874.377 116.544 874.569 116.672 874.569 116.928V118.208C874.569 118.784 873.673 119.04 873.033 119.04H866.377V135.232C866.377 139.2 866.761 141.12 868.489 141.12C870.153 141.12 872.073 140.608 873.737 139.328C874.377 139.392 874.761 139.776 874.889 140.416C872.393 143.232 869.193 144.64 866.249 144.64C863.305 144.64 861.321 142.848 861.321 138.304V119.04H857.545C857.289 119.04 857.225 118.976 857.225 118.656V117.824C857.225 117.312 857.481 116.544 858.377 116.544ZM883.811 125.952L895.395 125.76C896.099 125.76 896.355 125.44 896.355 124.864C896.355 119.488 893.475 118.144 891.043 118.144C889.507 118.144 885.027 118.72 883.811 125.952ZM900.579 138.048C901.347 138.112 901.731 138.432 901.923 139.072C899.363 142.4 895.907 144.64 891.043 144.64C886.435 144.64 883.427 143.104 881.251 140.544C879.139 138.112 878.243 134.656 878.243 131.072C878.243 121.344 885.475 116.032 891.043 116.032C899.939 116.032 901.859 121.792 901.859 127.168C901.859 127.872 901.411 128.256 900.643 128.256L883.619 128.128C883.619 131.84 884.387 134.784 885.667 136.896C887.651 140.16 890.339 141.504 892.643 141.504C896.355 141.504 898.211 140.48 900.579 138.048ZM907.572 135.168C907.956 134.784 909.172 134.72 909.556 135.104C909.94 136.704 910.644 139.52 912.052 140.992C912.692 141.696 914.1 142.528 916.596 142.528C918.964 142.528 922.036 141.184 922.036 138.048C922.036 135.296 920.82 133.952 915.508 131.776C910.58 129.728 908.468 127.744 908.468 123.072C908.468 118.976 912.756 115.904 917.492 115.904C920.82 115.904 923.892 116.8 925.876 117.12C925.812 119.232 925.684 121.6 925.492 123.904C925.108 124.288 923.828 124.352 923.444 123.968C922.612 118.528 918.9 118.016 917.492 118.016C915.316 118.016 913.012 119.488 913.012 122.112C913.012 125.632 915.508 126.656 919.412 128.064C923.764 129.664 926.9 132.224 926.9 136.576C926.9 142.912 920.308 144.64 916.724 144.64C914.356 144.64 912.628 144.384 910.9 143.936C910.452 143.808 910.068 143.808 909.62 143.808C909.3 143.808 908.66 143.872 908.02 144C908.02 141.312 907.828 138.304 907.572 135.168ZM948.19 116.544H951.134C951.134 109.44 950.942 109.888 950.942 109.12C950.942 108.736 951.582 108.48 952.35 108.288C953.118 108.032 953.758 107.776 954.526 107.392C955.102 107.072 955.614 106.816 955.934 106.816C956.254 106.816 956.446 106.944 956.446 107.328C956.446 107.328 956.19 109.888 956.19 114.048V116.544H963.87C964.19 116.544 964.382 116.672 964.382 116.928V118.208C964.382 118.784 963.486 119.04 962.846 119.04H956.19V135.232C956.19 139.2 956.574 141.12 958.302 141.12C959.966 141.12 961.885 140.608 963.55 139.328C964.19 139.392 964.574 139.776 964.702 140.416C962.206 143.232 959.006 144.64 956.062 144.64C953.118 144.64 951.134 142.848 951.134 138.304V119.04H947.358C947.102 119.04 947.038 118.976 947.038 118.656V117.824C947.038 117.312 947.294 116.544 948.19 116.544ZM968.312 130.88C968.312 126.848 969.528 123.136 971.832 120.384C974.135 117.632 977.656 115.904 981.88 115.904C991.672 115.904 995.32 123.648 995.32 130.304C995.32 134.272 993.976 138.304 991.096 141.056C988.92 143.232 985.848 144.64 981.752 144.64C972.664 144.64 968.312 137.408 968.312 130.88ZM980.92 118.144C975.16 118.144 973.816 123.84 973.816 129.408C973.816 134.336 975.992 142.4 982.648 142.4C985.656 142.4 989.816 140.416 989.816 132.352C989.816 123.136 986.424 118.144 980.92 118.144ZM1016.69 116.544H1019.63C1019.63 109.44 1019.44 109.888 1019.44 109.12C1019.44 108.736 1020.08 108.48 1020.85 108.288C1021.62 108.032 1022.26 107.776 1023.03 107.392C1023.6 107.072 1024.11 106.816 1024.43 106.816C1024.75 106.816 1024.95 106.944 1024.95 107.328C1024.95 107.328 1024.69 109.888 1024.69 114.048V116.544H1032.37C1032.69 116.544 1032.88 116.672 1032.88 116.928V118.208C1032.88 118.784 1031.99 119.04 1031.35 119.04H1024.69V135.232C1024.69 139.2 1025.07 141.12 1026.8 141.12C1028.47 141.12 1030.39 140.608 1032.05 139.328C1032.69 139.392 1033.07 139.776 1033.2 140.416C1030.71 143.232 1027.51 144.64 1024.56 144.64C1021.62 144.64 1019.63 142.848 1019.63 138.304V119.04H1015.86C1015.6 119.04 1015.54 118.976 1015.54 118.656V117.824C1015.54 117.312 1015.79 116.544 1016.69 116.544ZM1045.45 121.088C1045.45 121.408 1045.77 121.92 1046.16 121.216C1047.63 118.72 1050.25 115.904 1053.26 115.904C1055.95 115.904 1057.1 117.76 1057.1 118.976C1057.1 120.576 1055.63 122.176 1054.09 122.176C1052.94 122.176 1052.24 121.344 1051.72 120.704C1051.28 120.064 1050.7 119.872 1050.12 119.872C1049.36 119.872 1047.88 121.984 1047.18 123.008C1046.41 124.16 1045.64 125.632 1045.64 127.296V136.192C1045.64 141.504 1046.41 141.696 1050.89 142.016C1051.28 142.4 1051.28 143.744 1050.89 144.128C1048.65 144.064 1045.71 144 1043.15 144C1040.59 144 1038.09 144.064 1035.85 144.128C1035.47 143.744 1035.47 142.4 1035.85 142.016C1039.82 141.76 1040.59 141.504 1040.59 136.192V123.712C1040.59 120 1039.88 119.68 1036.43 119.36C1036.3 118.976 1036.17 117.952 1036.3 117.568C1040.72 116.992 1042.38 116.416 1044.17 115.712C1044.68 115.712 1044.75 115.968 1044.94 116.224C1045.2 116.928 1045.32 118.528 1045.45 121.088ZM1076.75 129.088L1071.7 130.432C1066.96 131.648 1065.62 134.592 1065.62 137.472C1065.62 139.456 1067.02 142.016 1070.22 142.016C1072.02 142.016 1074.19 140.544 1075.86 139.2C1076.37 138.816 1076.75 138.368 1076.75 137.536V129.088ZM1076.75 140.928H1076.62L1075.34 141.952C1072.53 144.128 1070.54 144.64 1068.37 144.64C1063.89 144.64 1060.3 142.976 1060.3 137.728C1060.3 133.376 1064.72 129.984 1070.86 128.448L1076.37 127.104C1076.56 127.04 1076.75 126.784 1076.75 126.336C1076.75 119.104 1073.74 118.016 1071.57 118.016C1069.14 118.016 1066.45 118.72 1066.45 120.704C1066.45 121.408 1066.51 121.792 1066.58 121.984C1066.7 122.24 1066.77 122.688 1066.77 123.136C1066.77 123.968 1065.62 125.312 1063.76 125.312C1062.29 125.312 1061.52 124.544 1061.52 123.008C1061.52 119.36 1066.83 115.904 1072.08 115.904C1076.75 115.904 1081.74 117.632 1081.74 126.72V136.128C1081.74 139.072 1081.81 141.568 1083.66 141.568C1084.43 141.568 1085.52 140.992 1086.03 140.544C1086.74 140.992 1086.99 141.504 1087.12 142.272C1085.78 143.552 1083.47 144.64 1081.04 144.64C1077.78 144.64 1077.14 142.912 1076.75 140.928ZM1099.03 121.088C1102.8 116.736 1106.39 115.904 1109.52 115.904C1111.76 115.904 1113.75 116.672 1114.83 118.08C1116.31 120.064 1116.56 123.136 1116.56 126.656V136.192C1116.56 141.44 1117.27 141.696 1120.85 142.016C1121.17 142.4 1121.17 143.744 1120.85 144.128C1118.93 144.064 1116.63 144 1114.07 144C1111.51 144 1109.46 144.064 1107.54 144.128C1107.22 143.744 1107.22 142.4 1107.54 142.016C1110.87 141.696 1111.51 141.44 1111.51 136.192V126.464C1111.51 124.544 1111.38 122.816 1110.74 121.536C1109.97 120.064 1108.63 119.232 1107.35 119.232C1104.85 119.232 1101.97 120.64 1099.54 123.008C1099.03 123.584 1098.45 124.352 1098.45 125.696V136.192C1098.45 141.44 1099.09 141.696 1102.35 142.016C1102.74 142.4 1102.74 143.744 1102.35 144.128C1100.43 144.064 1098.51 144 1095.95 144C1093.39 144 1090.83 144.064 1088.91 144.128C1088.53 143.744 1088.53 142.4 1088.91 142.016C1092.75 141.696 1093.39 141.44 1093.39 136.192V123.712C1093.39 120 1092.69 119.68 1089.23 119.36C1089.11 118.976 1088.98 117.952 1089.11 117.568C1093.52 116.992 1095.19 116.416 1096.98 115.712C1097.49 115.712 1097.55 115.968 1097.75 116.224C1098 116.928 1098.19 119.36 1098.26 121.088C1098.26 121.728 1098.58 121.536 1099.03 121.088ZM1125.01 135.168C1125.39 134.784 1126.61 134.72 1126.99 135.104C1127.38 136.704 1128.08 139.52 1129.49 140.992C1130.13 141.696 1131.54 142.528 1134.03 142.528C1136.4 142.528 1139.47 141.184 1139.47 138.048C1139.47 135.296 1138.26 133.952 1132.95 131.776C1128.02 129.728 1125.91 127.744 1125.91 123.072C1125.91 118.976 1130.19 115.904 1134.93 115.904C1138.26 115.904 1141.33 116.8 1143.31 117.12C1143.25 119.232 1143.12 121.6 1142.93 123.904C1142.55 124.288 1141.27 124.352 1140.88 123.968C1140.05 118.528 1136.34 118.016 1134.93 118.016C1132.75 118.016 1130.45 119.488 1130.45 122.112C1130.45 125.632 1132.95 126.656 1136.85 128.064C1141.2 129.664 1144.34 132.224 1144.34 136.576C1144.34 142.912 1137.75 144.64 1134.16 144.64C1131.79 144.64 1130.07 144.384 1128.34 143.936C1127.89 143.808 1127.51 143.808 1127.06 143.808C1126.74 143.808 1126.1 143.872 1125.46 144C1125.46 141.312 1125.27 138.304 1125.01 135.168ZM1152.64 105.664C1152.64 104.128 1154.43 102.592 1155.96 102.592C1157.69 102.592 1159.04 104.384 1159.04 105.92C1159.04 107.328 1157.5 108.992 1155.71 108.992C1154.17 108.992 1152.64 107.328 1152.64 105.664ZM1158.46 136.192C1158.46 141.504 1159.16 141.76 1163.07 142.016C1163.45 142.4 1163.45 143.744 1163.07 144.128C1160.96 144.064 1158.52 144 1155.96 144C1153.4 144 1150.91 144.064 1148.8 144.128C1148.41 143.744 1148.41 142.4 1148.8 142.016C1152.7 141.696 1153.4 141.504 1153.4 136.192V123.712C1153.4 120.064 1152.7 119.744 1149.24 119.36C1149.12 118.976 1148.99 117.952 1149.12 117.568C1153.53 116.992 1156.03 116.416 1157.88 115.712C1158.4 115.712 1158.72 115.904 1158.72 116.16C1158.72 116.16 1158.46 120.256 1158.46 123.456V136.192ZM1167 116.544H1169.95C1169.95 109.44 1169.75 109.888 1169.75 109.12C1169.75 108.736 1170.39 108.48 1171.16 108.288C1171.93 108.032 1172.57 107.776 1173.34 107.392C1173.91 107.072 1174.43 106.816 1174.75 106.816C1175.07 106.816 1175.26 106.944 1175.26 107.328C1175.26 107.328 1175 109.888 1175 114.048V116.544H1182.68C1183 116.544 1183.19 116.672 1183.19 116.928V118.208C1183.19 118.784 1182.3 119.04 1181.66 119.04H1175V135.232C1175 139.2 1175.39 141.12 1177.11 141.12C1178.78 141.12 1180.7 140.608 1182.36 139.328C1183 139.392 1183.39 139.776 1183.51 140.416C1181.02 143.232 1177.82 144.64 1174.87 144.64C1171.93 144.64 1169.95 142.848 1169.95 138.304V119.04H1166.17C1165.91 119.04 1165.85 118.976 1165.85 118.656V117.824C1165.85 117.312 1166.11 116.544 1167 116.544ZM1190.26 105.664C1190.26 104.128 1192.05 102.592 1193.59 102.592C1195.32 102.592 1196.66 104.384 1196.66 105.92C1196.66 107.328 1195.12 108.992 1193.33 108.992C1191.8 108.992 1190.26 107.328 1190.26 105.664ZM1196.08 136.192C1196.08 141.504 1196.79 141.76 1200.69 142.016C1201.08 142.4 1201.08 143.744 1200.69 144.128C1198.58 144.064 1196.15 144 1193.59 144C1191.03 144 1188.53 144.064 1186.42 144.128C1186.04 143.744 1186.04 142.4 1186.42 142.016C1190.32 141.696 1191.03 141.504 1191.03 136.192V123.712C1191.03 120.064 1190.32 119.744 1186.87 119.36C1186.74 118.976 1186.61 117.952 1186.74 117.568C1191.16 116.992 1193.65 116.416 1195.51 115.712C1196.02 115.712 1196.34 115.904 1196.34 116.16C1196.34 116.16 1196.08 120.256 1196.08 123.456V136.192ZM1204.5 130.88C1204.5 126.848 1205.72 123.136 1208.02 120.384C1210.32 117.632 1213.84 115.904 1218.07 115.904C1227.86 115.904 1231.51 123.648 1231.51 130.304C1231.51 134.272 1230.16 138.304 1227.28 141.056C1225.11 143.232 1222.04 144.64 1217.94 144.64C1208.85 144.64 1204.5 137.408 1204.5 130.88ZM1217.11 118.144C1211.35 118.144 1210 123.84 1210 129.408C1210 134.336 1212.18 142.4 1218.84 142.4C1221.84 142.4 1226 140.416 1226 132.352C1226 123.136 1222.61 118.144 1217.11 118.144ZM1245.9 121.088C1249.68 116.736 1253.26 115.904 1256.4 115.904C1258.64 115.904 1260.62 116.672 1261.71 118.08C1263.18 120.064 1263.44 123.136 1263.44 126.656V136.192C1263.44 141.44 1264.14 141.696 1267.73 142.016C1268.05 142.4 1268.05 143.744 1267.73 144.128C1265.81 144.064 1263.5 144 1260.94 144C1258.38 144 1256.33 144.064 1254.41 144.128C1254.09 143.744 1254.09 142.4 1254.41 142.016C1257.74 141.696 1258.38 141.44 1258.38 136.192V126.464C1258.38 124.544 1258.25 122.816 1257.61 121.536C1256.85 120.064 1255.5 119.232 1254.22 119.232C1251.73 119.232 1248.85 120.64 1246.41 123.008C1245.9 123.584 1245.33 124.352 1245.33 125.696V136.192C1245.33 141.44 1245.97 141.696 1249.23 142.016C1249.61 142.4 1249.61 143.744 1249.23 144.128C1247.31 144.064 1245.39 144 1242.83 144C1240.27 144 1237.71 144.064 1235.79 144.128C1235.41 143.744 1235.41 142.4 1235.79 142.016C1239.63 141.696 1240.27 141.44 1240.27 136.192V123.712C1240.27 120 1239.57 119.68 1236.11 119.36C1235.98 118.976 1235.85 117.952 1235.98 117.568C1240.4 116.992 1242.06 116.416 1243.85 115.712C1244.37 115.712 1244.43 115.968 1244.62 116.224C1244.88 116.928 1245.07 119.36 1245.13 121.088C1245.13 121.728 1245.45 121.536 1245.9 121.088ZM1271.88 135.168C1272.27 134.784 1273.48 134.72 1273.87 135.104C1274.25 136.704 1274.96 139.52 1276.36 140.992C1277 141.696 1278.41 142.528 1280.91 142.528C1283.28 142.528 1286.35 141.184 1286.35 138.048C1286.35 135.296 1285.13 133.952 1279.82 131.776C1274.89 129.728 1272.78 127.744 1272.78 123.072C1272.78 118.976 1277.07 115.904 1281.8 115.904C1285.13 115.904 1288.2 116.8 1290.19 117.12C1290.12 119.232 1290 121.6 1289.8 123.904C1289.42 124.288 1288.14 124.352 1287.76 123.968C1286.92 118.528 1283.21 118.016 1281.8 118.016C1279.63 118.016 1277.32 119.488 1277.32 122.112C1277.32 125.632 1279.82 126.656 1283.72 128.064C1288.08 129.664 1291.21 132.224 1291.21 136.576C1291.21 142.912 1284.62 144.64 1281.04 144.64C1278.67 144.64 1276.94 144.384 1275.21 143.936C1274.76 143.808 1274.38 143.808 1273.93 143.808C1273.61 143.808 1272.97 143.872 1272.33 144C1272.33 141.312 1272.14 138.304 1271.88 135.168Z" fill="black"/>
</g>
</svg>
