<svg width="1920" height="1080" viewBox="0 0 1920 1080" fill="none" xmlns="http://www.w3.org/2000/svg">
<g id="Exist projection">
<rect width="1920" height="1080" fill="white"/>
<g id="\mathcal{A}_{\varphi(X)}" clip-path="url(#clip0_36_426)">
<g id="page1">
<path id="Vector" d="M264.748 613.667C265.17 618.987 266.183 622.871 266.606 624.476C267.535 628.276 267.957 630.134 271.588 630.134C275.388 630.134 281.891 626.334 281.891 624.645C281.891 624.223 281.553 624.054 281.131 624.054C280.033 624.054 278.259 624.983 278.006 625.151C277.415 625.489 277.246 625.489 277.077 625.489C274.713 625.489 274.206 623.209 273.193 618.142C272.601 615.355 271.841 611.978 271.166 600.408C270.575 591.794 270.237 583.181 270.237 574.567C270.237 572.54 270.321 570.345 270.321 568.318C270.321 566.967 270.321 566.629 269.392 566.629C268.21 566.629 264.748 568.065 263.228 570.345L262.637 571.274C255.965 585.545 249.716 595.764 245.325 602.604C240.342 610.289 231.56 624.054 226.999 624.054C223.875 624.054 221.257 622.027 220.497 618.987C220.413 618.818 220.244 618.311 219.906 618.311C218.639 618.311 216.781 622.365 216.781 624.729C216.781 628.107 220.413 631.823 224.382 631.823C230.208 631.823 239.92 616.622 241.778 613.667H264.748ZM263.059 577.016V581.914C263.059 586.812 263.228 591.71 263.481 596.608C263.566 598.297 263.903 604.631 264.326 609.022H248.872C247.52 609.022 246.254 609.022 244.058 610.373C249.969 601.253 254.867 592.47 255.374 591.541C259.596 584.025 261.877 579.127 262.974 577.016H263.059Z" fill="black"/>
<path id="Vector_2" d="M298.031 641.245C298.65 641.301 299.326 641.301 299.945 641.301C309.854 641.301 318.805 632.687 318.805 623.961C318.805 619.851 316.553 615.91 311.768 615.91C307.771 615.91 304.618 618.669 302.31 622.328C299.833 626.325 298.707 629.929 296.398 637.247C290.262 636.347 286.602 633.419 286.602 629.309C286.602 628.071 287.785 621.934 291.163 618.218C291.838 617.487 291.838 617.374 291.838 617.149C291.838 617.092 291.838 616.473 290.994 616.473C289.023 616.473 284.801 624.918 284.801 629.872C284.801 634.095 287.278 638.824 295.216 640.794L293.527 646.086C292.457 649.521 292.007 650.815 292.007 651.209C292.007 652.561 293.246 652.955 293.865 652.955C294.315 652.955 295.892 652.73 296.342 650.759C296.736 648.789 297.637 643.722 298.031 641.245ZM298.763 637.529C299.833 631.055 300.396 627.789 303.605 623.848C306.251 620.583 309.009 619.626 311.205 619.626C314.695 619.626 316.891 622.047 316.891 625.143C316.891 631.055 309.741 637.585 300.508 637.585C300.001 637.585 299.27 637.585 298.763 637.529Z" fill="black"/>
<path id="Vector_3" d="M339.66 654.812C340.11 654.812 340.786 654.812 340.786 654.137C340.786 653.912 340.729 653.855 339.997 653.123C332.285 645.861 330.37 635.389 330.37 626.663C330.37 610.449 337.07 602.849 339.941 600.259C340.729 599.527 340.786 599.471 340.786 599.189C340.786 598.908 340.56 598.514 339.997 598.514C339.097 598.514 336.282 601.385 335.831 601.892C328.287 609.773 326.711 619.907 326.711 626.663C326.711 639.274 332.003 649.408 339.66 654.812Z" fill="black"/>
<path id="Vector_4" d="M373.563 619.231C376.265 616.472 384.26 608.253 385.611 607.183C387.975 605.382 389.383 604.368 393.436 604.143C393.774 604.087 394.225 603.805 394.225 603.073C394.225 602.567 393.718 602.285 393.436 602.285C392.873 602.285 392.536 602.454 388.144 602.454C383.922 602.454 382.402 602.285 382.12 602.285C381.895 602.285 380.994 602.285 380.994 603.355C380.994 603.411 380.994 604.087 381.839 604.143C382.233 604.199 383.753 604.312 383.753 605.607C383.753 606.001 383.528 606.62 383.077 607.071L382.909 607.352C382.74 607.521 382.74 607.634 382.177 608.14L372.775 617.655L367.032 605.719C367.82 604.368 369.509 604.199 370.185 604.143C370.467 604.143 371.255 604.087 371.255 603.13C371.255 602.623 370.861 602.285 370.354 602.285C369.791 602.285 367.652 602.398 367.089 602.398C366.751 602.454 364.668 602.454 363.485 602.454C358.25 602.454 357.574 602.285 357.067 602.285C356.842 602.285 355.941 602.285 355.941 603.355C355.941 604.143 356.673 604.143 357.574 604.143C360.389 604.143 360.896 604.706 361.402 605.776L368.89 621.539L357.349 633.306C353.971 636.684 351.325 638.654 347.328 638.879C346.652 638.936 345.977 638.936 345.977 639.949C345.977 640.287 346.258 640.737 346.821 640.737C347.215 640.737 347.834 640.568 352.113 640.568C356.167 640.568 357.912 640.737 358.137 640.737C358.419 640.737 359.263 640.737 359.263 639.668C359.263 639.555 359.207 638.936 358.362 638.879C357.293 638.823 356.504 638.429 356.504 637.416C356.504 636.515 357.18 635.783 358.024 634.938C358.982 633.869 361.909 630.941 363.936 628.971C365.231 627.676 368.383 624.411 369.678 623.172L376.153 636.627C376.434 637.19 376.434 637.247 376.434 637.303C376.434 637.81 375.252 638.767 373.394 638.879C373 638.879 372.268 638.936 372.268 639.949C372.268 640.005 372.324 640.737 373.225 640.737C373.788 640.737 375.871 640.625 376.434 640.568H380.037C385.217 640.568 386.005 640.737 386.512 640.737C386.737 640.737 387.581 640.737 387.581 639.668C387.581 638.879 386.849 638.879 386.005 638.879C382.965 638.879 382.627 638.204 382.233 637.359L373.563 619.231Z" fill="black"/>
<path id="Vector_5" d="M415.167 626.663C415.167 621.315 414.266 614.897 410.776 608.253C408.017 603.074 402.894 598.514 401.88 598.514C401.317 598.514 401.148 598.908 401.148 599.189C401.148 599.414 401.148 599.527 401.824 600.203C409.706 607.69 411.507 617.993 411.507 626.663C411.507 642.821 404.808 650.477 401.937 653.067C401.205 653.799 401.148 653.855 401.148 654.137C401.148 654.418 401.317 654.812 401.88 654.812C402.781 654.812 405.596 651.941 406.046 651.435C413.59 643.553 415.167 633.419 415.167 626.663Z" fill="black"/>
</g>
</g>
<g id="Group 90">
<circle id="Ellipse 99" cx="557.207" cy="743.754" r="59.878" fill="#EBEBEB" stroke="black" stroke-width="5.096"/>
<path id="Vector 120" d="M590.641 676.891L588.752 679.131L593.231 682.91L595.12 680.671L592.881 678.781L590.641 676.891ZM740.456 619.394C741.431 618.102 741.173 616.264 739.882 615.29L718.829 599.408C717.537 598.433 715.699 598.69 714.725 599.982C713.75 601.274 714.007 603.111 715.299 604.086L734.013 618.203L719.896 636.917C718.921 638.209 719.178 640.047 720.47 641.021C721.762 641.996 723.599 641.739 724.574 640.447L740.456 619.394ZM592.881 678.781L595.12 680.671C628.739 640.826 674.834 629.447 738.523 620.531L738.117 617.629L737.711 614.727C674 623.647 625.818 635.2 590.641 676.891L592.881 678.781Z" fill="black"/>
<path id="Vector 121" d="M590.641 810.617L588.752 808.377L593.231 804.598L595.12 806.837L592.881 808.727L590.641 810.617ZM740.456 868.114C741.431 869.406 741.173 871.244 739.882 872.218L718.829 888.1C717.537 889.075 715.699 888.818 714.725 887.526C713.75 886.234 714.007 884.396 715.299 883.422L734.013 869.304L719.896 850.591C718.921 849.299 719.178 847.461 720.47 846.487C721.762 845.512 723.599 845.769 724.574 847.061L740.456 868.114ZM592.881 808.727L595.12 806.837C628.739 846.682 674.834 858.061 738.523 866.977L738.117 869.879L737.711 872.781C674 863.861 625.818 852.308 590.641 810.617L592.881 808.727Z" fill="black"/>
</g>
<path id="(a, 0X)" d="M589.714 608.423L588.983 609.412C587.378 608.466 585.959 607.262 584.726 605.8C583.522 604.338 582.591 602.647 581.931 600.726C581.272 598.805 580.942 596.684 580.942 594.362C580.942 591.581 581.329 588.973 582.103 586.536C582.906 584.071 584.038 581.82 585.5 579.785C586.962 577.721 588.682 575.886 590.66 574.281C592.638 572.676 594.803 571.328 597.153 570.239L597.712 571.314C595.906 572.346 594.201 573.593 592.595 575.055C590.99 576.488 589.557 578.165 588.295 580.086C587.034 581.978 586.045 584.171 585.328 586.665C584.612 589.159 584.253 591.983 584.253 595.136C584.253 597.085 584.44 598.891 584.812 600.554C585.214 602.188 585.816 603.664 586.618 604.983C587.421 606.302 588.453 607.448 589.714 608.423ZM600.974 602.145C599.999 602.145 599.11 601.901 598.308 601.414C597.534 600.898 596.903 600.11 596.416 599.049C595.957 597.988 595.728 596.612 595.728 594.921C595.728 593 596.029 591.209 596.631 589.546C597.233 587.855 598.035 586.378 599.039 585.117C600.071 583.827 601.232 582.824 602.522 582.107C603.812 581.39 605.145 581.032 606.521 581.032C607.61 581.032 608.484 581.247 609.144 581.677C609.803 582.107 610.362 582.652 610.821 583.311H610.993L612.498 581.333H614.691L611.509 596.555C611.509 596.555 611.466 596.741 611.38 597.114C611.322 597.487 611.294 597.831 611.294 598.146C611.294 598.433 611.351 598.662 611.466 598.834C611.58 598.977 611.795 599.049 612.111 599.049C612.569 599.049 612.999 598.92 613.401 598.662C613.802 598.375 614.16 598.06 614.476 597.716C614.82 597.343 615.078 597.042 615.25 596.813L616.11 597.458C615.565 598.289 614.992 599.063 614.39 599.78C613.788 600.468 613.128 601.027 612.412 601.457C611.695 601.858 610.892 602.059 610.004 602.059C609.258 602.059 608.685 601.901 608.284 601.586C607.882 601.242 607.682 600.726 607.682 600.038C607.682 599.723 607.71 599.393 607.768 599.049C607.854 598.676 607.911 598.318 607.94 597.974H607.682C606.621 599.35 605.532 600.396 604.414 601.113C603.296 601.801 602.149 602.145 600.974 602.145ZM602.522 599.307C603.41 599.307 604.256 599.078 605.059 598.619C605.861 598.132 606.564 597.487 607.166 596.684C607.796 595.853 608.241 594.921 608.499 593.889C608.642 593.316 608.814 592.57 609.015 591.653C609.244 590.707 609.43 589.775 609.574 588.858C609.746 587.912 609.832 587.167 609.832 586.622C609.832 585.647 609.531 584.744 608.929 583.913C608.327 583.082 607.438 582.666 606.263 582.666C605.288 582.666 604.385 582.996 603.554 583.655C602.722 584.314 602.006 585.203 601.404 586.321C600.802 587.439 600.329 588.7 599.985 590.105C599.669 591.481 599.512 592.9 599.512 594.362C599.512 596.283 599.784 597.587 600.329 598.275C600.902 598.963 601.633 599.307 602.522 599.307ZM617.106 607.133L616.633 606.144C617.379 605.771 618.196 605.227 619.084 604.51C619.973 603.793 620.632 602.704 621.062 601.242L619.729 599.909L622.481 600.382C621.707 600.984 620.948 601.285 620.202 601.285C619.715 601.285 619.213 601.127 618.697 600.812C618.21 600.468 617.966 599.895 617.966 599.092C617.966 598.375 618.21 597.759 618.697 597.243C619.213 596.698 619.916 596.426 620.804 596.426C621.693 596.426 622.367 596.727 622.825 597.329C623.313 597.902 623.556 598.705 623.556 599.737C623.556 600.826 623.313 601.787 622.825 602.618C622.367 603.449 621.779 604.166 621.062 604.768C620.374 605.399 619.672 605.9 618.955 606.273C618.239 606.674 617.622 606.961 617.106 607.133ZM645.865 602.102C644.173 602.102 642.812 601.658 641.78 600.769C640.748 599.88 640.002 598.691 639.544 597.2C639.085 595.709 638.856 594.075 638.856 592.298C638.856 589.833 639.128 587.511 639.673 585.332C640.246 583.125 641.049 581.175 642.081 579.484C643.141 577.793 644.431 576.46 645.951 575.485C647.499 574.51 649.233 574.023 651.154 574.023C653.304 574.023 654.995 574.897 656.228 576.646C657.46 578.395 658.077 580.817 658.077 583.913C658.077 585.518 657.919 587.181 657.604 588.901C657.317 590.592 656.858 592.226 656.228 593.803C655.597 595.351 654.794 596.756 653.82 598.017C652.845 599.278 651.698 600.282 650.38 601.027C649.061 601.744 647.556 602.102 645.865 602.102ZM646.252 600.554C647.341 600.554 648.301 600.21 649.133 599.522C649.993 598.834 650.738 597.888 651.369 596.684C651.999 595.48 652.515 594.118 652.917 592.599C653.347 591.051 653.662 589.417 653.863 587.697C654.063 585.977 654.164 584.271 654.164 582.58C654.164 577.85 652.988 575.485 650.638 575.485C649.52 575.485 648.531 575.858 647.671 576.603C646.839 577.32 646.108 578.294 645.478 579.527C644.847 580.76 644.331 582.15 643.93 583.698C643.528 585.246 643.227 586.866 643.027 588.557C642.855 590.22 642.769 591.839 642.769 593.416C642.769 595.738 643.055 597.515 643.629 598.748C644.231 599.952 645.105 600.554 646.252 600.554ZM674.232 610.629H666.776L666.957 609.778H667.189C667.739 609.778 668.152 609.7 668.427 609.545C668.72 609.373 668.866 609.115 668.866 608.771C668.866 608.565 668.823 608.324 668.737 608.049C668.651 607.757 668.522 607.387 668.35 606.94L667.318 604.566L666.725 602.941L666.363 602.45L663.629 596.62C663.371 596.086 663.138 595.674 662.932 595.381C662.743 595.072 662.493 594.857 662.184 594.736C661.891 594.616 661.453 594.556 660.868 594.556L661.049 593.678H668.376L668.195 594.556H667.911C667.395 594.556 667.008 594.624 666.75 594.762C666.51 594.882 666.389 595.115 666.389 595.459C666.389 595.751 666.492 596.129 666.699 596.594C666.905 597.058 667.112 597.548 667.318 598.064L668.324 600.696L668.66 601.16L672.091 608.204C672.383 608.806 672.684 609.21 672.994 609.416C673.321 609.623 673.794 609.743 674.413 609.778L674.232 610.629ZM663.164 610.629H657.282L657.437 609.778C657.867 609.76 658.236 609.7 658.546 609.597C658.838 609.477 659.148 609.279 659.475 609.004C659.802 608.728 660.206 608.35 660.687 607.868L666.467 601.96L667.137 603.25H666.75L662.88 607.404C662.743 607.542 662.579 607.714 662.39 607.92C662.218 608.126 662.063 608.333 661.926 608.539C661.805 608.746 661.745 608.935 661.745 609.107C661.745 609.33 661.848 609.502 662.055 609.623C662.278 609.726 662.708 609.778 663.345 609.778L663.164 610.629ZM673.175 596.903L668.582 601.599L667.937 600.412H668.298L671.601 596.774C671.91 596.413 672.16 596.104 672.349 595.846C672.555 595.588 672.659 595.347 672.659 595.123C672.659 594.934 672.564 594.796 672.375 594.71C672.186 594.607 671.799 594.556 671.214 594.556L671.394 593.678H677.38L677.225 594.556C676.675 594.59 676.21 594.676 675.832 594.814C675.471 594.934 675.092 595.158 674.697 595.484C674.318 595.794 673.811 596.267 673.175 596.903ZM673.775 609.412L673.216 608.337C675.022 607.305 676.728 606.058 678.333 604.596C679.938 603.163 681.372 601.5 682.633 599.608C683.894 597.687 684.883 595.48 685.6 592.986C686.317 590.492 686.675 587.668 686.675 584.515C686.675 582.566 686.474 580.774 686.073 579.14C685.7 577.477 685.113 575.987 684.31 574.668C683.507 573.349 682.475 572.203 681.214 571.228L681.945 570.239C683.579 571.185 684.998 572.389 686.202 573.851C687.406 575.313 688.338 577.004 688.997 578.925C689.656 580.846 689.986 582.967 689.986 585.289C689.986 588.07 689.585 590.693 688.782 593.158C688.008 595.595 686.89 597.845 685.428 599.909C683.966 601.944 682.246 603.765 680.268 605.37C678.319 606.975 676.154 608.323 673.775 609.412Z" fill="black"/>
<path id="(a, 1X)" d="M573.714 914.423L572.983 915.412C571.378 914.466 569.959 913.262 568.726 911.8C567.522 910.338 566.591 908.647 565.931 906.726C565.272 904.805 564.942 902.684 564.942 900.362C564.942 897.581 565.329 894.973 566.103 892.536C566.906 890.071 568.038 887.82 569.5 885.785C570.962 883.721 572.682 881.886 574.66 880.281C576.638 878.676 578.803 877.328 581.153 876.239L581.712 877.314C579.906 878.346 578.201 879.593 576.595 881.055C574.99 882.488 573.557 884.165 572.295 886.086C571.034 887.978 570.045 890.171 569.328 892.665C568.612 895.159 568.253 897.983 568.253 901.136C568.253 903.085 568.44 904.891 568.812 906.554C569.214 908.188 569.816 909.664 570.618 910.983C571.421 912.302 572.453 913.448 573.714 914.423ZM584.974 908.145C583.999 908.145 583.11 907.901 582.308 907.414C581.534 906.898 580.903 906.11 580.416 905.049C579.957 903.988 579.728 902.612 579.728 900.921C579.728 899 580.029 897.209 580.631 895.546C581.233 893.855 582.035 892.378 583.039 891.117C584.071 889.827 585.232 888.824 586.522 888.107C587.812 887.39 589.145 887.032 590.521 887.032C591.61 887.032 592.484 887.247 593.144 887.677C593.803 888.107 594.362 888.652 594.821 889.311H594.993L596.498 887.333H598.691L595.509 902.555C595.509 902.555 595.466 902.741 595.38 903.114C595.322 903.487 595.294 903.831 595.294 904.146C595.294 904.433 595.351 904.662 595.466 904.834C595.58 904.977 595.795 905.049 596.111 905.049C596.569 905.049 596.999 904.92 597.401 904.662C597.802 904.375 598.16 904.06 598.476 903.716C598.82 903.343 599.078 903.042 599.25 902.813L600.11 903.458C599.565 904.289 598.992 905.063 598.39 905.78C597.788 906.468 597.128 907.027 596.412 907.457C595.695 907.858 594.892 908.059 594.004 908.059C593.258 908.059 592.685 907.901 592.284 907.586C591.882 907.242 591.682 906.726 591.682 906.038C591.682 905.723 591.71 905.393 591.768 905.049C591.854 904.676 591.911 904.318 591.94 903.974H591.682C590.621 905.35 589.532 906.396 588.414 907.113C587.296 907.801 586.149 908.145 584.974 908.145ZM586.522 905.307C587.41 905.307 588.256 905.078 589.059 904.619C589.861 904.132 590.564 903.487 591.166 902.684C591.796 901.853 592.241 900.921 592.499 899.889C592.642 899.316 592.814 898.57 593.015 897.653C593.244 896.707 593.43 895.775 593.574 894.858C593.746 893.912 593.832 893.167 593.832 892.622C593.832 891.647 593.531 890.744 592.929 889.913C592.327 889.082 591.438 888.666 590.263 888.666C589.288 888.666 588.385 888.996 587.554 889.655C586.722 890.314 586.006 891.203 585.404 892.321C584.802 893.439 584.329 894.7 583.985 896.105C583.669 897.481 583.512 898.9 583.512 900.362C583.512 902.283 583.784 903.587 584.329 904.275C584.902 904.963 585.633 905.307 586.522 905.307ZM601.106 913.133L600.633 912.144C601.379 911.771 602.196 911.227 603.084 910.51C603.973 909.793 604.632 908.704 605.062 907.242L603.729 905.909L606.481 906.382C605.707 906.984 604.948 907.285 604.202 907.285C603.715 907.285 603.213 907.127 602.697 906.812C602.21 906.468 601.966 905.895 601.966 905.092C601.966 904.375 602.21 903.759 602.697 903.243C603.213 902.698 603.916 902.426 604.804 902.426C605.693 902.426 606.367 902.727 606.825 903.329C607.313 903.902 607.556 904.705 607.556 905.737C607.556 906.826 607.313 907.787 606.825 908.618C606.367 909.449 605.779 910.166 605.062 910.768C604.374 911.399 603.672 911.9 602.955 912.273C602.239 912.674 601.622 912.961 601.106 913.133ZM637.39 907.629H623.673L623.931 906.425C625.278 906.425 626.324 906.339 627.07 906.167C627.815 905.966 628.36 905.665 628.704 905.264C629.048 904.834 629.291 904.261 629.435 903.544L633.305 885.355C633.362 885.126 633.405 884.925 633.434 884.753C633.462 884.581 633.477 884.423 633.477 884.28C633.477 883.592 633.104 883.248 632.359 883.248C632.072 883.248 631.714 883.277 631.284 883.334C630.854 883.391 630.395 883.477 629.908 883.592C629.42 883.678 628.933 883.793 628.446 883.936L628.747 882.517L636.96 880.152H638.207L633.219 903.544C633.19 903.687 633.161 903.831 633.133 903.974C633.133 904.117 633.133 904.261 633.133 904.404C633.133 905.121 633.462 905.637 634.122 905.952C634.81 906.267 635.985 906.425 637.648 906.425L637.39 907.629ZM658.232 916.629H650.776L650.957 915.778H651.189C651.739 915.778 652.152 915.7 652.427 915.545C652.72 915.373 652.866 915.115 652.866 914.771C652.866 914.565 652.823 914.324 652.737 914.049C652.651 913.757 652.522 913.387 652.35 912.94L651.318 910.566L650.725 908.941L650.363 908.45L647.629 902.62C647.371 902.086 647.138 901.674 646.932 901.381C646.743 901.072 646.493 900.857 646.184 900.736C645.891 900.616 645.453 900.556 644.868 900.556L645.049 899.678H652.376L652.195 900.556H651.911C651.395 900.556 651.008 900.624 650.75 900.762C650.51 900.882 650.389 901.115 650.389 901.459C650.389 901.751 650.492 902.129 650.699 902.594C650.905 903.058 651.112 903.548 651.318 904.064L652.324 906.696L652.66 907.16L656.091 914.204C656.383 914.806 656.684 915.21 656.994 915.416C657.321 915.623 657.794 915.743 658.413 915.778L658.232 916.629ZM647.164 916.629H641.282L641.437 915.778C641.867 915.76 642.236 915.7 642.546 915.597C642.838 915.477 643.148 915.279 643.475 915.004C643.802 914.728 644.206 914.35 644.687 913.868L650.467 907.96L651.137 909.25H650.75L646.88 913.404C646.743 913.542 646.579 913.714 646.39 913.92C646.218 914.126 646.063 914.333 645.926 914.539C645.805 914.746 645.745 914.935 645.745 915.107C645.745 915.33 645.848 915.502 646.055 915.623C646.278 915.726 646.708 915.778 647.345 915.778L647.164 916.629ZM657.175 902.903L652.582 907.599L651.937 906.412H652.298L655.601 902.774C655.91 902.413 656.16 902.104 656.349 901.846C656.555 901.588 656.659 901.347 656.659 901.123C656.659 900.934 656.564 900.796 656.375 900.71C656.186 900.607 655.799 900.556 655.214 900.556L655.394 899.678H661.38L661.225 900.556C660.675 900.59 660.21 900.676 659.832 900.814C659.471 900.934 659.092 901.158 658.697 901.484C658.318 901.794 657.811 902.267 657.175 902.903ZM657.775 915.412L657.216 914.337C659.022 913.305 660.728 912.058 662.333 910.596C663.938 909.163 665.372 907.5 666.633 905.608C667.894 903.687 668.883 901.48 669.6 898.986C670.317 896.492 670.675 893.668 670.675 890.515C670.675 888.566 670.474 886.774 670.073 885.14C669.7 883.477 669.113 881.987 668.31 880.668C667.507 879.349 666.475 878.203 665.214 877.228L665.945 876.239C667.579 877.185 668.998 878.389 670.202 879.851C671.406 881.313 672.338 883.004 672.997 884.925C673.656 886.846 673.986 888.967 673.986 891.289C673.986 894.07 673.585 896.693 672.782 899.158C672.008 901.595 670.89 903.845 669.428 905.909C667.966 907.944 666.246 909.765 664.268 911.37C662.319 912.975 660.154 914.323 657.775 915.412Z" fill="black"/>
<g id="Group_92">
<g id="\mathcal{A}_{&#226;&#136;&#131; X \varphi(X)}" clip-path="url(#clip1_36_426)">
<g id="page1_2">
<path id="Vector_6" d="M1088.75 613.667C1089.17 618.987 1090.18 622.871 1090.61 624.476C1091.53 628.276 1091.96 630.134 1095.59 630.134C1099.39 630.134 1105.89 626.334 1105.89 624.645C1105.89 624.223 1105.55 624.054 1105.13 624.054C1104.03 624.054 1102.26 624.983 1102.01 625.151C1101.42 625.489 1101.25 625.489 1101.08 625.489C1098.71 625.489 1098.21 623.209 1097.19 618.142C1096.6 615.355 1095.84 611.978 1095.17 600.408C1094.57 591.794 1094.24 583.181 1094.24 574.567C1094.24 572.54 1094.32 570.345 1094.32 568.318C1094.32 566.967 1094.32 566.629 1093.39 566.629C1092.21 566.629 1088.75 568.065 1087.23 570.345L1086.64 571.274C1079.97 585.545 1073.72 595.764 1069.32 602.604C1064.34 610.289 1055.56 624.054 1051 624.054C1047.87 624.054 1045.26 622.027 1044.5 618.987C1044.41 618.818 1044.24 618.311 1043.91 618.311C1042.64 618.311 1040.78 622.365 1040.78 624.729C1040.78 628.107 1044.41 631.823 1048.38 631.823C1054.21 631.823 1063.92 616.622 1065.78 613.667H1088.75ZM1087.06 577.016V581.914C1087.06 586.812 1087.23 591.71 1087.48 596.608C1087.57 598.297 1087.9 604.631 1088.33 609.022H1072.87C1071.52 609.022 1070.25 609.022 1068.06 610.373C1073.97 601.253 1078.87 592.47 1079.37 591.541C1083.6 584.025 1085.88 579.127 1086.97 577.016H1087.06Z" fill="black"/>
<path id="Vector_7" d="M1135.77 603.805C1135.77 601.948 1135.55 601.666 1133.63 601.666H1111.39C1110.49 601.666 1109.25 601.666 1109.25 602.961C1109.25 604.256 1110.49 604.256 1111.39 604.256H1133.18V619.907H1112.24C1111.34 619.907 1110.1 619.907 1110.1 621.202C1110.1 622.497 1111.34 622.497 1112.24 622.497H1133.18V638.148H1111.39C1110.49 638.148 1109.25 638.148 1109.25 639.442C1109.25 640.737 1110.49 640.737 1111.39 640.737H1133.63C1135.49 640.737 1135.77 640.512 1135.77 638.598V603.805Z" fill="black"/>
<path id="Vector_8" d="M1168.55 619.231C1171.26 616.472 1179.25 608.253 1180.6 607.183C1182.97 605.382 1184.37 604.368 1188.43 604.143C1188.76 604.087 1189.21 603.805 1189.21 603.073C1189.21 602.567 1188.71 602.285 1188.43 602.285C1187.86 602.285 1187.53 602.454 1183.13 602.454C1178.91 602.454 1177.39 602.285 1177.11 602.285C1176.89 602.285 1175.98 602.285 1175.98 603.355C1175.98 603.411 1175.98 604.087 1176.83 604.143C1177.22 604.199 1178.74 604.312 1178.74 605.607C1178.74 606.001 1178.52 606.62 1178.07 607.071L1177.9 607.352C1177.73 607.521 1177.73 607.634 1177.17 608.14L1167.77 617.655L1162.02 605.719C1162.81 604.368 1164.5 604.199 1165.18 604.143C1165.46 604.143 1166.24 604.087 1166.24 603.13C1166.24 602.623 1165.85 602.285 1165.34 602.285C1164.78 602.285 1162.64 602.398 1162.08 602.398C1161.74 602.454 1159.66 602.454 1158.48 602.454C1153.24 602.454 1152.56 602.285 1152.06 602.285C1151.83 602.285 1150.93 602.285 1150.93 603.355C1150.93 604.143 1151.66 604.143 1152.56 604.143C1155.38 604.143 1155.89 604.706 1156.39 605.776L1163.88 621.539L1152.34 633.306C1148.96 636.684 1146.32 638.654 1142.32 638.879C1141.64 638.936 1140.97 638.936 1140.97 639.949C1140.97 640.287 1141.25 640.737 1141.81 640.737C1142.21 640.737 1142.82 640.568 1147.1 640.568C1151.16 640.568 1152.9 640.737 1153.13 640.737C1153.41 640.737 1154.25 640.737 1154.25 639.668C1154.25 639.555 1154.2 638.936 1153.35 638.879C1152.28 638.823 1151.49 638.429 1151.49 637.416C1151.49 636.515 1152.17 635.783 1153.01 634.938C1153.97 633.869 1156.9 630.941 1158.93 628.971C1160.22 627.676 1163.37 624.411 1164.67 623.172L1171.14 636.627C1171.42 637.19 1171.42 637.247 1171.42 637.303C1171.42 637.81 1170.24 638.767 1168.38 638.879C1167.99 638.879 1167.26 638.936 1167.26 639.949C1167.26 640.005 1167.31 640.737 1168.22 640.737C1168.78 640.737 1170.86 640.625 1171.42 640.568H1175.03C1180.21 640.568 1181 640.737 1181.5 640.737C1181.73 640.737 1182.57 640.737 1182.57 639.668C1182.57 638.879 1181.84 638.879 1181 638.879C1177.96 638.879 1177.62 638.204 1177.22 637.359L1168.55 619.231Z" fill="black"/>
<path id="Vector_9" d="M1208.85 641.247C1209.47 641.303 1210.15 641.303 1210.77 641.303C1220.68 641.303 1229.63 632.689 1229.63 623.963C1229.63 619.853 1227.38 615.912 1222.59 615.912C1218.59 615.912 1215.44 618.671 1213.13 622.33C1210.65 626.327 1209.53 629.93 1207.22 637.249C1201.08 636.349 1197.42 633.421 1197.42 629.311C1197.42 628.073 1198.61 621.936 1201.98 618.22C1202.66 617.488 1202.66 617.376 1202.66 617.151C1202.66 617.094 1202.66 616.475 1201.82 616.475C1199.85 616.475 1195.62 624.92 1195.62 629.874C1195.62 634.097 1198.1 638.826 1206.04 640.796L1204.35 646.088C1203.28 649.522 1202.83 650.817 1202.83 651.211C1202.83 652.563 1204.07 652.957 1204.69 652.957C1205.14 652.957 1206.71 652.731 1207.16 650.761C1207.56 648.791 1208.46 643.724 1208.85 641.247ZM1209.59 637.531C1210.65 631.056 1211.22 627.791 1214.43 623.85C1217.07 620.585 1219.83 619.628 1222.03 619.628C1225.52 619.628 1227.71 622.049 1227.71 625.145C1227.71 631.056 1220.56 637.587 1211.33 637.587C1210.82 637.587 1210.09 637.587 1209.59 637.531Z" fill="black"/>
<path id="Vector_10" d="M1250.48 654.81C1250.93 654.81 1251.61 654.81 1251.61 654.135C1251.61 653.91 1251.55 653.853 1250.82 653.122C1243.11 645.859 1241.19 635.387 1241.19 626.661C1241.19 610.447 1247.89 602.847 1250.76 600.257C1251.55 599.525 1251.61 599.469 1251.61 599.187C1251.61 598.906 1251.38 598.512 1250.82 598.512C1249.92 598.512 1247.1 601.383 1246.65 601.89C1239.11 609.771 1237.53 619.905 1237.53 626.661C1237.53 639.272 1242.83 649.406 1250.48 654.81Z" fill="black"/>
<path id="Vector_11" d="M1284.39 619.231C1287.09 616.472 1295.08 608.253 1296.43 607.183C1298.8 605.382 1300.21 604.368 1304.26 604.143C1304.6 604.087 1305.05 603.805 1305.05 603.073C1305.05 602.567 1304.54 602.285 1304.26 602.285C1303.7 602.285 1303.36 602.454 1298.97 602.454C1294.74 602.454 1293.22 602.285 1292.94 602.285C1292.72 602.285 1291.82 602.285 1291.82 603.355C1291.82 603.411 1291.82 604.087 1292.66 604.143C1293.06 604.199 1294.58 604.312 1294.58 605.607C1294.58 606.001 1294.35 606.62 1293.9 607.071L1293.73 607.352C1293.56 607.521 1293.56 607.634 1293 608.14L1283.6 617.655L1277.85 605.719C1278.64 604.368 1280.33 604.199 1281.01 604.143C1281.29 604.143 1282.08 604.087 1282.08 603.13C1282.08 602.623 1281.68 602.285 1281.18 602.285C1280.61 602.285 1278.47 602.398 1277.91 602.398C1277.57 602.454 1275.49 602.454 1274.31 602.454C1269.07 602.454 1268.4 602.285 1267.89 602.285C1267.66 602.285 1266.76 602.285 1266.76 603.355C1266.76 604.143 1267.5 604.143 1268.4 604.143C1271.21 604.143 1271.72 604.706 1272.22 605.776L1279.71 621.539L1268.17 633.306C1264.79 636.684 1262.15 638.654 1258.15 638.879C1257.47 638.936 1256.8 638.936 1256.8 639.949C1256.8 640.287 1257.08 640.737 1257.64 640.737C1258.04 640.737 1258.66 640.568 1262.94 640.568C1266.99 640.568 1268.73 640.737 1268.96 640.737C1269.24 640.737 1270.09 640.737 1270.09 639.668C1270.09 639.555 1270.03 638.936 1269.18 638.879C1268.11 638.823 1267.33 638.429 1267.33 637.416C1267.33 636.515 1268 635.783 1268.85 634.938C1269.8 633.869 1272.73 630.941 1274.76 628.971C1276.05 627.676 1279.21 624.411 1280.5 623.172L1286.97 636.627C1287.26 637.19 1287.26 637.247 1287.26 637.303C1287.26 637.81 1286.07 638.767 1284.22 638.879C1283.82 638.879 1283.09 638.936 1283.09 639.949C1283.09 640.005 1283.15 640.737 1284.05 640.737C1284.61 640.737 1286.69 640.625 1287.26 640.568H1290.86C1296.04 640.568 1296.83 640.737 1297.33 640.737C1297.56 640.737 1298.4 640.737 1298.4 639.668C1298.4 638.879 1297.67 638.879 1296.83 638.879C1293.79 638.879 1293.45 638.204 1293.06 637.359L1284.39 619.231Z" fill="black"/>
<path id="Vector_12" d="M1325.99 626.661C1325.99 621.313 1325.09 614.895 1321.6 608.251C1318.84 603.072 1313.71 598.512 1312.7 598.512C1312.14 598.512 1311.97 598.906 1311.97 599.187C1311.97 599.412 1311.97 599.525 1312.64 600.201C1320.53 607.688 1322.33 617.991 1322.33 626.661C1322.33 642.819 1315.63 650.475 1312.76 653.065C1312.03 653.797 1311.97 653.853 1311.97 654.135C1311.97 654.416 1312.14 654.81 1312.7 654.81C1313.6 654.81 1316.42 651.939 1316.87 651.433C1324.41 643.551 1325.99 633.417 1325.99 626.661Z" fill="black"/>
</g>
</g>
<g id="Group 92">
<g id="Group 91">
<circle id="Ellipse 99_2" cx="1455.21" cy="742.754" r="59.878" fill="#EBEBEB" stroke="black" stroke-width="5.096"/>
<path id="Vector 120_2" d="M1488.65 675.891L1486.76 678.131L1491.23 681.91L1493.12 679.671L1490.88 677.781L1488.65 675.891ZM1638.46 618.394C1639.43 617.102 1639.18 615.264 1637.89 614.29L1616.83 598.408C1615.54 597.433 1613.7 597.69 1612.73 598.982C1611.75 600.274 1612.01 602.111 1613.3 603.086L1632.02 617.203L1617.9 635.917C1616.92 637.209 1617.18 639.047 1618.47 640.021C1619.77 640.996 1621.6 640.739 1622.58 639.447L1638.46 618.394ZM1490.88 677.781L1493.12 679.671C1526.74 639.826 1572.84 628.447 1636.53 619.531L1636.12 616.629L1635.71 613.727C1572 622.647 1523.82 634.2 1488.65 675.891L1490.88 677.781Z" fill="black"/>
<path id="Vector 121_2" d="M1488.65 809.617L1486.76 807.377L1491.23 803.598L1493.12 805.837L1490.88 807.727L1488.65 809.617ZM1638.46 867.114C1639.43 868.406 1639.18 870.244 1637.89 871.218L1616.83 887.1C1615.54 888.075 1613.7 887.818 1612.73 886.526C1611.75 885.234 1612.01 883.396 1613.3 882.422L1632.02 868.304L1617.9 849.591C1616.92 848.299 1617.18 846.461 1618.47 845.487C1619.77 844.512 1621.6 844.769 1622.58 846.061L1638.46 867.114ZM1490.88 807.727L1493.12 805.837C1526.74 845.682 1572.84 857.061 1636.53 865.977L1636.12 868.879L1635.71 871.781C1572 862.861 1523.82 851.308 1488.65 809.617L1490.88 807.727Z" fill="black"/>
</g>
<path id="a" d="M1531.36 613.145C1530.39 613.145 1529.5 612.901 1528.7 612.414C1527.92 611.898 1527.29 611.11 1526.8 610.049C1526.35 608.988 1526.12 607.612 1526.12 605.921C1526.12 604 1526.42 602.209 1527.02 600.546C1527.62 598.855 1528.42 597.378 1529.43 596.117C1530.46 594.827 1531.62 593.824 1532.91 593.107C1534.2 592.39 1535.53 592.032 1536.91 592.032C1538 592.032 1538.87 592.247 1539.53 592.677C1540.19 593.107 1540.75 593.652 1541.21 594.311H1541.38L1542.89 592.333H1545.08L1541.9 607.555C1541.9 607.555 1541.85 607.741 1541.77 608.114C1541.71 608.487 1541.68 608.831 1541.68 609.146C1541.68 609.433 1541.74 609.662 1541.85 609.834C1541.97 609.977 1542.18 610.049 1542.5 610.049C1542.96 610.049 1543.39 609.92 1543.79 609.662C1544.19 609.375 1544.55 609.06 1544.86 608.716C1545.21 608.343 1545.47 608.042 1545.64 607.813L1546.5 608.458C1545.95 609.289 1545.38 610.063 1544.78 610.78C1544.18 611.468 1543.52 612.027 1542.8 612.457C1542.08 612.858 1541.28 613.059 1540.39 613.059C1539.65 613.059 1539.07 612.901 1538.67 612.586C1538.27 612.242 1538.07 611.726 1538.07 611.038C1538.07 610.723 1538.1 610.393 1538.16 610.049C1538.24 609.676 1538.3 609.318 1538.33 608.974H1538.07C1537.01 610.35 1535.92 611.396 1534.8 612.113C1533.68 612.801 1532.54 613.145 1531.36 613.145ZM1532.91 610.307C1533.8 610.307 1534.64 610.078 1535.45 609.619C1536.25 609.132 1536.95 608.487 1537.55 607.684C1538.18 606.853 1538.63 605.921 1538.89 604.889C1539.03 604.316 1539.2 603.57 1539.4 602.653C1539.63 601.707 1539.82 600.775 1539.96 599.858C1540.13 598.912 1540.22 598.167 1540.22 597.622C1540.22 596.647 1539.92 595.744 1539.32 594.913C1538.72 594.082 1537.83 593.666 1536.65 593.666C1535.68 593.666 1534.77 593.996 1533.94 594.655C1533.11 595.314 1532.39 596.203 1531.79 597.321C1531.19 598.439 1530.72 599.7 1530.37 601.105C1530.06 602.481 1529.9 603.9 1529.9 605.362C1529.9 607.283 1530.17 608.587 1530.72 609.275C1531.29 609.963 1532.02 610.307 1532.91 610.307Z" fill="black"/>
<path id="a_2" d="M1538.36 896.145C1537.39 896.145 1536.5 895.901 1535.7 895.414C1534.92 894.898 1534.29 894.11 1533.8 893.049C1533.35 891.988 1533.12 890.612 1533.12 888.921C1533.12 887 1533.42 885.209 1534.02 883.546C1534.62 881.855 1535.42 880.378 1536.43 879.117C1537.46 877.827 1538.62 876.824 1539.91 876.107C1541.2 875.39 1542.53 875.032 1543.91 875.032C1545 875.032 1545.87 875.247 1546.53 875.677C1547.19 876.107 1547.75 876.652 1548.21 877.311H1548.38L1549.89 875.333H1552.08L1548.9 890.555C1548.9 890.555 1548.85 890.741 1548.77 891.114C1548.71 891.487 1548.68 891.831 1548.68 892.146C1548.68 892.433 1548.74 892.662 1548.85 892.834C1548.97 892.977 1549.18 893.049 1549.5 893.049C1549.96 893.049 1550.39 892.92 1550.79 892.662C1551.19 892.375 1551.55 892.06 1551.86 891.716C1552.21 891.343 1552.47 891.042 1552.64 890.813L1553.5 891.458C1552.95 892.289 1552.38 893.063 1551.78 893.78C1551.18 894.468 1550.52 895.027 1549.8 895.457C1549.08 895.858 1548.28 896.059 1547.39 896.059C1546.65 896.059 1546.07 895.901 1545.67 895.586C1545.27 895.242 1545.07 894.726 1545.07 894.038C1545.07 893.723 1545.1 893.393 1545.16 893.049C1545.24 892.676 1545.3 892.318 1545.33 891.974H1545.07C1544.01 893.35 1542.92 894.396 1541.8 895.113C1540.68 895.801 1539.54 896.145 1538.36 896.145ZM1539.91 893.307C1540.8 893.307 1541.64 893.078 1542.45 892.619C1543.25 892.132 1543.95 891.487 1544.55 890.684C1545.18 889.853 1545.63 888.921 1545.89 887.889C1546.03 887.316 1546.2 886.57 1546.4 885.653C1546.63 884.707 1546.82 883.775 1546.96 882.858C1547.13 881.912 1547.22 881.167 1547.22 880.622C1547.22 879.647 1546.92 878.744 1546.32 877.913C1545.72 877.082 1544.83 876.666 1543.65 876.666C1542.68 876.666 1541.77 876.996 1540.94 877.655C1540.11 878.314 1539.39 879.203 1538.79 880.321C1538.19 881.439 1537.72 882.7 1537.37 884.105C1537.06 885.481 1536.9 886.9 1536.9 888.362C1536.9 890.283 1537.17 891.587 1537.72 892.275C1538.29 892.963 1539.02 893.307 1539.91 893.307Z" fill="black"/>
</g>
</g>
</g>
<defs>
<clipPath id="clip0_36_426">
<rect width="198.38" height="88.1827" fill="white" transform="translate(216.781 566.629)"/>
</clipPath>
<clipPath id="clip1_36_426">
<rect width="285.204" height="88.1827" fill="white" transform="translate(1040.78 566.629)"/>
</clipPath>
</defs>
</svg>
