<svg width="1921" height="1080" viewBox="0 0 1921 1080" fill="none" xmlns="http://www.w3.org/2000/svg">
<g id="M&#195;&#188;ller">
<rect width="1920" height="1080" transform="translate(0.208008)" fill="white"/>
<path id="Explication de la marche &#195;&#160; suivre, trouver un universal graph game for m&#195;&#188;ller objetive etc" d="M346.17 497V470.818H361.972V473.631H349.341V482.477H361.153V485.29H349.341V494.188H362.176V497H346.17ZM369.527 477.364L374.232 485.392L378.936 477.364H382.413L376.072 487.182L382.413 497H378.936L374.232 489.381L369.527 497H366.05L372.288 487.182L366.05 477.364H369.527ZM386.718 504.364V477.364H389.633V480.483H389.991C390.213 480.142 390.52 479.707 390.912 479.179C391.312 478.642 391.883 478.165 392.625 477.747C393.375 477.321 394.389 477.108 395.667 477.108C397.321 477.108 398.778 477.521 400.039 478.348C401.301 479.175 402.285 480.347 402.993 481.864C403.7 483.381 404.054 485.17 404.054 487.233C404.054 489.312 403.7 491.115 402.993 492.641C402.285 494.158 401.305 495.334 400.052 496.169C398.799 496.996 397.355 497.409 395.718 497.409C394.457 497.409 393.447 497.2 392.689 496.783C391.93 496.357 391.346 495.875 390.937 495.338C390.528 494.793 390.213 494.341 389.991 493.983H389.735V504.364H386.718ZM389.684 487.182C389.684 488.665 389.902 489.973 390.336 491.107C390.771 492.232 391.406 493.114 392.241 493.753C393.076 494.384 394.099 494.699 395.309 494.699C396.571 494.699 397.623 494.366 398.467 493.702C399.319 493.028 399.958 492.125 400.385 490.991C400.819 489.849 401.037 488.58 401.037 487.182C401.037 485.801 400.824 484.557 400.397 483.449C399.98 482.332 399.345 481.45 398.493 480.803C397.649 480.146 396.588 479.818 395.309 479.818C394.082 479.818 393.051 480.129 392.216 480.751C391.38 481.365 390.75 482.226 390.324 483.334C389.897 484.433 389.684 485.716 389.684 487.182ZM411.673 470.818V497H408.656V470.818H411.673ZM417.199 497V477.364H420.216V497H417.199ZM418.733 474.091C418.145 474.091 417.638 473.891 417.212 473.49C416.794 473.089 416.585 472.608 416.585 472.045C416.585 471.483 416.794 471.001 417.212 470.601C417.638 470.2 418.145 470 418.733 470C419.321 470 419.824 470.2 420.241 470.601C420.668 471.001 420.881 471.483 420.881 472.045C420.881 472.608 420.668 473.089 420.241 473.49C419.824 473.891 419.321 474.091 418.733 474.091ZM433.719 497.409C431.878 497.409 430.293 496.974 428.963 496.105C427.634 495.236 426.611 494.038 425.895 492.513C425.179 490.987 424.821 489.244 424.821 487.284C424.821 485.29 425.188 483.53 425.921 482.004C426.662 480.47 427.694 479.273 429.015 478.412C430.344 477.543 431.895 477.108 433.668 477.108C435.049 477.108 436.293 477.364 437.401 477.875C438.509 478.386 439.417 479.102 440.124 480.023C440.831 480.943 441.27 482.017 441.441 483.244H438.424C438.194 482.349 437.682 481.557 436.89 480.866C436.105 480.168 435.049 479.818 433.719 479.818C432.543 479.818 431.512 480.125 430.625 480.739C429.748 481.344 429.061 482.2 428.567 483.308C428.081 484.408 427.838 485.699 427.838 487.182C427.838 488.699 428.077 490.02 428.554 491.145C429.04 492.27 429.722 493.143 430.6 493.766C431.486 494.388 432.526 494.699 433.719 494.699C434.503 494.699 435.215 494.562 435.854 494.29C436.493 494.017 437.034 493.625 437.478 493.114C437.921 492.602 438.236 491.989 438.424 491.273H441.441C441.27 492.432 440.848 493.476 440.175 494.405C439.51 495.325 438.628 496.058 437.529 496.604C436.438 497.141 435.168 497.409 433.719 497.409ZM451.63 497.46C450.385 497.46 449.256 497.226 448.242 496.757C447.228 496.28 446.422 495.594 445.826 494.699C445.229 493.795 444.931 492.705 444.931 491.426C444.931 490.301 445.152 489.389 445.596 488.69C446.039 487.983 446.631 487.429 447.373 487.028C448.114 486.628 448.932 486.33 449.827 486.134C450.73 485.929 451.638 485.767 452.55 485.648C453.743 485.494 454.711 485.379 455.452 485.303C456.202 485.217 456.748 485.077 457.088 484.881C457.438 484.685 457.613 484.344 457.613 483.858V483.756C457.613 482.494 457.267 481.514 456.577 480.815C455.895 480.116 454.86 479.767 453.471 479.767C452.03 479.767 450.901 480.082 450.083 480.713C449.265 481.344 448.689 482.017 448.357 482.733L445.493 481.71C446.005 480.517 446.686 479.588 447.539 478.923C448.4 478.25 449.337 477.781 450.351 477.517C451.374 477.244 452.38 477.108 453.368 477.108C453.999 477.108 454.723 477.185 455.542 477.338C456.368 477.483 457.165 477.786 457.932 478.246C458.708 478.706 459.351 479.401 459.863 480.33C460.374 481.259 460.63 482.503 460.63 484.062V497H457.613V494.341H457.459C457.255 494.767 456.914 495.223 456.436 495.709C455.959 496.195 455.324 496.608 454.532 496.949C453.739 497.29 452.772 497.46 451.63 497.46ZM452.09 494.75C453.283 494.75 454.289 494.516 455.107 494.047C455.934 493.578 456.556 492.973 456.973 492.232C457.4 491.49 457.613 490.71 457.613 489.892V487.131C457.485 487.284 457.203 487.425 456.769 487.553C456.343 487.672 455.848 487.778 455.286 487.872C454.732 487.957 454.191 488.034 453.662 488.102C453.142 488.162 452.721 488.213 452.397 488.256C451.613 488.358 450.88 488.524 450.198 488.754C449.525 488.976 448.979 489.312 448.561 489.764C448.152 490.207 447.948 490.812 447.948 491.58C447.948 492.628 448.336 493.42 449.111 493.957C449.895 494.486 450.888 494.75 452.09 494.75ZM474.676 477.364V479.92H464.5V477.364H474.676ZM467.466 472.659H470.483V491.375C470.483 492.227 470.607 492.866 470.854 493.293C471.109 493.71 471.433 493.991 471.825 494.136C472.226 494.273 472.648 494.341 473.091 494.341C473.423 494.341 473.696 494.324 473.909 494.29C474.122 494.247 474.293 494.213 474.42 494.188L475.034 496.898C474.83 496.974 474.544 497.051 474.178 497.128C473.811 497.213 473.347 497.256 472.784 497.256C471.932 497.256 471.097 497.072 470.278 496.706C469.469 496.339 468.795 495.781 468.259 495.031C467.73 494.281 467.466 493.335 467.466 492.193V472.659ZM479.214 497V477.364H482.232V497H479.214ZM480.749 474.091C480.161 474.091 479.653 473.891 479.227 473.49C478.81 473.089 478.601 472.608 478.601 472.045C478.601 471.483 478.81 471.001 479.227 470.601C479.653 470.2 480.161 470 480.749 470C481.337 470 481.839 470.2 482.257 470.601C482.683 471.001 482.896 471.483 482.896 472.045C482.896 472.608 482.683 473.089 482.257 473.49C481.839 473.891 481.337 474.091 480.749 474.091ZM495.735 497.409C493.962 497.409 492.407 496.987 491.069 496.143C489.739 495.3 488.699 494.119 487.949 492.602C487.208 491.085 486.837 489.312 486.837 487.284C486.837 485.239 487.208 483.453 487.949 481.928C488.699 480.402 489.739 479.217 491.069 478.374C492.407 477.53 493.962 477.108 495.735 477.108C497.507 477.108 499.059 477.53 500.388 478.374C501.726 479.217 502.766 480.402 503.507 481.928C504.257 483.453 504.632 485.239 504.632 487.284C504.632 489.312 504.257 491.085 503.507 492.602C502.766 494.119 501.726 495.3 500.388 496.143C499.059 496.987 497.507 497.409 495.735 497.409ZM495.735 494.699C497.081 494.699 498.189 494.354 499.059 493.663C499.928 492.973 500.571 492.065 500.989 490.94C501.407 489.815 501.615 488.597 501.615 487.284C501.615 485.972 501.407 484.749 500.989 483.615C500.571 482.482 499.928 481.565 499.059 480.866C498.189 480.168 497.081 479.818 495.735 479.818C494.388 479.818 493.28 480.168 492.411 480.866C491.542 481.565 490.898 482.482 490.48 483.615C490.063 484.749 489.854 485.972 489.854 487.284C489.854 488.597 490.063 489.815 490.48 490.94C490.898 492.065 491.542 492.973 492.411 493.663C493.28 494.354 494.388 494.699 495.735 494.699ZM512.255 485.188V497H509.238V477.364H512.153V480.432H512.408C512.869 479.435 513.567 478.634 514.505 478.028C515.442 477.415 516.653 477.108 518.136 477.108C519.465 477.108 520.629 477.381 521.626 477.926C522.623 478.463 523.398 479.281 523.952 480.381C524.506 481.472 524.783 482.852 524.783 484.523V497H521.766V484.727C521.766 483.185 521.366 481.983 520.565 481.122C519.763 480.253 518.664 479.818 517.266 479.818C516.303 479.818 515.442 480.027 514.684 480.445C513.934 480.862 513.342 481.472 512.907 482.273C512.472 483.074 512.255 484.045 512.255 485.188ZM547.836 497.409C546.2 497.409 544.755 496.996 543.502 496.169C542.25 495.334 541.27 494.158 540.562 492.641C539.855 491.115 539.501 489.312 539.501 487.233C539.501 485.17 539.855 483.381 540.562 481.864C541.27 480.347 542.254 479.175 543.515 478.348C544.777 477.521 546.234 477.108 547.887 477.108C549.166 477.108 550.176 477.321 550.917 477.747C551.667 478.165 552.238 478.642 552.63 479.179C553.031 479.707 553.342 480.142 553.564 480.483H553.819V470.818H556.836V497H553.922V493.983H553.564C553.342 494.341 553.027 494.793 552.618 495.338C552.208 495.875 551.625 496.357 550.866 496.783C550.108 497.2 549.098 497.409 547.836 497.409ZM548.245 494.699C549.456 494.699 550.478 494.384 551.314 493.753C552.149 493.114 552.784 492.232 553.218 491.107C553.653 489.973 553.87 488.665 553.87 487.182C553.87 485.716 553.657 484.433 553.231 483.334C552.805 482.226 552.174 481.365 551.339 480.751C550.504 480.129 549.473 479.818 548.245 479.818C546.967 479.818 545.902 480.146 545.049 480.803C544.206 481.45 543.571 482.332 543.145 483.449C542.727 484.557 542.518 485.801 542.518 487.182C542.518 488.58 542.731 489.849 543.157 490.991C543.592 492.125 544.231 493.028 545.075 493.702C545.927 494.366 546.984 494.699 548.245 494.699ZM571.014 497.409C569.122 497.409 567.49 496.991 566.118 496.156C564.754 495.312 563.701 494.136 562.96 492.628C562.227 491.111 561.86 489.347 561.86 487.335C561.86 485.324 562.227 483.551 562.96 482.017C563.701 480.474 564.733 479.273 566.054 478.412C567.383 477.543 568.934 477.108 570.707 477.108C571.73 477.108 572.74 477.278 573.737 477.619C574.734 477.96 575.642 478.514 576.46 479.281C577.278 480.04 577.93 481.045 578.416 482.298C578.902 483.551 579.145 485.094 579.145 486.926V488.205H564.008V485.597H576.076C576.076 484.489 575.855 483.5 575.412 482.631C574.977 481.761 574.355 481.075 573.545 480.572C572.744 480.07 571.798 479.818 570.707 479.818C569.505 479.818 568.466 480.116 567.588 480.713C566.718 481.301 566.049 482.068 565.581 483.014C565.112 483.96 564.877 484.974 564.877 486.057V487.795C564.877 489.278 565.133 490.536 565.645 491.567C566.164 492.589 566.885 493.369 567.805 493.906C568.725 494.435 569.795 494.699 571.014 494.699C571.806 494.699 572.522 494.588 573.162 494.366C573.809 494.136 574.368 493.795 574.836 493.344C575.305 492.884 575.667 492.312 575.923 491.631L578.838 492.449C578.531 493.438 578.015 494.307 577.291 495.057C576.566 495.798 575.672 496.378 574.606 496.795C573.541 497.205 572.343 497.409 571.014 497.409ZM596.876 470.818V497H593.859V470.818H596.876ZM608.18 497.46C606.936 497.46 605.807 497.226 604.793 496.757C603.778 496.28 602.973 495.594 602.376 494.699C601.78 493.795 601.482 492.705 601.482 491.426C601.482 490.301 601.703 489.389 602.146 488.69C602.589 487.983 603.182 487.429 603.923 487.028C604.665 486.628 605.483 486.33 606.378 486.134C607.281 485.929 608.189 485.767 609.101 485.648C610.294 485.494 611.261 485.379 612.003 485.303C612.753 485.217 613.298 485.077 613.639 484.881C613.989 484.685 614.163 484.344 614.163 483.858V483.756C614.163 482.494 613.818 481.514 613.128 480.815C612.446 480.116 611.411 479.767 610.021 479.767C608.581 479.767 607.452 480.082 606.634 480.713C605.815 481.344 605.24 482.017 604.908 482.733L602.044 481.71C602.555 480.517 603.237 479.588 604.089 478.923C604.95 478.25 605.888 477.781 606.902 477.517C607.925 477.244 608.93 477.108 609.919 477.108C610.55 477.108 611.274 477.185 612.092 477.338C612.919 477.483 613.716 477.786 614.483 478.246C615.259 478.706 615.902 479.401 616.413 480.33C616.925 481.259 617.18 482.503 617.18 484.062V497H614.163V494.341H614.01C613.805 494.767 613.464 495.223 612.987 495.709C612.51 496.195 611.875 496.608 611.082 496.949C610.29 497.29 609.322 497.46 608.18 497.46ZM608.641 494.75C609.834 494.75 610.839 494.516 611.658 494.047C612.484 493.578 613.107 492.973 613.524 492.232C613.95 491.49 614.163 490.71 614.163 489.892V487.131C614.036 487.284 613.754 487.425 613.32 487.553C612.893 487.672 612.399 487.778 611.837 487.872C611.283 487.957 610.741 488.034 610.213 488.102C609.693 488.162 609.271 488.213 608.947 488.256C608.163 488.358 607.43 488.524 606.749 488.754C606.075 488.976 605.53 489.312 605.112 489.764C604.703 490.207 604.499 490.812 604.499 491.58C604.499 492.628 604.886 493.42 605.662 493.957C606.446 494.486 607.439 494.75 608.641 494.75ZM632.812 497V477.364H635.727V480.432H635.983C636.392 479.384 637.052 478.57 637.964 477.99C638.876 477.402 639.971 477.108 641.25 477.108C642.545 477.108 643.623 477.402 644.484 477.99C645.353 478.57 646.031 479.384 646.517 480.432H646.721C647.224 479.418 647.978 478.612 648.984 478.016C649.99 477.411 651.196 477.108 652.602 477.108C654.358 477.108 655.794 477.658 656.91 478.757C658.027 479.848 658.585 481.548 658.585 483.858V497H655.568V483.858C655.568 482.409 655.172 481.374 654.379 480.751C653.586 480.129 652.653 479.818 651.579 479.818C650.199 479.818 649.129 480.236 648.37 481.071C647.612 481.898 647.233 482.946 647.233 484.216V497H644.164V483.551C644.164 482.435 643.802 481.536 643.078 480.854C642.353 480.163 641.42 479.818 640.278 479.818C639.494 479.818 638.761 480.027 638.079 480.445C637.406 480.862 636.86 481.442 636.443 482.183C636.034 482.916 635.829 483.764 635.829 484.727V497H632.812ZM669.88 497.46C668.635 497.46 667.506 497.226 666.492 496.757C665.478 496.28 664.672 495.594 664.076 494.699C663.479 493.795 663.181 492.705 663.181 491.426C663.181 490.301 663.402 489.389 663.846 488.69C664.289 487.983 664.881 487.429 665.623 487.028C666.364 486.628 667.182 486.33 668.077 486.134C668.98 485.929 669.888 485.767 670.8 485.648C671.993 485.494 672.961 485.379 673.702 485.303C674.452 485.217 674.998 485.077 675.338 484.881C675.688 484.685 675.863 484.344 675.863 483.858V483.756C675.863 482.494 675.517 481.514 674.827 480.815C674.145 480.116 673.11 479.767 671.721 479.767C670.28 479.767 669.151 480.082 668.333 480.713C667.515 481.344 666.939 482.017 666.607 482.733L663.743 481.71C664.255 480.517 664.936 479.588 665.789 478.923C666.65 478.25 667.587 477.781 668.601 477.517C669.624 477.244 670.63 477.108 671.618 477.108C672.249 477.108 672.973 477.185 673.792 477.338C674.618 477.483 675.415 477.786 676.182 478.246C676.958 478.706 677.601 479.401 678.113 480.33C678.624 481.259 678.88 482.503 678.88 484.062V497H675.863V494.341H675.709C675.505 494.767 675.164 495.223 674.686 495.709C674.209 496.195 673.574 496.608 672.782 496.949C671.989 497.29 671.022 497.46 669.88 497.46ZM670.34 494.75C671.533 494.75 672.539 494.516 673.357 494.047C674.184 493.578 674.806 492.973 675.223 492.232C675.65 491.49 675.863 490.71 675.863 489.892V487.131C675.735 487.284 675.453 487.425 675.019 487.553C674.593 487.672 674.098 487.778 673.536 487.872C672.982 487.957 672.441 488.034 671.912 488.102C671.392 488.162 670.971 488.213 670.647 488.256C669.863 488.358 669.13 488.524 668.448 488.754C667.775 488.976 667.229 489.312 666.811 489.764C666.402 490.207 666.198 490.812 666.198 491.58C666.198 492.628 666.586 493.42 667.361 493.957C668.145 494.486 669.138 494.75 670.34 494.75ZM684.386 497V477.364H687.301V480.33H687.506C687.864 479.358 688.511 478.57 689.449 477.964C690.386 477.359 691.443 477.057 692.619 477.057C692.841 477.057 693.118 477.061 693.45 477.07C693.783 477.078 694.034 477.091 694.205 477.108V480.176C694.102 480.151 693.868 480.112 693.501 480.061C693.143 480.001 692.764 479.972 692.364 479.972C691.409 479.972 690.557 480.172 689.807 480.572C689.065 480.964 688.477 481.51 688.043 482.209C687.616 482.899 687.403 483.687 687.403 484.574V497H684.386ZM705.161 497.409C703.32 497.409 701.734 496.974 700.405 496.105C699.075 495.236 698.053 494.038 697.337 492.513C696.621 490.987 696.263 489.244 696.263 487.284C696.263 485.29 696.629 483.53 697.362 482.004C698.104 480.47 699.135 479.273 700.456 478.412C701.786 477.543 703.337 477.108 705.109 477.108C706.49 477.108 707.734 477.364 708.842 477.875C709.95 478.386 710.858 479.102 711.565 480.023C712.273 480.943 712.712 482.017 712.882 483.244H709.865C709.635 482.349 709.124 481.557 708.331 480.866C707.547 480.168 706.49 479.818 705.161 479.818C703.984 479.818 702.953 480.125 702.067 480.739C701.189 481.344 700.503 482.2 700.009 483.308C699.523 484.408 699.28 485.699 699.28 487.182C699.28 488.699 699.518 490.02 699.996 491.145C700.482 492.27 701.163 493.143 702.041 493.766C702.928 494.388 703.967 494.699 705.161 494.699C705.945 494.699 706.656 494.562 707.295 494.29C707.935 494.017 708.476 493.625 708.919 493.114C709.362 492.602 709.678 491.989 709.865 491.273H712.882C712.712 492.432 712.29 493.476 711.616 494.405C710.952 495.325 710.07 496.058 708.97 496.604C707.879 497.141 706.609 497.409 705.161 497.409ZM720.31 485.188V497H717.293V470.818H720.31V480.432H720.565C721.026 479.418 721.716 478.612 722.636 478.016C723.565 477.411 724.801 477.108 726.344 477.108C727.682 477.108 728.854 477.376 729.859 477.913C730.865 478.442 731.645 479.256 732.199 480.355C732.761 481.446 733.043 482.835 733.043 484.523V497H730.026V484.727C730.026 483.168 729.621 481.962 728.811 481.109C728.01 480.249 726.898 479.818 725.474 479.818C724.486 479.818 723.599 480.027 722.815 480.445C722.04 480.862 721.426 481.472 720.974 482.273C720.531 483.074 720.31 484.045 720.31 485.188ZM746.795 497.409C744.903 497.409 743.271 496.991 741.899 496.156C740.535 495.312 739.483 494.136 738.741 492.628C738.008 491.111 737.642 489.347 737.642 487.335C737.642 485.324 738.008 483.551 738.741 482.017C739.483 480.474 740.514 479.273 741.835 478.412C743.164 477.543 744.716 477.108 746.488 477.108C747.511 477.108 748.521 477.278 749.518 477.619C750.515 477.96 751.423 478.514 752.241 479.281C753.059 480.04 753.711 481.045 754.197 482.298C754.683 483.551 754.926 485.094 754.926 486.926V488.205H739.789V485.597H751.858C751.858 484.489 751.636 483.5 751.193 482.631C750.758 481.761 750.136 481.075 749.326 480.572C748.525 480.07 747.579 479.818 746.488 479.818C745.287 479.818 744.247 480.116 743.369 480.713C742.5 481.301 741.831 482.068 741.362 483.014C740.893 483.96 740.659 484.974 740.659 486.057V487.795C740.659 489.278 740.914 490.536 741.426 491.567C741.946 492.589 742.666 493.369 743.586 493.906C744.507 494.435 745.576 494.699 746.795 494.699C747.588 494.699 748.304 494.588 748.943 494.366C749.591 494.136 750.149 493.795 750.618 493.344C751.086 492.884 751.449 492.312 751.704 491.631L754.619 492.449C754.312 493.438 753.797 494.307 753.072 495.057C752.348 495.798 751.453 496.378 750.387 496.795C749.322 497.205 748.125 497.409 746.795 497.409ZM775.419 497.46C774.174 497.46 773.045 497.226 772.031 496.757C771.017 496.28 770.211 495.594 769.615 494.699C769.018 493.795 768.72 492.705 768.72 491.426C768.72 490.301 768.941 489.389 769.385 488.69C769.828 487.983 770.42 487.429 771.162 487.028C771.903 486.628 772.721 486.33 773.616 486.134C774.52 485.929 775.427 485.767 776.339 485.648C777.532 485.494 778.5 485.379 779.241 485.303C779.991 485.217 780.537 485.077 780.877 484.881C781.227 484.685 781.402 484.344 781.402 483.858V483.756C781.402 482.494 781.056 481.514 780.366 480.815C779.684 480.116 778.649 479.767 777.26 479.767C775.819 479.767 774.69 480.082 773.872 480.713C773.054 481.344 772.478 482.017 772.146 482.733L769.282 481.71C769.794 480.517 770.475 479.588 771.328 478.923C772.189 478.25 773.126 477.781 774.14 477.517C775.163 477.244 776.169 477.108 777.157 477.108C777.788 477.108 778.512 477.185 779.331 477.338C780.157 477.483 780.954 477.786 781.721 478.246C782.497 478.706 783.14 479.401 783.652 480.33C784.163 481.259 784.419 482.503 784.419 484.062V497H781.402V494.341H781.248C781.044 494.767 780.703 495.223 780.225 495.709C779.748 496.195 779.113 496.608 778.321 496.949C777.528 497.29 776.561 497.46 775.419 497.46ZM775.879 494.75C777.072 494.75 778.078 494.516 778.896 494.047C779.723 493.578 780.345 492.973 780.762 492.232C781.189 491.49 781.402 490.71 781.402 489.892V487.131C781.274 487.284 780.993 487.425 780.558 487.553C780.132 487.672 779.637 487.778 779.075 487.872C778.521 487.957 777.98 488.034 777.451 488.102C776.931 488.162 776.51 488.213 776.186 488.256C775.402 488.358 774.669 488.524 773.987 488.754C773.314 488.976 772.768 489.312 772.35 489.764C771.941 490.207 771.737 490.812 771.737 491.58C771.737 492.628 772.125 493.42 772.9 493.957C773.684 494.486 774.677 494.75 775.879 494.75ZM776.083 474.705L772.095 468.773H775.623L778.743 474.705H776.083ZM813.96 481.761L811.249 482.528C811.079 482.077 810.827 481.638 810.495 481.212C810.171 480.777 809.728 480.419 809.165 480.138C808.603 479.857 807.883 479.716 807.005 479.716C805.803 479.716 804.802 479.993 804.001 480.547C803.208 481.092 802.812 481.787 802.812 482.631C802.812 483.381 803.085 483.973 803.63 484.408C804.175 484.842 805.028 485.205 806.187 485.494L809.102 486.21C810.857 486.636 812.165 487.288 813.026 488.166C813.887 489.036 814.317 490.156 814.317 491.528C814.317 492.653 813.994 493.659 813.346 494.545C812.707 495.432 811.812 496.131 810.661 496.642C809.511 497.153 808.173 497.409 806.647 497.409C804.644 497.409 802.987 496.974 801.674 496.105C800.362 495.236 799.531 493.966 799.181 492.295L802.045 491.58C802.317 492.636 802.833 493.429 803.592 493.957C804.359 494.486 805.36 494.75 806.596 494.75C808.002 494.75 809.119 494.452 809.945 493.855C810.781 493.25 811.198 492.526 811.198 491.682C811.198 491 810.96 490.429 810.482 489.969C810.005 489.5 809.272 489.151 808.283 488.92L805.011 488.153C803.212 487.727 801.891 487.067 801.048 486.172C800.212 485.268 799.795 484.139 799.795 482.784C799.795 481.676 800.106 480.696 800.728 479.844C801.359 478.991 802.215 478.322 803.298 477.837C804.388 477.351 805.624 477.108 807.005 477.108C808.948 477.108 810.474 477.534 811.582 478.386C812.698 479.239 813.491 480.364 813.96 481.761ZM831.234 488.972V477.364H834.251V497H831.234V493.676H831.029C830.569 494.673 829.853 495.521 828.882 496.22C827.91 496.911 826.683 497.256 825.2 497.256C823.973 497.256 822.882 496.987 821.927 496.45C820.973 495.905 820.223 495.087 819.677 493.996C819.132 492.896 818.859 491.511 818.859 489.841V477.364H821.876V489.636C821.876 491.068 822.277 492.21 823.078 493.062C823.887 493.915 824.919 494.341 826.172 494.341C826.922 494.341 827.684 494.149 828.46 493.766C829.244 493.382 829.9 492.794 830.429 492.001C830.966 491.209 831.234 490.199 831.234 488.972ZM839.777 497V477.364H842.794V497H839.777ZM841.311 474.091C840.723 474.091 840.216 473.891 839.79 473.49C839.372 473.089 839.163 472.608 839.163 472.045C839.163 471.483 839.372 471.001 839.79 470.601C840.216 470.2 840.723 470 841.311 470C841.899 470 842.402 470.2 842.82 470.601C843.246 471.001 843.459 471.483 843.459 472.045C843.459 472.608 843.246 473.089 842.82 473.49C842.402 473.891 841.899 474.091 841.311 474.091ZM864.377 477.364L857.115 497H854.047L846.786 477.364H850.059L855.479 493.011H855.684L861.104 477.364H864.377ZM868.359 497V477.364H871.274V480.33H871.478C871.836 479.358 872.484 478.57 873.422 477.964C874.359 477.359 875.416 477.057 876.592 477.057C876.814 477.057 877.091 477.061 877.423 477.07C877.755 477.078 878.007 477.091 878.177 477.108V480.176C878.075 480.151 877.841 480.112 877.474 480.061C877.116 480.001 876.737 479.972 876.336 479.972C875.382 479.972 874.529 480.172 873.779 480.572C873.038 480.964 872.45 481.51 872.015 482.209C871.589 482.899 871.376 483.687 871.376 484.574V497H868.359ZM889.389 497.409C887.497 497.409 885.865 496.991 884.493 496.156C883.129 495.312 882.076 494.136 881.335 492.628C880.602 491.111 880.235 489.347 880.235 487.335C880.235 485.324 880.602 483.551 881.335 482.017C882.076 480.474 883.108 479.273 884.429 478.412C885.758 477.543 887.309 477.108 889.082 477.108C890.105 477.108 891.115 477.278 892.112 477.619C893.109 477.96 894.017 478.514 894.835 479.281C895.653 480.04 896.305 481.045 896.791 482.298C897.277 483.551 897.52 485.094 897.52 486.926V488.205H882.383V485.597H894.451C894.451 484.489 894.23 483.5 893.787 482.631C893.352 481.761 892.73 481.075 891.92 480.572C891.119 480.07 890.173 479.818 889.082 479.818C887.88 479.818 886.841 480.116 885.963 480.713C885.093 481.301 884.424 482.068 883.956 483.014C883.487 483.96 883.252 484.974 883.252 486.057V487.795C883.252 489.278 883.508 490.536 884.02 491.567C884.539 492.589 885.26 493.369 886.18 493.906C887.1 494.435 888.17 494.699 889.389 494.699C890.181 494.699 890.897 494.588 891.537 494.366C892.184 494.136 892.743 493.795 893.211 493.344C893.68 492.884 894.042 492.312 894.298 491.631L897.213 492.449C896.906 493.438 896.39 494.307 895.666 495.057C894.941 495.798 894.047 496.378 892.981 496.795C891.916 497.205 890.718 497.409 889.389 497.409ZM906.609 493.42L906.404 494.801C906.26 495.773 906.038 496.812 905.74 497.92C905.45 499.028 905.147 500.072 904.832 501.053C904.517 502.033 904.257 502.813 904.052 503.392H901.751C901.862 502.847 902.007 502.126 902.186 501.232C902.365 500.337 902.544 499.335 902.723 498.227C902.91 497.128 903.064 496.003 903.183 494.852L903.336 493.42H906.609ZM930.864 477.364V479.92H920.688V477.364H930.864ZM923.653 472.659H926.67V491.375C926.67 492.227 926.794 492.866 927.041 493.293C927.297 493.71 927.621 493.991 928.013 494.136C928.413 494.273 928.835 494.341 929.278 494.341C929.611 494.341 929.884 494.324 930.097 494.29C930.31 494.247 930.48 494.213 930.608 494.188L931.222 496.898C931.017 496.974 930.732 497.051 930.365 497.128C929.999 497.213 929.534 497.256 928.972 497.256C928.119 497.256 927.284 497.072 926.466 496.706C925.656 496.339 924.983 495.781 924.446 495.031C923.918 494.281 923.653 493.335 923.653 492.193V472.659ZM935.402 497V477.364H938.317V480.33H938.521C938.879 479.358 939.527 478.57 940.464 477.964C941.402 477.359 942.459 477.057 943.635 477.057C943.857 477.057 944.134 477.061 944.466 477.07C944.798 477.078 945.05 477.091 945.22 477.108V480.176C945.118 480.151 944.884 480.112 944.517 480.061C944.159 480.001 943.78 479.972 943.379 479.972C942.425 479.972 941.572 480.172 940.822 480.572C940.081 480.964 939.493 481.51 939.058 482.209C938.632 482.899 938.419 483.687 938.419 484.574V497H935.402ZM956.176 497.409C954.403 497.409 952.848 496.987 951.51 496.143C950.18 495.3 949.141 494.119 948.391 492.602C947.649 491.085 947.278 489.312 947.278 487.284C947.278 485.239 947.649 483.453 948.391 481.928C949.141 480.402 950.18 479.217 951.51 478.374C952.848 477.53 954.403 477.108 956.176 477.108C957.949 477.108 959.5 477.53 960.83 478.374C962.168 479.217 963.207 480.402 963.949 481.928C964.699 483.453 965.074 485.239 965.074 487.284C965.074 489.312 964.699 491.085 963.949 492.602C963.207 494.119 962.168 495.3 960.83 496.143C959.5 496.987 957.949 497.409 956.176 497.409ZM956.176 494.699C957.523 494.699 958.631 494.354 959.5 493.663C960.369 492.973 961.013 492.065 961.43 490.94C961.848 489.815 962.057 488.597 962.057 487.284C962.057 485.972 961.848 484.749 961.43 483.615C961.013 482.482 960.369 481.565 959.5 480.866C958.631 480.168 957.523 479.818 956.176 479.818C954.83 479.818 953.722 480.168 952.852 480.866C951.983 481.565 951.339 482.482 950.922 483.615C950.504 484.749 950.295 485.972 950.295 487.284C950.295 488.597 950.504 489.815 950.922 490.94C951.339 492.065 951.983 492.973 952.852 493.663C953.722 494.354 954.83 494.699 956.176 494.699ZM982.054 488.972V477.364H985.071V497H982.054V493.676H981.85C981.39 494.673 980.674 495.521 979.702 496.22C978.73 496.911 977.503 497.256 976.02 497.256C974.793 497.256 973.702 496.987 972.748 496.45C971.793 495.905 971.043 495.087 970.498 493.996C969.952 492.896 969.679 491.511 969.679 489.841V477.364H972.696V489.636C972.696 491.068 973.097 492.21 973.898 493.062C974.708 493.915 975.739 494.341 976.992 494.341C977.742 494.341 978.505 494.149 979.28 493.766C980.064 493.382 980.721 492.794 981.249 492.001C981.786 491.209 982.054 490.199 982.054 488.972ZM1006.65 477.364L999.393 497H996.325L989.063 477.364H992.336L997.756 493.011H997.961L1003.38 477.364H1006.65ZM1018.17 497.409C1016.27 497.409 1014.64 496.991 1013.27 496.156C1011.91 495.312 1010.85 494.136 1010.11 492.628C1009.38 491.111 1009.01 489.347 1009.01 487.335C1009.01 485.324 1009.38 483.551 1010.11 482.017C1010.85 480.474 1011.88 479.273 1013.21 478.412C1014.54 477.543 1016.09 477.108 1017.86 477.108C1018.88 477.108 1019.89 477.278 1020.89 477.619C1021.89 477.96 1022.79 478.514 1023.61 479.281C1024.43 480.04 1025.08 481.045 1025.57 482.298C1026.05 483.551 1026.3 485.094 1026.3 486.926V488.205H1011.16V485.597H1023.23C1023.23 484.489 1023.01 483.5 1022.56 482.631C1022.13 481.761 1021.51 481.075 1020.7 480.572C1019.9 480.07 1018.95 479.818 1017.86 479.818C1016.66 479.818 1015.62 480.116 1014.74 480.713C1013.87 481.301 1013.2 482.068 1012.73 483.014C1012.26 483.96 1012.03 484.974 1012.03 486.057V487.795C1012.03 489.278 1012.29 490.536 1012.8 491.567C1013.32 492.589 1014.04 493.369 1014.96 493.906C1015.88 494.435 1016.95 494.699 1018.17 494.699C1018.96 494.699 1019.67 494.588 1020.31 494.366C1020.96 494.136 1021.52 493.795 1021.99 493.344C1022.46 492.884 1022.82 492.312 1023.08 491.631L1025.99 492.449C1025.68 493.438 1025.17 494.307 1024.44 495.057C1023.72 495.798 1022.82 496.378 1021.76 496.795C1020.69 497.205 1019.5 497.409 1018.17 497.409ZM1030.89 497V477.364H1033.8V480.33H1034.01C1034.36 479.358 1035.01 478.57 1035.95 477.964C1036.89 477.359 1037.94 477.057 1039.12 477.057C1039.34 477.057 1039.62 477.061 1039.95 477.07C1040.28 477.078 1040.53 477.091 1040.7 477.108V480.176C1040.6 480.151 1040.37 480.112 1040 480.061C1039.64 480.001 1039.26 479.972 1038.86 479.972C1037.91 479.972 1037.06 480.172 1036.31 480.572C1035.57 480.964 1034.98 481.51 1034.54 482.209C1034.12 482.899 1033.9 483.687 1033.9 484.574V497H1030.89ZM1066.78 488.972V477.364H1069.8V497H1066.78V493.676H1066.58C1066.12 494.673 1065.4 495.521 1064.43 496.22C1063.46 496.911 1062.23 497.256 1060.75 497.256C1059.52 497.256 1058.43 496.987 1057.47 496.45C1056.52 495.905 1055.77 495.087 1055.22 493.996C1054.68 492.896 1054.41 491.511 1054.41 489.841V477.364H1057.42V489.636C1057.42 491.068 1057.82 492.21 1058.62 493.062C1059.43 493.915 1060.47 494.341 1061.72 494.341C1062.47 494.341 1063.23 494.149 1064.01 493.766C1064.79 493.382 1065.45 492.794 1065.98 492.001C1066.51 491.209 1066.78 490.199 1066.78 488.972ZM1078.34 485.188V497H1075.32V477.364H1078.24V480.432H1078.49C1078.95 479.435 1079.65 478.634 1080.59 478.028C1081.53 477.415 1082.74 477.108 1084.22 477.108C1085.55 477.108 1086.71 477.381 1087.71 477.926C1088.71 478.463 1089.48 479.281 1090.04 480.381C1090.59 481.472 1090.87 482.852 1090.87 484.523V497H1087.85V484.727C1087.85 483.185 1087.45 481.983 1086.65 481.122C1085.85 480.253 1084.75 479.818 1083.35 479.818C1082.39 479.818 1081.53 480.027 1080.77 480.445C1080.02 480.862 1079.43 481.472 1078.99 482.273C1078.56 483.074 1078.34 484.045 1078.34 485.188ZM1118.88 488.972V477.364H1121.9V497H1118.88V493.676H1118.68C1118.22 494.673 1117.5 495.521 1116.53 496.22C1115.56 496.911 1114.33 497.256 1112.85 497.256C1111.62 497.256 1110.53 496.987 1109.58 496.45C1108.62 495.905 1107.87 495.087 1107.33 493.996C1106.78 492.896 1106.51 491.511 1106.51 489.841V477.364H1109.52V489.636C1109.52 491.068 1109.93 492.21 1110.73 493.062C1111.54 493.915 1112.57 494.341 1113.82 494.341C1114.57 494.341 1115.33 494.149 1116.11 493.766C1116.89 493.382 1117.55 492.794 1118.08 492.001C1118.61 491.209 1118.88 490.199 1118.88 488.972ZM1130.44 485.188V497H1127.43V477.364H1130.34V480.432H1130.6C1131.06 479.435 1131.75 478.634 1132.69 478.028C1133.63 477.415 1134.84 477.108 1136.32 477.108C1137.65 477.108 1138.82 477.381 1139.81 477.926C1140.81 478.463 1141.59 479.281 1142.14 480.381C1142.69 481.472 1142.97 482.852 1142.97 484.523V497H1139.95V484.727C1139.95 483.185 1139.55 481.983 1138.75 481.122C1137.95 480.253 1136.85 479.818 1135.45 479.818C1134.49 479.818 1133.63 480.027 1132.87 480.445C1132.12 480.862 1131.53 481.472 1131.09 482.273C1130.66 483.074 1130.44 484.045 1130.44 485.188ZM1148.48 497V477.364H1151.5V497H1148.48ZM1150.02 474.091C1149.43 474.091 1148.92 473.891 1148.5 473.49C1148.08 473.089 1147.87 472.608 1147.87 472.045C1147.87 471.483 1148.08 471.001 1148.5 470.601C1148.92 470.2 1149.43 470 1150.02 470C1150.61 470 1151.11 470.2 1151.53 470.601C1151.95 471.001 1152.17 471.483 1152.17 472.045C1152.17 472.608 1151.95 473.089 1151.53 473.49C1151.11 473.891 1150.61 474.091 1150.02 474.091ZM1173.08 477.364L1165.82 497H1162.75L1155.49 477.364H1158.77L1164.19 493.011H1164.39L1169.81 477.364H1173.08ZM1184.6 497.409C1182.7 497.409 1181.07 496.991 1179.7 496.156C1178.34 495.312 1177.28 494.136 1176.54 492.628C1175.81 491.111 1175.44 489.347 1175.44 487.335C1175.44 485.324 1175.81 483.551 1176.54 482.017C1177.28 480.474 1178.31 479.273 1179.64 478.412C1180.97 477.543 1182.52 477.108 1184.29 477.108C1185.31 477.108 1186.32 477.278 1187.32 477.619C1188.32 477.96 1189.22 478.514 1190.04 479.281C1190.86 480.04 1191.51 481.045 1192 482.298C1192.48 483.551 1192.73 485.094 1192.73 486.926V488.205H1177.59V485.597H1189.66C1189.66 484.489 1189.44 483.5 1188.99 482.631C1188.56 481.761 1187.94 481.075 1187.13 480.572C1186.33 480.07 1185.38 479.818 1184.29 479.818C1183.09 479.818 1182.05 480.116 1181.17 480.713C1180.3 481.301 1179.63 482.068 1179.16 483.014C1178.69 483.96 1178.46 484.974 1178.46 486.057V487.795C1178.46 489.278 1178.72 490.536 1179.23 491.567C1179.75 492.589 1180.47 493.369 1181.39 493.906C1182.31 494.435 1183.38 494.699 1184.6 494.699C1185.39 494.699 1186.1 494.588 1186.74 494.366C1187.39 494.136 1187.95 493.795 1188.42 493.344C1188.89 492.884 1189.25 492.312 1189.5 491.631L1192.42 492.449C1192.11 493.438 1191.6 494.307 1190.87 495.057C1190.15 495.798 1189.25 496.378 1188.19 496.795C1187.12 497.205 1185.93 497.409 1184.6 497.409ZM1197.32 497V477.364H1200.23V480.33H1200.44C1200.79 479.358 1201.44 478.57 1202.38 477.964C1203.32 477.359 1204.37 477.057 1205.55 477.057C1205.77 477.057 1206.05 477.061 1206.38 477.07C1206.71 477.078 1206.96 477.091 1207.13 477.108V480.176C1207.03 480.151 1206.8 480.112 1206.43 480.061C1206.07 480.001 1205.69 479.972 1205.29 479.972C1204.34 479.972 1203.49 480.172 1202.74 480.572C1202 480.964 1201.41 481.51 1200.97 482.209C1200.55 482.899 1200.33 483.687 1200.33 484.574V497H1197.32ZM1224.62 481.761L1221.91 482.528C1221.74 482.077 1221.49 481.638 1221.16 481.212C1220.83 480.777 1220.39 480.419 1219.83 480.138C1219.26 479.857 1218.54 479.716 1217.67 479.716C1216.46 479.716 1215.46 479.993 1214.66 480.547C1213.87 481.092 1213.47 481.787 1213.47 482.631C1213.47 483.381 1213.74 483.973 1214.29 484.408C1214.84 484.842 1215.69 485.205 1216.85 485.494L1219.76 486.21C1221.52 486.636 1222.83 487.288 1223.69 488.166C1224.55 489.036 1224.98 490.156 1224.98 491.528C1224.98 492.653 1224.65 493.659 1224.01 494.545C1223.37 495.432 1222.47 496.131 1221.32 496.642C1220.17 497.153 1218.83 497.409 1217.31 497.409C1215.3 497.409 1213.65 496.974 1212.33 496.105C1211.02 495.236 1210.19 493.966 1209.84 492.295L1212.7 491.58C1212.98 492.636 1213.49 493.429 1214.25 493.957C1215.02 494.486 1216.02 494.75 1217.26 494.75C1218.66 494.75 1219.78 494.452 1220.61 493.855C1221.44 493.25 1221.86 492.526 1221.86 491.682C1221.86 491 1221.62 490.429 1221.14 489.969C1220.67 489.5 1219.93 489.151 1218.94 488.92L1215.67 488.153C1213.87 487.727 1212.55 487.067 1211.71 486.172C1210.87 485.268 1210.45 484.139 1210.45 482.784C1210.45 481.676 1210.77 480.696 1211.39 479.844C1212.02 478.991 1212.88 478.322 1213.96 477.837C1215.05 477.351 1216.28 477.108 1217.67 477.108C1219.61 477.108 1221.13 477.534 1222.24 478.386C1223.36 479.239 1224.15 480.364 1224.62 481.761ZM1235.3 497.46C1234.05 497.46 1232.92 497.226 1231.91 496.757C1230.9 496.28 1230.09 495.594 1229.49 494.699C1228.9 493.795 1228.6 492.705 1228.6 491.426C1228.6 490.301 1228.82 489.389 1229.26 488.69C1229.71 487.983 1230.3 487.429 1231.04 487.028C1231.78 486.628 1232.6 486.33 1233.5 486.134C1234.4 485.929 1235.31 485.767 1236.22 485.648C1237.41 485.494 1238.38 485.379 1239.12 485.303C1239.87 485.217 1240.42 485.077 1240.76 484.881C1241.11 484.685 1241.28 484.344 1241.28 483.858V483.756C1241.28 482.494 1240.94 481.514 1240.25 480.815C1239.56 480.116 1238.53 479.767 1237.14 479.767C1235.7 479.767 1234.57 480.082 1233.75 480.713C1232.93 481.344 1232.36 482.017 1232.02 482.733L1229.16 481.71C1229.67 480.517 1230.35 479.588 1231.21 478.923C1232.07 478.25 1233 477.781 1234.02 477.517C1235.04 477.244 1236.05 477.108 1237.04 477.108C1237.67 477.108 1238.39 477.185 1239.21 477.338C1240.04 477.483 1240.83 477.786 1241.6 478.246C1242.38 478.706 1243.02 479.401 1243.53 480.33C1244.04 481.259 1244.3 482.503 1244.3 484.062V497H1241.28V494.341H1241.13C1240.92 494.767 1240.58 495.223 1240.1 495.709C1239.63 496.195 1238.99 496.608 1238.2 496.949C1237.41 497.29 1236.44 497.46 1235.3 497.46ZM1235.76 494.75C1236.95 494.75 1237.96 494.516 1238.77 494.047C1239.6 493.578 1240.22 492.973 1240.64 492.232C1241.07 491.49 1241.28 490.71 1241.28 489.892V487.131C1241.15 487.284 1240.87 487.425 1240.44 487.553C1240.01 487.672 1239.52 487.778 1238.95 487.872C1238.4 487.957 1237.86 488.034 1237.33 488.102C1236.81 488.162 1236.39 488.213 1236.06 488.256C1235.28 488.358 1234.55 488.524 1233.87 488.754C1233.19 488.976 1232.65 489.312 1232.23 489.764C1231.82 490.207 1231.62 490.812 1231.62 491.58C1231.62 492.628 1232 493.42 1232.78 493.957C1233.56 494.486 1234.56 494.75 1235.76 494.75ZM1252.82 470.818V497H1249.8V470.818H1252.82ZM1276.4 504.773C1274.94 504.773 1273.69 504.585 1272.64 504.21C1271.59 503.844 1270.72 503.358 1270.02 502.753C1269.33 502.156 1268.78 501.517 1268.37 500.835L1270.77 499.148C1271.05 499.506 1271.39 499.915 1271.81 500.375C1272.23 500.844 1272.8 501.249 1273.52 501.589C1274.25 501.939 1275.21 502.114 1276.4 502.114C1277.98 502.114 1279.29 501.73 1280.32 500.963C1281.35 500.196 1281.87 498.994 1281.87 497.358V493.369H1281.61C1281.39 493.727 1281.08 494.17 1280.67 494.699C1280.27 495.219 1279.69 495.683 1278.93 496.092C1278.18 496.493 1277.17 496.693 1275.89 496.693C1274.3 496.693 1272.88 496.318 1271.62 495.568C1270.36 494.818 1269.37 493.727 1268.64 492.295C1267.91 490.864 1267.55 489.125 1267.55 487.08C1267.55 485.068 1267.91 483.317 1268.61 481.825C1269.32 480.325 1270.3 479.166 1271.57 478.348C1272.83 477.521 1274.28 477.108 1275.94 477.108C1277.22 477.108 1278.23 477.321 1278.98 477.747C1279.74 478.165 1280.32 478.642 1280.72 479.179C1281.13 479.707 1281.44 480.142 1281.67 480.483H1281.97V477.364H1284.89V497.562C1284.89 499.25 1284.5 500.622 1283.74 501.679C1282.98 502.744 1281.96 503.524 1280.67 504.018C1279.39 504.521 1277.97 504.773 1276.4 504.773ZM1276.3 493.983C1277.51 493.983 1278.53 493.706 1279.36 493.152C1280.2 492.598 1280.83 491.801 1281.27 490.761C1281.7 489.722 1281.92 488.477 1281.92 487.028C1281.92 485.614 1281.71 484.365 1281.28 483.283C1280.86 482.2 1280.23 481.352 1279.39 480.739C1278.55 480.125 1277.52 479.818 1276.3 479.818C1275.02 479.818 1273.95 480.142 1273.1 480.79C1272.26 481.437 1271.62 482.307 1271.2 483.398C1270.78 484.489 1270.57 485.699 1270.57 487.028C1270.57 488.392 1270.78 489.598 1271.21 490.646C1271.64 491.686 1272.28 492.504 1273.13 493.101C1273.98 493.689 1275.03 493.983 1276.3 493.983ZM1290.41 497V477.364H1293.32V480.33H1293.53C1293.89 479.358 1294.53 478.57 1295.47 477.964C1296.41 477.359 1297.47 477.057 1298.64 477.057C1298.86 477.057 1299.14 477.061 1299.47 477.07C1299.81 477.078 1300.06 477.091 1300.23 477.108V480.176C1300.13 480.151 1299.89 480.112 1299.52 480.061C1299.17 480.001 1298.79 479.972 1298.39 479.972C1297.43 479.972 1296.58 480.172 1295.83 480.572C1295.09 480.964 1294.5 481.51 1294.07 482.209C1293.64 482.899 1293.43 483.687 1293.43 484.574V497H1290.41ZM1309.58 497.46C1308.34 497.46 1307.21 497.226 1306.19 496.757C1305.18 496.28 1304.38 495.594 1303.78 494.699C1303.18 493.795 1302.88 492.705 1302.88 491.426C1302.88 490.301 1303.11 489.389 1303.55 488.69C1303.99 487.983 1304.58 487.429 1305.33 487.028C1306.07 486.628 1306.89 486.33 1307.78 486.134C1308.68 485.929 1309.59 485.767 1310.5 485.648C1311.7 485.494 1312.66 485.379 1313.41 485.303C1314.16 485.217 1314.7 485.077 1315.04 484.881C1315.39 484.685 1315.57 484.344 1315.57 483.858V483.756C1315.57 482.494 1315.22 481.514 1314.53 480.815C1313.85 480.116 1312.81 479.767 1311.42 479.767C1309.98 479.767 1308.85 480.082 1308.04 480.713C1307.22 481.344 1306.64 482.017 1306.31 482.733L1303.45 481.71C1303.96 480.517 1304.64 479.588 1305.49 478.923C1306.35 478.25 1307.29 477.781 1308.3 477.517C1309.33 477.244 1310.33 477.108 1311.32 477.108C1311.95 477.108 1312.68 477.185 1313.49 477.338C1314.32 477.483 1315.12 477.786 1315.89 478.246C1316.66 478.706 1317.3 479.401 1317.82 480.33C1318.33 481.259 1318.58 482.503 1318.58 484.062V497H1315.57V494.341H1315.41C1315.21 494.767 1314.87 495.223 1314.39 495.709C1313.91 496.195 1313.28 496.608 1312.48 496.949C1311.69 497.29 1310.72 497.46 1309.58 497.46ZM1310.04 494.75C1311.24 494.75 1312.24 494.516 1313.06 494.047C1313.89 493.578 1314.51 492.973 1314.93 492.232C1315.35 491.49 1315.57 490.71 1315.57 489.892V487.131C1315.44 487.284 1315.16 487.425 1314.72 487.553C1314.3 487.672 1313.8 487.778 1313.24 487.872C1312.69 487.957 1312.14 488.034 1311.62 488.102C1311.1 488.162 1310.67 488.213 1310.35 488.256C1309.57 488.358 1308.83 488.524 1308.15 488.754C1307.48 488.976 1306.93 489.312 1306.51 489.764C1306.11 490.207 1305.9 490.812 1305.9 491.58C1305.9 492.628 1306.29 493.42 1307.06 493.957C1307.85 494.486 1308.84 494.75 1310.04 494.75ZM1324.09 504.364V477.364H1327V480.483H1327.36C1327.58 480.142 1327.89 479.707 1328.28 479.179C1328.68 478.642 1329.25 478.165 1330 477.747C1330.75 477.321 1331.76 477.108 1333.04 477.108C1334.69 477.108 1336.15 477.521 1337.41 478.348C1338.67 479.175 1339.66 480.347 1340.36 481.864C1341.07 483.381 1341.42 485.17 1341.42 487.233C1341.42 489.312 1341.07 491.115 1340.36 492.641C1339.66 494.158 1338.68 495.334 1337.42 496.169C1336.17 496.996 1334.73 497.409 1333.09 497.409C1331.83 497.409 1330.82 497.2 1330.06 496.783C1329.3 496.357 1328.72 495.875 1328.31 495.338C1327.9 494.793 1327.58 494.341 1327.36 493.983H1327.11V504.364H1324.09ZM1327.06 487.182C1327.06 488.665 1327.27 489.973 1327.71 491.107C1328.14 492.232 1328.78 493.114 1329.61 493.753C1330.45 494.384 1331.47 494.699 1332.68 494.699C1333.94 494.699 1334.99 494.366 1335.84 493.702C1336.69 493.028 1337.33 492.125 1337.76 490.991C1338.19 489.849 1338.41 488.58 1338.41 487.182C1338.41 485.801 1338.19 484.557 1337.77 483.449C1337.35 482.332 1336.72 481.45 1335.86 480.803C1335.02 480.146 1333.96 479.818 1332.68 479.818C1331.45 479.818 1330.42 480.129 1329.59 480.751C1328.75 481.365 1328.12 482.226 1327.69 483.334C1327.27 484.433 1327.06 485.716 1327.06 487.182ZM1349.04 485.188V497H1346.03V470.818H1349.04V480.432H1349.3C1349.76 479.418 1350.45 478.612 1351.37 478.016C1352.3 477.411 1353.54 477.108 1355.08 477.108C1356.42 477.108 1357.59 477.376 1358.59 477.913C1359.6 478.442 1360.38 479.256 1360.93 480.355C1361.5 481.446 1361.78 482.835 1361.78 484.523V497H1358.76V484.727C1358.76 483.168 1358.36 481.962 1357.55 481.109C1356.74 480.249 1355.63 479.818 1354.21 479.818C1353.22 479.818 1352.33 480.027 1351.55 480.445C1350.77 480.862 1350.16 481.472 1349.71 482.273C1349.27 483.074 1349.04 484.045 1349.04 485.188ZM1385.35 504.773C1383.89 504.773 1382.64 504.585 1381.59 504.21C1380.54 503.844 1379.67 503.358 1378.97 502.753C1378.28 502.156 1377.73 501.517 1377.32 500.835L1379.72 499.148C1380 499.506 1380.34 499.915 1380.76 500.375C1381.18 500.844 1381.75 501.249 1382.47 501.589C1383.2 501.939 1384.16 502.114 1385.35 502.114C1386.93 502.114 1388.24 501.73 1389.27 500.963C1390.3 500.196 1390.82 498.994 1390.82 497.358V493.369H1390.56C1390.34 493.727 1390.03 494.17 1389.62 494.699C1389.22 495.219 1388.64 495.683 1387.88 496.092C1387.13 496.493 1386.11 496.693 1384.84 496.693C1383.25 496.693 1381.83 496.318 1380.57 495.568C1379.31 494.818 1378.32 493.727 1377.59 492.295C1376.86 490.864 1376.5 489.125 1376.5 487.08C1376.5 485.068 1376.85 483.317 1377.56 481.825C1378.27 480.325 1379.25 479.166 1380.52 478.348C1381.78 477.521 1383.23 477.108 1384.89 477.108C1386.17 477.108 1387.18 477.321 1387.93 477.747C1388.69 478.165 1389.27 478.642 1389.67 479.179C1390.08 479.707 1390.39 480.142 1390.61 480.483H1390.92V477.364H1393.84V497.562C1393.84 499.25 1393.45 500.622 1392.69 501.679C1391.93 502.744 1390.9 503.524 1389.62 504.018C1388.34 504.521 1386.92 504.773 1385.35 504.773ZM1385.25 493.983C1386.46 493.983 1387.48 493.706 1388.31 493.152C1389.15 492.598 1389.78 491.801 1390.22 490.761C1390.65 489.722 1390.87 488.477 1390.87 487.028C1390.87 485.614 1390.66 484.365 1390.23 483.283C1389.81 482.2 1389.17 481.352 1388.34 480.739C1387.5 480.125 1386.47 479.818 1385.25 479.818C1383.97 479.818 1382.9 480.142 1382.05 480.79C1381.21 481.437 1380.57 482.307 1380.14 483.398C1379.73 484.489 1379.52 485.699 1379.52 487.028C1379.52 488.392 1379.73 489.598 1380.16 490.646C1380.59 491.686 1381.23 492.504 1382.07 493.101C1382.93 493.689 1383.98 493.983 1385.25 493.983ZM1405.14 497.46C1403.89 497.46 1402.76 497.226 1401.75 496.757C1400.74 496.28 1399.93 495.594 1399.33 494.699C1398.74 493.795 1398.44 492.705 1398.44 491.426C1398.44 490.301 1398.66 489.389 1399.1 488.69C1399.55 487.983 1400.14 487.429 1400.88 487.028C1401.62 486.628 1402.44 486.33 1403.33 486.134C1404.24 485.929 1405.15 485.767 1406.06 485.648C1407.25 485.494 1408.22 485.379 1408.96 485.303C1409.71 485.217 1410.26 485.077 1410.6 484.881C1410.95 484.685 1411.12 484.344 1411.12 483.858V483.756C1411.12 482.494 1410.78 481.514 1410.08 480.815C1409.4 480.116 1408.37 479.767 1406.98 479.767C1405.54 479.767 1404.41 480.082 1403.59 480.713C1402.77 481.344 1402.2 482.017 1401.86 482.733L1399 481.71C1399.51 480.517 1400.19 479.588 1401.05 478.923C1401.91 478.25 1402.84 477.781 1403.86 477.517C1404.88 477.244 1405.89 477.108 1406.88 477.108C1407.51 477.108 1408.23 477.185 1409.05 477.338C1409.88 477.483 1410.67 477.786 1411.44 478.246C1412.22 478.706 1412.86 479.401 1413.37 480.33C1413.88 481.259 1414.14 482.503 1414.14 484.062V497H1411.12V494.341H1410.97C1410.76 494.767 1410.42 495.223 1409.94 495.709C1409.47 496.195 1408.83 496.608 1408.04 496.949C1407.25 497.29 1406.28 497.46 1405.14 497.46ZM1405.6 494.75C1406.79 494.75 1407.8 494.516 1408.61 494.047C1409.44 493.578 1410.06 492.973 1410.48 492.232C1410.91 491.49 1411.12 490.71 1411.12 489.892V487.131C1410.99 487.284 1410.71 487.425 1410.28 487.553C1409.85 487.672 1409.36 487.778 1408.79 487.872C1408.24 487.957 1407.7 488.034 1407.17 488.102C1406.65 488.162 1406.23 488.213 1405.9 488.256C1405.12 488.358 1404.39 488.524 1403.71 488.754C1403.03 488.976 1402.49 489.312 1402.07 489.764C1401.66 490.207 1401.46 490.812 1401.46 491.58C1401.46 492.628 1401.84 493.42 1402.62 493.957C1403.4 494.486 1404.4 494.75 1405.6 494.75ZM1419.64 497V477.364H1422.56V480.432H1422.81C1423.22 479.384 1423.88 478.57 1424.8 477.99C1425.71 477.402 1426.8 477.108 1428.08 477.108C1429.38 477.108 1430.46 477.402 1431.32 477.99C1432.19 478.57 1432.86 479.384 1433.35 480.432H1433.55C1434.06 479.418 1434.81 478.612 1435.82 478.016C1436.82 477.411 1438.03 477.108 1439.43 477.108C1441.19 477.108 1442.63 477.658 1443.74 478.757C1444.86 479.848 1445.42 481.548 1445.42 483.858V497H1442.4V483.858C1442.4 482.409 1442 481.374 1441.21 480.751C1440.42 480.129 1439.49 479.818 1438.41 479.818C1437.03 479.818 1435.96 480.236 1435.2 481.071C1434.44 481.898 1434.06 482.946 1434.06 484.216V497H1431V483.551C1431 482.435 1430.63 481.536 1429.91 480.854C1429.19 480.163 1428.25 479.818 1427.11 479.818C1426.33 479.818 1425.59 480.027 1424.91 480.445C1424.24 480.862 1423.69 481.442 1423.27 482.183C1422.87 482.916 1422.66 483.764 1422.66 484.727V497H1419.64ZM1459.17 497.409C1457.27 497.409 1455.64 496.991 1454.27 496.156C1452.91 495.312 1451.85 494.136 1451.11 492.628C1450.38 491.111 1450.01 489.347 1450.01 487.335C1450.01 485.324 1450.38 483.551 1451.11 482.017C1451.85 480.474 1452.88 479.273 1454.21 478.412C1455.54 477.543 1457.09 477.108 1458.86 477.108C1459.88 477.108 1460.89 477.278 1461.89 477.619C1462.89 477.96 1463.79 478.514 1464.61 479.281C1465.43 480.04 1466.08 481.045 1466.57 482.298C1467.05 483.551 1467.3 485.094 1467.3 486.926V488.205H1452.16V485.597H1464.23C1464.23 484.489 1464.01 483.5 1463.56 482.631C1463.13 481.761 1462.51 481.075 1461.7 480.572C1460.9 480.07 1459.95 479.818 1458.86 479.818C1457.66 479.818 1456.62 480.116 1455.74 480.713C1454.87 481.301 1454.2 482.068 1453.73 483.014C1453.26 483.96 1453.03 484.974 1453.03 486.057V487.795C1453.03 489.278 1453.29 490.536 1453.8 491.567C1454.32 492.589 1455.04 493.369 1455.96 493.906C1456.88 494.435 1457.95 494.699 1459.17 494.699C1459.96 494.699 1460.67 494.588 1461.31 494.366C1461.96 494.136 1462.52 493.795 1462.99 493.344C1463.46 492.884 1463.82 492.312 1464.08 491.631L1466.99 492.449C1466.68 493.438 1466.17 494.307 1465.44 495.057C1464.72 495.798 1463.82 496.378 1462.76 496.795C1461.69 497.205 1460.5 497.409 1459.17 497.409ZM1490.76 477.364V479.92H1480.17V477.364H1490.76ZM1483.34 497V474.653C1483.34 473.528 1483.61 472.591 1484.13 471.841C1484.66 471.091 1485.35 470.528 1486.19 470.153C1487.04 469.778 1487.93 469.591 1488.86 469.591C1489.61 469.591 1490.21 469.651 1490.68 469.77C1491.15 469.889 1491.5 470 1491.73 470.102L1490.86 472.71C1490.7 472.659 1490.49 472.595 1490.22 472.518C1489.95 472.442 1489.61 472.403 1489.17 472.403C1488.17 472.403 1487.45 472.655 1487.01 473.158C1486.58 473.661 1486.36 474.398 1486.36 475.369V497H1483.34ZM1502.15 497.409C1500.38 497.409 1498.82 496.987 1497.49 496.143C1496.16 495.3 1495.12 494.119 1494.37 492.602C1493.63 491.085 1493.25 489.312 1493.25 487.284C1493.25 485.239 1493.63 483.453 1494.37 481.928C1495.12 480.402 1496.16 479.217 1497.49 478.374C1498.82 477.53 1500.38 477.108 1502.15 477.108C1503.93 477.108 1505.48 477.53 1506.81 478.374C1508.14 479.217 1509.18 480.402 1509.93 481.928C1510.68 483.453 1511.05 485.239 1511.05 487.284C1511.05 489.312 1510.68 491.085 1509.93 492.602C1509.18 494.119 1508.14 495.3 1506.81 496.143C1505.48 496.987 1503.93 497.409 1502.15 497.409ZM1502.15 494.699C1503.5 494.699 1504.61 494.354 1505.48 493.663C1506.35 492.973 1506.99 492.065 1507.41 490.94C1507.82 489.815 1508.03 488.597 1508.03 487.284C1508.03 485.972 1507.82 484.749 1507.41 483.615C1506.99 482.482 1506.35 481.565 1505.48 480.866C1504.61 480.168 1503.5 479.818 1502.15 479.818C1500.81 479.818 1499.7 480.168 1498.83 480.866C1497.96 481.565 1497.32 482.482 1496.9 483.615C1496.48 484.749 1496.27 485.972 1496.27 487.284C1496.27 488.597 1496.48 489.815 1496.9 490.94C1497.32 492.065 1497.96 492.973 1498.83 493.663C1499.7 494.354 1500.81 494.699 1502.15 494.699ZM1515.66 497V477.364H1518.57V480.33H1518.78C1519.13 479.358 1519.78 478.57 1520.72 477.964C1521.66 477.359 1522.71 477.057 1523.89 477.057C1524.11 477.057 1524.39 477.061 1524.72 477.07C1525.05 477.078 1525.3 477.091 1525.47 477.108V480.176C1525.37 480.151 1525.14 480.112 1524.77 480.061C1524.41 480.001 1524.03 479.972 1523.63 479.972C1522.68 479.972 1521.83 480.172 1521.08 480.572C1520.33 480.964 1519.75 481.51 1519.31 482.209C1518.89 482.899 1518.67 483.687 1518.67 484.574V497H1515.66ZM1539.18 497V477.364H1542.09V480.432H1542.35C1542.75 479.384 1543.42 478.57 1544.33 477.99C1545.24 477.402 1546.33 477.108 1547.61 477.108C1548.91 477.108 1549.99 477.402 1550.85 477.99C1551.72 478.57 1552.39 479.384 1552.88 480.432H1553.08C1553.59 479.418 1554.34 478.612 1555.35 478.016C1556.35 477.411 1557.56 477.108 1558.97 477.108C1560.72 477.108 1562.16 477.658 1563.27 478.757C1564.39 479.848 1564.95 481.548 1564.95 483.858V497H1561.93V483.858C1561.93 482.409 1561.53 481.374 1560.74 480.751C1559.95 480.129 1559.02 479.818 1557.94 479.818C1556.56 479.818 1555.49 480.236 1554.73 481.071C1553.98 481.898 1553.6 482.946 1553.6 484.216V497H1550.53V483.551C1550.53 482.435 1550.17 481.536 1549.44 480.854C1548.72 480.163 1547.78 479.818 1546.64 479.818C1545.86 479.818 1545.12 480.027 1544.44 480.445C1543.77 480.862 1543.22 481.442 1542.81 482.183C1542.4 482.916 1542.19 483.764 1542.19 484.727V497H1539.18ZM1582.84 488.972V477.364H1585.86V497H1582.84V493.676H1582.63C1582.17 494.673 1581.46 495.521 1580.49 496.22C1579.52 496.911 1578.29 497.256 1576.81 497.256C1575.58 497.256 1574.49 496.987 1573.53 496.45C1572.58 495.905 1571.83 495.087 1571.28 493.996C1570.74 492.896 1570.46 491.511 1570.46 489.841V477.364H1573.48V489.636C1573.48 491.068 1573.88 492.21 1574.68 493.062C1575.49 493.915 1576.52 494.341 1577.78 494.341C1578.53 494.341 1579.29 494.149 1580.07 493.766C1580.85 493.382 1581.51 492.794 1582.03 492.001C1582.57 491.209 1582.84 490.199 1582.84 488.972ZM1574.5 474.091C1573.97 474.091 1573.49 473.886 1573.07 473.477C1572.66 473.06 1572.46 472.582 1572.46 472.045C1572.46 471.457 1572.66 470.972 1573.07 470.588C1573.49 470.196 1573.97 470 1574.5 470C1575.09 470 1575.58 470.196 1575.96 470.588C1576.35 470.972 1576.55 471.457 1576.55 472.045C1576.55 472.582 1576.35 473.06 1575.96 473.477C1575.58 473.886 1575.09 474.091 1574.5 474.091ZM1581.87 474.091C1581.33 474.091 1580.85 473.886 1580.44 473.477C1580.03 473.06 1579.82 472.582 1579.82 472.045C1579.82 471.457 1580.03 470.972 1580.44 470.588C1580.85 470.196 1581.33 470 1581.87 470C1582.46 470 1582.94 470.196 1583.33 470.588C1583.72 470.972 1583.91 471.457 1583.91 472.045C1583.91 472.582 1583.72 473.06 1583.33 473.477C1582.94 473.886 1582.46 474.091 1581.87 474.091ZM1594.4 470.818V497H1591.38V470.818H1594.4ZM1602.94 470.818V497H1599.93V470.818H1602.94ZM1616.7 497.409C1614.81 497.409 1613.18 496.991 1611.81 496.156C1610.44 495.312 1609.39 494.136 1608.65 492.628C1607.91 491.111 1607.55 489.347 1607.55 487.335C1607.55 485.324 1607.91 483.551 1608.65 482.017C1609.39 480.474 1610.42 479.273 1611.74 478.412C1613.07 477.543 1614.62 477.108 1616.39 477.108C1617.42 477.108 1618.43 477.278 1619.42 477.619C1620.42 477.96 1621.33 478.514 1622.15 479.281C1622.97 480.04 1623.62 481.045 1624.1 482.298C1624.59 483.551 1624.83 485.094 1624.83 486.926V488.205H1609.7V485.597H1621.76C1621.76 484.489 1621.54 483.5 1621.1 482.631C1620.66 481.761 1620.04 481.075 1619.23 480.572C1618.43 480.07 1617.49 479.818 1616.39 479.818C1615.19 479.818 1614.15 480.116 1613.28 480.713C1612.41 481.301 1611.74 482.068 1611.27 483.014C1610.8 483.96 1610.56 484.974 1610.56 486.057V487.795C1610.56 489.278 1610.82 490.536 1611.33 491.567C1611.85 492.589 1612.57 493.369 1613.49 493.906C1614.41 494.435 1615.48 494.699 1616.7 494.699C1617.49 494.699 1618.21 494.588 1618.85 494.366C1619.5 494.136 1620.06 493.795 1620.52 493.344C1620.99 492.884 1621.35 492.312 1621.61 491.631L1624.53 492.449C1624.22 493.438 1623.7 494.307 1622.98 495.057C1622.25 495.798 1621.36 496.378 1620.29 496.795C1619.23 497.205 1618.03 497.409 1616.7 497.409ZM1629.42 497V477.364H1632.34V480.33H1632.54C1632.9 479.358 1633.55 478.57 1634.48 477.964C1635.42 477.359 1636.48 477.057 1637.65 477.057C1637.88 477.057 1638.15 477.061 1638.49 477.07C1638.82 477.078 1639.07 477.091 1639.24 477.108V480.176C1639.14 480.151 1638.9 480.112 1638.54 480.061C1638.18 480.001 1637.8 479.972 1637.4 479.972C1636.44 479.972 1635.59 480.172 1634.84 480.572C1634.1 480.964 1633.51 481.51 1633.08 482.209C1632.65 482.899 1632.44 483.687 1632.44 484.574V497H1629.42ZM1660.92 497.409C1659.15 497.409 1657.59 496.987 1656.25 496.143C1654.92 495.3 1653.88 494.119 1653.13 492.602C1652.39 491.085 1652.02 489.312 1652.02 487.284C1652.02 485.239 1652.39 483.453 1653.13 481.928C1653.88 480.402 1654.92 479.217 1656.25 478.374C1657.59 477.53 1659.15 477.108 1660.92 477.108C1662.69 477.108 1664.24 477.53 1665.57 478.374C1666.91 479.217 1667.95 480.402 1668.69 481.928C1669.44 483.453 1669.82 485.239 1669.82 487.284C1669.82 489.312 1669.44 491.085 1668.69 492.602C1667.95 494.119 1666.91 495.3 1665.57 496.143C1664.24 496.987 1662.69 497.409 1660.92 497.409ZM1660.92 494.699C1662.26 494.699 1663.37 494.354 1664.24 493.663C1665.11 492.973 1665.75 492.065 1666.17 490.94C1666.59 489.815 1666.8 488.597 1666.8 487.284C1666.8 485.972 1666.59 484.749 1666.17 483.615C1665.75 482.482 1665.11 481.565 1664.24 480.866C1663.37 480.168 1662.26 479.818 1660.92 479.818C1659.57 479.818 1658.46 480.168 1657.59 480.866C1656.73 481.565 1656.08 482.482 1655.66 483.615C1655.25 484.749 1655.04 485.972 1655.04 487.284C1655.04 488.597 1655.25 489.815 1655.66 490.94C1656.08 492.065 1656.73 492.973 1657.59 493.663C1658.46 494.354 1659.57 494.699 1660.92 494.699ZM1674.83 497V470.818H1677.85V480.483H1678.1C1678.32 480.142 1678.63 479.707 1679.02 479.179C1679.42 478.642 1680 478.165 1680.74 477.747C1681.49 477.321 1682.5 477.108 1683.78 477.108C1685.43 477.108 1686.89 477.521 1688.15 478.348C1689.41 479.175 1690.4 480.347 1691.1 481.864C1691.81 483.381 1692.17 485.17 1692.17 487.233C1692.17 489.312 1691.81 491.115 1691.1 492.641C1690.4 494.158 1689.42 495.334 1688.16 496.169C1686.91 496.996 1685.47 497.409 1683.83 497.409C1682.57 497.409 1681.56 497.2 1680.8 496.783C1680.04 496.357 1679.46 495.875 1679.05 495.338C1678.64 494.793 1678.32 494.341 1678.1 493.983H1677.75V497H1674.83ZM1677.8 487.182C1677.8 488.665 1678.01 489.973 1678.45 491.107C1678.88 492.232 1679.52 493.114 1680.35 493.753C1681.19 494.384 1682.21 494.699 1683.42 494.699C1684.68 494.699 1685.74 494.366 1686.58 493.702C1687.43 493.028 1688.07 492.125 1688.5 490.991C1688.93 489.849 1689.15 488.58 1689.15 487.182C1689.15 485.801 1688.94 484.557 1688.51 483.449C1688.09 482.332 1687.46 481.45 1686.6 480.803C1685.76 480.146 1684.7 479.818 1683.42 479.818C1682.19 479.818 1681.16 480.129 1680.33 480.751C1679.49 481.365 1678.86 482.226 1678.44 483.334C1678.01 484.433 1677.8 485.716 1677.8 487.182ZM1696.78 477.364H1699.8V498.432C1699.8 499.642 1699.59 500.69 1699.17 501.577C1698.76 502.463 1698.14 503.149 1697.31 503.635C1696.48 504.121 1695.43 504.364 1694.17 504.364C1694.07 504.364 1693.97 504.364 1693.87 504.364C1693.76 504.364 1693.66 504.364 1693.56 504.364V501.551C1693.66 501.551 1693.76 501.551 1693.84 501.551C1693.93 501.551 1694.02 501.551 1694.12 501.551C1695.04 501.551 1695.72 501.278 1696.14 500.733C1696.57 500.196 1696.78 499.429 1696.78 498.432V477.364ZM1698.26 474.091C1697.68 474.091 1697.17 473.891 1696.74 473.49C1696.32 473.089 1696.12 472.608 1696.12 472.045C1696.12 471.483 1696.32 471.001 1696.74 470.601C1697.17 470.2 1697.68 470 1698.26 470C1698.85 470 1699.35 470.2 1699.77 470.601C1700.2 471.001 1700.41 471.483 1700.41 472.045C1700.41 472.608 1700.2 473.089 1699.77 473.49C1699.35 473.891 1698.85 474.091 1698.26 474.091ZM1713.56 497.409C1711.66 497.409 1710.03 496.991 1708.66 496.156C1707.3 495.312 1706.24 494.136 1705.5 492.628C1704.77 491.111 1704.4 489.347 1704.4 487.335C1704.4 485.324 1704.77 483.551 1705.5 482.017C1706.24 480.474 1707.28 479.273 1708.6 478.412C1709.93 477.543 1711.48 477.108 1713.25 477.108C1714.27 477.108 1715.28 477.278 1716.28 477.619C1717.28 477.96 1718.18 478.514 1719 479.281C1719.82 480.04 1720.47 481.045 1720.96 482.298C1721.44 483.551 1721.69 485.094 1721.69 486.926V488.205H1706.55V485.597H1718.62C1718.62 484.489 1718.4 483.5 1717.95 482.631C1717.52 481.761 1716.9 481.075 1716.09 480.572C1715.29 480.07 1714.34 479.818 1713.25 479.818C1712.05 479.818 1711.01 480.116 1710.13 480.713C1709.26 481.301 1708.59 482.068 1708.12 483.014C1707.65 483.96 1707.42 484.974 1707.42 486.057V487.795C1707.42 489.278 1707.68 490.536 1708.19 491.567C1708.71 492.589 1709.43 493.369 1710.35 493.906C1711.27 494.435 1712.34 494.699 1713.56 494.699C1714.35 494.699 1715.07 494.588 1715.7 494.366C1716.35 494.136 1716.91 493.795 1717.38 493.344C1717.85 492.884 1718.21 492.312 1718.47 491.631L1721.38 492.449C1721.07 493.438 1720.56 494.307 1719.83 495.057C1719.11 495.798 1718.21 496.378 1717.15 496.795C1716.08 497.205 1714.89 497.409 1713.56 497.409ZM1734.82 477.364V479.92H1724.64V477.364H1734.82ZM1727.61 472.659H1730.62V491.375C1730.62 492.227 1730.75 492.866 1730.99 493.293C1731.25 493.71 1731.57 493.991 1731.97 494.136C1732.37 494.273 1732.79 494.341 1733.23 494.341C1733.56 494.341 1733.84 494.324 1734.05 494.29C1734.26 494.247 1734.43 494.213 1734.56 494.188L1735.17 496.898C1734.97 496.974 1734.68 497.051 1734.32 497.128C1733.95 497.213 1733.49 497.256 1732.92 497.256C1732.07 497.256 1731.24 497.072 1730.42 496.706C1729.61 496.339 1728.94 495.781 1728.4 495.031C1727.87 494.281 1727.61 493.335 1727.61 492.193V472.659ZM1739.36 497V477.364H1742.37V497H1739.36ZM1740.89 474.091C1740.3 474.091 1739.79 473.891 1739.37 473.49C1738.95 473.089 1738.74 472.608 1738.74 472.045C1738.74 471.483 1738.95 471.001 1739.37 470.601C1739.79 470.2 1740.3 470 1740.89 470C1741.48 470 1741.98 470.2 1742.4 470.601C1742.82 471.001 1743.04 471.483 1743.04 472.045C1743.04 472.608 1742.82 473.089 1742.4 473.49C1741.98 473.891 1741.48 474.091 1740.89 474.091ZM1763.95 477.364L1756.69 497H1753.63L1746.36 477.364H1749.64L1755.06 493.011H1755.26L1760.68 477.364H1763.95ZM1775.47 497.409C1773.57 497.409 1771.94 496.991 1770.57 496.156C1769.21 495.312 1768.15 494.136 1767.41 492.628C1766.68 491.111 1766.31 489.347 1766.31 487.335C1766.31 485.324 1766.68 483.551 1767.41 482.017C1768.15 480.474 1769.19 479.273 1770.51 478.412C1771.84 477.543 1773.39 477.108 1775.16 477.108C1776.18 477.108 1777.19 477.278 1778.19 477.619C1779.19 477.96 1780.09 478.514 1780.91 479.281C1781.73 480.04 1782.38 481.045 1782.87 482.298C1783.35 483.551 1783.6 485.094 1783.6 486.926V488.205H1768.46V485.597H1780.53C1780.53 484.489 1780.31 483.5 1779.86 482.631C1779.43 481.761 1778.81 481.075 1778 480.572C1777.2 480.07 1776.25 479.818 1775.16 479.818C1773.96 479.818 1772.92 480.116 1772.04 480.713C1771.17 481.301 1770.5 482.068 1770.03 483.014C1769.56 483.96 1769.33 484.974 1769.33 486.057V487.795C1769.33 489.278 1769.59 490.536 1770.1 491.567C1770.62 492.589 1771.34 493.369 1772.26 493.906C1773.18 494.435 1774.25 494.699 1775.47 494.699C1776.26 494.699 1776.98 494.588 1777.61 494.366C1778.26 494.136 1778.82 493.795 1779.29 493.344C1779.76 492.884 1780.12 492.312 1780.38 491.631L1783.29 492.449C1782.98 493.438 1782.47 494.307 1781.74 495.057C1781.02 495.798 1780.12 496.378 1779.06 496.795C1777.99 497.205 1776.8 497.409 1775.47 497.409ZM1806.55 497.409C1804.65 497.409 1803.02 496.991 1801.65 496.156C1800.29 495.312 1799.23 494.136 1798.49 492.628C1797.76 491.111 1797.39 489.347 1797.39 487.335C1797.39 485.324 1797.76 483.551 1798.49 482.017C1799.23 480.474 1800.26 479.273 1801.58 478.412C1802.91 477.543 1804.47 477.108 1806.24 477.108C1807.26 477.108 1808.27 477.278 1809.27 477.619C1810.27 477.96 1811.17 478.514 1811.99 479.281C1812.81 480.04 1813.46 481.045 1813.95 482.298C1814.43 483.551 1814.68 485.094 1814.68 486.926V488.205H1799.54V485.597H1811.61C1811.61 484.489 1811.39 483.5 1810.94 482.631C1810.51 481.761 1809.89 481.075 1809.08 480.572C1808.28 480.07 1807.33 479.818 1806.24 479.818C1805.04 479.818 1804 480.116 1803.12 480.713C1802.25 481.301 1801.58 482.068 1801.11 483.014C1800.64 483.96 1800.41 484.974 1800.41 486.057V487.795C1800.41 489.278 1800.66 490.536 1801.18 491.567C1801.7 492.589 1802.42 493.369 1803.34 493.906C1804.26 494.435 1805.33 494.699 1806.55 494.699C1807.34 494.699 1808.05 494.588 1808.69 494.366C1809.34 494.136 1809.9 493.795 1810.37 493.344C1810.84 492.884 1811.2 492.312 1811.45 491.631L1814.37 492.449C1814.06 493.438 1813.55 494.307 1812.82 495.057C1812.1 495.798 1811.2 496.378 1810.14 496.795C1809.07 497.205 1807.87 497.409 1806.55 497.409ZM1827.81 477.364V479.92H1817.63V477.364H1827.81ZM1820.59 472.659H1823.61V491.375C1823.61 492.227 1823.74 492.866 1823.98 493.293C1824.24 493.71 1824.56 493.991 1824.95 494.136C1825.35 494.273 1825.78 494.341 1826.22 494.341C1826.55 494.341 1826.82 494.324 1827.04 494.29C1827.25 494.247 1827.42 494.213 1827.55 494.188L1828.16 496.898C1827.96 496.974 1827.67 497.051 1827.31 497.128C1826.94 497.213 1826.48 497.256 1825.91 497.256C1825.06 497.256 1824.23 497.072 1823.41 496.706C1822.6 496.339 1821.92 495.781 1821.39 495.031C1820.86 494.281 1820.59 493.335 1820.59 492.193V472.659ZM1840.11 497.409C1838.27 497.409 1836.68 496.974 1835.35 496.105C1834.02 495.236 1833 494.038 1832.29 492.513C1831.57 490.987 1831.21 489.244 1831.21 487.284C1831.21 485.29 1831.58 483.53 1832.31 482.004C1833.05 480.47 1834.08 479.273 1835.41 478.412C1836.73 477.543 1838.29 477.108 1840.06 477.108C1841.44 477.108 1842.68 477.364 1843.79 477.875C1844.9 478.386 1845.81 479.102 1846.51 480.023C1847.22 480.943 1847.66 482.017 1847.83 483.244H1844.81C1844.58 482.349 1844.07 481.557 1843.28 480.866C1842.5 480.168 1841.44 479.818 1840.11 479.818C1838.93 479.818 1837.9 480.125 1837.02 480.739C1836.14 481.344 1835.45 482.2 1834.96 483.308C1834.47 484.408 1834.23 485.699 1834.23 487.182C1834.23 488.699 1834.47 490.02 1834.94 491.145C1835.43 492.27 1836.11 493.143 1836.99 493.766C1837.88 494.388 1838.92 494.699 1840.11 494.699C1840.89 494.699 1841.61 494.562 1842.24 494.29C1842.88 494.017 1843.43 493.625 1843.87 493.114C1844.31 492.602 1844.63 491.989 1844.81 491.273H1847.83C1847.66 492.432 1847.24 493.476 1846.57 494.405C1845.9 495.325 1845.02 496.058 1843.92 496.604C1842.83 497.141 1841.56 497.409 1840.11 497.409Z" fill="black"/>
</g>
</svg>
