<svg width="1921" height="1081" viewBox="0 0 1921 1081" fill="none" xmlns="http://www.w3.org/2000/svg">
<g id="Example">
<rect width="1920" height="1080" transform="translate(0.400391 0.680176)" fill="white"/>
<g id="Children: Maximal accepting subcycles">
<g id="Group 51">
<path id="Vector 17" d="M450.81 377.953L294.729 480.153" stroke="black" stroke-width="4.2"/>
<path id="Vector 18" d="M452.92 377.953L609.002 480.153" stroke="black" stroke-width="4.2"/>
</g>
<g id="&#206;&#178;">
<rect id="Rectangle 3" x="329.7" y="282.5" width="229.6" height="95.2" stroke="#E44B3D" stroke-width="4.2"/>
<g id="Group 39">
<g id="&#206;&#178;_2">
<path d="M449.761 323.222L449.881 323.282C454.559 324.362 457.078 328.8 457.078 333.478C457.078 340.795 451.86 347.753 444.843 347.753C442.264 347.753 440.584 347.273 438.425 345.294V355.31C438.425 357.469 437.825 359.328 437.466 360.168H432.428C433.027 358.908 433.387 357.049 433.387 355.31V324.782C433.387 310.268 438.665 306.189 445.142 306.189C449.881 306.189 454.739 310.148 454.739 315.486C454.739 316.745 454.499 318.244 453.839 319.624C453.059 321.123 451.8 322.443 449.761 323.222ZM438.425 318.064V341.815C438.425 343.614 441.484 345.833 444.663 345.833C449.101 345.833 451.92 341.155 451.92 335.038C451.92 326.941 448.681 324.302 446.882 324.302C445.622 324.302 445.322 324.722 444.123 324.722C442.743 324.722 441.784 324.122 441.784 323.222C441.784 322.563 442.384 321.903 444.303 321.903C444.843 321.903 446.522 322.383 447.422 322.383C449.161 322.383 449.881 319.744 449.881 317.585C449.881 313.446 448.741 307.869 444.063 307.869C440.344 307.869 438.425 311.587 438.425 317.165V318.064Z" fill="#00AA4D"/>
</g>
<g id="&#206;&#177;">
<path d="M388.556 339.416H389.456C389.456 343.974 387.717 347.753 384.718 347.753C382.259 347.753 380.759 345.054 379.92 341.155C377.82 344.934 375.361 347.753 370.683 347.753C364.206 347.753 359.468 341.935 359.468 333.778C359.468 326.161 363.906 319.564 371.223 319.564C376.441 319.564 379.38 324.002 380.459 328.32L383.158 320.164H388.976L382.439 335.937C383.038 338.696 384.778 344.034 386.577 344.034C387.417 344.034 388.136 342.835 388.556 339.416ZM377.581 334.678C376.921 330.24 375.361 321.243 370.923 321.243C367.924 321.243 364.866 323.942 364.866 330.779C364.866 335.218 365.885 346.073 371.223 346.073C375.361 346.073 376.981 337.857 377.581 334.678Z" fill="#2400C6"/>
</g>
<g id="&#206;&#179;">
<path d="M524.358 320.164L513.202 347.153C513.562 348.772 514.042 351.591 514.042 354.23C514.042 357.409 513.382 360.228 510.383 360.228C508.404 360.228 507.445 358.428 507.445 356.149C507.445 354.71 507.804 352.551 508.524 350.272C509.064 348.472 509.844 346.733 510.503 344.994C510.024 340.555 508.404 323.942 502.707 323.942C501.447 323.942 499.648 325.621 499.228 329.22H498.328C498.328 324.362 499.888 319.744 503.546 319.744C510.503 319.744 511.163 336.177 512.123 341.335L518.36 320.164H524.358Z" fill="#D02525"/>
</g>
</g>
</g>
<g id="Group 41">
<g id="Group 48">
<g id="Group 46">
<path id="Ellipse 12" d="M350.7 528.9C350.7 541.793 343.565 553.644 331.672 562.349C319.781 571.053 303.251 576.5 284.9 576.5C266.549 576.5 250.019 571.053 238.128 562.349C226.235 553.644 219.1 541.793 219.1 528.9C219.1 516.007 226.235 504.156 238.128 495.452C250.019 486.748 266.549 481.3 284.9 481.3C303.251 481.3 319.781 486.748 331.672 495.452C343.565 504.156 350.7 516.007 350.7 528.9Z" stroke="#0C9330" stroke-width="4.2"/>
<path id="Ellipse 13" d="M669.899 528.9C669.899 541.793 662.764 553.644 650.871 562.349C638.98 571.053 622.451 576.5 604.099 576.5C585.748 576.5 569.218 571.053 557.327 562.349C545.434 553.644 538.299 541.793 538.299 528.9C538.299 516.007 545.434 504.156 557.327 495.452C569.218 486.748 585.748 481.3 604.099 481.3C622.451 481.3 638.98 486.748 650.871 495.452C662.764 504.156 669.899 516.007 669.899 528.9Z" stroke="#0C9330" stroke-width="4.2"/>
<g id="&#206;&#177;_2">
<path d="M296.156 538.216H297.055C297.055 542.774 295.316 546.552 292.317 546.552C289.858 546.552 288.359 543.853 287.519 539.955C285.42 543.734 282.961 546.552 278.283 546.552C271.806 546.552 267.067 540.735 267.067 532.578C267.067 524.961 271.506 518.364 278.823 518.364C284.041 518.364 286.979 522.802 288.059 527.12L290.758 518.963H296.576L290.038 534.737C290.638 537.496 292.377 542.834 294.177 542.834C295.016 542.834 295.736 541.634 296.156 538.216ZM285.18 533.478C284.52 529.039 282.961 520.043 278.523 520.043C275.524 520.043 272.465 522.742 272.465 529.579C272.465 534.017 273.485 544.873 278.823 544.873C282.961 544.873 284.58 536.656 285.18 533.478Z" fill="#2400C6"/>
</g>
</g>
<g id="&#206;&#178;_3">
<path d="M610.759 526.222L610.879 526.282C615.557 527.361 618.076 531.8 618.076 536.478C618.076 543.795 612.858 550.752 605.841 550.752C603.262 550.752 601.582 550.272 599.423 548.293V558.309C599.423 560.468 598.823 562.327 598.464 563.167H593.426C594.025 561.908 594.385 560.048 594.385 558.309V527.781C594.385 513.267 599.663 509.189 606.141 509.189C610.879 509.189 615.737 513.147 615.737 518.485C615.737 519.745 615.497 521.244 614.837 522.623C614.057 524.123 612.798 525.442 610.759 526.222ZM599.423 521.064V544.814C599.423 546.614 602.482 548.833 605.661 548.833C610.099 548.833 612.918 544.155 612.918 538.037C612.918 529.94 609.679 527.301 607.88 527.301C606.62 527.301 606.32 527.721 605.121 527.721C603.742 527.721 602.782 527.122 602.782 526.222C602.782 525.562 603.382 524.902 605.301 524.902C605.841 524.902 607.52 525.382 608.42 525.382C610.159 525.382 610.879 522.743 610.879 520.584C610.879 516.446 609.739 510.868 605.061 510.868C601.342 510.868 599.423 514.587 599.423 520.164V521.064Z" fill="#00AA4D"/>
</g>
</g>
</g>
</g>
<g id="Group_54">
<path id="Not parity" d="M283.108 707.872V708.708C281.436 708.884 280.776 709.016 280.204 709.5C279.368 710.248 278.928 711.216 278.928 714.692V737.484H278.136L258.732 713.328V730.4C258.732 734.932 259.436 735.68 262.824 736.164V737H252.528V736.164C256.136 735.768 256.796 735.108 256.796 730.4V711.04C255.344 709.236 254.684 708.708 252.528 708.708V707.872H260.008L276.992 729.124V714.164C276.992 711.92 276.816 710.6 276.156 709.852C275.408 709.016 274.616 708.928 272.68 708.708V707.872H283.108ZM303.875 726.836C303.875 732.952 299.915 737.44 293.975 737.44C288.651 737.44 284.471 733.084 284.471 726.968C284.471 720.852 288.431 716.76 294.371 716.76C299.739 716.76 303.875 720.764 303.875 726.836ZM299.915 728.024C299.915 725.032 299.123 721.996 297.715 720.192C296.659 718.872 295.427 717.992 293.535 717.992C290.499 717.992 288.431 720.588 288.431 724.988C288.431 728.464 289.135 731.632 290.763 734.008C291.731 735.416 293.139 736.208 294.723 736.208C297.979 736.208 299.915 733.128 299.915 728.024ZM316.556 733.612L317.128 734.096C315.676 736.384 314.004 737.44 311.804 737.44C309.252 737.44 307.932 735.548 307.932 731.852V718.608H305.6C305.468 718.52 305.424 718.432 305.424 718.3C305.424 718.036 305.688 717.772 306.172 717.464C307.316 716.804 308.768 715.176 310.44 712.756C310.704 712.36 311.056 711.964 311.32 711.524C311.54 711.524 311.628 711.656 311.628 712.096V717.2H316.072V718.608H311.628V731.192C311.628 734.008 312.288 735.152 313.916 735.152C314.884 735.152 315.588 734.756 316.556 733.612ZM335.094 716.848V720.236C337.03 717.816 338.966 716.76 341.43 716.76C345.698 716.76 348.778 720.676 348.778 726.132C348.778 732.512 344.774 737.44 339.538 737.44C337.69 737.44 336.678 737 335.094 735.548V742.456C335.094 745.228 335.666 745.712 338.966 745.756V746.548H328.318V745.8C330.914 745.536 331.398 745.052 331.398 742.764V722.172C331.398 720.104 331.09 719.664 329.594 719.664C329.198 719.664 328.89 719.664 328.494 719.708V719.004C330.914 718.256 332.498 717.684 334.83 716.76L335.094 716.848ZM335.094 722.304V733.128C335.094 734.448 337.602 736.032 339.67 736.032C342.838 736.032 344.994 732.732 344.994 727.892C344.994 722.744 342.838 719.4 339.582 719.4C337.558 719.4 335.094 720.984 335.094 722.304ZM369.546 734.096V735.328C368.226 737 367.082 737.44 365.586 737.44C363.958 737.44 362.99 736.56 362.77 734.228H362.726C360.394 736.868 358.238 737.44 356.346 737.44C353.618 737.44 351.726 735.768 351.726 732.864C351.726 730.576 353.09 728.86 354.806 727.716C356.126 726.836 357.754 726 362.726 724.152V721.776C362.726 719.048 361.274 717.816 359.294 717.816C357.534 717.816 356.214 718.784 356.214 719.972C356.214 720.764 356.478 720.896 356.478 721.82C356.478 722.656 355.598 723.624 354.454 723.624C353.53 723.624 352.562 722.788 352.562 721.6C352.562 720.456 353.266 719.048 354.806 718.08C356.038 717.288 357.886 716.76 359.866 716.76C362.33 716.76 364.002 717.464 365.058 718.74C366.114 720.016 366.29 720.94 366.29 723.624V732.028C366.29 734.052 366.862 734.932 367.654 734.932C368.358 734.932 368.798 734.712 369.546 734.096ZM362.726 731.412V725.208C359.998 726.176 358.194 727.1 357.094 728.112C356.038 729.08 355.598 730.136 355.598 731.5C355.598 733.832 356.918 734.888 358.634 734.888C359.514 734.888 360.438 734.668 361.186 734.184C362.462 733.304 362.726 732.688 362.726 731.412ZM376.688 716.848V720.896C378.888 717.728 380.12 716.76 381.968 716.76C383.464 716.76 384.388 717.64 384.388 719.092C384.388 720.324 383.728 721.072 382.672 721.072C382.1 721.072 381.616 720.852 380.912 720.192C380.428 719.752 380.032 719.532 379.768 719.532C378.536 719.532 376.688 721.732 376.688 723.14V733.04C376.688 735.548 377.436 736.208 380.428 736.34V737H369.868V736.34C372.684 735.812 372.992 735.504 372.992 733.304V722.304C372.992 720.368 372.596 719.664 371.496 719.664C370.968 719.664 370.572 719.708 369.956 719.84V719.136C372.552 718.3 374.136 717.684 376.468 716.76L376.688 716.848ZM393.037 709.192C393.037 710.468 392.069 711.436 390.749 711.436C389.517 711.436 388.549 710.468 388.549 709.192C388.549 707.96 389.561 706.948 390.793 706.948C392.069 706.948 393.037 707.96 393.037 709.192ZM396.249 737H385.821V736.34C388.857 736.164 389.297 735.768 389.297 732.424V722.436C389.297 720.368 388.945 719.664 387.845 719.664C387.449 719.664 386.789 719.664 385.997 719.884V719.18L392.817 716.76L392.993 716.936V732.38C392.993 735.636 393.345 736.12 396.249 736.34V737ZM409.067 733.612L409.639 734.096C408.187 736.384 406.515 737.44 404.315 737.44C401.763 737.44 400.443 735.548 400.443 731.852V718.608H398.111C397.979 718.52 397.935 718.432 397.935 718.3C397.935 718.036 398.199 717.772 398.683 717.464C399.827 716.804 401.279 715.176 402.951 712.756C403.215 712.36 403.567 711.964 403.831 711.524C404.051 711.524 404.139 711.656 404.139 712.096V717.2H408.583V718.608H404.139V731.192C404.139 734.008 404.799 735.152 406.427 735.152C407.395 735.152 408.099 734.756 409.067 733.612ZM430.509 717.2V717.86C429.453 717.992 428.925 718.476 428.309 720.104L421.709 738.1C419.421 744.348 417.353 746.592 414.009 746.592C412.117 746.592 410.929 745.492 410.929 744.04C410.929 742.94 411.765 742.016 412.821 742.016C413.613 742.016 414.317 742.148 415.109 742.588C415.593 742.852 415.989 742.896 416.253 742.896C416.869 742.896 417.749 742.016 418.453 740.96C419.333 739.684 420.213 736.912 420.213 736.208C420.213 735.548 419.201 733.524 418.365 731.764L412.557 719.356C412.117 718.388 411.369 717.992 410.225 717.816V717.2H419.245V717.86C417.353 717.948 416.737 718.256 416.737 719.048C416.737 719.532 417.045 720.236 417.309 720.852L422.237 731.852L426.505 719.708C426.637 719.4 426.681 719.092 426.681 718.916C426.681 718.212 426.021 717.86 424.657 717.86V717.2H430.509Z" fill="black"/>
<path id="Requires 3 colours" d="M281.04 804H273.912L263.44 790.448L260.976 790.536V799.072C260.976 802.416 261.504 802.944 264.892 803.164V804H252.748V803.164C256.048 802.9 256.488 802.416 256.488 798.544V779.756C256.488 776.5 256.136 775.972 252.748 775.708V774.872H264.716C268.896 774.872 272.02 775.928 273.912 777.468C275.364 778.656 276.068 780.812 276.068 782.748C276.068 786.576 273.604 789.128 268.104 789.964L276.904 801.096C278.18 802.724 279.104 802.988 281.04 803.164V804ZM260.976 778.348V788.908C265.2 788.82 266.74 788.512 268.764 787.412C270.348 786.532 271.272 784.596 271.272 782.396C271.272 778.436 268.676 776.5 263.22 776.5C261.724 776.5 260.976 776.808 260.976 778.348ZM298.698 796.784L299.402 797.092C297.686 801.888 294.606 804.44 290.206 804.44C285.014 804.44 281.846 800.524 281.846 794.452C281.846 788.248 285.41 783.76 290.954 783.76C293.682 783.76 295.662 784.816 297.07 786.796C297.95 788.028 298.39 789.436 298.566 791.812H285.014C285.234 795.156 285.454 796.872 287.038 798.984C288.27 800.612 289.898 801.404 291.922 801.404C294.87 801.404 296.542 800.04 298.698 796.784ZM285.102 790.404H294.078C293.594 786.84 292.67 785.344 289.766 785.344C287.302 785.344 285.586 787.104 285.102 790.404ZM321.769 813.548H311.385V812.8C314.509 812.58 315.301 811.92 315.301 809.456V801.184C313.365 803.296 310.945 804.44 308.393 804.44C304.257 804.44 301.353 800.524 301.353 794.98C301.353 788.644 305.577 783.76 311.033 783.76C312.793 783.76 314.113 784.112 316.137 785.3L318.513 783.892H318.997V810.204C318.997 812.052 319.437 812.536 321.769 812.8V813.548ZM315.301 798.412V789.348C315.301 786.444 313.937 785.036 311.209 785.036C307.469 785.036 305.137 788.204 305.137 793.396C305.137 796.432 306.105 799.292 307.601 800.568C308.481 801.36 309.625 801.756 310.901 801.756C312.309 801.756 313.805 801.228 314.773 800.348C315.125 800.04 315.301 799.424 315.301 798.412ZM342.858 801.8V802.416C340.614 803.032 339.03 803.516 336.83 804.396L336.61 804.264V800.656H336.522C334.366 803.604 331.858 804.44 330.23 804.44C326.842 804.44 324.862 802.196 324.862 798.808V787.764C324.862 785.564 324.246 784.948 322.134 784.816V784.2H328.558V798.412C328.558 800.436 329.966 801.888 331.682 801.888C332.958 801.888 334.278 801.492 335.378 800.524C336.082 799.908 336.39 799.512 336.39 797.972V787.808C336.39 785.476 335.774 785.124 333.134 784.948V784.2H340.086V799.292C340.086 801.316 340.57 801.8 342.594 801.8H342.858ZM351.658 776.192C351.658 777.468 350.69 778.436 349.37 778.436C348.138 778.436 347.17 777.468 347.17 776.192C347.17 774.96 348.182 773.948 349.414 773.948C350.69 773.948 351.658 774.96 351.658 776.192ZM354.87 804H344.442V803.34C347.478 803.164 347.918 802.768 347.918 799.424V789.436C347.918 787.368 347.566 786.664 346.466 786.664C346.07 786.664 345.41 786.664 344.618 786.884V786.18L351.438 783.76L351.614 783.936V799.38C351.614 802.636 351.966 803.12 354.87 803.34V804ZM363.024 783.848V787.896C365.224 784.728 366.456 783.76 368.304 783.76C369.8 783.76 370.724 784.64 370.724 786.092C370.724 787.324 370.064 788.072 369.008 788.072C368.436 788.072 367.952 787.852 367.248 787.192C366.764 786.752 366.368 786.532 366.104 786.532C364.872 786.532 363.024 788.732 363.024 790.14V800.04C363.024 802.548 363.772 803.208 366.764 803.34V804H356.204V803.34C359.02 802.812 359.328 802.504 359.328 800.304V789.304C359.328 787.368 358.932 786.664 357.832 786.664C357.304 786.664 356.908 786.708 356.292 786.84V786.136C358.888 785.3 360.472 784.684 362.804 783.76L363.024 783.848ZM388.503 796.784L389.207 797.092C387.491 801.888 384.411 804.44 380.011 804.44C374.819 804.44 371.651 800.524 371.651 794.452C371.651 788.248 375.215 783.76 380.759 783.76C383.487 783.76 385.467 784.816 386.875 786.796C387.755 788.028 388.195 789.436 388.371 791.812H374.819C375.039 795.156 375.259 796.872 376.843 798.984C378.075 800.612 379.703 801.404 381.727 801.404C384.675 801.404 386.347 800.04 388.503 796.784ZM374.907 790.404H383.883C383.399 786.84 382.475 785.344 379.571 785.344C377.107 785.344 375.391 787.104 374.907 790.404ZM396.966 790.756L401.542 793.528C404.358 795.244 405.414 796.432 405.414 798.94C405.414 801.888 402.598 804.44 399.254 804.44C398.33 804.44 397.054 804.396 396.042 804.044C394.986 803.692 394.502 803.648 394.018 803.648C393.49 803.648 393.226 803.736 392.962 804.176H392.39V797.268H393.094C394.018 801.536 395.646 803.472 398.682 803.472C400.926 803.472 402.334 802.02 402.334 800.216C402.334 798.852 401.454 797.708 400.002 796.916L397.626 795.596C393.974 793.572 392.346 791.46 392.346 789.216C392.346 785.74 394.81 783.804 398.418 783.804C399.474 783.804 400.442 783.848 401.366 784.288C401.85 784.508 402.29 784.64 402.598 784.64C402.774 784.64 402.95 784.596 403.302 784.2H403.786L404.006 790.184H403.346C402.334 786.224 401.014 784.772 398.374 784.772C396.482 784.772 395.074 785.696 395.074 787.764C395.074 788.732 395.734 790.008 396.966 790.756ZM420.887 781.56L420.183 781.384C421.459 777.204 424.231 774.256 428.807 774.256C432.899 774.256 435.671 776.676 435.671 780.284C435.671 782.396 434.527 784.596 431.579 786.356C433.515 787.192 434.307 787.72 435.231 788.688C436.463 790.052 437.167 792.076 437.167 794.364C437.167 796.696 436.419 798.852 435.143 800.524C433.031 803.34 428.851 804.616 424.935 804.616C421.723 804.616 420.007 803.692 420.007 802.108C420.007 801.184 420.799 800.524 421.811 800.524C422.559 800.524 423.263 800.788 424.495 801.668C426.123 802.812 427.047 803.032 428.279 803.032C431.535 803.032 433.999 800.04 433.999 796.3C433.999 792.956 432.459 790.8 429.423 789.92C428.455 789.612 427.443 789.48 424.935 789.48V788.864C426.607 788.292 427.751 787.808 428.631 787.28C430.787 786.048 432.195 784.068 432.195 781.384C432.195 778.392 430.347 776.896 427.443 776.896C424.715 776.896 422.691 778.304 420.887 781.56ZM468.715 797.136L469.331 797.532C467.923 800.26 467.043 801.536 465.723 802.592C464.227 803.824 462.555 804.44 460.663 804.44C455.779 804.44 452.303 800.348 452.303 794.672C452.303 791.02 453.623 787.984 455.999 786.004C457.759 784.552 459.871 783.76 461.939 783.76C465.635 783.76 468.715 785.828 468.715 788.292C468.715 789.304 467.791 790.14 466.647 790.14C465.679 790.14 464.887 789.392 464.535 788.116L464.271 787.148C463.831 785.52 463.259 785.036 461.675 785.036C458.111 785.036 455.691 788.116 455.691 792.692C455.691 797.752 458.463 801.272 462.511 801.272C465.019 801.272 466.603 800.216 468.715 797.136ZM491.434 793.836C491.434 799.952 487.474 804.44 481.534 804.44C476.21 804.44 472.03 800.084 472.03 793.968C472.03 787.852 475.99 783.76 481.93 783.76C487.298 783.76 491.434 787.764 491.434 793.836ZM487.474 795.024C487.474 792.032 486.682 788.996 485.274 787.192C484.218 785.872 482.986 784.992 481.094 784.992C478.058 784.992 475.99 787.588 475.99 791.988C475.99 795.464 476.694 798.632 478.322 801.008C479.29 802.416 480.698 803.208 482.282 803.208C485.538 803.208 487.474 800.128 487.474 795.024ZM504.062 804H493.678V803.34C496.45 803.12 497.066 802.372 497.066 799.952V779.316C497.066 777.204 496.626 776.5 495.218 776.5C494.866 776.5 494.294 776.5 493.59 776.588V775.884C496.626 775.136 498.254 774.696 500.542 773.948L500.762 774.124V800.172C500.762 802.592 501.246 803.164 504.062 803.34V804ZM525.68 793.836C525.68 799.952 521.72 804.44 515.78 804.44C510.456 804.44 506.276 800.084 506.276 793.968C506.276 787.852 510.236 783.76 516.176 783.76C521.544 783.76 525.68 787.764 525.68 793.836ZM521.72 795.024C521.72 792.032 520.928 788.996 519.52 787.192C518.464 785.872 517.232 784.992 515.34 784.992C512.304 784.992 510.236 787.588 510.236 791.988C510.236 795.464 510.94 798.632 512.568 801.008C513.536 802.416 514.944 803.208 516.528 803.208C519.784 803.208 521.72 800.128 521.72 795.024ZM548.12 801.8V802.416C545.876 803.032 544.292 803.516 542.092 804.396L541.872 804.264V800.656H541.784C539.628 803.604 537.12 804.44 535.492 804.44C532.104 804.44 530.124 802.196 530.124 798.808V787.764C530.124 785.564 529.508 784.948 527.396 784.816V784.2H533.82V798.412C533.82 800.436 535.228 801.888 536.944 801.888C538.22 801.888 539.54 801.492 540.64 800.524C541.344 799.908 541.652 799.512 541.652 797.972V787.808C541.652 785.476 541.036 785.124 538.396 784.948V784.2H545.348V799.292C545.348 801.316 545.832 801.8 547.856 801.8H548.12ZM556.04 783.848V787.896C558.24 784.728 559.472 783.76 561.32 783.76C562.816 783.76 563.74 784.64 563.74 786.092C563.74 787.324 563.08 788.072 562.024 788.072C561.452 788.072 560.968 787.852 560.264 787.192C559.78 786.752 559.384 786.532 559.12 786.532C557.888 786.532 556.04 788.732 556.04 790.14V800.04C556.04 802.548 556.788 803.208 559.78 803.34V804H549.22V803.34C552.036 802.812 552.344 802.504 552.344 800.304V789.304C552.344 787.368 551.948 786.664 550.848 786.664C550.32 786.664 549.924 786.708 549.308 786.84V786.136C551.904 785.3 553.488 784.684 555.82 783.76L556.04 783.848ZM570.516 790.756L575.092 793.528C577.908 795.244 578.964 796.432 578.964 798.94C578.964 801.888 576.148 804.44 572.804 804.44C571.88 804.44 570.604 804.396 569.592 804.044C568.536 803.692 568.052 803.648 567.568 803.648C567.04 803.648 566.776 803.736 566.512 804.176H565.94V797.268H566.644C567.568 801.536 569.196 803.472 572.232 803.472C574.476 803.472 575.884 802.02 575.884 800.216C575.884 798.852 575.004 797.708 573.552 796.916L571.176 795.596C567.524 793.572 565.896 791.46 565.896 789.216C565.896 785.74 568.36 783.804 571.968 783.804C573.024 783.804 573.992 783.848 574.916 784.288C575.4 784.508 575.84 784.64 576.148 784.64C576.324 784.64 576.5 784.596 576.852 784.2H577.336L577.556 790.184H576.896C575.884 786.224 574.564 784.772 571.924 784.772C570.032 784.772 568.624 785.696 568.624 787.764C568.624 788.732 569.284 790.008 570.516 790.756Z" fill="black"/>
</g>
<path id="But_we_can_relabel_the_automaton_with_a_parity_condition_with_2_colours_" d="M638.9 918.644V918.688C641.804 919.172 642.992 919.964 644.268 921.108C645.676 922.384 646.424 924.232 646.424 926.168C646.424 931.052 642.288 934 635.908 934H621.08V933.164C624.556 933.076 625.304 932.372 625.304 929.028V909.8C625.304 906.324 624.644 905.928 621.08 905.708V904.872H633.4C641.012 904.872 644.928 907.556 644.928 912.22C644.928 914.024 644.224 915.828 643.124 916.796C642.068 917.72 641.188 918.072 638.9 918.644ZM629.792 917.896H633.84C638.284 917.896 640.44 916.092 640.44 912.44C640.44 908.744 637.888 906.5 632.652 906.5H630.848C630.1 906.5 629.792 906.896 629.792 907.908V917.896ZM629.792 919.656V930.392C629.792 931.888 630.496 932.372 632.52 932.372C636.216 932.372 637.756 932.196 639.692 930.48C640.792 929.512 641.364 928.016 641.364 926.124C641.364 924.012 640.748 922.384 639.296 921.416C636.656 919.656 634.984 919.832 629.792 919.656ZM670.8 931.8V932.416C668.556 933.032 666.972 933.516 664.772 934.396L664.552 934.264V930.656H664.464C662.308 933.604 659.8 934.44 658.172 934.44C654.784 934.44 652.804 932.196 652.804 928.808V917.764C652.804 915.564 652.188 914.948 650.076 914.816V914.2H656.5V928.412C656.5 930.436 657.908 931.888 659.624 931.888C660.9 931.888 662.22 931.492 663.32 930.524C664.024 929.908 664.332 929.512 664.332 927.972V917.808C664.332 915.476 663.716 915.124 661.076 914.948V914.2H668.028V929.292C668.028 931.316 668.512 931.8 670.536 931.8H670.8ZM683.384 930.612L683.956 931.096C682.504 933.384 680.832 934.44 678.632 934.44C676.08 934.44 674.76 932.548 674.76 928.852V915.608H672.428C672.296 915.52 672.252 915.432 672.252 915.3C672.252 915.036 672.516 914.772 673 914.464C674.144 913.804 675.596 912.176 677.268 909.756C677.532 909.36 677.884 908.964 678.148 908.524C678.368 908.524 678.456 908.656 678.456 909.096V914.2H682.9V915.608H678.456V928.192C678.456 931.008 679.116 932.152 680.744 932.152C681.712 932.152 682.416 931.756 683.384 930.612ZM725.462 914.2V914.86C724.582 915.168 724.362 915.476 723.658 917.236L717.586 932.46C716.882 934.22 716.662 934.616 716.354 934.616C716.046 934.616 715.958 934.396 715.298 932.724L711.294 922.34L706.366 932.9C705.838 934.044 705.486 934.616 705.266 934.616C705.002 934.616 704.65 934.044 704.122 932.68L698.182 917.632C697.258 915.256 696.862 914.948 695.85 914.86V914.2H703.77V914.86C702.23 915.036 701.746 915.388 701.746 916.312C701.746 916.752 701.834 917.192 702.01 917.632L706.366 929.116L710.37 920.36L709.49 917.896C708.654 915.52 708.082 915.036 706.454 914.86V914.2H715.386V914.86C713.318 915.168 712.834 915.476 712.834 916.4C712.834 917.148 713.054 917.676 713.582 919.04L717.278 928.896L721.238 919.128C721.722 917.94 721.986 916.884 721.986 916.18C721.986 915.476 721.546 915.168 720.05 914.86V914.2H725.462ZM743.858 926.784L744.562 927.092C742.846 931.888 739.766 934.44 735.366 934.44C730.174 934.44 727.006 930.524 727.006 924.452C727.006 918.248 730.57 913.76 736.114 913.76C738.842 913.76 740.822 914.816 742.23 916.796C743.11 918.028 743.55 919.436 743.726 921.812H730.174C730.394 925.156 730.614 926.872 732.198 928.984C733.43 930.612 735.058 931.404 737.082 931.404C740.03 931.404 741.702 930.04 743.858 926.784ZM730.262 920.404H739.238C738.754 916.84 737.83 915.344 734.926 915.344C732.462 915.344 730.746 917.104 730.262 920.404ZM773.969 927.136L774.585 927.532C773.177 930.26 772.297 931.536 770.977 932.592C769.481 933.824 767.809 934.44 765.917 934.44C761.033 934.44 757.557 930.348 757.557 924.672C757.557 921.02 758.877 917.984 761.253 916.004C763.013 914.552 765.125 913.76 767.193 913.76C770.889 913.76 773.969 915.828 773.969 918.292C773.969 919.304 773.045 920.14 771.901 920.14C770.933 920.14 770.141 919.392 769.789 918.116L769.525 917.148C769.085 915.52 768.513 915.036 766.929 915.036C763.365 915.036 760.945 918.116 760.945 922.692C760.945 927.752 763.717 931.272 767.765 931.272C770.273 931.272 771.857 930.216 773.969 927.136ZM795.456 931.096V932.328C794.136 934 792.992 934.44 791.496 934.44C789.868 934.44 788.9 933.56 788.68 931.228H788.636C786.304 933.868 784.148 934.44 782.256 934.44C779.528 934.44 777.636 932.768 777.636 929.864C777.636 927.576 779 925.86 780.716 924.716C782.036 923.836 783.664 923 788.636 921.152V918.776C788.636 916.048 787.184 914.816 785.204 914.816C783.444 914.816 782.124 915.784 782.124 916.972C782.124 917.764 782.388 917.896 782.388 918.82C782.388 919.656 781.508 920.624 780.364 920.624C779.44 920.624 778.472 919.788 778.472 918.6C778.472 917.456 779.176 916.048 780.716 915.08C781.948 914.288 783.796 913.76 785.776 913.76C788.24 913.76 789.912 914.464 790.968 915.74C792.024 917.016 792.2 917.94 792.2 920.624V929.028C792.2 931.052 792.772 931.932 793.564 931.932C794.268 931.932 794.708 931.712 795.456 931.096ZM788.636 928.412V922.208C785.908 923.176 784.104 924.1 783.004 925.112C781.948 926.08 781.508 927.136 781.508 928.5C781.508 930.832 782.828 931.888 784.544 931.888C785.424 931.888 786.348 931.668 787.096 931.184C788.372 930.304 788.636 929.688 788.636 928.412ZM816.899 934H807.747L807.791 933.34C809.991 933.164 810.519 932.284 810.519 929.38V920.624C810.519 917.5 809.463 916.18 807.307 916.18C805.855 916.18 804.799 916.708 802.775 918.688V930.832C802.775 932.548 803.391 933.164 805.635 933.34V934H796.351V933.34C798.595 933.164 799.079 932.46 799.079 929.864V919.172C799.079 917.016 798.771 916.312 797.539 916.312C797.055 916.312 796.571 916.356 796.263 916.488V915.74C798.683 915.036 800.135 914.552 802.291 913.76L802.643 913.892V917.324H802.687C804.975 914.728 806.999 913.76 809.023 913.76C812.367 913.76 814.215 916.18 814.215 920.536V930.26C814.215 932.636 814.743 933.12 816.899 933.34V934ZM835.599 913.848V917.896C837.799 914.728 839.031 913.76 840.879 913.76C842.375 913.76 843.299 914.64 843.299 916.092C843.299 917.324 842.639 918.072 841.583 918.072C841.011 918.072 840.527 917.852 839.823 917.192C839.339 916.752 838.943 916.532 838.679 916.532C837.447 916.532 835.599 918.732 835.599 920.14V930.04C835.599 932.548 836.347 933.208 839.339 933.34V934H828.779V933.34C831.595 932.812 831.903 932.504 831.903 930.304V919.304C831.903 917.368 831.507 916.664 830.407 916.664C829.879 916.664 829.483 916.708 828.867 916.84V916.136C831.463 915.3 833.047 914.684 835.379 913.76L835.599 913.848ZM861.077 926.784L861.781 927.092C860.065 931.888 856.985 934.44 852.585 934.44C847.393 934.44 844.225 930.524 844.225 924.452C844.225 918.248 847.789 913.76 853.333 913.76C856.061 913.76 858.041 914.816 859.449 916.796C860.329 918.028 860.769 919.436 860.945 921.812H847.393C847.613 925.156 847.833 926.872 849.417 928.984C850.649 930.612 852.277 931.404 854.301 931.404C857.249 931.404 858.921 930.04 861.077 926.784ZM847.481 920.404H856.457C855.973 916.84 855.049 915.344 852.145 915.344C849.681 915.344 847.965 917.104 847.481 920.404ZM873.984 934H863.6V933.34C866.372 933.12 866.988 932.372 866.988 929.952V909.316C866.988 907.204 866.548 906.5 865.14 906.5C864.788 906.5 864.216 906.5 863.512 906.588V905.884C866.548 905.136 868.176 904.696 870.464 903.948L870.684 904.124V930.172C870.684 932.592 871.168 933.164 873.984 933.34V934ZM894.37 931.096V932.328C893.05 934 891.906 934.44 890.41 934.44C888.782 934.44 887.814 933.56 887.594 931.228H887.55C885.218 933.868 883.062 934.44 881.17 934.44C878.442 934.44 876.55 932.768 876.55 929.864C876.55 927.576 877.914 925.86 879.63 924.716C880.95 923.836 882.578 923 887.55 921.152V918.776C887.55 916.048 886.098 914.816 884.118 914.816C882.358 914.816 881.038 915.784 881.038 916.972C881.038 917.764 881.302 917.896 881.302 918.82C881.302 919.656 880.422 920.624 879.278 920.624C878.354 920.624 877.386 919.788 877.386 918.6C877.386 917.456 878.09 916.048 879.63 915.08C880.862 914.288 882.71 913.76 884.69 913.76C887.154 913.76 888.826 914.464 889.882 915.74C890.938 917.016 891.114 917.94 891.114 920.624V929.028C891.114 931.052 891.686 931.932 892.478 931.932C893.182 931.932 893.622 931.712 894.37 931.096ZM887.55 928.412V922.208C884.822 923.176 883.018 924.1 881.918 925.112C880.862 926.08 880.422 927.136 880.422 928.5C880.422 930.832 881.742 931.888 883.458 931.888C884.338 931.888 885.262 931.668 886.01 931.184C887.286 930.304 887.55 929.688 887.55 928.412ZM901.205 904.036V917.456C902.129 915.212 904.461 913.76 907.145 913.76C911.853 913.76 915.065 917.984 915.065 923.44C915.065 929.952 910.577 934.44 904.769 934.44C901.205 934.44 897.509 933.032 897.509 931.536V909.096C897.509 906.896 897.157 906.544 895.353 906.544C895.045 906.544 894.825 906.588 894.605 906.632V905.884L895.925 905.488C897.993 904.872 899.137 904.608 900.985 903.948L901.205 904.036ZM901.205 920.008V930.744C901.205 932.152 903.185 933.032 905.473 933.032C907.189 933.032 908.597 932.372 909.565 931.14C910.621 929.82 911.193 927.884 911.193 925.332C911.193 922.692 910.577 920.14 909.477 918.6C908.553 917.28 907.145 916.532 905.561 916.532C903.229 916.532 901.205 918.16 901.205 920.008ZM934.425 926.784L935.129 927.092C933.413 931.888 930.333 934.44 925.933 934.44C920.741 934.44 917.573 930.524 917.573 924.452C917.573 918.248 921.137 913.76 926.681 913.76C929.409 913.76 931.389 914.816 932.797 916.796C933.677 918.028 934.117 919.436 934.293 921.812H920.741C920.961 925.156 921.181 926.872 922.765 928.984C923.997 930.612 925.625 931.404 927.649 931.404C930.597 931.404 932.269 930.04 934.425 926.784ZM920.829 920.404H929.805C929.321 916.84 928.397 915.344 925.493 915.344C923.029 915.344 921.313 917.104 920.829 920.404ZM947.331 934H936.947V933.34C939.719 933.12 940.335 932.372 940.335 929.952V909.316C940.335 907.204 939.895 906.5 938.487 906.5C938.135 906.5 937.563 906.5 936.859 906.588V905.884C939.895 905.136 941.523 904.696 943.811 903.948L944.031 904.124V930.172C944.031 932.592 944.515 933.164 947.331 933.34V934ZM970.974 930.612L971.546 931.096C970.094 933.384 968.422 934.44 966.222 934.44C963.67 934.44 962.35 932.548 962.35 928.852V915.608H960.018C959.886 915.52 959.842 915.432 959.842 915.3C959.842 915.036 960.106 914.772 960.59 914.464C961.734 913.804 963.186 912.176 964.858 909.756C965.122 909.36 965.474 908.964 965.738 908.524C965.958 908.524 966.046 908.656 966.046 909.096V914.2H970.49V915.608H966.046V928.192C966.046 931.008 966.706 932.152 968.334 932.152C969.302 932.152 970.006 931.756 970.974 930.612ZM993.287 934H983.959V933.34C986.511 933.076 986.951 932.548 986.951 929.512V920.8C986.951 917.72 985.851 916.136 983.695 916.136C981.935 916.136 980.615 916.884 978.767 918.908V929.512C978.767 932.548 979.207 933.076 981.759 933.34V934H972.255V933.34C974.807 932.988 975.071 932.592 975.071 929.512V908.788C975.071 906.896 974.719 906.544 972.827 906.544C972.651 906.544 972.431 906.544 972.299 906.588V905.884L973.487 905.532C975.995 904.784 977.007 904.476 978.547 903.948L978.767 904.08V917.456C980.791 914.816 982.639 913.76 985.235 913.76C988.843 913.76 990.647 916.136 990.647 920.756V929.512C990.647 932.548 990.911 932.9 993.287 933.34V934ZM1011.81 926.784L1012.52 927.092C1010.8 931.888 1007.72 934.44 1003.32 934.44C998.127 934.44 994.959 930.524 994.959 924.452C994.959 918.248 998.523 913.76 1004.07 913.76C1006.8 913.76 1008.78 914.816 1010.18 916.796C1011.06 918.028 1011.5 919.436 1011.68 921.812H998.127C998.347 925.156 998.567 926.872 1000.15 928.984C1001.38 930.612 1003.01 931.404 1005.04 931.404C1007.98 931.404 1009.66 930.04 1011.81 926.784ZM998.215 920.404H1007.19C1006.71 916.84 1005.78 915.344 1002.88 915.344C1000.42 915.344 998.699 917.104 998.215 920.404ZM1043.86 931.096V932.328C1042.54 934 1041.39 934.44 1039.9 934.44C1038.27 934.44 1037.3 933.56 1037.08 931.228H1037.04C1034.71 933.868 1032.55 934.44 1030.66 934.44C1027.93 934.44 1026.04 932.768 1026.04 929.864C1026.04 927.576 1027.4 925.86 1029.12 924.716C1030.44 923.836 1032.07 923 1037.04 921.152V918.776C1037.04 916.048 1035.59 914.816 1033.61 914.816C1031.85 914.816 1030.53 915.784 1030.53 916.972C1030.53 917.764 1030.79 917.896 1030.79 918.82C1030.79 919.656 1029.91 920.624 1028.77 920.624C1027.84 920.624 1026.87 919.788 1026.87 918.6C1026.87 917.456 1027.58 916.048 1029.12 915.08C1030.35 914.288 1032.2 913.76 1034.18 913.76C1036.64 913.76 1038.31 914.464 1039.37 915.74C1040.43 917.016 1040.6 917.94 1040.6 920.624V929.028C1040.6 931.052 1041.17 931.932 1041.97 931.932C1042.67 931.932 1043.11 931.712 1043.86 931.096ZM1037.04 928.412V922.208C1034.31 923.176 1032.51 924.1 1031.41 925.112C1030.35 926.08 1029.91 927.136 1029.91 928.5C1029.91 930.832 1031.23 931.888 1032.95 931.888C1033.83 931.888 1034.75 931.668 1035.5 931.184C1036.77 930.304 1037.04 929.688 1037.04 928.412ZM1065.08 931.8V932.416C1062.84 933.032 1061.25 933.516 1059.05 934.396L1058.83 934.264V930.656H1058.74C1056.59 933.604 1054.08 934.44 1052.45 934.44C1049.06 934.44 1047.08 932.196 1047.08 928.808V917.764C1047.08 915.564 1046.47 914.948 1044.36 914.816V914.2H1050.78V928.412C1050.78 930.436 1052.19 931.888 1053.9 931.888C1055.18 931.888 1056.5 931.492 1057.6 930.524C1058.3 929.908 1058.61 929.512 1058.61 927.972V917.808C1058.61 915.476 1058 915.124 1055.36 914.948V914.2H1062.31V929.292C1062.31 931.316 1062.79 931.8 1064.82 931.8H1065.08ZM1077.66 930.612L1078.24 931.096C1076.78 933.384 1075.11 934.44 1072.91 934.44C1070.36 934.44 1069.04 932.548 1069.04 928.852V915.608H1066.71C1066.58 915.52 1066.53 915.432 1066.53 915.3C1066.53 915.036 1066.8 914.772 1067.28 914.464C1068.42 913.804 1069.88 912.176 1071.55 909.756C1071.81 909.36 1072.16 908.964 1072.43 908.524C1072.65 908.524 1072.74 908.656 1072.74 909.096V914.2H1077.18V915.608H1072.74V928.192C1072.74 931.008 1073.4 932.152 1075.02 932.152C1075.99 932.152 1076.7 931.756 1077.66 930.612ZM1098.8 923.836C1098.8 929.952 1094.84 934.44 1088.9 934.44C1083.58 934.44 1079.4 930.084 1079.4 923.968C1079.4 917.852 1083.36 913.76 1089.3 913.76C1094.67 913.76 1098.8 917.764 1098.8 923.836ZM1094.84 925.024C1094.84 922.032 1094.05 918.996 1092.64 917.192C1091.59 915.872 1090.35 914.992 1088.46 914.992C1085.43 914.992 1083.36 917.588 1083.36 921.988C1083.36 925.464 1084.06 928.632 1085.69 931.008C1086.66 932.416 1088.07 933.208 1089.65 933.208C1092.91 933.208 1094.84 930.128 1094.84 925.024ZM1134.22 934H1124.63V933.34C1127.09 933.076 1127.49 932.592 1127.49 930.04V920.976C1127.49 917.5 1126.61 916.048 1124.1 916.048C1122.03 916.048 1120.71 916.84 1119.39 918.732V929.82C1119.39 932.68 1120.05 933.296 1122.56 933.34V934H1112.71V933.34C1115.21 933.164 1115.7 932.9 1115.7 930.216V920.932C1115.7 917.896 1114.73 916.048 1112.84 916.048C1111.21 916.048 1109.05 916.884 1108.17 917.94C1107.87 918.292 1107.6 918.6 1107.6 918.688V930.92C1107.6 932.812 1108.26 933.252 1110.59 933.34V934H1100.83V933.34C1103.29 933.296 1103.91 932.68 1103.91 930.128V919.216C1103.91 917.06 1103.51 916.312 1102.37 916.312C1101.88 916.312 1101.53 916.356 1100.96 916.488V915.74C1103.38 915.08 1104.83 914.596 1107.07 913.76L1107.43 913.892V917.148H1107.51C1110.42 914.156 1112.27 913.76 1114.25 913.76C1116.62 913.76 1118.12 914.948 1118.91 917.456C1121.29 914.904 1123.53 913.76 1126.08 913.76C1129.65 913.76 1131.19 916.488 1131.19 921.68V930.612C1131.19 932.592 1131.76 933.164 1133.08 933.252L1134.22 933.34V934ZM1153.82 931.096V932.328C1152.5 934 1151.35 934.44 1149.86 934.44C1148.23 934.44 1147.26 933.56 1147.04 931.228H1147C1144.66 933.868 1142.51 934.44 1140.62 934.44C1137.89 934.44 1136 932.768 1136 929.864C1136 927.576 1137.36 925.86 1139.08 924.716C1140.4 923.836 1142.02 923 1147 921.152V918.776C1147 916.048 1145.54 914.816 1143.56 914.816C1141.8 914.816 1140.48 915.784 1140.48 916.972C1140.48 917.764 1140.75 917.896 1140.75 918.82C1140.75 919.656 1139.87 920.624 1138.72 920.624C1137.8 920.624 1136.83 919.788 1136.83 918.6C1136.83 917.456 1137.54 916.048 1139.08 915.08C1140.31 914.288 1142.16 913.76 1144.14 913.76C1146.6 913.76 1148.27 914.464 1149.33 915.74C1150.38 917.016 1150.56 917.94 1150.56 920.624V929.028C1150.56 931.052 1151.13 931.932 1151.92 931.932C1152.63 931.932 1153.07 931.712 1153.82 931.096ZM1147 928.412V922.208C1144.27 923.176 1142.46 924.1 1141.36 925.112C1140.31 926.08 1139.87 927.136 1139.87 928.5C1139.87 930.832 1141.19 931.888 1142.9 931.888C1143.78 931.888 1144.71 931.668 1145.46 931.184C1146.73 930.304 1147 929.688 1147 928.412ZM1165.62 930.612L1166.19 931.096C1164.74 933.384 1163.07 934.44 1160.87 934.44C1158.32 934.44 1157 932.548 1157 928.852V915.608H1154.67C1154.53 915.52 1154.49 915.432 1154.49 915.3C1154.49 915.036 1154.75 914.772 1155.24 914.464C1156.38 913.804 1157.83 912.176 1159.51 909.756C1159.77 909.36 1160.12 908.964 1160.39 908.524C1160.61 908.524 1160.69 908.656 1160.69 909.096V914.2H1165.14V915.608H1160.69V928.192C1160.69 931.008 1161.35 932.152 1162.98 932.152C1163.95 932.152 1164.65 931.756 1165.62 930.612ZM1186.76 923.836C1186.76 929.952 1182.8 934.44 1176.86 934.44C1171.53 934.44 1167.35 930.084 1167.35 923.968C1167.35 917.852 1171.31 913.76 1177.25 913.76C1182.62 913.76 1186.76 917.764 1186.76 923.836ZM1182.8 925.024C1182.8 922.032 1182.01 918.996 1180.6 917.192C1179.54 915.872 1178.31 914.992 1176.42 914.992C1173.38 914.992 1171.31 917.588 1171.31 921.988C1171.31 925.464 1172.02 928.632 1173.65 931.008C1174.61 932.416 1176.02 933.208 1177.61 933.208C1180.86 933.208 1182.8 930.128 1182.8 925.024ZM1209.42 934H1200.27L1200.31 933.34C1202.51 933.164 1203.04 932.284 1203.04 929.38V920.624C1203.04 917.5 1201.98 916.18 1199.83 916.18C1198.37 916.18 1197.32 916.708 1195.29 918.688V930.832C1195.29 932.548 1195.91 933.164 1198.15 933.34V934H1188.87V933.34C1191.11 933.164 1191.6 932.46 1191.6 929.864V919.172C1191.6 917.016 1191.29 916.312 1190.06 916.312C1189.57 916.312 1189.09 916.356 1188.78 916.488V915.74C1191.2 915.036 1192.65 914.552 1194.81 913.76L1195.16 913.892V917.324H1195.21C1197.49 914.728 1199.52 913.76 1201.54 913.76C1204.89 913.76 1206.73 916.18 1206.73 920.536V930.26C1206.73 932.636 1207.26 933.12 1209.42 933.34V934ZM1251.61 914.2V914.86C1250.73 915.168 1250.51 915.476 1249.81 917.236L1243.74 932.46C1243.03 934.22 1242.81 934.616 1242.51 934.616C1242.2 934.616 1242.11 934.396 1241.45 932.724L1237.45 922.34L1232.52 932.9C1231.99 934.044 1231.64 934.616 1231.42 934.616C1231.15 934.616 1230.8 934.044 1230.27 932.68L1224.33 917.632C1223.41 915.256 1223.01 914.948 1222 914.86V914.2H1229.92V914.86C1228.38 915.036 1227.9 915.388 1227.9 916.312C1227.9 916.752 1227.99 917.192 1228.16 917.632L1232.52 929.116L1236.52 920.36L1235.64 917.896C1234.81 915.52 1234.23 915.036 1232.61 914.86V914.2H1241.54V914.86C1239.47 915.168 1238.99 915.476 1238.99 916.4C1238.99 917.148 1239.21 917.676 1239.73 919.04L1243.43 928.896L1247.39 919.128C1247.87 917.94 1248.14 916.884 1248.14 916.18C1248.14 915.476 1247.7 915.168 1246.2 914.86V914.2H1251.61ZM1260.75 906.192C1260.75 907.468 1259.78 908.436 1258.46 908.436C1257.23 908.436 1256.26 907.468 1256.26 906.192C1256.26 904.96 1257.28 903.948 1258.51 903.948C1259.78 903.948 1260.75 904.96 1260.75 906.192ZM1263.96 934H1253.54V933.34C1256.57 933.164 1257.01 932.768 1257.01 929.424V919.436C1257.01 917.368 1256.66 916.664 1255.56 916.664C1255.16 916.664 1254.5 916.664 1253.71 916.884V916.18L1260.53 913.76L1260.71 913.936V929.38C1260.71 932.636 1261.06 933.12 1263.96 933.34V934ZM1276.78 930.612L1277.35 931.096C1275.9 933.384 1274.23 934.44 1272.03 934.44C1269.48 934.44 1268.16 932.548 1268.16 928.852V915.608H1265.83C1265.69 915.52 1265.65 915.432 1265.65 915.3C1265.65 915.036 1265.91 914.772 1266.4 914.464C1267.54 913.804 1268.99 912.176 1270.67 909.756C1270.93 909.36 1271.28 908.964 1271.55 908.524C1271.77 908.524 1271.85 908.656 1271.85 909.096V914.2H1276.3V915.608H1271.85V928.192C1271.85 931.008 1272.51 932.152 1274.14 932.152C1275.11 932.152 1275.81 931.756 1276.78 930.612ZM1299.1 934H1289.77V933.34C1292.32 933.076 1292.76 932.548 1292.76 929.512V920.8C1292.76 917.72 1291.66 916.136 1289.5 916.136C1287.74 916.136 1286.42 916.884 1284.58 918.908V929.512C1284.58 932.548 1285.02 933.076 1287.57 933.34V934H1278.06V933.34C1280.62 932.988 1280.88 932.592 1280.88 929.512V908.788C1280.88 906.896 1280.53 906.544 1278.64 906.544C1278.46 906.544 1278.24 906.544 1278.11 906.588V905.884L1279.3 905.532C1281.8 904.784 1282.82 904.476 1284.36 903.948L1284.58 904.08V917.456C1286.6 914.816 1288.45 913.76 1291.04 913.76C1294.65 913.76 1296.46 916.136 1296.46 920.756V929.512C1296.46 932.548 1296.72 932.9 1299.1 933.34V934ZM684.876 997.096V998.328C683.556 1000 682.412 1000.44 680.916 1000.44C679.288 1000.44 678.32 999.56 678.1 997.228H678.056C675.724 999.868 673.568 1000.44 671.676 1000.44C668.948 1000.44 667.056 998.768 667.056 995.864C667.056 993.576 668.42 991.86 670.136 990.716C671.456 989.836 673.084 989 678.056 987.152V984.776C678.056 982.048 676.604 980.816 674.624 980.816C672.864 980.816 671.544 981.784 671.544 982.972C671.544 983.764 671.808 983.896 671.808 984.82C671.808 985.656 670.928 986.624 669.784 986.624C668.86 986.624 667.892 985.788 667.892 984.6C667.892 983.456 668.596 982.048 670.136 981.08C671.368 980.288 673.216 979.76 675.196 979.76C677.66 979.76 679.332 980.464 680.388 981.74C681.444 983.016 681.62 983.94 681.62 986.624V995.028C681.62 997.052 682.192 997.932 682.984 997.932C683.688 997.932 684.128 997.712 684.876 997.096ZM678.056 994.412V988.208C675.328 989.176 673.524 990.1 672.424 991.112C671.368 992.08 670.928 993.136 670.928 994.5C670.928 996.832 672.248 997.888 673.964 997.888C674.844 997.888 675.768 997.668 676.516 997.184C677.792 996.304 678.056 995.688 678.056 994.412ZM702.975 979.848V983.236C704.911 980.816 706.847 979.76 709.311 979.76C713.579 979.76 716.659 983.676 716.659 989.132C716.659 995.512 712.655 1000.44 707.419 1000.44C705.571 1000.44 704.559 1000 702.975 998.548V1005.46C702.975 1008.23 703.547 1008.71 706.847 1008.76V1009.55H696.199V1008.8C698.795 1008.54 699.279 1008.05 699.279 1005.76V985.172C699.279 983.104 698.971 982.664 697.475 982.664C697.079 982.664 696.771 982.664 696.375 982.708V982.004C698.795 981.256 700.379 980.684 702.711 979.76L702.975 979.848ZM702.975 985.304V996.128C702.975 997.448 705.483 999.032 707.551 999.032C710.719 999.032 712.875 995.732 712.875 990.892C712.875 985.744 710.719 982.4 707.463 982.4C705.439 982.4 702.975 983.984 702.975 985.304ZM737.427 997.096V998.328C736.107 1000 734.963 1000.44 733.467 1000.44C731.839 1000.44 730.871 999.56 730.651 997.228H730.607C728.275 999.868 726.119 1000.44 724.227 1000.44C721.499 1000.44 719.607 998.768 719.607 995.864C719.607 993.576 720.971 991.86 722.687 990.716C724.007 989.836 725.635 989 730.607 987.152V984.776C730.607 982.048 729.155 980.816 727.175 980.816C725.415 980.816 724.095 981.784 724.095 982.972C724.095 983.764 724.359 983.896 724.359 984.82C724.359 985.656 723.479 986.624 722.335 986.624C721.411 986.624 720.443 985.788 720.443 984.6C720.443 983.456 721.147 982.048 722.687 981.08C723.919 980.288 725.767 979.76 727.747 979.76C730.211 979.76 731.883 980.464 732.939 981.74C733.995 983.016 734.171 983.94 734.171 986.624V995.028C734.171 997.052 734.743 997.932 735.535 997.932C736.239 997.932 736.679 997.712 737.427 997.096ZM730.607 994.412V988.208C727.879 989.176 726.075 990.1 724.975 991.112C723.919 992.08 723.479 993.136 723.479 994.5C723.479 996.832 724.799 997.888 726.515 997.888C727.395 997.888 728.319 997.668 729.067 997.184C730.343 996.304 730.607 995.688 730.607 994.412ZM744.569 979.848V983.896C746.769 980.728 748.001 979.76 749.849 979.76C751.345 979.76 752.269 980.64 752.269 982.092C752.269 983.324 751.609 984.072 750.553 984.072C749.981 984.072 749.497 983.852 748.793 983.192C748.309 982.752 747.913 982.532 747.649 982.532C746.417 982.532 744.569 984.732 744.569 986.14V996.04C744.569 998.548 745.317 999.208 748.309 999.34V1000H737.749V999.34C740.565 998.812 740.873 998.504 740.873 996.304V985.304C740.873 983.368 740.477 982.664 739.377 982.664C738.849 982.664 738.453 982.708 737.837 982.84V982.136C740.433 981.3 742.017 980.684 744.349 979.76L744.569 979.848ZM760.918 972.192C760.918 973.468 759.95 974.436 758.63 974.436C757.398 974.436 756.43 973.468 756.43 972.192C756.43 970.96 757.442 969.948 758.674 969.948C759.95 969.948 760.918 970.96 760.918 972.192ZM764.13 1000H753.702V999.34C756.738 999.164 757.178 998.768 757.178 995.424V985.436C757.178 983.368 756.826 982.664 755.726 982.664C755.33 982.664 754.67 982.664 753.878 982.884V982.18L760.698 979.76L760.874 979.936V995.38C760.874 998.636 761.226 999.12 764.13 999.34V1000ZM776.948 996.612L777.52 997.096C776.068 999.384 774.396 1000.44 772.196 1000.44C769.644 1000.44 768.324 998.548 768.324 994.852V981.608H765.992C765.86 981.52 765.816 981.432 765.816 981.3C765.816 981.036 766.08 980.772 766.564 980.464C767.708 979.804 769.16 978.176 770.832 975.756C771.096 975.36 771.448 974.964 771.712 974.524C771.932 974.524 772.02 974.656 772.02 975.096V980.2H776.464V981.608H772.02V994.192C772.02 997.008 772.68 998.152 774.308 998.152C775.276 998.152 775.98 997.756 776.948 996.612ZM798.39 980.2V980.86C797.334 980.992 796.806 981.476 796.19 983.104L789.59 1001.1C787.302 1007.35 785.234 1009.59 781.89 1009.59C779.998 1009.59 778.81 1008.49 778.81 1007.04C778.81 1005.94 779.646 1005.02 780.702 1005.02C781.494 1005.02 782.198 1005.15 782.99 1005.59C783.474 1005.85 783.87 1005.9 784.134 1005.9C784.75 1005.9 785.63 1005.02 786.334 1003.96C787.214 1002.68 788.094 999.912 788.094 999.208C788.094 998.548 787.082 996.524 786.246 994.764L780.438 982.356C779.998 981.388 779.25 980.992 778.106 980.816V980.2H787.126V980.86C785.234 980.948 784.618 981.256 784.618 982.048C784.618 982.532 784.926 983.236 785.19 983.852L790.118 994.852L794.386 982.708C794.518 982.4 794.562 982.092 794.562 981.916C794.562 981.212 793.902 980.86 792.538 980.86V980.2H798.39ZM828.002 993.136L828.618 993.532C827.21 996.26 826.33 997.536 825.01 998.592C823.514 999.824 821.842 1000.44 819.95 1000.44C815.066 1000.44 811.59 996.348 811.59 990.672C811.59 987.02 812.91 983.984 815.286 982.004C817.046 980.552 819.158 979.76 821.226 979.76C824.922 979.76 828.002 981.828 828.002 984.292C828.002 985.304 827.078 986.14 825.934 986.14C824.966 986.14 824.174 985.392 823.822 984.116L823.558 983.148C823.118 981.52 822.546 981.036 820.962 981.036C817.398 981.036 814.978 984.116 814.978 988.692C814.978 993.752 817.75 997.272 821.798 997.272C824.306 997.272 825.89 996.216 828.002 993.136ZM850.721 989.836C850.721 995.952 846.761 1000.44 840.821 1000.44C835.497 1000.44 831.317 996.084 831.317 989.968C831.317 983.852 835.277 979.76 841.217 979.76C846.585 979.76 850.721 983.764 850.721 989.836ZM846.761 991.024C846.761 988.032 845.969 984.996 844.561 983.192C843.505 981.872 842.273 980.992 840.381 980.992C837.345 980.992 835.277 983.588 835.277 987.988C835.277 991.464 835.981 994.632 837.609 997.008C838.577 998.416 839.985 999.208 841.569 999.208C844.825 999.208 846.761 996.128 846.761 991.024ZM873.381 1000H864.229L864.273 999.34C866.473 999.164 867.001 998.284 867.001 995.38V986.624C867.001 983.5 865.945 982.18 863.789 982.18C862.337 982.18 861.281 982.708 859.257 984.688V996.832C859.257 998.548 859.873 999.164 862.117 999.34V1000H852.833V999.34C855.077 999.164 855.561 998.46 855.561 995.864V985.172C855.561 983.016 855.253 982.312 854.021 982.312C853.537 982.312 853.053 982.356 852.745 982.488V981.74C855.165 981.036 856.617 980.552 858.773 979.76L859.125 979.892V983.324H859.169C861.457 980.728 863.481 979.76 865.505 979.76C868.849 979.76 870.697 982.18 870.697 986.536V996.26C870.697 998.636 871.225 999.12 873.381 999.34V1000ZM895.645 998.152L889.177 1000.44L889.001 1000.31V997.492C887.505 999.56 885.833 1000.44 883.369 1000.44C878.485 1000.44 875.229 996.612 875.229 990.98C875.229 984.732 879.321 979.76 884.381 979.76C886.141 979.76 887.329 980.244 889.001 981.652V974.788C889.001 972.984 888.605 972.544 886.977 972.544C886.625 972.544 886.361 972.544 886.009 972.588V971.884C888.825 971.136 890.365 970.696 892.477 969.948L892.697 970.036V994.984C892.697 997.008 893.049 997.492 894.633 997.492C894.853 997.492 894.897 997.492 895.645 997.448V998.152ZM889.001 995.512V985.392C889.001 983.06 886.889 980.992 884.513 980.992C881.169 980.992 879.013 984.248 879.013 989.22C879.013 994.632 881.389 998.152 885.085 998.152C886.449 998.152 887.549 997.668 888.341 996.744C888.737 996.304 889.001 995.82 889.001 995.512ZM903.961 972.192C903.961 973.468 902.993 974.436 901.673 974.436C900.441 974.436 899.473 973.468 899.473 972.192C899.473 970.96 900.485 969.948 901.717 969.948C902.993 969.948 903.961 970.96 903.961 972.192ZM907.173 1000H896.745V999.34C899.781 999.164 900.221 998.768 900.221 995.424V985.436C900.221 983.368 899.869 982.664 898.769 982.664C898.373 982.664 897.713 982.664 896.921 982.884V982.18L903.741 979.76L903.917 979.936V995.38C903.917 998.636 904.269 999.12 907.173 999.34V1000ZM919.991 996.612L920.563 997.096C919.111 999.384 917.439 1000.44 915.239 1000.44C912.687 1000.44 911.367 998.548 911.367 994.852V981.608H909.035C908.903 981.52 908.859 981.432 908.859 981.3C908.859 981.036 909.123 980.772 909.607 980.464C910.751 979.804 912.203 978.176 913.875 975.756C914.139 975.36 914.491 974.964 914.755 974.524C914.975 974.524 915.063 974.656 915.063 975.096V980.2H919.507V981.608H915.063V994.192C915.063 997.008 915.723 998.152 917.351 998.152C918.319 998.152 919.023 997.756 919.991 996.612ZM928.453 972.192C928.453 973.468 927.485 974.436 926.165 974.436C924.933 974.436 923.965 973.468 923.965 972.192C923.965 970.96 924.977 969.948 926.209 969.948C927.485 969.948 928.453 970.96 928.453 972.192ZM931.665 1000H921.237V999.34C924.273 999.164 924.713 998.768 924.713 995.424V985.436C924.713 983.368 924.361 982.664 923.261 982.664C922.865 982.664 922.205 982.664 921.413 982.884V982.18L928.233 979.76L928.409 979.936V995.38C928.409 998.636 928.761 999.12 931.665 999.34V1000ZM953.459 989.836C953.459 995.952 949.499 1000.44 943.559 1000.44C938.235 1000.44 934.055 996.084 934.055 989.968C934.055 983.852 938.015 979.76 943.955 979.76C949.323 979.76 953.459 983.764 953.459 989.836ZM949.499 991.024C949.499 988.032 948.707 984.996 947.299 983.192C946.243 981.872 945.011 980.992 943.119 980.992C940.083 980.992 938.015 983.588 938.015 987.988C938.015 991.464 938.719 994.632 940.347 997.008C941.315 998.416 942.723 999.208 944.307 999.208C947.563 999.208 949.499 996.128 949.499 991.024ZM976.119 1000H966.967L967.011 999.34C969.211 999.164 969.739 998.284 969.739 995.38V986.624C969.739 983.5 968.683 982.18 966.527 982.18C965.075 982.18 964.019 982.708 961.995 984.688V996.832C961.995 998.548 962.611 999.164 964.855 999.34V1000H955.571V999.34C957.815 999.164 958.299 998.46 958.299 995.864V985.172C958.299 983.016 957.991 982.312 956.759 982.312C956.275 982.312 955.791 982.356 955.483 982.488V981.74C957.903 981.036 959.355 980.552 961.511 979.76L961.863 979.892V983.324H961.907C964.195 980.728 966.219 979.76 968.243 979.76C971.587 979.76 973.435 982.18 973.435 986.536V996.26C973.435 998.636 973.963 999.12 976.119 999.34V1000ZM1018.32 980.2V980.86C1017.44 981.168 1017.22 981.476 1016.51 983.236L1010.44 998.46C1009.74 1000.22 1009.52 1000.62 1009.21 1000.62C1008.9 1000.62 1008.81 1000.4 1008.15 998.724L1004.15 988.34L999.219 998.9C998.691 1000.04 998.339 1000.62 998.119 1000.62C997.855 1000.62 997.503 1000.04 996.975 998.68L991.035 983.632C990.111 981.256 989.715 980.948 988.703 980.86V980.2H996.623V980.86C995.083 981.036 994.599 981.388 994.599 982.312C994.599 982.752 994.687 983.192 994.863 983.632L999.219 995.116L1003.22 986.36L1002.34 983.896C1001.51 981.52 1000.94 981.036 999.307 980.86V980.2H1008.24V980.86C1006.17 981.168 1005.69 981.476 1005.69 982.4C1005.69 983.148 1005.91 983.676 1006.44 985.04L1010.13 994.896L1014.09 985.128C1014.58 983.94 1014.84 982.884 1014.84 982.18C1014.84 981.476 1014.4 981.168 1012.9 980.86V980.2H1018.32ZM1027.45 972.192C1027.45 973.468 1026.49 974.436 1025.17 974.436C1023.93 974.436 1022.97 973.468 1022.97 972.192C1022.97 970.96 1023.98 969.948 1025.21 969.948C1026.49 969.948 1027.45 970.96 1027.45 972.192ZM1030.67 1000H1020.24V999.34C1023.27 999.164 1023.71 998.768 1023.71 995.424V985.436C1023.71 983.368 1023.36 982.664 1022.26 982.664C1021.87 982.664 1021.21 982.664 1020.41 982.884V982.18L1027.23 979.76L1027.41 979.936V995.38C1027.41 998.636 1027.76 999.12 1030.67 999.34V1000ZM1043.48 996.612L1044.06 997.096C1042.6 999.384 1040.93 1000.44 1038.73 1000.44C1036.18 1000.44 1034.86 998.548 1034.86 994.852V981.608H1032.53C1032.4 981.52 1032.35 981.432 1032.35 981.3C1032.35 981.036 1032.62 980.772 1033.1 980.464C1034.24 979.804 1035.7 978.176 1037.37 975.756C1037.63 975.36 1037.98 974.964 1038.25 974.524C1038.47 974.524 1038.56 974.656 1038.56 975.096V980.2H1043V981.608H1038.56V994.192C1038.56 997.008 1039.22 998.152 1040.84 998.152C1041.81 998.152 1042.52 997.756 1043.48 996.612ZM1065.8 1000H1056.47V999.34C1059.02 999.076 1059.46 998.548 1059.46 995.512V986.8C1059.46 983.72 1058.36 982.136 1056.21 982.136C1054.45 982.136 1053.13 982.884 1051.28 984.908V995.512C1051.28 998.548 1051.72 999.076 1054.27 999.34V1000H1044.77V999.34C1047.32 998.988 1047.58 998.592 1047.58 995.512V974.788C1047.58 972.896 1047.23 972.544 1045.34 972.544C1045.16 972.544 1044.94 972.544 1044.81 972.588V971.884L1046 971.532C1048.51 970.784 1049.52 970.476 1051.06 969.948L1051.28 970.08V983.456C1053.3 980.816 1055.15 979.76 1057.75 979.76C1061.35 979.76 1063.16 982.136 1063.16 986.756V995.512C1063.16 998.548 1063.42 998.9 1065.8 999.34V1000ZM1098.23 993.972L1095.85 1000H1078.65V999.472L1086.48 991.156C1090.61 986.8 1092.2 983.456 1092.2 979.716C1092.2 975.712 1089.82 973.512 1086.08 973.512C1082.91 973.512 1081.37 974.92 1079.61 979.232L1078.69 979.012C1079.61 973.864 1082.43 970.256 1087.84 970.256C1092.81 970.256 1095.98 973.644 1095.98 978C1095.98 981.476 1094.27 984.776 1090.35 988.912L1083.09 996.656H1093.39C1095.23 996.656 1096.16 996.172 1097.61 993.708L1098.23 993.972ZM1127.88 993.136L1128.5 993.532C1127.09 996.26 1126.21 997.536 1124.89 998.592C1123.39 999.824 1121.72 1000.44 1119.83 1000.44C1114.95 1000.44 1111.47 996.348 1111.47 990.672C1111.47 987.02 1112.79 983.984 1115.17 982.004C1116.93 980.552 1119.04 979.76 1121.11 979.76C1124.8 979.76 1127.88 981.828 1127.88 984.292C1127.88 985.304 1126.96 986.14 1125.81 986.14C1124.85 986.14 1124.05 985.392 1123.7 984.116L1123.44 983.148C1123 981.52 1122.43 981.036 1120.84 981.036C1117.28 981.036 1114.86 984.116 1114.86 988.692C1114.86 993.752 1117.63 997.272 1121.68 997.272C1124.19 997.272 1125.77 996.216 1127.88 993.136ZM1150.6 989.836C1150.6 995.952 1146.64 1000.44 1140.7 1000.44C1135.38 1000.44 1131.2 996.084 1131.2 989.968C1131.2 983.852 1135.16 979.76 1141.1 979.76C1146.46 979.76 1150.6 983.764 1150.6 989.836ZM1146.64 991.024C1146.64 988.032 1145.85 984.996 1144.44 983.192C1143.38 981.872 1142.15 980.992 1140.26 980.992C1137.22 980.992 1135.16 983.588 1135.16 987.988C1135.16 991.464 1135.86 994.632 1137.49 997.008C1138.46 998.416 1139.86 999.208 1141.45 999.208C1144.7 999.208 1146.64 996.128 1146.64 991.024ZM1163.23 1000H1152.84V999.34C1155.62 999.12 1156.23 998.372 1156.23 995.952V975.316C1156.23 973.204 1155.79 972.5 1154.38 972.5C1154.03 972.5 1153.46 972.5 1152.76 972.588V971.884C1155.79 971.136 1157.42 970.696 1159.71 969.948L1159.93 970.124V996.172C1159.93 998.592 1160.41 999.164 1163.23 999.34V1000ZM1184.85 989.836C1184.85 995.952 1180.89 1000.44 1174.95 1000.44C1169.62 1000.44 1165.44 996.084 1165.44 989.968C1165.44 983.852 1169.4 979.76 1175.34 979.76C1180.71 979.76 1184.85 983.764 1184.85 989.836ZM1180.89 991.024C1180.89 988.032 1180.09 984.996 1178.69 983.192C1177.63 981.872 1176.4 980.992 1174.51 980.992C1171.47 980.992 1169.4 983.588 1169.4 987.988C1169.4 991.464 1170.11 994.632 1171.73 997.008C1172.7 998.416 1174.11 999.208 1175.69 999.208C1178.95 999.208 1180.89 996.128 1180.89 991.024ZM1207.29 997.8V998.416C1205.04 999.032 1203.46 999.516 1201.26 1000.4L1201.04 1000.26V996.656H1200.95C1198.79 999.604 1196.29 1000.44 1194.66 1000.44C1191.27 1000.44 1189.29 998.196 1189.29 994.808V983.764C1189.29 981.564 1188.67 980.948 1186.56 980.816V980.2H1192.99V994.412C1192.99 996.436 1194.39 997.888 1196.11 997.888C1197.39 997.888 1198.71 997.492 1199.81 996.524C1200.51 995.908 1200.82 995.512 1200.82 993.972V983.808C1200.82 981.476 1200.2 981.124 1197.56 980.948V980.2H1204.51V995.292C1204.51 997.316 1205 997.8 1207.02 997.8H1207.29ZM1215.21 979.848V983.896C1217.41 980.728 1218.64 979.76 1220.49 979.76C1221.98 979.76 1222.91 980.64 1222.91 982.092C1222.91 983.324 1222.25 984.072 1221.19 984.072C1220.62 984.072 1220.13 983.852 1219.43 983.192C1218.95 982.752 1218.55 982.532 1218.29 982.532C1217.05 982.532 1215.21 984.732 1215.21 986.14V996.04C1215.21 998.548 1215.95 999.208 1218.95 999.34V1000H1208.39V999.34C1211.2 998.812 1211.51 998.504 1211.51 996.304V985.304C1211.51 983.368 1211.11 982.664 1210.01 982.664C1209.49 982.664 1209.09 982.708 1208.47 982.84V982.136C1211.07 981.3 1212.65 980.684 1214.99 979.76L1215.21 979.848ZM1229.68 986.756L1234.26 989.528C1237.07 991.244 1238.13 992.432 1238.13 994.94C1238.13 997.888 1235.31 1000.44 1231.97 1000.44C1231.05 1000.44 1229.77 1000.4 1228.76 1000.04C1227.7 999.692 1227.22 999.648 1226.73 999.648C1226.21 999.648 1225.94 999.736 1225.68 1000.18H1225.11V993.268H1225.81C1226.73 997.536 1228.36 999.472 1231.4 999.472C1233.64 999.472 1235.05 998.02 1235.05 996.216C1235.05 994.852 1234.17 993.708 1232.72 992.916L1230.34 991.596C1226.69 989.572 1225.06 987.46 1225.06 985.216C1225.06 981.74 1227.53 979.804 1231.13 979.804C1232.19 979.804 1233.16 979.848 1234.08 980.288C1234.57 980.508 1235.01 980.64 1235.31 980.64C1235.49 980.64 1235.67 980.596 1236.02 980.2H1236.5L1236.72 986.184H1236.06C1235.05 982.224 1233.73 980.772 1231.09 980.772C1229.2 980.772 1227.79 981.696 1227.79 983.764C1227.79 984.732 1228.45 986.008 1229.68 986.756ZM1247.62 992.256L1245.77 975.492C1245.68 974.612 1245.64 974.084 1245.64 973.6C1245.64 971.708 1246.3 970.256 1247.97 970.256C1249.47 970.256 1250.3 971.664 1250.3 973.82C1250.3 974.348 1250.26 975.008 1250.22 975.492L1248.24 992.256H1247.62ZM1250.3 998.152C1250.3 999.428 1249.29 1000.4 1247.93 1000.4C1246.61 1000.4 1245.64 999.428 1245.64 998.108C1245.64 996.788 1246.65 995.732 1247.97 995.732C1249.25 995.732 1250.3 996.832 1250.3 998.152Z" fill="black"/>
</g>
</svg>
