<svg width="1921" height="1081" viewBox="0 0 1921 1081" fill="none" xmlns="http://www.w3.org/2000/svg">
<g id="Muller">
<rect width="1920" height="1080" transform="translate(0.120117 0.680176)" fill="white"/>
<g id="Group 8">
<path id="F &#226;&#138;&#134; 2C" d="M701.855 353.812C702.457 352.698 703.197 351.63 704.074 350.607C704.968 349.566 705.945 348.598 707.005 347.703C705.398 347.557 703.791 347.347 702.184 347.073C700.595 346.781 699.033 346.498 697.499 346.224C695.965 345.95 694.468 345.713 693.007 345.512C691.546 345.311 690.149 345.211 688.816 345.211C687.118 345.211 685.684 345.384 684.515 345.731C683.365 346.078 682.433 346.535 681.721 347.101C681.027 347.667 680.525 348.306 680.215 349.018C679.904 349.712 679.749 350.424 679.749 351.155C679.749 351.849 679.877 352.515 680.132 353.155C680.388 353.775 680.763 354.332 681.256 354.825C681.749 355.3 682.36 355.684 683.091 355.976C683.821 356.268 684.671 356.414 685.638 356.414C686.186 356.414 686.771 356.369 687.392 356.277C688.012 356.186 688.633 356.058 689.254 355.894C689.893 355.711 690.514 355.501 691.117 355.264C691.72 355.026 692.267 354.762 692.76 354.469L693.308 355.127C692.706 355.474 692.076 355.784 691.418 356.058C690.761 356.314 690.094 356.542 689.419 356.743C688.761 356.926 688.095 357.072 687.419 357.181C686.761 357.273 686.131 357.318 685.529 357.318C684.433 357.318 683.456 357.163 682.598 356.853C681.758 356.524 681.036 356.086 680.434 355.538C679.849 354.972 679.402 354.314 679.092 353.565C678.781 352.817 678.626 352.013 678.626 351.155C678.626 350.004 678.9 348.945 679.448 347.977C679.996 346.991 680.799 346.142 681.858 345.43C682.936 344.718 684.269 344.161 685.858 343.759C687.465 343.357 689.309 343.156 691.391 343.156C692.943 343.156 694.495 343.257 696.048 343.458C697.618 343.658 699.198 343.887 700.786 344.142C702.375 344.38 703.982 344.608 705.608 344.827C707.233 345.046 708.895 345.183 710.593 345.238C712.054 344.416 713.551 343.768 715.085 343.293C716.638 342.8 718.19 342.554 719.742 342.554C720.527 342.554 721.057 342.627 721.331 342.773C721.623 342.919 721.769 343.193 721.769 343.595C721.769 344.197 721.486 344.763 720.92 345.293C720.354 345.804 719.569 346.252 718.564 346.635C717.56 347.019 716.382 347.32 715.031 347.539C713.679 347.758 712.209 347.868 710.62 347.868C710.365 347.868 710.1 347.868 709.826 347.868C709.57 347.868 709.315 347.859 709.059 347.84C708.548 348.352 708.119 348.872 707.772 349.402C707.607 349.639 707.443 349.913 707.279 350.224C707.132 350.516 706.95 350.899 706.731 351.374C706.53 351.849 706.292 352.433 706.018 353.127C705.745 353.803 705.416 354.652 705.032 355.675C704.667 356.697 704.22 357.912 703.69 359.318C703.179 360.706 702.585 362.34 701.91 364.221H709.908V365.317H701.526C700.102 369.334 698.577 372.795 696.952 375.699C695.326 378.602 693.61 380.995 691.802 382.875C689.994 384.738 688.113 386.117 686.159 387.012C684.205 387.888 682.187 388.327 680.105 388.327C678.754 388.327 677.494 388.153 676.325 387.806C675.174 387.459 674.17 386.948 673.312 386.272C672.472 385.578 671.805 384.729 671.312 383.725C670.819 382.72 670.572 381.561 670.572 380.246C670.572 379.369 670.673 378.529 670.874 377.726C671.093 376.922 671.385 376.219 671.75 375.616C672.134 374.996 672.572 374.502 673.065 374.137C673.577 373.754 674.124 373.562 674.709 373.562C675.092 373.562 675.421 373.662 675.695 373.863C675.969 374.046 676.106 374.393 676.106 374.904C676.106 375.324 675.996 375.662 675.777 375.918C675.576 376.155 675.321 376.365 675.01 376.548C674.7 376.712 674.353 376.886 673.969 377.068C673.604 377.233 673.266 377.461 672.956 377.753C672.645 378.027 672.38 378.392 672.161 378.849C671.96 379.305 671.86 379.908 671.86 380.657C671.86 381.698 672.052 382.629 672.435 383.451C672.819 384.273 673.367 384.976 674.079 385.56C674.791 386.126 675.658 386.564 676.681 386.875C677.722 387.185 678.891 387.34 680.187 387.34C681.155 387.34 682.068 387.24 682.927 387.039C683.785 386.838 684.616 386.491 685.419 385.998C686.223 385.487 687.008 384.811 687.775 383.971C688.542 383.113 689.318 382.035 690.103 380.739C690.907 379.424 691.729 377.863 692.569 376.055C693.427 374.247 694.34 372.138 695.308 369.727C695.637 368.905 695.938 368.129 696.212 367.399C696.504 366.668 696.778 365.974 697.034 365.317H689.638V364.221H697.445C698.175 362.395 698.769 360.898 699.225 359.729C699.7 358.56 700.093 357.601 700.403 356.853C700.732 356.104 700.996 355.51 701.197 355.072C701.417 354.615 701.636 354.195 701.855 353.812ZM719.605 343.321C718.455 343.321 717.286 343.494 716.099 343.841C714.912 344.188 713.771 344.654 712.675 345.238C713.716 345.22 714.72 345.156 715.688 345.046C716.674 344.937 717.542 344.809 718.29 344.663C719.057 344.517 719.669 344.362 720.126 344.197C720.6 344.015 720.838 343.832 720.838 343.649C720.838 343.43 720.427 343.321 719.605 343.321ZM770.55 384.397H754.281C745.361 384.397 739.302 377.048 739.302 368.745C739.302 360.442 745.473 353.206 754.449 353.206H770.55V356.908H754.449C748.054 356.908 743.005 362.743 743.005 368.745C743.005 374.748 748.11 380.695 754.506 380.695H770.55V384.397ZM770.55 393.037H739.807V389.334H770.55V393.037ZM814.733 379.573L811.703 387.258H789.768V386.585L799.754 375.982C805.028 370.428 807.047 366.165 807.047 361.396C807.047 356.291 804.018 353.486 799.249 353.486C795.21 353.486 793.247 355.281 791.003 360.779L789.824 360.499C791.003 353.935 794.593 349.335 801.493 349.335C807.833 349.335 811.872 353.654 811.872 359.208C811.872 363.64 809.684 367.848 804.691 373.121L795.434 382.995H808.562C810.918 382.995 812.096 382.378 813.947 379.236L814.733 379.573ZM836.859 363.849L837.498 364.455C835.546 367.249 832.281 368.73 828.309 368.73C825.246 368.73 822.318 367.652 820.365 365.734C818.312 363.714 817.134 360.651 817.134 357.319C817.134 353.953 818.245 351.159 820.163 349.005C822.318 346.615 825.212 345.504 828.343 345.504C829.655 345.504 831.002 345.639 832.348 346.009C833.055 346.211 834.099 346.615 834.671 346.615C835.31 346.615 835.883 346.211 836.084 345.504H836.758L837.061 353.145H836.286C835.883 351.294 835.378 350.318 834.536 349.409C833.055 347.827 831.305 346.851 829.117 346.851C824.034 346.851 821.038 350.957 821.038 356.78C821.038 360.483 821.88 363.108 823.462 364.825C824.943 366.407 827.131 367.249 829.453 367.249C832.483 367.249 834.334 366.239 836.859 363.849Z" fill="black"/>
<path id="family of subsets" d="M871.856 363.013H876.456C876.512 358.525 876.961 356.506 878.42 353.981C879.878 351.457 882.795 349.942 886.33 349.942C889.696 349.942 892.164 351.401 892.164 353.42C892.164 354.71 891.154 355.72 889.808 355.72C888.854 355.72 888.181 355.215 887.283 353.701C886.274 352.074 885.544 351.513 884.31 351.513C882.178 351.513 881.168 353.196 881.168 356.506V363.013H888.013V364.808H881.168V382.424C881.168 386.631 881.786 387.249 886.386 387.417V388.258H871.8V387.417C875.839 387.192 876.456 386.519 876.456 382.424V364.808H871.856V363.013ZM912.676 384.556V386.127C910.993 388.258 909.535 388.819 907.627 388.819C905.552 388.819 904.318 387.697 904.037 384.724H903.981C901.008 388.09 898.259 388.819 895.846 388.819C892.368 388.819 889.956 386.688 889.956 382.985C889.956 380.068 891.695 377.88 893.883 376.421C895.566 375.299 897.642 374.233 903.981 371.877V368.848C903.981 365.369 902.13 363.799 899.605 363.799C897.361 363.799 895.678 365.033 895.678 366.548C895.678 367.557 896.015 367.726 896.015 368.904C896.015 369.97 894.893 371.204 893.434 371.204C892.256 371.204 891.022 370.138 891.022 368.623C891.022 367.165 891.919 365.369 893.883 364.135C895.454 363.125 897.81 362.452 900.334 362.452C903.476 362.452 905.608 363.35 906.954 364.977C908.301 366.604 908.525 367.782 908.525 371.204V381.919C908.525 384.5 909.254 385.622 910.264 385.622C911.162 385.622 911.723 385.341 912.676 384.556ZM903.981 381.134V373.223C900.503 374.458 898.203 375.636 896.8 376.926C895.454 378.16 894.893 379.507 894.893 381.246C894.893 384.219 896.576 385.566 898.764 385.566C899.886 385.566 901.064 385.285 902.017 384.668C903.644 383.546 903.981 382.761 903.981 381.134ZM956.285 388.258H944.055V387.417C947.197 387.08 947.702 386.463 947.702 383.209V371.653C947.702 367.221 946.58 365.369 943.382 365.369C940.745 365.369 939.062 366.379 937.379 368.792V382.929C937.379 386.575 938.221 387.361 941.419 387.417V388.258H928.852V387.417C932.05 387.192 932.667 386.856 932.667 383.434V371.597C932.667 367.726 931.433 365.369 929.02 365.369C926.945 365.369 924.196 366.435 923.074 367.782C922.681 368.231 922.345 368.623 922.345 368.735V384.331C922.345 386.744 923.186 387.305 926.159 387.417V388.258H913.705V387.417C916.847 387.361 917.632 386.575 917.632 383.322V369.409C917.632 366.66 917.127 365.706 915.669 365.706C915.052 365.706 914.603 365.762 913.873 365.93V364.977C916.959 364.135 918.81 363.518 921.671 362.452L922.12 362.621V366.772H922.232C925.935 362.957 928.291 362.452 930.816 362.452C933.845 362.452 935.752 363.967 936.762 367.165C939.792 363.911 942.653 362.452 945.907 362.452C950.451 362.452 952.414 365.93 952.414 372.55V383.939C952.414 386.463 953.143 387.192 954.826 387.305L956.285 387.417V388.258ZM966.569 352.803C966.569 354.43 965.335 355.664 963.652 355.664C962.081 355.664 960.847 354.43 960.847 352.803C960.847 351.232 962.137 349.942 963.708 349.942C965.335 349.942 966.569 351.232 966.569 352.803ZM970.665 388.258H957.369V387.417C961.24 387.192 961.801 386.688 961.801 382.424V369.689C961.801 367.052 961.352 366.155 959.949 366.155C959.445 366.155 958.603 366.155 957.593 366.435V365.538L966.289 362.452L966.513 362.677V382.368C966.513 386.519 966.962 387.136 970.665 387.417V388.258ZM986.503 388.258H973.263V387.417C976.797 387.136 977.583 386.183 977.583 383.097V356.786C977.583 354.093 977.022 353.196 975.227 353.196C974.778 353.196 974.049 353.196 973.151 353.308V352.41C977.022 351.457 979.098 350.896 982.015 349.942L982.295 350.166V383.378C982.295 386.463 982.912 387.192 986.503 387.417V388.258ZM1013.14 363.013V363.855C1011.79 364.023 1011.12 364.64 1010.34 366.716L1001.92 389.661C999.004 397.627 996.367 400.488 992.104 400.488C989.691 400.488 988.177 399.086 988.177 397.234C988.177 395.832 989.242 394.654 990.589 394.654C991.599 394.654 992.496 394.822 993.506 395.383C994.123 395.72 994.628 395.776 994.965 395.776C995.75 395.776 996.872 394.654 997.77 393.307C998.892 391.68 1000.01 388.146 1000.01 387.249C1000.01 386.407 998.723 383.826 997.657 381.582L990.252 365.762C989.691 364.528 988.738 364.023 987.279 363.799V363.013H998.779V363.855C996.367 363.967 995.582 364.36 995.582 365.369C995.582 365.987 995.974 366.884 996.311 367.67L1002.59 381.695L1008.04 366.211C1008.2 365.818 1008.26 365.426 1008.26 365.201C1008.26 364.304 1007.42 363.855 1005.68 363.855V363.013H1013.14ZM1054.94 375.299C1054.94 383.097 1049.89 388.819 1042.31 388.819C1035.52 388.819 1030.2 383.265 1030.2 375.467C1030.2 367.67 1035.24 362.452 1042.82 362.452C1049.66 362.452 1054.94 367.557 1054.94 375.299ZM1049.89 376.814C1049.89 372.999 1048.88 369.128 1047.08 366.828C1045.74 365.145 1044.16 364.023 1041.75 364.023C1037.88 364.023 1035.24 367.333 1035.24 372.943C1035.24 377.375 1036.14 381.414 1038.22 384.444C1039.45 386.239 1041.25 387.249 1043.27 387.249C1047.42 387.249 1049.89 383.322 1049.89 376.814ZM1057.8 363.013H1062.4C1062.45 358.525 1062.9 356.506 1064.36 353.981C1065.82 351.457 1068.74 349.942 1072.27 349.942C1075.64 349.942 1078.1 351.401 1078.1 353.42C1078.1 354.71 1077.1 355.72 1075.75 355.72C1074.79 355.72 1074.12 355.215 1073.22 353.701C1072.21 352.074 1071.49 351.513 1070.25 351.513C1068.12 351.513 1067.11 353.196 1067.11 356.506V363.013H1073.95V364.808H1067.11V382.424C1067.11 386.631 1067.73 387.249 1072.33 387.417V388.258H1057.74V387.417C1061.78 387.192 1062.4 386.519 1062.4 382.424V364.808H1057.8V363.013ZM1098.08 371.372L1103.91 374.906C1107.5 377.094 1108.85 378.609 1108.85 381.807C1108.85 385.566 1105.26 388.819 1100.99 388.819C1099.82 388.819 1098.19 388.763 1096.9 388.314C1095.55 387.866 1094.94 387.81 1094.32 387.81C1093.64 387.81 1093.31 387.922 1092.97 388.483H1092.24V379.675H1093.14C1094.32 385.117 1096.39 387.585 1100.26 387.585C1103.13 387.585 1104.92 385.734 1104.92 383.434C1104.92 381.695 1103.8 380.236 1101.95 379.226L1098.92 377.543C1094.26 374.963 1092.19 372.27 1092.19 369.409C1092.19 364.977 1095.33 362.508 1099.93 362.508C1101.27 362.508 1102.51 362.564 1103.69 363.125C1104.3 363.406 1104.86 363.574 1105.26 363.574C1105.48 363.574 1105.71 363.518 1106.16 363.013H1106.77L1107.05 370.643H1106.21C1104.92 365.594 1103.24 363.743 1099.87 363.743C1097.46 363.743 1095.66 364.921 1095.66 367.557C1095.66 368.792 1096.51 370.418 1098.08 371.372ZM1138.06 385.453V386.239C1135.2 387.024 1133.18 387.641 1130.37 388.763L1130.09 388.595V383.995H1129.98C1127.23 387.753 1124.03 388.819 1121.96 388.819C1117.64 388.819 1115.11 385.958 1115.11 381.639V367.557C1115.11 364.752 1114.33 363.967 1111.63 363.799V363.013H1119.83V381.134C1119.83 383.714 1121.62 385.566 1123.81 385.566C1125.44 385.566 1127.12 385.061 1128.52 383.826C1129.42 383.041 1129.81 382.536 1129.81 380.573V367.613C1129.81 364.64 1129.03 364.191 1125.66 363.967V363.013H1134.52V382.256C1134.52 384.836 1135.14 385.453 1137.72 385.453H1138.06ZM1147.76 350.054V367.165C1148.94 364.304 1151.91 362.452 1155.34 362.452C1161.34 362.452 1165.43 367.838 1165.43 374.794C1165.43 383.097 1159.71 388.819 1152.31 388.819C1147.76 388.819 1143.05 387.024 1143.05 385.117V356.506C1143.05 353.701 1142.6 353.252 1140.3 353.252C1139.91 353.252 1139.63 353.308 1139.35 353.364V352.41L1141.03 351.905C1143.67 351.12 1145.13 350.783 1147.48 349.942L1147.76 350.054ZM1147.76 370.418V384.107C1147.76 385.902 1150.29 387.024 1153.2 387.024C1155.39 387.024 1157.19 386.183 1158.42 384.612C1159.77 382.929 1160.5 380.46 1160.5 377.207C1160.5 373.841 1159.71 370.587 1158.31 368.623C1157.13 366.94 1155.34 365.987 1153.32 365.987C1150.34 365.987 1147.76 368.062 1147.76 370.418ZM1175.98 371.372L1181.82 374.906C1185.41 377.094 1186.75 378.609 1186.75 381.807C1186.75 385.566 1183.16 388.819 1178.9 388.819C1177.72 388.819 1176.09 388.763 1174.8 388.314C1173.46 387.866 1172.84 387.81 1172.22 387.81C1171.55 387.81 1171.21 387.922 1170.88 388.483H1170.15V379.675H1171.04C1172.22 385.117 1174.3 387.585 1178.17 387.585C1181.03 387.585 1182.83 385.734 1182.83 383.434C1182.83 381.695 1181.7 380.236 1179.85 379.226L1176.82 377.543C1172.17 374.963 1170.09 372.27 1170.09 369.409C1170.09 364.977 1173.23 362.508 1177.83 362.508C1179.18 362.508 1180.41 362.564 1181.59 363.125C1182.21 363.406 1182.77 363.574 1183.16 363.574C1183.39 363.574 1183.61 363.518 1184.06 363.013H1184.68L1184.96 370.643H1184.12C1182.83 365.594 1181.14 363.743 1177.78 363.743C1175.36 363.743 1173.57 364.921 1173.57 367.557C1173.57 368.792 1174.41 370.418 1175.98 371.372ZM1211.92 379.058L1212.82 379.451C1210.63 385.566 1206.71 388.819 1201.1 388.819C1194.48 388.819 1190.44 383.826 1190.44 376.085C1190.44 368.174 1194.98 362.452 1202.05 362.452C1205.53 362.452 1208.05 363.799 1209.85 366.323C1210.97 367.894 1211.53 369.689 1211.75 372.719H1194.48C1194.76 376.982 1195.04 379.17 1197.06 381.863C1198.63 383.939 1200.7 384.948 1203.28 384.948C1207.04 384.948 1209.17 383.209 1211.92 379.058ZM1194.59 370.923H1206.03C1205.42 366.379 1204.24 364.472 1200.53 364.472C1197.39 364.472 1195.21 366.716 1194.59 370.923ZM1228.39 383.939L1229.12 384.556C1227.27 387.473 1225.14 388.819 1222.33 388.819C1219.08 388.819 1217.4 386.407 1217.4 381.695V364.808H1214.42C1214.25 364.696 1214.2 364.584 1214.2 364.416C1214.2 364.079 1214.53 363.743 1215.15 363.35C1216.61 362.508 1218.46 360.433 1220.59 357.347C1220.93 356.842 1221.38 356.337 1221.72 355.776C1222 355.776 1222.11 355.945 1222.11 356.506V363.013H1227.77V364.808H1222.11V380.853C1222.11 384.444 1222.95 385.902 1225.03 385.902C1226.26 385.902 1227.16 385.397 1228.39 383.939ZM1237.83 371.372L1243.67 374.906C1247.26 377.094 1248.61 378.609 1248.61 381.807C1248.61 385.566 1245.01 388.819 1240.75 388.819C1239.57 388.819 1237.95 388.763 1236.66 388.314C1235.31 387.866 1234.69 387.81 1234.08 387.81C1233.4 387.81 1233.07 387.922 1232.73 388.483H1232V379.675H1232.9C1234.08 385.117 1236.15 387.585 1240.02 387.585C1242.88 387.585 1244.68 385.734 1244.68 383.434C1244.68 381.695 1243.56 380.236 1241.7 379.226L1238.68 377.543C1234.02 374.963 1231.94 372.27 1231.94 369.409C1231.94 364.977 1235.08 362.508 1239.69 362.508C1241.03 362.508 1242.27 362.564 1243.44 363.125C1244.06 363.406 1244.62 363.574 1245.01 363.574C1245.24 363.574 1245.46 363.518 1245.91 363.013H1246.53L1246.81 370.643H1245.97C1244.68 365.594 1243 363.743 1239.63 363.743C1237.22 363.743 1235.42 364.921 1235.42 367.557C1235.42 368.792 1236.26 370.418 1237.83 371.372Z" fill="black"/>
</g>
<path id="A run &#207;&#129; is accepting &#226;&#135;&#148; Inf(&#207;&#129;) &#226;&#136;&#136; F" d="M583.981 478.358H569.675V477.292C571.695 477.292 572.087 477.18 572.761 476.787C573.209 476.563 573.546 475.946 573.546 475.441C573.546 474.599 573.153 473.085 572.48 471.514L570.18 466.24H555.482L552.901 472.636C552.621 473.365 552.396 474.319 552.396 474.992C552.396 476.731 553.631 477.292 556.323 477.292V478.358H545.159V477.292C548.413 476.955 548.918 475.777 552.228 467.923L563.785 440.547H564.907L578.707 472.131C580.278 475.777 581.063 476.955 583.981 477.292V478.358ZM569.395 463.94L562.887 448.513L556.436 463.94H569.395ZM607.805 452.664V457.825C610.61 453.786 612.181 452.552 614.537 452.552C616.445 452.552 617.623 453.674 617.623 455.525C617.623 457.096 616.781 458.05 615.435 458.05C614.705 458.05 614.088 457.769 613.191 456.928C612.574 456.367 612.069 456.086 611.732 456.086C610.161 456.086 607.805 458.891 607.805 460.686V473.309C607.805 476.507 608.759 477.348 612.574 477.516V478.358H599.11V477.516C602.7 476.843 603.093 476.451 603.093 473.646V459.621C603.093 457.152 602.588 456.255 601.185 456.255C600.512 456.255 600.007 456.311 599.222 456.479V455.581C602.532 454.515 604.551 453.73 607.525 452.552L607.805 452.664ZM645.809 475.553V476.338C642.947 477.124 640.928 477.741 638.123 478.863L637.842 478.695V474.094H637.73C634.981 477.853 631.784 478.919 629.708 478.919C625.388 478.919 622.864 476.058 622.864 471.738V457.657C622.864 454.852 622.078 454.067 619.385 453.898V453.113H627.576V471.233C627.576 473.814 629.371 475.665 631.559 475.665C633.186 475.665 634.869 475.16 636.272 473.926C637.169 473.141 637.562 472.636 637.562 470.672V457.713C637.562 454.74 636.776 454.291 633.41 454.067V453.113H642.274V472.355C642.274 474.936 642.891 475.553 645.472 475.553H645.809ZM674.139 478.358H662.47L662.526 477.516C665.331 477.292 666.005 476.17 666.005 472.467V461.304C666.005 457.32 664.658 455.637 661.909 455.637C660.058 455.637 658.712 456.311 656.131 458.835V474.319C656.131 476.507 656.916 477.292 659.777 477.516V478.358H647.94V477.516C650.801 477.292 651.419 476.394 651.419 473.085V459.452C651.419 456.703 651.026 455.806 649.455 455.806C648.838 455.806 648.221 455.862 647.828 456.03V455.076C650.914 454.179 652.765 453.562 655.514 452.552L655.963 452.72V457.096H656.019C658.936 453.786 661.517 452.552 664.097 452.552C668.361 452.552 670.717 455.637 670.717 461.191V473.589C670.717 476.619 671.39 477.236 674.139 477.516V478.358ZM692.989 485.763V469.831C692.989 456.367 697.982 452.552 703.535 452.552C710.099 452.552 715.148 457.545 715.148 464.501C715.148 472.636 710.267 478.919 703.592 478.919C701.235 478.919 699.721 478.526 697.701 476.675V485.707C697.701 487.727 697.196 489.746 696.803 490.532H692.091C692.652 489.354 692.989 487.671 692.989 485.763ZM697.701 463.043V473.421C697.701 475.104 700.899 477.124 703.535 477.124C707.575 477.124 710.324 472.636 710.324 466.465C710.324 458.611 707.014 454.123 702.862 454.123C699.552 454.123 697.701 457.657 697.701 463.043ZM740.959 442.903C740.959 444.53 739.725 445.764 738.042 445.764C736.471 445.764 735.237 444.53 735.237 442.903C735.237 441.332 736.528 440.042 738.098 440.042C739.725 440.042 740.959 441.332 740.959 442.903ZM745.055 478.358H731.759V477.516C735.63 477.292 736.191 476.787 736.191 472.524V459.789C736.191 457.152 735.742 456.255 734.34 456.255C733.835 456.255 732.993 456.255 731.983 456.535V455.637L740.679 452.552L740.903 452.776V472.467C740.903 476.619 741.352 477.236 745.055 477.516V478.358ZM755.227 461.472L761.061 465.006C764.652 467.194 765.998 468.709 765.998 471.906C765.998 475.665 762.408 478.919 758.144 478.919C756.966 478.919 755.339 478.863 754.049 478.414C752.702 477.965 752.085 477.909 751.468 477.909C750.795 477.909 750.458 478.021 750.122 478.582H749.392V469.775H750.29C751.468 475.216 753.544 477.685 757.415 477.685C760.276 477.685 762.071 475.833 762.071 473.533C762.071 471.794 760.949 470.336 759.098 469.326L756.068 467.643C751.412 465.062 749.336 462.369 749.336 459.508C749.336 455.076 752.478 452.608 757.078 452.608C758.425 452.608 759.659 452.664 760.837 453.225C761.454 453.506 762.015 453.674 762.408 453.674C762.632 453.674 762.856 453.618 763.305 453.113H763.922L764.203 460.743H763.361C762.071 455.694 760.388 453.842 757.022 453.842C754.61 453.842 752.815 455.02 752.815 457.657C752.815 458.891 753.656 460.518 755.227 461.472ZM807.101 474.655V476.226C805.418 478.358 803.959 478.919 802.052 478.919C799.976 478.919 798.742 477.797 798.461 474.824H798.405C795.432 478.19 792.683 478.919 790.271 478.919C786.793 478.919 784.38 476.787 784.38 473.085C784.38 470.167 786.119 467.979 788.307 466.521C789.99 465.399 792.066 464.333 798.405 461.977V458.947C798.405 455.469 796.554 453.898 794.03 453.898C791.786 453.898 790.103 455.133 790.103 456.647C790.103 457.657 790.439 457.825 790.439 459.003C790.439 460.069 789.317 461.304 787.859 461.304C786.68 461.304 785.446 460.238 785.446 458.723C785.446 457.264 786.344 455.469 788.307 454.235C789.878 453.225 792.234 452.552 794.759 452.552C797.9 452.552 800.032 453.45 801.379 455.076C802.725 456.703 802.949 457.881 802.949 461.304V472.019C802.949 474.599 803.679 475.721 804.689 475.721C805.586 475.721 806.147 475.441 807.101 474.655ZM798.405 471.233V463.323C794.927 464.557 792.627 465.735 791.225 467.026C789.878 468.26 789.317 469.606 789.317 471.345C789.317 474.319 791 475.665 793.188 475.665C794.31 475.665 795.488 475.385 796.442 474.768C798.069 473.646 798.405 472.86 798.405 471.233ZM829.56 469.606L830.345 470.111C828.55 473.589 827.428 475.216 825.745 476.563C823.838 478.134 821.706 478.919 819.293 478.919C813.066 478.919 808.634 473.702 808.634 466.465C808.634 461.808 810.317 457.938 813.347 455.413C815.591 453.562 818.284 452.552 820.92 452.552C825.633 452.552 829.56 455.189 829.56 458.33C829.56 459.621 828.382 460.686 826.923 460.686C825.689 460.686 824.679 459.733 824.23 458.106L823.894 456.872C823.333 454.796 822.603 454.179 820.584 454.179C816.04 454.179 812.954 458.106 812.954 463.94C812.954 470.392 816.488 474.88 821.65 474.88C824.847 474.88 826.867 473.533 829.56 469.606ZM854.487 469.606L855.272 470.111C853.477 473.589 852.355 475.216 850.672 476.563C848.765 478.134 846.633 478.919 844.221 478.919C837.994 478.919 833.562 473.702 833.562 466.465C833.562 461.808 835.245 457.938 838.274 455.413C840.518 453.562 843.211 452.552 845.848 452.552C850.56 452.552 854.487 455.189 854.487 458.33C854.487 459.621 853.309 460.686 851.85 460.686C850.616 460.686 849.606 459.733 849.157 458.106L848.821 456.872C848.26 454.796 847.531 454.179 845.511 454.179C840.967 454.179 837.881 458.106 837.881 463.94C837.881 470.392 841.416 474.88 846.577 474.88C849.775 474.88 851.794 473.533 854.487 469.606ZM879.975 469.158L880.873 469.55C878.685 475.665 874.758 478.919 869.148 478.919C862.528 478.919 858.489 473.926 858.489 466.184C858.489 458.274 863.033 452.552 870.102 452.552C873.58 452.552 876.104 453.898 877.9 456.423C879.022 457.994 879.583 459.789 879.807 462.818H862.528C862.809 467.082 863.089 469.27 865.109 471.963C866.68 474.038 868.755 475.048 871.336 475.048C875.095 475.048 877.226 473.309 879.975 469.158ZM862.64 461.023H874.085C873.468 456.479 872.29 454.572 868.587 454.572C865.445 454.572 863.257 456.816 862.64 461.023ZM890.934 452.664V456.984C893.402 453.898 895.87 452.552 899.012 452.552C904.454 452.552 908.381 457.545 908.381 464.501C908.381 472.636 903.276 478.919 896.6 478.919C894.243 478.919 892.953 478.358 890.934 476.507V485.314C890.934 488.849 891.663 489.466 895.87 489.522V490.532H882.294V489.578C885.604 489.241 886.221 488.624 886.221 485.707V459.452C886.221 456.816 885.828 456.255 883.921 456.255C883.416 456.255 883.023 456.255 882.519 456.311V455.413C885.604 454.459 887.624 453.73 890.597 452.552L890.934 452.664ZM890.934 459.621V473.421C890.934 475.104 894.131 477.124 896.768 477.124C900.807 477.124 903.556 472.916 903.556 466.745C903.556 460.182 900.807 455.918 896.656 455.918C894.075 455.918 890.934 457.938 890.934 459.621ZM924.932 474.038L925.661 474.655C923.81 477.573 921.678 478.919 918.873 478.919C915.619 478.919 913.936 476.507 913.936 471.794V454.908H910.963C910.794 454.796 910.738 454.684 910.738 454.515C910.738 454.179 911.075 453.842 911.692 453.45C913.151 452.608 915.002 450.532 917.134 447.447C917.47 446.942 917.919 446.437 918.256 445.876C918.536 445.876 918.648 446.044 918.648 446.605V453.113H924.314V454.908H918.648V470.953C918.648 474.543 919.49 476.002 921.566 476.002C922.8 476.002 923.697 475.497 924.932 474.038ZM935.721 442.903C935.721 444.53 934.486 445.764 932.803 445.764C931.233 445.764 929.998 444.53 929.998 442.903C929.998 441.332 931.289 440.042 932.86 440.042C934.486 440.042 935.721 441.332 935.721 442.903ZM939.816 478.358H926.52V477.516C930.391 477.292 930.952 476.787 930.952 472.524V459.789C930.952 457.152 930.503 456.255 929.101 456.255C928.596 456.255 927.754 456.255 926.745 456.535V455.637L935.44 452.552L935.665 452.776V472.467C935.665 476.619 936.113 477.236 939.816 477.516V478.358ZM968.445 478.358H956.776L956.832 477.516C959.637 477.292 960.31 476.17 960.31 472.467V461.304C960.31 457.32 958.964 455.637 956.215 455.637C954.364 455.637 953.017 456.311 950.437 458.835V474.319C950.437 476.507 951.222 477.292 954.083 477.516V478.358H942.246V477.516C945.107 477.292 945.724 476.394 945.724 473.085V459.452C945.724 456.703 945.332 455.806 943.761 455.806C943.144 455.806 942.527 455.862 942.134 456.03V455.076C945.22 454.179 947.071 453.562 949.82 452.552L950.269 452.72V457.096H950.325C953.242 453.786 955.822 452.552 958.403 452.552C962.667 452.552 965.023 455.637 965.023 461.191V473.589C965.023 476.619 965.696 477.236 968.445 477.516V478.358ZM995.653 456.591H990.997C991.783 458.386 992.063 459.677 992.063 461.304C992.063 464.221 991.165 466.296 989.146 467.811C987.351 469.158 985.275 469.999 983.311 469.999C982.975 469.999 982.189 469.943 981.18 469.831L980.114 469.719C978.599 470.167 976.748 472.131 976.748 473.253C976.748 474.15 978.094 474.599 981.124 474.768L988.36 475.104C992.512 475.272 995.149 477.629 995.149 481.107C995.149 483.351 994.083 485.202 991.783 486.997C988.865 489.241 984.602 490.588 980.563 490.588C975.177 490.588 970.857 488.119 970.857 485.146C970.857 483.07 972.316 481.219 976.355 478.302C973.999 477.18 973.382 476.563 973.382 475.329C973.382 474.207 974.111 473.085 975.962 471.458C976.804 470.728 977.589 469.999 978.375 469.214C974.616 467.362 973.157 465.231 973.157 461.696C973.157 456.591 977.309 452.552 982.526 452.552C983.985 452.552 985.499 452.832 987.014 453.393L988.248 453.842C989.37 454.235 990.212 454.403 991.334 454.403H995.653V456.591ZM977.814 459.396V459.564C977.814 464.95 980.114 468.597 983.592 468.597C986.116 468.597 987.743 466.633 987.743 463.548C987.743 461.247 987.126 458.723 986.06 456.759C985.163 455.076 983.704 454.123 981.965 454.123C979.384 454.123 977.814 456.086 977.814 459.396ZM993.578 481.948C993.578 479.873 991.726 479.199 986.621 479.199C983.872 479.199 979.441 478.863 977.533 478.47C975.289 481.163 974.784 482.004 974.784 483.295C974.784 485.763 977.982 487.39 982.919 487.39C989.314 487.39 993.578 485.202 993.578 481.948ZM1090.24 463.884V464.445C1087.71 466.128 1079.19 472.411 1072.62 478.919L1071.05 477.741C1072.23 476.451 1074.92 474.15 1074.92 472.524C1074.92 471.906 1074.87 471.626 1073.24 471.626H1057.7C1056.24 471.626 1055.74 471.738 1055.74 472.636C1055.74 473.982 1057.48 475.16 1059.66 477.629L1058.37 478.919C1051.59 472.524 1043.11 466.016 1040.53 464.445V463.884C1043.11 462.033 1051.47 455.694 1058.37 449.354L1059.66 450.645C1058.32 452.215 1055.62 454.515 1055.62 455.637C1055.62 456.479 1056.63 456.703 1057.53 456.703H1073.24C1074.36 456.703 1074.81 456.03 1074.81 455.525C1074.81 453.618 1072.34 452.159 1071.05 450.701L1072.62 449.354C1079.47 455.637 1087.66 462.145 1090.24 463.884ZM1050.07 467.923H1080.59C1082.44 466.857 1083.9 465.511 1083.9 464.165C1083.9 462.818 1082.44 461.64 1080.64 460.406H1050.13C1048.28 461.472 1046.87 462.818 1046.82 464.165C1046.82 465.455 1048.28 466.689 1050.07 467.923ZM1151.09 478.358H1134.43V477.292C1139.14 477.124 1139.87 476.451 1139.87 472.075V447.447C1139.87 443.015 1139.2 442.566 1134.43 442.286V441.22H1151.09V442.286C1146.38 442.51 1145.6 443.183 1145.6 447.447V472.075C1145.6 476.282 1146.49 477.124 1151.09 477.292V478.358ZM1179.31 478.358H1167.64L1167.7 477.516C1170.51 477.292 1171.18 476.17 1171.18 472.467V461.304C1171.18 457.32 1169.83 455.637 1167.08 455.637C1165.23 455.637 1163.89 456.311 1161.3 458.835V474.319C1161.3 476.507 1162.09 477.292 1164.95 477.516V478.358H1153.11V477.516C1155.98 477.292 1156.59 476.394 1156.59 473.085V459.452C1156.59 456.703 1156.2 455.806 1154.63 455.806C1154.01 455.806 1153.39 455.862 1153 456.03V455.076C1156.09 454.179 1157.94 453.562 1160.69 452.552L1161.14 452.72V457.096H1161.19C1164.11 453.786 1166.69 452.552 1169.27 452.552C1173.53 452.552 1175.89 455.637 1175.89 461.191V473.589C1175.89 476.619 1176.56 477.236 1179.31 477.516V478.358ZM1181.33 453.113H1185.93C1185.99 448.625 1186.44 446.605 1187.9 444.081C1189.35 441.556 1192.27 440.042 1195.81 440.042C1199.17 440.042 1201.64 441.5 1201.64 443.52C1201.64 444.81 1200.63 445.82 1199.28 445.82C1198.33 445.82 1197.66 445.315 1196.76 443.8C1195.75 442.173 1195.02 441.612 1193.79 441.612C1191.66 441.612 1190.65 443.295 1190.65 446.605V453.113H1197.49V454.908H1190.65V472.524C1190.65 476.731 1191.26 477.348 1195.86 477.516V478.358H1181.28V477.516C1185.32 477.292 1185.93 476.619 1185.93 472.524V454.908H1181.33V453.113ZM1215.89 487.39L1215.22 488.288C1206.35 483.239 1201.53 473.758 1201.53 464.221C1201.53 453.842 1206.41 445.764 1215.39 440.434L1215.89 441.332C1208.09 448.008 1206.35 453.225 1206.35 464.052C1206.35 474.487 1208.04 480.826 1215.89 487.39ZM1221.5 485.763V469.831C1221.5 456.367 1226.49 452.552 1232.05 452.552C1238.61 452.552 1243.66 457.545 1243.66 464.501C1243.66 472.636 1238.78 478.919 1232.1 478.919C1229.75 478.919 1228.23 478.526 1226.21 476.675V485.707C1226.21 487.727 1225.71 489.746 1225.32 490.532H1220.6C1221.16 489.354 1221.5 487.671 1221.5 485.763ZM1226.21 463.043V473.421C1226.21 475.104 1229.41 477.124 1232.05 477.124C1236.09 477.124 1238.84 472.636 1238.84 466.465C1238.84 458.611 1235.53 454.123 1231.37 454.123C1228.06 454.123 1226.21 457.657 1226.21 463.043ZM1246.98 441.332L1247.65 440.434C1256.23 445.596 1261.34 454.964 1261.34 464.501C1261.34 474.88 1256.4 482.846 1247.48 488.288L1246.98 487.39C1254.94 480.826 1256.51 475.553 1256.51 464.67C1256.51 454.179 1255.11 447.727 1246.98 441.332ZM1313.12 479.873H1296.79C1287.82 479.873 1281.42 472.524 1281.42 464.221C1281.42 455.918 1287.7 448.569 1296.62 448.569H1313.12V452.271H1296.85C1291.07 452.271 1286.25 457.04 1285.29 462.369H1313.12V466.072H1285.24C1286.19 471.402 1291.01 476.17 1296.79 476.17H1313.12V479.873ZM1361.77 444.912C1362.37 443.798 1363.11 442.729 1363.99 441.707C1364.88 440.666 1365.86 439.698 1366.92 438.803C1365.31 438.657 1363.7 438.447 1362.1 438.173C1360.51 437.881 1358.95 437.598 1357.41 437.324C1355.88 437.05 1354.38 436.812 1352.92 436.612C1351.46 436.411 1350.06 436.31 1348.73 436.31C1347.03 436.31 1345.6 436.484 1344.43 436.831C1343.28 437.178 1342.35 437.634 1341.63 438.2C1340.94 438.767 1340.44 439.406 1340.13 440.118C1339.82 440.812 1339.66 441.524 1339.66 442.254C1339.66 442.948 1339.79 443.615 1340.04 444.254C1340.3 444.875 1340.68 445.432 1341.17 445.925C1341.66 446.4 1342.27 446.783 1343 447.076C1343.73 447.368 1344.58 447.514 1345.55 447.514C1346.1 447.514 1346.68 447.468 1347.3 447.377C1347.92 447.286 1348.55 447.158 1349.17 446.993C1349.81 446.811 1350.43 446.601 1351.03 446.363C1351.63 446.126 1352.18 445.861 1352.67 445.569L1353.22 446.226C1352.62 446.573 1351.99 446.884 1351.33 447.158C1350.67 447.413 1350.01 447.642 1349.33 447.843C1348.67 448.025 1348.01 448.171 1347.33 448.281C1346.67 448.372 1346.04 448.418 1345.44 448.418C1344.35 448.418 1343.37 448.263 1342.51 447.952C1341.67 447.623 1340.95 447.185 1340.35 446.637C1339.76 446.071 1339.31 445.414 1339 444.665C1338.69 443.916 1338.54 443.113 1338.54 442.254C1338.54 441.104 1338.81 440.045 1339.36 439.077C1339.91 438.091 1340.71 437.242 1341.77 436.529C1342.85 435.817 1344.18 435.26 1345.77 434.858C1347.38 434.457 1349.22 434.256 1351.3 434.256C1352.86 434.256 1354.41 434.356 1355.96 434.557C1357.53 434.758 1359.11 434.986 1360.7 435.242C1362.29 435.479 1363.89 435.708 1365.52 435.927C1367.15 436.146 1368.81 436.283 1370.51 436.338C1371.97 435.516 1373.46 434.868 1375 434.393C1376.55 433.9 1378.1 433.653 1379.65 433.653C1380.44 433.653 1380.97 433.726 1381.24 433.872C1381.54 434.018 1381.68 434.292 1381.68 434.694C1381.68 435.297 1381.4 435.863 1380.83 436.392C1380.27 436.904 1379.48 437.351 1378.48 437.735C1377.47 438.118 1376.29 438.42 1374.94 438.639C1373.59 438.858 1372.12 438.967 1370.53 438.967C1370.28 438.967 1370.01 438.967 1369.74 438.967C1369.48 438.967 1369.23 438.958 1368.97 438.94C1368.46 439.451 1368.03 439.972 1367.68 440.501C1367.52 440.739 1367.36 441.013 1367.19 441.323C1367.04 441.615 1366.86 441.999 1366.64 442.474C1366.44 442.948 1366.2 443.533 1365.93 444.227C1365.66 444.902 1365.33 445.752 1364.94 446.774C1364.58 447.797 1364.13 449.011 1363.6 450.417C1363.09 451.805 1362.5 453.44 1361.82 455.321H1369.82V456.416H1361.44C1360.01 460.434 1358.49 463.895 1356.86 466.798C1355.24 469.702 1353.52 472.094 1351.71 473.975C1349.91 475.838 1348.03 477.217 1346.07 478.111C1344.12 478.988 1342.1 479.426 1340.02 479.426C1338.67 479.426 1337.41 479.253 1336.24 478.906C1335.09 478.559 1334.08 478.047 1333.22 477.372C1332.38 476.678 1331.72 475.829 1331.22 474.824C1330.73 473.82 1330.48 472.66 1330.48 471.345C1330.48 470.469 1330.59 469.629 1330.79 468.825C1331.01 468.022 1331.3 467.319 1331.66 466.716C1332.05 466.095 1332.48 465.602 1332.98 465.237C1333.49 464.853 1334.04 464.662 1334.62 464.662C1335 464.662 1335.33 464.762 1335.61 464.963C1335.88 465.146 1336.02 465.493 1336.02 466.004C1336.02 466.424 1335.91 466.762 1335.69 467.017C1335.49 467.255 1335.23 467.465 1334.92 467.647C1334.61 467.812 1334.27 467.985 1333.88 468.168C1333.52 468.332 1333.18 468.56 1332.87 468.853C1332.56 469.127 1332.29 469.492 1332.07 469.948C1331.87 470.405 1331.77 471.008 1331.77 471.756C1331.77 472.797 1331.96 473.729 1332.35 474.55C1332.73 475.372 1333.28 476.075 1333.99 476.66C1334.7 477.226 1335.57 477.664 1336.59 477.974C1337.63 478.285 1338.8 478.44 1340.1 478.44C1341.07 478.44 1341.98 478.34 1342.84 478.139C1343.7 477.938 1344.53 477.591 1345.33 477.098C1346.14 476.587 1346.92 475.911 1347.69 475.071C1348.45 474.212 1349.23 473.135 1350.02 471.838C1350.82 470.524 1351.64 468.962 1352.48 467.154C1353.34 465.346 1354.25 463.237 1355.22 460.827C1355.55 460.005 1355.85 459.229 1356.12 458.498C1356.42 457.768 1356.69 457.074 1356.95 456.416H1349.55V455.321H1357.36C1358.09 453.495 1358.68 451.997 1359.14 450.828C1359.61 449.66 1360.01 448.701 1360.32 447.952C1360.64 447.203 1360.91 446.61 1361.11 446.172C1361.33 445.715 1361.55 445.295 1361.77 444.912ZM1379.52 434.42C1378.37 434.42 1377.2 434.594 1376.01 434.941C1374.82 435.288 1373.68 435.753 1372.59 436.338C1373.63 436.319 1374.63 436.256 1375.6 436.146C1376.59 436.036 1377.45 435.909 1378.2 435.762C1378.97 435.616 1379.58 435.461 1380.04 435.297C1380.51 435.114 1380.75 434.932 1380.75 434.749C1380.75 434.53 1380.34 434.42 1379.52 434.42Z" fill="black"/>
<g id="Group_38">
<g id="Group 7">
<path id="F = {{ }, { }}" d="M1017.68 739.329C1018.25 738.281 1018.95 737.275 1019.77 736.313C1020.61 735.333 1021.53 734.422 1022.53 733.58C1021.02 733.442 1019.5 733.245 1017.99 732.987C1016.5 732.712 1015.03 732.446 1013.58 732.188C1012.14 731.93 1010.73 731.707 1009.36 731.518C1007.98 731.328 1006.67 731.234 1005.41 731.234C1003.81 731.234 1002.46 731.397 1001.36 731.724C1000.28 732.05 999.404 732.48 998.734 733.013C998.081 733.546 997.608 734.147 997.316 734.817C997.024 735.471 996.877 736.141 996.877 736.828C996.877 737.482 996.998 738.109 997.238 738.71C997.479 739.295 997.831 739.819 998.295 740.283C998.759 740.73 999.335 741.091 1000.02 741.366C1000.71 741.641 1001.51 741.778 1002.42 741.778C1002.94 741.778 1003.49 741.735 1004.07 741.65C1004.65 741.564 1005.24 741.443 1005.82 741.289C1006.43 741.117 1007.01 740.919 1007.58 740.696C1008.14 740.472 1008.66 740.223 1009.12 739.948L1009.64 740.567C1009.07 740.893 1008.48 741.185 1007.86 741.443C1007.24 741.684 1006.61 741.899 1005.98 742.088C1005.36 742.26 1004.73 742.397 1004.1 742.5C1003.48 742.586 1002.88 742.629 1002.32 742.629C1001.29 742.629 1000.37 742.483 999.559 742.191C998.768 741.882 998.089 741.469 997.522 740.953C996.972 740.421 996.551 739.802 996.259 739.097C995.966 738.392 995.82 737.636 995.82 736.828C995.82 735.746 996.078 734.749 996.594 733.838C997.109 732.91 997.866 732.11 998.863 731.44C999.877 730.77 1001.13 730.246 1002.63 729.868C1004.14 729.489 1005.88 729.3 1007.83 729.3C1009.3 729.3 1010.76 729.395 1012.22 729.584C1013.7 729.773 1015.18 729.988 1016.68 730.228C1018.17 730.452 1019.69 730.667 1021.21 730.873C1022.74 731.079 1024.31 731.208 1025.91 731.26C1027.28 730.486 1028.69 729.876 1030.14 729.429C1031.6 728.965 1033.06 728.733 1034.52 728.733C1035.26 728.733 1035.76 728.802 1036.01 728.939C1036.29 729.077 1036.43 729.335 1036.43 729.713C1036.43 730.28 1036.16 730.813 1035.63 731.311C1035.09 731.793 1034.35 732.214 1033.41 732.575C1032.46 732.935 1031.36 733.219 1030.08 733.425C1028.81 733.632 1027.43 733.735 1025.93 733.735C1025.69 733.735 1025.44 733.735 1025.19 733.735C1024.94 733.735 1024.7 733.726 1024.46 733.709C1023.98 734.19 1023.58 734.68 1023.25 735.178C1023.1 735.402 1022.94 735.66 1022.79 735.952C1022.65 736.227 1022.48 736.588 1022.27 737.035C1022.08 737.482 1021.86 738.032 1021.6 738.685C1021.34 739.321 1021.03 740.12 1020.67 741.082C1020.33 742.045 1019.91 743.188 1019.41 744.511C1018.93 745.817 1018.37 747.356 1017.73 749.126H1025.26V750.157H1017.37C1016.03 753.939 1014.6 757.196 1013.07 759.928C1011.54 762.661 1009.92 764.913 1008.22 766.683C1006.52 768.436 1004.75 769.734 1002.91 770.576C1001.07 771.401 999.172 771.814 997.213 771.814C995.941 771.814 994.755 771.65 993.655 771.324C992.572 770.997 991.627 770.516 990.819 769.88C990.028 769.227 989.401 768.428 988.937 767.482C988.473 766.537 988.241 765.446 988.241 764.208C988.241 763.383 988.335 762.592 988.524 761.836C988.731 761.08 989.006 760.418 989.349 759.851C989.71 759.267 990.123 758.803 990.587 758.459C991.068 758.098 991.584 757.917 992.134 757.917C992.495 757.917 992.804 758.012 993.062 758.201C993.32 758.373 993.449 758.7 993.449 759.181C993.449 759.576 993.345 759.894 993.139 760.135C992.95 760.358 992.709 760.556 992.417 760.728C992.125 760.882 991.799 761.046 991.438 761.217C991.094 761.372 990.776 761.587 990.484 761.862C990.191 762.12 989.942 762.464 989.736 762.893C989.547 763.323 989.452 763.89 989.452 764.595C989.452 765.575 989.633 766.451 989.994 767.225C990.355 767.998 990.87 768.66 991.541 769.21C992.211 769.742 993.027 770.155 993.99 770.447C994.97 770.739 996.07 770.885 997.29 770.885C998.201 770.885 999.06 770.791 999.868 770.602C1000.68 770.413 1001.46 770.086 1002.21 769.622C1002.97 769.141 1003.71 768.505 1004.43 767.714C1005.15 766.907 1005.88 765.892 1006.62 764.672C1007.38 763.435 1008.15 761.965 1008.94 760.264C1009.75 758.562 1010.61 756.577 1011.52 754.308C1011.83 753.535 1012.11 752.804 1012.37 752.117C1012.65 751.429 1012.9 750.776 1013.15 750.157H1006.18V749.126H1013.53C1014.22 747.407 1014.78 745.998 1015.21 744.898C1015.65 743.798 1016.02 742.896 1016.32 742.191C1016.63 741.486 1016.88 740.928 1017.06 740.515C1017.27 740.085 1017.48 739.69 1017.68 739.329ZM1034.39 729.455C1033.31 729.455 1032.21 729.618 1031.09 729.945C1029.97 730.271 1028.9 730.71 1027.87 731.26C1028.85 731.243 1029.79 731.182 1030.7 731.079C1031.63 730.976 1032.45 730.856 1033.15 730.718C1033.87 730.581 1034.45 730.435 1034.88 730.28C1035.33 730.108 1035.55 729.936 1035.55 729.764C1035.55 729.558 1035.16 729.455 1034.39 729.455ZM1077.25 753.912H1046.15V750.427H1077.25V753.912ZM1077.25 764.472H1046.15V760.987H1077.25V764.472ZM1111.44 779.784V780.365C1107.91 780.312 1106.53 779.995 1105.06 779.045C1103.58 778.095 1102.73 775.93 1102.73 772.973V763.627C1102.73 759.984 1101.78 758.717 1098.24 757.608C1101.78 756.552 1102.73 755.338 1102.73 751.642V742.243C1102.73 739.234 1103.52 737.175 1105.06 736.224C1106.59 735.274 1107.96 734.957 1111.44 734.904V735.485C1107.8 736.435 1106.64 738.019 1106.64 741.979V750.85C1106.64 755.232 1105.64 756.605 1101.68 757.661C1105.64 758.664 1106.64 760.037 1106.64 764.419V773.29C1106.64 777.25 1107.8 778.834 1111.44 779.784ZM1136.81 779.784V780.365C1133.28 780.312 1131.9 779.995 1130.42 779.045C1128.95 778.095 1128.1 775.93 1128.1 772.973V763.627C1128.1 759.984 1127.15 758.717 1123.61 757.608C1127.15 756.552 1128.1 755.338 1128.1 751.642V742.243C1128.1 739.234 1128.89 737.175 1130.42 736.224C1131.96 735.274 1133.33 734.957 1136.81 734.904V735.485C1133.17 736.435 1132.01 738.019 1132.01 741.979V750.85C1132.01 755.232 1131 756.605 1127.04 757.661C1131 758.664 1132.01 760.037 1132.01 764.419V773.29C1132.01 777.25 1133.17 778.834 1136.81 779.784ZM1185.68 742.296V751.642C1185.68 755.338 1186.63 756.552 1190.17 757.608C1186.63 758.717 1185.68 759.931 1185.68 763.627V773.026C1185.68 776.035 1184.89 778.095 1183.35 779.045C1181.82 779.995 1180.45 780.312 1176.97 780.365V779.784C1180.61 778.834 1181.77 777.25 1181.77 773.29V764.419C1181.77 760.037 1182.77 758.664 1186.73 757.608C1182.77 756.605 1181.77 755.285 1181.77 750.85V741.979C1181.77 738.019 1180.61 736.435 1176.97 735.485V734.904C1180.5 734.957 1181.88 735.274 1183.35 736.224C1184.83 737.175 1185.68 739.339 1185.68 742.296ZM1199.85 778.253L1199.32 777.25C1202.23 775.296 1203.71 773.343 1203.71 771.6C1203.71 771.231 1203.39 770.914 1202.97 770.914C1202.55 770.914 1202.02 771.125 1201.44 771.125C1199.48 771.125 1198.37 770.227 1198.37 768.432C1198.37 766.637 1199.64 765.423 1201.54 765.423C1203.92 765.423 1205.77 767.271 1205.77 770.016C1205.77 773.184 1203.5 776.511 1199.85 778.253ZM1240.35 779.784V780.365C1236.81 780.312 1235.44 779.995 1233.96 779.045C1232.48 778.095 1231.64 775.93 1231.64 772.973V763.627C1231.64 759.984 1230.69 758.717 1227.15 757.608C1230.69 756.552 1231.64 755.338 1231.64 751.642V742.243C1231.64 739.234 1232.43 737.175 1233.96 736.224C1235.49 735.274 1236.87 734.957 1240.35 734.904V735.485C1236.71 736.435 1235.55 738.019 1235.55 741.979V750.85C1235.55 755.232 1234.54 756.605 1230.58 757.661C1234.54 758.664 1235.55 760.037 1235.55 764.419V773.29C1235.55 777.25 1236.71 778.834 1240.35 779.784ZM1289.21 742.296V751.642C1289.21 755.338 1290.17 756.552 1293.7 757.608C1290.17 758.717 1289.21 759.931 1289.21 763.627V773.026C1289.21 776.035 1288.42 778.095 1286.89 779.045C1285.36 779.995 1283.99 780.312 1280.5 780.365V779.784C1284.15 778.834 1285.31 777.25 1285.31 773.29V764.419C1285.31 760.037 1286.31 758.664 1290.27 757.608C1286.31 756.605 1285.31 755.285 1285.31 750.85V741.979C1285.31 738.019 1284.15 736.435 1280.5 735.485V734.904C1284.04 734.957 1285.41 735.274 1286.89 736.224C1288.37 737.175 1289.21 739.339 1289.21 742.296ZM1314.58 742.296V751.642C1314.58 755.338 1315.53 756.552 1319.07 757.608C1315.53 758.717 1314.58 759.931 1314.58 763.627V773.026C1314.58 776.035 1313.79 778.095 1312.26 779.045C1310.73 779.995 1309.36 780.312 1305.87 780.365V779.784C1309.51 778.834 1310.68 777.25 1310.68 773.29V764.419C1310.68 760.037 1311.68 758.664 1315.64 757.608C1311.68 756.605 1310.68 755.285 1310.68 750.85V741.979C1310.68 738.019 1309.51 736.435 1305.87 735.485V734.904C1309.41 734.957 1310.78 735.274 1312.26 736.224C1313.74 737.175 1314.58 739.339 1314.58 742.296Z" fill="black"/>
<g id="&#206;&#178;">
<path d="M1266.05 754.903L1266.15 754.952C1269.92 755.823 1271.96 759.403 1271.96 763.177C1271.96 769.08 1267.75 774.692 1262.09 774.692C1260.01 774.692 1258.65 774.305 1256.91 772.709V780.789C1256.91 782.531 1256.42 784.03 1256.13 784.708H1252.07C1252.55 783.692 1252.84 782.192 1252.84 780.789V756.161C1252.84 744.452 1257.1 741.162 1262.33 741.162C1266.15 741.162 1270.07 744.356 1270.07 748.662C1270.07 749.678 1269.88 750.887 1269.34 752C1268.71 753.21 1267.7 754.274 1266.05 754.903ZM1256.91 750.742V769.902C1256.91 771.354 1259.38 773.144 1261.94 773.144C1265.52 773.144 1267.8 769.37 1267.8 764.435C1267.8 757.903 1265.18 755.774 1263.73 755.774C1262.71 755.774 1262.47 756.113 1261.51 756.113C1260.39 756.113 1259.62 755.629 1259.62 754.903C1259.62 754.371 1260.1 753.839 1261.65 753.839C1262.09 753.839 1263.44 754.226 1264.17 754.226C1265.57 754.226 1266.15 752.097 1266.15 750.355C1266.15 747.017 1265.23 742.517 1261.46 742.517C1258.46 742.517 1256.91 745.517 1256.91 750.017V750.742Z" fill="#00AA4D"/>
</g>
<g id="&#206;&#177;">
<path d="M1167.88 763.167H1168.6C1168.6 766.844 1167.2 769.892 1164.78 769.892C1162.8 769.892 1161.59 767.715 1160.91 764.57C1159.22 767.618 1157.23 769.892 1153.46 769.892C1148.23 769.892 1144.41 765.199 1144.41 758.619C1144.41 752.474 1147.99 747.152 1153.9 747.152C1158.1 747.152 1160.48 750.732 1161.35 754.216L1163.52 747.635H1168.22L1162.94 760.36C1163.43 762.586 1164.83 766.892 1166.28 766.892C1166.96 766.892 1167.54 765.925 1167.88 763.167ZM1159.02 759.344C1158.49 755.764 1157.23 748.506 1153.65 748.506C1151.23 748.506 1148.77 750.684 1148.77 756.199C1148.77 759.78 1149.59 768.537 1153.9 768.537C1157.23 768.537 1158.54 761.909 1159.02 759.344Z" fill="#2400C6"/>
</g>
</g>
<g id="Group 6">
<g id="Group 4">
<g id=":&#206;&#178;">
<path d="M591.045 631.098C590.163 631.098 589.54 630.916 589.174 630.55C588.83 630.184 588.658 629.722 588.658 629.163V628.582C588.658 628.023 588.83 627.561 589.174 627.195C589.54 626.83 590.163 626.647 591.045 626.647C591.927 626.647 592.539 626.83 592.884 627.195C593.249 627.561 593.432 628.023 593.432 628.582V629.163C593.432 629.722 593.249 630.184 592.884 630.55C592.539 630.916 591.927 631.098 591.045 631.098ZM591.045 618.325C590.163 618.325 589.54 618.142 589.174 617.777C588.83 617.411 588.658 616.949 588.658 616.39V615.809C588.658 615.25 588.83 614.788 589.174 614.422C589.54 614.056 590.163 613.874 591.045 613.874C591.927 613.874 592.539 614.056 592.884 614.422C593.249 614.788 593.432 615.25 593.432 615.809V616.39C593.432 616.949 593.249 617.411 592.884 617.777C592.539 618.142 591.927 618.325 591.045 618.325Z" fill="black"/>
<path d="M611.805 617.938L611.87 617.97C614.386 618.551 615.74 620.938 615.74 623.454C615.74 627.389 612.934 631.131 609.16 631.131C607.773 631.131 606.87 630.873 605.709 629.808V635.195C605.709 636.356 605.386 637.356 605.193 637.808H602.483C602.806 637.13 602.999 636.13 602.999 635.195V618.777C602.999 610.971 605.838 608.777 609.322 608.777C611.87 608.777 614.482 610.906 614.482 613.777C614.482 614.454 614.353 615.261 613.999 616.003C613.579 616.809 612.902 617.519 611.805 617.938ZM605.709 615.164V627.937C605.709 628.905 607.354 630.098 609.063 630.098C611.45 630.098 612.966 627.583 612.966 624.292C612.966 619.938 611.225 618.519 610.257 618.519C609.58 618.519 609.418 618.744 608.773 618.744C608.031 618.744 607.515 618.422 607.515 617.938C607.515 617.583 607.838 617.228 608.87 617.228C609.16 617.228 610.063 617.486 610.547 617.486C611.483 617.486 611.87 616.067 611.87 614.906C611.87 612.68 611.257 609.68 608.741 609.68C606.741 609.68 605.709 611.68 605.709 614.68V615.164Z" fill="#00AA4D"/>
</g>
<g id=":&#206;&#177;">
<path d="M840.133 634.682C839.251 634.682 838.628 634.5 838.262 634.134C837.918 633.768 837.746 633.306 837.746 632.747V632.166C837.746 631.607 837.918 631.145 838.262 630.779C838.628 630.414 839.251 630.231 840.133 630.231C841.015 630.231 841.627 630.414 841.971 630.779C842.337 631.145 842.52 631.607 842.52 632.166V632.747C842.52 633.306 842.337 633.768 841.971 634.134C841.627 634.5 841.015 634.682 840.133 634.682ZM840.133 621.909C839.251 621.909 838.628 621.726 838.262 621.361C837.918 620.995 837.746 620.533 837.746 619.974V619.393C837.746 618.834 837.918 618.372 838.262 618.006C838.628 617.64 839.251 617.458 840.133 617.458C841.015 617.458 841.627 617.64 841.971 618.006C842.337 618.372 842.52 618.834 842.52 619.393V619.974C842.52 620.533 842.337 620.995 841.971 621.361C841.627 621.726 841.015 621.909 840.133 621.909Z" fill="black"/>
<path d="M866.377 630.231H866.86C866.86 632.683 865.925 634.715 864.312 634.715C862.99 634.715 862.183 633.263 861.732 631.166C860.603 633.199 859.28 634.715 856.764 634.715C853.281 634.715 850.732 631.586 850.732 627.199C850.732 623.102 853.119 619.554 857.055 619.554C859.861 619.554 861.441 621.941 862.022 624.264L863.474 619.877H866.602L863.087 628.36C863.409 629.844 864.344 632.715 865.312 632.715C865.764 632.715 866.151 632.07 866.377 630.231ZM860.474 627.683C860.119 625.296 859.28 620.458 856.893 620.458C855.281 620.458 853.636 621.909 853.636 625.586C853.636 627.973 854.184 633.811 857.055 633.811C859.28 633.811 860.151 629.392 860.474 627.683Z" fill="#2400C6"/>
</g>
<g id=":&#206;&#179;">
<path d="M720.068 688.443C719.187 688.443 718.563 688.26 718.198 687.894C717.853 687.529 717.681 687.066 717.681 686.507V685.927C717.681 685.368 717.853 684.905 718.198 684.54C718.563 684.174 719.187 683.991 720.068 683.991C720.95 683.991 721.563 684.174 721.907 684.54C722.273 684.905 722.455 685.368 722.455 685.927V686.507C722.455 687.066 722.273 687.529 721.907 687.894C721.563 688.26 720.95 688.443 720.068 688.443ZM720.068 675.669C719.187 675.669 718.563 675.486 718.198 675.121C717.853 674.755 717.681 674.293 717.681 673.734V673.153C717.681 672.594 717.853 672.132 718.198 671.766C718.563 671.401 719.187 671.218 720.068 671.218C720.95 671.218 721.563 671.401 721.907 671.766C722.273 672.132 722.455 672.594 722.455 673.153V673.734C722.455 674.293 722.273 674.755 721.907 675.121C721.563 675.486 720.95 675.669 720.068 675.669Z" fill="black"/>
<path d="M744.054 673.637L738.055 688.152C738.248 689.023 738.506 690.539 738.506 691.959C738.506 693.668 738.151 695.184 736.539 695.184C735.474 695.184 734.958 694.216 734.958 692.991C734.958 692.217 735.152 691.055 735.539 689.83C735.829 688.862 736.248 687.927 736.603 686.991C736.345 684.604 735.474 675.669 732.41 675.669C731.732 675.669 730.765 676.572 730.539 678.508H730.055C730.055 675.895 730.894 673.411 732.861 673.411C736.603 673.411 736.958 682.249 737.474 685.024L740.829 673.637H744.054Z" fill="#D02525"/>
</g>
<g id=":&#206;&#179;_2">
<path d="M713.797 811.195C712.915 811.195 712.292 811.012 711.926 810.646C711.582 810.281 711.41 809.818 711.41 809.259V808.679C711.41 808.12 711.582 807.657 711.926 807.292C712.292 806.926 712.915 806.743 713.797 806.743C714.679 806.743 715.291 806.926 715.636 807.292C716.001 807.657 716.184 808.12 716.184 808.679V809.259C716.184 809.818 716.001 810.281 715.636 810.646C715.291 811.012 714.679 811.195 713.797 811.195ZM713.797 798.421C712.915 798.421 712.292 798.238 711.926 797.873C711.582 797.507 711.41 797.045 711.41 796.486V795.905C711.41 795.346 711.582 794.884 711.926 794.518C712.292 794.153 712.915 793.97 713.797 793.97C714.679 793.97 715.291 794.153 715.636 794.518C716.001 794.884 716.184 795.346 716.184 795.905V796.486C716.184 797.045 716.001 797.507 715.636 797.873C715.291 798.238 714.679 798.421 713.797 798.421Z" fill="black"/>
<path d="M737.783 796.389L731.783 810.904C731.977 811.775 732.235 813.291 732.235 814.711C732.235 816.42 731.88 817.936 730.267 817.936C729.203 817.936 728.687 816.968 728.687 815.743C728.687 814.969 728.88 813.807 729.267 812.582C729.557 811.614 729.977 810.679 730.332 809.743C730.074 807.356 729.203 798.421 726.138 798.421C725.461 798.421 724.493 799.324 724.268 801.26H723.784C723.784 798.647 724.622 796.163 726.59 796.163C730.332 796.163 730.686 805.001 731.203 807.775L734.557 796.389H737.783Z" fill="#D02525"/>
</g>
</g>
<g id="Group 5">
<path id="Ellipse 5" d="M890.937 761.673C890.937 790.621 867.469 814.088 838.521 814.088C809.572 814.088 786.105 790.621 786.105 761.673C786.105 732.724 809.572 709.257 838.521 709.257C867.469 709.257 890.937 732.724 890.937 761.673Z" fill="white" fill-opacity="0.46" stroke="black" stroke-width="2.688"/>
<path id="Ellipse 6" d="M643.641 761.673C643.641 790.621 620.173 814.088 591.225 814.088C562.276 814.088 538.809 790.621 538.809 761.673C538.809 732.724 562.276 709.257 591.225 709.257C620.173 709.257 643.641 732.724 643.641 761.673Z" fill="white" fill-opacity="0.46" stroke="black" stroke-width="2.688"/>
<g id="Vector 1" filter="url(#filter0_d_6_67)">
<path d="M784.168 730.715C784.638 731.29 785.485 731.374 786.059 730.904C786.634 730.434 786.719 729.588 786.249 729.013L784.168 730.715ZM643.192 729.864L658.191 725.879L647.241 714.882L643.192 729.864ZM786.249 729.013C773 712.82 747.835 703.724 721.845 702.075C695.834 700.426 668.553 706.205 650.927 720.277L652.604 722.378C669.528 708.866 696.058 703.133 721.675 704.758C747.314 706.384 771.595 715.348 784.168 730.715L786.249 729.013Z" fill="black"/>
</g>
<g id="Vector 7" filter="url(#filter1_d_6_67)">
<path d="M644.233 797.557C643.763 796.983 642.916 796.898 642.342 797.368C641.767 797.838 641.683 798.685 642.153 799.259L644.233 797.557ZM785.209 798.408L770.21 802.393L781.16 813.39L785.209 798.408ZM642.153 799.259C655.402 815.452 680.567 824.549 706.556 826.197C732.567 827.847 759.848 822.068 777.474 807.995L775.797 805.895C758.873 819.407 732.344 825.139 706.726 823.515C681.087 821.889 656.806 812.925 644.233 797.557L642.153 799.259Z" fill="black"/>
</g>
<path id="Arrow 8" d="M530.351 762.623C530.876 762.098 530.876 761.247 530.351 760.722L521.798 752.169C521.273 751.644 520.422 751.644 519.897 752.169C519.372 752.694 519.372 753.545 519.897 754.07L527.5 761.672L519.897 769.275C519.372 769.8 519.372 770.651 519.897 771.176C520.422 771.701 521.273 771.701 521.798 771.176L530.351 762.623ZM482.809 763.016L529.401 763.016L529.401 760.328L482.809 760.328L482.809 763.016Z" fill="black"/>
<path id="Vector 4" d="M568.831 704.703C569.285 705.29 570.129 705.398 570.716 704.943C571.303 704.489 571.411 703.645 570.957 703.058L568.831 704.703ZM587.813 643.4L587.813 644.744L587.813 643.4ZM610.662 707.912L623.276 698.873L609.14 692.468L610.662 707.912ZM570.957 703.058C561.984 691.459 558.536 676.742 561.179 665.032C562.497 659.196 565.317 654.143 569.676 650.548C574.029 646.96 580.014 644.744 587.813 644.744L587.813 642.056C579.484 642.056 572.868 644.433 567.966 648.474C563.072 652.51 559.983 658.125 558.557 664.44C555.714 677.035 559.436 692.558 568.831 704.703L570.957 703.058ZM587.813 644.744C595.4 644.744 601.124 646.767 605.389 650.019C609.665 653.278 612.575 657.847 614.392 663.097C618.041 673.637 617.206 686.714 614.364 696.517L616.946 697.266C619.893 687.099 620.814 673.429 616.932 662.217C614.984 656.59 611.807 651.531 607.019 647.881C602.22 644.223 595.902 642.056 587.813 642.056L587.813 644.744Z" fill="black"/>
<path id="Vector 6" d="M818.814 704.703C819.268 705.29 820.112 705.398 820.7 704.943C821.287 704.489 821.394 703.645 820.94 703.058L818.814 704.703ZM837.797 643.4L837.797 644.744L837.797 643.4ZM860.645 707.912L873.26 698.873L859.124 692.468L860.645 707.912ZM820.94 703.058C811.967 691.459 808.519 676.742 811.163 665.032C812.481 659.196 815.3 654.143 819.66 650.548C824.012 646.96 829.997 644.744 837.797 644.744L837.797 642.056C829.467 642.056 822.851 644.433 817.95 648.474C813.055 652.51 809.967 658.125 808.541 664.44C805.697 677.035 809.419 692.558 818.814 704.703L820.94 703.058ZM837.797 644.744C845.384 644.744 851.107 646.767 855.373 650.019C859.649 653.278 862.558 657.847 864.375 663.097C868.025 673.637 867.19 686.714 864.347 696.517L866.929 697.266C869.877 687.099 870.797 673.429 866.916 662.217C864.968 656.59 861.791 651.531 857.002 647.881C852.204 644.223 845.886 642.056 837.797 642.056L837.797 644.744Z" fill="black"/>
<path id="a" d="M700.376 809.904C699.365 809.904 698.645 809.646 698.215 809.13C697.785 808.614 697.516 807.969 697.408 807.195H697.247C696.881 808.162 696.29 808.926 695.473 809.485C694.677 810.023 693.602 810.291 692.247 810.291C690.506 810.291 689.119 809.84 688.086 808.937C687.054 808.033 686.538 806.797 686.538 805.227C686.538 803.679 687.097 802.485 688.215 801.647C689.355 800.808 691.183 800.389 693.699 800.389H697.247V798.744C697.247 797.518 696.903 796.604 696.215 796.002C695.527 795.378 694.548 795.067 693.28 795.067C692.161 795.067 691.247 795.292 690.538 795.744C689.828 796.174 689.258 796.765 688.828 797.518L687.086 796.228C687.301 795.798 687.592 795.378 687.957 794.97C688.323 794.561 688.774 794.206 689.312 793.905C689.85 793.583 690.463 793.335 691.151 793.163C691.839 792.97 692.602 792.873 693.441 792.873C695.398 792.873 696.946 793.368 698.086 794.357C699.247 795.346 699.828 796.722 699.828 798.486V807.646H702.15V809.904H700.376ZM692.699 808.13C693.366 808.13 693.968 808.055 694.505 807.904C695.064 807.732 695.548 807.517 695.957 807.259C696.365 806.98 696.677 806.657 696.892 806.292C697.129 805.905 697.247 805.496 697.247 805.066V802.324H693.699C692.151 802.324 691.022 802.539 690.312 802.969C689.602 803.399 689.248 804.023 689.248 804.84V805.517C689.248 806.378 689.549 807.034 690.151 807.485C690.774 807.915 691.624 808.13 692.699 808.13Z" fill="black"/>
<path id="b" d="M693.745 666.867H696.325V676.802H696.454C697.53 674.737 699.239 673.705 701.583 673.705C703.626 673.705 705.217 674.469 706.357 675.995C707.518 677.522 708.099 679.662 708.099 682.414C708.099 685.167 707.518 687.306 706.357 688.833C705.217 690.36 703.626 691.123 701.583 691.123C699.239 691.123 697.53 690.091 696.454 688.027H696.325V690.736H693.745V666.867ZM700.583 688.833C702.089 688.833 703.25 688.382 704.067 687.478C704.906 686.554 705.325 685.339 705.325 683.834V680.995C705.325 679.49 704.906 678.286 704.067 677.382C703.25 676.458 702.089 675.995 700.583 675.995C700.003 675.995 699.454 676.071 698.938 676.221C698.422 676.372 697.971 676.597 697.583 676.899C697.196 677.178 696.885 677.533 696.648 677.963C696.433 678.372 696.325 678.855 696.325 679.414V685.414C696.325 685.973 696.433 686.468 696.648 686.898C696.885 687.306 697.196 687.661 697.583 687.962C697.971 688.242 698.422 688.457 698.938 688.607C699.454 688.758 700.003 688.833 700.583 688.833Z" fill="black"/>
<path id="b_2" d="M562.929 609.523H565.509V619.458H565.638C566.713 617.394 568.423 616.361 570.767 616.361C572.81 616.361 574.401 617.125 575.541 618.652C576.702 620.178 577.282 622.318 577.282 625.071C577.282 627.823 576.702 629.963 575.541 631.489C574.401 633.016 572.81 633.78 570.767 633.78C568.423 633.78 566.713 632.747 565.638 630.683H565.509V633.393H562.929V609.523ZM569.767 631.489C571.272 631.489 572.433 631.038 573.25 630.135C574.089 629.21 574.508 627.995 574.508 626.49V623.651C574.508 622.146 574.089 620.942 573.25 620.039C572.433 619.114 571.272 618.652 569.767 618.652C569.186 618.652 568.638 618.727 568.122 618.877C567.606 619.028 567.154 619.254 566.767 619.555C566.38 619.834 566.068 620.189 565.832 620.619C565.617 621.028 565.509 621.512 565.509 622.071V628.07C565.509 628.629 565.617 629.124 565.832 629.554C566.068 629.963 566.38 630.318 566.767 630.619C567.154 630.898 567.606 631.113 568.122 631.264C568.638 631.414 569.186 631.489 569.767 631.489Z" fill="black"/>
<path id="a_2" d="M824.919 633.393C823.908 633.393 823.188 633.135 822.758 632.618C822.328 632.102 822.059 631.457 821.951 630.683H821.79C821.424 631.651 820.833 632.414 820.016 632.973C819.22 633.511 818.145 633.78 816.79 633.78C815.049 633.78 813.662 633.328 812.629 632.425C811.597 631.522 811.081 630.285 811.081 628.715C811.081 627.167 811.64 625.974 812.758 625.135C813.898 624.296 815.726 623.877 818.242 623.877H821.79V622.232C821.79 621.006 821.446 620.092 820.758 619.49C820.07 618.867 819.091 618.555 817.823 618.555C816.704 618.555 815.79 618.781 815.081 619.232C814.371 619.662 813.801 620.254 813.371 621.006L811.629 619.716C811.844 619.286 812.135 618.867 812.5 618.458C812.866 618.049 813.317 617.695 813.855 617.394C814.393 617.071 815.006 616.824 815.694 616.652C816.382 616.458 817.145 616.361 817.984 616.361C819.941 616.361 821.489 616.856 822.629 617.845C823.79 618.834 824.371 620.211 824.371 621.974V631.135H826.693V633.393H824.919ZM817.242 631.618C817.909 631.618 818.511 631.543 819.048 631.393C819.607 631.221 820.091 631.006 820.5 630.748C820.908 630.468 821.22 630.145 821.435 629.78C821.672 629.393 821.79 628.984 821.79 628.554V625.812H818.242C816.694 625.812 815.565 626.027 814.855 626.458C814.145 626.888 813.791 627.511 813.791 628.328V629.006C813.791 629.866 814.092 630.522 814.694 630.973C815.317 631.403 816.167 631.618 817.242 631.618Z" fill="black"/>
</g>
</g>
</g>
<g id="_mathcal_L___mathcal_A______Sigma___a______Sigma___b__omega" clip-path="url(#clip0_6_67)">
<g id="page1">
<path id="Vector" d="M693.249 950.027C696.308 945.268 697.271 941.643 698.008 938.64C699.99 930.823 702.143 924.025 705.655 920.116C706.335 919.38 706.788 918.87 708.601 918.87C712.51 918.87 712.623 922.779 712.623 923.572C712.623 924.592 712.34 925.385 712.34 925.668C712.34 926.064 712.68 926.064 712.736 926.064C713.643 926.064 715.172 925.441 716.588 924.422C717.608 923.629 718.118 923.062 718.118 920.74C718.118 917.68 716.532 915.358 713.359 915.358C711.547 915.358 706.562 915.811 701.01 921.419C696.478 926.064 693.816 936.261 692.739 940.51C691.72 944.419 691.267 946.175 689.567 949.574C689.171 950.253 687.698 952.746 686.905 953.482C685.375 954.898 684.809 955.918 684.809 956.201C684.809 956.315 684.922 956.541 685.318 956.541C685.545 956.541 686.735 956.315 688.207 955.352C689.171 954.785 689.284 954.672 690.587 953.312C693.419 953.369 695.402 953.879 698.971 954.898C701.86 955.692 704.749 956.541 707.638 956.541C712.226 956.541 716.872 953.086 718.684 950.593C719.817 949.064 720.157 947.647 720.157 947.478C720.157 947.081 719.817 947.081 719.761 947.081C718.854 947.081 717.495 947.704 716.532 948.384C715.002 949.347 714.889 949.687 714.549 950.65C714.266 951.556 713.926 952.009 713.699 952.349C713.246 953.029 713.189 953.029 712.34 953.029C709.621 953.029 706.788 952.179 703.049 951.16C701.463 950.707 698.348 949.8 695.515 949.8C694.779 949.8 693.986 949.857 693.249 950.027Z" fill="black"/>
<path id="Vector_2" d="M740.535 969.06C740.535 968.891 740.535 968.777 739.572 967.814C733.907 962.093 730.735 952.746 730.735 941.189C730.735 930.2 733.397 920.739 739.968 914.055C740.535 913.545 740.535 913.432 740.535 913.262C740.535 912.922 740.252 912.809 740.025 912.809C739.289 912.809 734.644 916.887 731.868 922.439C728.979 928.16 727.676 934.222 727.676 941.189C727.676 946.231 728.469 952.972 731.415 959.034C734.757 965.831 739.402 969.514 740.025 969.514C740.252 969.514 740.535 969.4 740.535 969.06Z" fill="black"/>
<path id="Vector_3" d="M777.401 945.948C777.684 949.517 778.364 952.123 778.647 953.199C779.27 955.748 779.554 956.995 781.989 956.995C784.539 956.995 788.901 954.445 788.901 953.312C788.901 953.029 788.674 952.916 788.391 952.916C787.654 952.916 786.465 953.539 786.295 953.652C785.898 953.879 785.785 953.879 785.672 953.879C784.085 953.879 783.746 952.349 783.066 948.951C782.669 947.081 782.159 944.815 781.706 937.054C781.31 931.276 781.083 925.498 781.083 919.72C781.083 918.36 781.14 916.888 781.14 915.528C781.14 914.622 781.14 914.395 780.517 914.395C779.724 914.395 777.401 915.358 776.381 916.888L775.985 917.511C771.509 927.084 767.317 933.939 764.372 938.527C761.03 943.682 755.138 952.916 752.079 952.916C749.983 952.916 748.227 951.556 747.717 949.517C747.66 949.404 747.547 949.064 747.321 949.064C746.471 949.064 745.225 951.783 745.225 953.369C745.225 955.635 747.66 958.128 750.323 958.128C754.232 958.128 760.746 947.931 761.993 945.948H777.401ZM776.268 921.363V924.648C776.268 927.934 776.381 931.22 776.551 934.505C776.608 935.638 776.834 939.887 777.118 942.833H766.751C765.845 942.833 764.995 942.833 763.522 943.739C767.487 937.621 770.773 931.729 771.113 931.106C773.945 926.065 775.475 922.779 776.211 921.363H776.268Z" fill="black"/>
<path id="Vector_4" d="M804.902 941.189C804.902 936.884 804.336 929.86 801.163 923.289C797.821 916.491 793.176 912.809 792.553 912.809C792.326 912.809 792.043 912.922 792.043 913.262C792.043 913.432 792.043 913.545 793.006 914.508C798.671 920.23 801.843 929.577 801.843 941.133C801.843 952.123 799.181 961.583 792.609 968.267C792.043 968.777 792.043 968.891 792.043 969.06C792.043 969.4 792.326 969.514 792.553 969.514C793.289 969.514 797.934 965.435 800.71 959.883C803.599 954.105 804.902 947.987 804.902 941.189Z" fill="black"/>
<path id="Vector_5" d="M864.472 936.941C865.265 936.941 866.284 936.941 866.284 935.922C866.284 934.845 865.321 934.845 864.472 934.845H831.106C830.313 934.845 829.293 934.845 829.293 935.865C829.293 936.941 830.256 936.941 831.106 936.941H864.472ZM864.472 947.478C865.265 947.478 866.284 947.478 866.284 946.458C866.284 945.382 865.321 945.382 864.472 945.382H831.106C830.313 945.382 829.293 945.382 829.293 946.401C829.293 947.478 830.256 947.478 831.106 947.478H864.472Z" fill="black"/>
<path id="Vector_6" d="M905.164 936.885C905.618 936.319 905.731 936.205 905.731 935.922C905.731 935.809 905.731 935.695 905.391 935.242L893.948 918.248H907.317C916.834 918.248 919.723 920.287 920.799 929.238H922.046L920.573 916.605H889.586C888.227 916.605 888.17 916.605 888.17 917.908L901.935 938.301L888.793 953.823C888.34 954.333 888.227 954.503 888.227 954.729C888.227 955.296 888.68 955.296 889.586 955.296H920.573L922.046 942.097H920.799C919.78 951.444 916.211 953.087 907.147 953.087H891.456L905.164 936.885Z" fill="black"/>
<path id="Vector_7" d="M940.768 926.92C941.108 927.147 941.221 927.147 941.41 927.147C942.014 927.147 942.543 926.656 942.543 925.976C942.543 925.258 942.165 925.107 941.599 924.843C939.069 923.672 938.162 923.257 936.312 922.502L940.73 920.5C941.032 920.387 941.75 920.047 942.052 919.934C942.43 919.707 942.543 919.329 942.543 918.989C942.543 918.536 942.316 917.819 941.183 917.819L935.745 921.52L936.274 915.93C936.349 915.288 936.274 914.344 935.179 914.344C934.499 914.344 933.97 914.911 934.084 915.439V915.893L934.612 921.52L929.589 918.045C929.25 917.819 929.136 917.819 928.947 917.819C928.343 917.819 927.814 918.31 927.814 918.989C927.814 919.707 928.192 919.858 928.759 920.122C931.289 921.293 932.195 921.709 934.046 922.464L929.627 924.465C929.325 924.579 928.608 924.919 928.305 925.032C927.928 925.258 927.814 925.636 927.814 925.976C927.814 926.656 928.343 927.147 928.947 927.147C929.25 927.147 929.325 927.147 930.269 926.467L934.612 923.446L934.046 929.526C934.046 930.281 934.688 930.621 935.179 930.621C935.67 930.621 936.312 930.281 936.312 929.526C936.312 929.148 936.161 927.94 936.123 927.487C935.972 926.203 935.859 924.768 935.745 923.446L940.768 926.92Z" fill="black"/>
<path id="Vector_8" d="M964.646 948.554C964.362 949.517 964.362 949.63 963.569 950.706C962.323 952.293 959.83 954.728 957.168 954.728C954.845 954.728 953.543 952.632 953.543 949.29C953.543 946.175 955.299 939.83 956.375 937.451C958.301 933.485 960.963 931.446 963.173 931.446C966.912 931.446 967.648 936.091 967.648 936.544C967.648 936.601 967.478 937.337 967.421 937.451L964.646 948.554ZM968.271 934.052C967.648 932.579 966.118 930.313 963.173 930.313C956.771 930.313 949.86 938.584 949.86 946.968C949.86 952.576 953.146 955.861 956.998 955.861C960.114 955.861 962.776 953.426 964.362 951.556C964.929 954.898 967.591 955.861 969.291 955.861C970.99 955.861 972.35 954.842 973.369 952.802C974.276 950.876 975.069 947.421 975.069 947.194C975.069 946.911 974.842 946.684 974.502 946.684C973.993 946.684 973.936 946.968 973.709 947.817C972.86 951.16 971.783 954.728 969.461 954.728C967.818 954.728 967.705 953.256 967.705 952.123C967.705 950.82 967.875 950.197 968.384 947.987C968.781 946.571 969.064 945.325 969.517 943.682C971.613 935.185 972.123 933.145 972.123 932.806C972.123 932.012 971.5 931.389 970.65 931.389C968.838 931.389 968.384 933.372 968.271 934.052Z" fill="black"/>
<path id="Vector_9" d="M1000.92 918.084C1000.92 916.913 1000.58 915.213 999.107 915.213C998.087 915.213 997.106 916.158 997.106 917.215C997.106 917.781 997.521 918.121 997.936 918.499C998.503 919.065 999.069 920.047 999.069 921.445C999.069 923.975 996.464 929.338 992.687 929.338C990.723 929.338 989.364 928.167 988.91 926.354C989.515 925.07 990.308 922.993 990.308 921.936C990.308 921.294 990.006 920.803 989.288 920.803C987.589 920.803 987.362 924.995 987.362 926.203C986.04 927.789 984.492 929.338 982.301 929.338C979.884 929.338 978.751 927.412 978.751 925.183C978.751 923.409 979.242 921.822 979.998 920.35C981.093 918.159 982.566 916.724 982.566 916.12C982.566 915.704 982.226 915.402 981.811 915.402C981.093 915.402 980.526 916.497 980.111 917.177C978.487 919.859 977.316 923.371 977.316 926.505C977.316 929.413 978.412 932.246 981.735 932.246C984.983 932.246 986.833 929.64 987.664 928.582C988.231 930.66 989.779 932.283 992.083 932.283C995.18 932.283 996.728 930.282 998.276 927.676C999.485 925.674 1000.92 920.463 1000.92 918.084Z" fill="black"/>
<path id="Vector_10" d="M1040.57 942.209H1056.2C1057 942.209 1058.02 942.209 1058.02 941.19C1058.02 940.113 1057.05 940.113 1056.2 940.113H1040.57V924.478C1040.57 923.685 1040.57 922.666 1039.55 922.666C1038.47 922.666 1038.47 923.629 1038.47 924.478V940.113H1022.84C1022.05 940.113 1021.03 940.113 1021.03 941.133C1021.03 942.209 1021.99 942.209 1022.84 942.209H1038.47V957.844C1038.47 958.637 1038.47 959.657 1039.49 959.657C1040.57 959.657 1040.57 958.694 1040.57 957.844V942.209Z" fill="black"/>
<path id="Vector_11" d="M1093.75 936.885C1094.2 936.319 1094.31 936.205 1094.31 935.922C1094.31 935.809 1094.31 935.695 1093.98 935.242L1082.53 918.248H1095.9C1105.42 918.248 1108.31 920.287 1109.38 929.238H1110.63L1109.16 916.605H1078.17C1076.81 916.605 1076.75 916.605 1076.75 917.908L1090.52 938.301L1077.38 953.823C1076.92 954.333 1076.81 954.503 1076.81 954.729C1076.81 955.296 1077.26 955.296 1078.17 955.296H1109.16L1110.63 942.097H1109.38C1108.36 951.444 1104.79 953.087 1095.73 953.087H1080.04L1093.75 936.885Z" fill="black"/>
<path id="Vector_12" d="M1129.35 926.92C1129.69 927.147 1129.81 927.147 1130 927.147C1130.6 927.147 1131.13 926.656 1131.13 925.976C1131.13 925.258 1130.75 925.107 1130.18 924.843C1127.65 923.672 1126.75 923.257 1124.9 922.502L1129.32 920.5C1129.62 920.387 1130.33 920.047 1130.64 919.934C1131.01 919.707 1131.13 919.329 1131.13 918.989C1131.13 918.536 1130.9 917.819 1129.77 917.819L1124.33 921.52L1124.86 915.93C1124.93 915.288 1124.86 914.344 1123.76 914.344C1123.08 914.344 1122.56 914.911 1122.67 915.439V915.893L1123.2 921.52L1118.17 918.045C1117.83 917.819 1117.72 917.819 1117.53 917.819C1116.93 917.819 1116.4 918.31 1116.4 918.989C1116.4 919.707 1116.78 919.858 1117.34 920.122C1119.87 921.293 1120.78 921.709 1122.63 922.464L1118.21 924.465C1117.91 924.579 1117.19 924.919 1116.89 925.032C1116.51 925.258 1116.4 925.636 1116.4 925.976C1116.4 926.656 1116.93 927.147 1117.53 927.147C1117.83 927.147 1117.91 927.147 1118.85 926.467L1123.2 923.446L1122.63 929.526C1122.63 930.281 1123.27 930.621 1123.76 930.621C1124.25 930.621 1124.9 930.281 1124.9 929.526C1124.9 929.148 1124.75 927.94 1124.71 927.487C1124.56 926.203 1124.44 924.768 1124.33 923.446L1129.35 926.92Z" fill="black"/>
<path id="Vector_13" d="M1149.27 917.398C1149.32 917.171 1149.44 916.831 1149.44 916.548C1149.44 915.981 1148.87 915.981 1148.76 915.981C1148.7 915.981 1146.66 916.151 1145.64 916.265C1144.68 916.321 1143.83 916.435 1142.81 916.491C1141.45 916.605 1141.05 916.661 1141.05 917.681C1141.05 918.247 1141.62 918.247 1142.18 918.247C1145.07 918.247 1145.07 918.757 1145.07 919.324C1145.07 919.72 1144.62 921.363 1144.39 922.383L1143.03 927.821C1142.47 930.087 1139.24 942.946 1139.01 943.966C1138.73 945.382 1138.73 946.345 1138.73 947.081C1138.73 952.86 1141.96 955.862 1145.64 955.862C1152.21 955.862 1159.01 947.421 1159.01 939.207C1159.01 933.996 1156.06 930.313 1151.81 930.313C1148.87 930.313 1146.21 932.749 1145.13 933.882L1149.27 917.398ZM1145.7 954.729C1143.88 954.729 1141.9 953.369 1141.9 948.951C1141.9 947.081 1142.07 946.005 1143.09 942.04C1143.26 941.303 1144.17 937.678 1144.39 936.941C1144.51 936.488 1147.85 931.446 1151.7 931.446C1154.19 931.446 1155.33 933.939 1155.33 936.885C1155.33 939.604 1153.74 946.005 1152.32 948.951C1150.91 952.01 1148.3 954.729 1145.7 954.729Z" fill="black"/>
<path id="Vector_14" d="M1183.97 918.084C1183.97 916.913 1183.63 915.213 1182.16 915.213C1181.14 915.213 1180.16 916.158 1180.16 917.215C1180.16 917.781 1180.57 918.121 1180.99 918.499C1181.55 919.065 1182.12 920.047 1182.12 921.445C1182.12 923.975 1179.51 929.338 1175.74 929.338C1173.77 929.338 1172.41 928.167 1171.96 926.354C1172.57 925.07 1173.36 922.993 1173.36 921.936C1173.36 921.294 1173.06 920.803 1172.34 920.803C1170.64 920.803 1170.41 924.995 1170.41 926.203C1169.09 927.789 1167.54 929.338 1165.35 929.338C1162.94 929.338 1161.8 927.412 1161.8 925.183C1161.8 923.409 1162.29 921.822 1163.05 920.35C1164.14 918.159 1165.62 916.724 1165.62 916.12C1165.62 915.704 1165.28 915.402 1164.86 915.402C1164.14 915.402 1163.58 916.497 1163.16 917.177C1161.54 919.859 1160.37 923.371 1160.37 926.505C1160.37 929.413 1161.46 932.246 1164.79 932.246C1168.03 932.246 1169.88 929.64 1170.71 928.582C1171.28 930.66 1172.83 932.283 1175.13 932.283C1178.23 932.283 1179.78 930.282 1181.33 927.676C1182.54 925.674 1183.97 920.463 1183.97 918.084Z" fill="black"/>
</g>
</g>
</g>
<defs>
<filter id="filter0_d_6_67" x="639.608" y="701.802" width="150.528" height="36.5742" filterUnits="userSpaceOnUse" color-interpolation-filters="sRGB">
<feFlood flood-opacity="0" result="BackgroundImageFix"/>
<feColorMatrix in="SourceAlpha" type="matrix" values="0 0 0 0 0 0 0 0 0 0 0 0 0 0 0 0 0 0 127 0" result="hardAlpha"/>
<feOffset dy="3.584"/>
<feGaussianBlur stdDeviation="1.792"/>
<feComposite in2="hardAlpha" operator="out"/>
<feColorMatrix type="matrix" values="0 0 0 0 0 0 0 0 0 0 0 0 0 0 0 0 0 0 0.25 0"/>
<feBlend mode="normal" in2="BackgroundImageFix" result="effect1_dropShadow_6_67"/>
<feBlend mode="normal" in="SourceGraphic" in2="effect1_dropShadow_6_67" result="shape"/>
</filter>
<filter id="filter1_d_6_67" x="638.265" y="797.064" width="150.528" height="36.5742" filterUnits="userSpaceOnUse" color-interpolation-filters="sRGB">
<feFlood flood-opacity="0" result="BackgroundImageFix"/>
<feColorMatrix in="SourceAlpha" type="matrix" values="0 0 0 0 0 0 0 0 0 0 0 0 0 0 0 0 0 0 127 0" result="hardAlpha"/>
<feOffset dy="3.584"/>
<feGaussianBlur stdDeviation="1.792"/>
<feComposite in2="hardAlpha" operator="out"/>
<feColorMatrix type="matrix" values="0 0 0 0 0 0 0 0 0 0 0 0 0 0 0 0 0 0 0.25 0"/>
<feBlend mode="normal" in2="BackgroundImageFix" result="effect1_dropShadow_6_67"/>
<feBlend mode="normal" in="SourceGraphic" in2="effect1_dropShadow_6_67" result="shape"/>
</filter>
<clipPath id="clip0_6_67">
<rect width="499.161" height="56.705" fill="white" transform="translate(684.809 912.808)"/>
</clipPath>
</defs>
</svg>
