<svg width="1921" height="1081" viewBox="0 0 1921 1081" fill="none" xmlns="http://www.w3.org/2000/svg">
<g id="Muller">
<rect width="1920" height="1080" transform="translate(0.344238 0.903809)" fill="white"/>
<g id="Group 8">
<path id="F &#226;&#138;&#134; 2C" d="M702.079 354.036C702.682 352.922 703.422 351.853 704.298 350.831C705.193 349.79 706.17 348.822 707.229 347.927C705.622 347.781 704.015 347.571 702.408 347.297C700.819 347.005 699.258 346.722 697.724 346.448C696.19 346.174 694.693 345.937 693.232 345.736C691.771 345.535 690.374 345.434 689.041 345.434C687.342 345.434 685.909 345.608 684.74 345.955C683.589 346.302 682.658 346.758 681.946 347.324C681.252 347.891 680.75 348.53 680.439 349.242C680.129 349.936 679.974 350.648 679.974 351.379C679.974 352.072 680.101 352.739 680.357 353.378C680.613 353.999 680.987 354.556 681.48 355.049C681.973 355.524 682.585 355.907 683.315 356.2C684.046 356.492 684.895 356.638 685.863 356.638C686.411 356.638 686.995 356.592 687.616 356.501C688.237 356.41 688.858 356.282 689.479 356.117C690.118 355.935 690.739 355.725 691.342 355.487C691.944 355.25 692.492 354.985 692.985 354.693L693.533 355.35C692.93 355.697 692.3 356.008 691.643 356.282C690.985 356.537 690.319 356.766 689.643 356.967C688.986 357.149 688.319 357.295 687.644 357.405C686.986 357.496 686.356 357.542 685.753 357.542C684.658 357.542 683.681 357.387 682.822 357.076C681.982 356.747 681.261 356.309 680.658 355.761C680.074 355.195 679.627 354.538 679.316 353.789C679.006 353.04 678.85 352.237 678.85 351.379C678.85 350.228 679.124 349.169 679.672 348.201C680.22 347.215 681.024 346.366 682.083 345.653C683.16 344.941 684.493 344.384 686.082 343.983C687.689 343.581 689.534 343.38 691.615 343.38C693.168 343.38 694.72 343.48 696.272 343.681C697.843 343.882 699.422 344.11 701.011 344.366C702.6 344.603 704.207 344.832 705.832 345.051C707.457 345.27 709.119 345.407 710.818 345.462C712.279 344.64 713.776 343.992 715.31 343.517C716.862 343.024 718.415 342.777 719.967 342.777C720.752 342.777 721.282 342.85 721.556 342.996C721.848 343.142 721.994 343.416 721.994 343.818C721.994 344.421 721.711 344.987 721.145 345.517C720.579 346.028 719.793 346.475 718.789 346.859C717.784 347.242 716.607 347.544 715.255 347.763C713.904 347.982 712.434 348.091 710.845 348.091C710.589 348.091 710.325 348.091 710.051 348.091C709.795 348.091 709.539 348.082 709.284 348.064C708.772 348.575 708.343 349.096 707.996 349.625C707.832 349.863 707.667 350.137 707.503 350.447C707.357 350.739 707.174 351.123 706.955 351.598C706.754 352.072 706.517 352.657 706.243 353.351C705.969 354.026 705.64 354.876 705.257 355.898C704.892 356.921 704.444 358.135 703.915 359.542C703.403 360.929 702.81 362.564 702.134 364.445H710.133V365.54H701.751C700.326 369.558 698.801 373.019 697.176 375.922C695.551 378.826 693.834 381.218 692.026 383.099C690.218 384.962 688.337 386.341 686.383 387.235C684.429 388.112 682.412 388.55 680.33 388.55C678.978 388.55 677.718 388.377 676.55 388.03C675.399 387.683 674.395 387.171 673.536 386.496C672.696 385.802 672.03 384.953 671.537 383.948C671.044 382.944 670.797 381.784 670.797 380.469C670.797 379.593 670.898 378.753 671.098 377.949C671.318 377.146 671.61 376.443 671.975 375.84C672.358 375.219 672.797 374.726 673.29 374.361C673.801 373.977 674.349 373.786 674.933 373.786C675.317 373.786 675.646 373.886 675.919 374.087C676.193 374.27 676.33 374.617 676.33 375.128C676.33 375.548 676.221 375.886 676.002 376.141C675.801 376.379 675.545 376.589 675.235 376.771C674.924 376.936 674.577 377.109 674.194 377.292C673.829 377.456 673.491 377.685 673.18 377.977C672.87 378.251 672.605 378.616 672.386 379.072C672.185 379.529 672.085 380.132 672.085 380.88C672.085 381.921 672.276 382.853 672.66 383.674C673.043 384.496 673.591 385.199 674.303 385.784C675.016 386.35 675.883 386.788 676.906 387.098C677.947 387.409 679.115 387.564 680.412 387.564C681.38 387.564 682.293 387.464 683.151 387.263C684.009 387.062 684.84 386.715 685.644 386.222C686.447 385.711 687.233 385.035 688 384.195C688.767 383.337 689.543 382.259 690.328 380.962C691.131 379.648 691.953 378.086 692.793 376.278C693.652 374.47 694.565 372.361 695.533 369.951C695.861 369.129 696.163 368.353 696.437 367.622C696.729 366.892 697.003 366.198 697.258 365.54H689.862V364.445H697.669C698.4 362.619 698.993 361.121 699.45 359.952C699.925 358.784 700.317 357.825 700.628 357.076C700.956 356.327 701.221 355.734 701.422 355.296C701.641 354.839 701.86 354.419 702.079 354.036ZM719.83 343.544C718.679 343.544 717.511 343.718 716.324 344.065C715.137 344.412 713.995 344.877 712.899 345.462C713.94 345.443 714.945 345.38 715.913 345.27C716.899 345.16 717.766 345.033 718.515 344.886C719.282 344.74 719.894 344.585 720.35 344.421C720.825 344.238 721.062 344.056 721.062 343.873C721.062 343.654 720.652 343.544 719.83 343.544ZM770.775 384.621H754.506C745.586 384.621 739.527 377.272 739.527 368.969C739.527 360.666 745.698 353.429 754.674 353.429H770.775V357.132H754.674C748.279 357.132 743.23 362.966 743.23 368.969C743.23 374.972 748.335 380.918 754.73 380.918H770.775V384.621ZM770.775 393.26H740.032V389.558H770.775V393.26ZM814.957 379.796L811.928 387.482H789.993V386.809L799.979 376.206C805.252 370.652 807.272 366.388 807.272 361.62C807.272 356.515 804.242 353.71 799.474 353.71C795.435 353.71 793.471 355.505 791.227 361.003L790.049 360.722C791.227 354.159 794.818 349.558 801.718 349.558C808.057 349.558 812.096 353.878 812.096 359.432C812.096 363.864 809.908 368.071 804.916 373.345L795.659 383.218H808.786C811.143 383.218 812.321 382.601 814.172 379.46L814.957 379.796ZM837.083 364.072L837.723 364.678C835.771 367.472 832.506 368.953 828.534 368.953C825.471 368.953 822.542 367.876 820.59 365.957C818.537 363.938 817.359 360.875 817.359 357.542C817.359 354.176 818.469 351.383 820.388 349.228C822.542 346.839 825.437 345.728 828.567 345.728C829.88 345.728 831.226 345.862 832.573 346.233C833.28 346.435 834.323 346.839 834.895 346.839C835.535 346.839 836.107 346.435 836.309 345.728H836.982L837.285 353.369H836.511C836.107 351.517 835.602 350.541 834.761 349.632C833.28 348.05 831.529 347.074 829.341 347.074C824.259 347.074 821.263 351.181 821.263 357.004C821.263 360.706 822.105 363.332 823.687 365.049C825.168 366.631 827.356 367.472 829.678 367.472C832.707 367.472 834.559 366.462 837.083 364.072Z" fill="black"/>
<path id="family of subsets" d="M872.08 363.237H876.681C876.737 358.749 877.186 356.729 878.644 354.205C880.103 351.68 883.02 350.166 886.554 350.166C889.92 350.166 892.389 351.624 892.389 353.644C892.389 354.934 891.379 355.944 890.032 355.944C889.079 355.944 888.406 355.439 887.508 353.924C886.498 352.297 885.769 351.736 884.535 351.736C882.403 351.736 881.393 353.419 881.393 356.729V363.237H888.237V365.032H881.393V382.648C881.393 386.855 882.01 387.472 886.61 387.64V388.482H872.024V387.64C876.064 387.416 876.681 386.743 876.681 382.648V365.032H872.08V363.237ZM912.901 384.779V386.35C911.218 388.482 909.759 389.043 907.852 389.043C905.776 389.043 904.542 387.921 904.262 384.948H904.206C901.232 388.314 898.483 389.043 896.071 389.043C892.593 389.043 890.181 386.911 890.181 383.209C890.181 380.291 891.92 378.103 894.108 376.645C895.791 375.523 897.866 374.457 904.206 372.101V369.071C904.206 365.593 902.354 364.022 899.83 364.022C897.586 364.022 895.903 365.257 895.903 366.771C895.903 367.781 896.239 367.949 896.239 369.127C896.239 370.193 895.117 371.428 893.659 371.428C892.481 371.428 891.246 370.362 891.246 368.847C891.246 367.388 892.144 365.593 894.108 364.359C895.678 363.349 898.035 362.676 900.559 362.676C903.701 362.676 905.832 363.574 907.179 365.2C908.525 366.827 908.75 368.005 908.75 371.428V382.143C908.75 384.723 909.479 385.845 910.489 385.845C911.386 385.845 911.947 385.565 912.901 384.779ZM904.206 381.357V373.447C900.727 374.681 898.427 375.859 897.025 377.15C895.678 378.384 895.117 379.73 895.117 381.469C895.117 384.443 896.8 385.789 898.988 385.789C900.11 385.789 901.288 385.509 902.242 384.892C903.869 383.77 904.206 382.984 904.206 381.357ZM956.51 388.482H944.28V387.64C947.421 387.304 947.926 386.687 947.926 383.433V371.876C947.926 367.444 946.804 365.593 943.607 365.593C940.97 365.593 939.287 366.603 937.604 369.015V383.152C937.604 386.799 938.445 387.584 941.643 387.64V388.482H929.077V387.64C932.274 387.416 932.892 387.079 932.892 383.657V371.82C932.892 367.949 931.657 365.593 929.245 365.593C927.169 365.593 924.42 366.659 923.298 368.005C922.906 368.454 922.569 368.847 922.569 368.959V384.555C922.569 386.967 923.411 387.528 926.384 387.64V388.482H913.93V387.64C917.071 387.584 917.857 386.799 917.857 383.545V369.632C917.857 366.883 917.352 365.93 915.893 365.93C915.276 365.93 914.827 365.986 914.098 366.154V365.2C917.184 364.359 919.035 363.742 921.896 362.676L922.345 362.844V366.996H922.457C926.16 363.181 928.516 362.676 931.04 362.676C934.07 362.676 935.977 364.191 936.987 367.388C940.016 364.135 942.877 362.676 946.131 362.676C950.675 362.676 952.639 366.154 952.639 372.774V384.162C952.639 386.687 953.368 387.416 955.051 387.528L956.51 387.64V388.482ZM966.794 353.027C966.794 354.654 965.56 355.888 963.877 355.888C962.306 355.888 961.072 354.654 961.072 353.027C961.072 351.456 962.362 350.166 963.933 350.166C965.56 350.166 966.794 351.456 966.794 353.027ZM970.889 388.482H957.593V387.64C961.464 387.416 962.025 386.911 962.025 382.648V369.913C962.025 367.276 961.577 366.379 960.174 366.379C959.669 366.379 958.828 366.379 957.818 366.659V365.761L966.513 362.676L966.738 362.9V382.591C966.738 386.743 967.187 387.36 970.889 387.64V388.482ZM986.727 388.482H973.488V387.64C977.022 387.36 977.807 386.406 977.807 383.321V357.01C977.807 354.317 977.246 353.419 975.451 353.419C975.002 353.419 974.273 353.419 973.376 353.532V352.634C977.246 351.68 979.322 351.119 982.239 350.166L982.52 350.39V383.601C982.52 386.687 983.137 387.416 986.727 387.64V388.482ZM1013.37 363.237V364.078C1012.02 364.247 1011.35 364.864 1010.56 366.94L1002.15 389.884C999.228 397.851 996.592 400.712 992.328 400.712C989.916 400.712 988.401 399.309 988.401 397.458C988.401 396.055 989.467 394.877 990.813 394.877C991.823 394.877 992.721 395.046 993.731 395.607C994.348 395.943 994.853 395.999 995.189 395.999C995.975 395.999 997.097 394.877 997.994 393.531C999.116 391.904 1000.24 388.37 1000.24 387.472C1000.24 386.631 998.948 384.05 997.882 381.806L990.477 365.986C989.916 364.752 988.962 364.247 987.504 364.022V363.237H999.004V364.078C996.592 364.191 995.806 364.583 995.806 365.593C995.806 366.21 996.199 367.108 996.536 367.893L1002.82 381.918L1008.26 366.435C1008.43 366.042 1008.48 365.649 1008.48 365.425C1008.48 364.527 1007.64 364.078 1005.9 364.078V363.237H1013.37ZM1055.16 375.523C1055.16 383.321 1050.11 389.043 1042.54 389.043C1035.75 389.043 1030.42 383.489 1030.42 375.691C1030.42 367.893 1035.47 362.676 1043.04 362.676C1049.89 362.676 1055.16 367.781 1055.16 375.523ZM1050.11 377.038C1050.11 373.223 1049.1 369.352 1047.31 367.052C1045.96 365.369 1044.39 364.247 1041.98 364.247C1038.11 364.247 1035.47 367.557 1035.47 373.167C1035.47 377.599 1036.37 381.638 1038.44 384.667C1039.68 386.462 1041.47 387.472 1043.49 387.472C1047.64 387.472 1050.11 383.545 1050.11 377.038ZM1058.02 363.237H1062.62C1062.68 358.749 1063.13 356.729 1064.58 354.205C1066.04 351.68 1068.96 350.166 1072.5 350.166C1075.86 350.166 1078.33 351.624 1078.33 353.644C1078.33 354.934 1077.32 355.944 1075.97 355.944C1075.02 355.944 1074.35 355.439 1073.45 353.924C1072.44 352.297 1071.71 351.736 1070.48 351.736C1068.34 351.736 1067.33 353.419 1067.33 356.729V363.237H1074.18V365.032H1067.33V382.648C1067.33 386.855 1067.95 387.472 1072.55 387.64V388.482H1057.97V387.64C1062 387.416 1062.62 386.743 1062.62 382.648V365.032H1058.02V363.237ZM1098.3 371.596L1104.14 375.13C1107.73 377.318 1109.07 378.833 1109.07 382.03C1109.07 385.789 1105.48 389.043 1101.22 389.043C1100.04 389.043 1098.41 388.987 1097.12 388.538C1095.78 388.089 1095.16 388.033 1094.54 388.033C1093.87 388.033 1093.53 388.145 1093.2 388.706H1092.47V379.899H1093.36C1094.54 385.34 1096.62 387.809 1100.49 387.809C1103.35 387.809 1105.15 385.957 1105.15 383.657C1105.15 381.918 1104.02 380.46 1102.17 379.45L1099.14 377.767C1094.49 375.186 1092.41 372.493 1092.41 369.632C1092.41 365.2 1095.55 362.732 1100.15 362.732C1101.5 362.732 1102.73 362.788 1103.91 363.349C1104.53 363.63 1105.09 363.798 1105.48 363.798C1105.71 363.798 1105.93 363.742 1106.38 363.237H1107L1107.28 370.867H1106.44C1105.15 365.818 1103.46 363.966 1100.1 363.966C1097.68 363.966 1095.89 365.144 1095.89 367.781C1095.89 369.015 1096.73 370.642 1098.3 371.596ZM1138.28 385.677V386.462C1135.42 387.248 1133.4 387.865 1130.6 388.987L1130.32 388.819V384.218H1130.2C1127.46 387.977 1124.26 389.043 1122.18 389.043C1117.86 389.043 1115.34 386.182 1115.34 381.862V367.781C1115.34 364.976 1114.55 364.191 1111.86 364.022V363.237H1120.05V381.357C1120.05 383.938 1121.85 385.789 1124.03 385.789C1125.66 385.789 1127.34 385.284 1128.75 384.05C1129.64 383.265 1130.04 382.76 1130.04 380.796V367.837C1130.04 364.864 1129.25 364.415 1125.88 364.191V363.237H1134.75V382.479C1134.75 385.06 1135.37 385.677 1137.95 385.677H1138.28ZM1147.99 350.278V367.388C1149.17 364.527 1152.14 362.676 1155.56 362.676C1161.56 362.676 1165.66 368.062 1165.66 375.018C1165.66 383.321 1159.94 389.043 1152.53 389.043C1147.99 389.043 1143.28 387.248 1143.28 385.34V356.729C1143.28 353.924 1142.83 353.476 1140.53 353.476C1140.13 353.476 1139.85 353.532 1139.57 353.588V352.634L1141.26 352.129C1143.89 351.344 1145.35 351.007 1147.71 350.166L1147.99 350.278ZM1147.99 370.642V384.331C1147.99 386.126 1150.51 387.248 1153.43 387.248C1155.62 387.248 1157.41 386.406 1158.65 384.835C1159.99 383.152 1160.72 380.684 1160.72 377.43C1160.72 374.064 1159.94 370.81 1158.53 368.847C1157.36 367.164 1155.56 366.21 1153.54 366.21C1150.57 366.21 1147.99 368.286 1147.99 370.642ZM1176.21 371.596L1182.04 375.13C1185.63 377.318 1186.98 378.833 1186.98 382.03C1186.98 385.789 1183.39 389.043 1179.12 389.043C1177.95 389.043 1176.32 388.987 1175.03 388.538C1173.68 388.089 1173.06 388.033 1172.45 388.033C1171.77 388.033 1171.44 388.145 1171.1 388.706H1170.37V379.899H1171.27C1172.45 385.34 1174.52 387.809 1178.39 387.809C1181.26 387.809 1183.05 385.957 1183.05 383.657C1183.05 381.918 1181.93 380.46 1180.08 379.45L1177.05 377.767C1172.39 375.186 1170.32 372.493 1170.32 369.632C1170.32 365.2 1173.46 362.732 1178.06 362.732C1179.4 362.732 1180.64 362.788 1181.82 363.349C1182.43 363.63 1182.99 363.798 1183.39 363.798C1183.61 363.798 1183.84 363.742 1184.28 363.237H1184.9L1185.18 370.867H1184.34C1183.05 365.818 1181.37 363.966 1178 363.966C1175.59 363.966 1173.79 365.144 1173.79 367.781C1173.79 369.015 1174.64 370.642 1176.21 371.596ZM1212.15 379.282L1213.05 379.674C1210.86 385.789 1206.93 389.043 1201.32 389.043C1194.7 389.043 1190.66 384.05 1190.66 376.308C1190.66 368.398 1195.21 362.676 1202.27 362.676C1205.75 362.676 1208.28 364.022 1210.07 366.547C1211.19 368.118 1211.76 369.913 1211.98 372.942H1194.7C1194.98 377.206 1195.26 379.394 1197.28 382.087C1198.85 384.162 1200.93 385.172 1203.51 385.172C1207.27 385.172 1209.4 383.433 1212.15 379.282ZM1194.81 371.147H1206.26C1205.64 366.603 1204.46 364.696 1200.76 364.696C1197.62 364.696 1195.43 366.94 1194.81 371.147ZM1228.62 384.162L1229.34 384.779C1227.49 387.697 1225.36 389.043 1222.56 389.043C1219.3 389.043 1217.62 386.631 1217.62 381.918V365.032H1214.65C1214.48 364.92 1214.42 364.808 1214.42 364.639C1214.42 364.303 1214.76 363.966 1215.38 363.574C1216.83 362.732 1218.69 360.656 1220.82 357.571C1221.15 357.066 1221.6 356.561 1221.94 356C1222.22 356 1222.33 356.168 1222.33 356.729V363.237H1228V365.032H1222.33V381.077C1222.33 384.667 1223.17 386.126 1225.25 386.126C1226.48 386.126 1227.38 385.621 1228.62 384.162ZM1238.06 371.596L1243.89 375.13C1247.48 377.318 1248.83 378.833 1248.83 382.03C1248.83 385.789 1245.24 389.043 1240.98 389.043C1239.8 389.043 1238.17 388.987 1236.88 388.538C1235.53 388.089 1234.92 388.033 1234.3 388.033C1233.63 388.033 1233.29 388.145 1232.95 388.706H1232.22V379.899H1233.12C1234.3 385.34 1236.38 387.809 1240.25 387.809C1243.11 387.809 1244.9 385.957 1244.9 383.657C1244.9 381.918 1243.78 380.46 1241.93 379.45L1238.9 377.767C1234.24 375.186 1232.17 372.493 1232.17 369.632C1232.17 365.2 1235.31 362.732 1239.91 362.732C1241.26 362.732 1242.49 362.788 1243.67 363.349C1244.29 363.63 1244.85 363.798 1245.24 363.798C1245.46 363.798 1245.69 363.742 1246.14 363.237H1246.75L1247.03 370.867H1246.19C1244.9 365.818 1243.22 363.966 1239.85 363.966C1237.44 363.966 1235.65 365.144 1235.65 367.781C1235.65 369.015 1236.49 370.642 1238.06 371.596Z" fill="black"/>
</g>
<path id="A run &#207;&#129; is accepting &#226;&#135;&#148; Inf(&#207;&#129;) &#226;&#136;&#136; F" d="M584.204 478.582H569.899V477.516C571.918 477.516 572.311 477.403 572.984 477.011C573.433 476.786 573.77 476.169 573.77 475.664C573.77 474.823 573.377 473.308 572.704 471.737L570.404 466.464H555.705L553.125 472.859C552.844 473.589 552.62 474.542 552.62 475.216C552.62 476.955 553.854 477.516 556.547 477.516V478.582H545.383V477.516C548.637 477.179 549.142 476.001 552.452 468.147L564.008 440.77H565.13L578.931 472.354C580.502 476.001 581.287 477.179 584.204 477.516V478.582ZM569.618 464.164L563.111 448.736L556.659 464.164H569.618ZM608.029 452.888V458.049C610.834 454.01 612.405 452.776 614.761 452.776C616.668 452.776 617.846 453.898 617.846 455.749C617.846 457.32 617.005 458.273 615.658 458.273C614.929 458.273 614.312 457.993 613.414 457.151C612.797 456.59 612.292 456.31 611.956 456.31C610.385 456.31 608.029 459.115 608.029 460.91V473.533C608.029 476.73 608.983 477.572 612.797 477.74V478.582H599.333V477.74C602.924 477.067 603.316 476.674 603.316 473.869V459.844C603.316 457.376 602.812 456.478 601.409 456.478C600.736 456.478 600.231 456.534 599.446 456.703V455.805C602.755 454.739 604.775 453.954 607.748 452.776L608.029 452.888ZM646.032 475.777V476.562C643.171 477.347 641.151 477.964 638.346 479.086L638.066 478.918V474.318H637.954C635.205 478.077 632.007 479.143 629.931 479.143C625.612 479.143 623.087 476.281 623.087 471.962V457.881C623.087 455.076 622.302 454.29 619.609 454.122V453.337H627.8V471.457C627.8 474.037 629.595 475.889 631.783 475.889C633.41 475.889 635.093 475.384 636.495 474.15C637.393 473.364 637.785 472.859 637.785 470.896V457.937C637.785 454.963 637 454.515 633.634 454.29V453.337H642.498V472.579C642.498 475.159 643.115 475.777 645.696 475.777H646.032ZM674.363 478.582H662.694L662.75 477.74C665.555 477.516 666.228 476.394 666.228 472.691V461.527C666.228 457.544 664.882 455.861 662.133 455.861C660.282 455.861 658.935 456.534 656.355 459.059V474.542C656.355 476.73 657.14 477.516 660.001 477.74V478.582H648.164V477.74C651.025 477.516 651.642 476.618 651.642 473.308V459.676C651.642 456.927 651.249 456.029 649.679 456.029C649.062 456.029 648.444 456.085 648.052 456.254V455.3C651.137 454.402 652.989 453.785 655.737 452.776L656.186 452.944V457.32H656.242C659.16 454.01 661.74 452.776 664.321 452.776C668.584 452.776 670.941 455.861 670.941 461.415V473.813C670.941 476.842 671.614 477.46 674.363 477.74V478.582ZM693.212 485.987V470.054C693.212 456.59 698.205 452.776 703.759 452.776C710.323 452.776 715.372 457.768 715.372 464.725C715.372 472.859 710.491 479.143 703.815 479.143C701.459 479.143 699.944 478.75 697.925 476.899V485.931C697.925 487.95 697.42 489.97 697.027 490.755H692.315C692.876 489.577 693.212 487.894 693.212 485.987ZM697.925 463.266V473.645C697.925 475.328 701.122 477.347 703.759 477.347C707.798 477.347 710.547 472.859 710.547 466.688C710.547 458.834 707.237 454.346 703.086 454.346C699.776 454.346 697.925 457.881 697.925 463.266ZM741.183 443.126C741.183 444.753 739.949 445.987 738.266 445.987C736.695 445.987 735.461 444.753 735.461 443.126C735.461 441.556 736.751 440.265 738.322 440.265C739.949 440.265 741.183 441.556 741.183 443.126ZM745.278 478.582H731.983V477.74C735.854 477.516 736.415 477.011 736.415 472.747V460.012C736.415 457.376 735.966 456.478 734.563 456.478C734.058 456.478 733.217 456.478 732.207 456.759V455.861L740.903 452.776L741.127 453V472.691C741.127 476.842 741.576 477.46 745.278 477.74V478.582ZM755.45 461.695L761.285 465.23C764.875 467.418 766.222 468.932 766.222 472.13C766.222 475.889 762.631 479.143 758.368 479.143C757.19 479.143 755.563 479.086 754.272 478.638C752.926 478.189 752.309 478.133 751.692 478.133C751.019 478.133 750.682 478.245 750.345 478.806H749.616V469.998H750.514C751.692 475.44 753.767 477.908 757.638 477.908C760.499 477.908 762.295 476.057 762.295 473.757C762.295 472.018 761.173 470.559 759.321 469.549L756.292 467.866C751.636 465.286 749.56 462.593 749.56 459.732C749.56 455.3 752.702 452.832 757.302 452.832C758.648 452.832 759.882 452.888 761.06 453.449C761.678 453.729 762.239 453.898 762.631 453.898C762.856 453.898 763.08 453.841 763.529 453.337H764.146L764.426 460.966H763.585C762.295 455.917 760.612 454.066 757.246 454.066C754.833 454.066 753.038 455.244 753.038 457.881C753.038 459.115 753.88 460.742 755.45 461.695ZM807.325 474.879V476.45C805.642 478.582 804.183 479.143 802.276 479.143C800.2 479.143 798.966 478.021 798.685 475.047H798.629C795.656 478.413 792.907 479.143 790.495 479.143C787.016 479.143 784.604 477.011 784.604 473.308C784.604 470.391 786.343 468.203 788.531 466.744C790.214 465.622 792.29 464.557 798.629 462.2V459.171C798.629 455.693 796.778 454.122 794.253 454.122C792.009 454.122 790.326 455.356 790.326 456.871C790.326 457.881 790.663 458.049 790.663 459.227C790.663 460.293 789.541 461.527 788.082 461.527C786.904 461.527 785.67 460.461 785.67 458.947C785.67 457.488 786.568 455.693 788.531 454.459C790.102 453.449 792.458 452.776 794.983 452.776C798.124 452.776 800.256 453.673 801.602 455.3C802.949 456.927 803.173 458.105 803.173 461.527V472.242C803.173 474.823 803.902 475.945 804.912 475.945C805.81 475.945 806.371 475.664 807.325 474.879ZM798.629 471.457V463.547C795.151 464.781 792.851 465.959 791.448 467.249C790.102 468.484 789.541 469.83 789.541 471.569C789.541 474.542 791.224 475.889 793.412 475.889C794.534 475.889 795.712 475.608 796.666 474.991C798.292 473.869 798.629 473.084 798.629 471.457ZM829.783 469.83L830.569 470.335C828.774 473.813 827.652 475.44 825.969 476.786C824.061 478.357 821.929 479.143 819.517 479.143C813.29 479.143 808.858 473.925 808.858 466.688C808.858 462.032 810.541 458.161 813.57 455.637C815.814 453.785 818.507 452.776 821.144 452.776C825.856 452.776 829.783 455.412 829.783 458.554C829.783 459.844 828.605 460.91 827.147 460.91C825.912 460.91 824.903 459.956 824.454 458.329L824.117 457.095C823.556 455.02 822.827 454.402 820.807 454.402C816.263 454.402 813.178 458.329 813.178 464.164C813.178 470.615 816.712 475.103 821.873 475.103C825.071 475.103 827.091 473.757 829.783 469.83ZM854.711 469.83L855.496 470.335C853.701 473.813 852.579 475.44 850.896 476.786C848.988 478.357 846.857 479.143 844.444 479.143C838.217 479.143 833.785 473.925 833.785 466.688C833.785 462.032 835.468 458.161 838.498 455.637C840.742 453.785 843.435 452.776 846.071 452.776C850.784 452.776 854.711 455.412 854.711 458.554C854.711 459.844 853.533 460.91 852.074 460.91C850.84 460.91 849.83 459.956 849.381 458.329L849.045 457.095C848.484 455.02 847.754 454.402 845.735 454.402C841.191 454.402 838.105 458.329 838.105 464.164C838.105 470.615 841.639 475.103 846.801 475.103C849.998 475.103 852.018 473.757 854.711 469.83ZM880.199 469.381L881.096 469.774C878.909 475.889 874.982 479.143 869.372 479.143C862.752 479.143 858.713 474.15 858.713 466.408C858.713 458.498 863.257 452.776 870.325 452.776C873.803 452.776 876.328 454.122 878.123 456.646C879.245 458.217 879.806 460.012 880.031 463.042H862.752C863.032 467.305 863.313 469.493 865.332 472.186C866.903 474.262 868.979 475.272 871.559 475.272C875.318 475.272 877.45 473.533 880.199 469.381ZM862.864 461.247H874.308C873.691 456.703 872.513 454.795 868.811 454.795C865.669 454.795 863.481 457.039 862.864 461.247ZM891.157 452.888V457.207C893.626 454.122 896.094 452.776 899.236 452.776C904.677 452.776 908.604 457.768 908.604 464.725C908.604 472.859 903.499 479.143 896.823 479.143C894.467 479.143 893.177 478.582 891.157 476.73V485.538C891.157 489.072 891.887 489.689 896.094 489.745V490.755H882.518V489.802C885.828 489.465 886.445 488.848 886.445 485.931V459.676C886.445 457.039 886.052 456.478 884.145 456.478C883.64 456.478 883.247 456.478 882.742 456.534V455.637C885.828 454.683 887.847 453.954 890.821 452.776L891.157 452.888ZM891.157 459.844V473.645C891.157 475.328 894.355 477.347 896.992 477.347C901.031 477.347 903.78 473.14 903.78 466.969C903.78 460.405 901.031 456.142 896.879 456.142C894.299 456.142 891.157 458.161 891.157 459.844ZM925.155 474.262L925.884 474.879C924.033 477.796 921.901 479.143 919.096 479.143C915.843 479.143 914.16 476.73 914.16 472.018V455.132H911.186C911.018 455.02 910.962 454.907 910.962 454.739C910.962 454.402 911.298 454.066 911.916 453.673C913.374 452.832 915.225 450.756 917.357 447.67C917.694 447.166 918.143 446.661 918.479 446.1C918.76 446.1 918.872 446.268 918.872 446.829V453.337H924.538V455.132H918.872V471.176C918.872 474.767 919.713 476.225 921.789 476.225C923.023 476.225 923.921 475.72 925.155 474.262ZM935.944 443.126C935.944 444.753 934.71 445.987 933.027 445.987C931.456 445.987 930.222 444.753 930.222 443.126C930.222 441.556 931.512 440.265 933.083 440.265C934.71 440.265 935.944 441.556 935.944 443.126ZM940.04 478.582H926.744V477.74C930.615 477.516 931.176 477.011 931.176 472.747V460.012C931.176 457.376 930.727 456.478 929.325 456.478C928.82 456.478 927.978 456.478 926.968 456.759V455.861L935.664 452.776L935.888 453V472.691C935.888 476.842 936.337 477.46 940.04 477.74V478.582ZM968.669 478.582H957L957.056 477.74C959.861 477.516 960.534 476.394 960.534 472.691V461.527C960.534 457.544 959.188 455.861 956.439 455.861C954.587 455.861 953.241 456.534 950.66 459.059V474.542C950.66 476.73 951.446 477.516 954.307 477.74V478.582H942.47V477.74C945.331 477.516 945.948 476.618 945.948 473.308V459.676C945.948 456.927 945.555 456.029 943.985 456.029C943.367 456.029 942.75 456.085 942.358 456.254V455.3C945.443 454.402 947.294 453.785 950.043 452.776L950.492 452.944V457.32H950.548C953.465 454.01 956.046 452.776 958.627 452.776C962.89 452.776 965.246 455.861 965.246 461.415V473.813C965.246 476.842 965.92 477.46 968.669 477.74V478.582ZM995.877 456.815H991.221C992.006 458.61 992.287 459.9 992.287 461.527C992.287 464.444 991.389 466.52 989.369 468.035C987.574 469.381 985.499 470.223 983.535 470.223C983.198 470.223 982.413 470.167 981.403 470.054L980.337 469.942C978.823 470.391 976.971 472.354 976.971 473.476C976.971 474.374 978.318 474.823 981.347 474.991L988.584 475.328C992.735 475.496 995.372 477.852 995.372 481.33C995.372 483.574 994.306 485.426 992.006 487.221C989.089 489.465 984.825 490.811 980.786 490.811C975.401 490.811 971.081 488.343 971.081 485.37C971.081 483.294 972.539 481.443 976.579 478.525C974.222 477.403 973.605 476.786 973.605 475.552C973.605 474.43 974.335 473.308 976.186 471.681C977.027 470.952 977.813 470.223 978.598 469.437C974.84 467.586 973.381 465.454 973.381 461.92C973.381 456.815 977.532 452.776 982.75 452.776C984.208 452.776 985.723 453.056 987.238 453.617L988.472 454.066C989.594 454.459 990.435 454.627 991.557 454.627H995.877V456.815ZM978.037 459.62V459.788C978.037 465.174 980.337 468.82 983.816 468.82C986.34 468.82 987.967 466.857 987.967 463.771C987.967 461.471 987.35 458.947 986.284 456.983C985.386 455.3 983.928 454.346 982.189 454.346C979.608 454.346 978.037 456.31 978.037 459.62ZM993.801 482.172C993.801 480.096 991.95 479.423 986.845 479.423C984.096 479.423 979.664 479.086 977.757 478.694C975.513 481.387 975.008 482.228 975.008 483.518C975.008 485.987 978.206 487.614 983.142 487.614C989.538 487.614 993.801 485.426 993.801 482.172ZM1090.46 464.108V464.669C1087.94 466.352 1079.41 472.635 1072.85 479.143L1071.28 477.964C1072.45 476.674 1075.15 474.374 1075.15 472.747C1075.15 472.13 1075.09 471.85 1073.46 471.85H1057.92C1056.47 471.85 1055.96 471.962 1055.96 472.859C1055.96 474.206 1057.7 475.384 1059.89 477.852L1058.6 479.143C1051.81 472.747 1043.34 466.24 1040.76 464.669V464.108C1043.34 462.256 1051.7 455.917 1058.6 449.578L1059.89 450.868C1058.54 452.439 1055.85 454.739 1055.85 455.861C1055.85 456.703 1056.86 456.927 1057.76 456.927H1073.46C1074.59 456.927 1075.03 456.254 1075.03 455.749C1075.03 453.841 1072.57 452.383 1071.28 450.924L1072.85 449.578C1079.69 455.861 1087.88 462.369 1090.46 464.108ZM1050.29 468.147H1080.81C1082.66 467.081 1084.12 465.735 1084.12 464.388C1084.12 463.042 1082.66 461.864 1080.87 460.63H1050.35C1048.5 461.695 1047.1 463.042 1047.04 464.388C1047.04 465.679 1048.5 466.913 1050.29 468.147ZM1151.32 478.582H1134.66V477.516C1139.37 477.347 1140.1 476.674 1140.1 472.298V447.67C1140.1 443.239 1139.42 442.79 1134.66 442.509V441.443H1151.32V442.509C1146.61 442.734 1145.82 443.407 1145.82 447.67V472.298C1145.82 476.506 1146.72 477.347 1151.32 477.516V478.582ZM1179.54 478.582H1167.87L1167.92 477.74C1170.73 477.516 1171.4 476.394 1171.4 472.691V461.527C1171.4 457.544 1170.06 455.861 1167.31 455.861C1165.46 455.861 1164.11 456.534 1161.53 459.059V474.542C1161.53 476.73 1162.31 477.516 1165.18 477.74V478.582H1153.34V477.74C1156.2 477.516 1156.82 476.618 1156.82 473.308V459.676C1156.82 456.927 1156.42 456.029 1154.85 456.029C1154.24 456.029 1153.62 456.085 1153.23 456.254V455.3C1156.31 454.402 1158.16 453.785 1160.91 452.776L1161.36 452.944V457.32H1161.42C1164.33 454.01 1166.91 452.776 1169.49 452.776C1173.76 452.776 1176.11 455.861 1176.11 461.415V473.813C1176.11 476.842 1176.79 477.46 1179.54 477.74V478.582ZM1181.56 453.337H1186.16C1186.21 448.849 1186.66 446.829 1188.12 444.304C1189.58 441.78 1192.5 440.265 1196.03 440.265C1199.4 440.265 1201.86 441.724 1201.86 443.743C1201.86 445.034 1200.85 446.044 1199.51 446.044C1198.55 446.044 1197.88 445.539 1196.98 444.024C1195.97 442.397 1195.24 441.836 1194.01 441.836C1191.88 441.836 1190.87 443.519 1190.87 446.829V453.337H1197.71V455.132H1190.87V472.747C1190.87 476.955 1191.49 477.572 1196.09 477.74V478.582H1181.5V477.74C1185.54 477.516 1186.16 476.842 1186.16 472.747V455.132H1181.56V453.337ZM1216.11 487.614L1215.44 488.511C1206.58 483.462 1201.75 473.981 1201.75 464.444C1201.75 454.066 1206.63 445.987 1215.61 440.658L1216.11 441.556C1208.32 448.231 1206.58 453.449 1206.58 464.276C1206.58 474.711 1208.26 481.05 1216.11 487.614ZM1221.72 485.987V470.054C1221.72 456.59 1226.72 452.776 1232.27 452.776C1238.84 452.776 1243.88 457.768 1243.88 464.725C1243.88 472.859 1239 479.143 1232.33 479.143C1229.97 479.143 1228.46 478.75 1226.44 476.899V485.931C1226.44 487.95 1225.93 489.97 1225.54 490.755H1220.83C1221.39 489.577 1221.72 487.894 1221.72 485.987ZM1226.44 463.266V473.645C1226.44 475.328 1229.63 477.347 1232.27 477.347C1236.31 477.347 1239.06 472.859 1239.06 466.688C1239.06 458.834 1235.75 454.346 1231.6 454.346C1228.29 454.346 1226.44 457.881 1226.44 463.266ZM1247.2 441.556L1247.87 440.658C1256.46 445.819 1261.56 455.188 1261.56 464.725C1261.56 475.103 1256.62 483.07 1247.7 488.511L1247.2 487.614C1255.17 481.05 1256.74 475.777 1256.74 464.893C1256.74 454.402 1255.33 447.951 1247.2 441.556ZM1313.34 480.096H1297.02C1288.04 480.096 1281.65 472.747 1281.65 464.444C1281.65 456.142 1287.93 448.792 1296.85 448.792H1313.34V452.495H1297.07C1291.29 452.495 1286.47 457.264 1285.52 462.593H1313.34V466.296H1285.46C1286.41 471.625 1291.24 476.394 1297.02 476.394H1313.34V480.096ZM1361.99 445.135C1362.59 444.021 1363.33 442.953 1364.21 441.93C1365.1 440.889 1366.08 439.921 1367.14 439.027C1365.53 438.881 1363.93 438.671 1362.32 438.397C1360.73 438.104 1359.17 437.821 1357.64 437.547C1356.1 437.274 1354.6 437.036 1353.14 436.835C1351.68 436.634 1350.29 436.534 1348.95 436.534C1347.25 436.534 1345.82 436.707 1344.65 437.054C1343.5 437.401 1342.57 437.858 1341.86 438.424C1341.16 438.99 1340.66 439.629 1340.35 440.342C1340.04 441.035 1339.89 441.748 1339.89 442.478C1339.89 443.172 1340.01 443.839 1340.27 444.478C1340.52 445.099 1340.9 445.656 1341.39 446.149C1341.88 446.624 1342.5 447.007 1343.23 447.299C1343.96 447.591 1344.81 447.737 1345.77 447.737C1346.32 447.737 1346.91 447.692 1347.53 447.601C1348.15 447.509 1348.77 447.381 1349.39 447.217C1350.03 447.034 1350.65 446.824 1351.25 446.587C1351.86 446.35 1352.4 446.085 1352.9 445.793L1353.44 446.45C1352.84 446.797 1352.21 447.107 1351.55 447.381C1350.9 447.637 1350.23 447.865 1349.55 448.066C1348.9 448.249 1348.23 448.395 1347.56 448.504C1346.9 448.596 1346.27 448.641 1345.66 448.641C1344.57 448.641 1343.59 448.486 1342.73 448.176C1341.89 447.847 1341.17 447.409 1340.57 446.861C1339.99 446.295 1339.54 445.637 1339.23 444.889C1338.92 444.14 1338.76 443.336 1338.76 442.478C1338.76 441.328 1339.04 440.268 1339.58 439.301C1340.13 438.314 1340.94 437.465 1341.99 436.753C1343.07 436.041 1344.4 435.484 1345.99 435.082C1347.6 434.68 1349.45 434.479 1351.53 434.479C1353.08 434.479 1354.63 434.58 1356.18 434.781C1357.75 434.982 1359.33 435.21 1360.92 435.466C1362.51 435.703 1364.12 435.931 1365.74 436.15C1367.37 436.37 1369.03 436.507 1370.73 436.561C1372.19 435.74 1373.69 435.091 1375.22 434.616C1376.77 434.123 1378.33 433.877 1379.88 433.877C1380.66 433.877 1381.19 433.95 1381.47 434.096C1381.76 434.242 1381.91 434.516 1381.91 434.918C1381.91 435.52 1381.62 436.087 1381.06 436.616C1380.49 437.127 1379.7 437.575 1378.7 437.958C1377.7 438.342 1376.52 438.643 1375.17 438.862C1373.82 439.081 1372.35 439.191 1370.76 439.191C1370.5 439.191 1370.24 439.191 1369.96 439.191C1369.71 439.191 1369.45 439.182 1369.2 439.164C1368.68 439.675 1368.25 440.195 1367.91 440.725C1367.74 440.962 1367.58 441.236 1367.41 441.547C1367.27 441.839 1367.09 442.222 1366.87 442.697C1366.67 443.172 1366.43 443.756 1366.15 444.45C1365.88 445.126 1365.55 445.975 1365.17 446.998C1364.8 448.021 1364.36 449.235 1363.83 450.641C1363.31 452.029 1362.72 453.663 1362.05 455.544H1370.04V456.64H1361.66C1360.24 460.658 1358.71 464.118 1357.09 467.022C1355.46 469.925 1353.75 472.318 1351.94 474.199C1350.13 476.061 1348.25 477.44 1346.29 478.335C1344.34 479.212 1342.32 479.65 1340.24 479.65C1338.89 479.65 1337.63 479.476 1336.46 479.129C1335.31 478.782 1334.31 478.271 1333.45 477.595C1332.61 476.901 1331.94 476.052 1331.45 475.048C1330.96 474.044 1330.71 472.884 1330.71 471.569C1330.71 470.692 1330.81 469.852 1331.01 469.049C1331.23 468.245 1331.52 467.542 1331.89 466.94C1332.27 466.319 1332.71 465.826 1333.2 465.46C1333.71 465.077 1334.26 464.885 1334.84 464.885C1335.23 464.885 1335.56 464.986 1335.83 465.187C1336.1 465.369 1336.24 465.716 1336.24 466.227C1336.24 466.648 1336.13 466.985 1335.91 467.241C1335.71 467.478 1335.46 467.688 1335.15 467.871C1334.84 468.035 1334.49 468.209 1334.11 468.392C1333.74 468.556 1333.4 468.784 1333.09 469.076C1332.78 469.35 1332.52 469.715 1332.3 470.172C1332.1 470.629 1332 471.231 1332 471.98C1332 473.021 1332.19 473.952 1332.57 474.774C1332.95 475.596 1333.5 476.299 1334.21 476.883C1334.93 477.449 1335.79 477.888 1336.82 478.198C1337.86 478.508 1339.03 478.664 1340.32 478.664C1341.29 478.664 1342.2 478.563 1343.06 478.362C1343.92 478.162 1344.75 477.815 1345.56 477.321C1346.36 476.81 1347.14 476.134 1347.91 475.294C1348.68 474.436 1349.45 473.359 1350.24 472.062C1351.04 470.747 1351.86 469.186 1352.7 467.378C1353.56 465.57 1354.48 463.461 1355.44 461.05C1355.77 460.229 1356.07 459.452 1356.35 458.722C1356.64 457.991 1356.91 457.298 1357.17 456.64H1349.77V455.544H1357.58C1358.31 453.718 1358.9 452.221 1359.36 451.052C1359.84 449.883 1360.23 448.925 1360.54 448.176C1360.87 447.427 1361.13 446.834 1361.33 446.395C1361.55 445.939 1361.77 445.519 1361.99 445.135ZM1379.74 434.644C1378.59 434.644 1377.42 434.817 1376.24 435.164C1375.05 435.511 1373.91 435.977 1372.81 436.561C1373.85 436.543 1374.86 436.479 1375.82 436.37C1376.81 436.26 1377.68 436.132 1378.43 435.986C1379.19 435.84 1379.81 435.685 1380.26 435.52C1380.74 435.338 1380.97 435.155 1380.97 434.973C1380.97 434.753 1380.56 434.644 1379.74 434.644Z" fill="black"/>
<g id="Group_38">
<g id="Group 7">
<path id="F = {{ }, { }}" d="M1017.91 739.553C1018.47 738.504 1019.17 737.499 1019.99 736.536C1020.84 735.557 1021.76 734.646 1022.75 733.804C1021.24 733.666 1019.73 733.468 1018.22 733.211C1016.72 732.936 1015.25 732.669 1013.81 732.411C1012.36 732.154 1010.95 731.93 1009.58 731.741C1008.2 731.552 1006.89 731.458 1005.63 731.458C1004.04 731.458 1002.69 731.621 1001.59 731.947C1000.5 732.274 999.628 732.704 998.957 733.236C998.304 733.769 997.832 734.371 997.539 735.041C997.247 735.694 997.101 736.365 997.101 737.052C997.101 737.705 997.221 738.333 997.462 738.934C997.703 739.518 998.055 740.043 998.519 740.507C998.983 740.954 999.559 741.315 1000.25 741.59C1000.93 741.865 1001.73 742.002 1002.64 742.002C1003.16 742.002 1003.71 741.959 1004.29 741.873C1004.88 741.787 1005.46 741.667 1006.05 741.512C1006.65 741.34 1007.23 741.143 1007.8 740.919C1008.37 740.696 1008.88 740.447 1009.35 740.172L1009.86 740.79C1009.3 741.117 1008.7 741.409 1008.08 741.667C1007.47 741.908 1006.84 742.122 1006.2 742.311C1005.58 742.483 1004.96 742.621 1004.32 742.724C1003.7 742.81 1003.11 742.853 1002.54 742.853C1001.51 742.853 1000.59 742.707 999.782 742.415C998.992 742.105 998.313 741.693 997.746 741.177C997.196 740.644 996.774 740.026 996.482 739.321C996.19 738.616 996.044 737.86 996.044 737.052C996.044 735.969 996.302 734.972 996.817 734.061C997.333 733.133 998.089 732.334 999.086 731.664C1000.1 730.993 1001.35 730.469 1002.85 730.091C1004.36 729.713 1006.1 729.524 1008.06 729.524C1009.52 729.524 1010.98 729.618 1012.44 729.808C1013.92 729.997 1015.41 730.211 1016.9 730.452C1018.4 730.676 1019.91 730.89 1021.44 731.097C1022.97 731.303 1024.53 731.432 1026.13 731.483C1027.51 730.71 1028.92 730.1 1030.36 729.653C1031.82 729.189 1033.28 728.957 1034.74 728.957C1035.48 728.957 1035.98 729.026 1036.24 729.163C1036.51 729.301 1036.65 729.558 1036.65 729.936C1036.65 730.504 1036.38 731.036 1035.85 731.535C1035.32 732.016 1034.58 732.437 1033.63 732.798C1032.69 733.159 1031.58 733.443 1030.31 733.649C1029.04 733.855 1027.65 733.958 1026.16 733.958C1025.92 733.958 1025.67 733.958 1025.41 733.958C1025.17 733.958 1024.93 733.95 1024.69 733.933C1024.21 734.414 1023.8 734.904 1023.48 735.402C1023.32 735.626 1023.17 735.883 1023.01 736.176C1022.87 736.451 1022.7 736.811 1022.5 737.258C1022.31 737.705 1022.08 738.255 1021.83 738.908C1021.57 739.544 1021.26 740.343 1020.9 741.306C1020.55 742.268 1020.13 743.411 1019.63 744.735C1019.15 746.041 1018.59 747.579 1017.96 749.35H1025.49V750.381H1017.6C1016.26 754.162 1014.82 757.419 1013.29 760.152C1011.76 762.885 1010.15 765.136 1008.44 766.907C1006.74 768.66 1004.97 769.958 1003.13 770.8C1001.29 771.625 999.396 772.037 997.436 772.037C996.164 772.037 994.978 771.874 993.878 771.547C992.796 771.221 991.85 770.74 991.042 770.104C990.252 769.45 989.624 768.651 989.16 767.706C988.696 766.761 988.464 765.669 988.464 764.432C988.464 763.607 988.559 762.816 988.748 762.06C988.954 761.304 989.229 760.642 989.573 760.075C989.934 759.49 990.346 759.026 990.81 758.683C991.292 758.322 991.807 758.141 992.357 758.141C992.718 758.141 993.028 758.236 993.285 758.425C993.543 758.597 993.672 758.923 993.672 759.404C993.672 759.8 993.569 760.118 993.363 760.358C993.174 760.582 992.933 760.779 992.641 760.951C992.349 761.106 992.022 761.269 991.661 761.441C991.317 761.596 990.999 761.811 990.707 762.086C990.415 762.343 990.166 762.687 989.96 763.117C989.771 763.547 989.676 764.114 989.676 764.818C989.676 765.798 989.857 766.675 990.217 767.448C990.578 768.222 991.094 768.883 991.764 769.433C992.435 769.966 993.251 770.379 994.214 770.671C995.193 770.963 996.293 771.109 997.514 771.109C998.424 771.109 999.284 771.015 1000.09 770.825C1000.9 770.636 1001.68 770.31 1002.44 769.846C1003.19 769.365 1003.93 768.729 1004.65 767.938C1005.38 767.13 1006.11 766.116 1006.85 764.896C1007.6 763.658 1008.38 762.189 1009.17 760.487C1009.97 758.786 1010.83 756.8 1011.74 754.532C1012.05 753.758 1012.34 753.028 1012.6 752.34C1012.87 751.653 1013.13 751 1013.37 750.381H1006.41V749.35H1013.76C1014.44 747.631 1015 746.222 1015.43 745.122C1015.88 744.022 1016.25 743.119 1016.54 742.415C1016.85 741.71 1017.1 741.151 1017.29 740.739C1017.49 740.309 1017.7 739.914 1017.91 739.553ZM1034.61 729.679C1033.53 729.679 1032.43 729.842 1031.31 730.168C1030.2 730.495 1029.12 730.933 1028.09 731.483C1029.07 731.466 1030.02 731.406 1030.93 731.303C1031.85 731.2 1032.67 731.079 1033.38 730.942C1034.1 730.804 1034.67 730.658 1035.1 730.504C1035.55 730.332 1035.77 730.16 1035.77 729.988C1035.77 729.782 1035.39 729.679 1034.61 729.679ZM1077.48 754.136H1046.38V750.651H1077.48V754.136ZM1077.48 764.696H1046.38V761.211H1077.48V764.696ZM1111.67 780.008V780.589C1108.13 780.536 1106.76 780.219 1105.28 779.269C1103.8 778.318 1102.96 776.153 1102.96 773.197V763.851C1102.96 760.208 1102.01 758.941 1098.47 757.832C1102.01 756.776 1102.96 755.561 1102.96 751.865V742.467C1102.96 739.457 1103.75 737.398 1105.28 736.448C1106.81 735.497 1108.18 735.181 1111.67 735.128V735.709C1108.02 736.659 1106.86 738.243 1106.86 742.203V751.073C1106.86 755.456 1105.86 756.829 1101.9 757.885C1105.86 758.888 1106.86 760.261 1106.86 764.643V773.513C1106.86 777.473 1108.02 779.057 1111.67 780.008ZM1137.04 780.008V780.589C1133.5 780.536 1132.13 780.219 1130.65 779.269C1129.17 778.318 1128.32 776.153 1128.32 773.197V763.851C1128.32 760.208 1127.37 758.941 1123.84 757.832C1127.37 756.776 1128.32 755.561 1128.32 751.865V742.467C1128.32 739.457 1129.12 737.398 1130.65 736.448C1132.18 735.497 1133.55 735.181 1137.04 735.128V735.709C1133.39 736.659 1132.23 738.243 1132.23 742.203V751.073C1132.23 755.456 1131.23 756.829 1127.27 757.885C1131.23 758.888 1132.23 760.261 1132.23 764.643V773.513C1132.23 777.473 1133.39 779.057 1137.04 780.008ZM1185.9 742.52V751.865C1185.9 755.561 1186.85 756.776 1190.39 757.832C1186.85 758.941 1185.9 760.155 1185.9 763.851V773.249C1185.9 776.259 1185.11 778.318 1183.58 779.269C1182.05 780.219 1180.67 780.536 1177.19 780.589V780.008C1180.83 779.057 1181.99 777.473 1181.99 773.513V764.643C1181.99 760.261 1183 758.888 1186.96 757.832C1183 756.829 1181.99 755.509 1181.99 751.073V742.203C1181.99 738.243 1180.83 736.659 1177.19 735.709V735.128C1180.73 735.181 1182.1 735.497 1183.58 736.448C1185.06 737.398 1185.9 739.563 1185.9 742.52ZM1200.08 778.477L1199.55 777.473C1202.45 775.52 1203.93 773.566 1203.93 771.824C1203.93 771.454 1203.61 771.137 1203.19 771.137C1202.77 771.137 1202.24 771.349 1201.66 771.349C1199.71 771.349 1198.6 770.451 1198.6 768.656C1198.6 766.861 1199.87 765.646 1201.77 765.646C1204.14 765.646 1205.99 767.494 1205.99 770.24C1205.99 773.408 1203.72 776.734 1200.08 778.477ZM1240.57 780.008V780.589C1237.04 780.536 1235.66 780.219 1234.19 779.269C1232.71 778.318 1231.86 776.153 1231.86 773.197V763.851C1231.86 760.208 1230.91 758.941 1227.37 757.832C1230.91 756.776 1231.86 755.561 1231.86 751.865V742.467C1231.86 739.457 1232.65 737.398 1234.19 736.448C1235.72 735.497 1237.09 735.181 1240.57 735.128V735.709C1236.93 736.659 1235.77 738.243 1235.77 742.203V751.073C1235.77 755.456 1234.77 756.829 1230.81 757.885C1234.77 758.888 1235.77 760.261 1235.77 764.643V773.513C1235.77 777.473 1236.93 779.057 1240.57 780.008ZM1289.44 742.52V751.865C1289.44 755.561 1290.39 756.776 1293.93 757.832C1290.39 758.941 1289.44 760.155 1289.44 763.851V773.249C1289.44 776.259 1288.65 778.318 1287.12 779.269C1285.58 780.219 1284.21 780.536 1280.73 780.589V780.008C1284.37 779.057 1285.53 777.473 1285.53 773.513V764.643C1285.53 760.261 1286.53 758.888 1290.49 757.832C1286.53 756.829 1285.53 755.509 1285.53 751.073V742.203C1285.53 738.243 1284.37 736.659 1280.73 735.709V735.128C1284.26 735.181 1285.64 735.497 1287.12 736.448C1288.59 737.398 1289.44 739.563 1289.44 742.52ZM1314.81 742.52V751.865C1314.81 755.561 1315.76 756.776 1319.3 757.832C1315.76 758.941 1314.81 760.155 1314.81 763.851V773.249C1314.81 776.259 1314.02 778.318 1312.48 779.269C1310.95 780.219 1309.58 780.536 1306.1 780.589V780.008C1309.74 779.057 1310.9 777.473 1310.9 773.513V764.643C1310.9 760.261 1311.9 758.888 1315.86 757.832C1311.9 756.829 1310.9 755.509 1310.9 751.073V742.203C1310.9 738.243 1309.74 736.659 1306.1 735.709V735.128C1309.63 735.181 1311.01 735.497 1312.48 736.448C1313.96 737.398 1314.81 739.563 1314.81 742.52Z" fill="black"/>
<g id="&#206;&#178;">
<path d="M1266.28 755.127L1266.37 755.175C1270.15 756.046 1272.18 759.627 1272.18 763.401C1272.18 769.303 1267.97 774.916 1262.31 774.916C1260.23 774.916 1258.87 774.529 1257.13 772.932V781.012C1257.13 782.754 1256.65 784.254 1256.36 784.931H1252.29C1252.78 783.915 1253.07 782.415 1253.07 781.012V756.385C1253.07 744.676 1257.33 741.386 1262.55 741.386C1266.37 741.386 1270.29 744.579 1270.29 748.885C1270.29 749.901 1270.1 751.111 1269.57 752.224C1268.94 753.433 1267.92 754.498 1266.28 755.127ZM1257.13 750.966V770.126C1257.13 771.577 1259.6 773.368 1262.16 773.368C1265.74 773.368 1268.02 769.594 1268.02 764.659C1268.02 758.127 1265.41 755.998 1263.95 755.998C1262.94 755.998 1262.7 756.337 1261.73 756.337C1260.62 756.337 1259.84 755.853 1259.84 755.127C1259.84 754.595 1260.33 754.062 1261.87 754.062C1262.31 754.062 1263.66 754.45 1264.39 754.45C1265.79 754.45 1266.37 752.321 1266.37 750.579C1266.37 747.24 1265.45 742.741 1261.68 742.741C1258.68 742.741 1257.13 745.74 1257.13 750.24V750.966Z" fill="#00AA4D"/>
</g>
<g id="&#206;&#177;">
<path d="M1168.1 763.39H1168.83C1168.83 767.067 1167.42 770.116 1165.01 770.116C1163.02 770.116 1161.81 767.938 1161.13 764.793C1159.44 767.842 1157.46 770.116 1153.68 770.116C1148.46 770.116 1144.64 765.422 1144.64 758.842C1144.64 752.697 1148.22 747.375 1154.12 747.375C1158.33 747.375 1160.7 750.956 1161.57 754.439L1163.75 747.859H1168.44L1163.17 760.584C1163.65 762.81 1165.05 767.116 1166.51 767.116C1167.18 767.116 1167.76 766.148 1168.1 763.39ZM1159.25 759.568C1158.72 755.988 1157.46 748.73 1153.88 748.73C1151.46 748.73 1148.99 750.907 1148.99 756.423C1148.99 760.003 1149.81 768.761 1154.12 768.761C1157.46 768.761 1158.76 762.132 1159.25 759.568Z" fill="#2400C6"/>
</g>
</g>
<g id="Group 6">
<g id="Group 4">
<g id=":&#206;&#178;">
<path d="M591.269 631.322C590.387 631.322 589.764 631.139 589.398 630.774C589.054 630.408 588.882 629.946 588.882 629.387V628.806C588.882 628.247 589.054 627.785 589.398 627.419C589.764 627.053 590.387 626.871 591.269 626.871C592.151 626.871 592.764 627.053 593.108 627.419C593.473 627.785 593.656 628.247 593.656 628.806V629.387C593.656 629.946 593.473 630.408 593.108 630.774C592.764 631.139 592.151 631.322 591.269 631.322ZM591.269 618.549C590.387 618.549 589.764 618.366 589.398 618C589.054 617.635 588.882 617.172 588.882 616.613V616.033C588.882 615.474 589.054 615.011 589.398 614.646C589.764 614.28 590.387 614.097 591.269 614.097C592.151 614.097 592.764 614.28 593.108 614.646C593.473 615.011 593.656 615.474 593.656 616.033V616.613C593.656 617.172 593.473 617.635 593.108 618C592.764 618.366 592.151 618.549 591.269 618.549Z" fill="black"/>
<path d="M612.029 618.162L612.094 618.194C614.61 618.774 615.965 621.161 615.965 623.677C615.965 627.613 613.158 631.354 609.384 631.354C607.997 631.354 607.094 631.096 605.933 630.032V635.419C605.933 636.58 605.61 637.58 605.417 638.031H602.707C603.03 637.354 603.223 636.354 603.223 635.419V619C603.223 611.194 606.062 609.001 609.546 609.001C612.094 609.001 614.707 611.13 614.707 614.001C614.707 614.678 614.578 615.484 614.223 616.226C613.803 617.033 613.126 617.742 612.029 618.162ZM605.933 615.388V628.161C605.933 629.129 607.578 630.322 609.288 630.322C611.675 630.322 613.191 627.806 613.191 624.516C613.191 620.161 611.449 618.742 610.481 618.742C609.804 618.742 609.642 618.968 608.997 618.968C608.255 618.968 607.739 618.645 607.739 618.162C607.739 617.807 608.062 617.452 609.094 617.452C609.384 617.452 610.288 617.71 610.771 617.71C611.707 617.71 612.094 616.291 612.094 615.13C612.094 612.904 611.481 609.904 608.965 609.904C606.965 609.904 605.933 611.904 605.933 614.904V615.388Z" fill="#00AA4D"/>
</g>
<g id=":&#206;&#177;">
<path d="M840.356 634.906C839.475 634.906 838.851 634.723 838.486 634.358C838.142 633.992 837.97 633.53 837.97 632.971V632.39C837.97 631.831 838.142 631.369 838.486 631.003C838.851 630.637 839.475 630.455 840.356 630.455C841.238 630.455 841.851 630.637 842.195 631.003C842.561 631.369 842.743 631.831 842.743 632.39V632.971C842.743 633.53 842.561 633.992 842.195 634.358C841.851 634.723 841.238 634.906 840.356 634.906ZM840.356 622.133C839.475 622.133 838.851 621.95 838.486 621.584C838.142 621.219 837.97 620.756 837.97 620.197V619.617C837.97 619.058 838.142 618.595 838.486 618.23C838.851 617.864 839.475 617.681 840.356 617.681C841.238 617.681 841.851 617.864 842.195 618.23C842.561 618.595 842.743 619.058 842.743 619.617V620.197C842.743 620.756 842.561 621.219 842.195 621.584C841.851 621.95 841.238 622.133 840.356 622.133Z" fill="black"/>
<path d="M866.6 630.455H867.084C867.084 632.906 866.149 634.938 864.536 634.938C863.213 634.938 862.407 633.487 861.955 631.39C860.826 633.422 859.504 634.938 856.988 634.938C853.504 634.938 850.956 631.809 850.956 627.423C850.956 623.326 853.343 619.778 857.278 619.778C860.085 619.778 861.665 622.165 862.246 624.487L863.697 620.101H866.826L863.31 628.584C863.633 630.068 864.568 632.938 865.536 632.938C865.987 632.938 866.374 632.293 866.6 630.455ZM860.697 627.906C860.343 625.52 859.504 620.681 857.117 620.681C855.504 620.681 853.859 622.133 853.859 625.81C853.859 628.197 854.407 634.035 857.278 634.035C859.504 634.035 860.375 629.616 860.697 627.906Z" fill="#2400C6"/>
</g>
<g id=":&#206;&#179;">
<path d="M720.293 688.666C719.411 688.666 718.788 688.483 718.422 688.118C718.078 687.752 717.906 687.29 717.906 686.731V686.15C717.906 685.591 718.078 685.129 718.422 684.763C718.788 684.398 719.411 684.215 720.293 684.215C721.175 684.215 721.788 684.398 722.132 684.763C722.497 685.129 722.68 685.591 722.68 686.15V686.731C722.68 687.29 722.497 687.752 722.132 688.118C721.788 688.483 721.175 688.666 720.293 688.666ZM720.293 675.893C719.411 675.893 718.788 675.71 718.422 675.345C718.078 674.979 717.906 674.517 717.906 673.958V673.377C717.906 672.818 718.078 672.356 718.422 671.99C718.788 671.624 719.411 671.442 720.293 671.442C721.175 671.442 721.788 671.624 722.132 671.99C722.497 672.356 722.68 672.818 722.68 673.377V673.958C722.68 674.517 722.497 674.979 722.132 675.345C721.788 675.71 721.175 675.893 720.293 675.893Z" fill="black"/>
<path d="M744.279 673.861L738.279 688.376C738.473 689.247 738.731 690.763 738.731 692.182C738.731 693.892 738.376 695.408 736.763 695.408C735.699 695.408 735.183 694.44 735.183 693.214C735.183 692.44 735.376 691.279 735.763 690.053C736.054 689.086 736.473 688.15 736.828 687.215C736.57 684.828 735.699 675.893 732.634 675.893C731.957 675.893 730.989 676.796 730.764 678.731H730.28C730.28 676.119 731.118 673.635 733.086 673.635C736.828 673.635 737.183 682.473 737.699 685.247L741.053 673.861H744.279Z" fill="#D02525"/>
</g>
<g id=":&#206;&#179;_2">
<path d="M714.021 811.418C713.139 811.418 712.516 811.235 712.15 810.87C711.806 810.504 711.634 810.042 711.634 809.483V808.902C711.634 808.343 711.806 807.881 712.15 807.515C712.516 807.15 713.139 806.967 714.021 806.967C714.903 806.967 715.516 807.15 715.86 807.515C716.225 807.881 716.408 808.343 716.408 808.902V809.483C716.408 810.042 716.225 810.504 715.86 810.87C715.516 811.235 714.903 811.418 714.021 811.418ZM714.021 798.645C713.139 798.645 712.516 798.462 712.15 798.097C711.806 797.731 711.634 797.269 711.634 796.71V796.129C711.634 795.57 711.806 795.107 712.15 794.742C712.516 794.376 713.139 794.194 714.021 794.194C714.903 794.194 715.516 794.376 715.86 794.742C716.225 795.107 716.408 795.57 716.408 796.129V796.71C716.408 797.269 716.225 797.731 715.86 798.097C715.516 798.462 714.903 798.645 714.021 798.645Z" fill="black"/>
<path d="M738.007 796.613L732.007 811.128C732.201 811.999 732.459 813.515 732.459 814.934C732.459 816.644 732.104 818.16 730.491 818.16C729.427 818.16 728.911 817.192 728.911 815.966C728.911 815.192 729.104 814.031 729.491 812.805C729.782 811.838 730.201 810.902 730.556 809.967C730.298 807.58 729.427 798.645 726.362 798.645C725.685 798.645 724.717 799.548 724.492 801.483H724.008C724.008 798.871 724.846 796.387 726.814 796.387C730.556 796.387 730.911 805.225 731.427 807.999L734.781 796.613H738.007Z" fill="#D02525"/>
</g>
</g>
<g id="Group 5">
<path id="Ellipse 5" d="M891.16 761.896C891.16 790.845 867.693 814.312 838.744 814.312C809.796 814.312 786.328 790.845 786.328 761.896C786.328 732.948 809.796 709.48 838.744 709.48C867.693 709.48 891.16 732.948 891.16 761.896Z" fill="white" fill-opacity="0.46" stroke="black" stroke-width="2.688"/>
<path id="Ellipse 6" d="M643.864 761.896C643.864 790.845 620.397 814.312 591.448 814.312C562.5 814.312 539.032 790.845 539.032 761.896C539.032 732.948 562.5 709.48 591.448 709.48C620.397 709.48 643.864 732.948 643.864 761.896Z" fill="white" fill-opacity="0.46" stroke="black" stroke-width="2.688"/>
<g id="Vector 1" filter="url(#filter0_d_6_67)">
<path d="M784.392 730.939C784.862 731.513 785.709 731.598 786.283 731.128C786.858 730.658 786.942 729.811 786.472 729.237L784.392 730.939ZM643.416 730.088L658.415 726.103L647.465 715.106L643.416 730.088ZM786.472 729.237C773.223 713.044 748.058 703.947 722.069 702.299C696.058 700.649 668.777 706.428 651.151 720.501L652.828 722.601C669.752 709.09 696.281 703.357 721.899 704.981C747.538 706.608 771.819 715.572 784.392 730.939L786.472 729.237Z" fill="black"/>
</g>
<g id="Vector 7" filter="url(#filter1_d_6_67)">
<path d="M644.457 797.781C643.987 797.206 643.14 797.122 642.566 797.592C641.991 798.062 641.906 798.909 642.376 799.483L644.457 797.781ZM785.433 798.632L770.434 802.617L781.384 813.614L785.433 798.632ZM642.376 799.483C655.625 815.676 680.79 824.773 706.78 826.421C732.791 828.071 760.072 822.292 777.698 808.219L776.021 806.118C759.097 819.63 732.567 825.363 706.95 823.738C681.311 822.112 657.03 813.148 644.457 797.781L642.376 799.483Z" fill="black"/>
</g>
<path id="Arrow 8" d="M530.575 762.846C531.099 762.321 531.099 761.471 530.575 760.946L522.021 752.392C521.497 751.868 520.646 751.868 520.121 752.392C519.596 752.917 519.596 753.768 520.121 754.293L527.724 761.896L520.121 769.499C519.596 770.024 519.596 770.875 520.121 771.4C520.646 771.924 521.497 771.924 522.021 771.4L530.575 762.846ZM483.032 763.24L529.624 763.24L529.624 760.552L483.032 760.552L483.032 763.24Z" fill="black"/>
<path id="Vector 4" d="M569.054 704.926C569.509 705.513 570.353 705.621 570.94 705.167C571.527 704.713 571.635 703.869 571.18 703.282L569.054 704.926ZM588.037 643.624L588.037 644.968L588.037 643.624ZM610.885 708.136L623.5 699.096L609.364 692.692L610.885 708.136ZM571.18 703.282C562.207 691.682 558.759 676.965 561.403 665.256C562.721 659.419 565.54 654.366 569.9 650.772C574.252 647.183 580.237 644.968 588.037 644.968L588.037 642.28C579.707 642.28 573.092 644.657 568.19 648.698C563.295 652.734 560.207 658.349 558.781 664.664C555.937 677.259 559.659 692.782 569.054 704.926L571.18 703.282ZM588.037 644.968C595.624 644.968 601.347 646.991 605.613 650.242C609.889 653.502 612.799 658.071 614.616 663.32C618.265 673.861 617.43 686.937 614.588 696.741L617.169 697.49C620.117 687.322 621.037 673.653 617.156 662.441C615.208 656.814 612.031 651.755 607.243 648.105C602.444 644.447 596.126 642.28 588.037 642.28L588.037 644.968Z" fill="black"/>
<path id="Vector 6" d="M819.038 704.926C819.492 705.513 820.336 705.621 820.923 705.167C821.51 704.713 821.618 703.869 821.164 703.282L819.038 704.926ZM838.02 643.624L838.02 644.968L838.02 643.624ZM860.869 708.136L873.483 699.096L859.347 692.692L860.869 708.136ZM821.164 703.282C812.191 691.682 808.743 676.965 811.386 665.256C812.704 659.419 815.524 654.366 819.883 650.772C824.236 647.183 830.221 644.968 838.02 644.968L838.02 642.28C829.691 642.28 823.075 644.657 818.173 648.698C813.279 652.734 810.19 658.349 808.764 664.664C805.921 677.259 809.643 692.782 819.038 704.926L821.164 703.282ZM838.02 644.968C845.607 644.968 851.331 646.991 855.596 650.242C859.872 653.502 862.782 658.071 864.599 663.32C868.248 673.861 867.413 686.937 864.571 696.741L867.153 697.49C870.101 687.322 871.021 673.653 867.139 662.441C865.191 656.814 862.014 651.755 857.226 648.105C852.427 644.447 846.109 642.28 838.02 642.28L838.02 644.968Z" fill="black"/>
<path id="a" d="M700.599 810.128C699.588 810.128 698.868 809.87 698.438 809.354C698.008 808.838 697.739 808.193 697.631 807.418H697.47C697.105 808.386 696.513 809.149 695.696 809.709C694.9 810.246 693.825 810.515 692.471 810.515C690.729 810.515 689.342 810.063 688.31 809.16C687.277 808.257 686.761 807.021 686.761 805.451C686.761 803.903 687.32 802.709 688.439 801.87C689.578 801.032 691.406 800.612 693.922 800.612H697.47V798.967C697.47 797.742 697.126 796.828 696.438 796.226C695.75 795.602 694.771 795.29 693.503 795.29C692.385 795.29 691.471 795.516 690.761 795.968C690.051 796.398 689.481 796.989 689.051 797.742L687.31 796.451C687.525 796.021 687.815 795.602 688.18 795.193C688.546 794.785 688.998 794.43 689.535 794.129C690.073 793.806 690.686 793.559 691.374 793.387C692.062 793.194 692.825 793.097 693.664 793.097C695.621 793.097 697.169 793.591 698.309 794.581C699.47 795.57 700.051 796.946 700.051 798.709V807.87H702.373V810.128H700.599ZM692.922 808.354C693.589 808.354 694.191 808.279 694.728 808.128C695.288 807.956 695.771 807.741 696.18 807.483C696.589 807.203 696.9 806.881 697.115 806.515C697.352 806.128 697.47 805.72 697.47 805.29V802.548H693.922C692.374 802.548 691.245 802.763 690.535 803.193C689.826 803.623 689.471 804.247 689.471 805.064V805.741C689.471 806.601 689.772 807.257 690.374 807.709C690.998 808.139 691.847 808.354 692.922 808.354Z" fill="black"/>
<path id="b" d="M693.969 667.091H696.549V677.025H696.678C697.753 674.961 699.463 673.929 701.807 673.929C703.85 673.929 705.441 674.692 706.581 676.219C707.742 677.746 708.323 679.885 708.323 682.638C708.323 685.39 707.742 687.53 706.581 689.057C705.441 690.584 703.85 691.347 701.807 691.347C699.463 691.347 697.753 690.315 696.678 688.25H696.549V690.96H693.969V667.091ZM700.807 689.057C702.312 689.057 703.473 688.605 704.291 687.702C705.129 686.777 705.549 685.562 705.549 684.057V681.219C705.549 679.713 705.129 678.509 704.291 677.606C703.473 676.681 702.312 676.219 700.807 676.219C700.226 676.219 699.678 676.294 699.162 676.445C698.646 676.595 698.194 676.821 697.807 677.122C697.42 677.402 697.108 677.757 696.872 678.187C696.657 678.595 696.549 679.079 696.549 679.638V685.638C696.549 686.197 696.657 686.691 696.872 687.121C697.108 687.53 697.42 687.885 697.807 688.186C698.194 688.465 698.646 688.681 699.162 688.831C699.678 688.982 700.226 689.057 700.807 689.057Z" fill="black"/>
<path id="b_2" d="M563.153 609.747H565.733V619.682H565.862C566.937 617.617 568.647 616.585 570.991 616.585C573.034 616.585 574.625 617.348 575.765 618.875C576.926 620.402 577.507 622.542 577.507 625.294C577.507 628.047 576.926 630.186 575.765 631.713C574.625 633.24 573.034 634.003 570.991 634.003C568.647 634.003 566.937 632.971 565.862 630.907H565.733V633.616H563.153V609.747ZM569.991 631.713C571.496 631.713 572.657 631.262 573.475 630.358C574.313 629.434 574.733 628.219 574.733 626.713V623.875C574.733 622.37 574.313 621.165 573.475 620.262C572.657 619.338 571.496 618.875 569.991 618.875C569.41 618.875 568.862 618.95 568.346 619.101C567.83 619.252 567.378 619.477 566.991 619.778C566.604 620.058 566.292 620.413 566.056 620.843C565.841 621.251 565.733 621.735 565.733 622.294V628.294C565.733 628.853 565.841 629.348 566.056 629.778C566.292 630.186 566.604 630.541 566.991 630.842C567.378 631.122 567.83 631.337 568.346 631.487C568.862 631.638 569.41 631.713 569.991 631.713Z" fill="black"/>
<path id="a_2" d="M825.142 633.616C824.132 633.616 823.411 633.358 822.981 632.842C822.551 632.326 822.282 631.681 822.175 630.907H822.014C821.648 631.874 821.057 632.638 820.24 633.197C819.444 633.734 818.369 634.003 817.014 634.003C815.272 634.003 813.885 633.552 812.853 632.649C811.821 631.745 811.305 630.509 811.305 628.939C811.305 627.391 811.864 626.197 812.982 625.359C814.122 624.52 815.95 624.101 818.466 624.101H822.014V622.456C822.014 621.23 821.67 620.316 820.981 619.714C820.293 619.09 819.315 618.778 818.046 618.778C816.928 618.778 816.014 619.004 815.304 619.456C814.595 619.886 814.025 620.477 813.595 621.23L811.853 619.94C812.068 619.51 812.358 619.09 812.724 618.682C813.09 618.273 813.541 617.918 814.079 617.617C814.616 617.295 815.229 617.047 815.917 616.875C816.605 616.682 817.369 616.585 818.207 616.585C820.164 616.585 821.713 617.08 822.852 618.069C824.014 619.058 824.594 620.434 824.594 622.198V631.358H826.917V633.616H825.142ZM817.466 631.842C818.132 631.842 818.734 631.767 819.272 631.616C819.831 631.444 820.315 631.229 820.723 630.971C821.132 630.692 821.444 630.369 821.659 630.004C821.895 629.616 822.014 629.208 822.014 628.778V626.036H818.466C816.917 626.036 815.788 626.251 815.079 626.681C814.369 627.111 814.014 627.735 814.014 628.552V629.229C814.014 630.09 814.315 630.745 814.917 631.197C815.541 631.627 816.39 631.842 817.466 631.842Z" fill="black"/>
</g>
</g>
</g>
<g id="_mathcal_L___mathcal_A______Sigma___a______Sigma___b__omega" clip-path="url(#clip0_6_67)">
<g id="page1">
<path id="Vector" d="M693.473 950.25C696.532 945.492 697.495 941.866 698.231 938.864C700.214 931.047 702.367 924.249 705.879 920.34C706.559 919.604 707.012 919.094 708.825 919.094C712.733 919.094 712.847 923.002 712.847 923.796C712.847 924.815 712.563 925.608 712.563 925.892C712.563 926.288 712.903 926.288 712.96 926.288C713.866 926.288 715.396 925.665 716.812 924.645C717.832 923.852 718.342 923.286 718.342 920.963C718.342 917.904 716.755 915.582 713.583 915.582C711.77 915.582 706.785 916.035 701.234 921.643C696.702 926.288 694.039 936.485 692.963 940.733C691.943 944.642 691.49 946.398 689.791 949.797C689.394 950.477 687.921 952.969 687.128 953.706C685.599 955.122 685.032 956.142 685.032 956.425C685.032 956.538 685.146 956.765 685.542 956.765C685.769 956.765 686.958 956.538 688.431 955.575C689.394 955.009 689.507 954.896 690.81 953.536C693.643 953.593 695.625 954.102 699.194 955.122C702.083 955.915 704.972 956.765 707.862 956.765C712.45 956.765 717.095 953.309 718.908 950.817C720.041 949.287 720.381 947.871 720.381 947.701C720.381 947.305 720.041 947.305 719.984 947.305C719.078 947.305 717.718 947.928 716.755 948.608C715.226 949.571 715.113 949.91 714.773 950.873C714.489 951.78 714.15 952.233 713.923 952.573C713.47 953.253 713.413 953.253 712.563 953.253C709.844 953.253 707.012 952.403 703.273 951.383C701.687 950.93 698.571 950.024 695.739 950.024C695.002 950.024 694.209 950.08 693.473 950.25Z" fill="black"/>
<path id="Vector_2" d="M740.759 969.284C740.759 969.114 740.759 969.001 739.796 968.038C734.131 962.316 730.958 952.969 730.958 941.413C730.958 930.423 733.621 920.963 740.192 914.278C740.759 913.769 740.759 913.655 740.759 913.485C740.759 913.146 740.475 913.032 740.249 913.032C739.512 913.032 734.867 917.111 732.091 922.662C729.202 928.384 727.899 934.445 727.899 941.413C727.899 946.455 728.692 953.196 731.638 959.257C734.98 966.055 739.626 969.737 740.249 969.737C740.475 969.737 740.759 969.624 740.759 969.284Z" fill="black"/>
<path id="Vector_3" d="M777.625 946.172C777.908 949.741 778.588 952.346 778.871 953.423C779.494 955.972 779.778 957.218 782.214 957.218C784.763 957.218 789.125 954.669 789.125 953.536C789.125 953.253 788.898 953.14 788.615 953.14C787.878 953.14 786.689 953.763 786.519 953.876C786.122 954.103 786.009 954.103 785.896 954.103C784.31 954.103 783.97 952.573 783.29 949.174C782.893 947.305 782.384 945.039 781.93 937.278C781.534 931.5 781.307 925.722 781.307 919.944C781.307 918.584 781.364 917.111 781.364 915.752C781.364 914.845 781.364 914.619 780.741 914.619C779.948 914.619 777.625 915.582 776.605 917.111L776.209 917.734C771.734 927.308 767.542 934.162 764.596 938.751C761.254 943.906 755.362 953.14 752.303 953.14C750.207 953.14 748.451 951.78 747.941 949.741C747.885 949.627 747.771 949.287 747.545 949.287C746.695 949.287 745.449 952.007 745.449 953.593C745.449 955.859 747.885 958.351 750.547 958.351C754.456 958.351 760.97 948.154 762.217 946.172H777.625ZM776.492 921.586V924.872C776.492 928.158 776.605 931.443 776.775 934.729C776.832 935.862 777.059 940.11 777.342 943.056H766.975C766.069 943.056 765.219 943.056 763.746 943.963C767.712 937.844 770.997 931.953 771.337 931.33C774.169 926.288 775.699 923.003 776.435 921.586H776.492Z" fill="black"/>
<path id="Vector_4" d="M805.126 941.413C805.126 937.108 804.559 930.083 801.387 923.512C798.045 916.714 793.4 913.032 792.776 913.032C792.55 913.032 792.267 913.146 792.267 913.485C792.267 913.655 792.267 913.769 793.23 914.732C798.894 920.453 802.067 929.8 802.067 941.356C802.067 952.346 799.404 961.806 792.833 968.491C792.267 969.001 792.267 969.114 792.267 969.284C792.267 969.624 792.55 969.737 792.776 969.737C793.513 969.737 798.158 965.659 800.934 960.107C803.823 954.329 805.126 948.211 805.126 941.413Z" fill="black"/>
<path id="Vector_5" d="M864.695 937.165C865.488 937.165 866.508 937.165 866.508 936.145C866.508 935.069 865.545 935.069 864.695 935.069H831.329C830.536 935.069 829.517 935.069 829.517 936.089C829.517 937.165 830.48 937.165 831.329 937.165H864.695ZM864.695 947.701C865.488 947.701 866.508 947.701 866.508 946.682C866.508 945.605 865.545 945.605 864.695 945.605H831.329C830.536 945.605 829.517 945.605 829.517 946.625C829.517 947.701 830.48 947.701 831.329 947.701H864.695Z" fill="black"/>
<path id="Vector_6" d="M905.388 937.109C905.841 936.542 905.955 936.429 905.955 936.146C905.955 936.032 905.955 935.919 905.615 935.466L894.172 918.471H907.541C917.058 918.471 919.947 920.511 921.023 929.461H922.269L920.796 916.829H889.81C888.45 916.829 888.394 916.829 888.394 918.132L902.159 938.525L889.017 954.047C888.564 954.556 888.45 954.726 888.45 954.953C888.45 955.519 888.903 955.519 889.81 955.519H920.796L922.269 942.32H921.023C920.003 951.667 916.435 953.31 907.371 953.31H891.679L905.388 937.109Z" fill="black"/>
<path id="Vector_7" d="M940.992 927.144C941.332 927.37 941.445 927.37 941.634 927.37C942.238 927.37 942.767 926.879 942.767 926.2C942.767 925.482 942.389 925.331 941.823 925.067C939.292 923.896 938.386 923.481 936.535 922.725L940.954 920.724C941.256 920.61 941.974 920.27 942.276 920.157C942.653 919.931 942.767 919.553 942.767 919.213C942.767 918.76 942.54 918.042 941.407 918.042L935.969 921.743L936.498 916.154C936.573 915.512 936.498 914.568 935.402 914.568C934.723 914.568 934.194 915.134 934.307 915.663V916.116L934.836 921.743L929.813 918.269C929.473 918.042 929.36 918.042 929.171 918.042C928.567 918.042 928.038 918.533 928.038 919.213C928.038 919.931 928.416 920.082 928.982 920.346C931.513 921.517 932.419 921.932 934.269 922.687L929.851 924.689C929.549 924.802 928.831 925.142 928.529 925.256C928.151 925.482 928.038 925.86 928.038 926.2C928.038 926.879 928.567 927.37 929.171 927.37C929.473 927.37 929.549 927.37 930.493 926.691L934.836 923.669L934.269 929.75C934.269 930.505 934.911 930.845 935.402 930.845C935.893 930.845 936.535 930.505 936.535 929.75C936.535 929.372 936.384 928.163 936.347 927.71C936.195 926.426 936.082 924.991 935.969 923.669L940.992 927.144Z" fill="black"/>
<path id="Vector_8" d="M964.869 948.777C964.586 949.74 964.586 949.854 963.793 950.93C962.547 952.516 960.054 954.952 957.392 954.952C955.069 954.952 953.766 952.856 953.766 949.514C953.766 946.398 955.522 940.054 956.599 937.674C958.525 933.709 961.187 931.67 963.396 931.67C967.135 931.67 967.872 936.315 967.872 936.768C967.872 936.825 967.702 937.561 967.645 937.674L964.869 948.777ZM968.495 934.275C967.872 932.803 966.342 930.537 963.396 930.537C956.995 930.537 950.084 938.807 950.084 947.191C950.084 952.799 953.37 956.085 957.222 956.085C960.337 956.085 963 953.649 964.586 951.78C965.152 955.122 967.815 956.085 969.514 956.085C971.214 956.085 972.573 955.065 973.593 953.026C974.499 951.1 975.293 947.644 975.293 947.418C975.293 947.135 975.066 946.908 974.726 946.908C974.216 946.908 974.16 947.191 973.933 948.041C973.083 951.383 972.007 954.952 969.684 954.952C968.042 954.952 967.928 953.479 967.928 952.346C967.928 951.043 968.098 950.42 968.608 948.211C969.005 946.795 969.288 945.548 969.741 943.906C971.837 935.408 972.347 933.369 972.347 933.029C972.347 932.236 971.724 931.613 970.874 931.613C969.061 931.613 968.608 933.596 968.495 934.275Z" fill="black"/>
<path id="Vector_9" d="M1001.14 918.307C1001.14 917.136 1000.8 915.437 999.331 915.437C998.311 915.437 997.329 916.381 997.329 917.439C997.329 918.005 997.745 918.345 998.16 918.723C998.727 919.289 999.293 920.271 999.293 921.668C999.293 924.199 996.687 929.561 992.911 929.561C990.947 929.561 989.587 928.391 989.134 926.578C989.738 925.294 990.531 923.217 990.531 922.159C990.531 921.517 990.229 921.026 989.512 921.026C987.812 921.026 987.586 925.218 987.586 926.427C986.264 928.013 984.716 929.561 982.525 929.561C980.108 929.561 978.975 927.635 978.975 925.407C978.975 923.632 979.466 922.046 980.221 920.573C981.317 918.383 982.789 916.948 982.789 916.343C982.789 915.928 982.45 915.626 982.034 915.626C981.317 915.626 980.75 916.721 980.335 917.401C978.711 920.082 977.54 923.594 977.54 926.729C977.54 929.637 978.635 932.469 981.959 932.469C985.206 932.469 987.057 929.863 987.888 928.806C988.454 930.883 990.003 932.507 992.306 932.507C995.403 932.507 996.952 930.505 998.5 927.9C999.708 925.898 1001.14 920.686 1001.14 918.307Z" fill="black"/>
<path id="Vector_10" d="M1040.79 942.433H1056.43C1057.22 942.433 1058.24 942.433 1058.24 941.413C1058.24 940.337 1057.28 940.337 1056.43 940.337H1040.79V924.702C1040.79 923.909 1040.79 922.889 1039.77 922.889C1038.7 922.889 1038.7 923.852 1038.7 924.702V940.337H1023.06C1022.27 940.337 1021.25 940.337 1021.25 941.357C1021.25 942.433 1022.21 942.433 1023.06 942.433H1038.7V958.068C1038.7 958.861 1038.7 959.881 1039.72 959.881C1040.79 959.881 1040.79 958.918 1040.79 958.068V942.433Z" fill="black"/>
<path id="Vector_11" d="M1093.97 937.109C1094.43 936.542 1094.54 936.429 1094.54 936.146C1094.54 936.032 1094.54 935.919 1094.2 935.466L1082.76 918.471H1096.12C1105.64 918.471 1108.53 920.511 1109.61 929.461H1110.85L1109.38 916.829H1078.39C1077.03 916.829 1076.98 916.829 1076.98 918.132L1090.74 938.525L1077.6 954.047C1077.15 954.556 1077.03 954.726 1077.03 954.953C1077.03 955.519 1077.49 955.519 1078.39 955.519H1109.38L1110.85 942.32H1109.61C1108.59 951.667 1105.02 953.31 1095.95 953.31H1080.26L1093.97 937.109Z" fill="black"/>
<path id="Vector_12" d="M1129.58 927.144C1129.92 927.37 1130.03 927.37 1130.22 927.37C1130.82 927.37 1131.35 926.879 1131.35 926.2C1131.35 925.482 1130.97 925.331 1130.41 925.067C1127.88 923.896 1126.97 923.481 1125.12 922.725L1129.54 920.724C1129.84 920.61 1130.56 920.27 1130.86 920.157C1131.24 919.931 1131.35 919.553 1131.35 919.213C1131.35 918.76 1131.13 918.042 1129.99 918.042L1124.55 921.743L1125.08 916.154C1125.16 915.512 1125.08 914.568 1123.99 914.568C1123.31 914.568 1122.78 915.134 1122.89 915.663V916.116L1123.42 921.743L1118.4 918.269C1118.06 918.042 1117.94 918.042 1117.76 918.042C1117.15 918.042 1116.62 918.533 1116.62 919.213C1116.62 919.931 1117 920.082 1117.57 920.346C1120.1 921.517 1121 921.932 1122.85 922.687L1118.44 924.689C1118.13 924.802 1117.42 925.142 1117.11 925.256C1116.74 925.482 1116.62 925.86 1116.62 926.2C1116.62 926.879 1117.15 927.37 1117.76 927.37C1118.06 927.37 1118.13 927.37 1119.08 926.691L1123.42 923.669L1122.85 929.75C1122.85 930.505 1123.5 930.845 1123.99 930.845C1124.48 930.845 1125.12 930.505 1125.12 929.75C1125.12 929.372 1124.97 928.163 1124.93 927.71C1124.78 926.426 1124.67 924.991 1124.55 923.669L1129.58 927.144Z" fill="black"/>
<path id="Vector_13" d="M1149.49 917.621C1149.55 917.395 1149.66 917.055 1149.66 916.772C1149.66 916.205 1149.09 916.205 1148.98 916.205C1148.92 916.205 1146.88 916.375 1145.86 916.488C1144.9 916.545 1144.05 916.658 1143.03 916.715C1141.67 916.828 1141.27 916.885 1141.27 917.905C1141.27 918.471 1141.84 918.471 1142.41 918.471C1145.3 918.471 1145.3 918.981 1145.3 919.547C1145.3 919.944 1144.84 921.587 1144.62 922.606L1143.26 928.045C1142.69 930.311 1139.46 943.17 1139.24 944.189C1138.95 945.606 1138.95 946.569 1138.95 947.305C1138.95 953.083 1142.18 956.086 1145.86 956.086C1152.43 956.086 1159.23 947.645 1159.23 939.431C1159.23 934.219 1156.29 930.537 1152.04 930.537C1149.09 930.537 1146.43 932.973 1145.35 934.106L1149.49 917.621ZM1145.92 954.953C1144.11 954.953 1142.12 953.593 1142.12 949.174C1142.12 947.305 1142.29 946.229 1143.31 942.263C1143.48 941.527 1144.39 937.901 1144.62 937.165C1144.73 936.712 1148.07 931.67 1151.92 931.67C1154.42 931.67 1155.55 934.163 1155.55 937.108C1155.55 939.827 1153.96 946.229 1152.55 949.174C1151.13 952.233 1148.53 954.953 1145.92 954.953Z" fill="black"/>
<path id="Vector_14" d="M1184.19 918.307C1184.19 917.136 1183.85 915.437 1182.38 915.437C1181.36 915.437 1180.38 916.381 1180.38 917.439C1180.38 918.005 1180.8 918.345 1181.21 918.723C1181.78 919.289 1182.34 920.271 1182.34 921.668C1182.34 924.199 1179.74 929.561 1175.96 929.561C1174 929.561 1172.64 928.391 1172.18 926.578C1172.79 925.294 1173.58 923.217 1173.58 922.159C1173.58 921.517 1173.28 921.026 1172.56 921.026C1170.86 921.026 1170.64 925.218 1170.64 926.427C1169.31 928.013 1167.77 929.561 1165.58 929.561C1163.16 929.561 1162.03 927.635 1162.03 925.407C1162.03 923.632 1162.52 922.046 1163.27 920.573C1164.37 918.383 1165.84 916.948 1165.84 916.343C1165.84 915.928 1165.5 915.626 1165.08 915.626C1164.37 915.626 1163.8 916.721 1163.39 917.401C1161.76 920.082 1160.59 923.594 1160.59 926.729C1160.59 929.637 1161.69 932.469 1165.01 932.469C1168.26 932.469 1170.11 929.863 1170.94 928.806C1171.51 930.883 1173.05 932.507 1175.36 932.507C1178.45 932.507 1180 930.505 1181.55 927.9C1182.76 925.898 1184.19 920.686 1184.19 918.307Z" fill="black"/>
</g>
</g>
</g>
<defs>
<filter id="filter0_d_6_67" x="639.832" y="702.025" width="150.528" height="36.5742" filterUnits="userSpaceOnUse" color-interpolation-filters="sRGB">
<feFlood flood-opacity="0" result="BackgroundImageFix"/>
<feColorMatrix in="SourceAlpha" type="matrix" values="0 0 0 0 0 0 0 0 0 0 0 0 0 0 0 0 0 0 127 0" result="hardAlpha"/>
<feOffset dy="3.584"/>
<feGaussianBlur stdDeviation="1.792"/>
<feComposite in2="hardAlpha" operator="out"/>
<feColorMatrix type="matrix" values="0 0 0 0 0 0 0 0 0 0 0 0 0 0 0 0 0 0 0.25 0"/>
<feBlend mode="normal" in2="BackgroundImageFix" result="effect1_dropShadow_6_67"/>
<feBlend mode="normal" in="SourceGraphic" in2="effect1_dropShadow_6_67" result="shape"/>
</filter>
<filter id="filter1_d_6_67" x="638.489" y="797.288" width="150.528" height="36.5742" filterUnits="userSpaceOnUse" color-interpolation-filters="sRGB">
<feFlood flood-opacity="0" result="BackgroundImageFix"/>
<feColorMatrix in="SourceAlpha" type="matrix" values="0 0 0 0 0 0 0 0 0 0 0 0 0 0 0 0 0 0 127 0" result="hardAlpha"/>
<feOffset dy="3.584"/>
<feGaussianBlur stdDeviation="1.792"/>
<feComposite in2="hardAlpha" operator="out"/>
<feColorMatrix type="matrix" values="0 0 0 0 0 0 0 0 0 0 0 0 0 0 0 0 0 0 0.25 0"/>
<feBlend mode="normal" in2="BackgroundImageFix" result="effect1_dropShadow_6_67"/>
<feBlend mode="normal" in="SourceGraphic" in2="effect1_dropShadow_6_67" result="shape"/>
</filter>
<clipPath id="clip0_6_67">
<rect width="499.161" height="56.705" fill="white" transform="translate(685.032 913.032)"/>
</clipPath>
</defs>
</svg>
