<svg width="1921" height="1081" viewBox="0 0 1921 1081" fill="none" xmlns="http://www.w3.org/2000/svg">
<g id="summary">
<rect width="1920" height="1080" transform="translate(0.0976562 0.9375)" fill="white"/>
<path id="Brief summary" d="M244.552 217H222.31V214.492C224.114 214.492 225.456 214.338 226.336 214.03C227.216 213.722 227.81 213.128 228.118 212.248C228.426 211.368 228.58 210.07 228.58 208.354V182.02C228.58 180.304 228.404 179.028 228.052 178.192C227.744 177.356 227.15 176.828 226.27 176.608C225.39 176.344 224.07 176.212 222.31 176.212V173.638H242.836C246.84 173.638 250.008 174.056 252.34 174.892C254.672 175.684 256.344 176.828 257.356 178.324C258.368 179.82 258.874 181.602 258.874 183.67C258.874 186.618 257.972 188.84 256.168 190.336C254.408 191.832 252.12 192.954 249.304 193.702V194.098C251.196 194.362 253.022 194.89 254.782 195.682C256.586 196.474 258.06 197.64 259.204 199.18C260.348 200.676 260.92 202.722 260.92 205.318C260.92 209.146 259.49 212.05 256.63 214.03C253.814 216.01 249.788 217 244.552 217ZM241.12 214.03C242.484 214.03 243.782 213.942 245.014 213.766C246.29 213.59 247.39 213.238 248.314 212.71C249.282 212.138 250.03 211.28 250.558 210.136C251.13 208.948 251.416 207.342 251.416 205.318C251.416 202.722 250.91 200.764 249.898 199.444C248.93 198.08 247.676 197.178 246.136 196.738C244.596 196.254 242.924 196.012 241.12 196.012H237.028V213.832C237.688 213.876 238.348 213.92 239.008 213.964C239.668 214.008 240.372 214.03 241.12 214.03ZM237.028 177.07V192.778H240.724C244.244 192.778 246.62 192.162 247.852 190.93C249.128 189.654 249.766 187.564 249.766 184.66C249.766 182.064 249.106 180.128 247.786 178.852C246.466 177.532 244.024 176.872 240.46 176.872C239.932 176.872 239.382 176.894 238.81 176.938C238.238 176.938 237.644 176.982 237.028 177.07ZM283.779 217H264.573V214.624C266.025 214.624 267.081 214.514 267.741 214.294C268.445 214.03 268.907 213.568 269.127 212.908C269.347 212.248 269.457 211.302 269.457 210.07V193.174C269.457 191.986 269.303 191.084 268.995 190.468C268.731 189.852 268.005 189.544 266.817 189.544C266.157 189.544 265.651 189.566 265.299 189.61C264.947 189.654 264.771 189.676 264.771 189.676V187.234L274.341 185.188H277.311V192.052H277.509C278.697 190.468 279.687 189.148 280.479 188.092C281.271 186.992 282.085 186.178 282.921 185.65C283.801 185.078 284.879 184.792 286.155 184.792C287.695 184.792 288.839 185.232 289.587 186.112C290.379 186.948 290.775 188.092 290.775 189.544C290.775 191.216 290.401 192.426 289.653 193.174C288.905 193.878 288.069 194.23 287.145 194.23C286.265 194.23 285.495 194.032 284.835 193.636C284.219 193.196 283.691 192.756 283.251 192.316C282.811 191.876 282.437 191.656 282.129 191.656C281.381 191.656 280.589 192.052 279.753 192.844C278.961 193.592 278.191 194.494 277.443 195.55V209.674C277.443 211.082 277.641 212.138 278.037 212.842C278.433 213.546 279.093 214.03 280.017 214.294C280.941 214.514 282.195 214.624 283.779 214.624V217ZM310.365 217H292.545V214.624C294.041 214.624 295.119 214.514 295.779 214.294C296.439 214.03 296.879 213.546 297.099 212.842C297.319 212.138 297.429 211.17 297.429 209.938V192.514C297.429 191.062 297.143 190.182 296.571 189.874C295.999 189.522 295.229 189.346 294.261 189.346C293.821 189.346 293.425 189.368 293.073 189.412C292.721 189.456 292.545 189.478 292.545 189.478V187.036L301.851 185.188H305.415V209.806C305.415 211.082 305.525 212.072 305.745 212.776C305.965 213.48 306.427 213.964 307.131 214.228C307.835 214.492 308.913 214.624 310.365 214.624V217ZM301.323 180.634C299.871 180.634 298.705 180.216 297.825 179.38C296.989 178.5 296.571 177.378 296.571 176.014C296.571 174.694 296.989 173.594 297.825 172.714C298.661 171.834 299.827 171.394 301.323 171.394C302.863 171.394 304.029 171.834 304.821 172.714C305.657 173.55 306.075 174.65 306.075 176.014C306.075 177.378 305.657 178.5 304.821 179.38C304.029 180.216 302.863 180.634 301.323 180.634ZM328.547 217.726C325.511 217.726 322.893 217.11 320.693 215.878C318.537 214.602 316.865 212.754 315.677 210.334C314.489 207.914 313.895 204.966 313.895 201.49C313.895 197.706 314.577 194.604 315.941 192.184C317.305 189.764 319.131 187.96 321.419 186.772C323.751 185.584 326.281 184.99 329.009 184.99C332.969 184.99 336.159 186.266 338.579 188.818C340.999 191.326 342.253 195 342.341 199.84H321.287L321.221 196.936H333.497C333.497 195.22 333.299 193.68 332.903 192.316C332.551 190.908 331.979 189.808 331.187 189.016C330.439 188.224 329.405 187.828 328.085 187.828C325.841 187.828 324.235 188.752 323.267 190.6C322.343 192.448 321.881 195.264 321.881 199.048C321.881 201.996 322.277 204.372 323.069 206.176C323.861 207.98 324.961 209.3 326.369 210.136C327.777 210.972 329.427 211.39 331.319 211.39C333.079 211.39 334.531 211.192 335.675 210.796C336.863 210.4 337.875 209.85 338.711 209.146C339.591 208.398 340.383 207.584 341.087 206.704L342.671 207.76C342.011 209.036 341.285 210.268 340.493 211.456C339.745 212.644 338.843 213.7 337.787 214.624C336.775 215.548 335.521 216.296 334.025 216.868C332.529 217.44 330.703 217.726 328.547 217.726ZM365.579 217H345.119V214.624C346.791 214.624 348.023 214.492 348.815 214.228C349.607 213.964 350.135 213.392 350.399 212.512C350.707 211.632 350.861 210.312 350.861 208.552V187.696C350.861 185.452 350.905 183.56 350.993 182.02C351.125 180.436 351.411 179.05 351.851 177.862C352.291 176.674 352.995 175.508 353.963 174.364C355.195 172.824 356.581 171.68 358.121 170.932C359.705 170.14 361.751 169.744 364.259 169.744C365.799 169.744 367.207 169.92 368.483 170.272C369.759 170.624 370.771 171.196 371.519 171.988C372.267 172.736 372.641 173.77 372.641 175.09C372.641 176.278 372.267 177.136 371.519 177.664C370.815 178.192 370.045 178.456 369.209 178.456C368.285 178.456 367.537 178.214 366.965 177.73C366.437 177.202 365.887 176.41 365.315 175.354C364.787 174.342 364.281 173.66 363.797 173.308C363.357 172.912 362.807 172.714 362.147 172.714C360.871 172.714 359.991 173.264 359.507 174.364C359.067 175.464 358.847 177.334 358.847 179.974V208.552C358.847 210.268 359.023 211.566 359.375 212.446C359.727 213.282 360.387 213.854 361.355 214.162C362.323 214.47 363.731 214.624 365.579 214.624V217ZM367.031 189.676H345.647V186.112H367.031V189.676ZM388.544 217.726L388.28 205.648H390.722C391.382 208.816 392.35 211.148 393.626 212.644C394.902 214.096 396.75 214.822 399.17 214.822C400.754 214.822 402.052 214.514 403.064 213.898C404.076 213.238 404.582 212.226 404.582 210.862C404.582 210.026 404.384 209.3 403.988 208.684C403.592 208.068 402.866 207.408 401.81 206.704C400.754 206 399.192 205.164 397.124 204.196C395.188 203.228 393.56 202.304 392.24 201.424C390.964 200.5 389.996 199.444 389.336 198.256C388.676 197.068 388.346 195.55 388.346 193.702C388.346 190.974 389.336 188.84 391.316 187.3C393.296 185.76 395.914 184.99 399.17 184.99C401.018 184.99 402.514 185.254 403.658 185.782C404.846 186.266 405.792 186.684 406.496 187.036H406.628L407.684 185.518H409.862L410.06 196.012H407.618C406.782 192.844 405.726 190.688 404.45 189.544C403.174 188.356 401.59 187.762 399.698 187.762C398.202 187.762 397.036 188.114 396.2 188.818C395.364 189.522 394.946 190.446 394.946 191.59C394.946 192.954 395.562 194.032 396.794 194.824C398.07 195.616 399.94 196.65 402.404 197.926C404.34 198.85 406.012 199.796 407.42 200.764C408.872 201.688 409.994 202.766 410.786 203.998C411.578 205.186 411.974 206.704 411.974 208.552C411.974 210.884 411.38 212.732 410.192 214.096C409.048 215.416 407.552 216.362 405.704 216.934C403.856 217.506 401.832 217.792 399.632 217.792C397.696 217.792 396.156 217.594 395.012 217.198C393.912 216.802 392.922 216.384 392.042 215.944H391.778L390.392 217.726H388.544ZM428.794 217.66C425.67 217.66 423.316 216.802 421.732 215.086C420.192 213.37 419.422 210.29 419.422 205.846V192.91C419.422 191.59 419.29 190.644 419.026 190.072C418.762 189.5 418.3 189.148 417.64 189.016C416.98 188.84 416.056 188.752 414.868 188.752V186.376L424.9 185.452H427.408V204.328C427.408 206.484 427.606 208.112 428.002 209.212C428.442 210.312 429.036 211.06 429.784 211.456C430.576 211.852 431.478 212.05 432.49 212.05C433.986 212.05 435.24 211.764 436.252 211.192C437.308 210.576 438.474 209.74 439.75 208.684V192.712C439.75 191.48 439.574 190.578 439.222 190.006C438.914 189.434 438.364 189.082 437.572 188.95C436.78 188.818 435.658 188.752 434.206 188.752V186.376L445.426 185.452H447.736V208.684C447.736 210.708 448.022 212.006 448.594 212.578C449.166 213.15 450.31 213.436 452.026 213.436H452.488V215.614L442.192 217.396H440.08V211.852H439.75C438.43 213.216 437.198 214.338 436.054 215.218C434.954 216.054 433.832 216.67 432.688 217.066C431.544 217.462 430.246 217.66 428.794 217.66ZM493.103 217H475.811V214.624C477.219 214.624 478.231 214.492 478.847 214.228C479.507 213.92 479.925 213.392 480.101 212.644C480.277 211.896 480.365 210.862 480.365 209.542V198.19C480.365 195.198 479.903 193.174 478.979 192.118C478.099 191.062 476.889 190.534 475.349 190.534C474.337 190.534 473.369 190.732 472.445 191.128C471.565 191.524 470.729 192.03 469.937 192.646C469.145 193.218 468.419 193.856 467.759 194.56L467.297 190.6H468.419C470.003 189.148 471.587 187.85 473.171 186.706C474.799 185.562 476.757 184.99 479.045 184.99C481.597 184.99 483.599 185.672 485.051 187.036C486.547 188.4 487.537 190.248 488.021 192.58C488.109 193.064 488.175 193.57 488.219 194.098C488.307 194.626 488.351 195.154 488.351 195.682V209.542C488.351 210.818 488.461 211.83 488.681 212.578C488.901 213.326 489.341 213.854 490.001 214.162C490.661 214.47 491.695 214.624 493.103 214.624V217ZM473.171 217H455.813V214.624C457.221 214.624 458.233 214.492 458.849 214.228C459.509 213.964 459.927 213.48 460.103 212.776C460.279 212.072 460.367 211.104 460.367 209.872V192.382C460.367 191.15 460.147 190.358 459.707 190.006C459.267 189.61 458.585 189.412 457.661 189.412C457.089 189.412 456.649 189.434 456.341 189.478C456.033 189.522 455.879 189.544 455.879 189.544V187.102L465.317 185.188H468.155V191.458L468.353 193.108V210.004C468.353 211.192 468.463 212.138 468.683 212.842C468.903 213.502 469.343 213.964 470.003 214.228C470.707 214.492 471.763 214.624 473.171 214.624V217ZM512.903 217H495.875V214.624C497.239 214.624 498.229 214.47 498.845 214.162C499.461 213.81 499.857 213.26 500.033 212.512C500.209 211.764 500.297 210.774 500.297 209.542V198.322C500.297 196.298 500.077 194.714 499.637 193.57C499.241 192.426 498.647 191.634 497.855 191.194C497.107 190.754 496.205 190.534 495.149 190.534C493.741 190.534 492.377 190.952 491.057 191.788C489.781 192.58 488.637 193.482 487.625 194.494L486.767 190.798H487.823C489.539 189.082 491.277 187.696 493.037 186.64C494.797 185.54 496.689 184.99 498.713 184.99C501.617 184.99 503.927 185.958 505.643 187.894C507.403 189.83 508.283 192.91 508.283 197.134V209.542C508.283 210.774 508.371 211.786 508.547 212.578C508.767 213.326 509.207 213.854 509.867 214.162C510.527 214.47 511.539 214.624 512.903 214.624V217ZM553.367 217H536.075V214.624C537.483 214.624 538.495 214.492 539.111 214.228C539.771 213.92 540.189 213.392 540.365 212.644C540.541 211.896 540.629 210.862 540.629 209.542V198.19C540.629 195.198 540.167 193.174 539.243 192.118C538.363 191.062 537.153 190.534 535.613 190.534C534.601 190.534 533.633 190.732 532.709 191.128C531.829 191.524 530.993 192.03 530.201 192.646C529.409 193.218 528.683 193.856 528.023 194.56L527.561 190.6H528.683C530.267 189.148 531.851 187.85 533.435 186.706C535.063 185.562 537.021 184.99 539.309 184.99C541.861 184.99 543.863 185.672 545.315 187.036C546.811 188.4 547.801 190.248 548.285 192.58C548.373 193.064 548.439 193.57 548.483 194.098C548.571 194.626 548.615 195.154 548.615 195.682V209.542C548.615 210.818 548.725 211.83 548.945 212.578C549.165 213.326 549.605 213.854 550.265 214.162C550.925 214.47 551.959 214.624 553.367 214.624V217ZM533.435 217H516.077V214.624C517.485 214.624 518.497 214.492 519.113 214.228C519.773 213.964 520.191 213.48 520.367 212.776C520.543 212.072 520.631 211.104 520.631 209.872V192.382C520.631 191.15 520.411 190.358 519.971 190.006C519.531 189.61 518.849 189.412 517.925 189.412C517.353 189.412 516.913 189.434 516.605 189.478C516.297 189.522 516.143 189.544 516.143 189.544V187.102L525.581 185.188H528.419V191.458L528.617 193.108V210.004C528.617 211.192 528.727 212.138 528.947 212.842C529.167 213.502 529.607 213.964 530.267 214.228C530.971 214.492 532.027 214.624 533.435 214.624V217ZM573.167 217H556.139V214.624C557.503 214.624 558.493 214.47 559.109 214.162C559.725 213.81 560.121 213.26 560.297 212.512C560.473 211.764 560.561 210.774 560.561 209.542V198.322C560.561 196.298 560.341 194.714 559.901 193.57C559.505 192.426 558.911 191.634 558.119 191.194C557.371 190.754 556.469 190.534 555.413 190.534C554.005 190.534 552.641 190.952 551.321 191.788C550.045 192.58 548.901 193.482 547.889 194.494L547.031 190.798H548.087C549.803 189.082 551.541 187.696 553.301 186.64C555.061 185.54 556.953 184.99 558.977 184.99C561.881 184.99 564.191 185.958 565.907 187.894C567.667 189.83 568.547 192.91 568.547 197.134V209.542C568.547 210.774 568.635 211.786 568.811 212.578C569.031 213.326 569.471 213.854 570.131 214.162C570.791 214.47 571.803 214.624 573.167 214.624V217ZM584.92 217.66C582.456 217.66 580.476 217.022 578.98 215.746C577.528 214.47 576.802 212.6 576.802 210.136C576.802 208.332 577.198 206.814 577.99 205.582C578.782 204.35 579.816 203.316 581.092 202.48C582.412 201.644 583.842 200.94 585.382 200.368C586.966 199.796 588.506 199.312 590.002 198.916C591.542 198.52 592.906 198.146 594.094 197.794V194.758C594.094 191.898 593.72 189.984 592.972 189.016C592.268 188.048 591.058 187.564 589.342 187.564C587.802 187.564 586.79 187.916 586.306 188.62C585.822 189.28 585.58 190.556 585.58 192.448C585.58 193.768 585.206 194.736 584.458 195.352C583.71 195.968 582.808 196.276 581.752 196.276C580.916 196.276 580.102 195.946 579.31 195.286C578.562 194.626 578.188 193.636 578.188 192.316C578.188 190.996 578.672 189.786 579.64 188.686C580.652 187.586 582.06 186.684 583.864 185.98C585.712 185.276 587.868 184.924 590.332 184.924C594.292 184.924 597.24 185.738 599.176 187.366C601.112 188.994 602.08 191.59 602.08 195.154V209.74C602.08 211.06 602.234 211.918 602.542 212.314C602.894 212.71 603.422 212.908 604.126 212.908C604.654 212.908 605.182 212.754 605.71 212.446C606.282 212.094 606.788 211.676 607.228 211.192L608.548 212.512C607.448 214.096 606.282 215.328 605.05 216.208C603.862 217.088 602.168 217.528 599.968 217.528C597.9 217.528 596.514 217.132 595.81 216.34C595.15 215.548 594.71 214.272 594.49 212.512L594.094 211.39V200.236C592.29 200.764 590.684 201.336 589.276 201.952C587.912 202.568 586.834 203.382 586.042 204.394C585.294 205.362 584.92 206.704 584.92 208.42C584.92 210.048 585.228 211.28 585.844 212.116C586.504 212.908 587.406 213.304 588.55 213.304C589.606 213.304 590.596 213.062 591.52 212.578C592.488 212.094 593.566 211.258 594.754 210.07L595.216 213.304H594.292C593.28 214.184 592.334 214.954 591.454 215.614C590.574 216.274 589.628 216.78 588.616 217.132C587.648 217.484 586.416 217.66 584.92 217.66ZM628.861 217H609.655V214.624C611.107 214.624 612.163 214.514 612.823 214.294C613.527 214.03 613.989 213.568 614.209 212.908C614.429 212.248 614.539 211.302 614.539 210.07V193.174C614.539 191.986 614.385 191.084 614.077 190.468C613.813 189.852 613.087 189.544 611.899 189.544C611.239 189.544 610.733 189.566 610.381 189.61C610.029 189.654 609.853 189.676 609.853 189.676V187.234L619.423 185.188H622.393V192.052H622.591C623.779 190.468 624.769 189.148 625.561 188.092C626.353 186.992 627.167 186.178 628.003 185.65C628.883 185.078 629.961 184.792 631.237 184.792C632.777 184.792 633.921 185.232 634.669 186.112C635.461 186.948 635.857 188.092 635.857 189.544C635.857 191.216 635.483 192.426 634.735 193.174C633.987 193.878 633.151 194.23 632.227 194.23C631.347 194.23 630.577 194.032 629.917 193.636C629.301 193.196 628.773 192.756 628.333 192.316C627.893 191.876 627.519 191.656 627.211 191.656C626.463 191.656 625.671 192.052 624.835 192.844C624.043 193.592 623.273 194.494 622.525 195.55V209.674C622.525 211.082 622.723 212.138 623.119 212.842C623.515 213.546 624.175 214.03 625.099 214.294C626.023 214.514 627.277 214.624 628.861 214.624V217ZM641.719 232.51C640.267 232.51 639.035 232.202 638.023 231.586C637.055 230.97 636.571 229.958 636.571 228.55C636.571 227.494 636.857 226.702 637.429 226.174C638.045 225.646 638.815 225.382 639.739 225.382C640.839 225.382 641.829 225.624 642.709 226.108C643.633 226.636 644.447 226.9 645.151 226.9C645.811 226.9 646.515 226.526 647.263 225.778C648.011 225.074 648.693 224.194 649.309 223.138C649.925 222.126 650.409 221.092 650.761 220.036C651.157 218.98 651.355 218.144 651.355 217.528C651.355 216.648 651.025 215.504 650.365 214.096C649.705 212.688 649.067 211.346 648.451 210.07L638.947 190.468C638.595 189.72 638.111 189.148 637.495 188.752C636.923 188.312 636.065 188.092 634.921 188.092V185.782H651.421V188.158C650.013 188.158 649.045 188.312 648.517 188.62C647.989 188.884 647.725 189.302 647.725 189.874C647.725 190.314 647.813 190.776 647.989 191.26C648.209 191.744 648.451 192.25 648.715 192.778L654.853 205.648L655.909 208.948H656.305L662.443 191.128C662.531 190.864 662.597 190.6 662.641 190.336C662.685 190.072 662.707 189.874 662.707 189.742C662.707 189.126 662.399 188.708 661.783 188.488C661.167 188.224 660.331 188.092 659.275 188.092V185.782H671.089V188.092C669.813 188.092 668.867 188.378 668.251 188.95C667.679 189.478 667.129 190.38 666.601 191.656L655.381 218.188C653.973 221.444 652.587 224.128 651.223 226.24C649.903 228.396 648.473 229.98 646.933 230.992C645.393 232.004 643.655 232.51 641.719 232.51Z" fill="black"/>
<path id="Keep_it_simple" d="M663.311 563.131H631.631V559.831C635.004 559.831 637.424 559.574 638.891 559.061C640.431 558.548 641.421 557.521 641.861 555.981C642.301 554.368 642.521 551.948 642.521 548.721V505.381C642.521 502.521 642.337 500.284 641.971 498.671C641.604 496.984 640.651 495.811 639.111 495.151C637.644 494.491 635.151 494.161 631.631 494.161V490.861H663.311V494.161C659.864 494.161 657.371 494.491 655.831 495.151C654.291 495.811 653.337 496.984 652.971 498.671C652.677 500.284 652.531 502.521 652.531 505.381V526.061H653.081L670.901 508.681C673.467 506.261 675.411 504.208 676.731 502.521C678.051 500.834 678.711 499.184 678.711 497.571C678.711 496.398 678.381 495.554 677.721 495.041C677.134 494.454 676.071 494.161 674.531 494.161H672.771V490.861H699.721V494.161C697.667 494.234 695.907 494.528 694.441 495.041C693.047 495.554 691.654 496.361 690.261 497.461C688.941 498.488 687.291 499.918 685.311 501.751L661.441 524.081L693.011 555.101C694.844 556.788 696.531 557.998 698.071 558.731C699.611 559.464 701.737 559.831 704.451 559.831V563.131H672.661V559.831H674.861C676.401 559.831 677.501 559.684 678.161 559.391C678.821 559.024 679.151 558.438 679.151 557.631C679.151 556.384 678.601 554.991 677.501 553.451C676.401 551.911 674.677 549.968 672.331 547.621C669.984 545.201 666.941 542.194 663.201 538.601L653.521 528.921H652.531V548.721C652.531 551.801 652.751 554.148 653.191 555.761C653.631 557.301 654.621 558.364 656.161 558.951C657.701 559.538 660.084 559.831 663.311 559.831V563.131ZM730.149 564.231C725.749 564.231 721.752 563.204 718.159 561.151C714.639 559.024 711.852 555.944 709.799 551.911C707.745 547.804 706.719 542.818 706.719 536.951C706.719 530.791 707.745 525.731 709.799 521.771C711.925 517.738 714.749 514.731 718.269 512.751C721.789 510.771 725.675 509.781 729.929 509.781C735.942 509.781 740.782 511.871 744.449 516.051C748.115 520.231 750.095 526.171 750.389 533.871H714.639L714.529 529.801H740.049C739.975 527.088 739.499 524.558 738.619 522.211C737.739 519.791 736.455 517.848 734.769 516.381C733.082 514.914 730.919 514.181 728.279 514.181C724.025 514.181 720.835 515.868 718.709 519.241C716.582 522.541 715.519 527.234 715.519 533.321C715.519 538.381 716.325 542.598 717.939 545.971C719.552 549.344 721.679 551.874 724.319 553.561C726.959 555.174 729.782 555.981 732.789 555.981C735.795 555.981 738.215 555.578 740.049 554.771C741.955 553.964 743.569 552.938 744.889 551.691C746.209 550.371 747.455 548.941 748.629 547.401L750.719 548.941C749.765 550.994 748.665 552.974 747.419 554.881C746.172 556.714 744.742 558.328 743.129 559.721C741.589 561.114 739.755 562.214 737.629 563.021C735.502 563.828 733.009 564.231 730.149 564.231ZM781.174 564.231C776.774 564.231 772.777 563.204 769.184 561.151C765.664 559.024 762.877 555.944 760.824 551.911C758.771 547.804 757.744 542.818 757.744 536.951C757.744 530.791 758.771 525.731 760.824 521.771C762.951 517.738 765.774 514.731 769.294 512.751C772.814 510.771 776.701 509.781 780.954 509.781C786.967 509.781 791.807 511.871 795.474 516.051C799.141 520.231 801.121 526.171 801.414 533.871H765.664L765.554 529.801H791.074C791.001 527.088 790.524 524.558 789.644 522.211C788.764 519.791 787.481 517.848 785.794 516.381C784.107 514.914 781.944 514.181 779.304 514.181C775.051 514.181 771.861 515.868 769.734 519.241C767.607 522.541 766.544 527.234 766.544 533.321C766.544 538.381 767.351 542.598 768.964 545.971C770.577 549.344 772.704 551.874 775.344 553.561C777.984 555.174 780.807 555.981 783.814 555.981C786.821 555.981 789.241 555.578 791.074 554.771C792.981 553.964 794.594 552.938 795.914 551.691C797.234 550.371 798.481 548.941 799.654 547.401L801.744 548.941C800.791 550.994 799.691 552.974 798.444 554.881C797.197 556.714 795.767 558.328 794.154 559.721C792.614 561.114 790.781 562.214 788.654 563.021C786.527 563.828 784.034 564.231 781.174 564.231ZM835.279 587.331H807.449V584.251C810.896 584.251 813.096 583.664 814.049 582.491C815.003 581.391 815.479 579.301 815.479 576.221V521.771C815.479 519.644 815.223 518.178 814.709 517.371C814.269 516.564 813.133 516.161 811.299 516.161C810.566 516.161 809.796 516.198 808.989 516.271C808.183 516.344 807.779 516.381 807.779 516.381V513.191L821.639 510.111H824.389V519.351H824.719C827.359 516.271 830.036 513.924 832.749 512.311C835.536 510.624 838.543 509.781 841.769 509.781C845.436 509.781 848.626 510.844 851.339 512.971C854.126 515.024 856.289 517.921 857.829 521.661C859.443 525.328 860.249 529.581 860.249 534.421C860.249 540.654 859.149 546.008 856.949 550.481C854.823 554.881 851.926 558.291 848.259 560.711C844.593 563.058 840.559 564.231 836.159 564.231C834.106 564.231 832.126 563.974 830.219 563.461C828.386 563.021 826.663 562.251 825.049 561.151H824.609V575.561C824.609 577.908 824.903 579.704 825.489 580.951C826.076 582.198 827.139 583.041 828.679 583.481C830.219 583.921 832.419 584.141 835.279 584.141V587.331ZM836.709 559.941C840.596 559.941 843.823 558.108 846.389 554.441C848.956 550.774 850.239 545.128 850.239 537.501C850.239 530.534 849.103 525.438 846.829 522.211C844.556 518.911 841.366 517.261 837.259 517.261C834.326 517.261 831.723 518.031 829.449 519.571C827.249 521.111 825.636 522.578 824.609 523.971V552.681C825.343 553.414 826.259 554.368 827.359 555.541C828.459 556.714 829.779 557.741 831.319 558.621C832.859 559.501 834.656 559.941 836.709 559.941ZM918.27 563.131H893.52V560.051C896.013 560.051 897.773 559.831 898.8 559.391C899.9 558.878 900.56 558.034 900.78 556.861C901.073 555.688 901.22 554.074 901.22 552.021V521.331C901.22 518.984 900.817 517.554 900.01 517.041C899.203 516.454 897.993 516.161 896.38 516.161C895.647 516.161 894.987 516.198 894.4 516.271C893.887 516.344 893.63 516.381 893.63 516.381V513.191L907.49 510.111H910.35V552.021C910.35 554.148 910.497 555.798 910.79 556.971C911.083 558.144 911.78 558.951 912.88 559.391C914.053 559.831 915.85 560.051 918.27 560.051V563.131ZM905.95 501.531C904.117 501.531 902.613 500.908 901.44 499.661C900.267 498.414 899.68 496.948 899.68 495.261C899.68 493.574 900.23 492.144 901.33 490.971C902.503 489.724 904.043 489.101 905.95 489.101C907.857 489.101 909.36 489.724 910.46 490.971C911.633 492.144 912.22 493.574 912.22 495.261C912.22 496.948 911.633 498.414 910.46 499.661C909.36 500.908 907.857 501.531 905.95 501.531ZM953.597 553.231L955.687 554.991C954.294 556.971 952.974 558.658 951.727 560.051C950.554 561.371 949.234 562.398 947.767 563.131C946.301 563.864 944.394 564.231 942.047 564.231C938.381 564.231 935.704 563.168 934.017 561.041C932.331 558.841 931.487 555.284 931.487 550.371V516.271H925.437V513.741C928.004 512.128 930.204 509.964 932.037 507.251C933.944 504.464 935.887 500.724 937.867 496.031H940.617V511.651H953.047V516.271H940.617V547.291C940.617 551.178 940.947 553.891 941.607 555.431C942.341 556.971 943.771 557.741 945.897 557.741C947.657 557.741 949.014 557.374 949.967 556.641C950.994 555.908 952.204 554.771 953.597 553.231ZM986.573 564.011L986.243 545.091H989.103C990.276 550.738 992 554.698 994.273 556.971C996.546 559.171 999.7 560.271 1003.73 560.271C1006.52 560.271 1008.79 559.721 1010.55 558.621C1012.31 557.448 1013.19 555.578 1013.19 553.011C1013.19 551.251 1012.86 549.784 1012.2 548.611C1011.62 547.438 1010.44 546.264 1008.68 545.091C1006.92 543.844 1004.32 542.378 1000.87 540.691C997.5 539.004 994.75 537.391 992.623 535.851C990.496 534.238 988.92 532.478 987.893 530.571C986.866 528.664 986.353 526.354 986.353 523.641C986.353 519.094 987.966 515.648 991.193 513.301C994.493 510.954 998.49 509.781 1003.18 509.781C1005.97 509.781 1008.24 510.111 1010 510.771C1011.76 511.358 1013.34 511.981 1014.73 512.641H1014.84L1016.71 510.331H1018.91L1019.24 527.161H1016.27C1015.1 521.954 1013.45 518.398 1011.32 516.491C1009.2 514.511 1006.45 513.521 1003.07 513.521C1000.58 513.521 998.453 514.108 996.693 515.281C995.006 516.454 994.163 518.288 994.163 520.781C994.163 522.908 995.153 524.814 997.133 526.501C999.113 528.188 1002.41 530.204 1007.03 532.551C1010.41 534.311 1013.23 536.034 1015.5 537.721C1017.78 539.334 1019.5 541.131 1020.67 543.111C1021.85 545.018 1022.43 547.328 1022.43 550.041C1022.43 553.488 1021.59 556.274 1019.9 558.401C1018.22 560.454 1015.94 561.958 1013.08 562.911C1010.3 563.864 1007.25 564.341 1003.95 564.341C1000.8 564.341 998.27 564.011 996.363 563.351C994.53 562.691 992.88 562.068 991.413 561.481H991.193L988.883 564.011H986.573ZM1053.62 563.131H1028.87V560.051C1031.36 560.051 1033.12 559.831 1034.15 559.391C1035.25 558.878 1035.91 558.034 1036.13 556.861C1036.42 555.688 1036.57 554.074 1036.57 552.021V521.331C1036.57 518.984 1036.17 517.554 1035.36 517.041C1034.55 516.454 1033.34 516.161 1031.73 516.161C1031 516.161 1030.34 516.198 1029.75 516.271C1029.24 516.344 1028.98 516.381 1028.98 516.381V513.191L1042.84 510.111H1045.7V552.021C1045.7 554.148 1045.85 555.798 1046.14 556.971C1046.43 558.144 1047.13 558.951 1048.23 559.391C1049.4 559.831 1051.2 560.051 1053.62 560.051V563.131ZM1041.3 501.531C1039.47 501.531 1037.96 500.908 1036.79 499.661C1035.62 498.414 1035.03 496.948 1035.03 495.261C1035.03 493.574 1035.58 492.144 1036.68 490.971C1037.85 489.724 1039.39 489.101 1041.3 489.101C1043.21 489.101 1044.71 489.724 1045.81 490.971C1046.98 492.144 1047.57 493.574 1047.57 495.261C1047.57 496.948 1046.98 498.414 1045.81 499.661C1044.71 500.908 1043.21 501.531 1041.3 501.531ZM1117.22 563.131H1091.15V559.941C1093.79 559.941 1095.7 559.684 1096.87 559.171C1098.04 558.658 1098.78 557.704 1099.07 556.311C1099.44 554.918 1099.62 552.938 1099.62 550.371V528.591C1099.62 523.898 1098.78 520.781 1097.09 519.241C1095.48 517.628 1093.39 516.821 1090.82 516.821C1088.77 516.821 1086.82 517.261 1084.99 518.141C1083.23 519.021 1081.62 520.048 1080.15 521.221C1078.68 522.394 1077.44 523.494 1076.41 524.521L1075.53 519.021H1077.18C1080.19 516.454 1083.08 514.291 1085.87 512.531C1088.66 510.698 1091.92 509.781 1095.66 509.781C1098.96 509.781 1101.6 510.734 1103.58 512.641C1105.63 514.548 1107.17 516.931 1108.2 519.791C1108.35 520.011 1108.46 520.268 1108.53 520.561C1108.6 520.781 1108.68 521.038 1108.75 521.331V550.371C1108.75 552.864 1108.9 554.808 1109.19 556.201C1109.56 557.594 1110.33 558.584 1111.5 559.171C1112.67 559.684 1114.58 559.941 1117.22 559.941V563.131ZM1085.32 563.131H1060.24V559.941C1062.59 559.941 1064.27 559.758 1065.3 559.391C1066.4 558.951 1067.1 558.181 1067.39 557.081C1067.76 555.908 1067.94 554.221 1067.94 552.021V521.221C1067.94 519.241 1067.54 517.921 1066.73 517.261C1066 516.601 1064.86 516.271 1063.32 516.271C1062.51 516.271 1061.82 516.308 1061.23 516.381C1060.64 516.454 1060.35 516.491 1060.35 516.491V513.301L1074.1 510.111H1076.74V520.231L1077.07 522.651V552.461C1077.07 554.514 1077.29 556.091 1077.73 557.191C1078.17 558.218 1078.98 558.951 1080.15 559.391C1081.32 559.758 1083.05 559.941 1085.32 559.941V563.131ZM1147.91 563.131H1123.05V559.941C1125.54 559.941 1127.34 559.611 1128.44 558.951C1129.54 558.291 1130.2 557.264 1130.42 555.871C1130.71 554.404 1130.86 552.571 1130.86 550.371V529.251C1130.86 525.878 1130.42 523.311 1129.54 521.551C1128.73 519.791 1127.6 518.581 1126.13 517.921C1124.74 517.188 1123.16 516.821 1121.4 516.821C1118.98 516.821 1116.6 517.701 1114.25 519.461C1111.9 521.148 1109.78 522.798 1107.87 524.411L1106.66 518.911H1108.31C1111.32 515.904 1114.25 513.631 1117.11 512.091C1119.97 510.551 1122.87 509.781 1125.8 509.781C1130.13 509.781 1133.57 511.138 1136.14 513.851C1138.71 516.564 1139.99 521.258 1139.99 527.931V550.371C1139.99 552.644 1140.1 554.514 1140.32 555.981C1140.61 557.374 1141.31 558.401 1142.41 559.061C1143.58 559.648 1145.42 559.941 1147.91 559.941V563.131ZM1180.64 587.331H1152.81V584.251C1156.26 584.251 1158.46 583.664 1159.41 582.491C1160.36 581.391 1160.84 579.301 1160.84 576.221V521.771C1160.84 519.644 1160.58 518.178 1160.07 517.371C1159.63 516.564 1158.49 516.161 1156.66 516.161C1155.93 516.161 1155.16 516.198 1154.35 516.271C1153.54 516.344 1153.14 516.381 1153.14 516.381V513.191L1167 510.111H1169.75V519.351H1170.08C1172.72 516.271 1175.4 513.924 1178.11 512.311C1180.9 510.624 1183.9 509.781 1187.13 509.781C1190.8 509.781 1193.99 510.844 1196.7 512.971C1199.49 515.024 1201.65 517.921 1203.19 521.661C1204.8 525.328 1205.61 529.581 1205.61 534.421C1205.61 540.654 1204.51 546.008 1202.31 550.481C1200.18 554.881 1197.29 558.291 1193.62 560.711C1189.95 563.058 1185.92 564.231 1181.52 564.231C1179.47 564.231 1177.49 563.974 1175.58 563.461C1173.75 563.021 1172.02 562.251 1170.41 561.151H1169.97V575.561C1169.97 577.908 1170.26 579.704 1170.85 580.951C1171.44 582.198 1172.5 583.041 1174.04 583.481C1175.58 583.921 1177.78 584.141 1180.64 584.141V587.331ZM1182.07 559.941C1185.96 559.941 1189.18 558.108 1191.75 554.441C1194.32 550.774 1195.6 545.128 1195.6 537.501C1195.6 530.534 1194.46 525.438 1192.19 522.211C1189.92 518.911 1186.73 517.261 1182.62 517.261C1179.69 517.261 1177.08 518.031 1174.81 519.571C1172.61 521.111 1171 522.578 1169.97 523.971V552.681C1170.7 553.414 1171.62 554.368 1172.72 555.541C1173.82 556.714 1175.14 557.741 1176.68 558.621C1178.22 559.501 1180.02 559.941 1182.07 559.941ZM1238.07 563.131H1212.77V559.941C1215.19 559.941 1216.95 559.721 1218.05 559.281C1219.15 558.768 1219.81 557.961 1220.03 556.861C1220.33 555.688 1220.47 554.074 1220.47 552.021V496.801C1220.47 494.528 1220.03 493.171 1219.15 492.731C1218.35 492.291 1217.25 492.071 1215.85 492.071C1214.9 492.071 1214.06 492.108 1213.32 492.181C1212.66 492.254 1212.33 492.291 1212.33 492.291V489.321L1226.85 485.471H1229.6V552.021C1229.6 554.148 1229.75 555.798 1230.04 556.971C1230.41 558.071 1231.18 558.841 1232.35 559.281C1233.53 559.721 1235.43 559.941 1238.07 559.941V563.131ZM1267.8 564.231C1263.4 564.231 1259.4 563.204 1255.81 561.151C1252.29 559.024 1249.5 555.944 1247.45 551.911C1245.39 547.804 1244.37 542.818 1244.37 536.951C1244.37 530.791 1245.39 525.731 1247.45 521.771C1249.57 517.738 1252.4 514.731 1255.92 512.751C1259.44 510.771 1263.32 509.781 1267.58 509.781C1273.59 509.781 1278.43 511.871 1282.1 516.051C1285.76 520.231 1287.74 526.171 1288.04 533.871H1252.29L1252.18 529.801H1277.7C1277.62 527.088 1277.15 524.558 1276.27 522.211C1275.39 519.791 1274.1 517.848 1272.42 516.381C1270.73 514.914 1268.57 514.181 1265.93 514.181C1261.67 514.181 1258.48 515.868 1256.36 519.241C1254.23 522.541 1253.17 527.234 1253.17 533.321C1253.17 538.381 1253.97 542.598 1255.59 545.971C1257.2 549.344 1259.33 551.874 1261.97 553.561C1264.61 555.174 1267.43 555.981 1270.44 555.981C1273.44 555.981 1275.86 555.578 1277.7 554.771C1279.6 553.964 1281.22 552.938 1282.54 551.691C1283.86 550.371 1285.1 548.941 1286.28 547.401L1288.37 548.941C1287.41 550.994 1286.31 552.974 1285.07 554.881C1283.82 556.714 1282.39 558.328 1280.78 559.721C1279.24 561.114 1277.4 562.214 1275.28 563.021C1273.15 563.828 1270.66 564.231 1267.8 564.231Z" fill="black"/>
</g>
</svg>
