<svg width="1921" height="1081" viewBox="0 0 1921 1081" fill="none" xmlns="http://www.w3.org/2000/svg">
<g id="Parity">
<rect width="1920" height="1080" transform="translate(0.34375 0.903809)" fill="white"/>
<path id="We assume" d="M741.644 406.335C742.485 403.979 740.241 403.755 737.941 403.586C737.605 403.25 737.605 402.072 737.941 401.735C740.185 401.791 742.654 401.847 744.112 401.847C745.571 401.847 747.366 401.791 748.993 401.735C749.33 402.072 749.33 403.25 748.993 403.586C745.908 403.755 744.842 405.101 744.168 407.008L732.892 437.246C732.612 438.088 732.219 438.705 731.602 438.705C730.929 438.705 730.592 438.144 730.312 437.19L723.86 418.565C723.524 417.611 723.299 416.994 723.075 416.994C722.794 416.994 722.57 417.275 722.121 418.397L713.762 437.19C713.313 438.144 713.033 438.705 712.304 438.705C711.63 438.705 711.35 438.088 711.069 437.19L700.523 406.84C699.457 403.867 699.064 403.755 696.54 403.586C696.203 403.25 696.203 402.072 696.54 401.735C698.166 401.791 699.793 401.847 701.757 401.847C703.945 401.847 706.413 401.791 708.264 401.735C708.601 402.072 708.601 403.25 708.264 403.586C706.301 403.699 704.786 403.979 705.459 405.943L713.65 430.795L713.874 430.851L721.167 414.358C721.56 413.46 721.672 413.011 721.672 412.394C721.672 411.889 721.448 411.328 721.28 410.655L719.989 406.952C719.484 405.55 718.25 403.755 715.277 403.586C714.94 403.25 714.94 402.072 715.277 401.735C717.072 401.791 719.036 401.847 720.887 401.847C723.131 401.847 725.599 401.791 727.899 401.735C728.236 402.072 728.236 403.25 727.899 403.586C725.992 403.755 723.972 403.979 724.982 406.952L732.668 430.627L732.836 430.739L741.644 406.335ZM752.028 422.212L762.182 422.043C762.799 422.043 763.023 421.763 763.023 421.258C763.023 416.545 760.499 415.367 758.367 415.367C757.021 415.367 753.094 415.872 752.028 422.212ZM766.726 432.814C767.399 432.871 767.736 433.151 767.904 433.712C765.66 436.629 762.631 438.593 758.367 438.593C754.328 438.593 751.691 437.246 749.784 435.002C747.932 432.871 747.147 429.841 747.147 426.7C747.147 418.172 753.486 413.516 758.367 413.516C766.165 413.516 767.848 418.565 767.848 423.277C767.848 423.895 767.455 424.231 766.782 424.231L751.859 424.119C751.859 427.373 752.533 429.953 753.655 431.805C755.394 434.666 757.75 435.844 759.77 435.844C763.023 435.844 764.65 434.946 766.726 432.814ZM800.625 424.96L796.193 426.139C792.042 427.204 790.864 429.785 790.864 432.31C790.864 434.049 792.098 436.293 794.903 436.293C796.474 436.293 798.381 435.002 799.84 433.824C800.289 433.488 800.625 433.095 800.625 432.366V424.96ZM800.625 435.339H800.513L799.391 436.237C796.923 438.144 795.184 438.593 793.276 438.593C789.349 438.593 786.208 437.134 786.208 432.534C786.208 428.719 790.078 425.746 795.464 424.399L800.289 423.221C800.457 423.165 800.625 422.941 800.625 422.548C800.625 416.209 797.989 415.255 796.081 415.255C793.949 415.255 791.593 415.872 791.593 417.611C791.593 418.228 791.649 418.565 791.705 418.733C791.818 418.958 791.874 419.35 791.874 419.743C791.874 420.472 790.864 421.651 789.237 421.651C787.947 421.651 787.273 420.977 787.273 419.631C787.273 416.433 791.93 413.404 796.53 413.404C800.625 413.404 805.001 414.919 805.001 422.885V431.131C805.001 433.712 805.057 435.9 806.684 435.9C807.357 435.9 808.311 435.395 808.76 435.002C809.377 435.395 809.601 435.844 809.713 436.517C808.535 437.639 806.516 438.593 804.384 438.593C801.523 438.593 800.962 437.078 800.625 435.339ZM812.52 430.29C812.857 429.953 813.923 429.897 814.259 430.234C814.596 431.636 815.213 434.105 816.447 435.395C817.008 436.012 818.242 436.741 820.43 436.741C822.506 436.741 825.199 435.563 825.199 432.814C825.199 430.402 824.133 429.224 819.477 427.317C815.157 425.521 813.306 423.782 813.306 419.687C813.306 416.097 817.064 413.404 821.216 413.404C824.133 413.404 826.826 414.189 828.565 414.47C828.509 416.321 828.396 418.397 828.228 420.416C827.892 420.753 826.77 420.809 826.433 420.472C825.704 415.704 822.45 415.255 821.216 415.255C819.308 415.255 817.289 416.545 817.289 418.846C817.289 421.931 819.477 422.829 822.899 424.063C826.713 425.465 829.462 427.709 829.462 431.524C829.462 437.078 823.684 438.593 820.542 438.593C818.467 438.593 816.952 438.368 815.437 437.976C815.045 437.863 814.708 437.863 814.315 437.863C814.035 437.863 813.474 437.92 812.913 438.032C812.913 435.676 812.745 433.039 812.52 430.29ZM834.379 430.29C834.716 429.953 835.782 429.897 836.119 430.234C836.455 431.636 837.072 434.105 838.306 435.395C838.867 436.012 840.102 436.741 842.29 436.741C844.365 436.741 847.058 435.563 847.058 432.814C847.058 430.402 845.992 429.224 841.336 427.317C837.016 425.521 835.165 423.782 835.165 419.687C835.165 416.097 838.924 413.404 843.075 413.404C845.992 413.404 848.685 414.189 850.424 414.47C850.368 416.321 850.256 418.397 850.087 420.416C849.751 420.753 848.629 420.809 848.292 420.472C847.563 415.704 844.309 415.255 843.075 415.255C841.168 415.255 839.148 416.545 839.148 418.846C839.148 421.931 841.336 422.829 844.758 424.063C848.573 425.465 851.322 427.709 851.322 431.524C851.322 437.078 845.543 438.593 842.402 438.593C840.326 438.593 838.811 438.368 837.297 437.976C836.904 437.863 836.567 437.863 836.175 437.863C835.894 437.863 835.333 437.92 834.772 438.032C834.772 435.676 834.604 433.039 834.379 430.29ZM865.72 438.593C860.166 438.593 858.483 434.834 858.483 430.963V420.192C858.483 416.545 857.697 415.928 855.005 415.704C854.668 415.367 854.668 414.189 855.005 413.853C856.912 413.909 858.932 413.965 860.727 413.965C861.568 413.965 862.41 413.909 862.69 413.853C862.971 413.853 863.139 414.021 863.139 414.189C863.139 414.189 862.915 418.285 862.915 419.968V430.178C862.915 435.171 865.72 435.956 867.403 435.956C868.805 435.956 870.937 435.058 873.013 433.263C873.798 432.59 873.91 432.141 873.91 431.075V420.248C873.91 416.545 873.181 415.872 870.432 415.704C870.095 415.367 870.095 414.189 870.432 413.853C872.339 413.909 874.359 413.965 876.154 413.965C876.996 413.965 877.837 413.909 878.118 413.853C878.398 413.853 878.567 414.021 878.567 414.189C878.567 414.189 878.342 418.285 878.342 419.968V430.739C878.342 433.488 878.847 434.554 882.437 434.834C882.774 435.171 882.774 436.012 882.437 436.349C879.015 436.741 877.052 437.583 875.818 438.593C875.425 438.761 875.201 438.761 874.752 438.593C874.752 438.593 874.247 436.741 874.135 435.283C874.079 434.89 873.574 435.002 873.293 435.227C870.544 437.471 867.908 438.593 865.72 438.593ZM892.886 417.948C892.886 418.621 893.279 418.285 893.559 417.948C895.859 415.367 898.833 413.404 902.086 413.404C905.004 413.404 907.135 415.255 907.696 417.555C907.809 418.004 908.145 417.724 908.314 417.555C911.231 414.47 914.653 413.404 917.57 413.404C922.507 413.404 923.348 417.331 923.348 422.324V431.188C923.348 435.788 923.853 436.068 926.939 436.293C927.219 436.629 927.219 437.807 926.939 438.144C925.368 438.088 923.404 438.032 921.16 438.032C918.916 438.032 916.841 438.088 915.438 438.144C915.158 437.807 915.158 436.629 915.438 436.293C918.355 436.068 918.916 435.788 918.916 431.188V421.314C918.916 417.555 917.682 416.321 915.55 416.321C913.363 416.321 910.838 417.05 908.145 420.024C908.201 420.697 908.201 421.482 908.201 422.268V431.188C908.201 435.788 908.706 436.068 911.511 436.293C911.792 436.629 911.792 437.807 911.511 438.144C910.109 438.088 908.257 438.032 906.013 438.032C903.769 438.032 901.694 438.088 900.291 438.144C900.011 437.807 900.011 436.629 900.291 436.293C903.321 436.068 903.769 435.788 903.769 431.188V421.426C903.769 417.667 902.199 416.321 900.067 416.321C898.328 416.321 896.196 417.499 894.008 419.631C893.559 420.136 893.054 420.809 893.054 421.987V431.188C893.054 435.788 893.671 436.012 896.476 436.293C896.813 436.629 896.813 437.807 896.476 438.144C894.793 438.088 893.11 438.032 890.866 438.032C888.622 438.032 886.491 438.088 884.808 438.144C884.471 437.807 884.471 436.629 884.808 436.293C887.893 436.068 888.622 435.788 888.622 431.188V420.248C888.622 416.994 888.005 416.714 884.976 416.433C884.864 416.097 884.752 415.199 884.864 414.862C888.735 414.358 890.193 413.853 891.764 413.236C892.213 413.236 892.269 413.46 892.437 413.684C892.662 414.301 892.774 416.321 892.886 417.948ZM934.627 422.212L944.781 422.043C945.398 422.043 945.622 421.763 945.622 421.258C945.622 416.545 943.098 415.367 940.966 415.367C939.62 415.367 935.693 415.872 934.627 422.212ZM949.325 432.814C949.998 432.871 950.335 433.151 950.503 433.712C948.259 436.629 945.23 438.593 940.966 438.593C936.927 438.593 934.29 437.246 932.383 435.002C930.531 432.871 929.746 429.841 929.746 426.7C929.746 418.172 936.085 413.516 940.966 413.516C948.764 413.516 950.447 418.565 950.447 423.277C950.447 423.895 950.054 424.231 949.381 424.231L934.458 424.119C934.458 427.373 935.132 429.953 936.254 431.805C937.993 434.666 940.349 435.844 942.368 435.844C945.622 435.844 947.249 434.946 949.325 432.814Z" fill="black"/>
<g id="C \subseteq\mathbb{N} " clip-path="url(#clip0_6_104)">
<g id="page1">
<path id="Vector" d="M1045.21 397.548C1045.21 396.957 1044.75 396.957 1044.62 396.957C1044.49 396.957 1044.23 396.957 1043.7 397.614L1039.17 403.131C1036.87 399.19 1033.26 396.957 1028.33 396.957C1014.15 396.957 999.433 411.341 999.433 426.777C999.433 437.746 1007.12 444.577 1016.71 444.577C1021.96 444.577 1026.56 442.344 1030.37 439.125C1036.08 434.33 1037.79 427.959 1037.79 427.434C1037.79 426.843 1037.27 426.843 1037.07 426.843C1036.48 426.843 1036.41 427.237 1036.28 427.499C1033.26 437.746 1024.39 442.672 1017.82 442.672C1010.86 442.672 1004.82 438.206 1004.82 428.879C1004.82 426.777 1005.48 415.348 1012.9 406.744C1016.51 402.54 1022.68 398.862 1028.92 398.862C1036.15 398.862 1039.37 404.839 1039.37 411.539C1039.37 413.246 1039.17 414.691 1039.17 414.954C1039.17 415.545 1039.83 415.545 1040.02 415.545C1040.75 415.545 1040.81 415.479 1041.08 414.297L1045.21 397.548Z" fill="black"/>
<path id="Vector_2" d="M1108.41 404.05C1109.52 404.05 1110.71 404.05 1110.71 402.736C1110.71 401.422 1109.52 401.422 1108.41 401.422H1090.74C1079.44 401.422 1070.58 410.027 1070.58 420.405C1070.58 430.979 1079.64 439.452 1090.74 439.452H1108.41C1109.52 439.452 1110.71 439.452 1110.71 438.139C1110.71 436.825 1109.52 436.825 1108.41 436.825H1090.87C1080.49 436.825 1073.2 429.14 1073.2 420.47C1073.2 411.537 1080.69 404.05 1090.87 404.05H1108.41ZM1074.19 449.568C1073.07 449.568 1071.89 449.568 1071.89 450.881C1071.89 452.195 1073.07 452.195 1074.19 452.195H1108.41C1109.52 452.195 1110.71 452.195 1110.71 450.881C1110.71 449.568 1109.52 449.568 1108.41 449.568H1074.19Z" fill="black"/>
<path id="Vector_3" d="M1141.81 404.116V436.17C1141.81 439.651 1141.29 440.833 1137.94 440.899C1137.22 440.899 1136.1 440.964 1136.1 442.015C1136.1 443.198 1137.15 443.198 1138.33 443.198H1148.51C1149.69 443.198 1150.68 443.198 1150.68 442.015C1150.68 440.964 1149.63 440.899 1148.71 440.899C1145.1 440.833 1144.57 439.454 1144.57 436.038V405.956L1172.95 443.46C1173.54 444.248 1173.87 444.445 1174.33 444.445C1175.44 444.445 1175.44 443.395 1175.44 442.278V405.167C1175.44 401.489 1176.03 400.57 1179.05 400.504C1179.45 400.504 1180.57 400.438 1180.57 399.387C1180.57 398.205 1179.58 398.205 1178.4 398.205H1168.81C1167.63 398.205 1166.58 398.205 1166.58 399.387C1166.58 400.504 1167.76 400.504 1168.48 400.504C1172.16 400.57 1172.68 401.883 1172.68 405.364V425.923L1152.85 399.125C1152.19 398.205 1151.99 398.205 1150.48 398.205H1139.05C1137.87 398.205 1136.89 398.205 1136.89 399.387C1136.89 400.373 1137.87 400.504 1138.27 400.504C1140.04 400.701 1141.29 401.752 1141.94 402.54C1141.81 403.066 1141.81 403.197 1141.81 404.116ZM1173.14 439.848L1144.57 402.08C1143.91 401.292 1143.91 401.161 1143.19 400.504H1151.01L1173.14 430.389V439.848Z" fill="black"/>
</g>
</g>
<path id="&#207;&#129; accepting &#226;&#135;&#148; min Inf(&#207;&#129;) is even" d="M609.015 552.187V536.255C609.015 522.791 614.008 518.976 619.562 518.976C626.126 518.976 631.175 523.969 631.175 530.925C631.175 539.06 626.294 545.343 619.618 545.343C617.262 545.343 615.747 544.95 613.728 543.099V552.131C613.728 554.15 613.223 556.17 612.83 556.955H608.118C608.679 555.777 609.015 554.094 609.015 552.187ZM613.728 529.466V539.845C613.728 541.528 616.925 543.548 619.562 543.548C623.601 543.548 626.35 539.06 626.35 532.889C626.35 525.035 623.04 520.547 618.889 520.547C615.579 520.547 613.728 524.081 613.728 529.466ZM663.325 531.71L658.893 532.889C654.742 533.954 653.564 536.535 653.564 539.06C653.564 540.799 654.798 543.043 657.603 543.043C659.174 543.043 661.081 541.752 662.54 540.574C662.989 540.238 663.325 539.845 663.325 539.116V531.71ZM663.325 542.089H663.213L662.091 542.987C659.623 544.894 657.884 545.343 655.976 545.343C652.049 545.343 648.908 543.884 648.908 539.284C648.908 535.469 652.779 532.496 658.164 531.149L662.989 529.971C663.157 529.915 663.325 529.691 663.325 529.298C663.325 522.959 660.689 522.005 658.781 522.005C656.649 522.005 654.293 522.622 654.293 524.361C654.293 524.978 654.349 525.315 654.405 525.483C654.518 525.708 654.574 526.1 654.574 526.493C654.574 527.222 653.564 528.401 651.937 528.401C650.647 528.401 649.974 527.727 649.974 526.381C649.974 523.183 654.63 520.154 659.23 520.154C663.325 520.154 667.701 521.669 667.701 529.635V537.881C667.701 540.462 667.757 542.65 669.384 542.65C670.057 542.65 671.011 542.145 671.46 541.752C672.077 542.145 672.301 542.594 672.414 543.267C671.235 544.389 669.216 545.343 667.084 545.343C664.223 545.343 663.662 543.828 663.325 542.089ZM694.855 539.677C692.05 544.277 689.077 545.343 685.711 545.343C678.642 545.343 674.603 540.35 674.603 533.113C674.603 525.147 680.55 520.154 686.104 520.154C691.489 520.154 694.687 522.398 694.687 525.483C694.687 527.222 693.116 527.952 691.938 527.952C690.76 527.952 689.975 527.447 689.806 525.932C689.582 523.969 689.133 522.005 685.823 522.005C682.121 522.005 679.428 525.708 679.428 531.879C679.428 538.442 682.85 542.594 686.945 542.594C689.358 542.594 691.77 541.36 693.677 538.891C694.182 538.947 694.631 539.172 694.855 539.677ZM718.851 539.677C716.046 544.277 713.073 545.343 709.707 545.343C702.638 545.343 698.599 540.35 698.599 533.113C698.599 525.147 704.546 520.154 710.1 520.154C715.485 520.154 718.683 522.398 718.683 525.483C718.683 527.222 717.112 527.952 715.934 527.952C714.756 527.952 713.971 527.447 713.802 525.932C713.578 523.969 713.129 522.005 709.819 522.005C706.117 522.005 703.424 525.708 703.424 531.879C703.424 538.442 706.846 542.594 710.941 542.594C713.353 542.594 715.766 541.36 717.673 538.891C718.178 538.947 718.627 539.172 718.851 539.677ZM727.476 528.962L737.63 528.793C738.247 528.793 738.471 528.513 738.471 528.008C738.471 523.295 735.947 522.117 733.815 522.117C732.469 522.117 728.542 522.622 727.476 528.962ZM742.174 539.564C742.847 539.621 743.184 539.901 743.352 540.462C741.108 543.379 738.079 545.343 733.815 545.343C729.776 545.343 727.139 543.996 725.232 541.752C723.38 539.621 722.595 536.591 722.595 533.45C722.595 524.922 728.934 520.266 733.815 520.266C741.613 520.266 743.296 525.315 743.296 530.027C743.296 530.645 742.903 530.981 742.23 530.981L727.307 530.869C727.307 534.123 727.981 536.703 729.103 538.555C730.842 541.416 733.198 542.594 735.218 542.594C738.471 542.594 740.098 541.696 742.174 539.564ZM755.428 526.213C754.755 527.054 754.531 527.503 754.531 528.681V538.891C754.531 540.967 754.699 541.247 755.877 542.257C756.887 543.155 758.851 543.435 759.86 543.435C766.144 543.435 767.77 537.713 767.77 533.113C767.77 526.774 764.685 522.734 761.095 522.734C759.412 522.734 756.887 524.417 755.428 526.213ZM754.363 524.137C754.363 524.698 754.643 524.754 754.98 524.361C757.168 521.893 760.029 520.154 762.665 520.154C768.388 520.154 772.595 525.652 772.595 531.598C772.595 536.142 771.08 539.621 768.444 542.201C766.144 544.389 763.339 545.343 760.197 545.343C758.402 545.343 756.663 545.062 755.316 544.501C754.699 544.277 754.531 544.165 754.531 544.894V550.953C754.531 555.609 755.148 555.833 759.131 556.058C759.468 556.394 759.468 557.573 759.131 557.909C757.28 557.853 754.587 557.797 752.343 557.797C750.099 557.797 748.023 557.853 746.06 557.909C745.723 557.573 745.723 556.394 746.06 556.058C749.482 555.89 750.099 555.609 750.099 550.953V526.998C750.099 523.744 749.482 523.464 746.452 523.183C746.34 522.847 746.228 521.949 746.34 521.612C750.211 521.108 751.67 520.603 753.241 519.986C753.689 519.986 753.745 520.21 753.914 520.434C754.138 521.051 754.25 522.454 754.363 524.137ZM777.114 520.715H779.695C779.695 514.488 779.526 514.88 779.526 514.207C779.526 513.871 780.087 513.646 780.761 513.478C781.434 513.254 781.995 513.029 782.668 512.693C783.173 512.412 783.622 512.188 783.902 512.188C784.183 512.188 784.351 512.3 784.351 512.636C784.351 512.636 784.127 514.88 784.127 518.527V520.715H790.859C791.139 520.715 791.307 520.827 791.307 521.051V522.173C791.307 522.678 790.522 522.903 789.961 522.903H784.127V537.096C784.127 540.574 784.463 542.257 785.978 542.257C787.437 542.257 789.12 541.808 790.578 540.686C791.139 540.743 791.476 541.079 791.588 541.64C789.4 544.109 786.595 545.343 784.014 545.343C781.434 545.343 779.695 543.772 779.695 539.789V522.903H776.385C776.16 522.903 776.104 522.847 776.104 522.566V521.837C776.104 521.388 776.329 520.715 777.114 520.715ZM797.501 511.178C797.501 509.831 799.072 508.485 800.418 508.485C801.933 508.485 803.111 510.056 803.111 511.402C803.111 512.636 801.765 514.095 800.194 514.095C798.848 514.095 797.501 512.636 797.501 511.178ZM802.606 537.938C802.606 542.594 803.223 542.818 806.646 543.043C806.982 543.379 806.982 544.557 806.646 544.894C804.794 544.838 802.662 544.782 800.418 544.782C798.174 544.782 795.987 544.838 794.135 544.894C793.799 544.557 793.799 543.379 794.135 543.043C797.557 542.762 798.174 542.594 798.174 537.938V526.998C798.174 523.8 797.557 523.52 794.528 523.183C794.416 522.847 794.304 521.949 794.416 521.612C798.287 521.108 800.475 520.603 802.101 519.986C802.55 519.986 802.831 520.154 802.831 520.378C802.831 520.378 802.606 523.969 802.606 526.774V537.938ZM818.005 524.698C821.315 520.883 824.456 520.154 827.205 520.154C829.169 520.154 830.908 520.827 831.862 522.061C833.152 523.8 833.376 526.493 833.376 529.579V537.938C833.376 542.538 833.993 542.762 837.135 543.043C837.416 543.379 837.416 544.557 837.135 544.894C835.452 544.838 833.432 544.782 831.188 544.782C828.944 544.782 827.149 544.838 825.466 544.894C825.186 544.557 825.186 543.379 825.466 543.043C828.383 542.762 828.944 542.538 828.944 537.938V529.41C828.944 527.727 828.832 526.213 828.271 525.091C827.598 523.8 826.42 523.071 825.298 523.071C823.11 523.071 820.586 524.305 818.454 526.381C818.005 526.886 817.5 527.559 817.5 528.737V537.938C817.5 542.538 818.061 542.762 820.922 543.043C821.259 543.379 821.259 544.557 820.922 544.894C819.239 544.838 817.556 544.782 815.312 544.782C813.068 544.782 810.824 544.838 809.141 544.894C808.805 544.557 808.805 543.379 809.141 543.043C812.507 542.762 813.068 542.538 813.068 537.938V526.998C813.068 523.744 812.451 523.464 809.422 523.183C809.309 522.847 809.197 521.949 809.309 521.612C813.18 521.108 814.639 520.603 816.21 519.986C816.659 519.986 816.715 520.21 816.883 520.434C817.107 521.051 817.276 523.183 817.332 524.698C817.332 525.259 817.612 525.091 818.005 524.698ZM855.984 529.13C855.984 524.474 854.077 521.893 850.542 521.893C847.457 521.893 846.054 523.913 846.054 527.84C846.054 531.43 846.559 535.413 851.272 535.413C853.347 535.413 855.984 534.347 855.984 529.13ZM845.493 545.343C843.867 547.306 843.754 548.709 843.754 550.616C843.754 554.431 848.467 556.058 850.486 556.058C855.535 556.058 861.482 553.926 861.482 549.887C861.482 548.428 860.809 547.643 858.621 546.409C856.994 545.511 854.638 545.455 851.833 545.455C851.047 545.455 849.477 545.623 847.737 545.623C847.008 545.623 846.111 545.511 845.493 545.343ZM862.997 523.071C862.38 523.071 861.65 522.51 861.426 522.061C861.089 521.556 860.697 521.388 860.304 521.388C859.575 521.388 858.453 522.173 858.06 522.734C859.687 524.417 860.472 525.932 860.472 528.569C860.472 534.067 855.928 537.152 850.991 537.152C848.803 537.152 847.233 536.759 845.886 535.974C845.213 536.928 844.876 538.106 844.876 539.228C844.876 541.64 846.84 542.426 848.467 542.426C848.747 542.426 849.308 542.369 850.15 542.313C851.496 542.145 852.899 542.033 853.908 542.033C855.984 542.033 859.911 542.089 862.099 543.884C863.726 545.231 864.567 546.633 864.567 548.428C864.567 554.487 856.377 558.134 848.803 558.134C844.484 558.134 839.883 556.619 839.883 551.738C839.883 549.326 841.454 546.745 844.484 544.95C843.025 544.221 841.903 542.65 841.903 540.63C841.903 538.723 842.801 536.311 844.371 534.964C842.801 533.45 841.454 531.71 841.454 528.681C841.454 523.52 846.054 520.154 851.047 520.154C854.357 520.154 856.209 521.276 856.882 521.725C858.34 519.817 861.033 518.864 862.492 518.864C864.006 518.864 865.072 519.761 865.072 520.939C865.072 522.061 864.063 523.071 862.997 523.071ZM945.015 530.308V530.869C942.49 532.552 933.963 538.835 927.399 545.343L925.829 544.165C927.007 542.874 929.7 540.574 929.7 538.947C929.7 538.33 929.643 538.05 928.017 538.05H912.477C911.018 538.05 910.513 538.162 910.513 539.06C910.513 540.406 912.252 541.584 914.44 544.052L913.15 545.343C906.362 538.947 897.891 532.44 895.31 530.869V530.308C897.891 528.457 906.25 522.117 913.15 515.778L914.44 517.068C913.094 518.639 910.401 520.939 910.401 522.061C910.401 522.903 911.411 523.127 912.309 523.127H928.017C929.139 523.127 929.587 522.454 929.587 521.949C929.587 520.042 927.119 518.583 925.829 517.124L927.399 515.778C934.244 522.061 942.434 528.569 945.015 530.308ZM904.847 534.347H935.366C937.217 533.281 938.676 531.935 938.676 530.588C938.676 529.242 937.217 528.064 935.422 526.83H904.903C903.052 527.896 901.65 529.242 901.593 530.588C901.593 531.879 903.052 533.113 904.847 534.347ZM983.712 524.698C983.712 525.371 984.104 525.035 984.385 524.698C986.685 522.117 989.658 520.154 992.912 520.154C995.829 520.154 997.961 522.005 998.522 524.305C998.634 524.754 998.971 524.474 999.139 524.305C1002.06 521.22 1005.48 520.154 1008.4 520.154C1013.33 520.154 1014.17 524.081 1014.17 529.074V537.938C1014.17 542.538 1014.68 542.818 1017.76 543.043C1018.04 543.379 1018.04 544.557 1017.76 544.894C1016.19 544.838 1014.23 544.782 1011.99 544.782C1009.74 544.782 1007.67 544.838 1006.26 544.894C1005.98 544.557 1005.98 543.379 1006.26 543.043C1009.18 542.818 1009.74 542.538 1009.74 537.938V528.064C1009.74 524.305 1008.51 523.071 1006.38 523.071C1004.19 523.071 1001.66 523.8 998.971 526.774C999.027 527.447 999.027 528.232 999.027 529.018V537.938C999.027 542.538 999.532 542.818 1002.34 543.043C1002.62 543.379 1002.62 544.557 1002.34 544.894C1000.93 544.838 999.083 544.782 996.839 544.782C994.595 544.782 992.519 544.838 991.117 544.894C990.836 544.557 990.836 543.379 991.117 543.043C994.146 542.818 994.595 542.538 994.595 537.938V528.176C994.595 524.417 993.024 523.071 990.892 523.071C989.153 523.071 987.022 524.249 984.834 526.381C984.385 526.886 983.88 527.559 983.88 528.737V537.938C983.88 542.538 984.497 542.762 987.302 543.043C987.639 543.379 987.639 544.557 987.302 544.894C985.619 544.838 983.936 544.782 981.692 544.782C979.448 544.782 977.316 544.838 975.633 544.894C975.297 544.557 975.297 543.379 975.633 543.043C978.719 542.818 979.448 542.538 979.448 537.938V526.998C979.448 523.744 978.831 523.464 975.802 523.183C975.689 522.847 975.577 521.949 975.689 521.612C979.56 521.108 981.019 520.603 982.59 519.986C983.038 519.986 983.095 520.21 983.263 520.434C983.487 521.051 983.599 523.071 983.712 524.698ZM1023.54 511.178C1023.54 509.831 1025.12 508.485 1026.46 508.485C1027.98 508.485 1029.15 510.056 1029.15 511.402C1029.15 512.636 1027.81 514.095 1026.24 514.095C1024.89 514.095 1023.54 512.636 1023.54 511.178ZM1028.65 537.938C1028.65 542.594 1029.27 542.818 1032.69 543.043C1033.03 543.379 1033.03 544.557 1032.69 544.894C1030.84 544.838 1028.71 544.782 1026.46 544.782C1024.22 544.782 1022.03 544.838 1020.18 544.894C1019.84 544.557 1019.84 543.379 1020.18 543.043C1023.6 542.762 1024.22 542.594 1024.22 537.938V526.998C1024.22 523.8 1023.6 523.52 1020.57 523.183C1020.46 522.847 1020.35 521.949 1020.46 521.612C1024.33 521.108 1026.52 520.603 1028.15 519.986C1028.59 519.986 1028.87 520.154 1028.87 520.378C1028.87 520.378 1028.65 523.969 1028.65 526.774V537.938ZM1044.05 524.698C1047.36 520.883 1050.5 520.154 1053.25 520.154C1055.21 520.154 1056.95 520.827 1057.91 522.061C1059.2 523.8 1059.42 526.493 1059.42 529.579V537.938C1059.42 542.538 1060.04 542.762 1063.18 543.043C1063.46 543.379 1063.46 544.557 1063.18 544.894C1061.5 544.838 1059.48 544.782 1057.23 544.782C1054.99 544.782 1053.19 544.838 1051.51 544.894C1051.23 544.557 1051.23 543.379 1051.51 543.043C1054.43 542.762 1054.99 542.538 1054.99 537.938V529.41C1054.99 527.727 1054.88 526.213 1054.31 525.091C1053.64 523.8 1052.46 523.071 1051.34 523.071C1049.15 523.071 1046.63 524.305 1044.5 526.381C1044.05 526.886 1043.54 527.559 1043.54 528.737V537.938C1043.54 542.538 1044.1 542.762 1046.97 543.043C1047.3 543.379 1047.3 544.557 1046.97 544.894C1045.28 544.838 1043.6 544.782 1041.36 544.782C1039.11 544.782 1036.87 544.838 1035.18 544.894C1034.85 544.557 1034.85 543.379 1035.18 543.043C1038.55 542.762 1039.11 542.538 1039.11 537.938V526.998C1039.11 523.744 1038.49 523.464 1035.47 523.183C1035.35 522.847 1035.24 521.949 1035.35 521.612C1039.22 521.108 1040.68 520.603 1042.25 519.986C1042.7 519.986 1042.76 520.21 1042.93 520.434C1043.15 521.051 1043.32 523.183 1043.38 524.698C1043.38 525.259 1043.66 525.091 1044.05 524.698ZM1088.87 537.938C1088.87 542.594 1089.83 542.874 1093.75 543.043C1094.09 543.379 1094.09 544.557 1093.75 544.894C1091.23 544.838 1088.48 544.782 1086.52 544.782C1084.44 544.782 1081.75 544.838 1079.22 544.894C1078.89 544.557 1078.89 543.379 1079.22 543.043C1083.15 542.874 1084.1 542.594 1084.1 537.938V515.441C1084.1 510.785 1083.15 510.505 1079.22 510.336C1078.89 510 1078.89 508.822 1079.22 508.485C1081.86 508.541 1084.55 508.597 1086.46 508.597C1088.59 508.597 1091.28 508.541 1093.75 508.485C1094.09 508.822 1094.09 510 1093.75 510.336C1089.83 510.505 1088.87 510.785 1088.87 515.441V537.938ZM1105.13 524.698C1108.44 520.883 1111.59 520.154 1114.33 520.154C1116.3 520.154 1118.04 520.827 1118.99 522.061C1120.28 523.8 1120.51 526.493 1120.51 529.579V537.938C1120.51 542.538 1121.12 542.762 1124.26 543.043C1124.54 543.379 1124.54 544.557 1124.26 544.894C1122.58 544.838 1120.56 544.782 1118.32 544.782C1116.07 544.782 1114.28 544.838 1112.6 544.894C1112.31 544.557 1112.31 543.379 1112.6 543.043C1115.51 542.762 1116.07 542.538 1116.07 537.938V529.41C1116.07 527.727 1115.96 526.213 1115.4 525.091C1114.73 523.8 1113.55 523.071 1112.43 523.071C1110.24 523.071 1107.71 524.305 1105.58 526.381C1105.13 526.886 1104.63 527.559 1104.63 528.737V537.938C1104.63 542.538 1105.19 542.762 1108.05 543.043C1108.39 543.379 1108.39 544.557 1108.05 544.894C1106.37 544.838 1104.69 544.782 1102.44 544.782C1100.2 544.782 1097.95 544.838 1096.27 544.894C1095.93 544.557 1095.93 543.379 1096.27 543.043C1099.64 542.762 1100.2 542.538 1100.2 537.938V526.998C1100.2 523.744 1099.58 523.464 1096.55 523.183C1096.44 522.847 1096.33 521.949 1096.44 521.612C1100.31 521.108 1101.77 520.603 1103.34 519.986C1103.79 519.986 1103.84 520.21 1104.01 520.434C1104.24 521.051 1104.4 523.183 1104.46 524.698C1104.46 525.259 1104.74 525.091 1105.13 524.698ZM1135.03 537.938C1135.03 542.594 1135.37 542.818 1139.75 543.043C1140.08 543.379 1140.08 544.557 1139.75 544.894C1137.78 544.838 1135.09 544.782 1132.85 544.782C1130.6 544.782 1128.64 544.838 1126.68 544.894C1126.34 544.557 1126.34 543.379 1126.68 543.043C1129.71 542.818 1130.6 542.594 1130.6 537.938V522.903H1126.73C1126.51 522.903 1126.45 522.847 1126.45 522.566V521.837C1126.45 521.388 1126.73 520.715 1127.74 520.715H1130.6V518.471C1130.6 509.719 1135.82 505.624 1140.53 505.624C1142.66 505.624 1144.12 505.792 1145.58 506.802C1146.76 507.7 1147.38 508.709 1147.38 509.663C1147.38 510.785 1146.03 511.963 1145.08 511.963C1143.9 511.963 1143.28 511.178 1142.83 510.168C1142.05 508.205 1141.15 507.531 1139.47 507.531C1137.62 507.531 1135.03 508.878 1135.03 517.517V520.715H1141.09C1141.37 520.715 1141.54 520.827 1141.54 521.051V522.173C1141.54 522.678 1140.76 522.903 1140.25 522.903H1135.03V537.938ZM1145.05 530.645C1145.05 520.21 1150.27 510.841 1156.95 505.119C1157.56 505.175 1157.9 505.568 1158.12 506.129C1156.33 508.148 1149.71 515.89 1149.71 530.645C1149.71 545.399 1156.27 553.141 1158.12 555.272C1157.96 555.721 1157.51 556.114 1156.95 556.226C1145.28 546.128 1145.05 533.169 1145.05 530.645ZM1163.28 552.187V536.255C1163.28 522.791 1168.27 518.976 1173.82 518.976C1180.39 518.976 1185.44 523.969 1185.44 530.925C1185.44 539.06 1180.56 545.343 1173.88 545.343C1171.52 545.343 1170.01 544.95 1167.99 543.099V552.131C1167.99 554.15 1167.48 556.17 1167.09 556.955H1162.38C1162.94 555.777 1163.28 554.094 1163.28 552.187ZM1167.99 529.466V539.845C1167.99 541.528 1171.19 543.548 1173.82 543.548C1177.86 543.548 1180.61 539.06 1180.61 532.889C1180.61 525.035 1177.3 520.547 1173.15 520.547C1169.84 520.547 1167.99 524.081 1167.99 529.466ZM1188.75 507.756L1189.42 506.858C1198.01 512.019 1203.11 521.388 1203.11 530.925C1203.11 541.304 1198.18 549.27 1189.26 554.711L1188.75 553.814C1196.72 547.25 1198.29 541.977 1198.29 531.093C1198.29 520.603 1196.89 514.151 1188.75 507.756ZM1229.93 509.327C1229.93 510.953 1228.7 512.188 1227.01 512.188C1225.44 512.188 1224.21 510.953 1224.21 509.327C1224.21 507.756 1225.5 506.465 1227.07 506.465C1228.7 506.465 1229.93 507.756 1229.93 509.327ZM1234.02 544.782H1220.73V543.94C1224.6 543.716 1225.16 543.211 1225.16 538.947V526.213C1225.16 523.576 1224.71 522.678 1223.31 522.678C1222.8 522.678 1221.96 522.678 1220.95 522.959V522.061L1229.65 518.976L1229.87 519.2V538.891C1229.87 543.043 1230.32 543.66 1234.02 543.94V544.782ZM1244.2 527.896L1250.03 531.43C1253.62 533.618 1254.97 535.133 1254.97 538.33C1254.97 542.089 1251.38 545.343 1247.11 545.343C1245.94 545.343 1244.31 545.287 1243.02 544.838C1241.67 544.389 1241.06 544.333 1240.44 544.333C1239.76 544.333 1239.43 544.445 1239.09 545.006H1238.36V536.198H1239.26C1240.44 541.64 1242.51 544.109 1246.38 544.109C1249.25 544.109 1251.04 542.257 1251.04 539.957C1251.04 538.218 1249.92 536.759 1248.07 535.75L1245.04 534.067C1240.38 531.486 1238.31 528.793 1238.31 525.932C1238.31 521.5 1241.45 519.032 1246.05 519.032C1247.39 519.032 1248.63 519.088 1249.81 519.649C1250.42 519.929 1250.98 520.098 1251.38 520.098C1251.6 520.098 1251.83 520.042 1252.28 519.537H1252.89L1253.17 527.166H1252.33C1251.04 522.117 1249.36 520.266 1245.99 520.266C1243.58 520.266 1241.78 521.444 1241.78 524.081C1241.78 525.315 1242.63 526.942 1244.2 527.896ZM1294.16 535.581L1295.06 535.974C1292.87 542.089 1288.95 545.343 1283.34 545.343C1276.72 545.343 1272.68 540.35 1272.68 532.608C1272.68 524.698 1277.22 518.976 1284.29 518.976C1287.77 518.976 1290.29 520.322 1292.09 522.847C1293.21 524.417 1293.77 526.213 1294 529.242H1276.72C1277 533.506 1277.28 535.694 1279.3 538.386C1280.87 540.462 1282.94 541.472 1285.52 541.472C1289.28 541.472 1291.41 539.733 1294.16 535.581ZM1276.83 527.447H1288.27C1287.66 522.903 1286.48 520.995 1282.78 520.995C1279.63 520.995 1277.45 523.239 1276.83 527.447ZM1321.92 519.537V520.378C1320.24 520.547 1319.79 520.995 1318.27 524.754L1311.09 542.762C1310.25 544.838 1309.86 545.567 1309.52 545.567C1309.19 545.567 1308.91 545.118 1308.51 544.109C1308.34 543.828 1308.29 543.435 1308.06 542.93L1301.33 526.83C1298.92 521.051 1298.36 520.49 1296.23 520.378V519.537H1307.22V520.378C1305.31 520.547 1304.64 520.939 1304.64 521.893C1304.64 522.454 1304.81 523.183 1305.15 524.025L1310.87 538.386L1316.42 523.856C1316.65 523.295 1316.76 522.734 1316.76 522.173C1316.76 521.108 1315.92 520.547 1314.12 520.378V519.537H1321.92ZM1344.73 535.581L1345.63 535.974C1343.44 542.089 1339.51 545.343 1333.9 545.343C1327.28 545.343 1323.24 540.35 1323.24 532.608C1323.24 524.698 1327.79 518.976 1334.86 518.976C1338.33 518.976 1340.86 520.322 1342.65 522.847C1343.78 524.417 1344.34 526.213 1344.56 529.242H1327.28C1327.56 533.506 1327.84 535.694 1329.86 538.386C1331.43 540.462 1333.51 541.472 1336.09 541.472C1339.85 541.472 1341.98 539.733 1344.73 535.581ZM1327.4 527.447H1338.84C1338.22 522.903 1337.04 520.995 1333.34 520.995C1330.2 520.995 1328.01 523.239 1327.4 527.447ZM1373.98 544.782H1362.31L1362.36 543.94C1365.17 543.716 1365.84 542.594 1365.84 538.891V527.727C1365.84 523.744 1364.5 522.061 1361.75 522.061C1359.9 522.061 1358.55 522.734 1355.97 525.259V540.743C1355.97 542.93 1356.75 543.716 1359.62 543.94V544.782H1347.78V543.94C1350.64 543.716 1351.26 542.818 1351.26 539.508V525.876C1351.26 523.127 1350.86 522.23 1349.29 522.23C1348.68 522.23 1348.06 522.286 1347.67 522.454V521.5C1350.75 520.603 1352.6 519.986 1355.35 518.976L1355.8 519.144V523.52H1355.86C1358.77 520.21 1361.35 518.976 1363.94 518.976C1368.2 518.976 1370.55 522.061 1370.55 527.615V540.013C1370.55 543.043 1371.23 543.66 1373.98 543.94V544.782Z" fill="black"/>
<g id="Group_13">
<g id="Group 4">
<g id=":2">
<path d="M572.269 723.322C571.387 723.322 570.763 723.139 570.398 722.774C570.054 722.408 569.882 721.946 569.882 721.387V720.806C569.882 720.247 570.054 719.785 570.398 719.419C570.763 719.053 571.387 718.871 572.269 718.871C573.15 718.871 573.763 719.053 574.107 719.419C574.473 719.785 574.656 720.247 574.656 720.806V721.387C574.656 721.946 574.473 722.408 574.107 722.774C573.763 723.139 573.15 723.322 572.269 723.322ZM572.269 710.549C571.387 710.549 570.763 710.366 570.398 710C570.054 709.635 569.882 709.172 569.882 708.613V708.033C569.882 707.474 570.054 707.011 570.398 706.646C570.763 706.28 571.387 706.097 572.269 706.097C573.15 706.097 573.763 706.28 574.107 706.646C574.473 707.011 574.656 707.474 574.656 708.033V708.613C574.656 709.172 574.473 709.635 574.107 710C573.763 710.366 573.15 710.549 572.269 710.549Z" fill="black"/>
<path d="M597.222 718.613L595.48 723.032H582.868V722.645L588.61 716.548C591.642 713.355 592.803 710.903 592.803 708.162C592.803 705.226 591.061 703.614 588.319 703.614C585.997 703.614 584.868 704.646 583.578 707.807L582.9 707.646C583.578 703.872 585.642 701.227 589.61 701.227C593.255 701.227 595.577 703.71 595.577 706.904C595.577 709.452 594.319 711.871 591.448 714.903L586.126 720.58H593.674C595.029 720.58 595.706 720.225 596.771 718.419L597.222 718.613Z" fill="#00AA4D"/>
</g>
<path id="W" d="M814.583 725.616L812.809 703.101H815.228L816.163 716.003L816.647 722.809H816.905L819.873 708.972H822.905L825.872 722.809H826.13L826.614 716.003L827.55 703.101H829.904L828.13 725.616H824.227L821.486 712.165H821.227L818.486 725.616H814.583Z" fill="black"/>
<g id=":1">
<path d="M701.292 780.666C700.41 780.666 699.787 780.483 699.421 780.118C699.077 779.752 698.905 779.29 698.905 778.731V778.15C698.905 777.591 699.077 777.129 699.421 776.763C699.787 776.398 700.41 776.215 701.292 776.215C702.174 776.215 702.787 776.398 703.131 776.763C703.496 777.129 703.679 777.591 703.679 778.15V778.731C703.679 779.29 703.496 779.752 703.131 780.118C702.787 780.483 702.174 780.666 701.292 780.666ZM701.292 767.893C700.41 767.893 699.787 767.71 699.421 767.345C699.077 766.979 698.905 766.517 698.905 765.958V765.377C698.905 764.818 699.077 764.356 699.421 763.99C699.787 763.624 700.41 763.442 701.292 763.442C702.174 763.442 702.787 763.624 703.131 763.99C703.496 764.356 703.679 764.818 703.679 765.377V765.958C703.679 766.517 703.496 766.979 703.131 767.345C702.787 767.71 702.174 767.893 701.292 767.893Z" fill="black"/>
<path d="M723.665 780.376H714.762V779.892C717.149 779.763 717.827 779.086 717.827 777.312V762.829C717.827 761.732 717.536 761.248 716.859 761.248C716.537 761.248 715.988 761.409 715.408 761.635L714.537 761.958V761.506L720.31 758.571L720.601 758.668V777.925C720.601 779.312 721.246 779.892 723.665 779.892V780.376Z" fill="#D02525"/>
</g>
<g id=":1_2">
<path d="M695.021 903.418C694.139 903.418 693.515 903.235 693.15 902.87C692.806 902.504 692.634 902.042 692.634 901.483V900.902C692.634 900.343 692.806 899.881 693.15 899.515C693.515 899.15 694.139 898.967 695.021 898.967C695.902 898.967 696.515 899.15 696.859 899.515C697.225 899.881 697.407 900.343 697.407 900.902V901.483C697.407 902.042 697.225 902.504 696.859 902.87C696.515 903.235 695.902 903.418 695.021 903.418ZM695.021 890.645C694.139 890.645 693.515 890.462 693.15 890.097C692.806 889.731 692.634 889.269 692.634 888.71V888.129C692.634 887.57 692.806 887.107 693.15 886.742C693.515 886.376 694.139 886.194 695.021 886.194C695.902 886.194 696.515 886.376 696.859 886.742C697.225 887.107 697.407 887.57 697.407 888.129V888.71C697.407 889.269 697.225 889.731 696.859 890.097C696.515 890.462 695.902 890.645 695.021 890.645Z" fill="black"/>
<path d="M717.394 903.128H708.491V902.644C710.878 902.515 711.555 901.838 711.555 900.064V885.581C711.555 884.484 711.265 884 710.588 884C710.265 884 709.717 884.161 709.136 884.387L708.265 884.71V884.258L714.039 881.323L714.329 881.42V900.676C714.329 902.063 714.974 902.644 717.394 902.644V903.128Z" fill="#D02525"/>
</g>
</g>
<g id="Group 5">
<path id="Ellipse 5" d="M872.16 853.896C872.16 882.845 848.693 906.312 819.744 906.312C790.796 906.312 767.328 882.845 767.328 853.896C767.328 824.948 790.796 801.48 819.744 801.48C848.693 801.48 872.16 824.948 872.16 853.896Z" fill="white" fill-opacity="0.46" stroke="black" stroke-width="2.688"/>
<path id="Ellipse 6" d="M624.864 853.896C624.864 882.845 601.397 906.312 572.448 906.312C543.5 906.312 520.032 882.845 520.032 853.896C520.032 824.948 543.5 801.48 572.448 801.48C601.397 801.48 624.864 824.948 624.864 853.896Z" fill="white" fill-opacity="0.46" stroke="black" stroke-width="2.688"/>
<g id="Vector 1" filter="url(#filter0_d_6_104)">
<path d="M765.392 822.939C765.862 823.513 766.709 823.598 767.283 823.128C767.858 822.658 767.942 821.811 767.472 821.237L765.392 822.939ZM624.416 822.088L639.415 818.103L628.465 807.106L624.416 822.088ZM767.472 821.237C754.223 805.044 729.058 795.947 703.069 794.299C677.058 792.649 649.777 798.428 632.151 812.501L633.828 814.601C650.752 801.09 677.281 795.357 702.899 796.981C728.538 798.608 752.819 807.572 765.392 822.939L767.472 821.237Z" fill="black"/>
</g>
<g id="Vector 7" filter="url(#filter1_d_6_104)">
<path d="M625.457 889.781C624.987 889.206 624.14 889.122 623.566 889.592C622.991 890.062 622.906 890.909 623.376 891.483L625.457 889.781ZM766.433 890.632L751.434 894.617L762.384 905.614L766.433 890.632ZM623.376 891.483C636.625 907.676 661.79 916.773 687.78 918.421C713.791 920.071 741.072 914.292 758.698 900.219L757.021 898.118C740.097 911.63 713.567 917.363 687.95 915.738C662.311 914.112 638.03 905.148 625.457 889.781L623.376 891.483Z" fill="black"/>
</g>
<path id="Arrow 8" d="M511.575 854.846C512.099 854.321 512.099 853.471 511.575 852.946L503.021 844.392C502.497 843.868 501.646 843.868 501.121 844.392C500.596 844.917 500.596 845.768 501.121 846.293L508.724 853.896L501.121 861.499C500.596 862.024 500.596 862.875 501.121 863.4C501.646 863.924 502.497 863.924 503.021 863.4L511.575 854.846ZM464.032 855.24L510.624 855.24L510.624 852.552L464.032 852.552L464.032 855.24Z" fill="black"/>
<path id="Vector 4" d="M550.054 796.926C550.509 797.513 551.353 797.621 551.94 797.167C552.527 796.713 552.635 795.869 552.18 795.282L550.054 796.926ZM569.037 735.624L569.037 736.968L569.037 735.624ZM591.885 800.136L604.5 791.096L590.364 784.692L591.885 800.136ZM552.18 795.282C543.207 783.682 539.759 768.965 542.403 757.256C543.721 751.419 546.54 746.366 550.9 742.772C555.252 739.183 561.237 736.968 569.037 736.968L569.037 734.28C560.707 734.28 554.092 736.657 549.19 740.698C544.295 744.734 541.207 750.349 539.781 756.664C536.937 769.259 540.659 784.782 550.054 796.926L552.18 795.282ZM569.037 736.968C576.624 736.968 582.347 738.991 586.613 742.242C590.889 745.502 593.799 750.071 595.616 755.32C599.265 765.861 598.43 778.937 595.588 788.741L598.169 789.49C601.117 779.322 602.037 765.653 598.156 754.441C596.208 748.814 593.031 743.755 588.243 740.105C583.444 736.447 577.126 734.28 569.037 734.28L569.037 736.968Z" fill="black"/>
<path id="Vector 6" d="M800.038 796.926C800.492 797.513 801.336 797.621 801.923 797.167C802.51 796.713 802.618 795.869 802.164 795.282L800.038 796.926ZM819.02 735.624L819.02 736.968L819.02 735.624ZM841.869 800.136L854.483 791.096L840.347 784.692L841.869 800.136ZM802.164 795.282C793.191 783.682 789.743 768.965 792.386 757.256C793.704 751.419 796.524 746.366 800.883 742.772C805.236 739.183 811.221 736.968 819.02 736.968L819.02 734.28C810.691 734.28 804.075 736.657 799.173 740.698C794.279 744.734 791.19 750.349 789.764 756.664C786.921 769.259 790.643 784.782 800.038 796.926L802.164 795.282ZM819.02 736.968C826.607 736.968 832.331 738.991 836.596 742.242C840.872 745.502 843.782 750.071 845.599 755.32C849.248 765.861 848.413 778.937 845.571 788.741L848.153 789.49C851.101 779.322 852.021 765.653 848.139 754.441C846.191 748.814 843.014 743.755 838.226 740.105C833.427 736.447 827.109 734.28 819.02 734.28L819.02 736.968Z" fill="black"/>
<path id="a" d="M681.6 902.128C680.589 902.128 679.868 901.87 679.438 901.354C679.008 900.838 678.739 900.193 678.632 899.418H678.471C678.105 900.386 677.514 901.149 676.697 901.709C675.901 902.246 674.826 902.515 673.471 902.515C671.729 902.515 670.342 902.063 669.31 901.16C668.278 900.257 667.762 899.021 667.762 897.451C667.762 895.903 668.321 894.709 669.439 893.87C670.579 893.032 672.407 892.612 674.923 892.612H678.471V890.967C678.471 889.742 678.127 888.828 677.439 888.226C676.75 887.602 675.772 887.29 674.503 887.29C673.385 887.29 672.471 887.516 671.761 887.968C671.052 888.398 670.482 888.989 670.052 889.742L668.31 888.451C668.525 888.021 668.815 887.602 669.181 887.193C669.547 886.785 669.998 886.43 670.536 886.129C671.073 885.806 671.686 885.559 672.374 885.387C673.062 885.194 673.826 885.097 674.664 885.097C676.621 885.097 678.17 885.591 679.309 886.581C680.471 887.57 681.051 888.946 681.051 890.709V899.87H683.374V902.128H681.6ZM673.923 900.354C674.589 900.354 675.191 900.279 675.729 900.128C676.288 899.956 676.772 899.741 677.18 899.483C677.589 899.203 677.901 898.881 678.116 898.515C678.352 898.128 678.471 897.72 678.471 897.29V894.548H674.923C673.374 894.548 672.245 894.763 671.536 895.193C670.826 895.623 670.471 896.247 670.471 897.064V897.741C670.471 898.601 670.772 899.257 671.374 899.709C671.998 900.139 672.847 900.354 673.923 900.354Z" fill="black"/>
<path id="b" d="M674.969 759.091H677.549V769.025H677.678C678.753 766.961 680.463 765.929 682.807 765.929C684.85 765.929 686.441 766.692 687.581 768.219C688.742 769.746 689.323 771.885 689.323 774.638C689.323 777.39 688.742 779.53 687.581 781.057C686.441 782.584 684.85 783.347 682.807 783.347C680.463 783.347 678.753 782.315 677.678 780.25H677.549V782.96H674.969V759.091ZM681.807 781.057C683.312 781.057 684.473 780.605 685.291 779.702C686.129 778.777 686.549 777.562 686.549 776.057V773.219C686.549 771.713 686.129 770.509 685.291 769.606C684.473 768.681 683.312 768.219 681.807 768.219C681.226 768.219 680.678 768.294 680.162 768.445C679.646 768.595 679.194 768.821 678.807 769.122C678.42 769.402 678.108 769.757 677.872 770.187C677.657 770.595 677.549 771.079 677.549 771.638V777.638C677.549 778.197 677.657 778.691 677.872 779.121C678.108 779.53 678.42 779.885 678.807 780.186C679.194 780.465 679.646 780.681 680.162 780.831C680.678 780.982 681.226 781.057 681.807 781.057Z" fill="black"/>
<path id="b_2" d="M544.152 701.747H546.733V711.682H546.862C547.937 709.617 549.646 708.585 551.99 708.585C554.033 708.585 555.625 709.348 556.764 710.875C557.926 712.402 558.506 714.542 558.506 717.294C558.506 720.047 557.926 722.186 556.764 723.713C555.625 725.24 554.033 726.003 551.99 726.003C549.646 726.003 547.937 724.971 546.862 722.907H546.733V725.616H544.152V701.747ZM550.99 723.713C552.496 723.713 553.657 723.262 554.474 722.358C555.313 721.434 555.732 720.219 555.732 718.713V715.875C555.732 714.37 555.313 713.165 554.474 712.262C553.657 711.338 552.496 710.875 550.99 710.875C550.41 710.875 549.862 710.95 549.345 711.101C548.829 711.252 548.378 711.477 547.991 711.778C547.604 712.058 547.292 712.413 547.055 712.843C546.84 713.251 546.733 713.735 546.733 714.294V720.294C546.733 720.853 546.84 721.348 547.055 721.778C547.292 722.186 547.604 722.541 547.991 722.842C548.378 723.122 548.829 723.337 549.345 723.487C549.862 723.638 550.41 723.713 550.99 723.713Z" fill="black"/>
<path id="a_2" d="M806.142 725.616C805.132 725.616 804.411 725.358 803.981 724.842C803.551 724.326 803.282 723.681 803.175 722.907H803.014C802.648 723.874 802.057 724.638 801.24 725.197C800.444 725.734 799.369 726.003 798.014 726.003C796.272 726.003 794.885 725.552 793.853 724.649C792.821 723.745 792.305 722.509 792.305 720.939C792.305 719.391 792.864 718.197 793.982 717.359C795.122 716.52 796.95 716.101 799.466 716.101H803.014V714.456C803.014 713.23 802.67 712.316 801.981 711.714C801.293 711.09 800.315 710.778 799.046 710.778C797.928 710.778 797.014 711.004 796.304 711.456C795.595 711.886 795.025 712.477 794.595 713.23L792.853 711.94C793.068 711.51 793.358 711.09 793.724 710.682C794.09 710.273 794.541 709.918 795.079 709.617C795.616 709.295 796.229 709.047 796.917 708.875C797.605 708.682 798.369 708.585 799.207 708.585C801.164 708.585 802.713 709.08 803.852 710.069C805.014 711.058 805.594 712.434 805.594 714.198V723.358H807.917V725.616H806.142ZM798.466 723.842C799.132 723.842 799.734 723.767 800.272 723.616C800.831 723.444 801.315 723.229 801.723 722.971C802.132 722.692 802.444 722.369 802.659 722.004C802.895 721.616 803.014 721.208 803.014 720.778V718.036H799.466C797.917 718.036 796.788 718.251 796.079 718.681C795.369 719.111 795.014 719.735 795.014 720.552V721.229C795.014 722.09 795.315 722.745 795.917 723.197C796.541 723.627 797.39 723.842 798.466 723.842Z" fill="black"/>
</g>
</g>
<g id="_mathcal_L___mathcal_A______Sigma___a______Sigma___b__omega" clip-path="url(#clip1_6_104)">
<g id="page1_2">
<path id="Vector_4" d="M1019.47 826.25C1022.53 821.492 1023.49 817.866 1024.23 814.864C1026.21 807.047 1028.37 800.249 1031.88 796.34C1032.56 795.604 1033.01 795.094 1034.82 795.094C1038.73 795.094 1038.85 799.002 1038.85 799.796C1038.85 800.815 1038.56 801.608 1038.56 801.892C1038.56 802.288 1038.9 802.288 1038.96 802.288C1039.87 802.288 1041.4 801.665 1042.81 800.645C1043.83 799.852 1044.34 799.286 1044.34 796.963C1044.34 793.904 1042.76 791.582 1039.58 791.582C1037.77 791.582 1032.79 792.035 1027.23 797.643C1022.7 802.288 1020.04 812.485 1018.96 816.733C1017.94 820.642 1017.49 822.398 1015.79 825.797C1015.39 826.477 1013.92 828.969 1013.13 829.706C1011.6 831.122 1011.03 832.142 1011.03 832.425C1011.03 832.538 1011.15 832.765 1011.54 832.765C1011.77 832.765 1012.96 832.538 1014.43 831.575C1015.39 831.009 1015.51 830.896 1016.81 829.536C1019.64 829.593 1021.63 830.102 1025.19 831.122C1028.08 831.915 1030.97 832.765 1033.86 832.765C1038.45 832.765 1043.1 829.309 1044.91 826.817C1046.04 825.287 1046.38 823.871 1046.38 823.701C1046.38 823.305 1046.04 823.305 1045.98 823.305C1045.08 823.305 1043.72 823.928 1042.76 824.608C1041.23 825.571 1041.11 825.91 1040.77 826.873C1040.49 827.78 1040.15 828.233 1039.92 828.573C1039.47 829.253 1039.41 829.253 1038.56 829.253C1035.84 829.253 1033.01 828.403 1029.27 827.383C1027.69 826.93 1024.57 826.024 1021.74 826.024C1021 826.024 1020.21 826.08 1019.47 826.25Z" fill="black"/>
<path id="Vector_5" d="M1066.76 845.284C1066.76 845.114 1066.76 845.001 1065.8 844.038C1060.13 838.316 1056.96 828.969 1056.96 817.413C1056.96 806.423 1059.62 796.963 1066.19 790.278C1066.76 789.769 1066.76 789.655 1066.76 789.485C1066.76 789.146 1066.48 789.032 1066.25 789.032C1065.51 789.032 1060.87 793.111 1058.09 798.662C1055.2 804.384 1053.9 810.445 1053.9 817.413C1053.9 822.455 1054.69 829.196 1057.64 835.257C1060.98 842.055 1065.63 845.737 1066.25 845.737C1066.48 845.737 1066.76 845.624 1066.76 845.284Z" fill="black"/>
<path id="Vector_6" d="M1103.62 822.172C1103.91 825.741 1104.59 828.346 1104.87 829.423C1105.49 831.972 1105.78 833.218 1108.21 833.218C1110.76 833.218 1115.12 830.669 1115.12 829.536C1115.12 829.253 1114.9 829.14 1114.61 829.14C1113.88 829.14 1112.69 829.763 1112.52 829.876C1112.12 830.103 1112.01 830.103 1111.9 830.103C1110.31 830.103 1109.97 828.573 1109.29 825.174C1108.89 823.305 1108.38 821.039 1107.93 813.278C1107.53 807.5 1107.31 801.722 1107.31 795.944C1107.31 794.584 1107.36 793.111 1107.36 791.752C1107.36 790.845 1107.36 790.619 1106.74 790.619C1105.95 790.619 1103.62 791.582 1102.6 793.111L1102.21 793.734C1097.73 803.308 1093.54 810.162 1090.6 814.751C1087.25 819.906 1081.36 829.14 1078.3 829.14C1076.21 829.14 1074.45 827.78 1073.94 825.741C1073.88 825.627 1073.77 825.287 1073.54 825.287C1072.69 825.287 1071.45 828.007 1071.45 829.593C1071.45 831.859 1073.88 834.351 1076.55 834.351C1080.46 834.351 1086.97 824.154 1088.22 822.172H1103.62ZM1102.49 797.586V800.872C1102.49 804.158 1102.6 807.443 1102.77 810.729C1102.83 811.862 1103.06 816.11 1103.34 819.056H1092.97C1092.07 819.056 1091.22 819.056 1089.75 819.963C1093.71 813.844 1097 807.953 1097.34 807.33C1100.17 802.288 1101.7 799.003 1102.43 797.586H1102.49Z" fill="black"/>
<path id="Vector_7" d="M1131.13 817.413C1131.13 813.108 1130.56 806.083 1127.39 799.512C1124.04 792.714 1119.4 789.032 1118.78 789.032C1118.55 789.032 1118.27 789.146 1118.27 789.485C1118.27 789.655 1118.27 789.769 1119.23 790.732C1124.89 796.453 1128.07 805.8 1128.07 817.356C1128.07 828.346 1125.4 837.806 1118.83 844.491C1118.27 845.001 1118.27 845.114 1118.27 845.284C1118.27 845.624 1118.55 845.737 1118.78 845.737C1119.51 845.737 1124.16 841.659 1126.93 836.107C1129.82 830.329 1131.13 824.211 1131.13 817.413Z" fill="black"/>
<path id="Vector_8" d="M1190.7 813.165C1191.49 813.165 1192.51 813.165 1192.51 812.145C1192.51 811.069 1191.55 811.069 1190.7 811.069H1157.33C1156.54 811.069 1155.52 811.069 1155.52 812.089C1155.52 813.165 1156.48 813.165 1157.33 813.165H1190.7ZM1190.7 823.701C1191.49 823.701 1192.51 823.701 1192.51 822.682C1192.51 821.605 1191.55 821.605 1190.7 821.605H1157.33C1156.54 821.605 1155.52 821.605 1155.52 822.625C1155.52 823.701 1156.48 823.701 1157.33 823.701H1190.7Z" fill="black"/>
<path id="Vector_9" d="M1231.39 813.109C1231.84 812.542 1231.95 812.429 1231.95 812.146C1231.95 812.032 1231.95 811.919 1231.61 811.466L1220.17 794.471H1233.54C1243.06 794.471 1245.95 796.511 1247.02 805.461H1248.27L1246.8 792.829H1215.81C1214.45 792.829 1214.39 792.829 1214.39 794.132L1228.16 814.525L1215.02 830.047C1214.56 830.556 1214.45 830.726 1214.45 830.953C1214.45 831.519 1214.9 831.519 1215.81 831.519H1246.8L1248.27 818.32H1247.02C1246 827.667 1242.43 829.31 1233.37 829.31H1217.68L1231.39 813.109Z" fill="black"/>
<path id="Vector_10" d="M1266.99 803.144C1267.33 803.37 1267.44 803.37 1267.63 803.37C1268.24 803.37 1268.77 802.879 1268.77 802.2C1268.77 801.482 1268.39 801.331 1267.82 801.067C1265.29 799.896 1264.39 799.481 1262.54 798.725L1266.95 796.724C1267.26 796.61 1267.97 796.27 1268.28 796.157C1268.65 795.931 1268.77 795.553 1268.77 795.213C1268.77 794.76 1268.54 794.042 1267.41 794.042L1261.97 797.743L1262.5 792.154C1262.57 791.512 1262.5 790.568 1261.4 790.568C1260.72 790.568 1260.19 791.134 1260.31 791.663V792.116L1260.84 797.743L1255.81 794.269C1255.47 794.042 1255.36 794.042 1255.17 794.042C1254.57 794.042 1254.04 794.533 1254.04 795.213C1254.04 795.931 1254.42 796.082 1254.98 796.346C1257.51 797.517 1258.42 797.932 1260.27 798.687L1255.85 800.689C1255.55 800.802 1254.83 801.142 1254.53 801.256C1254.15 801.482 1254.04 801.86 1254.04 802.2C1254.04 802.879 1254.57 803.37 1255.17 803.37C1255.47 803.37 1255.55 803.37 1256.49 802.691L1260.84 799.669L1260.27 805.75C1260.27 806.505 1260.91 806.845 1261.4 806.845C1261.89 806.845 1262.54 806.505 1262.54 805.75C1262.54 805.372 1262.38 804.163 1262.35 803.71C1262.2 802.426 1262.08 800.991 1261.97 799.669L1266.99 803.144Z" fill="black"/>
<path id="Vector_11" d="M1290.87 824.777C1290.59 825.74 1290.59 825.854 1289.79 826.93C1288.55 828.516 1286.05 830.952 1283.39 830.952C1281.07 830.952 1279.77 828.856 1279.77 825.514C1279.77 822.398 1281.52 816.054 1282.6 813.674C1284.52 809.709 1287.19 807.67 1289.4 807.67C1293.14 807.67 1293.87 812.315 1293.87 812.768C1293.87 812.825 1293.7 813.561 1293.65 813.674L1290.87 824.777ZM1294.49 810.275C1293.87 808.803 1292.34 806.537 1289.4 806.537C1283 806.537 1276.08 814.807 1276.08 823.191C1276.08 828.799 1279.37 832.085 1283.22 832.085C1286.34 832.085 1289 829.649 1290.59 827.78C1291.15 831.122 1293.81 832.085 1295.51 832.085C1297.21 832.085 1298.57 831.065 1299.59 829.026C1300.5 827.1 1301.29 823.644 1301.29 823.418C1301.29 823.135 1301.07 822.908 1300.73 822.908C1300.22 822.908 1300.16 823.191 1299.93 824.041C1299.08 827.383 1298.01 830.952 1295.68 830.952C1294.04 830.952 1293.93 829.479 1293.93 828.346C1293.93 827.043 1294.1 826.42 1294.61 824.211C1295 822.795 1295.29 821.548 1295.74 819.906C1297.84 811.408 1298.35 809.369 1298.35 809.029C1298.35 808.236 1297.72 807.613 1296.87 807.613C1295.06 807.613 1294.61 809.596 1294.49 810.275Z" fill="black"/>
<path id="Vector_12" d="M1327.14 794.307C1327.14 793.136 1326.8 791.437 1325.33 791.437C1324.31 791.437 1323.33 792.381 1323.33 793.439C1323.33 794.005 1323.74 794.345 1324.16 794.723C1324.73 795.289 1325.29 796.271 1325.29 797.668C1325.29 800.199 1322.69 805.561 1318.91 805.561C1316.95 805.561 1315.59 804.391 1315.13 802.578C1315.74 801.294 1316.53 799.217 1316.53 798.159C1316.53 797.517 1316.23 797.026 1315.51 797.026C1313.81 797.026 1313.59 801.218 1313.59 802.427C1312.26 804.013 1310.72 805.561 1308.53 805.561C1306.11 805.561 1304.98 803.635 1304.98 801.407C1304.98 799.632 1305.47 798.046 1306.22 796.573C1307.32 794.383 1308.79 792.948 1308.79 792.343C1308.79 791.928 1308.45 791.626 1308.03 791.626C1307.32 791.626 1306.75 792.721 1306.33 793.401C1304.71 796.082 1303.54 799.594 1303.54 802.729C1303.54 805.637 1304.64 808.469 1307.96 808.469C1311.21 808.469 1313.06 805.863 1313.89 804.806C1314.45 806.883 1316 808.507 1318.31 808.507C1321.4 808.507 1322.95 806.505 1324.5 803.9C1325.71 801.898 1327.14 796.686 1327.14 794.307Z" fill="black"/>
<path id="Vector_13" d="M1366.79 818.433H1382.43C1383.22 818.433 1384.24 818.433 1384.24 817.413C1384.24 816.337 1383.28 816.337 1382.43 816.337H1366.79V800.702C1366.79 799.909 1366.79 798.889 1365.77 798.889C1364.7 798.889 1364.7 799.852 1364.7 800.702V816.337H1349.06C1348.27 816.337 1347.25 816.337 1347.25 817.357C1347.25 818.433 1348.21 818.433 1349.06 818.433H1364.7V834.068C1364.7 834.861 1364.7 835.881 1365.72 835.881C1366.79 835.881 1366.79 834.918 1366.79 834.068V818.433Z" fill="black"/>
<path id="Vector_14" d="M1419.97 813.109C1420.43 812.542 1420.54 812.429 1420.54 812.146C1420.54 812.032 1420.54 811.919 1420.2 811.466L1408.76 794.471H1422.12C1431.64 794.471 1434.53 796.511 1435.61 805.461H1436.85L1435.38 792.829H1404.39C1403.03 792.829 1402.98 792.829 1402.98 794.132L1416.74 814.525L1403.6 830.047C1403.15 830.556 1403.03 830.726 1403.03 830.953C1403.03 831.519 1403.49 831.519 1404.39 831.519H1435.38L1436.85 818.32H1435.61C1434.59 827.667 1431.02 829.31 1421.95 829.31H1406.26L1419.97 813.109Z" fill="black"/>
<path id="Vector_15" d="M1455.58 803.144C1455.92 803.37 1456.03 803.37 1456.22 803.37C1456.82 803.37 1457.35 802.879 1457.35 802.2C1457.35 801.482 1456.97 801.331 1456.41 801.067C1453.88 799.896 1452.97 799.481 1451.12 798.725L1455.54 796.724C1455.84 796.61 1456.56 796.27 1456.86 796.157C1457.24 795.931 1457.35 795.553 1457.35 795.213C1457.35 794.76 1457.13 794.042 1455.99 794.042L1450.55 797.743L1451.08 792.154C1451.16 791.512 1451.08 790.568 1449.99 790.568C1449.31 790.568 1448.78 791.134 1448.89 791.663V792.116L1449.42 797.743L1444.4 794.269C1444.06 794.042 1443.94 794.042 1443.76 794.042C1443.15 794.042 1442.62 794.533 1442.62 795.213C1442.62 795.931 1443 796.082 1443.57 796.346C1446.1 797.517 1447 797.932 1448.85 798.687L1444.44 800.689C1444.13 800.802 1443.42 801.142 1443.11 801.256C1442.74 801.482 1442.62 801.86 1442.62 802.2C1442.62 802.879 1443.15 803.37 1443.76 803.37C1444.06 803.37 1444.13 803.37 1445.08 802.691L1449.42 799.669L1448.85 805.75C1448.85 806.505 1449.5 806.845 1449.99 806.845C1450.48 806.845 1451.12 806.505 1451.12 805.75C1451.12 805.372 1450.97 804.163 1450.93 803.71C1450.78 802.426 1450.67 800.991 1450.55 799.669L1455.58 803.144Z" fill="black"/>
<path id="Vector_16" d="M1475.49 793.621C1475.55 793.395 1475.66 793.055 1475.66 792.772C1475.66 792.205 1475.09 792.205 1474.98 792.205C1474.92 792.205 1472.88 792.375 1471.86 792.488C1470.9 792.545 1470.05 792.658 1469.03 792.715C1467.67 792.828 1467.27 792.885 1467.27 793.905C1467.27 794.471 1467.84 794.471 1468.41 794.471C1471.3 794.471 1471.3 794.981 1471.3 795.547C1471.3 795.944 1470.84 797.587 1470.62 798.606L1469.26 804.045C1468.69 806.311 1465.46 819.17 1465.24 820.189C1464.95 821.606 1464.95 822.569 1464.95 823.305C1464.95 829.083 1468.18 832.086 1471.86 832.086C1478.43 832.086 1485.23 823.645 1485.23 815.431C1485.23 810.219 1482.29 806.537 1478.04 806.537C1475.09 806.537 1472.43 808.973 1471.35 810.106L1475.49 793.621ZM1471.92 830.953C1470.11 830.953 1468.12 829.593 1468.12 825.174C1468.12 823.305 1468.29 822.229 1469.31 818.263C1469.48 817.527 1470.39 813.901 1470.62 813.165C1470.73 812.712 1474.07 807.67 1477.92 807.67C1480.42 807.67 1481.55 810.163 1481.55 813.108C1481.55 815.827 1479.96 822.229 1478.55 825.174C1477.13 828.233 1474.53 830.953 1471.92 830.953Z" fill="black"/>
<path id="Vector_17" d="M1510.19 794.307C1510.19 793.136 1509.85 791.437 1508.38 791.437C1507.36 791.437 1506.38 792.381 1506.38 793.439C1506.38 794.005 1506.8 794.345 1507.21 794.723C1507.78 795.289 1508.34 796.271 1508.34 797.668C1508.34 800.199 1505.74 805.561 1501.96 805.561C1500 805.561 1498.64 804.391 1498.18 802.578C1498.79 801.294 1499.58 799.217 1499.58 798.159C1499.58 797.517 1499.28 797.026 1498.56 797.026C1496.86 797.026 1496.64 801.218 1496.64 802.427C1495.31 804.013 1493.77 805.561 1491.58 805.561C1489.16 805.561 1488.03 803.635 1488.03 801.407C1488.03 799.632 1488.52 798.046 1489.27 796.573C1490.37 794.383 1491.84 792.948 1491.84 792.343C1491.84 791.928 1491.5 791.626 1491.08 791.626C1490.37 791.626 1489.8 792.721 1489.39 793.401C1487.76 796.082 1486.59 799.594 1486.59 802.729C1486.59 805.637 1487.69 808.469 1491.01 808.469C1494.26 808.469 1496.11 805.863 1496.94 804.806C1497.51 806.883 1499.05 808.507 1501.36 808.507C1504.45 808.507 1506 806.505 1507.55 803.9C1508.76 801.898 1510.19 796.686 1510.19 794.307Z" fill="black"/>
</g>
</g>
</g>
<defs>
<filter id="filter0_d_6_104" x="620.832" y="794.025" width="150.528" height="36.5742" filterUnits="userSpaceOnUse" color-interpolation-filters="sRGB">
<feFlood flood-opacity="0" result="BackgroundImageFix"/>
<feColorMatrix in="SourceAlpha" type="matrix" values="0 0 0 0 0 0 0 0 0 0 0 0 0 0 0 0 0 0 127 0" result="hardAlpha"/>
<feOffset dy="3.584"/>
<feGaussianBlur stdDeviation="1.792"/>
<feComposite in2="hardAlpha" operator="out"/>
<feColorMatrix type="matrix" values="0 0 0 0 0 0 0 0 0 0 0 0 0 0 0 0 0 0 0.25 0"/>
<feBlend mode="normal" in2="BackgroundImageFix" result="effect1_dropShadow_6_104"/>
<feBlend mode="normal" in="SourceGraphic" in2="effect1_dropShadow_6_104" result="shape"/>
</filter>
<filter id="filter1_d_6_104" x="619.488" y="889.288" width="150.528" height="36.5742" filterUnits="userSpaceOnUse" color-interpolation-filters="sRGB">
<feFlood flood-opacity="0" result="BackgroundImageFix"/>
<feColorMatrix in="SourceAlpha" type="matrix" values="0 0 0 0 0 0 0 0 0 0 0 0 0 0 0 0 0 0 127 0" result="hardAlpha"/>
<feOffset dy="3.584"/>
<feGaussianBlur stdDeviation="1.792"/>
<feComposite in2="hardAlpha" operator="out"/>
<feColorMatrix type="matrix" values="0 0 0 0 0 0 0 0 0 0 0 0 0 0 0 0 0 0 0.25 0"/>
<feBlend mode="normal" in2="BackgroundImageFix" result="effect1_dropShadow_6_104"/>
<feBlend mode="normal" in="SourceGraphic" in2="effect1_dropShadow_6_104" result="shape"/>
</filter>
<clipPath id="clip0_6_104">
<rect width="181.131" height="55.2389" fill="white" transform="translate(999.432 396.957)"/>
</clipPath>
<clipPath id="clip1_6_104">
<rect width="499.161" height="56.705" fill="white" transform="translate(1011.03 789.032)"/>
</clipPath>
</defs>
</svg>
