<svg width="1921" height="1081" viewBox="0 0 1921 1081" fill="none" xmlns="http://www.w3.org/2000/svg">
<g id="example 2">
<rect width="1920" height="1080" transform="translate(0.719727 0.279785)" fill="white"/>
<g id="Group_28">
<rect id="Rectangle 12" x="347" y="536" width="474" height="72" rx="36" fill="#FED330" fill-opacity="0.5"/>
<rect id="Rectangle 13" x="1134" y="528" width="569" height="155" rx="50" fill="#FED330" fill-opacity="0.5"/>
<path id="multiply(n,m):" d="M1031.63 358V335.296H1036.29V338.42H1036.56C1036.91 337.423 1037.41 336.572 1038.05 335.868C1038.73 335.135 1039.67 334.768 1040.87 334.768C1042.01 334.768 1042.92 335.105 1043.6 335.78C1044.27 336.425 1044.71 337.349 1044.92 338.552H1045.14C1045.52 337.525 1046.07 336.645 1046.81 335.912C1047.57 335.149 1048.64 334.768 1050.02 334.768C1051.69 334.768 1052.89 335.369 1053.63 336.572C1054.36 337.775 1054.73 339.549 1054.73 341.896V358H1050.11V342.556C1050.11 341.236 1049.92 340.312 1049.54 339.784C1049.18 339.256 1048.64 338.992 1047.91 338.992C1047.23 338.992 1046.66 339.212 1046.19 339.652C1045.75 340.092 1045.53 340.767 1045.53 341.676V358H1040.87V342.556C1040.87 341.236 1040.69 340.312 1040.34 339.784C1039.99 339.256 1039.45 338.992 1038.71 338.992C1038.01 338.992 1037.42 339.212 1036.95 339.652C1036.51 340.092 1036.29 340.767 1036.29 341.676V358H1031.63ZM1073.85 353.996H1073.63C1073.13 355.228 1072.35 356.299 1071.3 357.208C1070.27 358.088 1068.83 358.528 1066.99 358.528C1064.76 358.528 1062.94 357.795 1061.53 356.328C1060.15 354.832 1059.46 352.705 1059.46 349.948V335.296H1065.09V349.156C1065.09 352.441 1066.52 354.084 1069.36 354.084C1069.92 354.084 1070.46 354.011 1070.99 353.864C1071.55 353.717 1072.03 353.497 1072.44 353.204C1072.88 352.881 1073.22 352.5 1073.45 352.06C1073.72 351.62 1073.85 351.092 1073.85 350.476V335.296H1079.48V358H1073.85V353.996ZM1085.93 353.556H1093.15V329.884H1085.93V325.44H1098.78V353.556H1106.04V358H1085.93V353.556ZM1123.89 358C1121.72 358 1120.12 357.428 1119.09 356.284C1118.07 355.14 1117.55 353.659 1117.55 351.84V339.74H1110.95V335.296H1115.44C1116.35 335.296 1117 335.12 1117.38 334.768C1117.76 334.387 1117.95 333.727 1117.95 332.788V327.288H1123.18V335.296H1132.42V339.74H1123.18V353.556H1132.42V358H1123.89ZM1150.14 331.776C1148.82 331.776 1147.88 331.497 1147.32 330.94C1146.8 330.383 1146.53 329.708 1146.53 328.916V327.86C1146.53 327.068 1146.8 326.393 1147.32 325.836C1147.88 325.279 1148.82 325 1150.14 325C1151.46 325 1152.38 325.279 1152.91 325.836C1153.47 326.393 1153.75 327.068 1153.75 327.86V328.916C1153.75 329.708 1153.47 330.383 1152.91 330.94C1152.38 331.497 1151.46 331.776 1150.14 331.776ZM1139.84 353.556H1147.32V339.74H1139.84V335.296H1152.96V353.556H1159.91V358H1139.84V353.556ZM1164.95 335.296H1170.58V339.3H1170.89C1171.51 337.921 1172.34 336.821 1173.4 336C1174.48 335.179 1175.91 334.768 1177.67 334.768C1178.96 334.768 1180.13 335.017 1181.19 335.516C1182.27 335.985 1183.2 336.719 1183.96 337.716C1184.72 338.684 1185.31 339.916 1185.72 341.412C1186.13 342.908 1186.33 344.653 1186.33 346.648C1186.33 348.643 1186.13 350.388 1185.72 351.884C1185.31 353.38 1184.72 354.627 1183.96 355.624C1183.2 356.592 1182.27 357.325 1181.19 357.824C1180.13 358.293 1178.96 358.528 1177.67 358.528C1175.91 358.528 1174.48 358.117 1173.4 357.296C1172.34 356.475 1171.51 355.375 1170.89 353.996H1170.58V366.8H1164.95V335.296ZM1175.29 354.04C1176.93 354.04 1178.19 353.541 1179.07 352.544C1179.98 351.547 1180.44 350.183 1180.44 348.452V344.844C1180.44 343.113 1179.98 341.749 1179.07 340.752C1178.19 339.755 1176.93 339.256 1175.29 339.256C1174 339.256 1172.88 339.579 1171.95 340.224C1171.04 340.84 1170.58 341.793 1170.58 343.084V350.212C1170.58 351.503 1171.04 352.471 1171.95 353.116C1172.88 353.732 1174 354.04 1175.29 354.04ZM1191.46 353.556H1198.68V329.884H1191.46V325.44H1204.31V353.556H1211.57V358H1191.46V353.556ZM1234.08 335.296H1239.8L1228.94 362.048C1228.32 363.603 1227.5 364.776 1226.47 365.568C1225.45 366.389 1223.99 366.8 1222.12 366.8H1217.98V362.356H1223.39L1225.11 357.78L1215.96 335.296H1221.94L1225.42 344.8L1227.84 352.016H1228.14L1230.56 344.8L1234.08 335.296ZM1249.11 344.316C1249.11 342.175 1249.35 340.121 1249.82 338.156C1250.32 336.161 1250.98 334.313 1251.8 332.612C1252.65 330.911 1253.63 329.385 1254.75 328.036C1255.86 326.657 1257.03 325.499 1258.27 324.56H1263.9C1262.58 325.499 1261.32 326.599 1260.11 327.86C1258.91 329.121 1257.86 330.515 1256.95 332.04C1256.04 333.536 1255.3 335.149 1254.75 336.88C1254.22 338.581 1253.95 340.356 1253.95 342.204V346.428C1253.95 348.276 1254.22 350.065 1254.75 351.796C1255.3 353.497 1256.04 355.111 1256.95 356.636C1257.86 358.132 1258.91 359.511 1260.11 360.772C1261.32 362.033 1262.58 363.133 1263.9 364.072H1258.27C1257.03 363.163 1255.86 362.019 1254.75 360.64C1253.63 359.261 1252.65 357.721 1251.8 356.02C1250.98 354.319 1250.32 352.485 1249.82 350.52C1249.35 348.525 1249.11 346.457 1249.11 344.316ZM1270.75 358V335.296H1276.38V339.3H1276.6C1277.1 338.068 1277.86 337.012 1278.89 336.132C1279.94 335.223 1281.39 334.768 1283.24 334.768C1285.47 334.768 1287.27 335.516 1288.65 337.012C1290.06 338.479 1290.77 340.591 1290.77 343.348V358H1285.13V344.14C1285.13 340.855 1283.71 339.212 1280.87 339.212C1280.28 339.212 1279.72 339.285 1279.19 339.432C1278.67 339.579 1278.18 339.813 1277.74 340.136C1277.33 340.429 1276.99 340.796 1276.73 341.236C1276.49 341.676 1276.38 342.204 1276.38 342.82V358H1270.75ZM1304.21 350.828H1311.78L1306.02 364.512H1301.75L1304.21 350.828ZM1321.84 358V335.296H1326.5V338.42H1326.77C1327.12 337.423 1327.62 336.572 1328.26 335.868C1328.94 335.135 1329.88 334.768 1331.08 334.768C1332.22 334.768 1333.13 335.105 1333.81 335.78C1334.48 336.425 1334.92 337.349 1335.13 338.552H1335.35C1335.73 337.525 1336.29 336.645 1337.02 335.912C1337.78 335.149 1338.85 334.768 1340.23 334.768C1341.9 334.768 1343.11 335.369 1343.84 336.572C1344.57 337.775 1344.94 339.549 1344.94 341.896V358H1340.32V342.556C1340.32 341.236 1340.13 340.312 1339.75 339.784C1339.39 339.256 1338.85 338.992 1338.12 338.992C1337.44 338.992 1336.87 339.212 1336.4 339.652C1335.96 340.092 1335.74 340.767 1335.74 341.676V358H1331.08V342.556C1331.08 341.236 1330.9 340.312 1330.55 339.784C1330.2 339.256 1329.66 338.992 1328.92 338.992C1328.22 338.992 1327.63 339.212 1327.16 339.652C1326.72 340.092 1326.5 340.767 1326.5 341.676V358H1321.84ZM1364.94 344.316C1364.94 346.457 1364.69 348.525 1364.19 350.52C1363.72 352.485 1363.06 354.319 1362.21 356.02C1361.39 357.721 1360.42 359.261 1359.31 360.64C1358.2 362.019 1357.02 363.163 1355.79 364.072H1350.16C1351.48 363.133 1352.74 362.033 1353.94 360.772C1355.14 359.511 1356.2 358.132 1357.11 356.636C1358.02 355.111 1358.74 353.497 1359.27 351.796C1359.82 350.065 1360.1 348.276 1360.1 346.428V342.204C1360.1 340.356 1359.82 338.581 1359.27 336.88C1358.74 335.149 1358.02 333.536 1357.11 332.04C1356.2 330.515 1355.14 329.121 1353.94 327.86C1352.74 326.599 1351.48 325.499 1350.16 324.56H1355.79C1357.02 325.499 1358.2 326.657 1359.31 328.036C1360.42 329.385 1361.39 330.911 1362.21 332.612C1363.06 334.313 1363.72 336.161 1364.19 338.156C1364.69 340.121 1364.94 342.175 1364.94 344.316ZM1386.18 358.484C1384.65 358.484 1383.57 358.161 1382.92 357.516C1382.28 356.871 1381.95 356.079 1381.95 355.14V353.82C1381.95 352.881 1382.28 352.089 1382.92 351.444C1383.57 350.799 1384.65 350.476 1386.18 350.476C1387.7 350.476 1388.79 350.799 1389.43 351.444C1390.08 352.089 1390.4 352.881 1390.4 353.82V355.14C1390.4 356.079 1390.08 356.871 1389.43 357.516C1388.79 358.161 1387.7 358.484 1386.18 358.484ZM1386.18 342.864C1384.65 342.864 1383.57 342.541 1382.92 341.896C1382.28 341.251 1381.95 340.459 1381.95 339.52V338.2C1381.95 337.261 1382.28 336.469 1382.92 335.824C1383.57 335.179 1384.65 334.856 1386.18 334.856C1387.7 334.856 1388.79 335.179 1389.43 335.824C1390.08 336.469 1390.4 337.261 1390.4 338.2V339.52C1390.4 340.459 1390.08 341.251 1389.43 341.896C1388.79 342.541 1387.7 342.864 1386.18 342.864Z" fill="black"/>
<g id="for i in 1..m:">
<path d="M1101.24 502.345H1108.09V488.224H1100.82V484.569H1108.09V480.707C1108.09 479.101 1108.54 477.799 1109.42 476.803C1110.31 475.778 1111.69 475.266 1113.57 475.266H1120.8V478.921H1112.62V484.569H1120.8V488.224H1112.62V502.345H1119.85V506H1101.24V502.345ZM1135.36 506.498C1133.78 506.498 1132.36 506.235 1131.09 505.709C1129.84 505.183 1128.77 504.436 1127.89 503.467C1127.03 502.497 1126.36 501.321 1125.89 499.936C1125.42 498.552 1125.19 497.001 1125.19 495.285C1125.19 493.568 1125.42 492.017 1125.89 490.633C1126.36 489.249 1127.03 488.072 1127.89 487.103C1128.77 486.134 1129.84 485.386 1131.09 484.86C1132.36 484.334 1133.78 484.071 1135.36 484.071C1136.94 484.071 1138.35 484.334 1139.6 484.86C1140.87 485.386 1141.94 486.134 1142.8 487.103C1143.68 488.072 1144.36 489.249 1144.83 490.633C1145.3 492.017 1145.54 493.568 1145.54 495.285C1145.54 497.001 1145.3 498.552 1144.83 499.936C1144.36 501.321 1143.68 502.497 1142.8 503.467C1141.94 504.436 1140.87 505.183 1139.6 505.709C1138.35 506.235 1136.94 506.498 1135.36 506.498ZM1135.36 502.927C1137.02 502.927 1138.34 502.428 1139.31 501.431C1140.31 500.407 1140.8 498.898 1140.8 496.904V493.665C1140.8 491.671 1140.31 490.176 1139.31 489.179C1138.34 488.155 1137.02 487.643 1135.36 487.643C1133.7 487.643 1132.37 488.155 1131.38 489.179C1130.41 490.176 1129.92 491.671 1129.92 493.665V496.904C1129.92 498.898 1130.41 500.407 1131.38 501.431C1132.37 502.428 1133.7 502.927 1135.36 502.927ZM1150.96 502.345H1156.65V488.224H1150.96V484.569H1161.18V490.259H1161.43C1161.62 489.512 1161.9 488.792 1162.26 488.099C1162.62 487.407 1163.08 486.812 1163.63 486.314C1164.18 485.788 1164.86 485.372 1165.67 485.068C1166.47 484.735 1167.41 484.569 1168.49 484.569H1171.06V488.889H1166.83C1165.17 488.889 1163.81 489.387 1162.76 490.384C1161.71 491.353 1161.18 492.668 1161.18 494.329V502.345H1168.95V506H1150.96V502.345Z" fill="#3867D6"/>
<path d="M1211.4 479.835C1210.43 479.835 1209.75 479.641 1209.37 479.253C1208.98 478.838 1208.79 478.326 1208.79 477.716V477.052C1208.79 476.443 1208.98 475.944 1209.37 475.557C1209.75 475.141 1210.43 474.934 1211.4 474.934C1212.37 474.934 1213.05 475.141 1213.44 475.557C1213.82 475.944 1214.02 476.443 1214.02 477.052V477.716C1214.02 478.326 1213.82 478.838 1213.44 479.253C1213.05 479.641 1212.37 479.835 1211.4 479.835ZM1202.02 503.176H1209.74V487.393H1202.02V484.569H1213.06V503.176H1220.29V506H1202.02V503.176ZM1261.21 479.835C1260.24 479.835 1259.56 479.641 1259.17 479.253C1258.79 478.838 1258.59 478.326 1258.59 477.716V477.052C1258.59 476.443 1258.79 475.944 1259.17 475.557C1259.56 475.141 1260.24 474.934 1261.21 474.934C1262.18 474.934 1262.86 475.141 1263.24 475.557C1263.63 475.944 1263.82 476.443 1263.82 477.052V477.716C1263.82 478.326 1263.63 478.838 1263.24 479.253C1262.86 479.641 1262.18 479.835 1261.21 479.835ZM1251.82 503.176H1259.55V487.393H1251.82V484.569H1262.87V503.176H1270.1V506H1251.82V503.176ZM1276.39 506V484.569H1279.72V488.058H1279.88C1280.1 487.532 1280.38 487.033 1280.71 486.563C1281.04 486.064 1281.45 485.635 1281.92 485.275C1282.42 484.915 1283 484.625 1283.66 484.403C1284.33 484.182 1285.1 484.071 1285.99 484.071C1288.23 484.071 1290.03 484.791 1291.39 486.231C1292.74 487.643 1293.42 489.65 1293.42 492.253V506H1290.1V492.834C1290.1 490.868 1289.67 489.415 1288.81 488.473C1287.95 487.504 1286.69 487.02 1285.03 487.02C1284.37 487.02 1283.72 487.103 1283.08 487.269C1282.44 487.435 1281.88 487.684 1281.38 488.016C1280.88 488.349 1280.48 488.778 1280.17 489.304C1279.87 489.83 1279.72 490.439 1279.72 491.131V506H1276.39ZM1325.66 506V502.968H1333.97V479.585H1333.68L1326.37 486.397L1324.33 484.195L1332.01 477.01H1337.45V502.968H1345.1V506H1325.66ZM1359.49 506.374C1358.36 506.374 1357.55 506.138 1357.08 505.668C1356.64 505.197 1356.42 504.602 1356.42 503.882V503.134C1356.42 502.414 1356.64 501.819 1357.08 501.348C1357.55 500.878 1358.36 500.642 1359.49 500.642C1360.63 500.642 1361.42 500.878 1361.86 501.348C1362.33 501.819 1362.57 502.414 1362.57 503.134V503.882C1362.57 504.602 1362.33 505.197 1361.86 505.668C1361.42 506.138 1360.63 506.374 1359.49 506.374ZM1384.4 506.374C1383.26 506.374 1382.46 506.138 1381.99 505.668C1381.54 505.197 1381.32 504.602 1381.32 503.882V503.134C1381.32 502.414 1381.54 501.819 1381.99 501.348C1382.46 500.878 1383.26 500.642 1384.4 500.642C1385.53 500.642 1386.32 500.878 1386.76 501.348C1387.23 501.819 1387.47 502.414 1387.47 503.134V503.882C1387.47 504.602 1387.23 505.197 1386.76 505.668C1386.32 506.138 1385.53 506.374 1384.4 506.374ZM1399.08 506V484.569H1402.16V487.061H1402.32C1402.65 486.231 1403.12 485.524 1403.73 484.943C1404.34 484.362 1405.24 484.071 1406.43 484.071C1407.68 484.071 1408.61 484.389 1409.22 485.026C1409.82 485.635 1410.2 486.438 1410.34 487.435H1410.46C1410.85 486.466 1411.4 485.663 1412.12 485.026C1412.84 484.389 1413.84 484.071 1415.11 484.071C1416.86 484.071 1418.02 484.68 1418.6 485.898C1419.21 487.117 1419.52 488.861 1419.52 491.131V506H1416.44V491.671C1416.44 489.844 1416.25 488.584 1415.86 487.892C1415.5 487.172 1414.82 486.812 1413.83 486.812C1412.94 486.812 1412.22 487.103 1411.67 487.684C1411.11 488.238 1410.84 489.096 1410.84 490.259V506H1407.76V491.671C1407.76 489.844 1407.57 488.584 1407.18 487.892C1406.82 487.172 1406.16 486.812 1405.19 486.812C1404.3 486.812 1403.57 487.103 1402.99 487.684C1402.43 488.238 1402.16 489.096 1402.16 490.259V506H1399.08ZM1434.2 506.374C1433.07 506.374 1432.26 506.138 1431.79 505.668C1431.35 505.197 1431.13 504.602 1431.13 503.882V503.134C1431.13 502.414 1431.35 501.819 1431.79 501.348C1432.26 500.878 1433.07 500.642 1434.2 500.642C1435.34 500.642 1436.13 500.878 1436.57 501.348C1437.04 501.819 1437.28 502.414 1437.28 503.134V503.882C1437.28 504.602 1437.04 505.197 1436.57 505.668C1436.13 506.138 1435.34 506.374 1434.2 506.374ZM1434.2 489.927C1433.07 489.927 1432.26 489.692 1431.79 489.221C1431.35 488.75 1431.13 488.155 1431.13 487.435V486.687C1431.13 485.967 1431.35 485.372 1431.79 484.901C1432.26 484.431 1433.07 484.195 1434.2 484.195C1435.34 484.195 1436.13 484.431 1436.57 484.901C1437.04 485.372 1437.28 485.967 1437.28 486.687V487.435C1437.28 488.155 1437.04 488.75 1436.57 489.221C1436.13 489.692 1435.34 489.927 1434.2 489.927Z" fill="#595959"/>
</g>
<path id="prod = n" d="M1101.95 411.569H1105.27V415.058H1105.43C1106.82 412.4 1109.02 411.071 1112.04 411.071C1114.67 411.071 1116.72 412.054 1118.18 414.02C1119.68 415.986 1120.43 418.741 1120.43 422.285C1120.43 425.829 1119.68 428.584 1118.18 430.55C1116.72 432.515 1114.67 433.498 1112.04 433.498C1109.02 433.498 1106.82 432.169 1105.43 429.511H1105.27V441.306H1101.95V411.569ZM1110.75 430.55C1112.69 430.55 1114.18 429.968 1115.24 428.805C1116.32 427.615 1116.86 426.05 1116.86 424.112V420.457C1116.86 418.519 1116.32 416.968 1115.24 415.806C1114.18 414.615 1112.69 414.02 1110.75 414.02C1110 414.02 1109.3 414.117 1108.63 414.31C1107.97 414.504 1107.39 414.795 1106.89 415.183C1106.39 415.543 1105.99 415.999 1105.68 416.553C1105.41 417.079 1105.27 417.702 1105.27 418.422V426.147C1105.27 426.867 1105.41 427.504 1105.68 428.058C1105.99 428.584 1106.39 429.041 1106.89 429.428C1107.39 429.788 1107.97 430.065 1108.63 430.259C1109.3 430.453 1110 430.55 1110.75 430.55ZM1126.1 430.176H1132.37V414.393H1126.1V411.569H1135.7V416.968H1135.9C1136.35 415.279 1137.18 413.964 1138.39 413.023C1139.64 412.054 1141.22 411.569 1143.13 411.569H1146.12V414.892H1142.09C1140.18 414.892 1138.63 415.446 1137.44 416.553C1136.28 417.661 1135.7 419.114 1135.7 420.914V430.176H1144V433H1126.1V430.176ZM1160.27 433.498C1158.77 433.498 1157.41 433.235 1156.2 432.709C1155.01 432.183 1153.98 431.436 1153.12 430.467C1152.29 429.47 1151.66 428.293 1151.21 426.936C1150.77 425.552 1150.55 424.001 1150.55 422.285C1150.55 420.596 1150.77 419.059 1151.21 417.675C1151.66 416.29 1152.29 415.113 1153.12 414.144C1153.98 413.147 1155.01 412.386 1156.2 411.86C1157.41 411.334 1158.77 411.071 1160.27 411.071C1161.76 411.071 1163.1 411.334 1164.29 411.86C1165.51 412.386 1166.54 413.147 1167.37 414.144C1168.23 415.113 1168.88 416.29 1169.32 417.675C1169.76 419.059 1169.98 420.596 1169.98 422.285C1169.98 424.001 1169.76 425.552 1169.32 426.936C1168.88 428.293 1168.23 429.47 1167.37 430.467C1166.54 431.436 1165.51 432.183 1164.29 432.709C1163.1 433.235 1161.76 433.498 1160.27 433.498ZM1160.27 430.633C1162.12 430.633 1163.62 430.079 1164.75 428.971C1165.89 427.864 1166.45 426.147 1166.45 423.821V420.748C1166.45 418.422 1165.89 416.705 1164.75 415.598C1163.62 414.49 1162.12 413.937 1160.27 413.937C1158.41 413.937 1156.92 414.49 1155.78 415.598C1154.65 416.705 1154.08 418.422 1154.08 420.748V423.821C1154.08 426.147 1154.65 427.864 1155.78 428.971C1156.92 430.079 1158.41 430.633 1160.27 430.633ZM1190.36 429.511H1190.19C1188.81 432.169 1186.61 433.498 1183.59 433.498C1180.96 433.498 1178.9 432.515 1177.4 430.55C1175.94 428.584 1175.2 425.829 1175.2 422.285C1175.2 418.741 1175.94 415.986 1177.4 414.02C1178.9 412.054 1180.96 411.071 1183.59 411.071C1186.61 411.071 1188.81 412.4 1190.19 415.058H1190.36V402.266H1193.68V433H1190.36V429.511ZM1184.88 430.55C1185.63 430.55 1186.33 430.453 1187 430.259C1187.66 430.065 1188.24 429.788 1188.74 429.428C1189.24 429.041 1189.63 428.584 1189.9 428.058C1190.21 427.504 1190.36 426.867 1190.36 426.147V418.422C1190.36 417.702 1190.21 417.079 1189.9 416.553C1189.63 415.999 1189.24 415.543 1188.74 415.183C1188.24 414.795 1187.66 414.504 1187 414.31C1186.33 414.117 1185.63 414.02 1184.88 414.02C1182.94 414.02 1181.43 414.615 1180.35 415.806C1179.3 416.968 1178.77 418.519 1178.77 420.457V424.112C1178.77 426.05 1179.3 427.615 1180.35 428.805C1181.43 429.968 1182.94 430.55 1184.88 430.55ZM1225.09 417.55V414.726H1244.86V417.55H1225.09ZM1225.09 425.856V423.032H1244.86V425.856H1225.09ZM1276.39 433V411.569H1279.72V415.058H1279.88C1280.1 414.532 1280.38 414.033 1280.71 413.563C1281.04 413.064 1281.45 412.635 1281.92 412.275C1282.42 411.915 1283 411.625 1283.66 411.403C1284.33 411.182 1285.1 411.071 1285.99 411.071C1288.23 411.071 1290.03 411.791 1291.39 413.231C1292.74 414.643 1293.42 416.65 1293.42 419.253V433H1290.1V419.834C1290.1 417.868 1289.67 416.415 1288.81 415.473C1287.95 414.504 1286.69 414.02 1285.03 414.02C1284.37 414.02 1283.72 414.103 1283.08 414.269C1282.44 414.435 1281.88 414.684 1281.38 415.016C1280.88 415.349 1280.48 415.778 1280.17 416.304C1279.87 416.83 1279.72 417.439 1279.72 418.131V433H1276.39Z" fill="#595959"/>
<g id="return prod">
<path d="M1101.16 722.345H1106.85V708.224H1101.16V704.569H1111.37V710.259H1111.62C1111.82 709.512 1112.09 708.792 1112.45 708.099C1112.81 707.407 1113.27 706.812 1113.82 706.314C1114.38 705.788 1115.06 705.372 1115.86 705.068C1116.66 704.735 1117.6 704.569 1118.68 704.569H1121.26V708.889H1117.02C1115.36 708.889 1114 709.387 1112.95 710.384C1111.9 711.353 1111.37 712.668 1111.37 714.329V722.345H1119.14V726H1101.16V722.345ZM1135.82 726.498C1134.19 726.498 1132.72 726.235 1131.42 725.709C1130.12 725.183 1129.02 724.436 1128.14 723.467C1127.25 722.497 1126.57 721.335 1126.1 719.978C1125.63 718.593 1125.4 717.043 1125.4 715.326C1125.4 713.609 1125.63 712.059 1126.1 710.675C1126.6 709.29 1127.28 708.113 1128.14 707.144C1129.02 706.147 1130.09 705.386 1131.33 704.86C1132.58 704.334 1133.96 704.071 1135.49 704.071C1136.98 704.071 1138.34 704.334 1139.56 704.86C1140.78 705.358 1141.81 706.078 1142.67 707.02C1143.53 707.961 1144.18 709.082 1144.62 710.384C1145.1 711.685 1145.33 713.125 1145.33 714.703V716.406H1129.96V717.112C1129.96 718.801 1130.49 720.185 1131.54 721.265C1132.59 722.317 1134.05 722.844 1135.9 722.844C1137.29 722.844 1138.46 722.553 1139.43 721.971C1140.43 721.362 1141.23 720.559 1141.84 719.562L1144.67 722.054C1143.95 723.3 1142.84 724.353 1141.34 725.211C1139.88 726.069 1138.03 726.498 1135.82 726.498ZM1135.49 707.518C1134.68 707.518 1133.94 707.656 1133.24 707.933C1132.58 708.21 1132 708.612 1131.5 709.138C1131.03 709.636 1130.66 710.232 1130.38 710.924C1130.1 711.616 1129.96 712.377 1129.96 713.208V713.499H1140.72V713.083C1140.72 711.394 1140.24 710.052 1139.27 709.055C1138.33 708.03 1137.07 707.518 1135.49 707.518ZM1161.55 726C1159.67 726 1158.29 725.502 1157.4 724.505C1156.51 723.48 1156.07 722.165 1156.07 720.559V708.224H1149.47V704.569H1154.16C1154.96 704.569 1155.53 704.417 1155.86 704.112C1156.2 703.78 1156.36 703.199 1156.36 702.368V697.01H1160.6V704.569H1169.74V708.224H1160.6V722.345H1169.74V726H1161.55ZM1189.61 722.345H1189.41C1189.18 722.899 1188.89 723.439 1188.53 723.965C1188.2 724.463 1187.79 724.906 1187.29 725.294C1186.79 725.654 1186.21 725.945 1185.54 726.166C1184.88 726.388 1184.1 726.498 1183.22 726.498C1181.06 726.498 1179.31 725.792 1177.98 724.38C1176.66 722.968 1175.99 720.961 1175.99 718.358V704.569H1180.52V717.694C1180.52 721.099 1182 722.802 1184.96 722.802C1185.54 722.802 1186.11 722.733 1186.66 722.594C1187.22 722.428 1187.72 722.193 1188.16 721.888C1188.6 721.584 1188.95 721.21 1189.2 720.767C1189.48 720.296 1189.61 719.742 1189.61 719.106V704.569H1194.14V726H1189.61V722.345ZM1200.77 722.345H1206.46V708.224H1200.77V704.569H1210.99V710.259H1211.24C1211.43 709.512 1211.71 708.792 1212.07 708.099C1212.43 707.407 1212.88 706.812 1213.44 706.314C1213.99 705.788 1214.67 705.372 1215.47 705.068C1216.27 704.735 1217.22 704.569 1218.3 704.569H1220.87V708.889H1216.63C1214.97 708.889 1213.62 709.387 1212.56 710.384C1211.51 711.353 1210.99 712.668 1210.99 714.329V722.345H1218.75V726H1200.77V722.345ZM1226.01 726V704.569H1230.53V708.224H1230.74C1230.96 707.67 1231.24 707.144 1231.57 706.646C1231.93 706.12 1232.36 705.677 1232.86 705.317C1233.36 704.929 1233.94 704.625 1234.6 704.403C1235.27 704.182 1236.04 704.071 1236.93 704.071C1239.09 704.071 1240.83 704.777 1242.16 706.189C1243.49 707.601 1244.15 709.609 1244.15 712.211V726H1239.63V712.876C1239.63 709.47 1238.15 707.767 1235.18 707.767C1234.6 707.767 1234.03 707.85 1233.48 708.016C1232.93 708.155 1232.43 708.376 1231.99 708.681C1231.54 708.986 1231.18 709.373 1230.91 709.844C1230.66 710.315 1230.53 710.854 1230.53 711.464V726H1226.01Z" fill="#4B6584"/>
<path d="M1276.27 704.569H1279.59V708.058H1279.76C1281.14 705.4 1283.34 704.071 1286.36 704.071C1288.99 704.071 1291.04 705.054 1292.51 707.02C1294 708.986 1294.75 711.741 1294.75 715.285C1294.75 718.829 1294 721.584 1292.51 723.55C1291.04 725.515 1288.99 726.498 1286.36 726.498C1283.34 726.498 1281.14 725.169 1279.76 722.511H1279.59V734.306H1276.27V704.569ZM1285.07 723.55C1287.01 723.55 1288.51 722.968 1289.56 721.805C1290.64 720.615 1291.18 719.05 1291.18 717.112V713.457C1291.18 711.519 1290.64 709.968 1289.56 708.806C1288.51 707.615 1287.01 707.02 1285.07 707.02C1284.33 707.02 1283.62 707.117 1282.96 707.31C1282.29 707.504 1281.71 707.795 1281.21 708.183C1280.71 708.543 1280.31 708.999 1280.01 709.553C1279.73 710.079 1279.59 710.702 1279.59 711.422V719.147C1279.59 719.867 1279.73 720.504 1280.01 721.058C1280.31 721.584 1280.71 722.041 1281.21 722.428C1281.71 722.788 1282.29 723.065 1282.96 723.259C1283.62 723.453 1284.33 723.55 1285.07 723.55ZM1300.42 723.176H1306.7V707.393H1300.42V704.569H1310.02V709.968H1310.23C1310.67 708.279 1311.5 706.964 1312.72 706.023C1313.96 705.054 1315.54 704.569 1317.45 704.569H1320.44V707.892H1316.41C1314.5 707.892 1312.95 708.446 1311.76 709.553C1310.6 710.661 1310.02 712.114 1310.02 713.914V723.176H1318.32V726H1300.42V723.176ZM1334.59 726.498C1333.09 726.498 1331.74 726.235 1330.52 725.709C1329.33 725.183 1328.3 724.436 1327.45 723.467C1326.61 722.47 1325.98 721.293 1325.54 719.936C1325.09 718.552 1324.87 717.001 1324.87 715.285C1324.87 713.596 1325.09 712.059 1325.54 710.675C1325.98 709.29 1326.61 708.113 1327.45 707.144C1328.3 706.147 1329.33 705.386 1330.52 704.86C1331.74 704.334 1333.09 704.071 1334.59 704.071C1336.08 704.071 1337.43 704.334 1338.62 704.86C1339.84 705.386 1340.86 706.147 1341.69 707.144C1342.55 708.113 1343.2 709.29 1343.64 710.675C1344.09 712.059 1344.31 713.596 1344.31 715.285C1344.31 717.001 1344.09 718.552 1343.64 719.936C1343.2 721.293 1342.55 722.47 1341.69 723.467C1340.86 724.436 1339.84 725.183 1338.62 725.709C1337.43 726.235 1336.08 726.498 1334.59 726.498ZM1334.59 723.633C1336.44 723.633 1337.94 723.079 1339.07 721.971C1340.21 720.864 1340.78 719.147 1340.78 716.821V713.748C1340.78 711.422 1340.21 709.705 1339.07 708.598C1337.94 707.49 1336.44 706.937 1334.59 706.937C1332.73 706.937 1331.24 707.49 1330.1 708.598C1328.97 709.705 1328.4 711.422 1328.4 713.748V716.821C1328.4 719.147 1328.97 720.864 1330.1 721.971C1331.24 723.079 1332.73 723.633 1334.59 723.633ZM1364.68 722.511H1364.52C1363.13 725.169 1360.93 726.498 1357.91 726.498C1355.28 726.498 1353.22 725.515 1351.73 723.55C1350.26 721.584 1349.52 718.829 1349.52 715.285C1349.52 711.741 1350.26 708.986 1351.73 707.02C1353.22 705.054 1355.28 704.071 1357.91 704.071C1360.93 704.071 1363.13 705.4 1364.52 708.058H1364.68V695.266H1368.01V726H1364.68V722.511ZM1359.2 723.55C1359.95 723.55 1360.66 723.453 1361.32 723.259C1361.98 723.065 1362.57 722.788 1363.06 722.428C1363.56 722.041 1363.95 721.584 1364.23 721.058C1364.53 720.504 1364.68 719.867 1364.68 719.147V711.422C1364.68 710.702 1364.53 710.079 1364.23 709.553C1363.95 708.999 1363.56 708.543 1363.06 708.183C1362.57 707.795 1361.98 707.504 1361.32 707.31C1360.66 707.117 1359.95 707.02 1359.2 707.02C1357.26 707.02 1355.75 707.615 1354.67 708.806C1353.62 709.968 1353.1 711.519 1353.1 713.457V717.112C1353.1 719.05 1353.62 720.615 1354.67 721.805C1355.75 722.968 1357.26 723.55 1359.2 723.55Z" fill="#595959"/>
</g>
<g id="for j in 1..n:">
<path d="M1179.24 577.345H1186.09V563.224H1178.82V559.569H1186.09V555.707C1186.09 554.101 1186.54 552.799 1187.42 551.803C1188.31 550.778 1189.69 550.266 1191.57 550.266H1198.8V553.921H1190.62V559.569H1198.8V563.224H1190.62V577.345H1197.85V581H1179.24V577.345ZM1213.36 581.498C1211.78 581.498 1210.36 581.235 1209.09 580.709C1207.84 580.183 1206.77 579.436 1205.89 578.467C1205.03 577.497 1204.36 576.321 1203.89 574.936C1203.42 573.552 1203.19 572.001 1203.19 570.285C1203.19 568.568 1203.42 567.017 1203.89 565.633C1204.36 564.249 1205.03 563.072 1205.89 562.103C1206.77 561.134 1207.84 560.386 1209.09 559.86C1210.36 559.334 1211.78 559.071 1213.36 559.071C1214.94 559.071 1216.35 559.334 1217.6 559.86C1218.87 560.386 1219.94 561.134 1220.8 562.103C1221.68 563.072 1222.36 564.249 1222.83 565.633C1223.3 567.017 1223.54 568.568 1223.54 570.285C1223.54 572.001 1223.3 573.552 1222.83 574.936C1222.36 576.321 1221.68 577.497 1220.8 578.467C1219.94 579.436 1218.87 580.183 1217.6 580.709C1216.35 581.235 1214.94 581.498 1213.36 581.498ZM1213.36 577.927C1215.02 577.927 1216.34 577.428 1217.31 576.431C1218.31 575.407 1218.8 573.898 1218.8 571.904V568.665C1218.8 566.671 1218.31 565.176 1217.31 564.179C1216.34 563.155 1215.02 562.643 1213.36 562.643C1211.7 562.643 1210.37 563.155 1209.38 564.179C1208.41 565.176 1207.92 566.671 1207.92 568.665V571.904C1207.92 573.898 1208.41 575.407 1209.38 576.431C1210.37 577.428 1211.7 577.927 1213.36 577.927ZM1228.96 577.345H1234.65V563.224H1228.96V559.569H1239.18V565.259H1239.43C1239.62 564.512 1239.9 563.792 1240.26 563.099C1240.62 562.407 1241.08 561.812 1241.63 561.314C1242.18 560.788 1242.86 560.372 1243.67 560.068C1244.47 559.735 1245.41 559.569 1246.49 559.569H1249.06V563.889H1244.83C1243.17 563.889 1241.81 564.387 1240.76 565.384C1239.71 566.353 1239.18 567.668 1239.18 569.329V577.345H1246.95V581H1228.96V577.345Z" fill="#3867D6"/>
<path d="M1279.85 586.482H1290.23V562.393H1279.48V559.569H1293.56V584.406C1293.56 585.845 1293.17 587.022 1292.39 587.936C1291.64 588.85 1290.45 589.306 1288.82 589.306H1279.85V586.482ZM1291.89 554.835C1290.92 554.835 1290.25 554.641 1289.86 554.253C1289.47 553.838 1289.28 553.326 1289.28 552.716V552.052C1289.28 551.443 1289.47 550.944 1289.86 550.557C1290.25 550.141 1290.92 549.934 1291.89 549.934C1292.86 549.934 1293.54 550.141 1293.93 550.557C1294.32 550.944 1294.51 551.443 1294.51 552.052V552.716C1294.51 553.326 1294.32 553.838 1293.93 554.253C1293.54 554.641 1292.86 554.835 1291.89 554.835ZM1339.21 554.835C1338.24 554.835 1337.56 554.641 1337.17 554.253C1336.79 553.838 1336.59 553.326 1336.59 552.716V552.052C1336.59 551.443 1336.79 550.944 1337.17 550.557C1337.56 550.141 1338.24 549.934 1339.21 549.934C1340.18 549.934 1340.86 550.141 1341.24 550.557C1341.63 550.944 1341.82 551.443 1341.82 552.052V552.716C1341.82 553.326 1341.63 553.838 1341.24 554.253C1340.86 554.641 1340.18 554.835 1339.21 554.835ZM1329.82 578.176H1337.55V562.393H1329.82V559.569H1340.87V578.176H1348.1V581H1329.82V578.176ZM1354.39 581V559.569H1357.72V563.058H1357.88C1358.1 562.532 1358.38 562.033 1358.71 561.563C1359.04 561.064 1359.45 560.635 1359.92 560.275C1360.42 559.915 1361 559.625 1361.66 559.403C1362.33 559.182 1363.1 559.071 1363.99 559.071C1366.23 559.071 1368.03 559.791 1369.39 561.231C1370.74 562.643 1371.42 564.65 1371.42 567.253V581H1368.1V567.834C1368.1 565.868 1367.67 564.415 1366.81 563.473C1365.95 562.504 1364.69 562.02 1363.03 562.02C1362.37 562.02 1361.72 562.103 1361.08 562.269C1360.44 562.435 1359.88 562.684 1359.38 563.016C1358.88 563.349 1358.48 563.778 1358.17 564.304C1357.87 564.83 1357.72 565.439 1357.72 566.131V581H1354.39ZM1403.66 581V577.968H1411.97V554.585H1411.68L1404.37 561.397L1402.33 559.195L1410.01 552.01H1415.45V577.968H1423.1V581H1403.66ZM1437.49 581.374C1436.36 581.374 1435.55 581.138 1435.08 580.668C1434.64 580.197 1434.42 579.602 1434.42 578.882V578.134C1434.42 577.414 1434.64 576.819 1435.08 576.348C1435.55 575.878 1436.36 575.642 1437.49 575.642C1438.63 575.642 1439.42 575.878 1439.86 576.348C1440.33 576.819 1440.57 577.414 1440.57 578.134V578.882C1440.57 579.602 1440.33 580.197 1439.86 580.668C1439.42 581.138 1438.63 581.374 1437.49 581.374ZM1462.4 581.374C1461.26 581.374 1460.46 581.138 1459.99 580.668C1459.54 580.197 1459.32 579.602 1459.32 578.882V578.134C1459.32 577.414 1459.54 576.819 1459.99 576.348C1460.46 575.878 1461.26 575.642 1462.4 575.642C1463.53 575.642 1464.32 575.878 1464.76 576.348C1465.23 576.819 1465.47 577.414 1465.47 578.134V578.882C1465.47 579.602 1465.23 580.197 1464.76 580.668C1464.32 581.138 1463.53 581.374 1462.4 581.374ZM1478.91 581V559.569H1482.23V563.058H1482.4C1482.62 562.532 1482.9 562.033 1483.23 561.563C1483.56 561.064 1483.96 560.635 1484.43 560.275C1484.93 559.915 1485.51 559.625 1486.18 559.403C1486.84 559.182 1487.62 559.071 1488.5 559.071C1490.75 559.071 1492.55 559.791 1493.9 561.231C1495.26 562.643 1495.94 564.65 1495.94 567.253V581H1492.62V567.834C1492.62 565.868 1492.19 564.415 1491.33 563.473C1490.47 562.504 1489.21 562.02 1487.55 562.02C1486.88 562.02 1486.23 562.103 1485.6 562.269C1484.96 562.435 1484.39 562.684 1483.89 563.016C1483.39 563.349 1482.99 563.778 1482.69 564.304C1482.38 564.83 1482.23 565.439 1482.23 566.131V581H1478.91ZM1512.2 581.374C1511.07 581.374 1510.26 581.138 1509.79 580.668C1509.35 580.197 1509.13 579.602 1509.13 578.882V578.134C1509.13 577.414 1509.35 576.819 1509.79 576.348C1510.26 575.878 1511.07 575.642 1512.2 575.642C1513.34 575.642 1514.13 575.878 1514.57 576.348C1515.04 576.819 1515.28 577.414 1515.28 578.134V578.882C1515.28 579.602 1515.04 580.197 1514.57 580.668C1514.13 581.138 1513.34 581.374 1512.2 581.374ZM1512.2 564.927C1511.07 564.927 1510.26 564.692 1509.79 564.221C1509.35 563.75 1509.13 563.155 1509.13 562.435V561.687C1509.13 560.967 1509.35 560.372 1509.79 559.901C1510.26 559.431 1511.07 559.195 1512.2 559.195C1513.34 559.195 1514.13 559.431 1514.57 559.901C1515.04 560.372 1515.28 560.967 1515.28 561.687V562.435C1515.28 563.155 1515.04 563.75 1514.57 564.221C1514.13 564.692 1513.34 564.927 1512.2 564.927Z" fill="#595959"/>
</g>
<g id="prod = +1(prod)">
<path d="M1277.18 631.296H1280.7V634.992H1280.88C1282.34 632.176 1284.67 630.768 1287.87 630.768C1290.66 630.768 1292.83 631.809 1294.38 633.892C1295.97 635.975 1296.76 638.893 1296.76 642.648C1296.76 646.403 1295.97 649.321 1294.38 651.404C1292.83 653.487 1290.66 654.528 1287.87 654.528C1284.67 654.528 1282.34 653.12 1280.88 650.304H1280.7V662.8H1277.18V631.296ZM1286.51 651.404C1288.56 651.404 1290.15 650.788 1291.26 649.556C1292.4 648.295 1292.98 646.637 1292.98 644.584V640.712C1292.98 638.659 1292.4 637.016 1291.26 635.784C1290.15 634.523 1288.56 633.892 1286.51 633.892C1285.72 633.892 1284.97 633.995 1284.26 634.2C1283.56 634.405 1282.94 634.713 1282.42 635.124C1281.89 635.505 1281.46 635.989 1281.14 636.576C1280.85 637.133 1280.7 637.793 1280.7 638.556V646.74C1280.7 647.503 1280.85 648.177 1281.14 648.764C1281.46 649.321 1281.89 649.805 1282.42 650.216C1282.94 650.597 1283.56 650.891 1284.26 651.096C1284.97 651.301 1285.72 651.404 1286.51 651.404ZM1302.77 651.008H1309.41V634.288H1302.77V631.296H1312.93V637.016H1313.15C1313.62 635.227 1314.5 633.833 1315.79 632.836C1317.11 631.809 1318.79 631.296 1320.81 631.296H1323.98V634.816H1319.71C1317.69 634.816 1316.04 635.403 1314.78 636.576C1313.55 637.749 1312.93 639.289 1312.93 641.196V651.008H1321.73V654H1302.77V651.008ZM1338.97 654.528C1337.38 654.528 1335.94 654.249 1334.65 653.692C1333.39 653.135 1332.31 652.343 1331.4 651.316C1330.52 650.26 1329.84 649.013 1329.37 647.576C1328.9 646.109 1328.67 644.467 1328.67 642.648C1328.67 640.859 1328.9 639.231 1329.37 637.764C1329.84 636.297 1330.52 635.051 1331.4 634.024C1332.31 632.968 1333.39 632.161 1334.65 631.604C1335.94 631.047 1337.38 630.768 1338.97 630.768C1340.55 630.768 1341.97 631.047 1343.23 631.604C1344.52 632.161 1345.61 632.968 1346.49 634.024C1347.4 635.051 1348.09 636.297 1348.56 637.764C1349.03 639.231 1349.26 640.859 1349.26 642.648C1349.26 644.467 1349.03 646.109 1348.56 647.576C1348.09 649.013 1347.4 650.26 1346.49 651.316C1345.61 652.343 1344.52 653.135 1343.23 653.692C1341.97 654.249 1340.55 654.528 1338.97 654.528ZM1338.97 651.492C1340.93 651.492 1342.51 650.905 1343.72 649.732C1344.92 648.559 1345.52 646.74 1345.52 644.276V641.02C1345.52 638.556 1344.92 636.737 1343.72 635.564C1342.51 634.391 1340.93 633.804 1338.97 633.804C1337 633.804 1335.42 634.391 1334.21 635.564C1333.01 636.737 1332.41 638.556 1332.41 641.02V644.276C1332.41 646.74 1333.01 648.559 1334.21 649.732C1335.42 650.905 1337 651.492 1338.97 651.492ZM1370.85 650.304H1370.67C1369.21 653.12 1366.87 654.528 1363.68 654.528C1360.89 654.528 1358.7 653.487 1357.12 651.404C1355.57 649.321 1354.79 646.403 1354.79 642.648C1354.79 638.893 1355.57 635.975 1357.12 633.892C1358.7 631.809 1360.89 630.768 1363.68 630.768C1366.87 630.768 1369.21 632.176 1370.67 634.992H1370.85V621.44H1374.37V654H1370.85V650.304ZM1365.04 651.404C1365.83 651.404 1366.58 651.301 1367.28 651.096C1367.99 650.891 1368.6 650.597 1369.13 650.216C1369.66 649.805 1370.07 649.321 1370.36 648.764C1370.69 648.177 1370.85 647.503 1370.85 646.74V638.556C1370.85 637.793 1370.69 637.133 1370.36 636.576C1370.07 635.989 1369.66 635.505 1369.13 635.124C1368.6 634.713 1367.99 634.405 1367.28 634.2C1366.58 633.995 1365.83 633.892 1365.04 633.892C1362.99 633.892 1361.39 634.523 1360.24 635.784C1359.13 637.016 1358.57 638.659 1358.57 640.712V644.584C1358.57 646.637 1359.13 648.295 1360.24 649.556C1361.39 650.788 1362.99 651.404 1365.04 651.404ZM1407.64 637.632V634.64H1428.59V637.632H1407.64ZM1407.64 646.432V643.44H1428.59V646.432H1407.64ZM1519.47 640.316C1519.47 638.175 1519.7 636.121 1520.17 634.156C1520.67 632.161 1521.33 630.313 1522.15 628.612C1523 626.911 1523.98 625.385 1525.1 624.036C1526.21 622.657 1527.39 621.499 1528.62 620.56H1532.18C1530.89 621.528 1529.67 622.657 1528.53 623.948C1527.41 625.209 1526.42 626.603 1525.54 628.128C1524.69 629.624 1524.01 631.252 1523.51 633.012C1523.01 634.743 1522.77 636.547 1522.77 638.424V642.208C1522.77 644.085 1523.01 645.904 1523.51 647.664C1524.01 649.395 1524.69 651.023 1525.54 652.548C1526.42 654.044 1527.41 655.423 1528.53 656.684C1529.67 657.975 1530.89 659.104 1532.18 660.072H1528.62C1527.39 659.163 1526.21 658.019 1525.1 656.64C1523.98 655.261 1523 653.721 1522.15 652.02C1521.33 650.319 1520.67 648.485 1520.17 646.52C1519.7 644.525 1519.47 642.457 1519.47 640.316ZM1541.01 631.296H1544.53V634.992H1544.7C1546.17 632.176 1548.5 630.768 1551.7 630.768C1554.49 630.768 1556.66 631.809 1558.21 633.892C1559.8 635.975 1560.59 638.893 1560.59 642.648C1560.59 646.403 1559.8 649.321 1558.21 651.404C1556.66 653.487 1554.49 654.528 1551.7 654.528C1548.5 654.528 1546.17 653.12 1544.7 650.304H1544.53V662.8H1541.01V631.296ZM1550.34 651.404C1552.39 651.404 1553.97 650.788 1555.09 649.556C1556.23 648.295 1556.8 646.637 1556.8 644.584V640.712C1556.8 638.659 1556.23 637.016 1555.09 635.784C1553.97 634.523 1552.39 633.892 1550.34 633.892C1549.54 633.892 1548.8 633.995 1548.09 634.2C1547.39 634.405 1546.77 634.713 1546.24 635.124C1545.72 635.505 1545.29 635.989 1544.97 636.576C1544.67 637.133 1544.53 637.793 1544.53 638.556V646.74C1544.53 647.503 1544.67 648.177 1544.97 648.764C1545.29 649.321 1545.72 649.805 1546.24 650.216C1546.77 650.597 1547.39 650.891 1548.09 651.096C1548.8 651.301 1549.54 651.404 1550.34 651.404ZM1566.6 651.008H1573.24V634.288H1566.6V631.296H1576.76V637.016H1576.98C1577.45 635.227 1578.33 633.833 1579.62 632.836C1580.94 631.809 1582.61 631.296 1584.64 631.296H1587.81V634.816H1583.54C1581.51 634.816 1579.87 635.403 1578.61 636.576C1577.38 637.749 1576.76 639.289 1576.76 641.196V651.008H1585.56V654H1566.6V651.008ZM1602.79 654.528C1601.21 654.528 1599.77 654.249 1598.48 653.692C1597.22 653.135 1596.14 652.343 1595.23 651.316C1594.35 650.26 1593.67 649.013 1593.2 647.576C1592.73 646.109 1592.5 644.467 1592.5 642.648C1592.5 640.859 1592.73 639.231 1593.2 637.764C1593.67 636.297 1594.35 635.051 1595.23 634.024C1596.14 632.968 1597.22 632.161 1598.48 631.604C1599.77 631.047 1601.21 630.768 1602.79 630.768C1604.38 630.768 1605.8 631.047 1607.06 631.604C1608.35 632.161 1609.44 632.968 1610.32 634.024C1611.23 635.051 1611.92 636.297 1612.39 637.764C1612.86 639.231 1613.09 640.859 1613.09 642.648C1613.09 644.467 1612.86 646.109 1612.39 647.576C1611.92 649.013 1611.23 650.26 1610.32 651.316C1609.44 652.343 1608.35 653.135 1607.06 653.692C1605.8 654.249 1604.38 654.528 1602.79 654.528ZM1602.79 651.492C1604.76 651.492 1606.34 650.905 1607.55 649.732C1608.75 648.559 1609.35 646.74 1609.35 644.276V641.02C1609.35 638.556 1608.75 636.737 1607.55 635.564C1606.34 634.391 1604.76 633.804 1602.79 633.804C1600.83 633.804 1599.24 634.391 1598.04 635.564C1596.84 636.737 1596.24 638.556 1596.24 641.02V644.276C1596.24 646.74 1596.84 648.559 1598.04 649.732C1599.24 650.905 1600.83 651.492 1602.79 651.492ZM1634.68 650.304H1634.5C1633.03 653.12 1630.7 654.528 1627.5 654.528C1624.72 654.528 1622.53 653.487 1620.95 651.404C1619.39 649.321 1618.62 646.403 1618.62 642.648C1618.62 638.893 1619.39 635.975 1620.95 633.892C1622.53 631.809 1624.72 630.768 1627.5 630.768C1630.7 630.768 1633.03 632.176 1634.5 634.992H1634.68V621.44H1638.2V654H1634.68V650.304ZM1628.87 651.404C1629.66 651.404 1630.41 651.301 1631.11 651.096C1631.82 650.891 1632.43 650.597 1632.96 650.216C1633.49 649.805 1633.9 649.321 1634.19 648.764C1634.52 648.177 1634.68 647.503 1634.68 646.74V638.556C1634.68 637.793 1634.52 637.133 1634.19 636.576C1633.9 635.989 1633.49 635.505 1632.96 635.124C1632.43 634.713 1631.82 634.405 1631.11 634.2C1630.41 633.995 1629.66 633.892 1628.87 633.892C1626.82 633.892 1625.22 634.523 1624.07 635.784C1622.96 637.016 1622.4 638.659 1622.4 640.712V644.584C1622.4 646.637 1622.96 648.295 1624.07 649.556C1625.22 650.788 1626.82 651.404 1628.87 651.404ZM1659.74 640.316C1659.74 642.457 1659.49 644.525 1658.99 646.52C1658.52 648.485 1657.86 650.319 1657.01 652.02C1656.19 653.721 1655.22 655.261 1654.11 656.64C1652.99 658.019 1651.82 659.163 1650.59 660.072H1647.02C1648.28 659.104 1649.49 657.975 1650.63 656.684C1651.78 655.423 1652.77 654.044 1653.62 652.548C1654.5 651.023 1655.19 649.395 1655.69 647.664C1656.19 645.904 1656.44 644.085 1656.44 642.208V638.424C1656.44 636.547 1656.19 634.743 1655.69 633.012C1655.19 631.252 1654.5 629.624 1653.62 628.128C1652.77 626.603 1651.78 625.209 1650.63 623.948C1649.49 622.657 1648.28 621.528 1647.02 620.56H1650.59C1651.82 621.499 1652.99 622.657 1654.11 624.036C1655.22 625.385 1656.19 626.911 1657.01 628.612C1657.86 630.313 1658.52 632.161 1658.99 634.156C1659.49 636.121 1659.74 638.175 1659.74 640.316Z" fill="#595959"/>
<path d="M1468.42 651.272V642.824H1460.41V638.292H1468.42V629.844H1473.34V638.292H1481.35V642.824H1473.34V651.272H1468.42ZM1488.07 654V649.292H1496.51V627.468H1496.12L1489.43 635.388L1485.82 632.352L1493.43 623.288H1502.28V649.292H1509.23V654H1488.07Z" fill="#D648BC"/>
</g>
<path id="Vector 85" d="M1095.96 616.364C1096.72 615.556 1096.67 614.291 1095.86 613.537L1082.7 601.261C1081.89 600.508 1080.63 600.552 1079.87 601.359C1079.12 602.167 1079.16 603.433 1079.97 604.186L1091.67 615.099L1080.76 626.8C1080.01 627.608 1080.05 628.873 1080.86 629.627C1081.67 630.38 1082.93 630.336 1083.69 629.528L1095.96 616.364ZM827.094 583.783C888.598 615.039 965.571 621.499 1094.57 616.999L1094.43 613.001C965.429 617.501 889.402 610.961 828.906 580.217L827.094 583.783Z" fill="black"/>
<path id="add" d="M914.648 663C913.269 663 912.228 662.648 911.524 661.944C910.849 661.24 910.439 660.316 910.292 659.172H910.072C909.632 660.551 908.825 661.621 907.652 662.384C906.508 663.147 905.041 663.528 903.252 663.528C900.935 663.528 899.087 662.927 897.708 661.724C896.329 660.492 895.64 658.805 895.64 656.664C895.64 654.464 896.447 652.792 898.06 651.648C899.703 650.475 902.211 649.888 905.584 649.888H909.94V648.128C909.94 645.048 908.312 643.508 905.056 643.508C903.589 643.508 902.401 643.801 901.492 644.388C900.583 644.945 899.82 645.693 899.204 646.632L896.344 644.3C896.989 643.068 898.075 642.012 899.6 641.132C901.125 640.223 903.091 639.768 905.496 639.768C908.371 639.768 910.629 640.457 912.272 641.836C913.915 643.215 914.736 645.209 914.736 647.82V659.216H917.596V663H914.648ZM904.616 660.008C906.171 660.008 907.447 659.656 908.444 658.952C909.441 658.248 909.94 657.339 909.94 656.224V652.924H905.672C902.211 652.924 900.48 653.965 900.48 656.048V656.928C900.48 657.955 900.847 658.732 901.58 659.26C902.313 659.759 903.325 660.008 904.616 660.008ZM937.511 659.128H937.247C936.572 660.507 935.677 661.592 934.563 662.384C933.448 663.147 932.055 663.528 930.383 663.528C927.713 663.528 925.587 662.531 924.003 660.536C922.419 658.541 921.627 655.579 921.627 651.648C921.627 647.717 922.419 644.755 924.003 642.76C925.587 640.765 927.713 639.768 930.383 639.768C932.055 639.768 933.448 640.164 934.563 640.956C935.677 641.719 936.572 642.789 937.247 644.168H937.511V630.44H942.307V663H937.511V659.128ZM932.363 659.612C933.067 659.612 933.727 659.524 934.343 659.348C934.959 659.172 935.501 658.908 935.971 658.556C936.44 658.204 936.807 657.779 937.071 657.28C937.364 656.752 937.511 656.136 937.511 655.432V647.864C937.511 647.16 937.364 646.559 937.071 646.06C936.807 645.532 936.44 645.092 935.971 644.74C935.501 644.388 934.959 644.124 934.343 643.948C933.727 643.772 933.067 643.684 932.363 643.684C930.544 643.684 929.136 644.241 928.139 645.356C927.171 646.471 926.687 647.952 926.687 649.8V653.496C926.687 655.344 927.171 656.825 928.139 657.94C929.136 659.055 930.544 659.612 932.363 659.612ZM963.894 659.128H963.63C962.955 660.507 962.06 661.592 960.946 662.384C959.831 663.147 958.438 663.528 956.766 663.528C954.096 663.528 951.97 662.531 950.386 660.536C948.802 658.541 948.01 655.579 948.01 651.648C948.01 647.717 948.802 644.755 950.386 642.76C951.97 640.765 954.096 639.768 956.766 639.768C958.438 639.768 959.831 640.164 960.946 640.956C962.06 641.719 962.955 642.789 963.63 644.168H963.894V630.44H968.69V663H963.894V659.128ZM958.746 659.612C959.45 659.612 960.11 659.524 960.726 659.348C961.342 659.172 961.884 658.908 962.354 658.556C962.823 658.204 963.19 657.779 963.454 657.28C963.747 656.752 963.894 656.136 963.894 655.432V647.864C963.894 647.16 963.747 646.559 963.454 646.06C963.19 645.532 962.823 645.092 962.354 644.74C961.884 644.388 961.342 644.124 960.726 643.948C960.11 643.772 959.45 643.684 958.746 643.684C956.927 643.684 955.519 644.241 954.522 645.356C953.554 646.471 953.07 647.952 953.07 649.8V653.496C953.07 655.344 953.554 656.825 954.522 657.94C955.519 659.055 956.927 659.612 958.746 659.612Z" fill="black"/>
</g>
<g id="mult1">
<path id="multiply(n,m):_2" d="M215.628 358V335.296H220.292V338.42H220.556C220.908 337.423 221.407 336.572 222.052 335.868C222.727 335.135 223.665 334.768 224.868 334.768C226.012 334.768 226.921 335.105 227.596 335.78C228.271 336.425 228.711 337.349 228.916 338.552H229.136C229.517 337.525 230.075 336.645 230.808 335.912C231.571 335.149 232.641 334.768 234.02 334.768C235.692 334.768 236.895 335.369 237.628 336.572C238.361 337.775 238.728 339.549 238.728 341.896V358H234.108V342.556C234.108 341.236 233.917 340.312 233.536 339.784C233.184 339.256 232.641 338.992 231.908 338.992C231.233 338.992 230.661 339.212 230.192 339.652C229.752 340.092 229.532 340.767 229.532 341.676V358H224.868V342.556C224.868 341.236 224.692 340.312 224.34 339.784C223.988 339.256 223.445 338.992 222.712 338.992C222.008 338.992 221.421 339.212 220.952 339.652C220.512 340.092 220.292 340.767 220.292 341.676V358H215.628ZM257.851 353.996H257.631C257.132 355.228 256.355 356.299 255.299 357.208C254.272 358.088 252.835 358.528 250.987 358.528C248.757 358.528 246.939 357.795 245.531 356.328C244.152 354.832 243.463 352.705 243.463 349.948V335.296H249.095V349.156C249.095 352.441 250.517 354.084 253.363 354.084C253.92 354.084 254.463 354.011 254.991 353.864C255.548 353.717 256.032 353.497 256.443 353.204C256.883 352.881 257.22 352.5 257.455 352.06C257.719 351.62 257.851 351.092 257.851 350.476V335.296H263.483V358H257.851V353.996ZM269.934 353.556H277.15V329.884H269.934V325.44H282.782V353.556H290.042V358H269.934V353.556ZM307.888 358C305.718 358 304.119 357.428 303.092 356.284C302.066 355.14 301.552 353.659 301.552 351.84V339.74H294.952V335.296H299.44C300.35 335.296 300.995 335.12 301.376 334.768C301.758 334.387 301.948 333.727 301.948 332.788V327.288H307.184V335.296H316.424V339.74H307.184V353.556H316.424V358H307.888ZM334.139 331.776C332.819 331.776 331.881 331.497 331.323 330.94C330.795 330.383 330.531 329.708 330.531 328.916V327.86C330.531 327.068 330.795 326.393 331.323 325.836C331.881 325.279 332.819 325 334.139 325C335.459 325 336.383 325.279 336.911 325.836C337.469 326.393 337.747 327.068 337.747 327.86V328.916C337.747 329.708 337.469 330.383 336.911 330.94C336.383 331.497 335.459 331.776 334.139 331.776ZM323.843 353.556H331.323V339.74H323.843V335.296H336.955V353.556H343.907V358H323.843V353.556ZM348.95 335.296H354.582V339.3H354.89C355.506 337.921 356.342 336.821 357.398 336C358.483 335.179 359.906 334.768 361.666 334.768C362.957 334.768 364.13 335.017 365.186 335.516C366.271 335.985 367.195 336.719 367.958 337.716C368.721 338.684 369.307 339.916 369.718 341.412C370.129 342.908 370.334 344.653 370.334 346.648C370.334 348.643 370.129 350.388 369.718 351.884C369.307 353.38 368.721 354.627 367.958 355.624C367.195 356.592 366.271 357.325 365.186 357.824C364.13 358.293 362.957 358.528 361.666 358.528C359.906 358.528 358.483 358.117 357.398 357.296C356.342 356.475 355.506 355.375 354.89 353.996H354.582V366.8H348.95V335.296ZM359.29 354.04C360.933 354.04 362.194 353.541 363.074 352.544C363.983 351.547 364.438 350.183 364.438 348.452V344.844C364.438 343.113 363.983 341.749 363.074 340.752C362.194 339.755 360.933 339.256 359.29 339.256C357.999 339.256 356.885 339.579 355.946 340.224C355.037 340.84 354.582 341.793 354.582 343.084V350.212C354.582 351.503 355.037 352.471 355.946 353.116C356.885 353.732 357.999 354.04 359.29 354.04ZM375.465 353.556H382.681V329.884H375.465V325.44H388.313V353.556H395.573V358H375.465V353.556ZM418.084 335.296H423.804L412.936 362.048C412.32 363.603 411.498 364.776 410.472 365.568C409.445 366.389 407.993 366.8 406.116 366.8H401.98V362.356H407.392L409.108 357.78L399.956 335.296H405.94L409.416 344.8L411.836 352.016H412.144L414.564 344.8L418.084 335.296ZM433.115 344.316C433.115 342.175 433.349 340.121 433.819 338.156C434.317 336.161 434.977 334.313 435.799 332.612C436.649 330.911 437.632 329.385 438.747 328.036C439.861 326.657 441.035 325.499 442.267 324.56H447.899C446.579 325.499 445.317 326.599 444.115 327.86C442.912 329.121 441.856 330.515 440.947 332.04C440.037 333.536 439.304 335.149 438.747 336.88C438.219 338.581 437.955 340.356 437.955 342.204V346.428C437.955 348.276 438.219 350.065 438.747 351.796C439.304 353.497 440.037 355.111 440.947 356.636C441.856 358.132 442.912 359.511 444.115 360.772C445.317 362.033 446.579 363.133 447.899 364.072H442.267C441.035 363.163 439.861 362.019 438.747 360.64C437.632 359.261 436.649 357.721 435.799 356.02C434.977 354.319 434.317 352.485 433.819 350.52C433.349 348.525 433.115 346.457 433.115 344.316ZM454.745 358V335.296H460.377V339.3H460.597C461.096 338.068 461.859 337.012 462.885 336.132C463.941 335.223 465.393 334.768 467.241 334.768C469.471 334.768 471.275 335.516 472.653 337.012C474.061 338.479 474.765 340.591 474.765 343.348V358H469.133V344.14C469.133 340.855 467.711 339.212 464.865 339.212C464.279 339.212 463.721 339.285 463.193 339.432C462.665 339.579 462.181 339.813 461.741 340.136C461.331 340.429 460.993 340.796 460.729 341.236C460.495 341.676 460.377 342.204 460.377 342.82V358H454.745ZM488.212 350.828H495.78L490.016 364.512H485.748L488.212 350.828ZM505.839 358V335.296H510.503V338.42H510.767C511.119 337.423 511.618 336.572 512.263 335.868C512.938 335.135 513.876 334.768 515.079 334.768C516.223 334.768 517.132 335.105 517.807 335.78C518.482 336.425 518.922 337.349 519.127 338.552H519.347C519.728 337.525 520.286 336.645 521.019 335.912C521.782 335.149 522.852 334.768 524.231 334.768C525.903 334.768 527.106 335.369 527.839 336.572C528.572 337.775 528.939 339.549 528.939 341.896V358H524.319V342.556C524.319 341.236 524.128 340.312 523.747 339.784C523.395 339.256 522.852 338.992 522.119 338.992C521.444 338.992 520.872 339.212 520.403 339.652C519.963 340.092 519.743 340.767 519.743 341.676V358H515.079V342.556C515.079 341.236 514.903 340.312 514.551 339.784C514.199 339.256 513.656 338.992 512.923 338.992C512.219 338.992 511.632 339.212 511.163 339.652C510.723 340.092 510.503 340.767 510.503 341.676V358H505.839ZM548.942 344.316C548.942 346.457 548.692 348.525 548.194 350.52C547.724 352.485 547.064 354.319 546.214 356.02C545.392 357.721 544.424 359.261 543.31 360.64C542.195 362.019 541.022 363.163 539.79 364.072H534.158C535.478 363.133 536.739 362.033 537.942 360.772C539.144 359.511 540.2 358.132 541.11 356.636C542.019 355.111 542.738 353.497 543.266 351.796C543.823 350.065 544.102 348.276 544.102 346.428V342.204C544.102 340.356 543.823 338.581 543.266 336.88C542.738 335.149 542.019 333.536 541.11 332.04C540.2 330.515 539.144 329.121 537.942 327.86C536.739 326.599 535.478 325.499 534.158 324.56H539.79C541.022 325.499 542.195 326.657 543.31 328.036C544.424 329.385 545.392 330.911 546.214 332.612C547.064 334.313 547.724 336.161 548.194 338.156C548.692 340.121 548.942 342.175 548.942 344.316ZM570.177 358.484C568.651 358.484 567.566 358.161 566.921 357.516C566.275 356.871 565.953 356.079 565.953 355.14V353.82C565.953 352.881 566.275 352.089 566.921 351.444C567.566 350.799 568.651 350.476 570.177 350.476C571.702 350.476 572.787 350.799 573.433 351.444C574.078 352.089 574.401 352.881 574.401 353.82V355.14C574.401 356.079 574.078 356.871 573.433 357.516C572.787 358.161 571.702 358.484 570.177 358.484ZM570.177 342.864C568.651 342.864 567.566 342.541 566.921 341.896C566.275 341.251 565.953 340.459 565.953 339.52V338.2C565.953 337.261 566.275 336.469 566.921 335.824C567.566 335.179 568.651 334.856 570.177 334.856C571.702 334.856 572.787 335.179 573.433 335.824C574.078 336.469 574.401 337.261 574.401 338.2V339.52C574.401 340.459 574.078 341.251 573.433 341.896C572.787 342.541 571.702 342.864 570.177 342.864Z" fill="black"/>
<g id="for i in 1..m:_2">
<path d="M285.24 502.345H292.092V488.224H284.824V484.569H292.092V480.707C292.092 479.101 292.535 477.799 293.421 476.803C294.307 475.778 295.692 475.266 297.575 475.266H304.801V478.921H296.619V484.569H304.801V488.224H296.619V502.345H303.846V506H285.24V502.345ZM319.363 506.498C317.785 506.498 316.359 506.235 315.085 505.709C313.839 505.183 312.773 504.436 311.887 503.467C311.029 502.497 310.364 501.321 309.894 499.936C309.423 498.552 309.188 497.001 309.188 495.285C309.188 493.568 309.423 492.017 309.894 490.633C310.364 489.249 311.029 488.072 311.887 487.103C312.773 486.134 313.839 485.386 315.085 484.86C316.359 484.334 317.785 484.071 319.363 484.071C320.941 484.071 322.353 484.334 323.599 484.86C324.873 485.386 325.939 486.134 326.797 487.103C327.683 488.072 328.362 489.249 328.832 490.633C329.303 492.017 329.538 493.568 329.538 495.285C329.538 497.001 329.303 498.552 328.832 499.936C328.362 501.321 327.683 502.497 326.797 503.467C325.939 504.436 324.873 505.183 323.599 505.709C322.353 506.235 320.941 506.498 319.363 506.498ZM319.363 502.927C321.024 502.927 322.34 502.428 323.309 501.431C324.305 500.407 324.804 498.898 324.804 496.904V493.665C324.804 491.671 324.305 490.176 323.309 489.179C322.34 488.155 321.024 487.643 319.363 487.643C317.702 487.643 316.373 488.155 315.376 489.179C314.407 490.176 313.922 491.671 313.922 493.665V496.904C313.922 498.898 314.407 500.407 315.376 501.431C316.373 502.428 317.702 502.927 319.363 502.927ZM334.963 502.345H340.653V488.224H334.963V484.569H345.18V490.259H345.429C345.623 489.512 345.9 488.792 346.26 488.099C346.62 487.407 347.077 486.812 347.63 486.314C348.184 485.788 348.863 485.372 349.665 485.068C350.468 484.735 351.41 484.569 352.49 484.569H355.065V488.889H350.828C349.167 488.889 347.81 489.387 346.758 490.384C345.706 491.353 345.18 492.668 345.18 494.329V502.345H352.947V506H334.963V502.345Z" fill="#3867D6"/>
<path d="M395.402 479.835C394.433 479.835 393.754 479.641 393.367 479.253C392.979 478.838 392.785 478.326 392.785 477.716V477.052C392.785 476.443 392.979 475.944 393.367 475.557C393.754 475.141 394.433 474.934 395.402 474.934C396.371 474.934 397.049 475.141 397.437 475.557C397.825 475.944 398.018 476.443 398.018 477.052V477.716C398.018 478.326 397.825 478.838 397.437 479.253C397.049 479.641 396.371 479.835 395.402 479.835ZM386.016 503.176H393.741V487.393H386.016V484.569H397.063V503.176H404.29V506H386.016V503.176ZM445.208 479.835C444.239 479.835 443.561 479.641 443.173 479.253C442.786 478.838 442.592 478.326 442.592 477.716V477.052C442.592 476.443 442.786 475.944 443.173 475.557C443.561 475.141 444.239 474.934 445.208 474.934C446.177 474.934 446.856 475.141 447.243 475.557C447.631 475.944 447.825 476.443 447.825 477.052V477.716C447.825 478.326 447.631 478.838 447.243 479.253C446.856 479.641 446.177 479.835 445.208 479.835ZM435.822 503.176H443.547V487.393H435.822V484.569H446.87V503.176H454.096V506H435.822V503.176ZM460.393 506V484.569H463.716V488.058H463.882C464.103 487.532 464.38 487.033 464.712 486.563C465.045 486.064 465.446 485.635 465.917 485.275C466.415 484.915 466.997 484.625 467.661 484.403C468.326 484.182 469.101 484.071 469.987 484.071C472.23 484.071 474.03 484.791 475.386 486.231C476.743 487.643 477.421 489.65 477.421 492.253V506H474.099V492.834C474.099 490.868 473.67 489.415 472.811 488.473C471.953 487.504 470.693 487.02 469.032 487.02C468.367 487.02 467.717 487.103 467.08 487.269C466.443 487.435 465.875 487.684 465.377 488.016C464.879 488.349 464.477 488.778 464.173 489.304C463.868 489.83 463.716 490.439 463.716 491.131V506H460.393ZM509.66 506V502.968H517.966V479.585H517.675L510.366 486.397L508.331 484.195L516.014 477.01H521.455V502.968H529.097V506H509.66ZM543.492 506.374C542.357 506.374 541.554 506.138 541.084 505.668C540.641 505.197 540.419 504.602 540.419 503.882V503.134C540.419 502.414 540.641 501.819 541.084 501.348C541.554 500.878 542.357 500.642 543.492 500.642C544.628 500.642 545.417 500.878 545.86 501.348C546.33 501.819 546.566 502.414 546.566 503.134V503.882C546.566 504.602 546.33 505.197 545.86 505.668C545.417 506.138 544.628 506.374 543.492 506.374ZM568.396 506.374C567.26 506.374 566.457 506.138 565.987 505.668C565.544 505.197 565.322 504.602 565.322 503.882V503.134C565.322 502.414 565.544 501.819 565.987 501.348C566.457 500.878 567.26 500.642 568.396 500.642C569.531 500.642 570.32 500.878 570.763 501.348C571.234 501.819 571.469 502.414 571.469 503.134V503.882C571.469 504.602 571.234 505.197 570.763 505.668C570.32 506.138 569.531 506.374 568.396 506.374ZM583.082 506V484.569H586.155V487.061H586.321C586.654 486.231 587.124 485.524 587.734 484.943C588.343 484.362 589.243 484.071 590.433 484.071C591.679 484.071 592.607 484.389 593.216 485.026C593.825 485.635 594.199 486.438 594.337 487.435H594.462C594.849 486.466 595.403 485.663 596.123 485.026C596.843 484.389 597.84 484.071 599.113 484.071C600.858 484.071 602.021 484.68 602.602 485.898C603.211 487.117 603.516 488.861 603.516 491.131V506H600.443V491.671C600.443 489.844 600.249 488.584 599.861 487.892C599.501 487.172 598.823 486.812 597.826 486.812C596.94 486.812 596.22 487.103 595.666 487.684C595.113 488.238 594.836 489.096 594.836 490.259V506H591.762V491.671C591.762 489.844 591.568 488.584 591.181 487.892C590.821 487.172 590.156 486.812 589.187 486.812C588.301 486.812 587.567 487.103 586.986 487.684C586.432 488.238 586.155 489.096 586.155 490.259V506H583.082ZM618.202 506.374C617.067 506.374 616.264 506.138 615.793 505.668C615.35 505.197 615.129 504.602 615.129 503.882V503.134C615.129 502.414 615.35 501.819 615.793 501.348C616.264 500.878 617.067 500.642 618.202 500.642C619.337 500.642 620.127 500.878 620.57 501.348C621.04 501.819 621.276 502.414 621.276 503.134V503.882C621.276 504.602 621.04 505.197 620.57 505.668C620.127 506.138 619.337 506.374 618.202 506.374ZM618.202 489.927C617.067 489.927 616.264 489.692 615.793 489.221C615.35 488.75 615.129 488.155 615.129 487.435V486.687C615.129 485.967 615.35 485.372 615.793 484.901C616.264 484.431 617.067 484.195 618.202 484.195C619.337 484.195 620.127 484.431 620.57 484.901C621.04 485.372 621.276 485.967 621.276 486.687V487.435C621.276 488.155 621.04 488.75 620.57 489.221C620.127 489.692 619.337 489.927 618.202 489.927Z" fill="#595959"/>
</g>
<path id="prod = prod + n" d="M386.18 558.296H389.7V561.992H389.876C391.343 559.176 393.675 557.768 396.872 557.768C399.659 557.768 401.829 558.809 403.384 560.892C404.968 562.975 405.76 565.893 405.76 569.648C405.76 573.403 404.968 576.321 403.384 578.404C401.829 580.487 399.659 581.528 396.872 581.528C393.675 581.528 391.343 580.12 389.876 577.304H389.7V589.8H386.18V558.296ZM395.508 578.404C397.561 578.404 399.145 577.788 400.26 576.556C401.404 575.295 401.976 573.637 401.976 571.584V567.712C401.976 565.659 401.404 564.016 400.26 562.784C399.145 561.523 397.561 560.892 395.508 560.892C394.716 560.892 393.968 560.995 393.264 561.2C392.56 561.405 391.944 561.713 391.416 562.124C390.888 562.505 390.463 562.989 390.14 563.576C389.847 564.133 389.7 564.793 389.7 565.556V573.74C389.7 574.503 389.847 575.177 390.14 575.764C390.463 576.321 390.888 576.805 391.416 577.216C391.944 577.597 392.56 577.891 393.264 578.096C393.968 578.301 394.716 578.404 395.508 578.404ZM411.771 578.008H418.415V561.288H411.771V558.296H421.935V564.016H422.155C422.624 562.227 423.504 560.833 424.795 559.836C426.115 558.809 427.787 558.296 429.811 558.296H432.979V561.816H428.711C426.687 561.816 425.044 562.403 423.783 563.576C422.551 564.749 421.935 566.289 421.935 568.196V578.008H430.735V581H411.771V578.008ZM447.966 581.528C446.382 581.528 444.944 581.249 443.654 580.692C442.392 580.135 441.307 579.343 440.398 578.316C439.518 577.26 438.843 576.013 438.374 574.576C437.904 573.109 437.67 571.467 437.67 569.648C437.67 567.859 437.904 566.231 438.374 564.764C438.843 563.297 439.518 562.051 440.398 561.024C441.307 559.968 442.392 559.161 443.654 558.604C444.944 558.047 446.382 557.768 447.966 557.768C449.55 557.768 450.972 558.047 452.234 558.604C453.524 559.161 454.61 559.968 455.49 561.024C456.399 562.051 457.088 563.297 457.558 564.764C458.027 566.231 458.262 567.859 458.262 569.648C458.262 571.467 458.027 573.109 457.558 574.576C457.088 576.013 456.399 577.26 455.49 578.316C454.61 579.343 453.524 580.135 452.234 580.692C450.972 581.249 449.55 581.528 447.966 581.528ZM447.966 578.492C449.931 578.492 451.515 577.905 452.718 576.732C453.92 575.559 454.522 573.74 454.522 571.276V568.02C454.522 565.556 453.92 563.737 452.718 562.564C451.515 561.391 449.931 560.804 447.966 560.804C446 560.804 444.416 561.391 443.214 562.564C442.011 563.737 441.41 565.556 441.41 568.02V571.276C441.41 573.74 442.011 575.559 443.214 576.732C444.416 577.905 446 578.492 447.966 578.492ZM479.848 577.304H479.672C478.206 580.12 475.874 581.528 472.676 581.528C469.89 581.528 467.704 580.487 466.12 578.404C464.566 576.321 463.788 573.403 463.788 569.648C463.788 565.893 464.566 562.975 466.12 560.892C467.704 558.809 469.89 557.768 472.676 557.768C475.874 557.768 478.206 559.176 479.672 561.992H479.848V548.44H483.368V581H479.848V577.304ZM474.04 578.404C474.832 578.404 475.58 578.301 476.284 578.096C476.988 577.891 477.604 577.597 478.132 577.216C478.66 576.805 479.071 576.321 479.364 575.764C479.687 575.177 479.848 574.503 479.848 573.74V565.556C479.848 564.793 479.687 564.133 479.364 563.576C479.071 562.989 478.66 562.505 478.132 562.124C477.604 561.713 476.988 561.405 476.284 561.2C475.58 560.995 474.832 560.892 474.04 560.892C471.987 560.892 470.388 561.523 469.244 562.784C468.13 564.016 467.572 565.659 467.572 567.712V571.584C467.572 573.637 468.13 575.295 469.244 576.556C470.388 577.788 471.987 578.404 474.04 578.404ZM516.642 564.632V561.64H537.586V564.632H516.642ZM516.642 573.432V570.44H537.586V573.432H516.642ZM570.86 558.296H574.38V561.992H574.556C576.022 559.176 578.354 557.768 581.552 557.768C584.338 557.768 586.509 558.809 588.064 560.892C589.648 562.975 590.44 565.893 590.44 569.648C590.44 573.403 589.648 576.321 588.064 578.404C586.509 580.487 584.338 581.528 581.552 581.528C578.354 581.528 576.022 580.12 574.556 577.304H574.38V589.8H570.86V558.296ZM580.188 578.404C582.241 578.404 583.825 577.788 584.94 576.556C586.084 575.295 586.656 573.637 586.656 571.584V567.712C586.656 565.659 586.084 564.016 584.94 562.784C583.825 561.523 582.241 560.892 580.188 560.892C579.396 560.892 578.648 560.995 577.944 561.2C577.24 561.405 576.624 561.713 576.096 562.124C575.568 562.505 575.142 562.989 574.82 563.576C574.526 564.133 574.38 564.793 574.38 565.556V573.74C574.38 574.503 574.526 575.177 574.82 575.764C575.142 576.321 575.568 576.805 576.096 577.216C576.624 577.597 577.24 577.891 577.944 578.096C578.648 578.301 579.396 578.404 580.188 578.404ZM596.451 578.008H603.095V561.288H596.451V558.296H606.615V564.016H606.835C607.304 562.227 608.184 560.833 609.475 559.836C610.795 558.809 612.467 558.296 614.491 558.296H617.659V561.816H613.391C611.367 561.816 609.724 562.403 608.463 563.576C607.231 564.749 606.615 566.289 606.615 568.196V578.008H615.415V581H596.451V578.008ZM632.645 581.528C631.061 581.528 629.624 581.249 628.333 580.692C627.072 580.135 625.987 579.343 625.077 578.316C624.197 577.26 623.523 576.013 623.053 574.576C622.584 573.109 622.349 571.467 622.349 569.648C622.349 567.859 622.584 566.231 623.053 564.764C623.523 563.297 624.197 562.051 625.077 561.024C625.987 559.968 627.072 559.161 628.333 558.604C629.624 558.047 631.061 557.768 632.645 557.768C634.229 557.768 635.652 558.047 636.913 558.604C638.204 559.161 639.289 559.968 640.169 561.024C641.079 562.051 641.768 563.297 642.237 564.764C642.707 566.231 642.941 567.859 642.941 569.648C642.941 571.467 642.707 573.109 642.237 574.576C641.768 576.013 641.079 577.26 640.169 578.316C639.289 579.343 638.204 580.135 636.913 580.692C635.652 581.249 634.229 581.528 632.645 581.528ZM632.645 578.492C634.611 578.492 636.195 577.905 637.397 576.732C638.6 575.559 639.201 573.74 639.201 571.276V568.02C639.201 565.556 638.6 563.737 637.397 562.564C636.195 561.391 634.611 560.804 632.645 560.804C630.68 560.804 629.096 561.391 627.893 562.564C626.691 563.737 626.089 565.556 626.089 568.02V571.276C626.089 573.74 626.691 575.559 627.893 576.732C629.096 577.905 630.68 578.492 632.645 578.492ZM664.528 577.304H664.352C662.885 580.12 660.553 581.528 657.356 581.528C654.569 581.528 652.384 580.487 650.8 578.404C649.245 576.321 648.468 573.403 648.468 569.648C648.468 565.893 649.245 562.975 650.8 560.892C652.384 558.809 654.569 557.768 657.356 557.768C660.553 557.768 662.885 559.176 664.352 561.992H664.528V548.44H668.048V581H664.528V577.304ZM658.72 578.404C659.512 578.404 660.26 578.301 660.964 578.096C661.668 577.891 662.284 577.597 662.812 577.216C663.34 576.805 663.751 576.321 664.044 575.764C664.367 575.177 664.528 574.503 664.528 573.74V565.556C664.528 564.793 664.367 564.133 664.044 563.576C663.751 562.989 663.34 562.505 662.812 562.124C662.284 561.713 661.668 561.405 660.964 561.2C660.26 560.995 659.512 560.892 658.72 560.892C656.667 560.892 655.068 561.523 653.924 562.784C652.809 564.016 652.252 565.659 652.252 567.712V571.584C652.252 573.637 652.809 575.295 653.924 576.556C655.068 577.788 656.667 578.404 658.72 578.404ZM710.122 578.272V569.076H701.322V566.084H710.122V556.888H713.466V566.084H722.266V569.076H713.466V578.272H710.122ZM755.671 581V558.296H759.191V561.992H759.367C759.602 561.435 759.895 560.907 760.247 560.408C760.599 559.88 761.025 559.425 761.523 559.044C762.051 558.663 762.667 558.355 763.371 558.12C764.075 557.885 764.897 557.768 765.835 557.768C768.211 557.768 770.118 558.531 771.555 560.056C772.993 561.552 773.711 563.679 773.711 566.436V581H770.191V567.052C770.191 564.969 769.737 563.429 768.827 562.432C767.918 561.405 766.583 560.892 764.823 560.892C764.119 560.892 763.43 560.98 762.755 561.156C762.081 561.332 761.479 561.596 760.951 561.948C760.423 562.3 759.998 562.755 759.675 563.312C759.353 563.869 759.191 564.515 759.191 565.248V581H755.671Z" fill="#595959"/>
<path id="prod = n_2" d="M285.946 411.569H289.268V415.058H289.434C290.819 412.4 293.02 411.071 296.038 411.071C298.668 411.071 300.717 412.054 302.185 414.02C303.68 415.986 304.428 418.741 304.428 422.285C304.428 425.829 303.68 428.584 302.185 430.55C300.717 432.515 298.668 433.498 296.038 433.498C293.02 433.498 290.819 432.169 289.434 429.511H289.268V441.306H285.946V411.569ZM294.75 430.55C296.689 430.55 298.184 429.968 299.236 428.805C300.316 427.615 300.856 426.05 300.856 424.112V420.457C300.856 418.519 300.316 416.968 299.236 415.806C298.184 414.615 296.689 414.02 294.75 414.02C294.003 414.02 293.297 414.117 292.632 414.31C291.968 414.504 291.386 414.795 290.888 415.183C290.39 415.543 289.988 415.999 289.684 416.553C289.407 417.079 289.268 417.702 289.268 418.422V426.147C289.268 426.867 289.407 427.504 289.684 428.058C289.988 428.584 290.39 429.041 290.888 429.428C291.386 429.788 291.968 430.065 292.632 430.259C293.297 430.453 294.003 430.55 294.75 430.55ZM310.101 430.176H316.373V414.393H310.101V411.569H319.695V416.968H319.903C320.346 415.279 321.177 413.964 322.395 413.023C323.641 412.054 325.219 411.569 327.13 411.569H330.12V414.892H326.091C324.181 414.892 322.63 415.446 321.44 416.553C320.277 417.661 319.695 419.114 319.695 420.914V430.176H328.002V433H310.101V430.176ZM344.266 433.498C342.771 433.498 341.414 433.235 340.196 432.709C339.005 432.183 337.981 431.436 337.123 430.467C336.292 429.47 335.655 428.293 335.212 426.936C334.769 425.552 334.548 424.001 334.548 422.285C334.548 420.596 334.769 419.059 335.212 417.675C335.655 416.29 336.292 415.113 337.123 414.144C337.981 413.147 339.005 412.386 340.196 411.86C341.414 411.334 342.771 411.071 344.266 411.071C345.761 411.071 347.104 411.334 348.295 411.86C349.513 412.386 350.538 413.147 351.368 414.144C352.227 415.113 352.877 416.29 353.32 417.675C353.763 419.059 353.985 420.596 353.985 422.285C353.985 424.001 353.763 425.552 353.32 426.936C352.877 428.293 352.227 429.47 351.368 430.467C350.538 431.436 349.513 432.183 348.295 432.709C347.104 433.235 345.761 433.498 344.266 433.498ZM344.266 430.633C346.121 430.633 347.617 430.079 348.752 428.971C349.887 427.864 350.455 426.147 350.455 423.821V420.748C350.455 418.422 349.887 416.705 348.752 415.598C347.617 414.49 346.121 413.937 344.266 413.937C342.411 413.937 340.916 414.49 339.781 415.598C338.646 416.705 338.078 418.422 338.078 420.748V423.821C338.078 426.147 338.646 427.864 339.781 428.971C340.916 430.079 342.411 430.633 344.266 430.633ZM374.361 429.511H374.195C372.811 432.169 370.609 433.498 367.591 433.498C364.961 433.498 362.898 432.515 361.403 430.55C359.935 428.584 359.202 425.829 359.202 422.285C359.202 418.741 359.935 415.986 361.403 414.02C362.898 412.054 364.961 411.071 367.591 411.071C370.609 411.071 372.811 412.4 374.195 415.058H374.361V402.266H377.684V433H374.361V429.511ZM368.879 430.55C369.626 430.55 370.332 430.453 370.997 430.259C371.661 430.065 372.243 429.788 372.741 429.428C373.24 429.041 373.627 428.584 373.904 428.058C374.209 427.504 374.361 426.867 374.361 426.147V418.422C374.361 417.702 374.209 417.079 373.904 416.553C373.627 415.999 373.24 415.543 372.741 415.183C372.243 414.795 371.661 414.504 370.997 414.31C370.332 414.117 369.626 414.02 368.879 414.02C366.941 414.02 365.432 414.615 364.352 415.806C363.3 416.968 362.774 418.519 362.774 420.457V424.112C362.774 426.05 363.3 427.615 364.352 428.805C365.432 429.968 366.941 430.55 368.879 430.55ZM409.091 417.55V414.726H428.861V417.55H409.091ZM409.091 425.856V423.032H428.861V425.856H409.091ZM460.393 433V411.569H463.716V415.058H463.882C464.103 414.532 464.38 414.033 464.712 413.563C465.045 413.064 465.446 412.635 465.917 412.275C466.415 411.915 466.997 411.625 467.661 411.403C468.326 411.182 469.101 411.071 469.987 411.071C472.23 411.071 474.03 411.791 475.386 413.231C476.743 414.643 477.421 416.65 477.421 419.253V433H474.099V419.834C474.099 417.868 473.67 416.415 472.811 415.473C471.953 414.504 470.693 414.02 469.032 414.02C468.367 414.02 467.717 414.103 467.08 414.269C466.443 414.435 465.875 414.684 465.377 415.016C464.879 415.349 464.477 415.778 464.173 416.304C463.868 416.83 463.716 417.439 463.716 418.131V433H460.393Z" fill="#595959"/>
<g id="return prod_2">
<path d="M285.156 651.345H290.846V637.224H285.156V633.569H295.373V639.259H295.623C295.816 638.512 296.093 637.792 296.453 637.099C296.813 636.407 297.27 635.812 297.824 635.314C298.378 634.788 299.056 634.372 299.859 634.068C300.662 633.735 301.603 633.569 302.683 633.569H305.258V637.889H301.022C299.361 637.889 298.004 638.387 296.952 639.384C295.9 640.353 295.373 641.668 295.373 643.329V651.345H303.14V655H285.156V651.345ZM319.82 655.498C318.186 655.498 316.719 655.235 315.417 654.709C314.116 654.183 313.022 653.436 312.136 652.467C311.25 651.497 310.572 650.335 310.101 648.978C309.631 647.593 309.395 646.043 309.395 644.326C309.395 642.609 309.631 641.059 310.101 639.675C310.6 638.29 311.278 637.113 312.136 636.144C313.022 635.147 314.088 634.386 315.334 633.86C316.58 633.334 317.965 633.071 319.488 633.071C320.983 633.071 322.34 633.334 323.558 633.86C324.776 634.358 325.814 635.078 326.673 636.02C327.531 636.961 328.182 638.082 328.625 639.384C329.095 640.685 329.331 642.125 329.331 643.703V645.406H313.964V646.112C313.964 647.801 314.49 649.185 315.542 650.265C316.594 651.317 318.048 651.844 319.903 651.844C321.287 651.844 322.464 651.553 323.433 650.971C324.43 650.362 325.233 649.559 325.842 648.562L328.666 651.054C327.946 652.3 326.839 653.353 325.344 654.211C323.876 655.069 322.035 655.498 319.82 655.498ZM319.488 636.518C318.685 636.518 317.937 636.656 317.245 636.933C316.58 637.21 315.999 637.612 315.5 638.138C315.03 638.636 314.656 639.232 314.379 639.924C314.102 640.616 313.964 641.377 313.964 642.208V642.499H324.721V642.083C324.721 640.394 324.236 639.052 323.267 638.055C322.326 637.03 321.066 636.518 319.488 636.518ZM345.554 655C343.671 655 342.287 654.502 341.401 653.505C340.515 652.48 340.071 651.165 340.071 649.559V637.224H333.468V633.569H338.161C338.964 633.569 339.532 633.417 339.864 633.112C340.196 632.78 340.362 632.199 340.362 631.368V626.01H344.599V633.569H353.736V637.224H344.599V651.345H353.736V655H345.554ZM373.614 651.345H373.406C373.184 651.899 372.894 652.439 372.534 652.965C372.201 653.463 371.786 653.906 371.288 654.294C370.789 654.654 370.208 654.945 369.543 655.166C368.879 655.388 368.104 655.498 367.218 655.498C365.058 655.498 363.313 654.792 361.984 653.38C360.655 651.968 359.991 649.961 359.991 647.358V633.569H364.518V646.694C364.518 650.099 365.999 651.802 368.962 651.802C369.543 651.802 370.111 651.733 370.665 651.594C371.218 651.428 371.717 651.193 372.16 650.888C372.603 650.584 372.949 650.21 373.198 649.767C373.475 649.296 373.614 648.742 373.614 648.106V633.569H378.141V655H373.614V651.345ZM384.77 651.345H390.459V637.224H384.77V633.569H394.987V639.259H395.236C395.43 638.512 395.706 637.792 396.066 637.099C396.426 636.407 396.883 635.812 397.437 635.314C397.991 634.788 398.669 634.372 399.472 634.068C400.275 633.735 401.216 633.569 402.296 633.569H404.871V637.889H400.635C398.974 637.889 397.617 638.387 396.565 639.384C395.513 640.353 394.987 641.668 394.987 643.329V651.345H402.753V655H384.77V651.345ZM410.005 655V633.569H414.532V637.224H414.74C414.961 636.67 415.238 636.144 415.57 635.646C415.93 635.12 416.36 634.677 416.858 634.317C417.356 633.929 417.938 633.625 418.602 633.403C419.267 633.182 420.042 633.071 420.928 633.071C423.088 633.071 424.832 633.777 426.161 635.189C427.49 636.601 428.155 638.609 428.155 641.211V655H423.628V641.876C423.628 638.47 422.146 636.767 419.184 636.767C418.602 636.767 418.035 636.85 417.481 637.016C416.927 637.155 416.429 637.376 415.986 637.681C415.543 637.986 415.183 638.373 414.906 638.844C414.657 639.315 414.532 639.854 414.532 640.464V655H410.005Z" fill="#4B6584"/>
<path d="M460.268 633.569H463.591V637.058H463.757C465.142 634.4 467.343 633.071 470.361 633.071C472.991 633.071 475.04 634.054 476.508 636.02C478.003 637.986 478.75 640.741 478.75 644.285C478.75 647.829 478.003 650.584 476.508 652.55C475.04 654.515 472.991 655.498 470.361 655.498C467.343 655.498 465.142 654.169 463.757 651.511H463.591V663.306H460.268V633.569ZM469.073 652.55C471.012 652.55 472.507 651.968 473.559 650.805C474.639 649.615 475.179 648.05 475.179 646.112V642.457C475.179 640.519 474.639 638.968 473.559 637.806C472.507 636.615 471.012 636.02 469.073 636.02C468.326 636.02 467.62 636.117 466.955 636.31C466.291 636.504 465.709 636.795 465.211 637.183C464.712 637.543 464.311 637.999 464.006 638.553C463.729 639.079 463.591 639.702 463.591 640.422V648.147C463.591 648.867 463.729 649.504 464.006 650.058C464.311 650.584 464.712 651.041 465.211 651.428C465.709 651.788 466.291 652.065 466.955 652.259C467.62 652.453 468.326 652.55 469.073 652.55ZM484.424 652.176H490.696V636.393H484.424V633.569H494.018V638.968H494.226C494.669 637.279 495.499 635.964 496.718 635.023C497.964 634.054 499.542 633.569 501.452 633.569H504.443V636.892H500.414C498.504 636.892 496.953 637.446 495.762 638.553C494.6 639.661 494.018 641.114 494.018 642.914V652.176H502.325V655H484.424V652.176ZM518.589 655.498C517.094 655.498 515.737 655.235 514.519 654.709C513.328 654.183 512.304 653.436 511.446 652.467C510.615 651.47 509.978 650.293 509.535 648.936C509.092 647.552 508.871 646.001 508.871 644.285C508.871 642.596 509.092 641.059 509.535 639.675C509.978 638.29 510.615 637.113 511.446 636.144C512.304 635.147 513.328 634.386 514.519 633.86C515.737 633.334 517.094 633.071 518.589 633.071C520.084 633.071 521.427 633.334 522.618 633.86C523.836 634.386 524.861 635.147 525.691 636.144C526.55 637.113 527.2 638.29 527.643 639.675C528.086 641.059 528.308 642.596 528.308 644.285C528.308 646.001 528.086 647.552 527.643 648.936C527.2 650.293 526.55 651.47 525.691 652.467C524.861 653.436 523.836 654.183 522.618 654.709C521.427 655.235 520.084 655.498 518.589 655.498ZM518.589 652.633C520.444 652.633 521.939 652.079 523.075 650.971C524.21 649.864 524.777 648.147 524.777 645.821V642.748C524.777 640.422 524.21 638.705 523.075 637.598C521.939 636.49 520.444 635.937 518.589 635.937C516.734 635.937 515.239 636.49 514.104 637.598C512.968 638.705 512.401 640.422 512.401 642.748V645.821C512.401 648.147 512.968 649.864 514.104 650.971C515.239 652.079 516.734 652.633 518.589 652.633ZM548.684 651.511H548.518C547.133 654.169 544.932 655.498 541.914 655.498C539.284 655.498 537.221 654.515 535.726 652.55C534.258 650.584 533.525 647.829 533.525 644.285C533.525 640.741 534.258 637.986 535.726 636.02C537.221 634.054 539.284 633.071 541.914 633.071C544.932 633.071 547.133 634.4 548.518 637.058H548.684V624.266H552.007V655H548.684V651.511ZM543.202 652.55C543.949 652.55 544.655 652.453 545.32 652.259C545.984 652.065 546.566 651.788 547.064 651.428C547.563 651.041 547.95 650.584 548.227 650.058C548.532 649.504 548.684 648.867 548.684 648.147V640.422C548.684 639.702 548.532 639.079 548.227 638.553C547.95 637.999 547.563 637.543 547.064 637.183C546.566 636.795 545.984 636.504 545.32 636.31C544.655 636.117 543.949 636.02 543.202 636.02C541.263 636.02 539.754 636.615 538.675 637.806C537.622 638.968 537.096 640.519 537.096 642.457V646.112C537.096 648.05 537.622 649.615 538.675 650.805C539.754 651.968 541.263 652.55 543.202 652.55Z" fill="#595959"/>
</g>
</g>
</g>
</svg>
