<svg width="1920" height="1080" viewBox="0 0 1920 1080" fill="none" xmlns="http://www.w3.org/2000/svg">
<g id="Example">
<rect width="1920" height="1080" fill="white"/>
<g id="Example HD">
<g id="Group 76">
<rect id="Rectangle 17" x="578.667" y="483.073" width="90.3946" height="90.3946" transform="rotate(-45 578.667 483.073)" stroke="black" stroke-width="3.12"/>
<rect id="Rectangle 18" x="912.505" y="483.073" width="90.3946" height="90.3946" transform="rotate(-45 912.505 483.073)" stroke="black" stroke-width="3.12"/>
<rect id="Rectangle 19" x="1246.35" y="483.073" width="90.3946" height="90.3946" transform="rotate(-45 1246.35 483.073)" stroke="black" stroke-width="3.12"/>
<path id="Vector 17" d="M609.141 437.594L612.994 413.888L590.537 422.405L609.141 437.594ZM1281.5 437.595L1285.35 413.888L1262.9 422.405L1281.5 437.595ZM672.06 437.594L673.996 438.354C687.616 403.617 687.956 377.557 680.921 359.843C673.857 342.053 659.429 332.922 644.308 332.155C629.239 331.391 613.659 338.941 604.195 354.059C594.72 369.194 591.491 391.685 600.521 420.722L602.508 420.104L604.494 419.486C595.725 391.291 599.047 370.122 607.721 356.266C616.406 342.394 630.573 335.624 644.098 336.31C657.571 336.993 670.584 345.082 677.055 361.379C683.557 377.752 683.528 402.648 670.123 436.835L672.06 437.594ZM1344.42 437.595L1346.36 438.354C1359.98 403.618 1360.32 377.558 1353.28 359.844C1346.22 342.053 1331.79 332.922 1316.67 332.156C1301.6 331.392 1286.02 338.942 1276.56 354.059C1267.08 369.194 1263.85 391.686 1272.88 420.722L1274.87 420.105L1276.85 419.487C1268.09 391.291 1271.41 370.122 1280.08 356.267C1288.77 342.395 1302.93 335.625 1316.46 336.31C1329.93 336.994 1342.94 345.082 1349.42 361.379C1355.92 377.753 1355.89 402.649 1342.48 436.836L1344.42 437.595Z" fill="black"/>
<path id="Vector 18" d="M1260.96 513.705C1261.89 513.03 1262.1 511.729 1261.42 510.8C1260.75 509.871 1259.44 509.665 1258.52 510.341L1259.74 512.023L1260.96 513.705ZM1027.3 504.743L1039.3 525.548L1051.32 504.752L1027.3 504.743ZM1025.81 450.768C1025.01 451.589 1025.02 452.906 1025.84 453.709C1026.66 454.513 1027.98 454.499 1028.79 453.678L1027.3 452.223L1025.81 450.768ZM1259.74 459.503L1252.45 436.617L1236.28 454.368L1259.74 459.503ZM1259.74 512.023L1258.52 510.341C1201.17 552.048 1112.31 547.884 1044.48 512.27L1043.51 514.112L1042.54 515.953C1111.28 552.045 1201.94 556.632 1260.96 513.705L1259.74 512.023ZM1027.3 452.223L1028.79 453.678C1050.97 431.017 1089.2 417.364 1129.93 415.622C1170.63 413.882 1213.41 424.055 1244.61 448.523L1245.89 446.886L1247.18 445.25C1215.01 420.018 1171.17 409.695 1129.76 411.466C1088.38 413.235 1048.99 427.1 1025.81 450.768L1027.3 452.223Z" fill="black"/>
<path id="Vector 20" d="M693.018 513.705C692.089 513.03 691.884 511.729 692.559 510.8C693.235 509.871 694.536 509.665 695.465 510.341L694.242 512.023L693.018 513.705ZM926.682 504.743L914.681 525.548L902.664 504.752L926.682 504.743ZM928.168 450.768C928.972 451.589 928.958 452.906 928.137 453.709C927.316 454.513 925.999 454.499 925.195 453.678L926.682 452.223L928.168 450.768ZM694.242 459.503L701.526 436.617L717.704 454.368L694.242 459.503ZM694.242 512.023L695.465 510.341C752.813 552.048 841.674 547.884 909.502 512.27L910.469 514.112L911.436 515.953C842.698 552.045 752.042 556.632 693.018 513.705L694.242 512.023ZM926.682 452.223L925.195 453.678C903.006 431.017 864.783 417.364 824.047 415.622C783.348 413.882 740.568 424.055 709.369 448.523L708.086 446.886L706.802 445.25C738.974 420.018 782.811 409.695 824.225 411.466C865.604 413.235 904.993 427.1 928.168 450.768L926.682 452.223Z" fill="black"/>
<g id="b,c:2">
<path d="M572.883 283.762H576.877V299.138H577.076C578.74 295.943 581.386 294.345 585.014 294.345C588.175 294.345 590.638 295.527 592.402 297.89C594.199 300.253 595.097 303.564 595.097 307.824C595.097 312.084 594.199 315.395 592.402 317.758C590.638 320.121 588.175 321.302 585.014 321.302C581.386 321.302 578.74 319.705 577.076 316.51H576.877V320.703H572.883V283.762ZM583.466 317.758C585.796 317.758 587.593 317.059 588.857 315.661C590.155 314.23 590.804 312.35 590.804 310.02V305.627C590.804 303.298 590.155 301.434 588.857 300.036C587.593 298.605 585.796 297.89 583.466 297.89C582.568 297.89 581.719 298.006 580.92 298.239C580.121 298.472 579.423 298.822 578.824 299.287C578.224 299.72 577.742 300.269 577.376 300.935C577.043 301.567 576.877 302.316 576.877 303.181V312.466C576.877 313.332 577.043 314.097 577.376 314.763C577.742 315.395 578.224 315.944 578.824 316.41C579.423 316.843 580.121 317.175 580.92 317.408C581.719 317.641 582.568 317.758 583.466 317.758ZM610.903 313.914H617.342L611.601 327.742H608.257L610.903 313.914ZM643.88 321.302C642.017 321.302 640.353 320.986 638.888 320.354C637.457 319.688 636.242 318.773 635.244 317.608C634.246 316.443 633.48 315.029 632.948 313.365C632.449 311.701 632.199 309.854 632.199 307.824C632.199 305.794 632.465 303.947 632.998 302.283C633.53 300.619 634.296 299.204 635.294 298.039C636.292 296.841 637.507 295.926 638.938 295.294C640.369 294.662 642 294.345 643.83 294.345C646.326 294.345 648.356 294.894 649.921 295.993C651.485 297.091 652.633 298.522 653.365 300.286L650.17 301.983C649.704 300.652 648.922 299.62 647.824 298.888C646.759 298.156 645.428 297.79 643.83 297.79C642.665 297.79 641.617 297.99 640.685 298.389C639.787 298.755 639.021 299.287 638.389 299.986C637.757 300.685 637.274 301.517 636.941 302.482C636.642 303.447 636.492 304.496 636.492 305.627V310.02C636.492 311.152 636.642 312.2 636.941 313.165C637.274 314.13 637.757 314.962 638.389 315.661C639.021 316.36 639.803 316.909 640.735 317.309C641.667 317.675 642.732 317.858 643.93 317.858C645.661 317.858 647.092 317.458 648.223 316.66C649.355 315.861 650.253 314.763 650.919 313.365L653.764 315.312C652.999 317.042 651.801 318.473 650.17 319.605C648.573 320.736 646.476 321.302 643.88 321.302ZM672.914 321.152C671.55 321.152 670.585 320.87 670.019 320.304C669.486 319.738 669.22 319.022 669.22 318.157V317.259C669.22 316.393 669.486 315.678 670.019 315.112C670.585 314.546 671.55 314.263 672.914 314.263C674.279 314.263 675.227 314.546 675.76 315.112C676.325 315.678 676.608 316.393 676.608 317.259V318.157C676.608 319.022 676.325 319.738 675.76 320.304C675.227 320.87 674.279 321.152 672.914 321.152ZM672.914 301.384C671.55 301.384 670.585 301.101 670.019 300.535C669.486 299.97 669.22 299.254 669.22 298.389V297.49C669.22 296.625 669.486 295.91 670.019 295.344C670.585 294.778 671.55 294.495 672.914 294.495C674.279 294.495 675.227 294.778 675.76 295.344C676.325 295.91 676.608 296.625 676.608 297.49V298.389C676.608 299.254 676.325 299.97 675.76 300.535C675.227 301.101 674.279 301.384 672.914 301.384Z" fill="black"/>
<path d="M714.678 320.703H691.415V316.41L703.046 305.927C704.744 304.396 706.141 302.832 707.24 301.234C708.338 299.604 708.887 297.89 708.887 296.093V295.494C708.887 293.397 708.338 291.783 707.24 290.651C706.141 289.486 704.511 288.904 702.347 288.904C700.218 288.904 698.57 289.453 697.405 290.551C696.274 291.616 695.425 293.047 694.859 294.845L691.115 293.447C691.448 292.415 691.898 291.417 692.463 290.452C693.062 289.453 693.811 288.571 694.71 287.806C695.608 287.04 696.69 286.425 697.954 285.959C699.252 285.493 700.75 285.26 702.447 285.26C704.178 285.26 705.709 285.51 707.04 286.009C708.404 286.508 709.536 287.207 710.434 288.105C711.366 289.004 712.065 290.069 712.531 291.3C713.03 292.532 713.28 293.879 713.28 295.344C713.28 296.675 713.08 297.923 712.681 299.088C712.315 300.253 711.782 301.367 711.083 302.432C710.418 303.497 709.602 304.546 708.637 305.577C707.706 306.576 706.657 307.574 705.492 308.573L695.758 317.059H714.678V320.703Z" fill="#1DA05B"/>
</g>
<path id="a,c" d="M1123.25 393.504C1121.69 393.504 1120.57 393.105 1119.91 392.306C1119.24 391.507 1118.83 390.509 1118.66 389.311H1118.41C1117.84 390.808 1116.93 391.99 1115.66 392.855C1114.43 393.687 1112.77 394.103 1110.67 394.103C1107.98 394.103 1105.83 393.404 1104.23 392.006C1102.63 390.609 1101.84 388.695 1101.84 386.266C1101.84 383.869 1102.7 382.022 1104.43 380.724C1106.2 379.426 1109.02 378.778 1112.92 378.778H1118.41V376.232C1118.41 374.335 1117.88 372.92 1116.81 371.988C1115.75 371.023 1114.23 370.541 1112.27 370.541C1110.54 370.541 1109.12 370.89 1108.03 371.589C1106.93 372.255 1106.05 373.17 1105.38 374.335L1102.68 372.338C1103.02 371.672 1103.47 371.023 1104.03 370.391C1104.6 369.759 1105.3 369.21 1106.13 368.744C1106.96 368.244 1107.91 367.862 1108.97 367.595C1110.04 367.296 1111.22 367.146 1112.52 367.146C1115.55 367.146 1117.94 367.912 1119.71 369.442C1121.5 370.973 1122.4 373.103 1122.4 375.832V390.01H1126V393.504H1123.25ZM1111.37 390.758C1112.4 390.758 1113.33 390.642 1114.17 390.409C1115.03 390.143 1115.78 389.81 1116.41 389.41C1117.04 388.978 1117.53 388.479 1117.86 387.913C1118.23 387.314 1118.41 386.682 1118.41 386.016V381.773H1112.92C1110.52 381.773 1108.77 382.106 1107.68 382.771C1106.58 383.437 1106.03 384.402 1106.03 385.666V386.715C1106.03 388.046 1106.49 389.061 1107.43 389.76C1108.39 390.426 1109.71 390.758 1111.37 390.758ZM1141.3 386.715H1147.74L1142 400.543H1138.66L1141.3 386.715ZM1174.28 394.103C1172.42 394.103 1170.75 393.787 1169.29 393.154C1167.86 392.489 1166.64 391.574 1165.64 390.409C1164.65 389.244 1163.88 387.83 1163.35 386.166C1162.85 384.502 1162.6 382.655 1162.6 380.625C1162.6 378.594 1162.87 376.747 1163.4 375.083C1163.93 373.419 1164.7 372.005 1165.69 370.84C1166.69 369.642 1167.91 368.727 1169.34 368.095C1170.77 367.462 1172.4 367.146 1174.23 367.146C1176.73 367.146 1178.76 367.695 1180.32 368.794C1181.89 369.892 1183.03 371.323 1183.77 373.087L1180.57 374.784C1180.1 373.453 1179.32 372.421 1178.22 371.689C1177.16 370.957 1175.83 370.591 1174.23 370.591C1173.07 370.591 1172.02 370.79 1171.09 371.19C1170.19 371.556 1169.42 372.088 1168.79 372.787C1168.16 373.486 1167.67 374.318 1167.34 375.283C1167.04 376.248 1166.89 377.297 1166.89 378.428V382.821C1166.89 383.953 1167.04 385.001 1167.34 385.966C1167.67 386.931 1168.16 387.763 1168.79 388.462C1169.42 389.161 1170.2 389.71 1171.14 390.109C1172.07 390.475 1173.13 390.658 1174.33 390.658C1176.06 390.658 1177.49 390.259 1178.62 389.46C1179.76 388.662 1180.65 387.563 1181.32 386.166L1184.16 388.113C1183.4 389.843 1182.2 391.274 1180.57 392.406C1178.97 393.537 1176.88 394.103 1174.28 394.103Z" fill="black"/>
<path id="b,c" d="M766.584 356.563H770.578V371.938H770.777C772.441 368.744 775.087 367.146 778.715 367.146C781.876 367.146 784.339 368.328 786.103 370.69C787.9 373.053 788.799 376.365 788.799 380.625C788.799 384.884 787.9 388.196 786.103 390.559C784.339 392.922 781.876 394.103 778.715 394.103C775.087 394.103 772.441 392.506 770.777 389.311H770.578V393.504H766.584V356.563ZM777.167 390.559C779.497 390.559 781.294 389.86 782.559 388.462C783.857 387.031 784.505 385.151 784.505 382.821V378.428C784.505 376.098 783.857 374.235 782.559 372.837C781.294 371.406 779.497 370.69 777.167 370.69C776.269 370.69 775.42 370.807 774.621 371.04C773.823 371.273 773.124 371.622 772.525 372.088C771.926 372.521 771.443 373.07 771.077 373.736C770.744 374.368 770.578 375.117 770.578 375.982V385.267C770.578 386.132 770.744 386.898 771.077 387.563C771.443 388.196 771.926 388.745 772.525 389.211C773.124 389.643 773.823 389.976 774.621 390.209C775.42 390.442 776.269 390.559 777.167 390.559ZM804.604 386.715H811.043L805.303 400.543H801.958L804.604 386.715ZM837.581 394.103C835.718 394.103 834.054 393.787 832.589 393.154C831.158 392.489 829.944 391.574 828.945 390.409C827.947 389.244 827.181 387.83 826.649 386.166C826.15 384.502 825.9 382.655 825.9 380.625C825.9 378.594 826.166 376.747 826.699 375.083C827.231 373.419 827.997 372.005 828.995 370.84C829.994 369.642 831.208 368.727 832.639 368.095C834.07 367.462 835.701 367.146 837.531 367.146C840.027 367.146 842.058 367.695 843.622 368.794C845.186 369.892 846.334 371.323 847.066 373.087L843.871 374.784C843.405 373.453 842.623 372.421 841.525 371.689C840.46 370.957 839.129 370.591 837.531 370.591C836.367 370.591 835.318 370.79 834.386 371.19C833.488 371.556 832.722 372.088 832.09 372.787C831.458 373.486 830.975 374.318 830.642 375.283C830.343 376.248 830.193 377.297 830.193 378.428V382.821C830.193 383.953 830.343 385.001 830.642 385.966C830.975 386.931 831.458 387.763 832.09 388.462C832.722 389.161 833.505 389.71 834.436 390.109C835.368 390.475 836.433 390.658 837.631 390.658C839.362 390.658 840.793 390.259 841.924 389.46C843.056 388.662 843.954 387.563 844.62 386.166L847.466 388.113C846.7 389.843 845.502 391.274 843.871 392.406C842.274 393.537 840.177 394.103 837.581 394.103Z" fill="black"/>
<g id="a,c:2">
<path d="M1273.01 320.703C1271.45 320.703 1270.33 320.304 1269.66 319.505C1269 318.706 1268.58 317.708 1268.42 316.51H1268.17C1267.6 318.007 1266.69 319.189 1265.42 320.054C1264.19 320.886 1262.53 321.302 1260.43 321.302C1257.73 321.302 1255.59 320.603 1253.99 319.206C1252.39 317.808 1251.59 315.894 1251.59 313.465C1251.59 311.069 1252.46 309.222 1254.19 307.924C1255.95 306.626 1258.78 305.977 1262.68 305.977H1268.17V303.431C1268.17 301.534 1267.63 300.119 1266.57 299.188C1265.5 298.222 1263.99 297.74 1262.03 297.74C1260.3 297.74 1258.88 298.089 1257.78 298.788C1256.69 299.454 1255.8 300.369 1255.14 301.534L1252.44 299.537C1252.77 298.871 1253.22 298.222 1253.79 297.59C1254.36 296.958 1255.05 296.409 1255.89 295.943C1256.72 295.444 1257.67 295.061 1258.73 294.795C1259.8 294.495 1260.98 294.345 1262.28 294.345C1265.3 294.345 1267.7 295.111 1269.46 296.642C1271.26 298.173 1272.16 300.302 1272.16 303.031V317.209H1275.75V320.703H1273.01ZM1261.13 317.958C1262.16 317.958 1263.09 317.841 1263.92 317.608C1264.79 317.342 1265.54 317.009 1266.17 316.61C1266.8 316.177 1267.29 315.678 1267.62 315.112C1267.98 314.513 1268.17 313.881 1268.17 313.215V308.972H1262.68C1260.28 308.972 1258.53 309.305 1257.43 309.97C1256.34 310.636 1255.79 311.601 1255.79 312.866V313.914C1255.79 315.245 1256.25 316.26 1257.18 316.959C1258.15 317.625 1259.46 317.958 1261.13 317.958ZM1291.06 313.914H1297.5L1291.76 327.742H1288.42L1291.06 313.914ZM1324.04 321.302C1322.17 321.302 1320.51 320.986 1319.05 320.354C1317.62 319.688 1316.4 318.773 1315.4 317.608C1314.4 316.443 1313.64 315.029 1313.11 313.365C1312.61 311.701 1312.36 309.854 1312.36 307.824C1312.36 305.794 1312.62 303.947 1313.16 302.283C1313.69 300.619 1314.45 299.204 1315.45 298.039C1316.45 296.841 1317.67 295.926 1319.1 295.294C1320.53 294.662 1322.16 294.345 1323.99 294.345C1326.48 294.345 1328.51 294.894 1330.08 295.993C1331.64 297.091 1332.79 298.522 1333.52 300.286L1330.33 301.983C1329.86 300.652 1329.08 299.62 1327.98 298.888C1326.92 298.156 1325.59 297.79 1323.99 297.79C1322.82 297.79 1321.78 297.99 1320.84 298.389C1319.94 298.755 1319.18 299.287 1318.55 299.986C1317.91 300.685 1317.43 301.517 1317.1 302.482C1316.8 303.447 1316.65 304.496 1316.65 305.627V310.02C1316.65 311.152 1316.8 312.2 1317.1 313.165C1317.43 314.13 1317.91 314.962 1318.55 315.661C1319.18 316.36 1319.96 316.909 1320.89 317.309C1321.83 317.675 1322.89 317.858 1324.09 317.858C1325.82 317.858 1327.25 317.458 1328.38 316.66C1329.51 315.861 1330.41 314.763 1331.08 313.365L1333.92 315.312C1333.16 317.042 1331.96 318.473 1330.33 319.605C1328.73 320.736 1326.63 321.302 1324.04 321.302ZM1353.07 321.152C1351.71 321.152 1350.74 320.87 1350.18 320.304C1349.64 319.738 1349.38 319.022 1349.38 318.157V317.259C1349.38 316.393 1349.64 315.678 1350.18 315.112C1350.74 314.546 1351.71 314.263 1353.07 314.263C1354.44 314.263 1355.39 314.546 1355.92 315.112C1356.48 315.678 1356.77 316.393 1356.77 317.259V318.157C1356.77 319.022 1356.48 319.738 1355.92 320.304C1355.39 320.87 1354.44 321.152 1353.07 321.152ZM1353.07 301.384C1351.71 301.384 1350.74 301.101 1350.18 300.535C1349.64 299.97 1349.38 299.254 1349.38 298.389V297.49C1349.38 296.625 1349.64 295.91 1350.18 295.344C1350.74 294.778 1351.71 294.495 1353.07 294.495C1354.44 294.495 1355.39 294.778 1355.92 295.344C1356.48 295.91 1356.77 296.625 1356.77 297.49V298.389C1356.77 299.254 1356.48 299.97 1355.92 300.535C1355.39 301.101 1354.44 301.384 1353.07 301.384Z" fill="black"/>
<path d="M1394.84 320.703H1371.57V316.41L1383.2 305.927C1384.9 304.396 1386.3 302.832 1387.4 301.234C1388.5 299.604 1389.05 297.89 1389.05 296.093V295.494C1389.05 293.397 1388.5 291.783 1387.4 290.651C1386.3 289.486 1384.67 288.904 1382.51 288.904C1380.38 288.904 1378.73 289.453 1377.56 290.551C1376.43 291.616 1375.58 293.047 1375.02 294.845L1371.27 293.447C1371.61 292.415 1372.06 291.417 1372.62 290.452C1373.22 289.453 1373.97 288.571 1374.87 287.806C1375.77 287.04 1376.85 286.425 1378.11 285.959C1379.41 285.493 1380.91 285.26 1382.61 285.26C1384.34 285.26 1385.87 285.51 1387.2 286.009C1388.56 286.508 1389.69 287.207 1390.59 288.105C1391.52 289.004 1392.22 290.069 1392.69 291.3C1393.19 292.532 1393.44 293.879 1393.44 295.344C1393.44 296.675 1393.24 297.923 1392.84 299.088C1392.47 300.253 1391.94 301.367 1391.24 302.432C1390.58 303.497 1389.76 304.546 1388.8 305.577C1387.86 306.576 1386.82 307.574 1385.65 308.573L1375.92 317.059H1394.84V320.703Z" fill="#1DA05B"/>
</g>
<g id="b:1">
<path d="M1126.68 565.863H1130.68V581.238H1130.88C1132.54 578.043 1135.19 576.446 1138.81 576.446C1141.98 576.446 1144.44 577.627 1146.2 579.99C1148 582.353 1148.9 585.665 1148.9 589.924C1148.9 594.184 1148 597.496 1146.2 599.858C1144.44 602.221 1141.98 603.403 1138.81 603.403C1135.19 603.403 1132.54 601.805 1130.88 598.61H1130.68V602.804H1126.68V565.863ZM1137.27 599.858C1139.6 599.858 1141.39 599.16 1142.66 597.762C1143.96 596.331 1144.61 594.45 1144.61 592.121V587.728C1144.61 585.398 1143.96 583.535 1142.66 582.137C1141.39 580.706 1139.6 579.99 1137.27 579.99C1136.37 579.99 1135.52 580.107 1134.72 580.34C1133.92 580.573 1133.22 580.922 1132.62 581.388C1132.03 581.821 1131.54 582.37 1131.18 583.035C1130.84 583.668 1130.68 584.417 1130.68 585.282V594.567C1130.68 595.432 1130.84 596.198 1131.18 596.863C1131.54 597.496 1132.03 598.045 1132.62 598.511C1133.22 598.943 1133.92 599.276 1134.72 599.509C1135.52 599.742 1136.37 599.858 1137.27 599.858ZM1166.85 603.253C1165.49 603.253 1164.52 602.97 1163.95 602.404C1163.42 601.839 1163.16 601.123 1163.16 600.258V599.359C1163.16 598.494 1163.42 597.778 1163.95 597.213C1164.52 596.647 1165.49 596.364 1166.85 596.364C1168.21 596.364 1169.16 596.647 1169.7 597.213C1170.26 597.778 1170.54 598.494 1170.54 599.359V600.258C1170.54 601.123 1170.26 601.839 1169.7 602.404C1169.16 602.97 1168.21 603.253 1166.85 603.253ZM1166.85 583.485C1165.49 583.485 1164.52 583.202 1163.95 582.636C1163.42 582.07 1163.16 581.355 1163.16 580.489V579.591C1163.16 578.726 1163.42 578.01 1163.95 577.444C1164.52 576.879 1165.49 576.596 1166.85 576.596C1168.21 576.596 1169.16 576.879 1169.7 577.444C1170.26 578.01 1170.54 578.726 1170.54 579.591V580.489C1170.54 581.355 1170.26 582.07 1169.7 582.636C1169.16 583.202 1168.21 583.485 1166.85 583.485Z" fill="black"/>
<path d="M1186.05 602.804V599.16H1196.03V571.055H1195.68L1186.9 579.241L1184.45 576.596L1193.69 567.96H1200.23V599.16H1209.41V602.804H1186.05Z" fill="#D80909"/>
</g>
<g id="a:1">
<path d="M786.552 602.804C784.988 602.804 783.873 602.404 783.208 601.606C782.542 600.807 782.126 599.809 781.96 598.61H781.71C781.144 600.108 780.229 601.289 778.964 602.155C777.733 602.987 776.069 603.403 773.972 603.403C771.277 603.403 769.13 602.704 767.533 601.306C765.935 599.908 765.137 597.995 765.137 595.565C765.137 593.169 766.002 591.322 767.732 590.024C769.496 588.726 772.325 588.077 776.219 588.077H781.71V585.531C781.71 583.634 781.177 582.22 780.113 581.288C779.048 580.323 777.533 579.841 775.57 579.841C773.839 579.841 772.425 580.19 771.327 580.889C770.228 581.554 769.346 582.47 768.681 583.634L765.985 581.638C766.318 580.972 766.767 580.323 767.333 579.691C767.899 579.058 768.598 578.509 769.43 578.043C770.262 577.544 771.21 577.161 772.275 576.895C773.34 576.596 774.521 576.446 775.819 576.446C778.848 576.446 781.244 577.211 783.008 578.742C784.805 580.273 785.704 582.403 785.704 585.132V599.309H789.298V602.804H786.552ZM774.671 600.058C775.703 600.058 776.635 599.942 777.467 599.709C778.332 599.442 779.081 599.11 779.713 598.71C780.345 598.278 780.828 597.778 781.161 597.213C781.527 596.614 781.71 595.981 781.71 595.316V591.073H776.219C773.823 591.073 772.075 591.405 770.977 592.071C769.879 592.737 769.33 593.702 769.33 594.966V596.015C769.33 597.346 769.796 598.361 770.728 599.06C771.693 599.725 773.007 600.058 774.671 600.058ZM806.75 603.253C805.386 603.253 804.421 602.97 803.855 602.404C803.322 601.839 803.056 601.123 803.056 600.258V599.359C803.056 598.494 803.322 597.778 803.855 597.213C804.421 596.647 805.386 596.364 806.75 596.364C808.115 596.364 809.063 596.647 809.596 597.213C810.162 597.778 810.444 598.494 810.444 599.359V600.258C810.444 601.123 810.162 601.839 809.596 602.404C809.063 602.97 808.115 603.253 806.75 603.253ZM806.75 583.485C805.386 583.485 804.421 583.202 803.855 582.636C803.322 582.07 803.056 581.355 803.056 580.489V579.591C803.056 578.726 803.322 578.01 803.855 577.444C804.421 576.879 805.386 576.596 806.75 576.596C808.115 576.596 809.063 576.879 809.596 577.444C810.162 578.01 810.444 578.726 810.444 579.591V580.489C810.444 581.355 810.162 582.07 809.596 582.636C809.063 583.202 808.115 583.485 806.75 583.485Z" fill="black"/>
<path d="M825.95 602.804V599.16H835.934V571.055H835.585L826.799 579.241L824.353 576.596L833.588 567.96H840.127V599.16H849.313V602.804H825.95Z" fill="#D80909"/>
</g>
<path id="Vector 19" d="M561.901 488.104L541.101 476.095V500.112L561.901 488.104ZM490.141 488.104V490.184C490.155 490.184 490.169 490.184 490.183 490.184C490.197 490.184 490.211 490.184 490.225 490.184C490.239 490.184 490.253 490.184 490.268 490.184C490.282 490.184 490.296 490.184 490.311 490.184C490.325 490.184 490.34 490.184 490.355 490.184C490.369 490.184 490.384 490.184 490.399 490.184C490.413 490.184 490.428 490.184 490.443 490.184C490.458 490.184 490.473 490.184 490.488 490.184C490.503 490.184 490.518 490.184 490.533 490.184C490.548 490.184 490.563 490.184 490.579 490.184C490.594 490.184 490.609 490.184 490.625 490.184C490.64 490.184 490.656 490.184 490.671 490.184C490.687 490.184 490.702 490.184 490.718 490.184C490.734 490.184 490.749 490.184 490.765 490.184C490.781 490.184 490.797 490.184 490.813 490.184C490.829 490.184 490.845 490.184 490.861 490.184C490.877 490.184 490.893 490.184 490.909 490.184C490.926 490.184 490.942 490.184 490.958 490.184C490.975 490.184 490.991 490.184 491.008 490.184C491.024 490.184 491.041 490.184 491.057 490.184C491.074 490.184 491.091 490.184 491.107 490.184C491.124 490.184 491.141 490.184 491.158 490.184C491.175 490.184 491.192 490.184 491.209 490.184C491.226 490.184 491.243 490.184 491.26 490.184C491.277 490.184 491.294 490.184 491.311 490.184C491.329 490.184 491.346 490.184 491.363 490.184C491.381 490.184 491.398 490.184 491.416 490.184C491.433 490.184 491.451 490.184 491.469 490.184C491.486 490.184 491.504 490.184 491.522 490.184C491.539 490.184 491.557 490.184 491.575 490.184C491.593 490.184 491.611 490.184 491.629 490.184C491.647 490.184 491.665 490.184 491.683 490.184C491.702 490.184 491.72 490.184 491.738 490.184C491.756 490.184 491.775 490.184 491.793 490.184C491.812 490.184 491.83 490.184 491.849 490.184C491.867 490.184 491.886 490.184 491.905 490.184C491.923 490.184 491.942 490.184 491.961 490.184C491.98 490.184 491.998 490.184 492.017 490.184C492.036 490.184 492.055 490.184 492.074 490.184C492.093 490.184 492.112 490.184 492.132 490.184C492.151 490.184 492.17 490.184 492.189 490.184C492.209 490.184 492.228 490.184 492.247 490.184C492.267 490.184 492.286 490.184 492.306 490.184C492.326 490.184 492.345 490.184 492.365 490.184C492.384 490.184 492.404 490.184 492.424 490.184C492.444 490.184 492.464 490.184 492.484 490.184C492.503 490.184 492.523 490.184 492.544 490.184C492.564 490.184 492.584 490.184 492.604 490.184C492.624 490.184 492.644 490.184 492.665 490.184C492.685 490.184 492.705 490.184 492.726 490.184C492.746 490.184 492.766 490.184 492.787 490.184C492.807 490.184 492.828 490.184 492.849 490.184C492.869 490.184 492.89 490.184 492.911 490.184C492.932 490.184 492.952 490.184 492.973 490.184C492.994 490.184 493.015 490.184 493.036 490.184C493.057 490.184 493.078 490.184 493.099 490.184C493.121 490.184 493.142 490.184 493.163 490.184C493.184 490.184 493.206 490.184 493.227 490.184C493.248 490.184 493.27 490.184 493.291 490.184C493.313 490.184 493.334 490.184 493.356 490.184C493.377 490.184 493.399 490.184 493.421 490.184C493.443 490.184 493.464 490.184 493.486 490.184C493.508 490.184 493.53 490.184 493.552 490.184C493.574 490.184 493.596 490.184 493.618 490.184C493.64 490.184 493.662 490.184 493.684 490.184C493.707 490.184 493.729 490.184 493.751 490.184C493.773 490.184 493.796 490.184 493.818 490.184C493.841 490.184 493.863 490.184 493.886 490.184C493.908 490.184 493.931 490.184 493.953 490.184C493.976 490.184 493.999 490.184 494.022 490.184C494.044 490.184 494.067 490.184 494.09 490.184C494.113 490.184 494.136 490.184 494.159 490.184C494.182 490.184 494.205 490.184 494.228 490.184C494.251 490.184 494.274 490.184 494.297 490.184C494.321 490.184 494.344 490.184 494.367 490.184C494.391 490.184 494.414 490.184 494.438 490.184C494.461 490.184 494.484 490.184 494.508 490.184C494.532 490.184 494.555 490.184 494.579 490.184C494.603 490.184 494.626 490.184 494.65 490.184C494.674 490.184 494.698 490.184 494.722 490.184C494.746 490.184 494.769 490.184 494.793 490.184C494.817 490.184 494.842 490.184 494.866 490.184C494.89 490.184 494.914 490.184 494.938 490.184C494.962 490.184 494.987 490.184 495.011 490.184C495.035 490.184 495.06 490.184 495.084 490.184C495.109 490.184 495.133 490.184 495.158 490.184C495.182 490.184 495.207 490.184 495.232 490.184C495.256 490.184 495.281 490.184 495.306 490.184C495.331 490.184 495.355 490.184 495.38 490.184C495.405 490.184 495.43 490.184 495.455 490.184C495.48 490.184 495.505 490.184 495.53 490.184C495.555 490.184 495.58 490.184 495.606 490.184C495.631 490.184 495.656 490.184 495.681 490.184C495.707 490.184 495.732 490.184 495.758 490.184C495.783 490.184 495.808 490.184 495.834 490.184C495.859 490.184 495.885 490.184 495.911 490.184C495.936 490.184 495.962 490.184 495.988 490.184C496.014 490.184 496.039 490.184 496.065 490.184C496.091 490.184 496.117 490.184 496.143 490.184C496.169 490.184 496.195 490.184 496.221 490.184C496.247 490.184 496.273 490.184 496.299 490.184C496.325 490.184 496.352 490.184 496.378 490.184C496.404 490.184 496.43 490.184 496.457 490.184C496.483 490.184 496.51 490.184 496.536 490.184C496.562 490.184 496.589 490.184 496.616 490.184C496.642 490.184 496.669 490.184 496.695 490.184C496.722 490.184 496.749 490.184 496.776 490.184C496.802 490.184 496.829 490.184 496.856 490.184C496.883 490.184 496.91 490.184 496.937 490.184C496.964 490.184 496.991 490.184 497.018 490.184C497.045 490.184 497.072 490.184 497.099 490.184C497.127 490.184 497.154 490.184 497.181 490.184C497.208 490.184 497.236 490.184 497.263 490.184C497.29 490.184 497.318 490.184 497.345 490.184C497.373 490.184 497.4 490.184 497.428 490.184C497.456 490.184 497.483 490.184 497.511 490.184C497.539 490.184 497.566 490.184 497.594 490.184C497.622 490.184 497.65 490.184 497.678 490.184C497.705 490.184 497.733 490.184 497.761 490.184C497.789 490.184 497.817 490.184 497.845 490.184C497.873 490.184 497.902 490.184 497.93 490.184C497.958 490.184 497.986 490.184 498.014 490.184C498.043 490.184 498.071 490.184 498.099 490.184C498.128 490.184 498.156 490.184 498.185 490.184C498.213 490.184 498.242 490.184 498.27 490.184C498.299 490.184 498.327 490.184 498.356 490.184C498.385 490.184 498.413 490.184 498.442 490.184C498.471 490.184 498.5 490.184 498.529 490.184C498.557 490.184 498.586 490.184 498.615 490.184C498.644 490.184 498.673 490.184 498.702 490.184C498.731 490.184 498.76 490.184 498.789 490.184C498.819 490.184 498.848 490.184 498.877 490.184C498.906 490.184 498.935 490.184 498.965 490.184C498.994 490.184 499.023 490.184 499.053 490.184C499.082 490.184 499.112 490.184 499.141 490.184C499.171 490.184 499.2 490.184 499.23 490.184C499.259 490.184 499.289 490.184 499.319 490.184C499.348 490.184 499.378 490.184 499.408 490.184C499.438 490.184 499.468 490.184 499.497 490.184C499.527 490.184 499.557 490.184 499.587 490.184C499.617 490.184 499.647 490.184 499.677 490.184C499.707 490.184 499.737 490.184 499.768 490.184C499.798 490.184 499.828 490.184 499.858 490.184C499.888 490.184 499.919 490.184 499.949 490.184C499.979 490.184 500.01 490.184 500.04 490.184C500.07 490.184 500.101 490.184 500.131 490.184C500.162 490.184 500.192 490.184 500.223 490.184C500.254 490.184 500.284 490.184 500.315 490.184C500.346 490.184 500.376 490.184 500.407 490.184C500.438 490.184 500.469 490.184 500.5 490.184C500.53 490.184 500.561 490.184 500.592 490.184C500.623 490.184 500.654 490.184 500.685 490.184C500.716 490.184 500.747 490.184 500.778 490.184C500.81 490.184 500.841 490.184 500.872 490.184C500.903 490.184 500.934 490.184 500.966 490.184C500.997 490.184 501.028 490.184 501.06 490.184C501.091 490.184 501.122 490.184 501.154 490.184C501.185 490.184 501.217 490.184 501.248 490.184C501.28 490.184 501.311 490.184 501.343 490.184C501.375 490.184 501.406 490.184 501.438 490.184C501.47 490.184 501.502 490.184 501.533 490.184C501.565 490.184 501.597 490.184 501.629 490.184C501.661 490.184 501.693 490.184 501.725 490.184C501.757 490.184 501.789 490.184 501.821 490.184C501.853 490.184 501.885 490.184 501.917 490.184C501.949 490.184 501.981 490.184 502.013 490.184C502.046 490.184 502.078 490.184 502.11 490.184C502.142 490.184 502.175 490.184 502.207 490.184C502.24 490.184 502.272 490.184 502.304 490.184C502.337 490.184 502.369 490.184 502.402 490.184C502.434 490.184 502.467 490.184 502.5 490.184C502.532 490.184 502.565 490.184 502.598 490.184C502.63 490.184 502.663 490.184 502.696 490.184C502.729 490.184 502.761 490.184 502.794 490.184C502.827 490.184 502.86 490.184 502.893 490.184C502.926 490.184 502.959 490.184 502.992 490.184C503.025 490.184 503.058 490.184 503.091 490.184C503.124 490.184 503.157 490.184 503.19 490.184C503.224 490.184 503.257 490.184 503.29 490.184C503.323 490.184 503.357 490.184 503.39 490.184C503.423 490.184 503.457 490.184 503.49 490.184C503.523 490.184 503.557 490.184 503.59 490.184C503.624 490.184 503.657 490.184 503.691 490.184C503.725 490.184 503.758 490.184 503.792 490.184C503.825 490.184 503.859 490.184 503.893 490.184C503.926 490.184 503.96 490.184 503.994 490.184C504.028 490.184 504.062 490.184 504.095 490.184C504.129 490.184 504.163 490.184 504.197 490.184C504.231 490.184 504.265 490.184 504.299 490.184C504.333 490.184 504.367 490.184 504.401 490.184C504.435 490.184 504.469 490.184 504.504 490.184C504.538 490.184 504.572 490.184 504.606 490.184C504.64 490.184 504.675 490.184 504.709 490.184C504.743 490.184 504.778 490.184 504.812 490.184C504.846 490.184 504.881 490.184 504.915 490.184C504.95 490.184 504.984 490.184 505.019 490.184C505.053 490.184 505.088 490.184 505.122 490.184C505.157 490.184 505.192 490.184 505.226 490.184C505.261 490.184 505.296 490.184 505.33 490.184C505.365 490.184 505.4 490.184 505.435 490.184C505.47 490.184 505.504 490.184 505.539 490.184C505.574 490.184 505.609 490.184 505.644 490.184C505.679 490.184 505.714 490.184 505.749 490.184C505.784 490.184 505.819 490.184 505.854 490.184C505.889 490.184 505.924 490.184 505.959 490.184C505.995 490.184 506.03 490.184 506.065 490.184C506.1 490.184 506.135 490.184 506.171 490.184C506.206 490.184 506.241 490.184 506.277 490.184C506.312 490.184 506.348 490.184 506.383 490.184C506.418 490.184 506.454 490.184 506.489 490.184C506.525 490.184 506.56 490.184 506.596 490.184C506.631 490.184 506.667 490.184 506.703 490.184C506.738 490.184 506.774 490.184 506.81 490.184C506.845 490.184 506.881 490.184 506.917 490.184C506.953 490.184 506.988 490.184 507.024 490.184C507.06 490.184 507.096 490.184 507.132 490.184C507.168 490.184 507.204 490.184 507.24 490.184C507.276 490.184 507.312 490.184 507.348 490.184C507.384 490.184 507.42 490.184 507.456 490.184C507.492 490.184 507.528 490.184 507.564 490.184C507.6 490.184 507.636 490.184 507.673 490.184C507.709 490.184 507.745 490.184 507.781 490.184C507.818 490.184 507.854 490.184 507.89 490.184C507.927 490.184 507.963 490.184 507.999 490.184C508.036 490.184 508.072 490.184 508.109 490.184C508.145 490.184 508.182 490.184 508.218 490.184C508.255 490.184 508.291 490.184 508.328 490.184C508.365 490.184 508.401 490.184 508.438 490.184C508.474 490.184 508.511 490.184 508.548 490.184C508.585 490.184 508.621 490.184 508.658 490.184C508.695 490.184 508.732 490.184 508.768 490.184C508.805 490.184 508.842 490.184 508.879 490.184C508.916 490.184 508.953 490.184 508.99 490.184C509.027 490.184 509.064 490.184 509.101 490.184C509.138 490.184 509.175 490.184 509.212 490.184C509.249 490.184 509.286 490.184 509.323 490.184C509.36 490.184 509.398 490.184 509.435 490.184C509.472 490.184 509.509 490.184 509.546 490.184C509.584 490.184 509.621 490.184 509.658 490.184C509.695 490.184 509.733 490.184 509.77 490.184C509.808 490.184 509.845 490.184 509.882 490.184C509.92 490.184 509.957 490.184 509.995 490.184C510.032 490.184 510.07 490.184 510.107 490.184C510.145 490.184 510.182 490.184 510.22 490.184C510.257 490.184 510.295 490.184 510.333 490.184C510.37 490.184 510.408 490.184 510.446 490.184C510.483 490.184 510.521 490.184 510.559 490.184C510.597 490.184 510.634 490.184 510.672 490.184C510.71 490.184 510.748 490.184 510.786 490.184C510.824 490.184 510.861 490.184 510.899 490.184C510.937 490.184 510.975 490.184 511.013 490.184C511.051 490.184 511.089 490.184 511.127 490.184C511.165 490.184 511.203 490.184 511.241 490.184C511.279 490.184 511.317 490.184 511.356 490.184C511.394 490.184 511.432 490.184 511.47 490.184C511.508 490.184 511.546 490.184 511.585 490.184C511.623 490.184 511.661 490.184 511.699 490.184C511.738 490.184 511.776 490.184 511.814 490.184C511.853 490.184 511.891 490.184 511.929 490.184C511.968 490.184 512.006 490.184 512.045 490.184C512.083 490.184 512.122 490.184 512.16 490.184C512.199 490.184 512.237 490.184 512.276 490.184C512.314 490.184 512.353 490.184 512.391 490.184C512.43 490.184 512.468 490.184 512.507 490.184C512.546 490.184 512.584 490.184 512.623 490.184C512.662 490.184 512.7 490.184 512.739 490.184C512.778 490.184 512.817 490.184 512.855 490.184C512.894 490.184 512.933 490.184 512.972 490.184C513.011 490.184 513.049 490.184 513.088 490.184C513.127 490.184 513.166 490.184 513.205 490.184C513.244 490.184 513.283 490.184 513.322 490.184C513.361 490.184 513.4 490.184 513.439 490.184C513.478 490.184 513.517 490.184 513.556 490.184C513.595 490.184 513.634 490.184 513.673 490.184C513.712 490.184 513.751 490.184 513.791 490.184C513.83 490.184 513.869 490.184 513.908 490.184C513.947 490.184 513.987 490.184 514.026 490.184C514.065 490.184 514.104 490.184 514.144 490.184C514.183 490.184 514.222 490.184 514.261 490.184C514.301 490.184 514.34 490.184 514.379 490.184C514.419 490.184 514.458 490.184 514.498 490.184C514.537 490.184 514.577 490.184 514.616 490.184C514.655 490.184 514.695 490.184 514.734 490.184C514.774 490.184 514.813 490.184 514.853 490.184C514.893 490.184 514.932 490.184 514.972 490.184C515.011 490.184 515.051 490.184 515.091 490.184C515.13 490.184 515.17 490.184 515.209 490.184C515.249 490.184 515.289 490.184 515.329 490.184C515.368 490.184 515.408 490.184 515.448 490.184C515.487 490.184 515.527 490.184 515.567 490.184C515.607 490.184 515.647 490.184 515.686 490.184C515.726 490.184 515.766 490.184 515.806 490.184C515.846 490.184 515.886 490.184 515.926 490.184C515.966 490.184 516.005 490.184 516.045 490.184C516.085 490.184 516.125 490.184 516.165 490.184C516.205 490.184 516.245 490.184 516.285 490.184C516.325 490.184 516.365 490.184 516.405 490.184C516.446 490.184 516.486 490.184 516.526 490.184C516.566 490.184 516.606 490.184 516.646 490.184C516.686 490.184 516.726 490.184 516.767 490.184C516.807 490.184 516.847 490.184 516.887 490.184C516.927 490.184 516.968 490.184 517.008 490.184C517.048 490.184 517.088 490.184 517.129 490.184C517.169 490.184 517.209 490.184 517.25 490.184C517.29 490.184 517.33 490.184 517.371 490.184C517.411 490.184 517.451 490.184 517.492 490.184C517.532 490.184 517.572 490.184 517.613 490.184C517.653 490.184 517.694 490.184 517.734 490.184C517.775 490.184 517.815 490.184 517.856 490.184C517.896 490.184 517.937 490.184 517.977 490.184C518.018 490.184 518.058 490.184 518.099 490.184C518.139 490.184 518.18 490.184 518.22 490.184C518.261 490.184 518.302 490.184 518.342 490.184C518.383 490.184 518.424 490.184 518.464 490.184C518.505 490.184 518.546 490.184 518.586 490.184C518.627 490.184 518.668 490.184 518.708 490.184C518.749 490.184 518.79 490.184 518.831 490.184C518.871 490.184 518.912 490.184 518.953 490.184C518.994 490.184 519.034 490.184 519.075 490.184C519.116 490.184 519.157 490.184 519.198 490.184C519.239 490.184 519.279 490.184 519.32 490.184C519.361 490.184 519.402 490.184 519.443 490.184C519.484 490.184 519.525 490.184 519.566 490.184C519.607 490.184 519.648 490.184 519.689 490.184C519.729 490.184 519.77 490.184 519.811 490.184C519.852 490.184 519.893 490.184 519.934 490.184C519.975 490.184 520.016 490.184 520.058 490.184C520.099 490.184 520.14 490.184 520.181 490.184C520.222 490.184 520.263 490.184 520.304 490.184C520.345 490.184 520.386 490.184 520.427 490.184C520.468 490.184 520.51 490.184 520.551 490.184C520.592 490.184 520.633 490.184 520.674 490.184C520.715 490.184 520.757 490.184 520.798 490.184C520.839 490.184 520.88 490.184 520.921 490.184C520.963 490.184 521.004 490.184 521.045 490.184C521.086 490.184 521.128 490.184 521.169 490.184C521.21 490.184 521.252 490.184 521.293 490.184C521.334 490.184 521.375 490.184 521.417 490.184C521.458 490.184 521.499 490.184 521.541 490.184C521.582 490.184 521.623 490.184 521.665 490.184C521.706 490.184 521.748 490.184 521.789 490.184C521.83 490.184 521.872 490.184 521.913 490.184C521.955 490.184 521.996 490.184 522.038 490.184C522.079 490.184 522.12 490.184 522.162 490.184C522.203 490.184 522.245 490.184 522.286 490.184C522.328 490.184 522.369 490.184 522.411 490.184C522.452 490.184 522.494 490.184 522.535 490.184C522.577 490.184 522.618 490.184 522.66 490.184C522.702 490.184 522.743 490.184 522.785 490.184C522.826 490.184 522.868 490.184 522.909 490.184C522.951 490.184 522.993 490.184 523.034 490.184C523.076 490.184 523.117 490.184 523.159 490.184C523.201 490.184 523.242 490.184 523.284 490.184C523.326 490.184 523.367 490.184 523.409 490.184C523.451 490.184 523.492 490.184 523.534 490.184C523.576 490.184 523.617 490.184 523.659 490.184C523.701 490.184 523.742 490.184 523.784 490.184C523.826 490.184 523.868 490.184 523.909 490.184C523.951 490.184 523.993 490.184 524.035 490.184C524.076 490.184 524.118 490.184 524.16 490.184C524.202 490.184 524.243 490.184 524.285 490.184C524.327 490.184 524.369 490.184 524.411 490.184C524.452 490.184 524.494 490.184 524.536 490.184C524.578 490.184 524.62 490.184 524.661 490.184C524.703 490.184 524.745 490.184 524.787 490.184C524.829 490.184 524.871 490.184 524.913 490.184C524.954 490.184 524.996 490.184 525.038 490.184C525.08 490.184 525.122 490.184 525.164 490.184C525.206 490.184 525.248 490.184 525.289 490.184C525.331 490.184 525.373 490.184 525.415 490.184C525.457 490.184 525.499 490.184 525.541 490.184C525.583 490.184 525.625 490.184 525.667 490.184C525.709 490.184 525.751 490.184 525.793 490.184C525.835 490.184 525.877 490.184 525.919 490.184C525.96 490.184 526.002 490.184 526.044 490.184C526.086 490.184 526.128 490.184 526.17 490.184C526.212 490.184 526.254 490.184 526.296 490.184C526.338 490.184 526.38 490.184 526.422 490.184C526.464 490.184 526.506 490.184 526.548 490.184C526.59 490.184 526.632 490.184 526.675 490.184C526.717 490.184 526.759 490.184 526.801 490.184C526.843 490.184 526.885 490.184 526.927 490.184C526.969 490.184 527.011 490.184 527.053 490.184C527.095 490.184 527.137 490.184 527.179 490.184C527.221 490.184 527.263 490.184 527.305 490.184C527.347 490.184 527.389 490.184 527.432 490.184C527.474 490.184 527.516 490.184 527.558 490.184C527.6 490.184 527.642 490.184 527.684 490.184C527.726 490.184 527.768 490.184 527.81 490.184C527.853 490.184 527.895 490.184 527.937 490.184C527.979 490.184 528.021 490.184 528.063 490.184C528.105 490.184 528.147 490.184 528.189 490.184C528.232 490.184 528.274 490.184 528.316 490.184C528.358 490.184 528.4 490.184 528.442 490.184C528.484 490.184 528.526 490.184 528.569 490.184C528.611 490.184 528.653 490.184 528.695 490.184C528.737 490.184 528.779 490.184 528.821 490.184C528.864 490.184 528.906 490.184 528.948 490.184C528.99 490.184 529.032 490.184 529.074 490.184C529.116 490.184 529.159 490.184 529.201 490.184C529.243 490.184 529.285 490.184 529.327 490.184C529.369 490.184 529.412 490.184 529.454 490.184C529.496 490.184 529.538 490.184 529.58 490.184C529.622 490.184 529.665 490.184 529.707 490.184C529.749 490.184 529.791 490.184 529.833 490.184C529.875 490.184 529.918 490.184 529.96 490.184C530.002 490.184 530.044 490.184 530.086 490.184C530.128 490.184 530.171 490.184 530.213 490.184C530.255 490.184 530.297 490.184 530.339 490.184C530.381 490.184 530.424 490.184 530.466 490.184C530.508 490.184 530.55 490.184 530.592 490.184C530.634 490.184 530.677 490.184 530.719 490.184C530.761 490.184 530.803 490.184 530.845 490.184C530.887 490.184 530.93 490.184 530.972 490.184C531.014 490.184 531.056 490.184 531.098 490.184C531.14 490.184 531.183 490.184 531.225 490.184C531.267 490.184 531.309 490.184 531.351 490.184C531.393 490.184 531.436 490.184 531.478 490.184C531.52 490.184 531.562 490.184 531.604 490.184C531.646 490.184 531.688 490.184 531.731 490.184C531.773 490.184 531.815 490.184 531.857 490.184C531.899 490.184 531.941 490.184 531.983 490.184C532.026 490.184 532.068 490.184 532.11 490.184C532.152 490.184 532.194 490.184 532.236 490.184C532.278 490.184 532.32 490.184 532.363 490.184C532.405 490.184 532.447 490.184 532.489 490.184C532.531 490.184 532.573 490.184 532.615 490.184C532.657 490.184 532.7 490.184 532.742 490.184C532.784 490.184 532.826 490.184 532.868 490.184C532.91 490.184 532.952 490.184 532.994 490.184C533.036 490.184 533.078 490.184 533.12 490.184C533.163 490.184 533.205 490.184 533.247 490.184C533.289 490.184 533.331 490.184 533.373 490.184C533.415 490.184 533.457 490.184 533.499 490.184C533.541 490.184 533.583 490.184 533.625 490.184C533.667 490.184 533.709 490.184 533.751 490.184C533.793 490.184 533.835 490.184 533.878 490.184C533.92 490.184 533.962 490.184 534.004 490.184C534.046 490.184 534.088 490.184 534.13 490.184C534.172 490.184 534.214 490.184 534.256 490.184C534.298 490.184 534.34 490.184 534.382 490.184C534.424 490.184 534.466 490.184 534.508 490.184C534.55 490.184 534.592 490.184 534.634 490.184C534.676 490.184 534.717 490.184 534.759 490.184C534.801 490.184 534.843 490.184 534.885 490.184C534.927 490.184 534.969 490.184 535.011 490.184C535.053 490.184 535.095 490.184 535.137 490.184C535.179 490.184 535.221 490.184 535.263 490.184C535.305 490.184 535.346 490.184 535.388 490.184C535.43 490.184 535.472 490.184 535.514 490.184C535.556 490.184 535.598 490.184 535.64 490.184C535.681 490.184 535.723 490.184 535.765 490.184C535.807 490.184 535.849 490.184 535.891 490.184C535.932 490.184 535.974 490.184 536.016 490.184C536.058 490.184 536.1 490.184 536.142 490.184C536.183 490.184 536.225 490.184 536.267 490.184C536.309 490.184 536.351 490.184 536.392 490.184C536.434 490.184 536.476 490.184 536.518 490.184C536.559 490.184 536.601 490.184 536.643 490.184C536.685 490.184 536.726 490.184 536.768 490.184C536.81 490.184 536.851 490.184 536.893 490.184C536.935 490.184 536.977 490.184 537.018 490.184C537.06 490.184 537.102 490.184 537.143 490.184C537.185 490.184 537.227 490.184 537.268 490.184C537.31 490.184 537.352 490.184 537.393 490.184C537.435 490.184 537.476 490.184 537.518 490.184C537.56 490.184 537.601 490.184 537.643 490.184C537.684 490.184 537.726 490.184 537.768 490.184C537.809 490.184 537.851 490.184 537.892 490.184C537.934 490.184 537.975 490.184 538.017 490.184C538.058 490.184 538.1 490.184 538.141 490.184C538.183 490.184 538.224 490.184 538.266 490.184C538.307 490.184 538.349 490.184 538.39 490.184C538.432 490.184 538.473 490.184 538.515 490.184C538.556 490.184 538.598 490.184 538.639 490.184C538.68 490.184 538.722 490.184 538.763 490.184C538.805 490.184 538.846 490.184 538.887 490.184C538.929 490.184 538.97 490.184 539.011 490.184C539.053 490.184 539.094 490.184 539.135 490.184C539.177 490.184 539.218 490.184 539.259 490.184C539.301 490.184 539.342 490.184 539.383 490.184C539.425 490.184 539.466 490.184 539.507 490.184C539.548 490.184 539.59 490.184 539.631 490.184C539.672 490.184 539.713 490.184 539.754 490.184C539.796 490.184 539.837 490.184 539.878 490.184C539.919 490.184 539.96 490.184 540.002 490.184C540.043 490.184 540.084 490.184 540.125 490.184C540.166 490.184 540.207 490.184 540.248 490.184C540.289 490.184 540.331 490.184 540.372 490.184C540.413 490.184 540.454 490.184 540.495 490.184C540.536 490.184 540.577 490.184 540.618 490.184C540.659 490.184 540.7 490.184 540.741 490.184C540.782 490.184 540.823 490.184 540.864 490.184C540.905 490.184 540.946 490.184 540.987 490.184C541.028 490.184 541.068 490.184 541.109 490.184C541.15 490.184 541.191 490.184 541.232 490.184C541.273 490.184 541.314 490.184 541.355 490.184C541.395 490.184 541.436 490.184 541.477 490.184C541.518 490.184 541.559 490.184 541.6 490.184C541.64 490.184 541.681 490.184 541.722 490.184C541.763 490.184 541.803 490.184 541.844 490.184C541.885 490.184 541.925 490.184 541.966 490.184C542.007 490.184 542.048 490.184 542.088 490.184C542.129 490.184 542.169 490.184 542.21 490.184C542.251 490.184 542.291 490.184 542.332 490.184C542.373 490.184 542.413 490.184 542.454 490.184C542.494 490.184 542.535 490.184 542.575 490.184C542.616 490.184 542.656 490.184 542.697 490.184C542.737 490.184 542.778 490.184 542.818 490.184C542.859 490.184 542.899 490.184 542.94 490.184C542.98 490.184 543.02 490.184 543.061 490.184C543.101 490.184 543.142 490.184 543.182 490.184V488.104V486.024C543.142 486.024 543.101 486.024 543.061 486.024C543.02 486.024 542.98 486.024 542.94 486.024C542.899 486.024 542.859 486.024 542.818 486.024C542.778 486.024 542.737 486.024 542.697 486.024C542.656 486.024 542.616 486.024 542.575 486.024C542.535 486.024 542.494 486.024 542.454 486.024C542.413 486.024 542.373 486.024 542.332 486.024C542.291 486.024 542.251 486.024 542.21 486.024C542.169 486.024 542.129 486.024 542.088 486.024C542.048 486.024 542.007 486.024 541.966 486.024C541.925 486.024 541.885 486.024 541.844 486.024C541.803 486.024 541.763 486.024 541.722 486.024C541.681 486.024 541.64 486.024 541.6 486.024C541.559 486.024 541.518 486.024 541.477 486.024C541.436 486.024 541.395 486.024 541.355 486.024C541.314 486.024 541.273 486.024 541.232 486.024C541.191 486.024 541.15 486.024 541.109 486.024C541.068 486.024 541.028 486.024 540.987 486.024C540.946 486.024 540.905 486.024 540.864 486.024C540.823 486.024 540.782 486.024 540.741 486.024C540.7 486.024 540.659 486.024 540.618 486.024C540.577 486.024 540.536 486.024 540.495 486.024C540.454 486.024 540.413 486.024 540.372 486.024C540.331 486.024 540.289 486.024 540.248 486.024C540.207 486.024 540.166 486.024 540.125 486.024C540.084 486.024 540.043 486.024 540.002 486.024C539.96 486.024 539.919 486.024 539.878 486.024C539.837 486.024 539.796 486.024 539.754 486.024C539.713 486.024 539.672 486.024 539.631 486.024C539.59 486.024 539.548 486.024 539.507 486.024C539.466 486.024 539.425 486.024 539.383 486.024C539.342 486.024 539.301 486.024 539.259 486.024C539.218 486.024 539.177 486.024 539.135 486.024C539.094 486.024 539.053 486.024 539.011 486.024C538.97 486.024 538.929 486.024 538.887 486.024C538.846 486.024 538.805 486.024 538.763 486.024C538.722 486.024 538.68 486.024 538.639 486.024C538.598 486.024 538.556 486.024 538.515 486.024C538.473 486.024 538.432 486.024 538.39 486.024C538.349 486.024 538.307 486.024 538.266 486.024C538.224 486.024 538.183 486.024 538.141 486.024C538.1 486.024 538.058 486.024 538.017 486.024C537.975 486.024 537.934 486.024 537.892 486.024C537.851 486.024 537.809 486.024 537.768 486.024C537.726 486.024 537.684 486.024 537.643 486.024C537.601 486.024 537.56 486.024 537.518 486.024C537.476 486.024 537.435 486.024 537.393 486.024C537.352 486.024 537.31 486.024 537.268 486.024C537.227 486.024 537.185 486.024 537.143 486.024C537.102 486.024 537.06 486.024 537.018 486.024C536.977 486.024 536.935 486.024 536.893 486.024C536.851 486.024 536.81 486.024 536.768 486.024C536.726 486.024 536.685 486.024 536.643 486.024C536.601 486.024 536.559 486.024 536.518 486.024C536.476 486.024 536.434 486.024 536.392 486.024C536.351 486.024 536.309 486.024 536.267 486.024C536.225 486.024 536.183 486.024 536.142 486.024C536.1 486.024 536.058 486.024 536.016 486.024C535.974 486.024 535.932 486.024 535.891 486.024C535.849 486.024 535.807 486.024 535.765 486.024C535.723 486.024 535.681 486.024 535.64 486.024C535.598 486.024 535.556 486.024 535.514 486.024C535.472 486.024 535.43 486.024 535.388 486.024C535.346 486.024 535.305 486.024 535.263 486.024C535.221 486.024 535.179 486.024 535.137 486.024C535.095 486.024 535.053 486.024 535.011 486.024C534.969 486.024 534.927 486.024 534.885 486.024C534.843 486.024 534.801 486.024 534.759 486.024C534.717 486.024 534.676 486.024 534.634 486.024C534.592 486.024 534.55 486.024 534.508 486.024C534.466 486.024 534.424 486.024 534.382 486.024C534.34 486.024 534.298 486.024 534.256 486.024C534.214 486.024 534.172 486.024 534.13 486.024C534.088 486.024 534.046 486.024 534.004 486.024C533.962 486.024 533.92 486.024 533.878 486.024C533.835 486.024 533.793 486.024 533.751 486.024C533.709 486.024 533.667 486.024 533.625 486.024C533.583 486.024 533.541 486.024 533.499 486.024C533.457 486.024 533.415 486.024 533.373 486.024C533.331 486.024 533.289 486.024 533.247 486.024C533.205 486.024 533.163 486.024 533.12 486.024C533.078 486.024 533.036 486.024 532.994 486.024C532.952 486.024 532.91 486.024 532.868 486.024C532.826 486.024 532.784 486.024 532.742 486.024C532.7 486.024 532.657 486.024 532.615 486.024C532.573 486.024 532.531 486.024 532.489 486.024C532.447 486.024 532.405 486.024 532.363 486.024C532.32 486.024 532.278 486.024 532.236 486.024C532.194 486.024 532.152 486.024 532.11 486.024C532.068 486.024 532.026 486.024 531.983 486.024C531.941 486.024 531.899 486.024 531.857 486.024C531.815 486.024 531.773 486.024 531.731 486.024C531.688 486.024 531.646 486.024 531.604 486.024C531.562 486.024 531.52 486.024 531.478 486.024C531.436 486.024 531.393 486.024 531.351 486.024C531.309 486.024 531.267 486.024 531.225 486.024C531.183 486.024 531.14 486.024 531.098 486.024C531.056 486.024 531.014 486.024 530.972 486.024C530.93 486.024 530.887 486.024 530.845 486.024C530.803 486.024 530.761 486.024 530.719 486.024C530.677 486.024 530.634 486.024 530.592 486.024C530.55 486.024 530.508 486.024 530.466 486.024C530.424 486.024 530.381 486.024 530.339 486.024C530.297 486.024 530.255 486.024 530.213 486.024C530.171 486.024 530.128 486.024 530.086 486.024C530.044 486.024 530.002 486.024 529.96 486.024C529.918 486.024 529.875 486.024 529.833 486.024C529.791 486.024 529.749 486.024 529.707 486.024C529.665 486.024 529.622 486.024 529.58 486.024C529.538 486.024 529.496 486.024 529.454 486.024C529.412 486.024 529.369 486.024 529.327 486.024C529.285 486.024 529.243 486.024 529.201 486.024C529.159 486.024 529.116 486.024 529.074 486.024C529.032 486.024 528.99 486.024 528.948 486.024C528.906 486.024 528.864 486.024 528.821 486.024C528.779 486.024 528.737 486.024 528.695 486.024C528.653 486.024 528.611 486.024 528.569 486.024C528.526 486.024 528.484 486.024 528.442 486.024C528.4 486.024 528.358 486.024 528.316 486.024C528.274 486.024 528.232 486.024 528.189 486.024C528.147 486.024 528.105 486.024 528.063 486.024C528.021 486.024 527.979 486.024 527.937 486.024C527.895 486.024 527.853 486.024 527.81 486.024C527.768 486.024 527.726 486.024 527.684 486.024C527.642 486.024 527.6 486.024 527.558 486.024C527.516 486.024 527.474 486.024 527.432 486.024C527.389 486.024 527.347 486.024 527.305 486.024C527.263 486.024 527.221 486.024 527.179 486.024C527.137 486.024 527.095 486.024 527.053 486.024C527.011 486.024 526.969 486.024 526.927 486.024C526.885 486.024 526.843 486.024 526.801 486.024C526.759 486.024 526.717 486.024 526.675 486.024C526.632 486.024 526.59 486.024 526.548 486.024C526.506 486.024 526.464 486.024 526.422 486.024C526.38 486.024 526.338 486.024 526.296 486.024C526.254 486.024 526.212 486.024 526.17 486.024C526.128 486.024 526.086 486.024 526.044 486.024C526.002 486.024 525.96 486.024 525.919 486.024C525.877 486.024 525.835 486.024 525.793 486.024C525.751 486.024 525.709 486.024 525.667 486.024C525.625 486.024 525.583 486.024 525.541 486.024C525.499 486.024 525.457 486.024 525.415 486.024C525.373 486.024 525.331 486.024 525.289 486.024C525.248 486.024 525.206 486.024 525.164 486.024C525.122 486.024 525.08 486.024 525.038 486.024C524.996 486.024 524.954 486.024 524.913 486.024C524.871 486.024 524.829 486.024 524.787 486.024C524.745 486.024 524.703 486.024 524.661 486.024C524.62 486.024 524.578 486.024 524.536 486.024C524.494 486.024 524.452 486.024 524.411 486.024C524.369 486.024 524.327 486.024 524.285 486.024C524.243 486.024 524.202 486.024 524.16 486.024C524.118 486.024 524.076 486.024 524.035 486.024C523.993 486.024 523.951 486.024 523.909 486.024C523.868 486.024 523.826 486.024 523.784 486.024C523.742 486.024 523.701 486.024 523.659 486.024C523.617 486.024 523.576 486.024 523.534 486.024C523.492 486.024 523.451 486.024 523.409 486.024C523.367 486.024 523.326 486.024 523.284 486.024C523.242 486.024 523.201 486.024 523.159 486.024C523.117 486.024 523.076 486.024 523.034 486.024C522.993 486.024 522.951 486.024 522.909 486.024C522.868 486.024 522.826 486.024 522.785 486.024C522.743 486.024 522.702 486.024 522.66 486.024C522.618 486.024 522.577 486.024 522.535 486.024C522.494 486.024 522.452 486.024 522.411 486.024C522.369 486.024 522.328 486.024 522.286 486.024C522.245 486.024 522.203 486.024 522.162 486.024C522.12 486.024 522.079 486.024 522.038 486.024C521.996 486.024 521.955 486.024 521.913 486.024C521.872 486.024 521.83 486.024 521.789 486.024C521.748 486.024 521.706 486.024 521.665 486.024C521.623 486.024 521.582 486.024 521.541 486.024C521.499 486.024 521.458 486.024 521.417 486.024C521.375 486.024 521.334 486.024 521.293 486.024C521.252 486.024 521.21 486.024 521.169 486.024C521.128 486.024 521.086 486.024 521.045 486.024C521.004 486.024 520.963 486.024 520.921 486.024C520.88 486.024 520.839 486.024 520.798 486.024C520.757 486.024 520.715 486.024 520.674 486.024C520.633 486.024 520.592 486.024 520.551 486.024C520.51 486.024 520.468 486.024 520.427 486.024C520.386 486.024 520.345 486.024 520.304 486.024C520.263 486.024 520.222 486.024 520.181 486.024C520.14 486.024 520.099 486.024 520.058 486.024C520.016 486.024 519.975 486.024 519.934 486.024C519.893 486.024 519.852 486.024 519.811 486.024C519.77 486.024 519.729 486.024 519.689 486.024C519.648 486.024 519.607 486.024 519.566 486.024C519.525 486.024 519.484 486.024 519.443 486.024C519.402 486.024 519.361 486.024 519.32 486.024C519.279 486.024 519.239 486.024 519.198 486.024C519.157 486.024 519.116 486.024 519.075 486.024C519.034 486.024 518.994 486.024 518.953 486.024C518.912 486.024 518.871 486.024 518.831 486.024C518.79 486.024 518.749 486.024 518.708 486.024C518.668 486.024 518.627 486.024 518.586 486.024C518.546 486.024 518.505 486.024 518.464 486.024C518.424 486.024 518.383 486.024 518.342 486.024C518.302 486.024 518.261 486.024 518.22 486.024C518.18 486.024 518.139 486.024 518.099 486.024C518.058 486.024 518.018 486.024 517.977 486.024C517.937 486.024 517.896 486.024 517.856 486.024C517.815 486.024 517.775 486.024 517.734 486.024C517.694 486.024 517.653 486.024 517.613 486.024C517.572 486.024 517.532 486.024 517.492 486.024C517.451 486.024 517.411 486.024 517.371 486.024C517.33 486.024 517.29 486.024 517.25 486.024C517.209 486.024 517.169 486.024 517.129 486.024C517.088 486.024 517.048 486.024 517.008 486.024C516.968 486.024 516.927 486.024 516.887 486.024C516.847 486.024 516.807 486.024 516.767 486.024C516.726 486.024 516.686 486.024 516.646 486.024C516.606 486.024 516.566 486.024 516.526 486.024C516.486 486.024 516.446 486.024 516.405 486.024C516.365 486.024 516.325 486.024 516.285 486.024C516.245 486.024 516.205 486.024 516.165 486.024C516.125 486.024 516.085 486.024 516.045 486.024C516.005 486.024 515.966 486.024 515.926 486.024C515.886 486.024 515.846 486.024 515.806 486.024C515.766 486.024 515.726 486.024 515.686 486.024C515.647 486.024 515.607 486.024 515.567 486.024C515.527 486.024 515.487 486.024 515.448 486.024C515.408 486.024 515.368 486.024 515.329 486.024C515.289 486.024 515.249 486.024 515.209 486.024C515.17 486.024 515.13 486.024 515.091 486.024C515.051 486.024 515.011 486.024 514.972 486.024C514.932 486.024 514.893 486.024 514.853 486.024C514.813 486.024 514.774 486.024 514.734 486.024C514.695 486.024 514.655 486.024 514.616 486.024C514.577 486.024 514.537 486.024 514.498 486.024C514.458 486.024 514.419 486.024 514.379 486.024C514.34 486.024 514.301 486.024 514.261 486.024C514.222 486.024 514.183 486.024 514.144 486.024C514.104 486.024 514.065 486.024 514.026 486.024C513.987 486.024 513.947 486.024 513.908 486.024C513.869 486.024 513.83 486.024 513.791 486.024C513.751 486.024 513.712 486.024 513.673 486.024C513.634 486.024 513.595 486.024 513.556 486.024C513.517 486.024 513.478 486.024 513.439 486.024C513.4 486.024 513.361 486.024 513.322 486.024C513.283 486.024 513.244 486.024 513.205 486.024C513.166 486.024 513.127 486.024 513.088 486.024C513.049 486.024 513.011 486.024 512.972 486.024C512.933 486.024 512.894 486.024 512.855 486.024C512.817 486.024 512.778 486.024 512.739 486.024C512.7 486.024 512.662 486.024 512.623 486.024C512.584 486.024 512.546 486.024 512.507 486.024C512.468 486.024 512.43 486.024 512.391 486.024C512.353 486.024 512.314 486.024 512.276 486.024C512.237 486.024 512.199 486.024 512.16 486.024C512.122 486.024 512.083 486.024 512.045 486.024C512.006 486.024 511.968 486.024 511.929 486.024C511.891 486.024 511.853 486.024 511.814 486.024C511.776 486.024 511.738 486.024 511.699 486.024C511.661 486.024 511.623 486.024 511.585 486.024C511.546 486.024 511.508 486.024 511.47 486.024C511.432 486.024 511.394 486.024 511.356 486.024C511.317 486.024 511.279 486.024 511.241 486.024C511.203 486.024 511.165 486.024 511.127 486.024C511.089 486.024 511.051 486.024 511.013 486.024C510.975 486.024 510.937 486.024 510.899 486.024C510.861 486.024 510.824 486.024 510.786 486.024C510.748 486.024 510.71 486.024 510.672 486.024C510.634 486.024 510.597 486.024 510.559 486.024C510.521 486.024 510.483 486.024 510.446 486.024C510.408 486.024 510.37 486.024 510.333 486.024C510.295 486.024 510.257 486.024 510.22 486.024C510.182 486.024 510.145 486.024 510.107 486.024C510.07 486.024 510.032 486.024 509.995 486.024C509.957 486.024 509.92 486.024 509.882 486.024C509.845 486.024 509.808 486.024 509.77 486.024C509.733 486.024 509.695 486.024 509.658 486.024C509.621 486.024 509.584 486.024 509.546 486.024C509.509 486.024 509.472 486.024 509.435 486.024C509.398 486.024 509.36 486.024 509.323 486.024C509.286 486.024 509.249 486.024 509.212 486.024C509.175 486.024 509.138 486.024 509.101 486.024C509.064 486.024 509.027 486.024 508.99 486.024C508.953 486.024 508.916 486.024 508.879 486.024C508.842 486.024 508.805 486.024 508.768 486.024C508.732 486.024 508.695 486.024 508.658 486.024C508.621 486.024 508.585 486.024 508.548 486.024C508.511 486.024 508.474 486.024 508.438 486.024C508.401 486.024 508.365 486.024 508.328 486.024C508.291 486.024 508.255 486.024 508.218 486.024C508.182 486.024 508.145 486.024 508.109 486.024C508.072 486.024 508.036 486.024 507.999 486.024C507.963 486.024 507.927 486.024 507.89 486.024C507.854 486.024 507.818 486.024 507.781 486.024C507.745 486.024 507.709 486.024 507.673 486.024C507.636 486.024 507.6 486.024 507.564 486.024C507.528 486.024 507.492 486.024 507.456 486.024C507.42 486.024 507.384 486.024 507.348 486.024C507.312 486.024 507.276 486.024 507.24 486.024C507.204 486.024 507.168 486.024 507.132 486.024C507.096 486.024 507.06 486.024 507.024 486.024C506.988 486.024 506.953 486.024 506.917 486.024C506.881 486.024 506.845 486.024 506.81 486.024C506.774 486.024 506.738 486.024 506.703 486.024C506.667 486.024 506.631 486.024 506.596 486.024C506.56 486.024 506.525 486.024 506.489 486.024C506.454 486.024 506.418 486.024 506.383 486.024C506.348 486.024 506.312 486.024 506.277 486.024C506.241 486.024 506.206 486.024 506.171 486.024C506.135 486.024 506.1 486.024 506.065 486.024C506.03 486.024 505.995 486.024 505.959 486.024C505.924 486.024 505.889 486.024 505.854 486.024C505.819 486.024 505.784 486.024 505.749 486.024C505.714 486.024 505.679 486.024 505.644 486.024C505.609 486.024 505.574 486.024 505.539 486.024C505.504 486.024 505.47 486.024 505.435 486.024C505.4 486.024 505.365 486.024 505.33 486.024C505.296 486.024 505.261 486.024 505.226 486.024C505.192 486.024 505.157 486.024 505.122 486.024C505.088 486.024 505.053 486.024 505.019 486.024C504.984 486.024 504.95 486.024 504.915 486.024C504.881 486.024 504.846 486.024 504.812 486.024C504.778 486.024 504.743 486.024 504.709 486.024C504.675 486.024 504.64 486.024 504.606 486.024C504.572 486.024 504.538 486.024 504.504 486.024C504.469 486.024 504.435 486.024 504.401 486.024C504.367 486.024 504.333 486.024 504.299 486.024C504.265 486.024 504.231 486.024 504.197 486.024C504.163 486.024 504.129 486.024 504.095 486.024C504.062 486.024 504.028 486.024 503.994 486.024C503.96 486.024 503.926 486.024 503.893 486.024C503.859 486.024 503.825 486.024 503.792 486.024C503.758 486.024 503.725 486.024 503.691 486.024C503.657 486.024 503.624 486.024 503.59 486.024C503.557 486.024 503.523 486.024 503.49 486.024C503.457 486.024 503.423 486.024 503.39 486.024C503.357 486.024 503.323 486.024 503.29 486.024C503.257 486.024 503.224 486.024 503.19 486.024C503.157 486.024 503.124 486.024 503.091 486.024C503.058 486.024 503.025 486.024 502.992 486.024C502.959 486.024 502.926 486.024 502.893 486.024C502.86 486.024 502.827 486.024 502.794 486.024C502.761 486.024 502.729 486.024 502.696 486.024C502.663 486.024 502.63 486.024 502.598 486.024C502.565 486.024 502.532 486.024 502.5 486.024C502.467 486.024 502.434 486.024 502.402 486.024C502.369 486.024 502.337 486.024 502.304 486.024C502.272 486.024 502.24 486.024 502.207 486.024C502.175 486.024 502.142 486.024 502.11 486.024C502.078 486.024 502.046 486.024 502.013 486.024C501.981 486.024 501.949 486.024 501.917 486.024C501.885 486.024 501.853 486.024 501.821 486.024C501.789 486.024 501.757 486.024 501.725 486.024C501.693 486.024 501.661 486.024 501.629 486.024C501.597 486.024 501.565 486.024 501.533 486.024C501.502 486.024 501.47 486.024 501.438 486.024C501.406 486.024 501.375 486.024 501.343 486.024C501.311 486.024 501.28 486.024 501.248 486.024C501.217 486.024 501.185 486.024 501.154 486.024C501.122 486.024 501.091 486.024 501.06 486.024C501.028 486.024 500.997 486.024 500.966 486.024C500.934 486.024 500.903 486.024 500.872 486.024C500.841 486.024 500.81 486.024 500.778 486.024C500.747 486.024 500.716 486.024 500.685 486.024C500.654 486.024 500.623 486.024 500.592 486.024C500.561 486.024 500.53 486.024 500.5 486.024C500.469 486.024 500.438 486.024 500.407 486.024C500.376 486.024 500.346 486.024 500.315 486.024C500.284 486.024 500.254 486.024 500.223 486.024C500.192 486.024 500.162 486.024 500.131 486.024C500.101 486.024 500.07 486.024 500.04 486.024C500.01 486.024 499.979 486.024 499.949 486.024C499.919 486.024 499.888 486.024 499.858 486.024C499.828 486.024 499.798 486.024 499.768 486.024C499.737 486.024 499.707 486.024 499.677 486.024C499.647 486.024 499.617 486.024 499.587 486.024C499.557 486.024 499.527 486.024 499.497 486.024C499.468 486.024 499.438 486.024 499.408 486.024C499.378 486.024 499.348 486.024 499.319 486.024C499.289 486.024 499.259 486.024 499.23 486.024C499.2 486.024 499.171 486.024 499.141 486.024C499.112 486.024 499.082 486.024 499.053 486.024C499.023 486.024 498.994 486.024 498.965 486.024C498.935 486.024 498.906 486.024 498.877 486.024C498.848 486.024 498.819 486.024 498.789 486.024C498.76 486.024 498.731 486.024 498.702 486.024C498.673 486.024 498.644 486.024 498.615 486.024C498.586 486.024 498.557 486.024 498.529 486.024C498.5 486.024 498.471 486.024 498.442 486.024C498.413 486.024 498.385 486.024 498.356 486.024C498.327 486.024 498.299 486.024 498.27 486.024C498.242 486.024 498.213 486.024 498.185 486.024C498.156 486.024 498.128 486.024 498.099 486.024C498.071 486.024 498.043 486.024 498.014 486.024C497.986 486.024 497.958 486.024 497.93 486.024C497.902 486.024 497.873 486.024 497.845 486.024C497.817 486.024 497.789 486.024 497.761 486.024C497.733 486.024 497.705 486.024 497.678 486.024C497.65 486.024 497.622 486.024 497.594 486.024C497.566 486.024 497.539 486.024 497.511 486.024C497.483 486.024 497.456 486.024 497.428 486.024C497.4 486.024 497.373 486.024 497.345 486.024C497.318 486.024 497.29 486.024 497.263 486.024C497.236 486.024 497.208 486.024 497.181 486.024C497.154 486.024 497.127 486.024 497.099 486.024C497.072 486.024 497.045 486.024 497.018 486.024C496.991 486.024 496.964 486.024 496.937 486.024C496.91 486.024 496.883 486.024 496.856 486.024C496.829 486.024 496.802 486.024 496.776 486.024C496.749 486.024 496.722 486.024 496.695 486.024C496.669 486.024 496.642 486.024 496.616 486.024C496.589 486.024 496.562 486.024 496.536 486.024C496.51 486.024 496.483 486.024 496.457 486.024C496.43 486.024 496.404 486.024 496.378 486.024C496.352 486.024 496.325 486.024 496.299 486.024C496.273 486.024 496.247 486.024 496.221 486.024C496.195 486.024 496.169 486.024 496.143 486.024C496.117 486.024 496.091 486.024 496.065 486.024C496.039 486.024 496.014 486.024 495.988 486.024C495.962 486.024 495.936 486.024 495.911 486.024C495.885 486.024 495.859 486.024 495.834 486.024C495.808 486.024 495.783 486.024 495.758 486.024C495.732 486.024 495.707 486.024 495.681 486.024C495.656 486.024 495.631 486.024 495.606 486.024C495.58 486.024 495.555 486.024 495.53 486.024C495.505 486.024 495.48 486.024 495.455 486.024C495.43 486.024 495.405 486.024 495.38 486.024C495.355 486.024 495.331 486.024 495.306 486.024C495.281 486.024 495.256 486.024 495.232 486.024C495.207 486.024 495.182 486.024 495.158 486.024C495.133 486.024 495.109 486.024 495.084 486.024C495.06 486.024 495.035 486.024 495.011 486.024C494.987 486.024 494.962 486.024 494.938 486.024C494.914 486.024 494.89 486.024 494.866 486.024C494.842 486.024 494.817 486.024 494.793 486.024C494.769 486.024 494.746 486.024 494.722 486.024C494.698 486.024 494.674 486.024 494.65 486.024C494.626 486.024 494.603 486.024 494.579 486.024C494.555 486.024 494.532 486.024 494.508 486.024C494.484 486.024 494.461 486.024 494.438 486.024C494.414 486.024 494.391 486.024 494.367 486.024C494.344 486.024 494.321 486.024 494.297 486.024C494.274 486.024 494.251 486.024 494.228 486.024C494.205 486.024 494.182 486.024 494.159 486.024C494.136 486.024 494.113 486.024 494.09 486.024C494.067 486.024 494.044 486.024 494.022 486.024C493.999 486.024 493.976 486.024 493.953 486.024C493.931 486.024 493.908 486.024 493.886 486.024C493.863 486.024 493.841 486.024 493.818 486.024C493.796 486.024 493.773 486.024 493.751 486.024C493.729 486.024 493.707 486.024 493.684 486.024C493.662 486.024 493.64 486.024 493.618 486.024C493.596 486.024 493.574 486.024 493.552 486.024C493.53 486.024 493.508 486.024 493.486 486.024C493.464 486.024 493.443 486.024 493.421 486.024C493.399 486.024 493.377 486.024 493.356 486.024C493.334 486.024 493.313 486.024 493.291 486.024C493.27 486.024 493.248 486.024 493.227 486.024C493.206 486.024 493.184 486.024 493.163 486.024C493.142 486.024 493.121 486.024 493.099 486.024C493.078 486.024 493.057 486.024 493.036 486.024C493.015 486.024 492.994 486.024 492.973 486.024C492.952 486.024 492.932 486.024 492.911 486.024C492.89 486.024 492.869 486.024 492.849 486.024C492.828 486.024 492.807 486.024 492.787 486.024C492.766 486.024 492.746 486.024 492.726 486.024C492.705 486.024 492.685 486.024 492.665 486.024C492.644 486.024 492.624 486.024 492.604 486.024C492.584 486.024 492.564 486.024 492.544 486.024C492.523 486.024 492.503 486.024 492.484 486.024C492.464 486.024 492.444 486.024 492.424 486.024C492.404 486.024 492.384 486.024 492.365 486.024C492.345 486.024 492.326 486.024 492.306 486.024C492.286 486.024 492.267 486.024 492.247 486.024C492.228 486.024 492.209 486.024 492.189 486.024C492.17 486.024 492.151 486.024 492.132 486.024C492.112 486.024 492.093 486.024 492.074 486.024C492.055 486.024 492.036 486.024 492.017 486.024C491.998 486.024 491.98 486.024 491.961 486.024C491.942 486.024 491.923 486.024 491.905 486.024C491.886 486.024 491.867 486.024 491.849 486.024C491.83 486.024 491.812 486.024 491.793 486.024C491.775 486.024 491.756 486.024 491.738 486.024C491.72 486.024 491.702 486.024 491.683 486.024C491.665 486.024 491.647 486.024 491.629 486.024C491.611 486.024 491.593 486.024 491.575 486.024C491.557 486.024 491.539 486.024 491.522 486.024C491.504 486.024 491.486 486.024 491.469 486.024C491.451 486.024 491.433 486.024 491.416 486.024C491.398 486.024 491.381 486.024 491.363 486.024C491.346 486.024 491.329 486.024 491.311 486.024C491.294 486.024 491.277 486.024 491.26 486.024C491.243 486.024 491.226 486.024 491.209 486.024C491.192 486.024 491.175 486.024 491.158 486.024C491.141 486.024 491.124 486.024 491.107 486.024C491.091 486.024 491.074 486.024 491.057 486.024C491.041 486.024 491.024 486.024 491.008 486.024C490.991 486.024 490.975 486.024 490.958 486.024C490.942 486.024 490.926 486.024 490.909 486.024C490.893 486.024 490.877 486.024 490.861 486.024C490.845 486.024 490.829 486.024 490.813 486.024C490.797 486.024 490.781 486.024 490.765 486.024C490.749 486.024 490.734 486.024 490.718 486.024C490.702 486.024 490.687 486.024 490.671 486.024C490.656 486.024 490.64 486.024 490.625 486.024C490.609 486.024 490.594 486.024 490.579 486.024C490.563 486.024 490.548 486.024 490.533 486.024C490.518 486.024 490.503 486.024 490.488 486.024C490.473 486.024 490.458 486.024 490.443 486.024C490.428 486.024 490.413 486.024 490.399 486.024C490.384 486.024 490.369 486.024 490.355 486.024C490.34 486.024 490.325 486.024 490.311 486.024C490.296 486.024 490.282 486.024 490.268 486.024C490.253 486.024 490.239 486.024 490.225 486.024C490.211 486.024 490.197 486.024 490.183 486.024C490.169 486.024 490.155 486.024 490.141 486.024V488.104Z" fill="black"/>
</g>
<path id="L(A) = Fin(a) or Fin(bb)" d="M669.803 778.104H644.094L644.494 776.406C645.792 776.406 646.79 776.29 647.489 776.057C648.188 775.824 648.704 775.375 649.036 774.709C649.402 774.043 649.719 773.045 649.985 771.714L654.178 751.496C654.411 750.331 654.494 749.433 654.428 748.8C654.394 748.135 654.078 747.669 653.479 747.403C652.88 747.136 651.865 747.003 650.434 747.003L650.784 745.306H665.71L665.41 747.003C664.145 747.003 663.13 747.12 662.365 747.353C661.6 747.586 661.001 748.035 660.568 748.701C660.135 749.366 659.786 750.315 659.52 751.546L655.127 773.062C654.894 774.193 654.993 774.942 655.426 775.308C655.892 775.674 656.841 775.857 658.272 775.857H660.867C662.365 775.857 663.596 775.724 664.561 775.458C665.56 775.192 666.409 774.759 667.107 774.16C667.806 773.561 668.455 772.762 669.054 771.764C669.653 770.765 670.319 769.551 671.051 768.12H672.948L669.803 778.104ZM687.118 785.941L686.119 787.189C684.189 786.091 682.475 784.66 680.977 782.896C679.513 781.132 678.365 779.119 677.533 776.856C676.734 774.559 676.335 772.096 676.335 769.467C676.335 766.139 676.801 763.061 677.733 760.232C678.698 757.37 680.046 754.774 681.776 752.445C683.54 750.115 685.587 748.052 687.916 746.255C690.279 744.457 692.825 742.943 695.554 741.712L696.303 743.06C693.907 744.524 691.743 746.138 689.813 747.902C687.916 749.666 686.302 751.629 684.971 753.792C683.64 755.922 682.608 758.335 681.876 761.031C681.177 763.727 680.828 766.772 680.828 770.166C680.828 772.596 681.061 774.792 681.526 776.756C682.026 778.719 682.725 780.45 683.623 781.947C684.555 783.478 685.72 784.809 687.118 785.941ZM699.966 778.104H689.333L689.682 776.406C690.581 776.406 691.346 776.273 691.978 776.007C692.611 775.707 693.276 775.142 693.975 774.31C694.707 773.444 695.623 772.146 696.721 770.416L713.893 745.106H716.789L720.782 771.864C721.082 773.494 721.514 774.659 722.08 775.358C722.679 776.057 723.661 776.406 725.026 776.406L724.726 778.104H710.649L711.048 776.406C711.747 776.406 712.379 776.356 712.945 776.256C713.511 776.123 713.96 775.857 714.293 775.458C714.659 775.025 714.842 774.376 714.842 773.511C714.842 773.112 714.825 772.729 714.792 772.363C714.792 771.963 714.775 771.614 714.742 771.314L714.193 766.772L714.093 765.673L712.496 751.296H712.346L702.861 765.673L702.262 766.772L698.768 772.063C698.435 772.529 698.135 773.028 697.869 773.561C697.603 774.093 697.47 774.592 697.47 775.058C697.47 775.591 697.669 775.957 698.069 776.157C698.501 776.323 699.267 776.406 700.365 776.406L699.966 778.104ZM714.792 767.321H701.264L702.562 765.124H714.592L714.792 767.321ZM723.899 787.239L723.15 785.891C725.579 784.393 727.743 782.763 729.64 780.999C731.537 779.235 733.151 777.288 734.482 775.158C735.846 772.995 736.878 770.566 737.577 767.87C738.276 765.174 738.625 762.129 738.625 758.735C738.625 756.305 738.392 754.109 737.926 752.145C737.46 750.182 736.762 748.451 735.83 746.953C734.898 745.423 733.75 744.091 732.385 742.96L733.334 741.712C735.297 742.81 737.011 744.241 738.475 746.005C739.973 747.769 741.121 749.799 741.92 752.095C742.719 754.358 743.118 756.821 743.118 759.483C743.118 762.778 742.635 765.856 741.67 768.719C740.739 771.547 739.407 774.127 737.677 776.456C735.946 778.786 733.916 780.849 731.587 782.646C729.257 784.477 726.694 786.008 723.899 787.239ZM779.112 765.224H759.344C759.144 765.224 759.061 765.024 759.094 764.625C759.161 764.192 759.277 763.76 759.443 763.327C759.643 762.861 759.859 762.595 760.092 762.528H779.761C779.994 762.528 780.094 762.728 780.06 763.128C780.027 763.527 779.911 763.943 779.711 764.376C779.545 764.808 779.345 765.091 779.112 765.224ZM779.112 772.263H759.344C759.144 772.263 759.061 772.063 759.094 771.664C759.161 771.231 759.277 770.799 759.443 770.366C759.643 769.9 759.859 769.634 760.092 769.567H779.761C779.994 769.567 780.094 769.767 780.06 770.166C780.027 770.566 779.911 770.982 779.711 771.414C779.545 771.847 779.345 772.13 779.112 772.263ZM802.363 778.104V743.259H824.328V746.904H806.557V758.635H822.831V762.279H806.557V778.104H802.363ZM844.376 746.654C843.212 746.654 842.396 746.421 841.93 745.955C841.464 745.456 841.232 744.84 841.232 744.108V743.309C841.232 742.577 841.464 741.978 841.93 741.512C842.396 741.013 843.212 740.763 844.376 740.763C845.541 740.763 846.357 741.013 846.823 741.512C847.288 741.978 847.521 742.577 847.521 743.309V744.108C847.521 744.84 847.288 745.456 846.823 745.955C846.357 746.421 845.541 746.654 844.376 746.654ZM833.095 774.709H842.38V755.739H833.095V752.345H846.373V774.709H855.059V778.104H833.095V774.709ZM862.628 778.104V752.345H866.621V756.538H866.821C867.087 755.906 867.42 755.307 867.819 754.741C868.219 754.142 868.701 753.626 869.267 753.193C869.866 752.761 870.565 752.411 871.364 752.145C872.162 751.879 873.094 751.746 874.159 751.746C876.855 751.746 879.018 752.611 880.649 754.342C882.28 756.039 883.095 758.452 883.095 761.58V778.104H879.101V762.279C879.101 759.916 878.585 758.169 877.554 757.037C876.522 755.872 875.008 755.29 873.011 755.29C872.212 755.29 871.43 755.39 870.665 755.59C869.899 755.789 869.217 756.089 868.618 756.488C868.019 756.888 867.536 757.403 867.17 758.036C866.804 758.668 866.621 759.4 866.621 760.232V778.104H862.628ZM897.902 762.578C897.902 760.149 898.168 757.819 898.7 755.59C899.266 753.327 900.015 751.23 900.947 749.3C901.912 747.369 903.027 745.639 904.291 744.108C905.556 742.544 906.887 741.229 908.285 740.164H912.329C910.864 741.263 909.483 742.544 908.185 744.008C906.921 745.439 905.789 747.02 904.791 748.751C903.825 750.448 903.06 752.295 902.494 754.292C901.929 756.255 901.646 758.302 901.646 760.432V764.725C901.646 766.855 901.929 768.918 902.494 770.915C903.06 772.879 903.825 774.726 904.791 776.456C905.789 778.153 906.921 779.718 908.185 781.149C909.483 782.613 910.864 783.894 912.329 784.992H908.285C906.887 783.961 905.556 782.663 904.291 781.099C903.027 779.535 901.912 777.787 900.947 775.857C900.015 773.927 899.266 771.847 898.7 769.617C898.168 767.354 897.902 765.008 897.902 762.578ZM942.311 778.104C940.747 778.104 939.632 777.704 938.966 776.905C938.301 776.107 937.885 775.108 937.718 773.91H937.469C936.903 775.408 935.988 776.589 934.723 777.455C933.492 778.287 931.828 778.703 929.731 778.703C927.035 778.703 924.889 778.004 923.291 776.606C921.694 775.208 920.895 773.295 920.895 770.865C920.895 768.469 921.761 766.622 923.491 765.324C925.255 764.026 928.084 763.377 931.977 763.377H937.469V760.831C937.469 758.934 936.936 757.52 935.871 756.588C934.806 755.623 933.292 755.14 931.329 755.14C929.598 755.14 928.184 755.49 927.085 756.189C925.987 756.854 925.105 757.769 924.44 758.934L921.744 756.937C922.077 756.272 922.526 755.623 923.092 754.991C923.657 754.358 924.356 753.809 925.188 753.343C926.02 752.844 926.969 752.461 928.034 752.195C929.099 751.896 930.28 751.746 931.578 751.746C934.607 751.746 937.003 752.511 938.767 754.042C940.564 755.573 941.462 757.703 941.462 760.432V774.609H945.057V778.104H942.311ZM930.43 775.358C931.462 775.358 932.393 775.241 933.225 775.008C934.091 774.742 934.84 774.409 935.472 774.01C936.104 773.577 936.587 773.078 936.92 772.512C937.286 771.913 937.469 771.281 937.469 770.616V766.372H931.977C929.581 766.372 927.834 766.705 926.736 767.371C925.638 768.036 925.089 769.001 925.089 770.266V771.314C925.089 772.646 925.554 773.661 926.486 774.36C927.451 775.025 928.766 775.358 930.43 775.358ZM967.251 762.578C967.251 765.008 966.969 767.354 966.403 769.617C965.87 771.847 965.122 773.927 964.156 775.857C963.225 777.787 962.126 779.535 960.862 781.099C959.597 782.663 958.266 783.961 956.868 784.992H952.825C954.256 783.894 955.62 782.613 956.918 781.149C958.216 779.718 959.347 778.153 960.313 776.456C961.311 774.726 962.093 772.879 962.659 770.915C963.225 768.918 963.507 766.855 963.507 764.725V760.432C963.507 758.302 963.225 756.255 962.659 754.292C962.093 752.295 961.311 750.448 960.313 748.751C959.347 747.02 958.216 745.439 956.918 744.008C955.62 742.544 954.256 741.263 952.825 740.164H956.868C958.266 741.229 959.597 742.544 960.862 744.108C962.126 745.639 963.225 747.369 964.156 749.3C965.122 751.23 965.87 753.327 966.403 755.59C966.969 757.819 967.251 760.149 967.251 762.578ZM1022.37 778.703C1020.58 778.703 1018.95 778.386 1017.48 777.754C1016.05 777.122 1014.82 776.223 1013.79 775.058C1012.79 773.86 1012.02 772.446 1011.49 770.815C1010.96 769.151 1010.69 767.288 1010.69 765.224C1010.69 763.194 1010.96 761.347 1011.49 759.683C1012.02 758.019 1012.79 756.605 1013.79 755.44C1014.82 754.242 1016.05 753.327 1017.48 752.694C1018.95 752.062 1020.58 751.746 1022.37 751.746C1024.17 751.746 1025.79 752.062 1027.22 752.694C1028.68 753.327 1029.91 754.242 1030.91 755.44C1031.94 756.605 1032.72 758.019 1033.26 759.683C1033.79 761.347 1034.06 763.194 1034.06 765.224C1034.06 767.288 1033.79 769.151 1033.26 770.815C1032.72 772.446 1031.94 773.86 1030.91 775.058C1029.91 776.223 1028.68 777.122 1027.22 777.754C1025.79 778.386 1024.17 778.703 1022.37 778.703ZM1022.37 775.258C1024.6 775.258 1026.4 774.592 1027.77 773.261C1029.13 771.93 1029.81 769.867 1029.81 767.071V763.377C1029.81 760.582 1029.13 758.518 1027.77 757.187C1026.4 755.856 1024.6 755.19 1022.37 755.19C1020.14 755.19 1018.35 755.856 1016.98 757.187C1015.62 758.518 1014.94 760.582 1014.94 763.377V767.071C1014.94 769.867 1015.62 771.93 1016.98 773.261C1018.35 774.592 1020.14 775.258 1022.37 775.258ZM1041.17 774.709H1048.71V755.739H1041.17V752.345H1052.71V758.834H1052.96C1053.49 756.804 1054.49 755.224 1055.95 754.092C1057.45 752.927 1059.35 752.345 1061.64 752.345H1065.24V756.338H1060.39C1058.1 756.338 1056.23 757.004 1054.8 758.335C1053.4 759.666 1052.71 761.414 1052.71 763.577V774.709H1062.69V778.104H1041.17V774.709ZM1101.69 778.104V743.259H1123.65V746.904H1105.88V758.635H1122.16V762.279H1105.88V778.104H1101.69ZM1143.7 746.654C1142.54 746.654 1141.72 746.421 1141.26 745.955C1140.79 745.456 1140.56 744.84 1140.56 744.108V743.309C1140.56 742.577 1140.79 741.978 1141.26 741.512C1141.72 741.013 1142.54 740.763 1143.7 740.763C1144.87 740.763 1145.68 741.013 1146.15 741.512C1146.61 741.978 1146.85 742.577 1146.85 743.309V744.108C1146.85 744.84 1146.61 745.456 1146.15 745.955C1145.68 746.421 1144.87 746.654 1143.7 746.654ZM1132.42 774.709H1141.7V755.739H1132.42V752.345H1145.7V774.709H1154.38V778.104H1132.42V774.709ZM1161.95 778.104V752.345H1165.95V756.538H1166.15C1166.41 755.906 1166.75 755.307 1167.14 754.741C1167.54 754.142 1168.03 753.626 1168.59 753.193C1169.19 752.761 1169.89 752.411 1170.69 752.145C1171.49 751.879 1172.42 751.746 1173.48 751.746C1176.18 751.746 1178.34 752.611 1179.97 754.342C1181.6 756.039 1182.42 758.452 1182.42 761.58V778.104H1178.43V762.279C1178.43 759.916 1177.91 758.169 1176.88 757.037C1175.85 755.872 1174.33 755.29 1172.34 755.29C1171.54 755.29 1170.76 755.39 1169.99 755.59C1169.22 755.789 1168.54 756.089 1167.94 756.488C1167.34 756.888 1166.86 757.403 1166.5 758.036C1166.13 758.668 1165.95 759.4 1165.95 760.232V778.104H1161.95ZM1197.23 762.578C1197.23 760.149 1197.49 757.819 1198.03 755.59C1198.59 753.327 1199.34 751.23 1200.27 749.3C1201.24 747.369 1202.35 745.639 1203.62 744.108C1204.88 742.544 1206.21 741.229 1207.61 740.164H1211.65C1210.19 741.263 1208.81 742.544 1207.51 744.008C1206.25 745.439 1205.11 747.02 1204.12 748.751C1203.15 750.448 1202.39 752.295 1201.82 754.292C1201.25 756.255 1200.97 758.302 1200.97 760.432V764.725C1200.97 766.855 1201.25 768.918 1201.82 770.915C1202.39 772.879 1203.15 774.726 1204.12 776.456C1205.11 778.153 1206.25 779.718 1207.51 781.149C1208.81 782.613 1210.19 783.894 1211.65 784.992H1207.61C1206.21 783.961 1204.88 782.663 1203.62 781.099C1202.35 779.535 1201.24 777.787 1200.27 775.857C1199.34 773.927 1198.59 771.847 1198.03 769.617C1197.49 767.354 1197.23 765.008 1197.23 762.578ZM1221.67 741.163H1225.66V756.538H1225.86C1227.53 753.343 1230.17 751.746 1233.8 751.746C1236.96 751.746 1239.42 752.927 1241.19 755.29C1242.98 757.653 1243.88 760.964 1243.88 765.224C1243.88 769.484 1242.98 772.795 1241.19 775.158C1239.42 777.521 1236.96 778.703 1233.8 778.703C1230.17 778.703 1227.53 777.105 1225.86 773.91H1225.66V778.104H1221.67V741.163ZM1232.25 775.158C1234.58 775.158 1236.38 774.459 1237.64 773.062C1238.94 771.631 1239.59 769.75 1239.59 767.421V763.028C1239.59 760.698 1238.94 758.834 1237.64 757.437C1236.38 756.006 1234.58 755.29 1232.25 755.29C1231.35 755.29 1230.5 755.407 1229.71 755.64C1228.91 755.872 1228.21 756.222 1227.61 756.688C1227.01 757.12 1226.53 757.67 1226.16 758.335C1225.83 758.968 1225.66 759.716 1225.66 760.582V769.867C1225.66 770.732 1225.83 771.497 1226.16 772.163C1226.53 772.795 1227.01 773.344 1227.61 773.81C1228.21 774.243 1228.91 774.576 1229.71 774.809C1230.5 775.042 1231.35 775.158 1232.25 775.158ZM1266.58 762.578C1266.58 765.008 1266.29 767.354 1265.73 769.617C1265.2 771.847 1264.45 773.927 1263.48 775.857C1262.55 777.787 1261.45 779.535 1260.19 781.099C1258.92 782.663 1257.59 783.961 1256.19 784.992H1252.15C1253.58 783.894 1254.95 782.613 1256.24 781.149C1257.54 779.718 1258.67 778.153 1259.64 776.456C1260.64 774.726 1261.42 772.879 1261.98 770.915C1262.55 768.918 1262.83 766.855 1262.83 764.725V760.432C1262.83 758.302 1262.55 756.255 1261.98 754.292C1261.42 752.295 1260.64 750.448 1259.64 748.751C1258.67 747.02 1257.54 745.439 1256.24 744.008C1254.95 742.544 1253.58 741.263 1252.15 740.164H1256.19C1257.59 741.229 1258.92 742.544 1260.19 744.108C1261.45 745.639 1262.55 747.369 1263.48 749.3C1264.45 751.23 1265.2 753.327 1265.73 755.59C1266.29 757.819 1266.58 760.149 1266.58 762.578Z" fill="black"/>
<g id="Group 78">
<rect id="Rectangle 22" x="782.641" y="561.009" width="60.8178" height="9.40481" rx="4.70241" transform="rotate(-45 782.641 561.009)" fill="#DC191C"/>
<rect id="Rectangle 23" x="789.293" y="518.004" width="60.8178" height="9.40481" rx="4.70241" transform="rotate(45 789.293 518.004)" fill="#DC191C"/>
</g>
<g id="Group 79">
<rect id="Rectangle 22_2" x="1134.94" y="558.409" width="60.8178" height="9.40481" rx="4.70241" transform="rotate(-45 1134.94 558.409)" fill="#DC191C"/>
<rect id="Rectangle 23_2" x="1141.59" y="515.403" width="60.8178" height="9.40481" rx="4.70241" transform="rotate(45 1141.59 515.403)" fill="#DC191C"/>
</g>
<path id="Example:" d="M200.925 283.104H174.268V281.606C175.632 281.606 176.647 281.523 177.313 281.356C178.012 281.157 178.478 280.741 178.711 280.108C178.977 279.476 179.11 278.511 179.11 277.213V256.396C179.11 255.132 178.977 254.167 178.711 253.501C178.478 252.835 178.012 252.386 177.313 252.153C176.647 251.92 175.632 251.804 174.268 251.804V250.306H200.476L200.775 258.493H199.178C198.945 256.829 198.579 255.581 198.08 254.749C197.614 253.884 196.832 253.301 195.733 253.002C194.668 252.702 193.104 252.552 191.041 252.552H183.703V265.232H189.543C191.074 265.232 192.239 265.099 193.038 264.833C193.836 264.567 194.386 264.067 194.685 263.335C194.985 262.603 195.134 261.571 195.134 260.24H196.732V271.822H195.134C195.134 270.457 194.985 269.442 194.685 268.776C194.386 268.111 193.836 267.678 193.038 267.479C192.239 267.279 191.074 267.179 189.543 267.179H183.703V280.907H190.142C192.073 280.907 193.62 280.824 194.785 280.657C195.983 280.458 196.915 280.108 197.58 279.609C198.279 279.11 198.845 278.394 199.278 277.463C199.744 276.531 200.226 275.316 200.725 273.818H202.323L200.925 283.104ZM227.781 283.104H217.348V281.656C218.213 281.656 218.812 281.589 219.145 281.456C219.511 281.29 219.694 280.99 219.694 280.558C219.694 280.225 219.577 279.875 219.344 279.509L216.199 274.667L214.951 272.471L214.153 271.772L208.662 263.934C208.096 263.102 207.613 262.47 207.214 262.037C206.814 261.605 206.398 261.322 205.966 261.189C205.533 261.022 204.967 260.939 204.269 260.939V259.491H215.001V260.889C213.404 260.889 212.605 261.272 212.605 262.037C212.605 262.304 212.705 262.62 212.905 262.986C213.104 263.352 213.387 263.834 213.753 264.433C214.153 264.999 214.635 265.748 215.201 266.68L216.599 269.276L217.398 269.725L223.787 278.76C224.486 279.759 225.085 280.491 225.584 280.957C226.117 281.423 226.849 281.656 227.781 281.656V283.104ZM211.956 283.104H203.62V281.656C204.485 281.656 205.2 281.489 205.766 281.157C206.332 280.791 207.031 280.125 207.863 279.16L214.153 270.973L215.7 272.92H215.001L210.908 278.81C210.675 279.21 210.409 279.609 210.109 280.008C209.843 280.408 209.71 280.707 209.71 280.907C209.71 281.173 209.876 281.373 210.209 281.506C210.542 281.606 211.124 281.656 211.956 281.656V283.104ZM222.939 263.285L217.398 270.424L215.95 268.876H216.599L218.945 265.482C219.611 264.55 220.077 263.851 220.343 263.385C220.609 262.919 220.742 262.487 220.742 262.087C220.742 261.721 220.592 261.438 220.293 261.239C220.027 261.006 219.494 260.889 218.695 260.889V259.491H226.932V260.939C226.1 260.939 225.368 261.155 224.736 261.588C224.103 261.987 223.504 262.553 222.939 263.285ZM235.444 283.453C233.514 283.453 232.033 282.92 231.002 281.856C230.003 280.791 229.504 279.459 229.504 277.862C229.504 276.531 229.803 275.416 230.402 274.517C231.035 273.585 231.85 272.803 232.849 272.171C233.88 271.539 234.978 271.006 236.143 270.574C237.341 270.141 238.506 269.775 239.638 269.475C240.769 269.176 241.768 268.893 242.633 268.627V266.43C242.633 264.267 242.25 262.736 241.485 261.838C240.753 260.906 239.638 260.44 238.14 260.44C236.709 260.44 235.794 260.739 235.394 261.338C234.995 261.937 234.795 262.986 234.795 264.483C234.795 265.249 234.596 265.831 234.196 266.231C233.83 266.597 233.298 266.78 232.599 266.78C232.1 266.78 231.617 266.597 231.151 266.231C230.719 265.831 230.502 265.216 230.502 264.384C230.502 263.452 230.852 262.57 231.551 261.738C232.283 260.906 233.298 260.224 234.596 259.691C235.927 259.159 237.491 258.892 239.288 258.892C242.017 258.892 243.947 259.525 245.079 260.789C246.21 262.054 246.776 263.984 246.776 266.58V277.912C246.776 278.944 246.893 279.609 247.126 279.909C247.359 280.208 247.741 280.358 248.274 280.358C248.74 280.358 249.156 280.241 249.522 280.008C249.921 279.776 250.287 279.476 250.62 279.11L251.369 279.909C250.537 281.107 249.738 281.989 248.973 282.554C248.241 283.087 247.242 283.353 245.978 283.353C244.813 283.353 244.047 283.02 243.681 282.355C243.348 281.689 243.099 280.741 242.932 279.509L242.633 278.91V270.274C241.135 270.64 239.721 271.073 238.39 271.572C237.058 272.071 235.977 272.72 235.145 273.519C234.313 274.318 233.897 275.366 233.897 276.664C233.897 277.895 234.23 278.877 234.895 279.609C235.561 280.341 236.426 280.707 237.491 280.707C238.356 280.707 239.255 280.491 240.187 280.058C241.152 279.626 242.084 279.01 242.982 278.211L243.382 280.008H242.783C242.017 280.674 241.268 281.273 240.536 281.806C239.837 282.338 239.072 282.754 238.24 283.054C237.441 283.32 236.509 283.453 235.444 283.453ZM279.048 283.104H267.217V281.656C268.415 281.656 269.28 281.539 269.813 281.306C270.345 281.073 270.678 280.641 270.811 280.008C270.978 279.376 271.061 278.478 271.061 277.313V267.429C271.061 265.299 270.678 263.884 269.913 263.185C269.18 262.453 268.232 262.087 267.067 262.087C266.135 262.087 265.253 262.287 264.421 262.686C263.623 263.086 262.891 263.552 262.225 264.084C261.559 264.616 260.994 265.116 260.528 265.582L260.128 263.086H260.877C262.242 261.921 263.556 260.939 264.821 260.14C266.085 259.308 267.566 258.892 269.264 258.892C270.761 258.892 271.959 259.325 272.858 260.19C273.79 261.056 274.489 262.137 274.955 263.435C275.021 263.535 275.071 263.651 275.104 263.784C275.138 263.884 275.171 264.001 275.204 264.134V277.313C275.204 278.444 275.271 279.326 275.404 279.959C275.57 280.591 275.92 281.04 276.452 281.306C276.985 281.539 277.85 281.656 279.048 281.656V283.104ZM264.571 283.104H253.189V281.656C254.254 281.656 255.02 281.573 255.486 281.406C255.985 281.207 256.301 280.857 256.434 280.358C256.601 279.825 256.684 279.06 256.684 278.062V264.084C256.684 263.185 256.501 262.586 256.135 262.287C255.802 261.987 255.286 261.838 254.587 261.838C254.221 261.838 253.905 261.854 253.639 261.888C253.372 261.921 253.239 261.937 253.239 261.937V260.49L259.479 259.042H260.677V263.635L260.827 264.733V278.261C260.827 279.193 260.927 279.909 261.127 280.408C261.326 280.874 261.692 281.207 262.225 281.406C262.757 281.573 263.539 281.656 264.571 281.656V283.104ZM292.976 283.104H281.694V281.656C282.825 281.656 283.641 281.506 284.14 281.207C284.639 280.907 284.939 280.441 285.038 279.809C285.171 279.143 285.238 278.311 285.238 277.313V267.728C285.238 266.197 285.038 265.032 284.639 264.234C284.273 263.435 283.757 262.886 283.091 262.586C282.459 262.254 281.744 262.087 280.945 262.087C279.847 262.087 278.765 262.487 277.7 263.285C276.635 264.051 275.67 264.8 274.805 265.532L274.256 263.036H275.004C276.369 261.671 277.7 260.64 278.998 259.941C280.296 259.242 281.611 258.892 282.942 258.892C284.905 258.892 286.469 259.508 287.634 260.739C288.799 261.971 289.381 264.101 289.381 267.129V277.313C289.381 278.344 289.431 279.193 289.531 279.859C289.664 280.491 289.98 280.957 290.48 281.256C291.012 281.523 291.844 281.656 292.976 281.656V283.104ZM307.83 294.086H295.2V292.688C296.764 292.688 297.763 292.422 298.195 291.889C298.628 291.39 298.844 290.442 298.844 289.044V264.334C298.844 263.368 298.728 262.703 298.495 262.337C298.295 261.971 297.779 261.788 296.947 261.788C296.615 261.788 296.265 261.804 295.899 261.838C295.533 261.871 295.35 261.888 295.35 261.888V260.44L301.64 259.042H302.888V263.235H303.038C304.236 261.838 305.45 260.773 306.682 260.04C307.946 259.275 309.311 258.892 310.775 258.892C312.439 258.892 313.887 259.375 315.118 260.34C316.383 261.272 317.365 262.586 318.064 264.284C318.796 265.948 319.162 267.878 319.162 270.074C319.162 272.903 318.663 275.333 317.664 277.363C316.699 279.36 315.385 280.907 313.721 282.005C312.057 283.07 310.226 283.603 308.229 283.603C307.297 283.603 306.399 283.486 305.534 283.253C304.702 283.054 303.92 282.704 303.187 282.205H302.988V288.744C302.988 289.809 303.121 290.625 303.387 291.191C303.653 291.756 304.136 292.139 304.835 292.339C305.534 292.538 306.532 292.638 307.83 292.638V294.086ZM308.479 281.656C310.243 281.656 311.707 280.824 312.872 279.16C314.037 277.496 314.619 274.933 314.619 271.472C314.619 268.311 314.103 265.998 313.072 264.533C312.04 263.036 310.592 262.287 308.729 262.287C307.397 262.287 306.216 262.636 305.184 263.335C304.186 264.034 303.454 264.7 302.988 265.332V278.361C303.321 278.694 303.737 279.127 304.236 279.659C304.735 280.192 305.334 280.657 306.033 281.057C306.732 281.456 307.547 281.656 308.479 281.656ZM333.894 283.104H322.412V281.656C323.51 281.656 324.309 281.556 324.808 281.356C325.307 281.123 325.607 280.757 325.707 280.258C325.84 279.726 325.906 278.993 325.906 278.062V253.002C325.906 251.97 325.707 251.354 325.307 251.155C324.941 250.955 324.442 250.855 323.81 250.855C323.377 250.855 322.994 250.872 322.662 250.905C322.362 250.938 322.212 250.955 322.212 250.955V249.607L328.802 247.86H330.05V278.062C330.05 279.027 330.116 279.776 330.25 280.308C330.416 280.807 330.765 281.157 331.298 281.356C331.83 281.556 332.696 281.656 333.894 281.656V283.104ZM347.382 283.603C345.385 283.603 343.572 283.137 341.941 282.205C340.343 281.24 339.079 279.842 338.147 278.012C337.215 276.148 336.749 273.885 336.749 271.223C336.749 268.427 337.215 266.131 338.147 264.334C339.112 262.503 340.393 261.139 341.991 260.24C343.588 259.342 345.352 258.892 347.282 258.892C350.011 258.892 352.208 259.841 353.872 261.738C355.536 263.635 356.434 266.33 356.567 269.825H340.343L340.294 267.978H351.875C351.842 266.746 351.625 265.598 351.226 264.533C350.827 263.435 350.244 262.553 349.479 261.888C348.713 261.222 347.732 260.889 346.534 260.889C344.603 260.889 343.156 261.655 342.191 263.185C341.225 264.683 340.743 266.813 340.743 269.575C340.743 271.872 341.109 273.785 341.841 275.316C342.573 276.847 343.538 277.995 344.736 278.76C345.935 279.493 347.216 279.859 348.58 279.859C349.945 279.859 351.043 279.676 351.875 279.31C352.74 278.944 353.472 278.478 354.071 277.912C354.671 277.313 355.236 276.664 355.769 275.965L356.717 276.664C356.285 277.596 355.785 278.494 355.22 279.36C354.654 280.192 354.005 280.924 353.273 281.556C352.574 282.188 351.742 282.688 350.777 283.054C349.812 283.42 348.68 283.603 347.382 283.603ZM364.748 283.503C363.749 283.503 363.001 283.22 362.501 282.654C362.035 282.088 361.802 281.39 361.802 280.558C361.802 279.692 362.069 278.96 362.601 278.361C363.134 277.729 363.866 277.413 364.798 277.413C365.763 277.413 366.512 277.729 367.044 278.361C367.577 278.993 367.843 279.742 367.843 280.608C367.843 281.373 367.577 282.055 367.044 282.654C366.512 283.22 365.746 283.503 364.748 283.503ZM364.748 265.332C363.749 265.332 363.001 265.049 362.501 264.483C362.035 263.918 361.802 263.219 361.802 262.387C361.802 261.521 362.069 260.789 362.601 260.19C363.134 259.558 363.866 259.242 364.798 259.242C365.763 259.242 366.512 259.558 367.044 260.19C367.577 260.823 367.843 261.571 367.843 262.437C367.843 263.202 367.577 263.884 367.044 264.483C366.512 265.049 365.746 265.332 364.748 265.332Z" fill="black"/>
</g>
</g>
</svg>
