<svg width="1921" height="1081" viewBox="0 0 1921 1081" fill="none" xmlns="http://www.w3.org/2000/svg">
<g id="From for to while">
<rect width="1920" height="1080" transform="translate(0.279785 0.280029)" fill="white"/>
<g id="Group 3">
<g id="Group 1">
<g id="for i in 1..n:">
<path d="M146.448 363.987H155.966V344.374H145.871V339.298H155.966V333.933C155.966 331.703 156.581 329.896 157.812 328.511C159.042 327.088 160.965 326.377 163.58 326.377H173.617V331.453H162.254V339.298H173.617V344.374H162.254V363.987H172.291V369.063H146.448V363.987ZM193.842 369.755C191.65 369.755 189.669 369.39 187.9 368.659C186.17 367.929 184.689 366.89 183.459 365.544C182.267 364.198 181.344 362.564 180.69 360.641C180.036 358.718 179.709 356.565 179.709 354.181C179.709 351.796 180.036 349.643 180.69 347.72C181.344 345.797 182.267 344.163 183.459 342.817C184.689 341.471 186.17 340.432 187.9 339.702C189.669 338.971 191.65 338.606 193.842 338.606C196.034 338.606 197.995 338.971 199.726 339.702C201.495 340.432 202.975 341.471 204.167 342.817C205.398 344.163 206.34 345.797 206.994 347.72C207.648 349.643 207.974 351.796 207.974 354.181C207.974 356.565 207.648 358.718 206.994 360.641C206.34 362.564 205.398 364.198 204.167 365.544C202.975 366.89 201.495 367.929 199.726 368.659C197.995 369.39 196.034 369.755 193.842 369.755ZM193.842 364.794C196.149 364.794 197.976 364.102 199.322 362.718C200.706 361.295 201.398 359.199 201.398 356.43V351.931C201.398 349.162 200.706 347.085 199.322 345.701C197.976 344.278 196.149 343.567 193.842 343.567C191.534 343.567 189.689 344.278 188.304 345.701C186.958 347.085 186.285 349.162 186.285 351.931V356.43C186.285 359.199 186.958 361.295 188.304 362.718C189.689 364.102 191.534 364.794 193.842 364.794ZM215.508 363.987H223.411V344.374H215.508V339.298H229.699V347.201H230.045C230.314 346.162 230.699 345.163 231.198 344.201C231.698 343.24 232.333 342.413 233.102 341.721C233.871 340.99 234.813 340.413 235.929 339.99C237.044 339.529 238.351 339.298 239.851 339.298H243.428V345.297H237.544C235.236 345.297 233.352 345.989 231.891 347.374C230.429 348.72 229.699 350.546 229.699 352.854V363.987H240.486V369.063H215.508V363.987Z" fill="#3867D6"/>
<path d="M299.451 332.722C298.105 332.722 297.163 332.453 296.625 331.914C296.086 331.338 295.817 330.626 295.817 329.78V328.857C295.817 328.011 296.086 327.319 296.625 326.781C297.163 326.204 298.105 325.915 299.451 325.915C300.797 325.915 301.739 326.204 302.278 326.781C302.816 327.319 303.085 328.011 303.085 328.857V329.78C303.085 330.626 302.816 331.338 302.278 331.914C301.739 332.453 300.797 332.722 299.451 332.722ZM286.415 365.14H297.144V343.221H286.415V339.298H301.759V365.14H311.796V369.063H286.415V365.14ZM368.627 332.722C367.281 332.722 366.339 332.453 365.801 331.914C365.262 331.338 364.993 330.626 364.993 329.78V328.857C364.993 328.011 365.262 327.319 365.801 326.781C366.339 326.204 367.281 325.915 368.627 325.915C369.973 325.915 370.915 326.204 371.454 326.781C371.992 327.319 372.261 328.011 372.261 328.857V329.78C372.261 330.626 371.992 331.338 371.454 331.914C370.915 332.453 369.973 332.722 368.627 332.722ZM355.59 365.14H366.32V343.221H355.59V339.298H370.934V365.14H380.971V369.063H355.59V365.14ZM389.717 369.063V339.298H394.332V344.143H394.562C394.87 343.413 395.255 342.721 395.716 342.067C396.177 341.375 396.735 340.779 397.389 340.279C398.081 339.779 398.889 339.375 399.812 339.067C400.734 338.76 401.811 338.606 403.042 338.606C406.157 338.606 408.656 339.606 410.541 341.605C412.425 343.567 413.367 346.355 413.367 349.97V369.063H408.753V350.777C408.753 348.047 408.156 346.028 406.964 344.72C405.772 343.374 404.022 342.701 401.715 342.701C400.792 342.701 399.888 342.817 399.004 343.048C398.119 343.278 397.331 343.624 396.639 344.086C395.947 344.547 395.389 345.143 394.966 345.874C394.543 346.605 394.332 347.451 394.332 348.412V369.063H389.717ZM458.143 369.063V364.852H469.679V332.376H469.276L459.123 341.836L456.297 338.779L466.968 328.8H474.525V364.852H485.139V369.063H458.143ZM505.133 369.582C503.556 369.582 502.441 369.255 501.787 368.602C501.172 367.948 500.864 367.121 500.864 366.121V365.083C500.864 364.083 501.172 363.256 501.787 362.602C502.441 361.949 503.556 361.622 505.133 361.622C506.709 361.622 507.805 361.949 508.421 362.602C509.074 363.256 509.401 364.083 509.401 365.083V366.121C509.401 367.121 509.074 367.948 508.421 368.602C507.805 369.255 506.709 369.582 505.133 369.582ZM539.72 369.582C538.144 369.582 537.029 369.255 536.375 368.602C535.76 367.948 535.452 367.121 535.452 366.121V365.083C535.452 364.083 535.76 363.256 536.375 362.602C537.029 361.949 538.144 361.622 539.72 361.622C541.297 361.622 542.393 361.949 543.008 362.602C543.662 363.256 543.989 364.083 543.989 365.083V366.121C543.989 367.121 543.662 367.948 543.008 368.602C542.393 369.255 541.297 369.582 539.72 369.582ZM562.656 369.063V339.298H567.271V344.143H567.502C567.809 343.413 568.194 342.721 568.655 342.067C569.117 341.375 569.674 340.779 570.328 340.279C571.02 339.779 571.828 339.375 572.751 339.067C573.674 338.76 574.751 338.606 575.981 338.606C579.096 338.606 581.596 339.606 583.48 341.605C585.364 343.567 586.307 346.355 586.307 349.97V369.063H581.692V350.777C581.692 348.047 581.096 346.028 579.904 344.72C578.712 343.374 576.962 342.701 574.654 342.701C573.732 342.701 572.828 342.817 571.943 343.048C571.059 343.278 570.27 343.624 569.578 344.086C568.886 344.547 568.328 345.143 567.905 345.874C567.482 346.605 567.271 347.451 567.271 348.412V369.063H562.656ZM608.896 369.582C607.32 369.582 606.204 369.255 605.551 368.602C604.935 367.948 604.628 367.121 604.628 366.121V365.083C604.628 364.083 604.935 363.256 605.551 362.602C606.204 361.949 607.32 361.622 608.896 361.622C610.473 361.622 611.569 361.949 612.184 362.602C612.838 363.256 613.165 364.083 613.165 365.083V366.121C613.165 367.121 612.838 367.948 612.184 368.602C611.569 369.255 610.473 369.582 608.896 369.582ZM608.896 346.739C607.32 346.739 606.204 346.412 605.551 345.759C604.935 345.105 604.628 344.278 604.628 343.278V342.24C604.628 341.24 604.935 340.413 605.551 339.76C606.204 339.106 607.32 338.779 608.896 338.779C610.473 338.779 611.569 339.106 612.184 339.76C612.838 340.413 613.165 341.24 613.165 342.24V343.278C613.165 344.278 612.838 345.105 612.184 345.759C611.569 346.412 610.473 346.739 608.896 346.739Z" fill="#595959"/>
</g>
<path id="some code" d="M309.208 448.691C306.324 448.691 303.805 448.21 301.651 447.249C299.536 446.287 297.825 444.903 296.517 443.095L299.863 440.442C301.017 441.903 302.363 443.018 303.901 443.788C305.439 444.518 307.343 444.884 309.612 444.884C312.265 444.884 314.342 444.384 315.842 443.384C317.341 442.384 318.091 440.98 318.091 439.173C318.091 437.788 317.668 436.846 316.822 436.346C316.015 435.808 314.995 435.443 313.765 435.25L309.439 434.616C308.362 434.462 307.285 434.251 306.208 433.981C305.17 433.674 304.228 433.231 303.382 432.655C302.574 432.078 301.901 431.347 301.363 430.463C300.863 429.54 300.613 428.386 300.613 427.002C300.613 425.425 300.94 424.06 301.594 422.906C302.286 421.714 303.209 420.733 304.362 419.964C305.516 419.157 306.862 418.56 308.4 418.176C309.939 417.753 311.592 417.541 313.361 417.541C315.976 417.541 318.207 417.945 320.052 418.753C321.898 419.56 323.379 420.676 324.494 422.098L321.321 424.867C321.052 424.483 320.687 424.079 320.225 423.656C319.802 423.233 319.245 422.848 318.553 422.502C317.899 422.156 317.091 421.887 316.13 421.695C315.207 421.464 314.111 421.349 312.842 421.349C310.265 421.349 308.304 421.829 306.958 422.791C305.651 423.752 304.997 425.04 304.997 426.655C304.997 427.386 305.112 427.982 305.343 428.444C305.612 428.905 305.958 429.29 306.381 429.597C306.804 429.867 307.285 430.078 307.823 430.232C308.4 430.347 308.996 430.463 309.612 430.578L313.823 431.27C314.784 431.424 315.765 431.636 316.764 431.905C317.803 432.135 318.745 432.52 319.591 433.058C320.437 433.558 321.129 434.27 321.668 435.193C322.244 436.077 322.533 437.25 322.533 438.711C322.533 440.25 322.206 441.634 321.552 442.865C320.937 444.095 320.033 445.153 318.841 446.037C317.687 446.883 316.284 447.537 314.63 447.999C313.015 448.46 311.208 448.691 309.208 448.691ZM343.623 448.691C341.7 448.691 340.008 448.383 338.546 447.768C337.124 447.153 335.931 446.306 334.97 445.23C334.009 444.114 333.278 442.788 332.778 441.25C332.278 439.673 332.028 437.962 332.028 436.116C332.028 433.27 332.432 430.713 333.24 428.444C334.047 426.136 335.143 424.175 336.528 422.56C337.95 420.945 339.604 419.714 341.488 418.868C343.373 417.984 345.411 417.541 347.603 417.541C349.526 417.541 351.218 417.849 352.679 418.464C354.14 419.08 355.352 419.945 356.313 421.06C357.313 422.137 358.044 423.464 358.505 425.04C359.005 426.579 359.255 428.271 359.255 430.116C359.255 432.962 358.851 435.539 358.044 437.846C357.236 440.115 356.121 442.057 354.698 443.672C353.314 445.287 351.66 446.537 349.737 447.422C347.853 448.268 345.815 448.691 343.623 448.691ZM343.853 444.768C346.661 444.768 348.891 443.922 350.545 442.23C352.237 440.5 353.333 438.154 353.833 435.193L354.41 431.732C354.525 431.039 354.602 430.463 354.64 430.001C354.679 429.54 354.698 429.136 354.698 428.79C354.698 426.252 354.044 424.406 352.737 423.252C351.429 422.06 349.66 421.464 347.43 421.464C344.623 421.464 342.373 422.329 340.681 424.06C339.027 425.752 337.95 428.078 337.45 431.039L336.874 434.5C336.758 435.193 336.681 435.77 336.643 436.231C336.604 436.692 336.585 437.096 336.585 437.442C336.585 439.98 337.239 441.846 338.546 443.038C339.854 444.191 341.623 444.768 343.853 444.768ZM363.616 447.999L368.577 418.234H372.731L371.981 422.906H372.211C372.904 421.406 373.73 420.137 374.692 419.099C375.692 418.061 377.018 417.541 378.672 417.541C380.364 417.541 381.575 418.08 382.306 419.157C383.037 420.233 383.344 421.579 383.229 423.194H383.402C384.171 421.464 385.133 420.099 386.286 419.099C387.44 418.061 388.882 417.541 390.613 417.541C392.266 417.541 393.516 418.041 394.362 419.041C395.247 420.003 395.689 421.406 395.689 423.252C395.689 423.79 395.65 424.425 395.573 425.156C395.497 425.886 395.4 426.598 395.285 427.29L391.824 447.999H387.671L391.016 428.04C391.132 427.348 391.228 426.694 391.305 426.079C391.382 425.425 391.42 424.886 391.42 424.463C391.42 422.31 390.574 421.233 388.882 421.233C388.074 421.233 387.363 421.464 386.748 421.925C386.171 422.348 385.633 422.887 385.133 423.541C384.594 424.31 384.152 425.156 383.806 426.079C383.46 426.963 383.21 427.848 383.056 428.732L379.826 447.999H375.672L379.018 428.04C379.249 426.655 379.364 425.521 379.364 424.637C379.364 423.406 379.153 422.541 378.73 422.041C378.345 421.502 377.749 421.233 376.941 421.233C376.134 421.233 375.403 421.464 374.749 421.925C374.096 422.348 373.538 422.887 373.077 423.541C372.538 424.31 372.096 425.156 371.75 426.079C371.404 426.963 371.154 427.848 371 428.732L367.77 447.999H363.616ZM413.491 448.691C409.722 448.691 406.818 447.652 404.78 445.576C402.742 443.461 401.723 440.25 401.723 435.943C401.723 433.251 402.127 430.789 402.934 428.559C403.742 426.29 404.857 424.348 406.28 422.733C407.741 421.079 409.472 419.81 411.472 418.926C413.51 418.003 415.721 417.541 418.105 417.541C419.567 417.541 420.913 417.714 422.143 418.061C423.374 418.407 424.431 418.926 425.316 419.618C426.239 420.272 426.95 421.099 427.45 422.098C427.95 423.098 428.2 424.252 428.2 425.559C428.2 426.598 427.95 427.675 427.45 428.79C426.989 429.905 425.989 430.943 424.451 431.905C422.951 432.866 420.759 433.674 417.875 434.327C415.029 434.981 411.241 435.366 406.511 435.481C406.472 435.789 406.453 436.077 406.453 436.346C406.453 436.577 406.453 436.731 406.453 436.808C406.453 437.846 406.549 438.846 406.742 439.807C406.934 440.769 407.299 441.634 407.838 442.403C408.376 443.134 409.126 443.73 410.087 444.191C411.049 444.614 412.318 444.826 413.894 444.826C414.971 444.826 415.933 444.711 416.779 444.48C417.663 444.211 418.49 443.826 419.259 443.326C420.067 442.788 420.836 442.115 421.566 441.307C422.335 440.461 423.143 439.442 423.989 438.25L427.162 440.211C425.47 442.98 423.547 445.095 421.393 446.556C419.278 447.979 416.644 448.691 413.491 448.691ZM417.702 421.291C414.702 421.291 412.26 422.195 410.376 424.002C408.491 425.809 407.338 428.405 406.915 431.789L406.857 432.366C410.472 432.251 413.375 431.982 415.567 431.559C417.798 431.097 419.49 430.559 420.643 429.943C421.836 429.328 422.624 428.655 423.008 427.925C423.393 427.194 423.585 426.463 423.585 425.733C423.585 425.117 423.47 424.54 423.239 424.002C423.047 423.464 422.72 423.002 422.259 422.618C421.797 422.195 421.182 421.868 420.413 421.637C419.682 421.406 418.778 421.291 417.702 421.291ZM482.263 448.691C480.417 448.691 478.782 448.383 477.359 447.768C475.975 447.153 474.802 446.306 473.841 445.23C472.918 444.114 472.206 442.788 471.706 441.25C471.245 439.673 471.014 437.962 471.014 436.116C471.014 433.27 471.418 430.713 472.226 428.444C473.033 426.136 474.129 424.175 475.514 422.56C476.898 420.945 478.513 419.714 480.359 418.868C482.243 417.984 484.243 417.541 486.358 417.541C487.935 417.541 489.3 417.734 490.454 418.118C491.646 418.503 492.665 419.022 493.511 419.676C494.357 420.291 495.03 421.041 495.53 421.925C496.068 422.81 496.472 423.733 496.741 424.694L492.876 426.194C492.3 424.348 491.434 423.098 490.281 422.445C489.165 421.791 487.685 421.464 485.839 421.464C483.301 421.464 481.224 422.291 479.609 423.944C478.032 425.598 476.975 427.982 476.436 431.097L475.86 434.558C475.744 435.25 475.667 435.789 475.629 436.173C475.59 436.558 475.571 436.942 475.571 437.327C475.571 439.865 476.225 441.749 477.532 442.98C478.878 444.172 480.647 444.768 482.839 444.768C483.493 444.768 484.147 444.691 484.801 444.537C485.493 444.384 486.224 444.057 486.993 443.557C487.8 443.057 488.665 442.326 489.588 441.365C490.511 440.403 491.569 439.115 492.761 437.5L495.991 439.404C495.068 440.903 494.126 442.249 493.165 443.441C492.203 444.595 491.165 445.557 490.05 446.326C488.973 447.095 487.781 447.672 486.473 448.056C485.204 448.479 483.801 448.691 482.263 448.691ZM516.562 448.691C514.639 448.691 512.947 448.383 511.486 447.768C510.063 447.153 508.871 446.306 507.909 445.23C506.948 444.114 506.217 442.788 505.717 441.25C505.217 439.673 504.968 437.962 504.968 436.116C504.968 433.27 505.371 430.713 506.179 428.444C506.986 426.136 508.082 424.175 509.467 422.56C510.89 420.945 512.543 419.714 514.428 418.868C516.312 417.984 518.35 417.541 520.542 417.541C522.465 417.541 524.157 417.849 525.618 418.464C527.08 419.08 528.291 419.945 529.252 421.06C530.252 422.137 530.983 423.464 531.444 425.04C531.944 426.579 532.194 428.271 532.194 430.116C532.194 432.962 531.791 435.539 530.983 437.846C530.175 440.115 529.06 442.057 527.637 443.672C526.253 445.287 524.599 446.537 522.677 447.422C520.792 448.268 518.754 448.691 516.562 448.691ZM516.793 444.768C519.6 444.768 521.83 443.922 523.484 442.23C525.176 440.5 526.272 438.154 526.772 435.193L527.349 431.732C527.464 431.039 527.541 430.463 527.58 430.001C527.618 429.54 527.637 429.136 527.637 428.79C527.637 426.252 526.984 424.406 525.676 423.252C524.369 422.06 522.6 421.464 520.369 421.464C517.562 421.464 515.312 422.329 513.62 424.06C511.967 425.752 510.89 428.078 510.39 431.039L509.813 434.5C509.698 435.193 509.621 435.77 509.582 436.231C509.544 436.692 509.525 437.096 509.525 437.442C509.525 439.98 510.178 441.846 511.486 443.038C512.793 444.191 514.562 444.768 516.793 444.768ZM559.11 440.961H558.937C557.784 443.307 556.38 445.191 554.726 446.614C553.111 447.999 550.996 448.691 548.381 448.691C545.381 448.691 543.074 447.729 541.459 445.807C539.882 443.884 539.094 441 539.094 437.154C539.094 435.154 539.325 433.02 539.786 430.751C540.286 428.444 541.074 426.309 542.151 424.348C543.266 422.387 544.728 420.772 546.535 419.503C548.343 418.195 550.554 417.541 553.169 417.541C555.361 417.541 557.187 418.041 558.649 419.041C560.149 420.003 561.225 421.464 561.879 423.425H562.052L565.109 405.312H569.609L562.456 447.999H557.957L559.11 440.961ZM549.939 444.711C551.169 444.711 552.38 444.461 553.573 443.961C554.765 443.422 555.88 442.576 556.918 441.423C557.687 440.577 558.36 439.577 558.937 438.423C559.553 437.269 559.976 436 560.206 434.616L561.302 428.04C561.648 425.963 561.148 424.367 559.802 423.252C558.495 422.098 556.726 421.522 554.496 421.522C551.611 421.522 549.342 422.387 547.689 424.117C546.074 425.848 545.035 428.098 544.574 430.866L543.882 435.02C543.805 435.558 543.747 436.039 543.709 436.462C543.67 436.846 543.651 437.231 543.651 437.615C543.651 439.846 544.17 441.596 545.208 442.865C546.285 444.095 547.862 444.711 549.939 444.711ZM586.43 448.691C582.661 448.691 579.758 447.652 577.72 445.576C575.681 443.461 574.662 440.25 574.662 435.943C574.662 433.251 575.066 430.789 575.874 428.559C576.681 426.29 577.797 424.348 579.219 422.733C580.681 421.079 582.411 419.81 584.411 418.926C586.449 418.003 588.66 417.541 591.045 417.541C592.506 417.541 593.852 417.714 595.083 418.061C596.313 418.407 597.371 418.926 598.255 419.618C599.178 420.272 599.89 421.099 600.389 422.098C600.889 423.098 601.139 424.252 601.139 425.559C601.139 426.598 600.889 427.675 600.389 428.79C599.928 429.905 598.928 430.943 597.39 431.905C595.89 432.866 593.698 433.674 590.814 434.327C587.968 434.981 584.18 435.366 579.45 435.481C579.412 435.789 579.392 436.077 579.392 436.346C579.392 436.577 579.392 436.731 579.392 436.808C579.392 437.846 579.489 438.846 579.681 439.807C579.873 440.769 580.239 441.634 580.777 442.403C581.315 443.134 582.065 443.73 583.027 444.191C583.988 444.614 585.257 444.826 586.834 444.826C587.911 444.826 588.872 444.711 589.718 444.48C590.602 444.211 591.429 443.826 592.198 443.326C593.006 442.788 593.775 442.115 594.506 441.307C595.275 440.461 596.082 439.442 596.928 438.25L600.101 440.211C598.409 442.98 596.486 445.095 594.333 446.556C592.218 447.979 589.583 448.691 586.43 448.691ZM590.641 421.291C587.641 421.291 585.199 422.195 583.315 424.002C581.431 425.809 580.277 428.405 579.854 431.789L579.796 432.366C583.411 432.251 586.315 431.982 588.507 431.559C590.737 431.097 592.429 430.559 593.583 429.943C594.775 429.328 595.563 428.655 595.948 427.925C596.332 427.194 596.525 426.463 596.525 425.733C596.525 425.117 596.409 424.54 596.179 424.002C595.986 423.464 595.659 423.002 595.198 422.618C594.736 422.195 594.121 421.868 593.352 421.637C592.621 421.406 591.718 421.291 590.641 421.291Z" fill="#595959"/>
</g>
</g>
<g id="Group_58">
<g id="Group 2">
<g id="while i&#226;&#137;&#164;n:">
<path d="M1210.4 338.884H1215.77L1218.65 363.919H1219.17L1223.61 338.884H1229.73L1234.11 363.919H1234.63L1237.57 338.884H1242.71L1238.55 368.649H1230.82L1226.84 345.575H1226.32L1222.29 368.649H1214.56L1210.4 338.884ZM1248.68 325.963H1254.97V343.96H1255.26C1255.57 343.191 1255.95 342.46 1256.41 341.768C1256.91 341.038 1257.51 340.422 1258.2 339.922C1258.89 339.384 1259.7 338.961 1260.62 338.653C1261.55 338.346 1262.62 338.192 1263.85 338.192C1266.85 338.192 1269.28 339.172 1271.12 341.134C1272.97 343.095 1273.89 345.883 1273.89 349.498V368.649H1267.6V350.421C1267.6 345.691 1265.54 343.326 1261.43 343.326C1260.62 343.326 1259.83 343.441 1259.06 343.672C1258.3 343.864 1257.6 344.172 1256.99 344.595C1256.37 345.018 1255.87 345.556 1255.49 346.21C1255.14 346.864 1254.97 347.613 1254.97 348.46V368.649H1248.68V325.963ZM1297.58 333.462C1295.96 333.462 1294.83 333.135 1294.17 332.481C1293.56 331.827 1293.25 331.02 1293.25 330.058V328.847C1293.25 327.886 1293.56 327.078 1294.17 326.424C1294.83 325.77 1295.94 325.444 1297.52 325.444C1299.13 325.444 1300.25 325.77 1300.86 326.424C1301.52 327.078 1301.84 327.886 1301.84 328.847V330.058C1301.84 331.02 1301.52 331.827 1300.86 332.481C1300.25 333.135 1299.15 333.462 1297.58 333.462ZM1284.25 363.573H1294.4V343.96H1284.25V338.884H1300.69V363.573H1310.21V368.649H1284.25V363.573ZM1317.34 363.573H1327.2V331.039H1317.34V325.963H1333.49V363.573H1343.35V368.649H1317.34V363.573ZM1365.54 369.341C1363.27 369.341 1361.23 368.976 1359.43 368.245C1357.62 367.514 1356.1 366.476 1354.87 365.13C1353.64 363.784 1352.7 362.169 1352.04 360.285C1351.39 358.362 1351.06 356.208 1351.06 353.824C1351.06 351.44 1351.39 349.286 1352.04 347.364C1352.73 345.441 1353.68 343.806 1354.87 342.46C1356.1 341.076 1357.58 340.018 1359.31 339.288C1361.04 338.557 1362.96 338.192 1365.08 338.192C1367.15 338.192 1369.04 338.557 1370.73 339.288C1372.42 339.98 1373.87 340.98 1375.06 342.287C1376.25 343.595 1377.15 345.152 1377.77 346.96C1378.42 348.767 1378.75 350.767 1378.75 352.959V355.324H1357.41V356.305C1357.41 358.65 1358.14 360.573 1359.6 362.073C1361.06 363.534 1363.08 364.265 1365.66 364.265C1367.58 364.265 1369.21 363.861 1370.56 363.054C1371.94 362.208 1373.06 361.092 1373.9 359.708L1377.83 363.169C1376.83 364.899 1375.29 366.361 1373.21 367.553C1371.17 368.745 1368.62 369.341 1365.54 369.341ZM1365.08 342.98C1363.96 342.98 1362.92 343.172 1361.96 343.556C1361.04 343.941 1360.23 344.499 1359.54 345.229C1358.89 345.921 1358.37 346.748 1357.98 347.71C1357.6 348.671 1357.41 349.729 1357.41 350.882V351.286H1372.35V350.709C1372.35 348.363 1371.67 346.498 1370.33 345.114C1369.02 343.691 1367.27 342.98 1365.08 342.98Z" fill="#EB3B5A"/>
<path d="M1435.93 332.308C1434.58 332.308 1433.64 332.039 1433.1 331.5C1432.56 330.924 1432.29 330.212 1432.29 329.366V328.443C1432.29 327.597 1432.56 326.905 1433.1 326.367C1433.64 325.79 1434.58 325.501 1435.93 325.501C1437.27 325.501 1438.21 325.79 1438.75 326.367C1439.29 326.905 1439.56 327.597 1439.56 328.443V329.366C1439.56 330.212 1439.29 330.924 1438.75 331.5C1438.21 332.039 1437.27 332.308 1435.93 332.308ZM1422.89 364.726H1433.62V342.806H1422.89V338.884H1438.23V364.726H1448.27V368.649H1422.89V364.726ZM1456.27 368.649V364.726H1481.07V368.649H1456.27ZM1481.07 339.057L1460.59 347.825V348.229L1481.07 356.939V361.669L1456.27 350.652V345.518L1481.07 334.442V339.057ZM1491.6 368.649V338.884H1496.22V343.729H1496.45C1496.76 342.999 1497.14 342.307 1497.6 341.653C1498.07 340.961 1498.62 340.365 1499.28 339.865C1499.97 339.365 1500.78 338.961 1501.7 338.653C1502.62 338.346 1503.7 338.192 1504.93 338.192C1508.04 338.192 1510.54 339.192 1512.43 341.191C1514.31 343.153 1515.25 345.941 1515.25 349.556V368.649H1510.64V350.363C1510.64 347.633 1510.04 345.614 1508.85 344.306C1507.66 342.96 1505.91 342.287 1503.6 342.287C1502.68 342.287 1501.78 342.403 1500.89 342.633C1500.01 342.864 1499.22 343.21 1498.53 343.672C1497.83 344.133 1497.28 344.729 1496.85 345.46C1496.43 346.191 1496.22 347.037 1496.22 347.998V368.649H1491.6ZM1537.84 369.168C1536.27 369.168 1535.15 368.841 1534.5 368.187C1533.88 367.534 1533.58 366.707 1533.58 365.707V364.669C1533.58 363.669 1533.88 362.842 1534.5 362.188C1535.15 361.535 1536.27 361.208 1537.84 361.208C1539.42 361.208 1540.52 361.535 1541.13 362.188C1541.79 362.842 1542.11 363.669 1542.11 364.669V365.707C1542.11 366.707 1541.79 367.534 1541.13 368.187C1540.52 368.841 1539.42 369.168 1537.84 369.168ZM1537.84 346.325C1536.27 346.325 1535.15 345.998 1534.5 345.345C1533.88 344.691 1533.58 343.864 1533.58 342.864V341.826C1533.58 340.826 1533.88 339.999 1534.5 339.345C1535.15 338.692 1536.27 338.365 1537.84 338.365C1539.42 338.365 1540.52 338.692 1541.13 339.345C1541.79 339.999 1542.11 340.826 1542.11 341.826V342.864C1542.11 343.864 1541.79 344.691 1541.13 345.345C1540.52 345.998 1539.42 346.325 1537.84 346.325Z" fill="#595959"/>
</g>
<path id="some code_2" d="M1364.36 448.277C1361.48 448.277 1358.96 447.796 1356.81 446.835C1354.69 445.874 1352.98 444.489 1351.67 442.682L1355.02 440.028C1356.17 441.49 1357.52 442.605 1359.06 443.374C1360.6 444.105 1362.5 444.47 1364.77 444.47C1367.42 444.47 1369.5 443.97 1371 442.97C1372.5 441.97 1373.25 440.567 1373.25 438.759C1373.25 437.375 1372.82 436.433 1371.98 435.933C1371.17 435.394 1370.15 435.029 1368.92 434.837L1364.59 434.202C1363.52 434.048 1362.44 433.837 1361.36 433.568C1360.33 433.26 1359.38 432.818 1358.54 432.241C1357.73 431.664 1357.06 430.934 1356.52 430.049C1356.02 429.126 1355.77 427.972 1355.77 426.588C1355.77 425.011 1356.1 423.646 1356.75 422.492C1357.44 421.3 1358.36 420.32 1359.52 419.551C1360.67 418.743 1362.02 418.147 1363.56 417.762C1365.09 417.339 1366.75 417.128 1368.52 417.128C1371.13 417.128 1373.36 417.532 1375.21 418.339C1377.05 419.147 1378.54 420.262 1379.65 421.685L1376.48 424.454C1376.21 424.069 1375.84 423.665 1375.38 423.242C1374.96 422.819 1374.4 422.435 1373.71 422.089C1373.06 421.743 1372.25 421.473 1371.29 421.281C1370.36 421.05 1369.27 420.935 1368 420.935C1365.42 420.935 1363.46 421.416 1362.11 422.377C1360.81 423.338 1360.15 424.627 1360.15 426.242C1360.15 426.973 1360.27 427.569 1360.5 428.03C1360.77 428.492 1361.11 428.876 1361.54 429.184C1361.96 429.453 1362.44 429.664 1362.98 429.818C1363.56 429.934 1364.15 430.049 1364.77 430.164L1368.98 430.857C1369.94 431.01 1370.92 431.222 1371.92 431.491C1372.96 431.722 1373.9 432.106 1374.75 432.645C1375.59 433.145 1376.29 433.856 1376.82 434.779C1377.4 435.664 1377.69 436.837 1377.69 438.298C1377.69 439.836 1377.36 441.22 1376.71 442.451C1376.09 443.682 1375.19 444.739 1374 445.624C1372.84 446.47 1371.44 447.123 1369.79 447.585C1368.17 448.046 1366.36 448.277 1364.36 448.277ZM1398.78 448.277C1396.86 448.277 1395.16 447.97 1393.7 447.354C1392.28 446.739 1391.09 445.893 1390.13 444.816C1389.16 443.701 1388.43 442.374 1387.93 440.836C1387.43 439.259 1387.18 437.548 1387.18 435.702C1387.18 432.856 1387.59 430.299 1388.4 428.03C1389.2 425.723 1390.3 423.761 1391.68 422.146C1393.11 420.531 1394.76 419.301 1396.64 418.455C1398.53 417.57 1400.57 417.128 1402.76 417.128C1404.68 417.128 1406.37 417.435 1407.84 418.051C1409.3 418.666 1410.51 419.531 1411.47 420.647C1412.47 421.723 1413.2 423.05 1413.66 424.627C1414.16 426.165 1414.41 427.857 1414.41 429.703C1414.41 432.549 1414.01 435.125 1413.2 437.433C1412.39 439.701 1411.28 441.644 1409.85 443.259C1408.47 444.874 1406.82 446.124 1404.89 447.008C1403.01 447.854 1400.97 448.277 1398.78 448.277ZM1399.01 444.355C1401.82 444.355 1404.05 443.509 1405.7 441.817C1407.39 440.086 1408.49 437.74 1408.99 434.779L1409.57 431.318C1409.68 430.626 1409.76 430.049 1409.8 429.588C1409.84 429.126 1409.85 428.722 1409.85 428.376C1409.85 425.838 1409.2 423.992 1407.89 422.839C1406.59 421.646 1404.82 421.05 1402.59 421.05C1399.78 421.05 1397.53 421.916 1395.84 423.646C1394.18 425.338 1393.11 427.665 1392.61 430.626L1392.03 434.087C1391.91 434.779 1391.84 435.356 1391.8 435.817C1391.76 436.279 1391.74 436.683 1391.74 437.029C1391.74 439.567 1392.4 441.432 1393.7 442.624C1395.01 443.778 1396.78 444.355 1399.01 444.355ZM1418.77 447.585L1423.73 417.82H1427.89L1427.14 422.492H1427.37C1428.06 420.993 1428.89 419.724 1429.85 418.685C1430.85 417.647 1432.17 417.128 1433.83 417.128C1435.52 417.128 1436.73 417.666 1437.46 418.743C1438.19 419.82 1438.5 421.166 1438.39 422.781H1438.56C1439.33 421.05 1440.29 419.685 1441.44 418.685C1442.6 417.647 1444.04 417.128 1445.77 417.128C1447.42 417.128 1448.67 417.628 1449.52 418.628C1450.4 419.589 1450.85 420.993 1450.85 422.839C1450.85 423.377 1450.81 424.011 1450.73 424.742C1450.65 425.473 1450.56 426.184 1450.44 426.876L1446.98 447.585H1442.83L1446.17 427.626C1446.29 426.934 1446.38 426.28 1446.46 425.665C1446.54 425.011 1446.58 424.473 1446.58 424.05C1446.58 421.896 1445.73 420.82 1444.04 420.82C1443.23 420.82 1442.52 421.05 1441.9 421.512C1441.33 421.935 1440.79 422.473 1440.29 423.127C1439.75 423.896 1439.31 424.742 1438.96 425.665C1438.62 426.55 1438.37 427.434 1438.21 428.319L1434.98 447.585H1430.83L1434.17 427.626C1434.41 426.242 1434.52 425.107 1434.52 424.223C1434.52 422.992 1434.31 422.127 1433.89 421.627C1433.5 421.089 1432.91 420.82 1432.1 420.82C1431.29 420.82 1430.56 421.05 1429.91 421.512C1429.25 421.935 1428.69 422.473 1428.23 423.127C1427.69 423.896 1427.25 424.742 1426.91 425.665C1426.56 426.55 1426.31 427.434 1426.16 428.319L1422.93 447.585H1418.77ZM1468.65 448.277C1464.88 448.277 1461.97 447.239 1459.94 445.162C1457.9 443.047 1456.88 439.836 1456.88 435.529C1456.88 432.837 1457.28 430.376 1458.09 428.145C1458.9 425.877 1460.01 423.935 1461.44 422.319C1462.9 420.666 1464.63 419.397 1466.63 418.512C1468.67 417.589 1470.88 417.128 1473.26 417.128C1474.72 417.128 1476.07 417.301 1477.3 417.647C1478.53 417.993 1479.59 418.512 1480.47 419.204C1481.4 419.858 1482.11 420.685 1482.61 421.685C1483.11 422.685 1483.36 423.838 1483.36 425.146C1483.36 426.184 1483.11 427.261 1482.61 428.376C1482.14 429.491 1481.15 430.53 1479.61 431.491C1478.11 432.453 1475.92 433.26 1473.03 433.914C1470.19 434.568 1466.4 434.952 1461.67 435.068C1461.63 435.375 1461.61 435.664 1461.61 435.933C1461.61 436.164 1461.61 436.317 1461.61 436.394C1461.61 437.433 1461.71 438.432 1461.9 439.394C1462.09 440.355 1462.46 441.22 1462.99 441.99C1463.53 442.72 1464.28 443.316 1465.24 443.778C1466.2 444.201 1467.47 444.412 1469.05 444.412C1470.13 444.412 1471.09 444.297 1471.93 444.066C1472.82 443.797 1473.65 443.412 1474.42 442.913C1475.22 442.374 1475.99 441.701 1476.72 440.894C1477.49 440.048 1478.3 439.028 1479.15 437.836L1482.32 439.798C1480.63 442.566 1478.7 444.682 1476.55 446.143C1474.43 447.566 1471.8 448.277 1468.65 448.277ZM1472.86 420.877C1469.86 420.877 1467.42 421.781 1465.53 423.588C1463.65 425.396 1462.49 427.992 1462.07 431.376L1462.01 431.953C1465.63 431.837 1468.53 431.568 1470.72 431.145C1472.95 430.684 1474.65 430.145 1475.8 429.53C1476.99 428.915 1477.78 428.242 1478.16 427.511C1478.55 426.78 1478.74 426.05 1478.74 425.319C1478.74 424.704 1478.63 424.127 1478.4 423.588C1478.2 423.05 1477.88 422.589 1477.41 422.204C1476.95 421.781 1476.34 421.454 1475.57 421.223C1474.84 420.993 1473.93 420.877 1472.86 420.877ZM1537.42 448.277C1535.57 448.277 1533.94 447.97 1532.52 447.354C1531.13 446.739 1529.96 445.893 1529 444.816C1528.07 443.701 1527.36 442.374 1526.86 440.836C1526.4 439.259 1526.17 437.548 1526.17 435.702C1526.17 432.856 1526.57 430.299 1527.38 428.03C1528.19 425.723 1529.29 423.761 1530.67 422.146C1532.05 420.531 1533.67 419.301 1535.52 418.455C1537.4 417.57 1539.4 417.128 1541.51 417.128C1543.09 417.128 1544.46 417.32 1545.61 417.705C1546.8 418.089 1547.82 418.608 1548.67 419.262C1549.51 419.877 1550.19 420.627 1550.69 421.512C1551.22 422.396 1551.63 423.319 1551.9 424.281L1548.03 425.78C1547.46 423.935 1546.59 422.685 1545.44 422.031C1544.32 421.377 1542.84 421.05 1541 421.05C1538.46 421.05 1536.38 421.877 1534.77 423.531C1533.19 425.184 1532.13 427.569 1531.59 430.684L1531.02 434.145C1530.9 434.837 1530.82 435.375 1530.79 435.76C1530.75 436.144 1530.73 436.529 1530.73 436.913C1530.73 439.452 1531.38 441.336 1532.69 442.566C1534.03 443.759 1535.8 444.355 1538 444.355C1538.65 444.355 1539.3 444.278 1539.96 444.124C1540.65 443.97 1541.38 443.643 1542.15 443.143C1542.96 442.643 1543.82 441.913 1544.74 440.951C1545.67 439.99 1546.73 438.702 1547.92 437.086L1551.15 438.99C1550.22 440.49 1549.28 441.836 1548.32 443.028C1547.36 444.182 1546.32 445.143 1545.21 445.912C1544.13 446.681 1542.94 447.258 1541.63 447.643C1540.36 448.066 1538.96 448.277 1537.42 448.277ZM1571.72 448.277C1569.8 448.277 1568.1 447.97 1566.64 447.354C1565.22 446.739 1564.03 445.893 1563.07 444.816C1562.1 443.701 1561.37 442.374 1560.87 440.836C1560.37 439.259 1560.12 437.548 1560.12 435.702C1560.12 432.856 1560.53 430.299 1561.34 428.03C1562.14 425.723 1563.24 423.761 1564.62 422.146C1566.05 420.531 1567.7 419.301 1569.58 418.455C1571.47 417.57 1573.51 417.128 1575.7 417.128C1577.62 417.128 1579.31 417.435 1580.77 418.051C1582.24 418.666 1583.45 419.531 1584.41 420.647C1585.41 421.723 1586.14 423.05 1586.6 424.627C1587.1 426.165 1587.35 427.857 1587.35 429.703C1587.35 432.549 1586.95 435.125 1586.14 437.433C1585.33 439.701 1584.22 441.644 1582.79 443.259C1581.41 444.874 1579.76 446.124 1577.83 447.008C1575.95 447.854 1573.91 448.277 1571.72 448.277ZM1571.95 444.355C1574.76 444.355 1576.99 443.509 1578.64 441.817C1580.33 440.086 1581.43 437.74 1581.93 434.779L1582.51 431.318C1582.62 430.626 1582.7 430.049 1582.74 429.588C1582.77 429.126 1582.79 428.722 1582.79 428.376C1582.79 425.838 1582.14 423.992 1580.83 422.839C1579.52 421.646 1577.76 421.05 1575.53 421.05C1572.72 421.05 1570.47 421.916 1568.78 423.646C1567.12 425.338 1566.05 427.665 1565.55 430.626L1564.97 434.087C1564.85 434.779 1564.78 435.356 1564.74 435.817C1564.7 436.279 1564.68 436.683 1564.68 437.029C1564.68 439.567 1565.33 441.432 1566.64 442.624C1567.95 443.778 1569.72 444.355 1571.95 444.355ZM1614.27 440.548H1614.09C1612.94 442.893 1611.54 444.778 1609.88 446.201C1608.27 447.585 1606.15 448.277 1603.54 448.277C1600.54 448.277 1598.23 447.316 1596.62 445.393C1595.04 443.47 1594.25 440.586 1594.25 436.74C1594.25 434.741 1594.48 432.606 1594.94 430.337C1595.44 428.03 1596.23 425.896 1597.31 423.935C1598.42 421.973 1599.88 420.358 1601.69 419.089C1603.5 417.782 1605.71 417.128 1608.33 417.128C1610.52 417.128 1612.34 417.628 1613.81 418.628C1615.3 419.589 1616.38 421.05 1617.04 423.012H1617.21L1620.27 404.899H1624.77L1617.61 447.585H1613.11L1614.27 440.548ZM1605.09 444.297C1606.33 444.297 1607.54 444.047 1608.73 443.547C1609.92 443.009 1611.04 442.163 1612.07 441.009C1612.84 440.163 1613.52 439.163 1614.09 438.009C1614.71 436.856 1615.13 435.587 1615.36 434.202L1616.46 427.626C1616.8 425.55 1616.3 423.954 1614.96 422.839C1613.65 421.685 1611.88 421.108 1609.65 421.108C1606.77 421.108 1604.5 421.973 1602.85 423.704C1601.23 425.434 1600.19 427.684 1599.73 430.453L1599.04 434.606C1598.96 435.144 1598.9 435.625 1598.86 436.048C1598.83 436.433 1598.81 436.817 1598.81 437.202C1598.81 439.432 1599.33 441.182 1600.36 442.451C1601.44 443.682 1603.02 444.297 1605.09 444.297ZM1641.59 448.277C1637.82 448.277 1634.91 447.239 1632.88 445.162C1630.84 443.047 1629.82 439.836 1629.82 435.529C1629.82 432.837 1630.22 430.376 1631.03 428.145C1631.84 425.877 1632.95 423.935 1634.38 422.319C1635.84 420.666 1637.57 419.397 1639.57 418.512C1641.61 417.589 1643.82 417.128 1646.2 417.128C1647.66 417.128 1649.01 417.301 1650.24 417.647C1651.47 417.993 1652.53 418.512 1653.41 419.204C1654.33 419.858 1655.05 420.685 1655.55 421.685C1656.05 422.685 1656.3 423.838 1656.3 425.146C1656.3 426.184 1656.05 427.261 1655.55 428.376C1655.08 429.491 1654.08 430.53 1652.55 431.491C1651.05 432.453 1648.85 433.26 1645.97 433.914C1643.12 434.568 1639.34 434.952 1634.61 435.068C1634.57 435.375 1634.55 435.664 1634.55 435.933C1634.55 436.164 1634.55 436.317 1634.55 436.394C1634.55 437.433 1634.64 438.432 1634.84 439.394C1635.03 440.355 1635.39 441.22 1635.93 441.99C1636.47 442.72 1637.22 443.316 1638.18 443.778C1639.14 444.201 1640.41 444.412 1641.99 444.412C1643.07 444.412 1644.03 444.297 1644.87 444.066C1645.76 443.797 1646.59 443.412 1647.35 442.913C1648.16 442.374 1648.93 441.701 1649.66 440.894C1650.43 440.048 1651.24 439.028 1652.08 437.836L1655.26 439.798C1653.57 442.566 1651.64 444.682 1649.49 446.143C1647.37 447.566 1644.74 448.277 1641.59 448.277ZM1645.8 420.877C1642.8 420.877 1640.36 421.781 1638.47 423.588C1636.59 425.396 1635.43 427.992 1635.01 431.376L1634.95 431.953C1638.57 431.837 1641.47 431.568 1643.66 431.145C1645.89 430.684 1647.59 430.145 1648.74 429.53C1649.93 428.915 1650.72 428.242 1651.1 427.511C1651.49 426.78 1651.68 426.05 1651.68 425.319C1651.68 424.704 1651.57 424.127 1651.33 423.588C1651.14 423.05 1650.82 422.589 1650.35 422.204C1649.89 421.781 1649.28 421.454 1648.51 421.223C1647.78 420.993 1646.87 420.877 1645.8 420.877Z" fill="#595959"/>
<path id="i = i+1" d="M1368.06 490.18C1366.71 490.18 1365.77 489.911 1365.23 489.372C1364.69 488.796 1364.42 488.084 1364.42 487.238V486.315C1364.42 485.469 1364.69 484.777 1365.23 484.239C1365.77 483.662 1366.71 483.373 1368.06 483.373C1369.4 483.373 1370.34 483.662 1370.88 484.239C1371.42 484.777 1371.69 485.469 1371.69 486.315V487.238C1371.69 488.084 1371.42 488.796 1370.88 489.372C1370.34 489.911 1369.4 490.18 1368.06 490.18ZM1355.02 522.598H1365.75V500.679H1355.02V496.756H1370.36V522.598H1380.4V526.521H1355.02V522.598ZM1421.66 505.063V501.14H1449.11V505.063H1421.66ZM1421.66 516.599V512.677H1449.11V516.599H1421.66ZM1506.41 490.18C1505.06 490.18 1504.12 489.911 1503.58 489.372C1503.04 488.796 1502.77 488.084 1502.77 487.238V486.315C1502.77 485.469 1503.04 484.777 1503.58 484.239C1504.12 483.662 1505.06 483.373 1506.41 483.373C1507.75 483.373 1508.7 483.662 1509.23 484.239C1509.77 484.777 1510.04 485.469 1510.04 486.315V487.238C1510.04 488.084 1509.77 488.796 1509.23 489.372C1508.7 489.911 1507.75 490.18 1506.41 490.18ZM1493.37 522.598H1504.1V500.679H1493.37V496.756H1508.71V522.598H1518.75V526.521H1493.37V522.598ZM1536.96 522.945V510.889H1525.42V506.966H1536.96V494.91H1541.34V506.966H1552.88V510.889H1541.34V522.945H1536.96ZM1561.34 526.521V522.31H1572.87V489.834H1572.47L1562.32 499.294L1559.49 496.237L1570.16 486.258H1577.72V522.31H1588.33V526.521H1561.34Z" fill="#595959"/>
<path id="i = 1" d="M1228.4 253.372C1227.05 253.372 1226.11 253.103 1225.57 252.564C1225.03 251.988 1224.77 251.276 1224.77 250.43V249.507C1224.77 248.661 1225.03 247.969 1225.57 247.431C1226.11 246.854 1227.05 246.565 1228.4 246.565C1229.75 246.565 1230.69 246.854 1231.23 247.431C1231.76 247.969 1232.03 248.661 1232.03 249.507V250.43C1232.03 251.276 1231.76 251.988 1231.23 252.564C1230.69 253.103 1229.75 253.372 1228.4 253.372ZM1215.36 285.79H1226.09V263.87H1215.36V259.948H1230.71V285.79H1240.74V289.713H1215.36V285.79ZM1282 268.254V264.332H1309.46V268.254H1282ZM1282 279.791V275.869H1309.46V279.791H1282ZM1352.5 289.713V285.502H1364.04V253.026H1363.64L1353.48 262.486L1350.66 259.429L1361.33 249.449H1368.89V285.502H1379.5V289.713H1352.5Z" fill="#595959"/>
</g>
<g id="Group 57">
<path id="Vector 1" d="M768.056 329.19C766.785 329.729 766.191 331.196 766.73 332.467C767.269 333.739 768.736 334.332 770.007 333.794L768.056 329.19ZM1066.1 333.751C1067.35 333.161 1067.88 331.67 1067.29 330.422L1057.66 310.085C1057.07 308.838 1055.58 308.305 1054.34 308.895C1053.09 309.486 1052.55 310.977 1053.15 312.225L1061.7 330.302L1043.63 338.859C1042.38 339.449 1041.84 340.94 1042.44 342.188C1043.03 343.436 1044.52 343.969 1045.76 343.378L1066.1 333.751ZM770.007 333.794C861.861 294.866 947.207 292.03 1064.19 333.846L1065.87 329.138C947.857 286.953 861.203 289.714 768.056 329.19L770.007 333.794Z" fill="#7AA2B6"/>
<path id="Vector 83" d="M914.216 285.512L885.032 231.496L910.888 260.168L948.264 201.032L914.216 285.512Z" fill="#20BF6B"/>
</g>
</g>
<g id="Group_582">
<path id="Vector 84" d="M1066.01 444.592C1067.28 444.053 1067.87 442.586 1067.33 441.314C1066.79 440.043 1065.33 439.449 1064.06 439.988L1066.01 444.592ZM767.962 440.03C766.714 440.621 766.181 442.112 766.772 443.36L776.399 463.696C776.989 464.944 778.48 465.477 779.728 464.886C780.976 464.296 781.509 462.805 780.918 461.557L772.361 443.48L790.438 434.923C791.686 434.332 792.219 432.842 791.628 431.594C791.037 430.346 789.547 429.813 788.299 430.404L767.962 440.03ZM1064.06 439.988C972.203 478.916 886.857 481.751 769.873 439.936L768.19 444.644C886.207 486.829 972.861 484.067 1066.01 444.592L1064.06 439.988Z" fill="#7AA2B6"/>
<path id="?" d="M921.232 436.616C919.744 436.616 918.4 436.304 917.2 435.68C916 435.056 915.424 434.096 915.472 432.8C915.568 429.872 916.12 427.544 917.128 425.816C918.136 424.088 919.336 422.72 920.728 421.712C922.168 420.704 923.536 419.84 924.832 419.12C929.152 416.72 931.312 413.936 931.312 410.768C931.312 409.04 930.832 407.768 929.872 406.952C928.912 406.088 927.808 405.656 926.56 405.656C925.072 405.656 923.68 406.256 922.384 407.456C921.088 408.608 920.44 410.384 920.44 412.784C920.44 413.984 920.656 415.352 921.088 416.888C917.728 416.936 915.232 416.216 913.6 414.728C911.968 413.24 911.152 411.488 911.152 409.472C911.152 407.696 911.776 405.92 913.024 404.144C914.272 402.32 916.072 400.808 918.424 399.608C920.824 398.408 923.752 397.808 927.208 397.808C929.704 397.808 932.08 398.288 934.336 399.248C936.592 400.208 938.44 401.672 939.88 403.64C941.32 405.56 942.04 408.032 942.04 411.056C942.04 413.84 941.536 416.072 940.528 417.752C939.52 419.432 938.248 420.776 936.712 421.784C935.224 422.792 933.712 423.704 932.176 424.52C930.4 425.432 928.84 426.416 927.496 427.472C926.152 428.48 925.48 429.968 925.48 431.936C925.48 432.368 925.528 432.848 925.624 433.376C925.72 433.904 925.864 434.48 926.056 435.104C925.528 435.584 924.832 435.968 923.968 436.256C923.104 436.496 922.192 436.616 921.232 436.616ZM919.288 453.464C917.32 453.464 915.688 452.84 914.392 451.592C913.096 450.344 912.448 448.808 912.448 446.984C912.448 444.92 913.192 443.168 914.68 441.728C916.216 440.24 918.088 439.496 920.296 439.496C922.264 439.496 923.896 440.12 925.192 441.368C926.536 442.616 927.208 444.152 927.208 445.976C927.208 448.04 926.44 449.816 924.904 451.304C923.368 452.744 921.496 453.464 919.288 453.464Z" fill="#EB3B5A"/>
</g>
<g id="Group_4">
<path id="Can we transform any while loop into a for loop?" d="M380.456 750.56C377.096 750.56 374.296 749.872 372.056 748.496C369.816 747.088 368.136 745.168 367.016 742.736C365.896 740.272 365.336 737.488 365.336 734.384C365.336 730.832 366.008 727.84 367.352 725.408C368.728 722.944 370.616 721.088 373.016 719.84C375.416 718.56 378.168 717.92 381.272 717.92C382.968 717.92 384.312 718.064 385.304 718.352C386.328 718.608 387.128 718.88 387.704 719.168C388.312 719.456 388.824 719.6 389.24 719.6C389.688 719.6 390.008 719.44 390.2 719.12C390.392 718.768 390.6 718.368 390.824 717.92H392.456V729.152H390.632C390.088 726.08 389 723.808 387.368 722.336C385.768 720.864 383.736 720.128 381.272 720.128C377.976 720.128 375.464 721.328 373.736 723.728C372.008 726.096 371.144 729.408 371.144 733.664C371.144 736.8 371.592 739.36 372.488 741.344C373.384 743.296 374.648 744.736 376.28 745.664C377.944 746.592 379.896 747.056 382.136 747.056C384.408 747.056 386.344 746.64 387.944 745.808C389.544 744.976 391.032 743.824 392.408 742.352L393.656 743.456C392.728 744.8 391.672 746.016 390.488 747.104C389.304 748.16 387.896 749.008 386.264 749.648C384.632 750.256 382.696 750.56 380.456 750.56ZM403.006 750.416C401.182 750.416 399.742 749.936 398.686 748.976C397.662 748.016 397.15 746.704 397.15 745.04C397.15 743.728 397.438 742.624 398.014 741.728C398.622 740.832 399.406 740.08 400.366 739.472C401.326 738.864 402.366 738.368 403.486 737.984C404.638 737.568 405.758 737.216 406.846 736.928C407.934 736.64 408.91 736.368 409.774 736.112V733.904C409.774 731.856 409.454 730.432 408.814 729.632C408.206 728.832 407.23 728.432 405.886 728.432C404.638 728.432 403.822 728.704 403.438 729.248C403.086 729.76 402.91 730.736 402.91 732.176C402.91 733.008 402.686 733.632 402.238 734.048C401.79 734.432 401.198 734.624 400.462 734.624C399.918 734.624 399.39 734.416 398.878 734C398.398 733.584 398.158 732.928 398.158 732.032C398.158 731.136 398.51 730.288 399.214 729.488C399.918 728.656 400.91 728 402.19 727.52C403.502 727.008 405.038 726.752 406.798 726.752C409.55 726.752 411.55 727.344 412.798 728.528C414.046 729.712 414.67 731.584 414.67 734.144V744.896C414.67 745.888 414.782 746.528 415.006 746.816C415.23 747.104 415.598 747.248 416.11 747.248C416.558 747.248 416.958 747.136 417.31 746.912C417.694 746.656 418.062 746.352 418.414 746L419.23 746.864C418.43 748.016 417.63 748.896 416.83 749.504C416.03 750.08 414.926 750.368 413.518 750.368C412.206 750.368 411.342 750.064 410.926 749.456C410.51 748.816 410.222 747.888 410.062 746.672L409.774 745.952V737.792C408.398 738.144 407.134 738.56 405.982 739.04C404.862 739.488 403.95 740.096 403.246 740.864C402.574 741.6 402.238 742.576 402.238 743.792C402.238 744.976 402.51 745.904 403.054 746.576C403.598 747.216 404.35 747.536 405.31 747.536C406.078 747.536 406.862 747.344 407.662 746.96C408.494 746.576 409.342 745.984 410.206 745.184L410.542 747.2H409.918C409.182 747.84 408.478 748.416 407.806 748.928C407.166 749.408 406.462 749.776 405.694 750.032C404.958 750.288 404.062 750.416 403.006 750.416ZM446.932 750.032H435.124V748.496C436.212 748.496 436.996 748.4 437.476 748.208C437.956 747.984 438.26 747.632 438.388 747.152C438.516 746.64 438.58 745.936 438.58 745.04V736.688C438.58 734.928 438.388 733.584 438.004 732.656C437.62 731.728 437.092 731.104 436.42 730.784C435.78 730.464 435.076 730.304 434.308 730.304C433.444 730.304 432.66 730.464 431.956 730.784C431.284 731.104 430.66 731.504 430.084 731.984C429.54 732.464 428.996 732.928 428.452 733.376L428.164 730.784H428.932C430.212 729.632 431.428 728.672 432.58 727.904C433.732 727.136 435.06 726.752 436.564 726.752C438.836 726.752 440.548 727.504 441.7 729.008C442.884 730.48 443.476 732.656 443.476 735.536V745.04C443.476 745.904 443.54 746.592 443.668 747.104C443.828 747.616 444.148 747.984 444.628 748.208C445.14 748.4 445.908 748.496 446.932 748.496V750.032ZM432.436 750.032H420.628V748.496C421.684 748.496 422.436 748.4 422.884 748.208C423.364 747.984 423.652 747.616 423.748 747.104C423.876 746.592 423.94 745.904 423.94 745.04V731.888C423.94 731.024 423.764 730.464 423.412 730.208C423.092 729.92 422.612 729.776 421.972 729.776C421.556 729.776 421.236 729.792 421.012 729.824C420.788 729.856 420.676 729.872 420.676 729.872V728.288L427.156 726.896H428.74V731.36L428.884 732.464V745.04C428.884 745.904 428.948 746.592 429.076 747.104C429.204 747.616 429.508 747.984 429.988 748.208C430.5 748.4 431.316 748.496 432.436 748.496V750.032ZM486.436 750.32H483.412L478.228 736.016L477.508 734.384L476.74 732.224C476.356 731.232 476.004 730.496 475.684 730.016C475.396 729.536 475.044 729.232 474.628 729.104C474.212 728.944 473.652 728.864 472.948 728.864V727.328H483.556V728.864C482.66 728.864 482.036 728.96 481.684 729.152C481.364 729.344 481.204 729.632 481.204 730.016C481.204 730.304 481.236 730.624 481.3 730.976C481.396 731.296 481.508 731.632 481.636 731.984L485.38 742.016L486.244 744.752H486.532L487.492 742.016L491.188 731.696C491.22 731.536 491.268 731.328 491.332 731.072C491.428 730.784 491.476 730.448 491.476 730.064C491.476 729.616 491.22 729.312 490.708 729.152C490.228 728.96 489.54 728.864 488.644 728.864V727.328H497.38V728.864C496.452 728.864 495.732 729.088 495.22 729.536C494.74 729.952 494.26 730.768 493.78 731.984L486.436 750.32ZM472.612 750.32H469.636L462.292 732.224C461.908 731.264 461.54 730.56 461.188 730.112C460.868 729.632 460.484 729.312 460.036 729.152C459.62 728.96 459.06 728.864 458.356 728.864V727.328H469.492V728.864C468.564 728.864 467.924 728.96 467.572 729.152C467.22 729.344 467.044 729.632 467.044 730.016C467.044 730.368 467.092 730.688 467.188 730.976C467.316 731.232 467.444 731.552 467.572 731.936L471.604 742.016L472.468 744.752H472.804L473.812 742.016L477.508 733.136L479.14 736.736H478.276L472.612 750.32ZM508.439 750.512C506.391 750.512 504.567 750.064 502.967 749.168C501.399 748.272 500.167 746.944 499.271 745.184C498.407 743.392 497.975 741.216 497.975 738.656C497.975 735.968 498.455 733.744 499.415 731.984C500.375 730.224 501.655 728.912 503.255 728.048C504.855 727.184 506.631 726.752 508.583 726.752C511.335 726.752 513.543 727.664 515.207 729.488C516.871 731.312 517.751 733.952 517.847 737.408H502.391L502.343 735.488H512.423C512.391 734.24 512.215 733.104 511.895 732.08C511.575 731.056 511.079 730.24 510.407 729.632C509.767 729.024 508.919 728.72 507.863 728.72C506.135 728.72 504.855 729.424 504.023 730.832C503.223 732.24 502.823 734.304 502.823 737.024C502.823 739.2 503.143 740.992 503.783 742.4C504.423 743.776 505.287 744.8 506.375 745.472C507.463 746.112 508.679 746.432 510.023 746.432C511.303 746.432 512.359 746.272 513.191 745.952C514.055 745.632 514.775 745.2 515.351 744.656C515.959 744.112 516.519 743.504 517.031 742.832L518.039 743.6C517.591 744.496 517.095 745.376 516.551 746.24C516.007 747.072 515.367 747.808 514.631 748.448C513.927 749.088 513.063 749.6 512.039 749.984C511.047 750.336 509.847 750.512 508.439 750.512ZM545.774 745.376L546.782 746.336C546.174 747.2 545.566 747.952 544.958 748.592C544.382 749.2 543.71 749.68 542.942 750.032C542.206 750.384 541.214 750.56 539.966 750.56C538.302 750.56 537.054 750.08 536.222 749.12C535.422 748.16 535.022 746.512 535.022 744.176V729.872H532.286V728.48C533.47 727.744 534.526 726.768 535.454 725.552C536.414 724.336 537.342 722.704 538.238 720.656H539.918V727.568H545.534V729.872H539.918V742.688C539.918 744.416 540.078 745.616 540.398 746.288C540.718 746.928 541.342 747.248 542.27 747.248C543.102 747.248 543.742 747.088 544.19 746.768C544.67 746.448 545.198 745.984 545.774 745.376ZM561.083 750.032H548.123V748.496C549.179 748.496 549.947 748.416 550.427 748.256C550.939 748.064 551.259 747.728 551.387 747.248C551.547 746.768 551.627 746.08 551.627 745.184V732.464C551.627 731.6 551.531 730.944 551.339 730.496C551.179 730.048 550.683 729.824 549.851 729.824C549.371 729.824 549.003 729.84 548.747 729.872C548.491 729.904 548.363 729.92 548.363 729.92V728.336L554.795 726.896H556.427V731.84H556.619C557.451 730.688 558.171 729.728 558.779 728.96C559.387 728.192 559.995 727.616 560.603 727.232C561.243 726.816 561.979 726.608 562.811 726.608C563.867 726.608 564.635 726.88 565.115 727.424C565.627 727.968 565.883 728.72 565.883 729.68C565.883 730.736 565.643 731.504 565.163 731.984C564.683 732.464 564.139 732.704 563.531 732.704C562.955 732.704 562.443 732.56 561.995 732.272C561.579 731.952 561.211 731.648 560.891 731.36C560.603 731.072 560.347 730.928 560.123 730.928C559.611 730.928 559.019 731.28 558.347 731.984C557.707 732.688 557.099 733.472 556.523 734.336V744.944C556.523 745.936 556.651 746.688 556.907 747.2C557.195 747.712 557.675 748.064 558.347 748.256C559.019 748.416 559.931 748.496 561.083 748.496V750.032ZM573.069 750.416C571.245 750.416 569.805 749.936 568.749 748.976C567.725 748.016 567.213 746.704 567.213 745.04C567.213 743.728 567.501 742.624 568.077 741.728C568.685 740.832 569.469 740.08 570.429 739.472C571.389 738.864 572.429 738.368 573.549 737.984C574.701 737.568 575.821 737.216 576.909 736.928C577.997 736.64 578.973 736.368 579.837 736.112V733.904C579.837 731.856 579.517 730.432 578.877 729.632C578.269 728.832 577.293 728.432 575.949 728.432C574.701 728.432 573.885 728.704 573.501 729.248C573.149 729.76 572.973 730.736 572.973 732.176C572.973 733.008 572.749 733.632 572.301 734.048C571.853 734.432 571.261 734.624 570.525 734.624C569.981 734.624 569.453 734.416 568.941 734C568.461 733.584 568.221 732.928 568.221 732.032C568.221 731.136 568.573 730.288 569.277 729.488C569.981 728.656 570.973 728 572.253 727.52C573.565 727.008 575.101 726.752 576.861 726.752C579.613 726.752 581.613 727.344 582.861 728.528C584.109 729.712 584.733 731.584 584.733 734.144V744.896C584.733 745.888 584.845 746.528 585.069 746.816C585.293 747.104 585.661 747.248 586.173 747.248C586.621 747.248 587.021 747.136 587.373 746.912C587.757 746.656 588.125 746.352 588.477 746L589.293 746.864C588.493 748.016 587.693 748.896 586.893 749.504C586.093 750.08 584.989 750.368 583.581 750.368C582.269 750.368 581.405 750.064 580.989 749.456C580.573 748.816 580.285 747.888 580.125 746.672L579.837 745.952V737.792C578.461 738.144 577.197 738.56 576.045 739.04C574.925 739.488 574.013 740.096 573.309 740.864C572.637 741.6 572.301 742.576 572.301 743.792C572.301 744.976 572.573 745.904 573.117 746.576C573.661 747.216 574.413 747.536 575.373 747.536C576.141 747.536 576.925 747.344 577.725 746.96C578.557 746.576 579.405 745.984 580.269 745.184L580.605 747.2H579.981C579.245 747.84 578.541 748.416 577.869 748.928C577.229 749.408 576.525 749.776 575.757 750.032C575.021 750.288 574.125 750.416 573.069 750.416ZM616.994 750.032H605.186V748.496C606.274 748.496 607.058 748.4 607.538 748.208C608.018 747.984 608.322 747.632 608.45 747.152C608.578 746.64 608.642 745.936 608.642 745.04V736.688C608.642 734.928 608.45 733.584 608.066 732.656C607.682 731.728 607.154 731.104 606.482 730.784C605.842 730.464 605.138 730.304 604.37 730.304C603.506 730.304 602.722 730.464 602.018 730.784C601.346 731.104 600.722 731.504 600.146 731.984C599.602 732.464 599.058 732.928 598.514 733.376L598.226 730.784H598.994C600.274 729.632 601.49 728.672 602.642 727.904C603.794 727.136 605.122 726.752 606.626 726.752C608.898 726.752 610.61 727.504 611.762 729.008C612.946 730.48 613.538 732.656 613.538 735.536V745.04C613.538 745.904 613.602 746.592 613.73 747.104C613.89 747.616 614.21 747.984 614.69 748.208C615.202 748.4 615.97 748.496 616.994 748.496V750.032ZM602.498 750.032H590.69V748.496C591.746 748.496 592.498 748.4 592.946 748.208C593.426 747.984 593.714 747.616 593.81 747.104C593.938 746.592 594.002 745.904 594.002 745.04V731.888C594.002 731.024 593.826 730.464 593.474 730.208C593.154 729.92 592.674 729.776 592.034 729.776C591.618 729.776 591.298 729.792 591.074 729.824C590.85 729.856 590.738 729.872 590.738 729.872V728.288L597.218 726.896H598.802V731.36L598.946 732.464V745.04C598.946 745.904 599.01 746.592 599.138 747.104C599.266 747.616 599.57 747.984 600.05 748.208C600.562 748.4 601.378 748.496 602.498 748.496V750.032ZM619.906 750.464L619.762 741.968H621.298C621.778 744.368 622.498 746.08 623.458 747.104C624.418 748.128 625.778 748.64 627.538 748.64C628.722 748.64 629.682 748.4 630.418 747.92C631.186 747.408 631.57 746.64 631.57 745.616C631.57 744.912 631.426 744.32 631.138 743.84C630.882 743.36 630.354 742.864 629.554 742.352C628.786 741.84 627.65 741.216 626.146 740.48C624.706 739.776 623.522 739.088 622.594 738.416C621.666 737.744 620.962 736.976 620.482 736.112C620.034 735.248 619.81 734.192 619.81 732.944C619.81 730.96 620.514 729.44 621.922 728.384C623.362 727.296 625.202 726.752 627.442 726.752C628.722 726.752 629.762 726.912 630.562 727.232C631.362 727.552 632.034 727.856 632.578 728.144H632.674L633.49 727.04H634.738L634.882 734.528H633.346C632.802 732.256 632.066 730.704 631.138 729.872C630.21 729.008 629.026 728.576 627.586 728.576C626.498 728.576 625.618 728.832 624.946 729.344C624.274 729.856 623.938 730.592 623.938 731.552C623.938 732.512 624.37 733.328 625.234 734C626.13 734.64 627.522 735.44 629.41 736.4C630.85 737.136 632.082 737.856 633.106 738.56C634.13 739.264 634.914 740.048 635.458 740.912C636.002 741.776 636.274 742.848 636.274 744.128C636.274 745.696 635.874 746.96 635.074 747.92C634.306 748.88 633.266 749.568 631.954 749.984C630.674 750.368 629.282 750.56 627.778 750.56C626.37 750.56 625.25 750.416 624.418 750.128C623.618 749.84 622.898 749.568 622.258 749.312H622.114L621.106 750.464H619.906ZM652.171 750.032H638.251V748.496C639.467 748.496 640.347 748.4 640.891 748.208C641.467 747.984 641.851 747.568 642.043 746.96C642.235 746.32 642.331 745.36 642.331 744.08V728.912C642.331 727.152 642.363 725.712 642.427 724.592C642.523 723.44 642.699 722.448 642.955 721.616C643.243 720.784 643.675 719.968 644.251 719.168C645.019 718.048 645.931 717.2 646.987 716.624C648.043 716.048 649.435 715.76 651.163 715.76C652.283 715.76 653.259 715.888 654.091 716.144C654.955 716.368 655.643 716.752 656.155 717.296C656.667 717.84 656.923 718.528 656.923 719.36C656.923 720.16 656.699 720.736 656.251 721.088C655.803 721.44 655.291 721.616 654.715 721.616C654.043 721.616 653.515 721.424 653.131 721.04C652.747 720.656 652.363 720.16 651.979 719.552C651.627 718.976 651.275 718.528 650.923 718.208C650.571 717.888 650.123 717.728 649.579 717.728C648.683 717.728 648.059 718.128 647.707 718.928C647.387 719.728 647.227 721.12 647.227 723.104V744.08C647.227 745.36 647.355 746.304 647.611 746.912C647.867 747.52 648.347 747.936 649.051 748.16C649.755 748.384 650.795 748.496 652.171 748.496V750.032ZM653.131 729.872H638.635V727.568H653.131V729.872ZM665.765 750.512C662.277 750.512 659.557 749.488 657.605 747.44C655.685 745.392 654.725 742.4 654.725 738.464C654.725 736.16 655.157 734.128 656.021 732.368C656.917 730.608 658.197 729.232 659.861 728.24C661.525 727.248 663.509 726.752 665.813 726.752C669.269 726.752 671.941 727.776 673.829 729.824C675.749 731.84 676.709 734.608 676.709 738.128C676.709 740.848 676.261 743.136 675.365 744.992C674.469 746.816 673.189 748.192 671.525 749.12C669.893 750.048 667.973 750.512 665.765 750.512ZM665.957 748.448C667.173 748.448 668.181 748.128 668.981 747.488C669.813 746.848 670.421 745.808 670.805 744.368C671.189 742.896 671.381 740.912 671.381 738.416C671.381 735.472 670.901 733.12 669.941 731.36C668.981 729.6 667.525 728.72 665.573 728.72C663.845 728.72 662.501 729.504 661.541 731.072C660.581 732.64 660.101 734.912 660.101 737.888C660.101 741.568 660.597 744.256 661.589 745.952C662.581 747.648 664.037 748.48 665.957 748.448ZM692.568 750.032H679.608V748.496C680.664 748.496 681.432 748.416 681.912 748.256C682.424 748.064 682.744 747.728 682.872 747.248C683.032 746.768 683.112 746.08 683.112 745.184V732.464C683.112 731.6 683.016 730.944 682.824 730.496C682.664 730.048 682.168 729.824 681.336 729.824C680.856 729.824 680.488 729.84 680.232 729.872C679.976 729.904 679.848 729.92 679.848 729.92V728.336L686.28 726.896H687.912V731.84H688.104C688.936 730.688 689.656 729.728 690.264 728.96C690.872 728.192 691.48 727.616 692.088 727.232C692.728 726.816 693.464 726.608 694.296 726.608C695.352 726.608 696.12 726.88 696.6 727.424C697.112 727.968 697.368 728.72 697.368 729.68C697.368 730.736 697.128 731.504 696.648 731.984C696.168 732.464 695.624 732.704 695.016 732.704C694.44 732.704 693.928 732.56 693.48 732.272C693.064 731.952 692.696 731.648 692.376 731.36C692.088 731.072 691.832 730.928 691.608 730.928C691.096 730.928 690.504 731.28 689.832 731.984C689.192 732.688 688.584 733.472 688.008 734.336V744.944C688.008 745.936 688.136 746.688 688.392 747.2C688.68 747.712 689.16 748.064 689.832 748.256C690.504 748.416 691.416 748.496 692.568 748.496V750.032ZM725.08 750.032H713.128V748.496C714.216 748.496 715 748.384 715.48 748.16C715.96 747.936 716.264 747.536 716.392 746.96C716.552 746.384 716.632 745.568 716.632 744.512V735.68C716.632 733.536 716.28 732.112 715.576 731.408C714.904 730.672 714.008 730.304 712.888 730.304C712.056 730.304 711.272 730.48 710.536 730.832C709.832 731.152 709.176 731.552 708.568 732.032C707.96 732.48 707.432 732.944 706.984 733.424L706.6 730.784H707.416C708.632 729.696 709.832 728.752 711.016 727.952C712.232 727.152 713.656 726.752 715.288 726.752C716.952 726.752 718.264 727.216 719.224 728.144C720.216 729.04 720.904 730.224 721.288 731.696C721.352 731.92 721.4 732.16 721.432 732.416C721.464 732.64 721.496 732.88 721.528 733.136V744.512C721.528 745.536 721.592 746.336 721.72 746.912C721.88 747.488 722.216 747.904 722.728 748.16C723.24 748.384 724.024 748.496 725.08 748.496V750.032ZM710.872 750.032H699.112V748.496C700.136 748.496 700.872 748.4 701.32 748.208C701.8 748.016 702.104 747.68 702.232 747.2C702.36 746.688 702.424 745.968 702.424 745.04V731.936C702.424 731.04 702.264 730.464 701.944 730.208C701.624 729.92 701.128 729.776 700.456 729.776C700.072 729.776 699.752 729.792 699.496 729.824C699.272 729.856 699.16 729.872 699.16 729.872V728.288L705.592 726.896H707.176V731.36L707.32 732.512V745.136C707.32 746.032 707.4 746.72 707.56 747.2C707.752 747.68 708.104 748.016 708.616 748.208C709.128 748.4 709.88 748.496 710.872 748.496V750.032ZM739 750.032H727.384V748.496C728.44 748.496 729.192 748.368 729.64 748.112C730.12 747.824 730.408 747.392 730.504 746.816C730.632 746.24 730.696 745.472 730.696 744.512V735.872C730.696 734.368 730.52 733.232 730.168 732.464C729.848 731.664 729.384 731.104 728.776 730.784C728.2 730.464 727.528 730.304 726.76 730.304C725.736 730.304 724.728 730.64 723.736 731.312C722.744 731.984 721.864 732.672 721.096 733.376L720.472 730.88H721.24C722.52 729.568 723.784 728.56 725.032 727.856C726.312 727.12 727.64 726.752 729.016 726.752C731.032 726.752 732.632 727.408 733.816 728.72C735 730 735.592 732.128 735.592 735.104V744.512C735.592 745.472 735.656 746.256 735.784 746.864C735.912 747.44 736.216 747.856 736.696 748.112C737.176 748.368 737.944 748.496 739 748.496V750.032ZM758.881 750.416C757.057 750.416 755.617 749.936 754.561 748.976C753.537 748.016 753.025 746.704 753.025 745.04C753.025 743.728 753.313 742.624 753.889 741.728C754.497 740.832 755.281 740.08 756.241 739.472C757.201 738.864 758.241 738.368 759.361 737.984C760.513 737.568 761.633 737.216 762.721 736.928C763.809 736.64 764.785 736.368 765.649 736.112V733.904C765.649 731.856 765.329 730.432 764.689 729.632C764.081 728.832 763.105 728.432 761.761 728.432C760.513 728.432 759.697 728.704 759.313 729.248C758.961 729.76 758.785 730.736 758.785 732.176C758.785 733.008 758.561 733.632 758.113 734.048C757.665 734.432 757.073 734.624 756.337 734.624C755.793 734.624 755.265 734.416 754.753 734C754.273 733.584 754.033 732.928 754.033 732.032C754.033 731.136 754.385 730.288 755.089 729.488C755.793 728.656 756.785 728 758.065 727.52C759.377 727.008 760.913 726.752 762.673 726.752C765.425 726.752 767.425 727.344 768.673 728.528C769.921 729.712 770.545 731.584 770.545 734.144V744.896C770.545 745.888 770.657 746.528 770.881 746.816C771.105 747.104 771.473 747.248 771.985 747.248C772.433 747.248 772.833 747.136 773.185 746.912C773.569 746.656 773.937 746.352 774.289 746L775.105 746.864C774.305 748.016 773.505 748.896 772.705 749.504C771.905 750.08 770.801 750.368 769.393 750.368C768.081 750.368 767.217 750.064 766.801 749.456C766.385 748.816 766.097 747.888 765.937 746.672L765.649 745.952V737.792C764.273 738.144 763.009 738.56 761.857 739.04C760.737 739.488 759.825 740.096 759.121 740.864C758.449 741.6 758.113 742.576 758.113 743.792C758.113 744.976 758.385 745.904 758.929 746.576C759.473 747.216 760.225 747.536 761.185 747.536C761.953 747.536 762.737 747.344 763.537 746.96C764.369 746.576 765.217 745.984 766.081 745.184L766.417 747.2H765.793C765.057 747.84 764.353 748.416 763.681 748.928C763.041 749.408 762.337 749.776 761.569 750.032C760.833 750.288 759.937 750.416 758.881 750.416ZM802.807 750.032H790.999V748.496C792.087 748.496 792.871 748.4 793.351 748.208C793.831 747.984 794.135 747.632 794.263 747.152C794.391 746.64 794.455 745.936 794.455 745.04V736.688C794.455 734.928 794.263 733.584 793.879 732.656C793.495 731.728 792.967 731.104 792.295 730.784C791.655 730.464 790.951 730.304 790.183 730.304C789.319 730.304 788.535 730.464 787.831 730.784C787.159 731.104 786.535 731.504 785.959 731.984C785.415 732.464 784.871 732.928 784.327 733.376L784.039 730.784H784.807C786.087 729.632 787.303 728.672 788.455 727.904C789.607 727.136 790.935 726.752 792.439 726.752C794.711 726.752 796.423 727.504 797.575 729.008C798.759 730.48 799.351 732.656 799.351 735.536V745.04C799.351 745.904 799.415 746.592 799.543 747.104C799.703 747.616 800.023 747.984 800.503 748.208C801.015 748.4 801.783 748.496 802.807 748.496V750.032ZM788.311 750.032H776.503V748.496C777.559 748.496 778.311 748.4 778.759 748.208C779.239 747.984 779.527 747.616 779.623 747.104C779.751 746.592 779.815 745.904 779.815 745.04V731.888C779.815 731.024 779.639 730.464 779.287 730.208C778.967 729.92 778.487 729.776 777.847 729.776C777.431 729.776 777.111 729.792 776.887 729.824C776.663 729.856 776.551 729.872 776.551 729.872V728.288L783.031 726.896H784.615V731.36L784.759 732.464V745.04C784.759 745.904 784.823 746.592 784.951 747.104C785.079 747.616 785.383 747.984 785.863 748.208C786.375 748.4 787.191 748.496 788.311 748.496V750.032ZM806.701 761.312C805.677 761.312 804.813 761.104 804.109 760.688C803.437 760.272 803.101 759.584 803.101 758.624C803.101 757.856 803.325 757.296 803.773 756.944C804.221 756.592 804.749 756.416 805.357 756.416C806.189 756.416 806.925 756.592 807.565 756.944C808.237 757.328 808.781 757.52 809.197 757.52C809.677 757.52 810.173 757.216 810.685 756.608C811.197 756 811.693 755.264 812.173 754.4C812.653 753.536 813.037 752.704 813.325 751.904C813.613 751.104 813.757 750.512 813.757 750.128C813.757 749.648 813.549 748.944 813.133 748.016C812.749 747.056 812.365 746.192 811.981 745.424L804.973 730.592C804.749 730.048 804.429 729.632 804.013 729.344C803.597 729.024 802.957 728.864 802.093 728.864V727.328H813.229V728.912C812.173 728.912 811.453 729.024 811.069 729.248C810.685 729.44 810.493 729.744 810.493 730.16C810.493 730.48 810.573 730.832 810.733 731.216C810.893 731.568 811.053 731.92 811.213 732.272L815.773 742.256L816.493 744.608H816.829L821.389 731.168C821.453 731.008 821.501 730.816 821.533 730.592C821.565 730.368 821.581 730.192 821.581 730.064C821.581 729.584 821.341 729.264 820.861 729.104C820.381 728.944 819.757 728.864 818.989 728.864V727.328H827.389V728.864C826.429 728.864 825.725 729.072 825.277 729.488C824.829 729.904 824.429 730.576 824.077 731.504L816.253 750.992C815.293 753.392 814.333 755.344 813.373 756.848C812.445 758.384 811.437 759.504 810.349 760.208C809.293 760.944 808.077 761.312 806.701 761.312ZM865.697 737.984L863.105 750.032H858.641L854.321 726.032H858.401L861.137 745.088L864.305 730.352H867.425L870.305 745.088L873.041 726.032H876.881L872.609 750.032H868.001L865.697 737.984ZM886.819 716.432V726.992C887.779 726.352 888.979 726.032 890.419 726.032H892.627C895.219 726.032 897.139 726.64 898.387 727.856C899.667 729.072 900.307 731.024 900.307 733.712V750.032H896.227V732.752C896.227 731.792 895.939 731.04 895.363 730.496C894.819 729.92 894.067 729.632 893.107 729.632H889.939C888.915 729.632 888.147 729.904 887.635 730.448C887.123 730.96 886.851 731.52 886.819 732.128V750.032H882.739V716.432H886.819ZM919.701 716.432V720.752H915.141V716.432H919.701ZM908.325 729.632V726.032H919.461V746.432H926.565V750.032H915.381V729.632H908.325ZM944.903 750.032C943.815 750.032 942.855 749.648 942.023 748.88C941.223 748.112 940.823 746.896 940.823 745.232V720.032H933.767V716.432H944.903V744.992C944.903 745.504 945.031 745.872 945.287 746.096C945.543 746.32 945.975 746.432 946.583 746.432H952.967V750.032H944.903ZM969.001 750.032C966.185 750.032 964.121 749.44 962.809 748.256C961.497 747.04 960.841 745.072 960.841 742.352V733.712C960.841 730.96 961.433 728.992 962.617 727.808C963.801 726.624 965.769 726.032 968.521 726.032H970.777C973.049 726.032 974.761 726.672 975.913 727.952C977.097 729.2 977.689 731.04 977.689 733.472V739.712H964.921V743.312C964.921 744.304 965.225 745.072 965.833 745.616C966.441 746.16 967.337 746.432 968.521 746.432H976.153V750.032H969.001ZM973.705 732.512C973.705 731.68 973.433 730.992 972.889 730.448C972.345 729.904 971.657 729.632 970.825 729.632H968.041C966.889 729.632 966.073 729.904 965.593 730.448C965.145 730.96 964.921 731.728 964.921 732.752V736.112H973.705V732.512ZM1021.47 750.032H1009.47V748.496C1010.52 748.496 1011.29 748.4 1011.77 748.208C1012.25 747.984 1012.54 747.616 1012.64 747.104C1012.76 746.592 1012.83 745.904 1012.83 745.04V721.232C1012.83 720.24 1012.62 719.648 1012.2 719.456C1011.82 719.264 1011.32 719.168 1010.72 719.168C1010.3 719.168 1009.95 719.184 1009.66 719.216C1009.37 719.248 1009.23 719.264 1009.23 719.264V717.776L1015.9 716.144H1017.72V744.992C1017.72 745.92 1017.8 746.64 1017.96 747.152C1018.12 747.632 1018.46 747.984 1018.97 748.208C1019.48 748.4 1020.32 748.496 1021.47 748.496V750.032ZM1035.05 750.512C1031.56 750.512 1028.84 749.488 1026.89 747.44C1024.97 745.392 1024.01 742.4 1024.01 738.464C1024.01 736.16 1024.44 734.128 1025.3 732.368C1026.2 730.608 1027.48 729.232 1029.14 728.24C1030.81 727.248 1032.79 726.752 1035.09 726.752C1038.55 726.752 1041.22 727.776 1043.11 729.824C1045.03 731.84 1045.99 734.608 1045.99 738.128C1045.99 740.848 1045.54 743.136 1044.65 744.992C1043.75 746.816 1042.47 748.192 1040.81 749.12C1039.17 750.048 1037.25 750.512 1035.05 750.512ZM1035.24 748.448C1036.45 748.448 1037.46 748.128 1038.26 747.488C1039.09 746.848 1039.7 745.808 1040.09 744.368C1040.47 742.896 1040.66 740.912 1040.66 738.416C1040.66 735.472 1040.18 733.12 1039.22 731.36C1038.26 729.6 1036.81 728.72 1034.85 728.72C1033.13 728.72 1031.78 729.504 1030.82 731.072C1029.86 732.64 1029.38 734.912 1029.38 737.888C1029.38 741.568 1029.88 744.256 1030.87 745.952C1031.86 747.648 1033.32 748.48 1035.24 748.448ZM1060.27 750.512C1056.78 750.512 1054.06 749.488 1052.11 747.44C1050.19 745.392 1049.23 742.4 1049.23 738.464C1049.23 736.16 1049.66 734.128 1050.52 732.368C1051.42 730.608 1052.7 729.232 1054.36 728.24C1056.03 727.248 1058.01 726.752 1060.31 726.752C1063.77 726.752 1066.44 727.776 1068.33 729.824C1070.25 731.84 1071.21 734.608 1071.21 738.128C1071.21 740.848 1070.76 743.136 1069.87 744.992C1068.97 746.816 1067.69 748.192 1066.03 749.12C1064.39 750.048 1062.47 750.512 1060.27 750.512ZM1060.46 748.448C1061.67 748.448 1062.68 748.128 1063.48 747.488C1064.31 746.848 1064.92 745.808 1065.31 744.368C1065.69 742.896 1065.88 740.912 1065.88 738.416C1065.88 735.472 1065.4 733.12 1064.44 731.36C1063.48 729.6 1062.03 728.72 1060.07 728.72C1058.35 728.72 1057 729.504 1056.04 731.072C1055.08 732.64 1054.6 734.912 1054.6 737.888C1054.6 741.568 1055.1 744.256 1056.09 745.952C1057.08 747.648 1058.54 748.48 1060.46 748.448ZM1086.83 760.592H1073.77V759.056C1075.28 759.056 1076.24 758.816 1076.65 758.336C1077.07 757.856 1077.28 756.944 1077.28 755.6V732.176C1077.28 731.248 1077.16 730.608 1076.94 730.256C1076.75 729.872 1076.25 729.68 1075.45 729.68C1075.13 729.68 1074.8 729.696 1074.44 729.728C1074.09 729.76 1073.92 729.776 1073.92 729.776V728.192L1080.4 726.848H1082.08V730.88H1082.27C1083.45 729.568 1084.64 728.56 1085.82 727.856C1087 727.12 1088.32 726.752 1089.76 726.752C1091.36 726.752 1092.75 727.184 1093.93 728.048C1095.12 728.912 1096.04 730.144 1096.72 731.744C1097.39 733.344 1097.72 735.264 1097.72 737.504C1097.72 740.224 1097.24 742.56 1096.28 744.512C1095.36 746.432 1094.09 747.92 1092.49 748.976C1090.89 750 1089.13 750.512 1087.21 750.512C1086.28 750.512 1085.42 750.416 1084.62 750.224C1083.82 750.032 1083.07 749.696 1082.36 749.216H1082.17V755.264C1082.17 756.288 1082.3 757.072 1082.56 757.616C1082.81 758.16 1083.28 758.528 1083.95 758.72C1084.62 758.912 1085.58 759.008 1086.83 759.008V760.592ZM1086.97 748.4C1088.54 748.4 1089.84 747.648 1090.86 746.144C1091.88 744.608 1092.4 742.176 1092.4 738.848C1092.4 735.904 1091.95 733.76 1091.05 732.416C1090.19 731.072 1088.96 730.4 1087.36 730.4C1086.17 730.4 1085.13 730.72 1084.24 731.36C1083.34 731.968 1082.65 732.56 1082.17 733.136V745.472C1082.46 745.792 1082.83 746.192 1083.28 746.672C1083.72 747.12 1084.25 747.52 1084.86 747.872C1085.47 748.224 1086.17 748.4 1086.97 748.4ZM1123.84 750.032H1111.99V748.496C1113.04 748.496 1113.81 748.4 1114.29 748.208C1114.77 748.016 1115.07 747.664 1115.2 747.152C1115.33 746.64 1115.39 745.936 1115.39 745.04V732.032C1115.39 730.976 1115.2 730.336 1114.82 730.112C1114.47 729.856 1113.92 729.728 1113.19 729.728C1112.87 729.728 1112.58 729.744 1112.32 729.776C1112.1 729.808 1111.99 729.824 1111.99 729.824V728.24L1118.42 726.896H1120.29V744.992C1120.29 745.92 1120.35 746.64 1120.48 747.152C1120.64 747.664 1120.98 748.016 1121.49 748.208C1122 748.4 1122.79 748.496 1123.84 748.496V750.032ZM1117.84 723.392C1116.95 723.392 1116.21 723.104 1115.63 722.528C1115.06 721.92 1114.77 721.184 1114.77 720.32C1114.77 719.456 1115.04 718.736 1115.59 718.16C1116.16 717.584 1116.91 717.296 1117.84 717.296C1118.83 717.296 1119.6 717.584 1120.15 718.16C1120.69 718.736 1120.96 719.456 1120.96 720.32C1120.96 721.184 1120.69 721.92 1120.15 722.528C1119.6 723.104 1118.83 723.392 1117.84 723.392ZM1152.73 750.032H1140.92V748.496C1142.01 748.496 1142.79 748.4 1143.27 748.208C1143.75 747.984 1144.06 747.632 1144.18 747.152C1144.31 746.64 1144.38 745.936 1144.38 745.04V736.688C1144.38 734.928 1144.18 733.584 1143.8 732.656C1143.42 731.728 1142.89 731.104 1142.22 730.784C1141.58 730.464 1140.87 730.304 1140.1 730.304C1139.24 730.304 1138.46 730.464 1137.75 730.784C1137.08 731.104 1136.46 731.504 1135.88 731.984C1135.34 732.464 1134.79 732.928 1134.25 733.376L1133.96 730.784H1134.73C1136.01 729.632 1137.22 728.672 1138.38 727.904C1139.53 727.136 1140.86 726.752 1142.36 726.752C1144.63 726.752 1146.34 727.504 1147.5 729.008C1148.68 730.48 1149.27 732.656 1149.27 735.536V745.04C1149.27 745.904 1149.34 746.592 1149.46 747.104C1149.62 747.616 1149.94 747.984 1150.42 748.208C1150.94 748.4 1151.7 748.496 1152.73 748.496V750.032ZM1138.23 750.032H1126.42V748.496C1127.48 748.496 1128.23 748.4 1128.68 748.208C1129.16 747.984 1129.45 747.616 1129.54 747.104C1129.67 746.592 1129.74 745.904 1129.74 745.04V731.888C1129.74 731.024 1129.56 730.464 1129.21 730.208C1128.89 729.92 1128.41 729.776 1127.77 729.776C1127.35 729.776 1127.03 729.792 1126.81 729.824C1126.58 729.856 1126.47 729.872 1126.47 729.872V728.288L1132.95 726.896H1134.54V731.36L1134.68 732.464V745.04C1134.68 745.904 1134.74 746.592 1134.87 747.104C1135 747.616 1135.3 747.984 1135.78 748.208C1136.3 748.4 1137.11 748.496 1138.23 748.496V750.032ZM1168.7 745.376L1169.7 746.336C1169.1 747.2 1168.49 747.952 1167.88 748.592C1167.3 749.2 1166.63 749.68 1165.86 750.032C1165.13 750.384 1164.14 750.56 1162.89 750.56C1161.22 750.56 1159.98 750.08 1159.14 749.12C1158.34 748.16 1157.94 746.512 1157.94 744.176V729.872H1155.21V728.48C1156.39 727.744 1157.45 726.768 1158.38 725.552C1159.34 724.336 1160.26 722.704 1161.16 720.656H1162.84V727.568H1168.46V729.872H1162.84V742.688C1162.84 744.416 1163 745.616 1163.32 746.288C1163.64 746.928 1164.26 747.248 1165.19 747.248C1166.02 747.248 1166.66 747.088 1167.11 746.768C1167.59 746.448 1168.12 745.984 1168.7 745.376ZM1182.19 750.512C1178.7 750.512 1175.98 749.488 1174.03 747.44C1172.11 745.392 1171.15 742.4 1171.15 738.464C1171.15 736.16 1171.58 734.128 1172.44 732.368C1173.34 730.608 1174.62 729.232 1176.28 728.24C1177.95 727.248 1179.93 726.752 1182.23 726.752C1185.69 726.752 1188.36 727.776 1190.25 729.824C1192.17 731.84 1193.13 734.608 1193.13 738.128C1193.13 740.848 1192.68 743.136 1191.79 744.992C1190.89 746.816 1189.61 748.192 1187.95 749.12C1186.31 750.048 1184.39 750.512 1182.19 750.512ZM1182.38 748.448C1183.59 748.448 1184.6 748.128 1185.4 747.488C1186.23 746.848 1186.84 745.808 1187.23 744.368C1187.61 742.896 1187.8 740.912 1187.8 738.416C1187.8 735.472 1187.32 733.12 1186.36 731.36C1185.4 729.6 1183.95 728.72 1181.99 728.72C1180.27 728.72 1178.92 729.504 1177.96 731.072C1177 732.64 1176.52 734.912 1176.52 737.888C1176.52 741.568 1177.02 744.256 1178.01 745.952C1179 747.648 1180.46 748.48 1182.38 748.448ZM1213.66 750.416C1211.84 750.416 1210.4 749.936 1209.34 748.976C1208.32 748.016 1207.81 746.704 1207.81 745.04C1207.81 743.728 1208.09 742.624 1208.67 741.728C1209.28 740.832 1210.06 740.08 1211.02 739.472C1211.98 738.864 1213.02 738.368 1214.14 737.984C1215.29 737.568 1216.41 737.216 1217.5 736.928C1218.59 736.64 1219.57 736.368 1220.43 736.112V733.904C1220.43 731.856 1220.11 730.432 1219.47 729.632C1218.86 728.832 1217.89 728.432 1216.54 728.432C1215.29 728.432 1214.48 728.704 1214.09 729.248C1213.74 729.76 1213.57 730.736 1213.57 732.176C1213.57 733.008 1213.34 733.632 1212.89 734.048C1212.45 734.432 1211.85 734.624 1211.12 734.624C1210.57 734.624 1210.05 734.416 1209.53 734C1209.05 733.584 1208.81 732.928 1208.81 732.032C1208.81 731.136 1209.17 730.288 1209.87 729.488C1210.57 728.656 1211.57 728 1212.85 727.52C1214.16 727.008 1215.69 726.752 1217.45 726.752C1220.21 726.752 1222.21 727.344 1223.45 728.528C1224.7 729.712 1225.33 731.584 1225.33 734.144V744.896C1225.33 745.888 1225.44 746.528 1225.66 746.816C1225.89 747.104 1226.25 747.248 1226.77 747.248C1227.21 747.248 1227.61 747.136 1227.97 746.912C1228.35 746.656 1228.72 746.352 1229.07 746L1229.89 746.864C1229.09 748.016 1228.29 748.896 1227.49 749.504C1226.69 750.08 1225.58 750.368 1224.17 750.368C1222.86 750.368 1222 750.064 1221.58 749.456C1221.17 748.816 1220.88 747.888 1220.72 746.672L1220.43 745.952V737.792C1219.05 738.144 1217.79 738.56 1216.64 739.04C1215.52 739.488 1214.61 740.096 1213.9 740.864C1213.23 741.6 1212.89 742.576 1212.89 743.792C1212.89 744.976 1213.17 745.904 1213.71 746.576C1214.25 747.216 1215.01 747.536 1215.97 747.536C1216.73 747.536 1217.52 747.344 1218.32 746.96C1219.15 746.576 1220 745.984 1220.86 745.184L1221.2 747.2H1220.57C1219.84 747.84 1219.13 748.416 1218.46 748.928C1217.82 749.408 1217.12 749.776 1216.35 750.032C1215.61 750.288 1214.72 750.416 1213.66 750.416ZM1270.36 720.032C1269.85 720.032 1269.43 720.176 1269.11 720.464C1268.82 720.72 1268.68 721.056 1268.68 721.472V726.032H1276.41V729.632H1268.68V746.432H1274.49V750.032H1260.52V746.432H1264.6V729.632H1260.52V726.032H1264.6V721.712C1264.6 720.08 1265.06 718.8 1265.99 717.872C1266.92 716.912 1268.12 716.432 1269.59 716.432H1276.89V720.032H1270.36ZM1303.58 742.352C1303.58 745.04 1302.9 746.992 1301.56 748.208C1300.25 749.424 1298.2 750.032 1295.42 750.032H1293.83C1291.05 750.032 1288.98 749.424 1287.64 748.208C1286.33 746.992 1285.67 745.04 1285.67 742.352V733.712C1285.67 731.024 1286.33 729.072 1287.64 727.856C1288.98 726.64 1291.05 726.032 1293.83 726.032H1295.42C1298.2 726.032 1300.25 726.64 1301.56 727.856C1302.9 729.072 1303.58 731.024 1303.58 733.712V742.352ZM1299.5 732.752C1299.5 731.76 1299.19 730.992 1298.58 730.448C1297.98 729.904 1297.08 729.632 1295.9 729.632H1293.35C1292.17 729.632 1291.27 729.904 1290.66 730.448C1290.06 730.992 1289.75 731.76 1289.75 732.752V743.312C1289.75 744.304 1290.06 745.072 1290.66 745.616C1291.27 746.16 1292.17 746.432 1293.35 746.432H1295.9C1297.08 746.432 1297.98 746.16 1298.58 745.616C1299.19 745.072 1299.5 744.304 1299.5 743.312V732.752ZM1315.91 746.432V729.632H1312.41V726.032H1319.75V727.328C1320.81 726.464 1322.09 726.032 1323.59 726.032H1328.54V729.872H1323.11C1322.09 729.872 1321.32 730.208 1320.81 730.88C1320.3 731.52 1320.03 732.176 1319.99 732.848V746.432H1325.23V750.032H1312.41V746.432H1315.91ZM1372.75 750.032H1360.75V748.496C1361.81 748.496 1362.57 748.4 1363.05 748.208C1363.53 747.984 1363.82 747.616 1363.92 747.104C1364.05 746.592 1364.11 745.904 1364.11 745.04V721.232C1364.11 720.24 1363.9 719.648 1363.49 719.456C1363.1 719.264 1362.61 719.168 1362 719.168C1361.58 719.168 1361.23 719.184 1360.94 719.216C1360.65 719.248 1360.51 719.264 1360.51 719.264V717.776L1367.18 716.144H1369.01V744.992C1369.01 745.92 1369.09 746.64 1369.25 747.152C1369.41 747.632 1369.74 747.984 1370.25 748.208C1370.77 748.4 1371.6 748.496 1372.75 748.496V750.032ZM1386.33 750.512C1382.84 750.512 1380.12 749.488 1378.17 747.44C1376.25 745.392 1375.29 742.4 1375.29 738.464C1375.29 736.16 1375.72 734.128 1376.58 732.368C1377.48 730.608 1378.76 729.232 1380.42 728.24C1382.09 727.248 1384.07 726.752 1386.38 726.752C1389.83 726.752 1392.5 727.776 1394.39 729.824C1396.31 731.84 1397.27 734.608 1397.27 738.128C1397.27 740.848 1396.82 743.136 1395.93 744.992C1395.03 746.816 1393.75 748.192 1392.09 749.12C1390.46 750.048 1388.54 750.512 1386.33 750.512ZM1386.52 748.448C1387.74 748.448 1388.74 748.128 1389.54 747.488C1390.38 746.848 1390.98 745.808 1391.37 744.368C1391.75 742.896 1391.94 740.912 1391.94 738.416C1391.94 735.472 1391.46 733.12 1390.5 731.36C1389.54 729.6 1388.09 728.72 1386.14 728.72C1384.41 728.72 1383.06 729.504 1382.1 731.072C1381.14 732.64 1380.66 734.912 1380.66 737.888C1380.66 741.568 1381.16 744.256 1382.15 745.952C1383.14 747.648 1384.6 748.48 1386.52 748.448ZM1411.55 750.512C1408.06 750.512 1405.34 749.488 1403.39 747.44C1401.47 745.392 1400.51 742.4 1400.51 738.464C1400.51 736.16 1400.94 734.128 1401.8 732.368C1402.7 730.608 1403.98 729.232 1405.64 728.24C1407.31 727.248 1409.29 726.752 1411.59 726.752C1415.05 726.752 1417.72 727.776 1419.61 729.824C1421.53 731.84 1422.49 734.608 1422.49 738.128C1422.49 740.848 1422.04 743.136 1421.15 744.992C1420.25 746.816 1418.97 748.192 1417.31 749.12C1415.67 750.048 1413.75 750.512 1411.55 750.512ZM1411.74 748.448C1412.95 748.448 1413.96 748.128 1414.76 747.488C1415.59 746.848 1416.2 745.808 1416.59 744.368C1416.97 742.896 1417.16 740.912 1417.16 738.416C1417.16 735.472 1416.68 733.12 1415.72 731.36C1414.76 729.6 1413.31 728.72 1411.35 728.72C1409.63 728.72 1408.28 729.504 1407.32 731.072C1406.36 732.64 1405.88 734.912 1405.88 737.888C1405.88 741.568 1406.38 744.256 1407.37 745.952C1408.36 747.648 1409.82 748.48 1411.74 748.448ZM1438.11 760.592H1425.05V759.056C1426.56 759.056 1427.52 758.816 1427.93 758.336C1428.35 757.856 1428.56 756.944 1428.56 755.6V732.176C1428.56 731.248 1428.45 730.608 1428.22 730.256C1428.03 729.872 1427.53 729.68 1426.73 729.68C1426.41 729.68 1426.08 729.696 1425.73 729.728C1425.37 729.76 1425.2 729.776 1425.2 729.776V728.192L1431.68 726.848H1433.36V730.88H1433.55C1434.73 729.568 1435.92 728.56 1437.1 727.856C1438.29 727.12 1439.6 726.752 1441.04 726.752C1442.64 726.752 1444.03 727.184 1445.21 728.048C1446.4 728.912 1447.33 730.144 1448 731.744C1448.67 733.344 1449.01 735.264 1449.01 737.504C1449.01 740.224 1448.53 742.56 1447.57 744.512C1446.64 746.432 1445.37 747.92 1443.77 748.976C1442.17 750 1440.41 750.512 1438.49 750.512C1437.57 750.512 1436.7 750.416 1435.9 750.224C1435.1 750.032 1434.35 749.696 1433.65 749.216H1433.45V755.264C1433.45 756.288 1433.58 757.072 1433.84 757.616C1434.09 758.16 1434.56 758.528 1435.23 758.72C1435.9 758.912 1436.86 759.008 1438.11 759.008V760.592ZM1438.25 748.4C1439.82 748.4 1441.12 747.648 1442.14 746.144C1443.17 744.608 1443.68 742.176 1443.68 738.848C1443.68 735.904 1443.23 733.76 1442.33 732.416C1441.47 731.072 1440.24 730.4 1438.64 730.4C1437.45 730.4 1436.41 730.72 1435.52 731.36C1434.62 731.968 1433.93 732.56 1433.45 733.136V745.472C1433.74 745.792 1434.11 746.192 1434.56 746.672C1435.01 747.12 1435.53 747.52 1436.14 747.872C1436.75 748.224 1437.45 748.4 1438.25 748.4ZM1461.81 741.536H1459.55V740.24C1459.55 738.992 1459.71 737.904 1460.03 736.976C1460.39 736.048 1460.82 735.184 1461.33 734.384C1461.84 733.584 1462.34 732.768 1462.82 731.936C1463.33 731.072 1463.75 730.112 1464.07 729.056C1464.39 727.968 1464.55 726.688 1464.55 725.216C1464.55 723.328 1464.13 721.952 1463.3 721.088C1462.47 720.224 1461.35 719.792 1459.94 719.792C1458.66 719.792 1457.7 720.048 1457.06 720.56C1456.45 721.04 1456.15 721.648 1456.15 722.384C1456.15 722.896 1456.23 723.296 1456.39 723.584C1456.58 723.872 1456.75 724.176 1456.91 724.496C1457.07 724.784 1457.15 725.232 1457.15 725.84C1457.15 726.64 1456.91 727.216 1456.43 727.568C1455.95 727.92 1455.41 728.096 1454.8 728.096C1453.94 728.096 1453.25 727.808 1452.74 727.232C1452.26 726.624 1452.02 725.728 1452.02 724.544C1452.02 723.232 1452.37 722.08 1453.07 721.088C1453.81 720.064 1454.83 719.28 1456.15 718.736C1457.46 718.16 1458.96 717.872 1460.66 717.872C1462.23 717.872 1463.7 718.112 1465.07 718.592C1466.48 719.072 1467.62 719.84 1468.48 720.896C1469.35 721.952 1469.78 723.344 1469.78 725.072C1469.78 726.544 1469.51 727.872 1468.96 729.056C1468.42 730.208 1467.76 731.28 1466.99 732.272C1466.23 733.232 1465.44 734.16 1464.64 735.056C1463.84 735.952 1463.17 736.864 1462.63 737.792C1462.08 738.72 1461.81 739.712 1461.81 740.768V741.536ZM1460.75 750.416C1459.73 750.416 1458.96 750.16 1458.45 749.648C1457.94 749.104 1457.68 748.384 1457.68 747.488C1457.68 746.624 1457.94 745.904 1458.45 745.328C1458.99 744.72 1459.78 744.416 1460.8 744.416C1461.73 744.416 1462.47 744.72 1463.01 745.328C1463.55 745.904 1463.81 746.64 1463.78 747.536C1463.78 748.4 1463.52 749.104 1463.01 749.648C1462.5 750.16 1461.75 750.416 1460.75 750.416Z" fill="black"/>
<rect id="Rectangle 1" x="299.532" y="657.532" width="1235" height="154" rx="27.5" stroke="#FA8231" stroke-width="5"/>
</g>
</g>
</svg>
