<svg width="1921" height="1080" viewBox="0 0 1921 1080" fill="none" xmlns="http://www.w3.org/2000/svg">
<g id="Positionality">
<rect width="1920" height="1080" transform="translate(0.0161133)" fill="white"/>
<path id="Positionality_2" d="M690.33 117.33C698.205 117.33 703.98 118.59 707.865 120.795C714.375 124.68 715.95 130.98 715.95 135.18C715.95 140.85 714.06 147.57 708.915 151.875C704.61 155.445 698.205 156.915 688.965 156.915C686.445 156.915 686.76 156.81 685.29 156.6C683.82 155.655 683.19 154.185 683.19 152.19C684.66 152.4 686.865 152.505 688.44 152.505C697.05 152.505 700.095 147.885 700.095 136.965C700.095 124.155 693.06 121.635 686.97 121.635C681.405 121.635 680.67 123.84 680.67 130.98V173.19C680.67 181.905 683.61 182.325 689.385 182.64C690.435 183.27 690.435 185.58 689.385 186.21C685.185 186.105 677.625 186 673.425 186C669.225 186 661.455 186.105 657.255 186.21C656.205 185.58 656.205 183.27 657.255 182.64C663.03 182.325 665.97 181.905 665.97 173.19V131.085C665.97 122.37 663.03 121.95 657.255 121.635C656.205 121.005 656.205 118.695 657.255 118.065C661.455 118.065 686.13 117.33 690.33 117.33ZM745.798 143.79C738.763 143.79 737.083 152.295 737.083 161.955C737.083 169.725 740.443 182.64 749.053 182.64C752.833 182.64 757.768 179.385 757.768 166.68C757.768 152.295 752.938 143.79 745.798 143.79ZM722.383 164.265C722.383 158.07 724.063 151.77 728.053 147.15C732.253 142.425 738.763 139.38 747.478 139.38C763.018 139.38 772.468 149.67 772.468 163.32C772.468 169.2 770.578 176.34 765.328 181.065C760.918 184.95 754.723 187.05 747.373 187.05C733.198 187.05 722.383 178.02 722.383 164.265ZM781.37 170.67C783.05 170.25 783.89 170.145 785.57 170.46C787.775 178.23 792.71 182.955 797.54 182.955C800.375 182.955 803.735 181.275 803.735 177.81C803.735 175.29 802.58 171.51 798.38 169.62C795.125 168.255 789.455 164.475 786.2 160.905C784.1 158.7 782.945 156.18 782.945 153.03C782.945 150.195 784.1 147.36 786.515 144.84C789.77 141.48 795.125 139.38 800.69 139.38C806.465 139.38 809.09 140.43 812.45 141.9C813.395 145.26 813.815 149.25 813.815 153.03C812.765 153.765 811.61 153.87 809.72 153.555C807.095 147.15 803.525 143.79 799.85 143.79C796.805 143.79 794.81 145.785 794.81 148.2C794.81 151.35 796.28 154.605 800.48 156.39C805.31 158.49 809.615 161.115 812.66 164.475C814.97 167.1 815.915 170.04 815.915 173.505C815.915 182.745 805.835 187.05 797.75 187.05C791.765 187.05 785.045 185.475 783.155 184.74C782.21 180.855 781.79 175.92 781.37 170.67ZM845.499 173.19C845.499 181.905 846.654 182.22 853.059 182.64C853.689 183.27 853.689 185.58 853.059 186.21C848.544 186.105 844.239 186 838.674 186C833.004 186 828.699 186.105 824.289 186.21C823.659 185.58 823.659 183.27 824.289 182.64C830.694 182.115 831.849 181.905 831.849 173.19V153.03C831.849 147.045 830.694 146.31 825.024 145.68C824.814 145.05 824.604 142.95 824.814 142.32C832.059 141.375 840.459 140.535 843.504 139.38C844.974 139.38 845.919 140.01 845.919 141.165C845.919 141.165 845.499 147.045 845.499 152.295V173.19ZM831.324 123.42C831.324 120.27 833.739 116.91 838.674 116.91C843.084 116.91 845.499 120.69 845.499 123.84C845.499 126.57 842.769 130.35 838.044 130.35C833.844 130.35 831.324 126.885 831.324 123.42ZM861.592 140.43H864.532C864.532 132.135 864.952 129.3 865.687 128.25C866.317 127.305 869.467 126.675 871.252 125.94C872.827 125.31 876.817 124.155 877.552 124.155C878.077 124.155 878.392 124.365 878.392 124.995C878.392 124.995 878.077 129.93 877.867 136.86L877.762 140.43H890.047C890.572 140.43 890.887 140.64 890.887 141.06V144.315C890.887 145.26 889.417 145.68 888.367 145.68H877.762C877.762 156.18 877.867 167.415 877.867 172.665C877.867 177.915 880.177 179.7 882.487 179.7C884.482 179.7 887.107 179.28 888.472 178.23C889.732 179.28 890.362 179.91 890.362 181.17C888.262 184.11 881.857 187.05 876.082 187.05C873.562 187.05 869.677 186.21 867.367 184.11C865.057 182.22 864.217 178.65 864.217 174.975C864.217 169.725 864.217 156.285 864.532 145.68H857.707C857.287 145.68 857.182 145.575 857.182 145.05V142.005C858.442 140.85 860.122 140.535 861.592 140.43ZM916.969 173.19C916.969 181.905 918.124 182.22 924.529 182.64C925.159 183.27 925.159 185.58 924.529 186.21C920.014 186.105 915.709 186 910.144 186C904.474 186 900.169 186.105 895.759 186.21C895.129 185.58 895.129 183.27 895.759 182.64C902.164 182.115 903.319 181.905 903.319 173.19V153.03C903.319 147.045 902.164 146.31 896.494 145.68C896.284 145.05 896.074 142.95 896.284 142.32C903.529 141.375 911.929 140.535 914.974 139.38C916.444 139.38 917.389 140.01 917.389 141.165C917.389 141.165 916.969 147.045 916.969 152.295V173.19ZM902.794 123.42C902.794 120.27 905.209 116.91 910.144 116.91C914.554 116.91 916.969 120.69 916.969 123.84C916.969 126.57 914.239 130.35 909.514 130.35C905.314 130.35 902.794 126.885 902.794 123.42ZM953.747 143.79C946.712 143.79 945.032 152.295 945.032 161.955C945.032 169.725 948.392 182.64 957.002 182.64C960.782 182.64 965.717 179.385 965.717 166.68C965.717 152.295 960.887 143.79 953.747 143.79ZM930.332 164.265C930.332 158.07 932.012 151.77 936.002 147.15C940.202 142.425 946.712 139.38 955.427 139.38C970.967 139.38 980.417 149.67 980.417 163.32C980.417 169.2 978.527 176.34 973.277 181.065C968.867 184.95 962.672 187.05 955.322 187.05C941.147 187.05 930.332 178.02 930.332 164.265ZM1008.22 173.19C1008.22 181.905 1009.27 182.22 1013.68 182.64C1014.31 183.27 1014.31 185.58 1013.68 186.21C1009.16 186.105 1006.12 186 1001.39 186C995.724 186 991.419 186.105 987.009 186.21C986.379 185.58 986.379 183.27 987.009 182.64C993.414 182.115 994.569 181.905 994.569 173.19V153.555C994.569 147.57 993.414 146.835 987.744 146.205C987.534 145.575 987.324 143.475 987.534 142.845C994.779 141.9 1001.08 140.43 1004.96 139.38C1006.43 139.38 1007.27 139.905 1007.38 141.165C1007.38 141.165 1007.8 144.315 1008.01 147.99C1013.78 144.105 1021.24 139.38 1025.54 139.38C1034.57 139.38 1039.51 144.63 1039.51 156.18V172.56C1039.51 181.38 1041.19 182.325 1047.59 182.64C1048.22 183.27 1048.22 185.58 1047.59 186.21C1043.08 186.105 1038.46 186 1032.68 186C1027.64 186 1024.28 186.105 1019.87 186.21C1019.24 185.58 1019.24 183.27 1019.87 182.64C1024.18 182.325 1025.86 181.38 1025.86 172.56V155.025C1025.86 149.04 1022.71 147.15 1018.51 147.15C1016.62 147.15 1012.31 149.25 1008.22 152.085V152.295V173.19ZM1079.96 180.96H1079.33C1075.86 183.69 1069.77 187.05 1066.73 187.05C1057.59 187.05 1053.6 183.27 1053.6 176.025C1053.6 167.73 1061.27 164.685 1072.4 161.22L1079.43 159.015C1079.43 145.68 1075.76 143.79 1071.35 143.79C1067.78 143.79 1067.04 145.05 1066.83 146.205C1066.62 147.99 1067.36 149.775 1067.36 151.14C1067.36 153.765 1064.52 156.075 1060.85 156.075C1056.65 156.075 1055.39 153.765 1055.39 150.72C1055.39 143.79 1067.25 139.38 1074.92 139.38C1083.53 139.38 1092.87 142.425 1092.87 157.545L1092.66 172.665C1092.66 177.81 1093.29 179.7 1095.6 179.7C1097.6 179.7 1098.65 179.28 1100.01 178.23C1101.17 179.175 1101.59 180.015 1101.9 181.17C1098.02 184.845 1093.92 187.05 1088.15 187.05C1083.53 187.05 1080.69 185.16 1079.96 180.96ZM1079.43 163.11L1073.97 164.895C1066.52 167.415 1066.2 170.565 1066.2 174.45C1066.2 177.705 1067.78 180.75 1072.29 180.75C1074.18 180.75 1076.81 179.07 1079.43 176.97V163.11ZM1112.6 172.665V126.675C1112.6 119.535 1112.07 119.325 1105.46 118.8C1104.93 117.855 1104.83 116.7 1105.14 115.44C1112.6 115.125 1121 113.97 1124.88 112.71C1125.83 112.71 1126.56 113.13 1126.56 114.075C1126.56 114.075 1126.25 117.96 1126.25 124.785V172.665C1126.25 181.38 1127.93 182.325 1134.33 182.64C1134.96 183.27 1134.96 185.58 1134.33 186.21C1129.82 186.105 1125.2 186 1119.42 186C1113.54 186 1108.92 186.105 1104.51 186.21C1103.88 185.58 1103.88 183.27 1104.51 182.64C1110.92 182.325 1112.6 181.38 1112.6 172.665ZM1160.6 173.19C1160.6 181.905 1161.76 182.22 1168.16 182.64C1168.79 183.27 1168.79 185.58 1168.16 186.21C1163.65 186.105 1159.34 186 1153.78 186C1148.11 186 1143.8 186.105 1139.39 186.21C1138.76 185.58 1138.76 183.27 1139.39 182.64C1145.8 182.115 1146.95 181.905 1146.95 173.19V153.03C1146.95 147.045 1145.8 146.31 1140.13 145.68C1139.92 145.05 1139.71 142.95 1139.92 142.32C1147.16 141.375 1155.56 140.535 1158.61 139.38C1160.08 139.38 1161.02 140.01 1161.02 141.165C1161.02 141.165 1160.6 147.045 1160.6 152.295V173.19ZM1146.43 123.42C1146.43 120.27 1148.84 116.91 1153.78 116.91C1158.19 116.91 1160.6 120.69 1160.6 123.84C1160.6 126.57 1157.87 130.35 1153.15 130.35C1148.95 130.35 1146.43 126.885 1146.43 123.42ZM1176.69 140.43H1179.63C1179.63 132.135 1180.05 129.3 1180.79 128.25C1181.42 127.305 1184.57 126.675 1186.35 125.94C1187.93 125.31 1191.92 124.155 1192.65 124.155C1193.18 124.155 1193.49 124.365 1193.49 124.995C1193.49 124.995 1193.18 129.93 1192.97 136.86L1192.86 140.43H1205.15C1205.67 140.43 1205.99 140.64 1205.99 141.06V144.315C1205.99 145.26 1204.52 145.68 1203.47 145.68H1192.86C1192.86 156.18 1192.97 167.415 1192.97 172.665C1192.97 177.915 1195.28 179.7 1197.59 179.7C1199.58 179.7 1202.21 179.28 1203.57 178.23C1204.83 179.28 1205.46 179.91 1205.46 181.17C1203.36 184.11 1196.96 187.05 1191.18 187.05C1188.66 187.05 1184.78 186.21 1182.47 184.11C1180.16 182.22 1179.32 178.65 1179.32 174.975C1179.32 169.725 1179.32 156.285 1179.63 145.68H1172.81C1172.39 145.68 1172.28 145.575 1172.28 145.05V142.005C1173.54 140.85 1175.22 140.535 1176.69 140.43ZM1233.12 203.64C1231.86 205.74 1229.03 208.26 1226.82 209.31C1225.35 210.045 1222.2 210.36 1220.84 210.36C1219.37 210.36 1217.69 209.73 1216.74 208.47C1215.69 207.315 1215.48 205.74 1215.48 204.27C1215.48 202.17 1217.79 199.44 1221.78 199.44C1223.25 199.44 1223.57 199.86 1225.46 199.86C1228.4 199.86 1229.66 197.97 1231.02 194.715L1233.54 188.94C1234.38 187.05 1232.39 185.16 1230.6 182.64L1217.06 151.56C1214.12 145.05 1213.38 144.21 1208.76 143.79C1208.13 143.16 1208.13 140.85 1208.76 140.22C1210.86 140.325 1216.85 140.43 1220.42 140.43C1224.2 140.43 1230.5 140.325 1234.38 140.22C1235.01 140.85 1235.01 143.16 1234.38 143.79C1227.98 144.315 1228.92 146.205 1230.92 150.51L1240.68 172.455C1240.68 172.665 1240.79 172.875 1240.79 172.875C1240.79 172.875 1240.79 172.77 1240.89 172.665L1251.71 148.41C1253.39 144.63 1250.03 144.105 1246.67 143.79C1246.04 143.16 1246.04 140.85 1246.67 140.22C1250.55 140.325 1254.12 140.43 1257.8 140.43C1260.74 140.43 1262.63 140.325 1265.25 140.22C1265.88 140.85 1265.88 143.16 1265.25 143.79C1261.37 144.105 1258.22 147.36 1256.75 150.405C1251.18 162.165 1246.04 173.505 1237.64 193.77C1236.38 196.92 1234.7 200.7 1233.12 203.64Z" fill="black"/>
</g>
</svg>
