<svg width="1921" height="1081" viewBox="0 0 1921 1081" fill="none" xmlns="http://www.w3.org/2000/svg">
<g id="Examples">
<rect width="1920" height="1080" transform="translate(0.433594 0.698242)" fill="white"/>
<g id="Group_1462" opacity="0.1">
<path id="&#226;&#136;&#158;" d="M1134.61 675.742C1134.61 681.374 1130.43 688.632 1123.12 688.632C1118.35 688.632 1115.04 685.555 1111.45 680.213C1108.83 685.497 1104.88 688.632 1099.31 688.632C1094.32 688.632 1089.09 685.032 1089.09 677.02C1089.09 666.336 1096.81 663.666 1100.18 663.666C1104.42 663.666 1107.32 664.769 1112.84 672.201C1115.51 667.382 1118.18 663.666 1124.04 663.666C1129.27 663.666 1134.61 667.962 1134.61 675.742ZM1114 674.407V674.581C1118.18 681.49 1121.37 685.206 1125.32 685.206C1128.57 685.206 1131.13 682.013 1131.13 678.297C1131.13 673.013 1128.17 668.543 1123.06 668.543C1117.89 668.543 1115.68 671.968 1114 674.407ZM1110.17 678.123V677.949C1105.99 671.039 1102.33 667.091 1098.38 667.091C1095.13 667.091 1092.58 670.285 1092.58 674.001C1092.58 678.936 1095.54 683.755 1100.65 683.755C1105.81 683.755 1108.6 680.213 1110.17 678.123Z" fill="#5300F9"/>
<path id="0" d="M1390.49 696.649C1388.13 696.649 1386.12 696.166 1384.45 695.198C1382.82 694.192 1381.51 692.817 1380.5 691.076C1379.5 689.295 1378.76 687.244 1378.3 684.921C1377.83 682.599 1377.6 680.102 1377.6 677.431C1377.6 673.599 1378.08 670.29 1379.05 667.503C1380.06 664.677 1381.53 662.51 1383.46 661C1385.4 659.49 1387.78 658.736 1390.61 658.736C1393.12 658.736 1395.33 659.452 1397.22 660.884C1399.16 662.316 1400.65 664.445 1401.69 667.271C1402.78 670.058 1403.32 673.503 1403.32 677.605C1403.32 680.199 1403.07 682.657 1402.57 684.979C1402.1 687.263 1401.35 689.295 1400.3 691.076C1399.29 692.817 1397.98 694.192 1396.35 695.198C1394.73 696.166 1392.77 696.649 1390.49 696.649ZM1390.43 694.211C1392.1 694.211 1393.39 692.875 1394.32 690.205C1395.25 687.495 1395.71 683.412 1395.71 677.954C1395.71 672.186 1395.27 667.929 1394.38 665.18C1393.49 662.432 1392.15 661.058 1390.37 661.058C1388.71 661.058 1387.41 662.432 1386.48 665.18C1385.59 667.929 1385.15 672.109 1385.15 677.722C1385.15 683.218 1385.59 687.34 1386.48 690.089C1387.41 692.837 1388.73 694.211 1390.43 694.211Z" fill="#5300F9"/>
<path id="0_2" d="M1686.59 696.649C1684.23 696.649 1682.22 696.166 1680.55 695.198C1678.93 694.192 1677.61 692.817 1676.6 691.076C1675.6 689.295 1674.86 687.244 1674.4 684.921C1673.93 682.599 1673.7 680.102 1673.7 677.431C1673.7 673.599 1674.18 670.29 1675.15 667.503C1676.16 664.677 1677.63 662.51 1679.57 661C1681.5 659.49 1683.88 658.736 1686.71 658.736C1689.22 658.736 1691.43 659.452 1693.33 660.884C1695.26 662.316 1696.75 664.445 1697.8 667.271C1698.88 670.058 1699.42 673.503 1699.42 677.605C1699.42 680.199 1699.17 682.657 1698.67 684.979C1698.2 687.263 1697.45 689.295 1696.4 691.076C1695.4 692.817 1694.08 694.192 1692.45 695.198C1690.83 696.166 1688.87 696.649 1686.59 696.649ZM1686.53 694.211C1688.2 694.211 1689.49 692.875 1690.42 690.205C1691.35 687.495 1691.82 683.412 1691.82 677.954C1691.82 672.186 1691.37 667.929 1690.48 665.18C1689.59 662.432 1688.25 661.058 1686.47 661.058C1684.81 661.058 1683.51 662.432 1682.58 665.18C1681.69 667.929 1681.25 672.109 1681.25 677.722C1681.25 683.218 1681.69 687.34 1682.58 690.089C1683.51 692.837 1684.83 694.211 1686.53 694.211Z" fill="#5300F9"/>
</g>
<g id="values" opacity="0.1">
<g id="Group 144">
<path id="2" d="M724.588 488.491H702.396V485.44L710.052 477.728C711.827 475.916 713.288 474.27 714.435 472.79C715.581 471.274 716.451 469.739 717.042 468.185C717.634 466.632 717.93 464.857 717.93 462.859C717.93 461.01 717.449 459.53 716.488 458.421C715.526 457.311 714.065 456.756 712.105 456.756C710.44 456.756 709.016 457.108 707.833 457.811C706.649 458.476 705.558 459.808 704.559 461.805L702.507 461.028C703.468 458.328 704.948 456.257 706.945 454.815C708.979 453.335 711.439 452.595 714.324 452.595C716.469 452.595 718.356 452.984 719.983 453.761C721.61 454.537 722.886 455.647 723.811 457.089C724.736 458.495 725.198 460.141 725.198 462.027C725.198 463.765 724.847 465.411 724.144 466.965C723.441 468.481 722.369 470.016 720.926 471.57C719.484 473.123 717.708 474.843 715.6 476.729L708.831 482.666V483.054L712.493 482.721H719.373C720.852 482.721 721.888 482.388 722.48 481.723C723.071 481.057 723.682 479.892 724.31 478.227H726.363L724.588 488.491Z" fill="#5300F9"/>
<path id="5" d="M357.481 680.038C355.003 680.038 353.246 679.761 352.21 679.206C351.211 678.614 350.712 677.764 350.712 676.654C350.712 675.877 350.934 675.174 351.378 674.546C351.822 673.88 352.488 673.547 353.375 673.547C354.078 673.547 354.725 673.732 355.317 674.102C355.909 674.435 356.482 674.842 357.037 675.322C357.629 675.766 358.276 676.155 358.979 676.488C359.681 676.82 360.458 676.987 361.309 676.987C362.677 676.987 363.861 676.765 364.86 676.321C365.858 675.84 366.635 675.064 367.19 673.991C367.782 672.881 368.077 671.383 368.077 669.497C368.077 667.759 367.708 666.372 366.968 665.336C366.265 664.3 365.248 663.505 363.916 662.95C362.622 662.396 361.087 662.007 359.312 661.785C357.573 661.563 355.668 661.452 353.597 661.452L352.765 660.232L356.538 644.253H373.126L372.183 649.801H358.091L356.815 655.405C358.368 655.479 359.959 655.627 361.586 655.849C363.214 656.071 364.767 656.441 366.247 656.958C367.763 657.439 369.113 658.124 370.297 659.011C371.48 659.862 372.423 660.953 373.126 662.285C373.829 663.579 374.18 665.17 374.18 667.056C374.18 669.349 373.736 671.328 372.849 672.992C371.961 674.62 370.741 675.951 369.187 676.987C367.671 678.022 365.895 678.781 363.861 679.262C361.864 679.779 359.737 680.038 357.481 680.038Z" fill="#5300F9"/>
<path id="0_3" d="M712.693 768.237C710.437 768.237 708.513 767.775 706.923 766.85C705.369 765.889 704.112 764.576 703.15 762.911C702.188 761.21 701.486 759.249 701.042 757.03C700.598 754.811 700.376 752.425 700.376 749.873C700.376 746.212 700.838 743.049 701.763 740.386C702.725 737.686 704.13 735.615 705.98 734.172C707.829 732.73 710.104 732.009 712.804 732.009C715.208 732.009 717.316 732.693 719.128 734.061C720.978 735.43 722.402 737.464 723.4 740.164C724.436 742.827 724.954 746.119 724.954 750.04C724.954 752.518 724.713 754.866 724.233 757.086C723.789 759.268 723.068 761.21 722.069 762.911C721.107 764.576 719.85 765.889 718.296 766.85C716.743 767.775 714.875 768.237 712.693 768.237ZM712.637 765.907C714.228 765.907 715.467 764.631 716.354 762.079C717.242 759.49 717.686 755.588 717.686 750.373C717.686 744.862 717.261 740.793 716.41 738.167C715.559 735.541 714.283 734.228 712.582 734.228C710.991 734.228 709.752 735.541 708.865 738.167C708.014 740.793 707.589 744.788 707.589 750.151C707.589 755.403 708.014 759.342 708.865 761.968C709.752 764.594 711.01 765.907 712.637 765.907Z" fill="#5300F9"/>
</g>
</g>
<g id="Group_23" opacity="0.1">
<circle id="Ellipse 2" cx="393.34" cy="603.577" r="43.2747" stroke="#3867D6" stroke-width="4.61596"/>
<rect id="Rectangle 1" x="612.578" y="667.176" width="76.1634" height="76.1634" stroke="#EB3B5A" stroke-width="4.61596"/>
<rect id="Rectangle 2" x="612.578" y="418.624" width="76.1634" height="76.1634" stroke="#EB3B5A" stroke-width="4.61596"/>
<path id="3" d="M467.249 430.85C469.15 430.85 470.569 430.434 471.506 429.601C472.47 428.741 472.951 427.648 472.951 426.32V426.046C472.951 424.588 472.483 423.494 471.545 422.765C470.634 422.036 469.436 421.672 467.952 421.672C466.494 421.672 465.309 421.997 464.398 422.648C463.512 423.273 462.783 424.106 462.21 425.148L459.75 423.273C460.088 422.726 460.505 422.192 461 421.672C461.494 421.125 462.067 420.643 462.718 420.227C463.395 419.81 464.163 419.471 465.023 419.211C465.908 418.951 466.91 418.82 468.03 418.82C469.202 418.82 470.295 418.977 471.311 419.289C472.326 419.576 473.212 420.018 473.967 420.617C474.722 421.19 475.308 421.906 475.724 422.765C476.167 423.625 476.388 424.601 476.388 425.695C476.388 426.58 476.245 427.374 475.959 428.077C475.698 428.78 475.321 429.392 474.826 429.913C474.357 430.434 473.798 430.876 473.147 431.241C472.496 431.606 471.806 431.879 471.077 432.061V432.217C471.832 432.374 472.561 432.634 473.264 432.999C473.967 433.337 474.592 433.793 475.139 434.366C475.685 434.912 476.115 435.589 476.427 436.397C476.766 437.178 476.935 438.076 476.935 439.092C476.935 440.263 476.701 441.344 476.232 442.333C475.79 443.297 475.152 444.13 474.318 444.833C473.511 445.51 472.522 446.044 471.35 446.435C470.204 446.825 468.928 447.02 467.522 447.02C466.324 447.02 465.257 446.89 464.319 446.63C463.408 446.369 462.588 446.018 461.859 445.575C461.156 445.133 460.531 444.638 459.984 444.091C459.463 443.544 458.995 442.971 458.578 442.373L461.039 440.498C461.403 441.045 461.781 441.539 462.171 441.982C462.562 442.425 463.005 442.815 463.499 443.154C464.02 443.466 464.606 443.714 465.257 443.896C465.908 444.078 466.663 444.169 467.522 444.169C469.449 444.169 470.92 443.727 471.936 442.841C472.977 441.956 473.498 440.693 473.498 439.053V438.74C473.498 437.126 472.99 435.876 471.975 434.991C470.985 434.105 469.488 433.663 467.483 433.663H464.241V430.85H467.249Z" fill="black"/>
<path id="2_2" d="M735.103 598.345H716.902V594.986L726.003 586.784C727.331 585.586 728.424 584.362 729.283 583.112C730.143 581.836 730.572 580.495 730.572 579.089V578.62C730.572 576.98 730.143 575.717 729.283 574.832C728.424 573.92 727.148 573.465 725.456 573.465C723.789 573.465 722.5 573.894 721.589 574.754C720.704 575.587 720.04 576.707 719.597 578.113L716.668 577.019C716.928 576.212 717.28 575.431 717.722 574.675C718.191 573.894 718.777 573.204 719.48 572.605C720.183 572.007 721.029 571.525 722.019 571.16C723.034 570.796 724.206 570.613 725.534 570.613C726.888 570.613 728.086 570.809 729.127 571.199C730.195 571.59 731.08 572.137 731.783 572.84C732.512 573.543 733.059 574.376 733.424 575.339C733.814 576.303 734.01 577.357 734.01 578.503C734.01 579.545 733.853 580.521 733.541 581.433C733.254 582.344 732.838 583.216 732.291 584.049C731.77 584.883 731.132 585.703 730.377 586.51C729.648 587.291 728.828 588.072 727.916 588.854L720.3 595.493H735.103V598.345Z" fill="black"/>
<path id="1" d="M239.871 609.887V607.035H247.682V585.046H247.409L240.535 591.451L238.621 589.381L245.847 582.624H250.963V607.035H258.15V609.887H239.871Z" fill="black"/>
<path id="Vector 3" d="M578.763 441.172L565.729 433.016L565.183 448.382L578.763 441.172ZM412.766 531.271L414.036 531.67C426.16 493.037 449.774 470.412 477.591 457.543C505.463 444.649 537.616 441.527 566.765 442.078L566.79 440.746L566.815 439.415C537.488 438.861 504.872 441.989 476.473 455.126C448.019 468.289 423.858 491.478 411.495 530.873L412.766 531.271Z" fill="black"/>
<path id="Vector 7" d="M681.207 655.941L694.177 647.684L680.541 640.58L681.207 655.941ZM673.662 508.141L672.715 509.077C689.382 525.945 697.511 549.248 699 573.699C700.489 598.149 695.329 623.643 685.539 644.747L686.747 645.308L687.954 645.868C697.925 624.375 703.175 598.442 701.658 573.537C700.141 548.632 691.847 524.651 674.609 507.205L673.662 508.141Z" fill="black"/>
<path id="Vector 5" d="M335.974 580.981L326.813 567.07L319.346 581.958L335.974 580.981ZM324.37 575.161L324.925 573.83C307.176 566.437 293.344 567.868 284.026 574.122C274.742 580.353 270.251 591.171 270.788 601.898C271.326 612.644 276.909 623.415 287.893 629.585C298.872 635.753 315.006 637.196 336.442 629.837L335.974 628.473L335.505 627.108C314.572 634.294 299.349 632.712 289.306 627.07C279.267 621.43 274.162 611.605 273.669 601.754C273.176 591.883 277.312 582.103 285.634 576.517C293.922 570.955 306.676 569.353 323.815 576.493L324.37 575.161Z" fill="black"/>
</g>
<g id="neg_weights" opacity="0.1">
<path id="Vector 2" d="M597.309 733.551C598.095 733.419 598.839 733.948 598.971 734.734C599.104 735.52 598.574 736.264 597.788 736.396L597.549 734.974L597.309 733.551ZM405.809 654.638L419.034 664.764L403.653 671.154L405.809 654.638ZM597.549 734.974L597.788 736.396C558.43 743.025 517.93 738.322 484.01 725.711C450.119 713.111 422.623 692.547 409.512 667.296L410.792 666.631L412.072 665.966C424.74 690.364 451.523 710.556 485.016 723.007C518.48 735.448 558.469 740.093 597.309 733.551L597.549 734.974Z" fill="black"/>
<path id="-6" d="M455.804 754.977V751.696H467.131V754.977H455.804ZM484.926 765.679C483.494 765.679 482.205 765.444 481.059 764.976C479.914 764.481 478.937 763.791 478.13 762.906C477.349 761.994 476.737 760.888 476.294 759.586C475.878 758.284 475.669 756.825 475.669 755.211C475.669 753.18 475.969 751.279 476.568 749.509C477.193 747.712 477.974 746.084 478.911 744.626C479.875 743.142 480.942 741.84 482.114 740.72C483.286 739.575 484.431 738.65 485.551 737.947H489.769C488.285 739.015 486.957 740.057 485.785 741.072C484.64 742.088 483.624 743.155 482.739 744.275C481.854 745.368 481.111 746.553 480.513 747.829C479.914 749.079 479.419 750.498 479.028 752.086L479.224 752.165C479.875 751.045 480.734 750.12 481.801 749.391C482.869 748.636 484.249 748.259 485.942 748.259C487.139 748.259 488.233 748.454 489.223 748.845C490.212 749.235 491.071 749.795 491.8 750.524C492.529 751.253 493.089 752.138 493.48 753.18C493.896 754.222 494.105 755.38 494.105 756.656C494.105 757.984 493.883 759.208 493.441 760.328C492.998 761.421 492.373 762.372 491.566 763.179C490.785 763.96 489.821 764.572 488.676 765.015C487.556 765.457 486.306 765.679 484.926 765.679ZM484.887 762.906C486.762 762.906 488.207 762.398 489.223 761.382C490.264 760.367 490.785 758.935 490.785 757.086V756.773C490.785 754.925 490.264 753.493 489.223 752.477C488.207 751.461 486.762 750.954 484.887 750.954C483.012 750.954 481.554 751.461 480.513 752.477C479.497 753.493 478.989 754.925 478.989 756.773V757.086C478.989 758.935 479.497 760.367 480.513 761.382C481.554 762.398 483.012 762.906 484.887 762.906Z" fill="black"/>
<path id="-5" d="M497.527 534.83V531.549H508.854V534.83H497.527ZM534.46 520.652H522.274L521.493 531.081H521.767C522.444 530.169 523.199 529.453 524.032 528.932C524.865 528.386 526.011 528.112 527.469 528.112C528.667 528.112 529.76 528.308 530.75 528.698C531.765 529.063 532.638 529.609 533.367 530.339C534.096 531.068 534.669 531.953 535.085 532.995C535.502 534.01 535.71 535.182 535.71 536.51C535.71 537.838 535.502 539.062 535.085 540.181C534.669 541.275 534.057 542.225 533.25 543.032C532.442 543.814 531.466 544.426 530.32 544.868C529.175 545.311 527.873 545.532 526.414 545.532C525.269 545.532 524.24 545.402 523.329 545.142C522.444 544.881 521.649 544.53 520.946 544.087C520.269 543.644 519.67 543.15 519.15 542.603C518.629 542.056 518.16 541.483 517.744 540.884L520.204 539.009C520.569 539.556 520.933 540.051 521.298 540.494C521.688 540.936 522.131 541.327 522.626 541.665C523.121 541.978 523.68 542.225 524.305 542.408C524.93 542.59 525.659 542.681 526.493 542.681C528.367 542.681 529.799 542.173 530.789 541.158C531.804 540.142 532.312 538.736 532.312 536.939V536.627C532.312 534.83 531.804 533.424 530.789 532.409C529.773 531.393 528.315 530.885 526.414 530.885C525.113 530.885 524.097 531.107 523.368 531.549C522.665 531.992 522.014 532.539 521.415 533.19L518.642 532.799L519.618 517.801H534.46V520.652Z" fill="black"/>
<path id="-3" d="M559.663 593.416V590.135H570.99V593.416H559.663ZM587.575 587.948C589.476 587.948 590.895 587.531 591.832 586.698C592.795 585.839 593.277 584.745 593.277 583.417V583.144C593.277 581.686 592.809 580.592 591.871 579.863C590.96 579.134 589.762 578.769 588.278 578.769C586.82 578.769 585.635 579.095 584.723 579.746C583.838 580.371 583.109 581.204 582.536 582.246L580.076 580.371C580.414 579.824 580.831 579.29 581.325 578.769C581.82 578.223 582.393 577.741 583.044 577.324C583.721 576.908 584.489 576.569 585.348 576.309C586.234 576.048 587.236 575.918 588.356 575.918C589.528 575.918 590.621 576.074 591.637 576.387C592.652 576.673 593.538 577.116 594.293 577.715C595.048 578.288 595.634 579.004 596.05 579.863C596.493 580.722 596.714 581.699 596.714 582.792C596.714 583.678 596.571 584.472 596.285 585.175C596.024 585.878 595.647 586.49 595.152 587.011C594.683 587.531 594.123 587.974 593.472 588.339C592.822 588.703 592.131 588.977 591.402 589.159V589.315C592.158 589.471 592.887 589.732 593.59 590.096C594.293 590.435 594.918 590.89 595.464 591.463C596.011 592.01 596.441 592.687 596.753 593.494C597.092 594.275 597.261 595.174 597.261 596.189C597.261 597.361 597.027 598.442 596.558 599.431C596.115 600.395 595.477 601.228 594.644 601.931C593.837 602.608 592.848 603.142 591.676 603.532C590.53 603.923 589.254 604.118 587.848 604.118C586.65 604.118 585.583 603.988 584.645 603.728C583.734 603.467 582.914 603.116 582.185 602.673C581.482 602.23 580.857 601.736 580.31 601.189C579.789 600.642 579.32 600.069 578.904 599.47L581.364 597.595C581.729 598.142 582.107 598.637 582.497 599.08C582.888 599.522 583.33 599.913 583.825 600.251C584.346 600.564 584.932 600.811 585.583 600.993C586.234 601.176 586.989 601.267 587.848 601.267C589.775 601.267 591.246 600.824 592.262 599.939C593.303 599.054 593.824 597.791 593.824 596.15V595.838C593.824 594.223 593.316 592.974 592.301 592.088C591.311 591.203 589.814 590.76 587.809 590.76H584.567V587.948H587.575Z" fill="black"/>
<path id="Vector 4" d="M444.868 582.292L458.539 589.328L457.797 573.971L444.868 582.292ZM603.32 487.31L602.159 486.659C571.954 540.538 507.987 575.563 456.706 580.389L456.831 581.714L456.956 583.04C509.003 578.142 573.8 542.691 604.482 487.961L603.32 487.31Z" fill="black"/>
<path id="Vector 6" d="M627.058 508.231L614.089 516.488L627.724 523.592L627.058 508.231ZM634.604 656.031L635.551 655.095C618.884 638.227 610.755 614.924 609.266 590.473C607.776 566.023 612.937 540.529 622.727 519.424L621.519 518.864L620.311 518.304C610.341 539.797 605.091 565.73 606.608 590.635C608.125 615.54 616.419 639.521 633.657 656.967L634.604 656.031Z" fill="black"/>
</g>
<g id="green_edges" opacity="0.1">
<path id="Vector 2_2" d="M596.996 732.98C598.109 732.542 599.368 733.09 599.806 734.204C600.244 735.317 599.696 736.576 598.582 737.014L597.789 734.997L596.996 732.98ZM532.714 759.808L550.647 742.354L556.796 766.612L532.714 759.808ZM597.789 734.997L598.582 737.014C587.161 741.507 579.117 745.312 572.178 748.595C565.245 751.876 559.343 754.673 552.321 757.067L551.622 755.015L550.923 752.964C557.676 750.662 563.364 747.971 570.324 744.677C577.279 741.386 585.432 737.53 596.996 732.98L597.789 734.997Z" fill="#73A331"/>
<path id="&#60;0" d="M559.875 771.396V768.271L576.67 758.546V761.787L562.804 769.638V769.951L576.67 777.801V781.121L559.875 771.396ZM591.692 782.215C590.025 782.215 588.593 781.902 587.395 781.277C586.198 780.626 585.208 779.702 584.427 778.504C583.646 777.306 583.073 775.835 582.708 774.091C582.344 772.346 582.162 770.354 582.162 768.115C582.162 765.902 582.344 763.923 582.708 762.178C583.073 760.407 583.646 758.923 584.427 757.725C585.208 756.528 586.198 755.616 587.395 754.991C588.593 754.34 590.025 754.015 591.692 754.015C593.358 754.015 594.79 754.34 595.988 754.991C597.186 755.616 598.175 756.528 598.957 757.725C599.738 758.923 600.311 760.407 600.675 762.178C601.04 763.923 601.222 765.902 601.222 768.115C601.222 770.354 601.04 772.346 600.675 774.091C600.311 775.835 599.738 777.306 598.957 778.504C598.175 779.702 597.186 780.626 595.988 781.277C594.79 781.902 593.358 782.215 591.692 782.215ZM591.692 779.364C592.785 779.364 593.723 779.155 594.504 778.739C595.285 778.296 595.91 777.684 596.379 776.903C596.873 776.122 597.238 775.184 597.472 774.091C597.707 772.971 597.824 771.721 597.824 770.341V765.888C597.824 764.534 597.707 763.298 597.472 762.178C597.238 761.058 596.873 760.108 596.379 759.327C595.91 758.546 595.285 757.947 594.504 757.53C593.723 757.087 592.785 756.866 591.692 756.866C590.598 756.866 589.661 757.087 588.88 757.53C588.098 757.947 587.46 758.546 586.966 759.327C586.497 760.108 586.146 761.058 585.911 762.178C585.677 763.298 585.56 764.534 585.56 765.888V770.341C585.56 771.721 585.677 772.971 585.911 774.091C586.146 775.184 586.497 776.122 586.966 776.903C587.46 777.684 588.098 778.296 588.88 778.739C589.661 779.155 590.598 779.364 591.692 779.364ZM591.692 770.419C590.78 770.419 590.142 770.237 589.778 769.872C589.439 769.508 589.27 769.065 589.27 768.544V767.685C589.27 767.164 589.439 766.722 589.778 766.357C590.142 765.993 590.78 765.81 591.692 765.81C592.603 765.81 593.228 765.993 593.567 766.357C593.931 766.722 594.113 767.164 594.113 767.685V768.544C594.113 769.065 593.931 769.508 593.567 769.872C593.228 770.237 592.603 770.419 591.692 770.419Z" fill="#73A331"/>
<path id="&#60;0_2" d="M542.539 493.993V490.869L559.334 481.143V484.385L545.468 492.236V492.548L559.334 500.399V503.719L542.539 493.993ZM574.356 504.812C572.689 504.812 571.257 504.5 570.059 503.875C568.862 503.224 567.872 502.3 567.091 501.102C566.31 499.904 565.737 498.433 565.372 496.688C565.008 494.944 564.826 492.952 564.826 490.712C564.826 488.499 565.008 486.52 565.372 484.776C565.737 483.005 566.31 481.521 567.091 480.323C567.872 479.125 568.862 478.214 570.059 477.589C571.257 476.938 572.689 476.612 574.356 476.612C576.022 476.612 577.454 476.938 578.652 477.589C579.85 478.214 580.839 479.125 581.621 480.323C582.402 481.521 582.975 483.005 583.339 484.776C583.704 486.52 583.886 488.499 583.886 490.712C583.886 492.952 583.704 494.944 583.339 496.688C582.975 498.433 582.402 499.904 581.621 501.102C580.839 502.3 579.85 503.224 578.652 503.875C577.454 504.5 576.022 504.812 574.356 504.812ZM574.356 501.961C575.449 501.961 576.387 501.753 577.168 501.336C577.949 500.894 578.574 500.282 579.043 499.501C579.538 498.719 579.902 497.782 580.136 496.688C580.371 495.569 580.488 494.319 580.488 492.939V488.486C580.488 487.132 580.371 485.895 580.136 484.776C579.902 483.656 579.538 482.706 579.043 481.924C578.574 481.143 577.949 480.544 577.168 480.128C576.387 479.685 575.449 479.464 574.356 479.464C573.262 479.464 572.325 479.685 571.544 480.128C570.762 480.544 570.125 481.143 569.63 481.924C569.161 482.706 568.81 483.656 568.575 484.776C568.341 485.895 568.224 487.132 568.224 488.486V492.939C568.224 494.319 568.341 495.569 568.575 496.688C568.81 497.782 569.161 498.719 569.63 499.501C570.125 500.282 570.762 500.894 571.544 501.336C572.325 501.753 573.262 501.961 574.356 501.961ZM574.356 493.017C573.444 493.017 572.807 492.835 572.442 492.47C572.103 492.106 571.934 491.663 571.934 491.142V490.283C571.934 489.762 572.103 489.319 572.442 488.955C572.807 488.59 573.444 488.408 574.356 488.408C575.267 488.408 575.892 488.59 576.231 488.955C576.595 489.319 576.777 489.762 576.777 490.283V491.142C576.777 491.663 576.595 492.106 576.231 492.47C575.892 492.835 575.267 493.017 574.356 493.017Z" fill="#73A331"/>
<path id="&#60;0_3" d="M609.574 618.006V614.881L626.369 605.156V608.398L612.503 616.248V616.561L626.369 624.412V627.732L609.574 618.006ZM641.391 628.825C639.725 628.825 638.292 628.513 637.095 627.888C635.897 627.237 634.907 626.312 634.126 625.115C633.345 623.917 632.772 622.446 632.408 620.701C632.043 618.956 631.861 616.964 631.861 614.725C631.861 612.512 632.043 610.533 632.408 608.788C632.772 607.018 633.345 605.533 634.126 604.336C634.907 603.138 635.897 602.227 637.095 601.602C638.292 600.951 639.725 600.625 641.391 600.625C643.057 600.625 644.49 600.951 645.687 601.602C646.885 602.227 647.875 603.138 648.656 604.336C649.437 605.533 650.01 607.018 650.374 608.788C650.739 610.533 650.921 612.512 650.921 614.725C650.921 616.964 650.739 618.956 650.374 620.701C650.01 622.446 649.437 623.917 648.656 625.115C647.875 626.312 646.885 627.237 645.687 627.888C644.49 628.513 643.057 628.825 641.391 628.825ZM641.391 625.974C642.485 625.974 643.422 625.766 644.203 625.349C644.984 624.906 645.609 624.294 646.078 623.513C646.573 622.732 646.937 621.795 647.172 620.701C647.406 619.581 647.523 618.332 647.523 616.951V612.499C647.523 611.145 647.406 609.908 647.172 608.788C646.937 607.669 646.573 606.718 646.078 605.937C645.609 605.156 644.984 604.557 644.203 604.14C643.422 603.698 642.485 603.476 641.391 603.476C640.297 603.476 639.36 603.698 638.579 604.14C637.798 604.557 637.16 605.156 636.665 605.937C636.196 606.718 635.845 607.669 635.61 608.788C635.376 609.908 635.259 611.145 635.259 612.499V616.951C635.259 618.332 635.376 619.581 635.61 620.701C635.845 621.795 636.196 622.732 636.665 623.513C637.16 624.294 637.798 624.906 638.579 625.349C639.36 625.766 640.297 625.974 641.391 625.974ZM641.391 617.03C640.48 617.03 639.842 616.847 639.477 616.483C639.139 616.118 638.969 615.676 638.969 615.155V614.296C638.969 613.775 639.139 613.332 639.477 612.968C639.842 612.603 640.48 612.421 641.391 612.421C642.302 612.421 642.927 612.603 643.266 612.968C643.63 613.332 643.813 613.775 643.813 614.296V615.155C643.813 615.676 643.63 616.118 643.266 616.483C642.927 616.847 642.302 617.03 641.391 617.03Z" fill="#73A331"/>
<path id="Vector 4_2" d="M544.997 543.086L569.528 538.137L552.976 519.367L544.997 543.086ZM603.562 487.331L602.185 485.658C595.782 490.932 589.074 497.65 581.85 505.018C574.602 512.412 566.808 520.489 558.145 528.604L559.626 530.185L561.108 531.767C569.856 523.573 577.729 515.414 584.946 508.052C592.187 500.666 598.742 494.11 604.94 489.003L603.562 487.331Z" fill="#73A331"/>
<path id="Vector 6_2" d="M576.783 606.658L582.92 630.918L600.862 613.472L576.783 606.658ZM634.851 656.05L636.017 654.224C625.11 647.262 608.572 635.121 591.884 619.081L590.382 620.643L588.88 622.206C605.794 638.463 622.562 650.777 633.684 657.877L634.851 656.05Z" fill="#73A331"/>
</g>
<g id="example_2" opacity="0.1">
<circle id="Ellipse 3" cx="1350.71" cy="607.295" r="45.2874" stroke="#3867D6" stroke-width="4.83066"/>
<circle id="Ellipse 4" cx="1640.52" cy="607.295" r="45.2874" stroke="#3867D6" stroke-width="4.83066"/>
<path id="Rectangle 3" d="M1106.67 567.047V646.753H1026.97V567.047H1106.67Z" stroke="#EB3B5A" stroke-width="4.83066"/>
<path id="Vector 8" d="M1089.18 552.005L1103.74 542.419L1088.16 534.604L1089.18 552.005ZM1095.27 539.862L1096.66 540.442C1104.4 521.868 1102.9 507.392 1096.36 497.641C1089.84 487.925 1078.52 483.226 1067.29 483.787C1056.05 484.35 1044.77 490.193 1038.32 501.687C1031.86 513.177 1030.35 530.062 1038.05 552.495L1039.48 552.005L1040.91 551.515C1033.39 529.608 1035.04 513.676 1040.95 503.166C1046.85 492.66 1057.13 487.319 1067.44 486.803C1077.77 486.286 1088.01 490.615 1093.85 499.324C1099.67 507.998 1101.35 521.344 1093.88 539.281L1095.27 539.862Z" fill="black"/>
<path id="Vector 9" d="M1662.74 552.005L1677.3 542.419L1661.72 534.604L1662.74 552.005ZM1668.83 539.862L1670.23 540.442C1677.96 521.868 1676.47 507.392 1669.92 497.641C1663.4 487.925 1652.08 483.226 1640.85 483.787C1629.61 484.35 1618.34 490.193 1611.88 501.687C1605.42 513.177 1603.91 530.062 1611.61 552.495L1613.04 552.005L1614.47 551.515C1606.95 529.608 1608.61 513.676 1614.51 503.166C1620.41 492.66 1630.69 487.319 1641 486.803C1651.33 486.286 1661.57 490.615 1667.41 499.324C1673.24 507.998 1674.91 521.344 1667.44 539.281L1668.83 539.862Z" fill="black"/>
<path id="3_2" d="M1068.88 456.59C1070.96 456.59 1072.52 456.133 1073.55 455.219C1074.61 454.276 1075.13 453.077 1075.13 451.62V451.321C1075.13 449.721 1074.62 448.522 1073.59 447.722C1072.59 446.922 1071.28 446.522 1069.65 446.522C1068.05 446.522 1066.75 446.879 1065.75 447.593C1064.78 448.279 1063.98 449.193 1063.35 450.335L1060.65 448.279C1061.03 447.679 1061.48 447.094 1062.02 446.522C1062.57 445.923 1063.2 445.394 1063.91 444.937C1064.65 444.48 1065.49 444.109 1066.44 443.824C1067.41 443.538 1068.51 443.395 1069.74 443.395C1071.02 443.395 1072.22 443.566 1073.33 443.909C1074.45 444.223 1075.42 444.709 1076.25 445.366C1077.08 445.994 1077.72 446.779 1078.18 447.722C1078.66 448.664 1078.9 449.735 1078.9 450.935C1078.9 451.906 1078.75 452.777 1078.43 453.548C1078.15 454.319 1077.73 454.99 1077.19 455.562C1076.68 456.133 1076.06 456.618 1075.35 457.018C1074.63 457.418 1073.88 457.718 1073.08 457.918V458.089C1073.91 458.261 1074.71 458.546 1075.48 458.946C1076.25 459.317 1076.93 459.817 1077.53 460.445C1078.13 461.045 1078.6 461.788 1078.95 462.673C1079.32 463.53 1079.5 464.515 1079.5 465.629C1079.5 466.914 1079.25 468.1 1078.73 469.185C1078.25 470.242 1077.55 471.155 1076.63 471.927C1075.75 472.669 1074.66 473.255 1073.38 473.683C1072.12 474.111 1070.72 474.326 1069.18 474.326C1067.87 474.326 1066.69 474.183 1065.67 473.897C1064.67 473.612 1063.77 473.226 1062.97 472.741C1062.2 472.255 1061.51 471.712 1060.91 471.113C1060.34 470.513 1059.83 469.885 1059.37 469.228L1062.07 467.171C1062.47 467.771 1062.88 468.314 1063.31 468.799C1063.74 469.285 1064.22 469.713 1064.77 470.084C1065.34 470.427 1065.98 470.698 1066.69 470.898C1067.41 471.098 1068.24 471.198 1069.18 471.198C1071.29 471.198 1072.91 470.713 1074.02 469.742C1075.16 468.771 1075.73 467.386 1075.73 465.586V465.244C1075.73 463.473 1075.18 462.102 1074.06 461.131C1072.98 460.16 1071.34 459.674 1069.14 459.674H1065.58V456.59H1068.88Z" fill="black"/>
<path id="-2" d="M1608.27 461.328V457.729H1620.69V461.328H1608.27ZM1650.32 472.552H1630.36V468.868L1640.34 459.871C1641.8 458.557 1643 457.215 1643.94 455.844C1644.88 454.445 1645.35 452.974 1645.35 451.432V450.918C1645.35 449.118 1644.88 447.733 1643.94 446.762C1643 445.762 1641.6 445.263 1639.74 445.263C1637.91 445.263 1636.5 445.734 1635.5 446.676C1634.53 447.59 1633.8 448.818 1633.31 450.361L1630.1 449.161C1630.39 448.276 1630.77 447.419 1631.26 446.591C1631.77 445.734 1632.41 444.977 1633.19 444.32C1633.96 443.663 1634.88 443.135 1635.97 442.735C1637.08 442.335 1638.37 442.135 1639.83 442.135C1641.31 442.135 1642.62 442.35 1643.77 442.778C1644.94 443.206 1645.91 443.806 1646.68 444.577C1647.48 445.348 1648.08 446.262 1648.48 447.319C1648.91 448.376 1649.12 449.532 1649.12 450.789C1649.12 451.931 1648.95 453.002 1648.61 454.002C1648.29 455.002 1647.84 455.958 1647.24 456.872C1646.67 457.786 1645.97 458.686 1645.14 459.571C1644.34 460.428 1643.44 461.285 1642.44 462.142L1634.08 469.424H1650.32V472.552Z" fill="black"/>
<path id="Arrow 1" d="M1134.15 607.472L1149.27 616.201V598.742L1134.15 607.472ZM1277.81 607.472V605.96L1147.76 605.96V607.472V608.984L1277.81 608.984V607.472Z" fill="black"/>
<path id="Arrow 2" d="M1567.63 607.472L1552.51 616.201V598.742L1567.63 607.472ZM1423.97 607.472V605.96L1554.02 605.96V607.472V608.984L1423.97 608.984V607.472Z" fill="black"/>
<path id="-1" d="M1188.69 575.987V572.388H1201.11V575.987H1188.69ZM1211.38 587.211V584.084H1219.95V559.965H1219.65L1212.11 566.99L1210.01 564.72L1217.93 557.309H1223.55V584.084H1231.43V587.211H1211.38Z" fill="black"/>
<path id="4" d="M1488.04 587.211V581.342H1473.3V578.172L1486.24 557.309H1491.47V578.386H1495.92V581.342H1491.47V587.211H1488.04ZM1476.52 578.386H1488.04V560.093H1487.87L1476.52 578.386Z" fill="black"/>
</g>
<path id="Example_1" opacity="0.1" d="M259.831 326.552H237.991V325.192C239.004 325.192 239.777 325.125 240.311 324.992C240.871 324.832 241.257 324.512 241.471 324.032C241.684 323.525 241.791 322.752 241.791 321.712V305.312C241.791 304.298 241.697 303.525 241.511 302.992C241.324 302.458 240.964 302.098 240.431 301.912C239.897 301.725 239.084 301.632 237.991 301.632V300.272H259.431L259.671 307.032H258.151C257.964 305.752 257.684 304.778 257.311 304.112C256.964 303.418 256.364 302.952 255.511 302.712C254.684 302.445 253.471 302.312 251.871 302.312H246.191V312.152H250.511C251.791 312.152 252.737 312.058 253.351 311.872C253.991 311.685 254.417 311.325 254.631 310.792C254.844 310.232 254.951 309.418 254.951 308.352H256.431V317.632H254.951C254.951 316.512 254.844 315.698 254.631 315.192C254.417 314.658 253.991 314.312 253.351 314.152C252.737 313.992 251.791 313.912 250.511 313.912H246.191V324.592H251.231C252.697 324.592 253.884 324.512 254.791 324.352C255.724 324.192 256.457 323.912 256.991 323.512C257.524 323.112 257.964 322.552 258.311 321.832C258.684 321.085 259.057 320.138 259.431 318.992H260.911L259.831 326.552ZM282.02 326.552H272.86V325.272C273.553 325.272 274.033 325.205 274.3 325.072C274.593 324.912 274.74 324.658 274.74 324.312C274.74 323.992 274.633 323.672 274.42 323.352L272.1 319.832L271.1 318.112L270.46 317.552L265.98 311.352C265.526 310.685 265.113 310.178 264.74 309.832C264.393 309.485 264.033 309.245 263.66 309.112C263.313 308.978 262.86 308.912 262.3 308.912V307.632H271.62V308.872C270.393 308.872 269.78 309.178 269.78 309.792C269.78 309.978 269.846 310.205 269.98 310.472C270.14 310.738 270.366 311.098 270.66 311.552C270.98 312.005 271.38 312.618 271.86 313.392L272.9 315.312L273.54 315.752L278.74 322.872C279.326 323.672 279.82 324.272 280.22 324.672C280.646 325.072 281.246 325.272 282.02 325.272V326.552ZM268.78 326.552H261.9V325.272C262.593 325.272 263.153 325.125 263.58 324.832C264.033 324.538 264.593 324.005 265.26 323.232L270.46 316.912L271.74 318.472H271.14L268.1 322.752C267.833 323.152 267.593 323.512 267.38 323.832C267.166 324.152 267.06 324.405 267.06 324.592C267.06 324.832 267.18 325.005 267.42 325.112C267.686 325.218 268.14 325.272 268.78 325.272V326.552ZM278.14 310.752L273.54 316.312L272.34 314.992H272.9L274.66 312.552C275.246 311.805 275.633 311.245 275.82 310.872C276.006 310.498 276.1 310.152 276.1 309.832C276.1 309.538 275.98 309.312 275.74 309.152C275.5 308.965 275.073 308.872 274.46 308.872V307.632H281.3V308.912C280.633 308.912 280.06 309.072 279.58 309.392C279.1 309.712 278.62 310.165 278.14 310.752ZM288.144 326.872C286.624 326.872 285.424 326.472 284.544 325.672C283.691 324.872 283.264 323.778 283.264 322.392C283.264 321.298 283.504 320.378 283.984 319.632C284.491 318.885 285.144 318.258 285.944 317.752C286.744 317.245 287.611 316.832 288.544 316.512C289.504 316.165 290.438 315.872 291.344 315.632C292.251 315.392 293.064 315.165 293.784 314.952V313.112C293.784 311.405 293.518 310.218 292.984 309.552C292.478 308.885 291.664 308.552 290.544 308.552C289.504 308.552 288.824 308.778 288.504 309.232C288.211 309.658 288.064 310.472 288.064 311.672C288.064 312.365 287.878 312.885 287.504 313.232C287.131 313.552 286.638 313.712 286.024 313.712C285.571 313.712 285.131 313.538 284.704 313.192C284.304 312.845 284.104 312.298 284.104 311.552C284.104 310.805 284.398 310.098 284.984 309.432C285.571 308.738 286.398 308.192 287.464 307.792C288.558 307.365 289.838 307.152 291.304 307.152C293.598 307.152 295.264 307.645 296.304 308.632C297.344 309.618 297.864 311.178 297.864 313.312V322.272C297.864 323.098 297.958 323.632 298.144 323.872C298.331 324.112 298.638 324.232 299.064 324.232C299.438 324.232 299.771 324.138 300.064 323.952C300.384 323.738 300.691 323.485 300.984 323.192L301.664 323.912C300.998 324.872 300.331 325.605 299.664 326.112C298.998 326.592 298.078 326.832 296.904 326.832C295.811 326.832 295.091 326.578 294.744 326.072C294.398 325.538 294.158 324.765 294.024 323.752L293.784 323.152V316.352C292.638 316.645 291.584 316.992 290.624 317.392C289.691 317.765 288.931 318.272 288.344 318.912C287.784 319.525 287.504 320.338 287.504 321.352C287.504 322.338 287.731 323.112 288.184 323.672C288.638 324.205 289.264 324.472 290.064 324.472C290.704 324.472 291.358 324.312 292.024 323.992C292.718 323.672 293.424 323.178 294.144 322.512L294.424 324.192H293.904C293.291 324.725 292.704 325.205 292.144 325.632C291.611 326.032 291.024 326.338 290.384 326.552C289.771 326.765 289.024 326.872 288.144 326.872ZM324.469 326.552H314.509V325.272C315.416 325.272 316.069 325.178 316.469 324.992C316.869 324.805 317.122 324.472 317.229 323.992C317.362 323.512 317.429 322.832 317.429 321.952V314.592C317.429 312.805 317.136 311.618 316.549 311.032C315.989 310.418 315.242 310.112 314.309 310.112C313.616 310.112 312.962 310.258 312.349 310.552C311.762 310.818 311.216 311.152 310.709 311.552C310.202 311.925 309.762 312.312 309.389 312.712L309.069 310.512H309.749C310.762 309.605 311.762 308.818 312.749 308.152C313.762 307.485 314.949 307.152 316.309 307.152C317.696 307.152 318.789 307.538 319.589 308.312C320.416 309.058 320.989 310.045 321.309 311.272C321.362 311.458 321.402 311.658 321.429 311.872C321.456 312.058 321.482 312.258 321.509 312.472V321.952C321.509 322.805 321.562 323.472 321.669 323.952C321.802 324.432 322.082 324.778 322.509 324.992C322.936 325.178 323.589 325.272 324.469 325.272V326.552ZM312.629 326.552H302.829V325.272C303.682 325.272 304.296 325.192 304.669 325.032C305.069 324.872 305.322 324.592 305.429 324.192C305.536 323.765 305.589 323.165 305.589 322.392V311.472C305.589 310.725 305.456 310.245 305.189 310.032C304.922 309.792 304.509 309.672 303.949 309.672C303.629 309.672 303.362 309.685 303.149 309.712C302.962 309.738 302.869 309.752 302.869 309.752V308.432L308.229 307.272H309.549V310.992L309.669 311.952V322.472C309.669 323.218 309.736 323.792 309.869 324.192C310.029 324.592 310.322 324.872 310.749 325.032C311.176 325.192 311.802 325.272 312.629 325.272V326.552ZM336.069 326.552H326.389V325.272C327.269 325.272 327.896 325.165 328.269 324.952C328.669 324.712 328.909 324.352 328.989 323.872C329.096 323.392 329.149 322.752 329.149 321.952V314.752C329.149 313.498 329.002 312.552 328.709 311.912C328.442 311.245 328.056 310.778 327.549 310.512C327.069 310.245 326.509 310.112 325.869 310.112C325.016 310.112 324.176 310.392 323.349 310.952C322.522 311.512 321.789 312.085 321.149 312.672L320.629 310.592H321.269C322.336 309.498 323.389 308.658 324.429 308.072C325.496 307.458 326.602 307.152 327.749 307.152C329.429 307.152 330.762 307.698 331.749 308.792C332.736 309.858 333.229 311.632 333.229 314.112V321.952C333.229 322.752 333.282 323.405 333.389 323.912C333.496 324.392 333.749 324.738 334.149 324.952C334.549 325.165 335.189 325.272 336.069 325.272V326.552ZM348.542 335.352H337.662V334.072C338.916 334.072 339.716 333.872 340.062 333.472C340.409 333.072 340.582 332.312 340.582 331.192V311.672C340.582 310.898 340.489 310.365 340.302 310.072C340.142 309.752 339.729 309.592 339.062 309.592C338.796 309.592 338.516 309.605 338.222 309.632C337.929 309.658 337.782 309.672 337.782 309.672V308.352L343.182 307.232H344.582V310.592H344.742C345.729 309.498 346.716 308.658 347.702 308.072C348.689 307.458 349.782 307.152 350.982 307.152C352.316 307.152 353.476 307.512 354.462 308.232C355.449 308.952 356.222 309.978 356.782 311.312C357.342 312.645 357.622 314.245 357.622 316.112C357.622 318.378 357.222 320.325 356.422 321.952C355.649 323.552 354.596 324.792 353.262 325.672C351.929 326.525 350.462 326.952 348.862 326.952C348.089 326.952 347.369 326.872 346.702 326.712C346.036 326.552 345.409 326.272 344.822 325.872H344.662V330.912C344.662 331.765 344.769 332.418 344.982 332.872C345.196 333.325 345.582 333.632 346.142 333.792C346.702 333.952 347.502 334.032 348.542 334.032V335.352ZM348.662 325.192C349.969 325.192 351.049 324.565 351.902 323.312C352.756 322.032 353.182 320.005 353.182 317.232C353.182 314.778 352.809 312.992 352.062 311.872C351.342 310.752 350.316 310.192 348.982 310.192C347.996 310.192 347.129 310.458 346.382 310.992C345.636 311.498 345.062 311.992 344.662 312.472V322.752C344.902 323.018 345.209 323.352 345.582 323.752C345.956 324.125 346.396 324.458 346.902 324.752C347.409 325.045 347.996 325.192 348.662 325.192ZM370.053 326.552H360.053V325.272C360.933 325.272 361.573 325.192 361.973 325.032C362.373 324.845 362.613 324.538 362.693 324.112C362.799 323.685 362.853 323.112 362.853 322.392V302.552C362.853 301.725 362.679 301.232 362.333 301.072C362.013 300.912 361.599 300.832 361.093 300.832C360.746 300.832 360.453 300.845 360.213 300.872C359.973 300.898 359.853 300.912 359.853 300.912V299.672L365.413 298.312H366.933V322.352C366.933 323.125 366.999 323.725 367.133 324.152C367.266 324.552 367.546 324.845 367.973 325.032C368.399 325.192 369.093 325.272 370.053 325.272V326.552ZM380.888 326.952C379.181 326.952 377.661 326.578 376.328 325.832C375.021 325.085 373.994 323.978 373.248 322.512C372.528 321.018 372.168 319.205 372.168 317.072C372.168 314.832 372.568 312.978 373.368 311.512C374.168 310.045 375.234 308.952 376.568 308.232C377.901 307.512 379.381 307.152 381.008 307.152C383.301 307.152 385.141 307.912 386.528 309.432C387.914 310.952 388.648 313.152 388.728 316.032H375.848L375.808 314.432H384.208C384.181 313.392 384.034 312.445 383.768 311.592C383.501 310.738 383.088 310.058 382.528 309.552C381.994 309.045 381.288 308.792 380.408 308.792C378.968 308.792 377.901 309.378 377.208 310.552C376.541 311.725 376.208 313.445 376.208 315.712C376.208 317.525 376.474 319.018 377.008 320.192C377.541 321.338 378.261 322.192 379.168 322.752C380.074 323.285 381.088 323.552 382.208 323.552C383.274 323.552 384.154 323.418 384.848 323.152C385.568 322.885 386.168 322.525 386.648 322.072C387.154 321.618 387.621 321.112 388.048 320.552L388.888 321.192C388.514 321.938 388.101 322.672 387.648 323.392C387.194 324.085 386.661 324.698 386.048 325.232C385.461 325.765 384.741 326.192 383.888 326.512C383.061 326.805 382.061 326.952 380.888 326.952ZM416.96 326.552H402.24V325.232C404.134 325.232 405.467 325.032 406.24 324.632C407.04 324.232 407.44 323.538 407.44 322.552V306.072C407.44 305.378 407.347 304.885 407.16 304.592C406.974 304.272 406.627 304.112 406.12 304.112C405.854 304.112 405.467 304.138 404.96 304.192C404.48 304.245 403.974 304.312 403.44 304.392C402.907 304.472 402.427 304.578 402 304.712V303.192L410.08 300.992H411.72V322.552C411.72 323.538 412.134 324.232 412.96 324.632C413.787 325.032 415.12 325.232 416.96 325.232V326.552Z" fill="black"/>
<path id="Example_2" opacity="0.1" d="M907.831 326.552H885.991V325.192C887.004 325.192 887.777 325.125 888.311 324.992C888.871 324.832 889.257 324.512 889.471 324.032C889.684 323.525 889.791 322.752 889.791 321.712V305.312C889.791 304.298 889.697 303.525 889.511 302.992C889.324 302.458 888.964 302.098 888.431 301.912C887.897 301.725 887.084 301.632 885.991 301.632V300.272H907.431L907.671 307.032H906.151C905.964 305.752 905.684 304.778 905.311 304.112C904.964 303.418 904.364 302.952 903.511 302.712C902.684 302.445 901.471 302.312 899.871 302.312H894.191V312.152H898.511C899.791 312.152 900.737 312.058 901.351 311.872C901.991 311.685 902.417 311.325 902.631 310.792C902.844 310.232 902.951 309.418 902.951 308.352H904.431V317.632H902.951C902.951 316.512 902.844 315.698 902.631 315.192C902.417 314.658 901.991 314.312 901.351 314.152C900.737 313.992 899.791 313.912 898.511 313.912H894.191V324.592H899.231C900.697 324.592 901.884 324.512 902.791 324.352C903.724 324.192 904.457 323.912 904.991 323.512C905.524 323.112 905.964 322.552 906.311 321.832C906.684 321.085 907.057 320.138 907.431 318.992H908.911L907.831 326.552ZM930.02 326.552H920.86V325.272C921.553 325.272 922.033 325.205 922.3 325.072C922.593 324.912 922.74 324.658 922.74 324.312C922.74 323.992 922.633 323.672 922.42 323.352L920.1 319.832L919.1 318.112L918.46 317.552L913.98 311.352C913.526 310.685 913.113 310.178 912.74 309.832C912.393 309.485 912.033 309.245 911.66 309.112C911.313 308.978 910.86 308.912 910.3 308.912V307.632H919.62V308.872C918.393 308.872 917.78 309.178 917.78 309.792C917.78 309.978 917.846 310.205 917.98 310.472C918.14 310.738 918.366 311.098 918.66 311.552C918.98 312.005 919.38 312.618 919.86 313.392L920.9 315.312L921.54 315.752L926.74 322.872C927.326 323.672 927.82 324.272 928.22 324.672C928.646 325.072 929.246 325.272 930.02 325.272V326.552ZM916.78 326.552H909.9V325.272C910.593 325.272 911.153 325.125 911.58 324.832C912.033 324.538 912.593 324.005 913.26 323.232L918.46 316.912L919.74 318.472H919.14L916.1 322.752C915.833 323.152 915.593 323.512 915.38 323.832C915.166 324.152 915.06 324.405 915.06 324.592C915.06 324.832 915.18 325.005 915.42 325.112C915.686 325.218 916.14 325.272 916.78 325.272V326.552ZM926.14 310.752L921.54 316.312L920.34 314.992H920.9L922.66 312.552C923.246 311.805 923.633 311.245 923.82 310.872C924.006 310.498 924.1 310.152 924.1 309.832C924.1 309.538 923.98 309.312 923.74 309.152C923.5 308.965 923.073 308.872 922.46 308.872V307.632H929.3V308.912C928.633 308.912 928.06 309.072 927.58 309.392C927.1 309.712 926.62 310.165 926.14 310.752ZM936.144 326.872C934.624 326.872 933.424 326.472 932.544 325.672C931.691 324.872 931.264 323.778 931.264 322.392C931.264 321.298 931.504 320.378 931.984 319.632C932.491 318.885 933.144 318.258 933.944 317.752C934.744 317.245 935.611 316.832 936.544 316.512C937.504 316.165 938.438 315.872 939.344 315.632C940.251 315.392 941.064 315.165 941.784 314.952V313.112C941.784 311.405 941.518 310.218 940.984 309.552C940.478 308.885 939.664 308.552 938.544 308.552C937.504 308.552 936.824 308.778 936.504 309.232C936.211 309.658 936.064 310.472 936.064 311.672C936.064 312.365 935.878 312.885 935.504 313.232C935.131 313.552 934.638 313.712 934.024 313.712C933.571 313.712 933.131 313.538 932.704 313.192C932.304 312.845 932.104 312.298 932.104 311.552C932.104 310.805 932.398 310.098 932.984 309.432C933.571 308.738 934.398 308.192 935.464 307.792C936.558 307.365 937.838 307.152 939.304 307.152C941.598 307.152 943.264 307.645 944.304 308.632C945.344 309.618 945.864 311.178 945.864 313.312V322.272C945.864 323.098 945.958 323.632 946.144 323.872C946.331 324.112 946.638 324.232 947.064 324.232C947.438 324.232 947.771 324.138 948.064 323.952C948.384 323.738 948.691 323.485 948.984 323.192L949.664 323.912C948.998 324.872 948.331 325.605 947.664 326.112C946.998 326.592 946.078 326.832 944.904 326.832C943.811 326.832 943.091 326.578 942.744 326.072C942.398 325.538 942.158 324.765 942.024 323.752L941.784 323.152V316.352C940.638 316.645 939.584 316.992 938.624 317.392C937.691 317.765 936.931 318.272 936.344 318.912C935.784 319.525 935.504 320.338 935.504 321.352C935.504 322.338 935.731 323.112 936.184 323.672C936.638 324.205 937.264 324.472 938.064 324.472C938.704 324.472 939.358 324.312 940.024 323.992C940.718 323.672 941.424 323.178 942.144 322.512L942.424 324.192H941.904C941.291 324.725 940.704 325.205 940.144 325.632C939.611 326.032 939.024 326.338 938.384 326.552C937.771 326.765 937.024 326.872 936.144 326.872ZM972.469 326.552H962.509V325.272C963.416 325.272 964.069 325.178 964.469 324.992C964.869 324.805 965.122 324.472 965.229 323.992C965.362 323.512 965.429 322.832 965.429 321.952V314.592C965.429 312.805 965.136 311.618 964.549 311.032C963.989 310.418 963.242 310.112 962.309 310.112C961.616 310.112 960.962 310.258 960.349 310.552C959.762 310.818 959.216 311.152 958.709 311.552C958.202 311.925 957.762 312.312 957.389 312.712L957.069 310.512H957.749C958.762 309.605 959.762 308.818 960.749 308.152C961.762 307.485 962.949 307.152 964.309 307.152C965.696 307.152 966.789 307.538 967.589 308.312C968.416 309.058 968.989 310.045 969.309 311.272C969.362 311.458 969.402 311.658 969.429 311.872C969.456 312.058 969.482 312.258 969.509 312.472V321.952C969.509 322.805 969.562 323.472 969.669 323.952C969.802 324.432 970.082 324.778 970.509 324.992C970.936 325.178 971.589 325.272 972.469 325.272V326.552ZM960.629 326.552H950.829V325.272C951.682 325.272 952.296 325.192 952.669 325.032C953.069 324.872 953.322 324.592 953.429 324.192C953.536 323.765 953.589 323.165 953.589 322.392V311.472C953.589 310.725 953.456 310.245 953.189 310.032C952.922 309.792 952.509 309.672 951.949 309.672C951.629 309.672 951.362 309.685 951.149 309.712C950.962 309.738 950.869 309.752 950.869 309.752V308.432L956.229 307.272H957.549V310.992L957.669 311.952V322.472C957.669 323.218 957.736 323.792 957.869 324.192C958.029 324.592 958.322 324.872 958.749 325.032C959.176 325.192 959.802 325.272 960.629 325.272V326.552ZM984.069 326.552H974.389V325.272C975.269 325.272 975.896 325.165 976.269 324.952C976.669 324.712 976.909 324.352 976.989 323.872C977.096 323.392 977.149 322.752 977.149 321.952V314.752C977.149 313.498 977.002 312.552 976.709 311.912C976.442 311.245 976.056 310.778 975.549 310.512C975.069 310.245 974.509 310.112 973.869 310.112C973.016 310.112 972.176 310.392 971.349 310.952C970.522 311.512 969.789 312.085 969.149 312.672L968.629 310.592H969.269C970.336 309.498 971.389 308.658 972.429 308.072C973.496 307.458 974.602 307.152 975.749 307.152C977.429 307.152 978.762 307.698 979.749 308.792C980.736 309.858 981.229 311.632 981.229 314.112V321.952C981.229 322.752 981.282 323.405 981.389 323.912C981.496 324.392 981.749 324.738 982.149 324.952C982.549 325.165 983.189 325.272 984.069 325.272V326.552ZM996.542 335.352H985.662V334.072C986.916 334.072 987.716 333.872 988.062 333.472C988.409 333.072 988.582 332.312 988.582 331.192V311.672C988.582 310.898 988.489 310.365 988.302 310.072C988.142 309.752 987.729 309.592 987.062 309.592C986.796 309.592 986.516 309.605 986.222 309.632C985.929 309.658 985.782 309.672 985.782 309.672V308.352L991.182 307.232H992.582V310.592H992.742C993.729 309.498 994.716 308.658 995.702 308.072C996.689 307.458 997.782 307.152 998.982 307.152C1000.32 307.152 1001.48 307.512 1002.46 308.232C1003.45 308.952 1004.22 309.978 1004.78 311.312C1005.34 312.645 1005.62 314.245 1005.62 316.112C1005.62 318.378 1005.22 320.325 1004.42 321.952C1003.65 323.552 1002.6 324.792 1001.26 325.672C999.929 326.525 998.462 326.952 996.862 326.952C996.089 326.952 995.369 326.872 994.702 326.712C994.036 326.552 993.409 326.272 992.822 325.872H992.662V330.912C992.662 331.765 992.769 332.418 992.982 332.872C993.196 333.325 993.582 333.632 994.142 333.792C994.702 333.952 995.502 334.032 996.542 334.032V335.352ZM996.662 325.192C997.969 325.192 999.049 324.565 999.902 323.312C1000.76 322.032 1001.18 320.005 1001.18 317.232C1001.18 314.778 1000.81 312.992 1000.06 311.872C999.342 310.752 998.316 310.192 996.982 310.192C995.996 310.192 995.129 310.458 994.382 310.992C993.636 311.498 993.062 311.992 992.662 312.472V322.752C992.902 323.018 993.209 323.352 993.582 323.752C993.956 324.125 994.396 324.458 994.902 324.752C995.409 325.045 995.996 325.192 996.662 325.192ZM1018.05 326.552H1008.05V325.272C1008.93 325.272 1009.57 325.192 1009.97 325.032C1010.37 324.845 1010.61 324.538 1010.69 324.112C1010.8 323.685 1010.85 323.112 1010.85 322.392V302.552C1010.85 301.725 1010.68 301.232 1010.33 301.072C1010.01 300.912 1009.6 300.832 1009.09 300.832C1008.75 300.832 1008.45 300.845 1008.21 300.872C1007.97 300.898 1007.85 300.912 1007.85 300.912V299.672L1013.41 298.312H1014.93V322.352C1014.93 323.125 1015 323.725 1015.13 324.152C1015.27 324.552 1015.55 324.845 1015.97 325.032C1016.4 325.192 1017.09 325.272 1018.05 325.272V326.552ZM1028.89 326.952C1027.18 326.952 1025.66 326.578 1024.33 325.832C1023.02 325.085 1021.99 323.978 1021.25 322.512C1020.53 321.018 1020.17 319.205 1020.17 317.072C1020.17 314.832 1020.57 312.978 1021.37 311.512C1022.17 310.045 1023.23 308.952 1024.57 308.232C1025.9 307.512 1027.38 307.152 1029.01 307.152C1031.3 307.152 1033.14 307.912 1034.53 309.432C1035.91 310.952 1036.65 313.152 1036.73 316.032H1023.85L1023.81 314.432H1032.21C1032.18 313.392 1032.03 312.445 1031.77 311.592C1031.5 310.738 1031.09 310.058 1030.53 309.552C1029.99 309.045 1029.29 308.792 1028.41 308.792C1026.97 308.792 1025.9 309.378 1025.21 310.552C1024.54 311.725 1024.21 313.445 1024.21 315.712C1024.21 317.525 1024.47 319.018 1025.01 320.192C1025.54 321.338 1026.26 322.192 1027.17 322.752C1028.07 323.285 1029.09 323.552 1030.21 323.552C1031.27 323.552 1032.15 323.418 1032.85 323.152C1033.57 322.885 1034.17 322.525 1034.65 322.072C1035.15 321.618 1035.62 321.112 1036.05 320.552L1036.89 321.192C1036.51 321.938 1036.1 322.672 1035.65 323.392C1035.19 324.085 1034.66 324.698 1034.05 325.232C1033.46 325.765 1032.74 326.192 1031.89 326.512C1031.06 326.805 1030.06 326.952 1028.89 326.952ZM1064.76 326.552H1048.88V324.792L1054.68 318.952C1055.96 317.618 1057.03 316.405 1057.88 315.312C1058.76 314.218 1059.41 313.112 1059.84 311.992C1060.27 310.872 1060.48 309.605 1060.48 308.192C1060.48 306.778 1060.08 305.645 1059.28 304.792C1058.48 303.938 1057.35 303.512 1055.88 303.512C1054.63 303.512 1053.55 303.778 1052.64 304.312C1051.76 304.845 1050.96 305.845 1050.24 307.312L1049.04 306.832C1049.68 304.885 1050.69 303.378 1052.08 302.312C1053.49 301.245 1055.2 300.712 1057.2 300.712C1058.72 300.712 1060.05 301.005 1061.2 301.592C1062.37 302.152 1063.29 302.952 1063.96 303.992C1064.63 305.005 1064.96 306.205 1064.96 307.592C1064.96 308.818 1064.71 309.978 1064.2 311.072C1063.69 312.138 1062.93 313.245 1061.92 314.392C1060.93 315.512 1059.71 316.778 1058.24 318.192L1053.16 322.832V323.072L1055.88 322.912H1061.12C1062.19 322.912 1062.93 322.672 1063.36 322.192C1063.79 321.685 1064.23 320.832 1064.68 319.632H1066.04L1064.76 326.552Z" fill="black"/>
</g>
</svg>
