<svg width="1920" height="1080" viewBox="0 0 1920 1080" fill="none" xmlns="http://www.w3.org/2000/svg">
<g id="Examples">
<rect width="1920" height="1080" fill="white"/>
<g id="Group_1462" opacity="0.1">
<path id="&#226;&#136;&#158;" d="M1134.18 675.044C1134.18 680.676 1130 687.934 1122.68 687.934C1117.92 687.934 1114.61 684.856 1111.01 679.515C1108.4 684.798 1104.45 687.934 1098.88 687.934C1093.88 687.934 1088.66 684.334 1088.66 676.321C1088.66 665.638 1096.38 662.967 1099.75 662.967C1103.99 662.967 1106.89 664.071 1112.4 671.502C1115.08 666.683 1117.75 662.967 1123.61 662.967C1128.84 662.967 1134.18 667.264 1134.18 675.044ZM1113.57 673.709V673.883C1117.75 680.792 1120.94 684.508 1124.89 684.508C1128.14 684.508 1130.69 681.315 1130.69 677.599C1130.69 672.315 1127.73 667.845 1122.62 667.845C1117.46 667.845 1115.25 671.27 1113.57 673.709ZM1109.73 677.425V677.25C1105.55 670.341 1101.9 666.393 1097.95 666.393C1094.7 666.393 1092.14 669.586 1092.14 673.302C1092.14 678.237 1095.1 683.056 1100.21 683.056C1105.38 683.056 1108.17 679.515 1109.73 677.425Z" fill="#5300F9"/>
<path id="0" d="M1390.06 695.951C1387.69 695.951 1385.68 695.467 1384.02 694.5C1382.39 693.493 1381.08 692.119 1380.07 690.377C1379.06 688.597 1378.33 686.545 1377.86 684.223C1377.4 681.9 1377.17 679.404 1377.17 676.733C1377.17 672.901 1377.65 669.592 1378.62 666.805C1379.62 663.979 1381.09 661.811 1383.03 660.302C1384.97 658.792 1387.35 658.037 1390.17 658.037C1392.69 658.037 1394.89 658.754 1396.79 660.186C1398.73 661.618 1400.22 663.747 1401.26 666.572C1402.34 669.359 1402.89 672.804 1402.89 676.907C1402.89 679.501 1402.64 681.959 1402.13 684.281C1401.67 686.565 1400.91 688.597 1399.87 690.377C1398.86 692.119 1397.55 693.493 1395.92 694.5C1394.29 695.467 1392.34 695.951 1390.06 695.951ZM1390 693.513C1391.66 693.513 1392.96 692.177 1393.89 689.506C1394.82 686.797 1395.28 682.713 1395.28 677.256C1395.28 671.488 1394.84 667.23 1393.95 664.482C1393.06 661.734 1391.72 660.36 1389.94 660.36C1388.27 660.36 1386.98 661.734 1386.05 664.482C1385.16 667.23 1384.71 671.411 1384.71 677.023C1384.71 682.52 1385.16 686.642 1386.05 689.39C1386.98 692.139 1388.29 693.513 1390 693.513Z" fill="#5300F9"/>
<path id="0_2" d="M1686.16 695.951C1683.8 695.951 1681.78 695.467 1680.12 694.5C1678.49 693.493 1677.18 692.119 1676.17 690.377C1675.16 688.597 1674.43 686.545 1673.96 684.223C1673.5 681.9 1673.27 679.404 1673.27 676.733C1673.27 672.901 1673.75 669.592 1674.72 666.805C1675.73 663.979 1677.2 661.811 1679.13 660.302C1681.07 658.792 1683.45 658.037 1686.27 658.037C1688.79 658.037 1691 658.754 1692.89 660.186C1694.83 661.618 1696.32 663.747 1697.36 666.572C1698.45 669.359 1698.99 672.804 1698.99 676.907C1698.99 679.501 1698.74 681.959 1698.23 684.281C1697.77 686.565 1697.01 688.597 1695.97 690.377C1694.96 692.119 1693.65 693.493 1692.02 694.5C1690.4 695.467 1688.44 695.951 1686.16 695.951ZM1686.1 693.513C1687.76 693.513 1689.06 692.177 1689.99 689.506C1690.92 686.797 1691.38 682.713 1691.38 677.256C1691.38 671.488 1690.94 667.23 1690.05 664.482C1689.16 661.734 1687.82 660.36 1686.04 660.36C1684.38 660.36 1683.08 661.734 1682.15 664.482C1681.26 667.23 1680.82 671.411 1680.82 677.023C1680.82 682.52 1681.26 686.642 1682.15 689.39C1683.08 692.139 1684.4 693.513 1686.1 693.513Z" fill="#5300F9"/>
</g>
<g id="values" opacity="0.1">
<g id="Group 144">
<path id="2" d="M724.154 487.793H701.962V484.742L709.618 477.03C711.394 475.217 712.855 473.572 714.001 472.092C715.148 470.576 716.017 469.041 716.609 467.487C717.201 465.934 717.497 464.158 717.497 462.161C717.497 460.312 717.016 458.832 716.054 457.723C715.092 456.613 713.631 456.058 711.671 456.058C710.007 456.058 708.583 456.41 707.399 457.112C706.216 457.778 705.124 459.11 704.126 461.107L702.073 460.33C703.035 457.63 704.514 455.559 706.511 454.116C708.546 452.637 711.005 451.897 713.89 451.897C716.036 451.897 717.922 452.286 719.549 453.062C721.177 453.839 722.453 454.949 723.377 456.391C724.302 457.797 724.764 459.443 724.764 461.329C724.764 463.067 724.413 464.713 723.71 466.267C723.008 467.783 721.935 469.318 720.493 470.871C719.05 472.425 717.275 474.145 715.166 476.031L708.398 481.968V482.356L712.059 482.023H718.939C720.419 482.023 721.454 481.69 722.046 481.024C722.638 480.359 723.248 479.194 723.877 477.529H725.93L724.154 487.793Z" fill="#5300F9"/>
<path id="5" d="M357.047 679.34C354.569 679.34 352.812 679.063 351.777 678.508C350.778 677.916 350.279 677.065 350.279 675.956C350.279 675.179 350.5 674.476 350.944 673.847C351.388 673.182 352.054 672.849 352.942 672.849C353.644 672.849 354.292 673.034 354.883 673.404C355.475 673.737 356.048 674.143 356.603 674.624C357.195 675.068 357.842 675.456 358.545 675.789C359.248 676.122 360.025 676.289 360.875 676.289C362.244 676.289 363.427 676.067 364.426 675.623C365.425 675.142 366.201 674.365 366.756 673.293C367.348 672.183 367.644 670.685 367.644 668.799C367.644 667.06 367.274 665.673 366.534 664.638C365.832 663.602 364.814 662.807 363.483 662.252C362.188 661.697 360.653 661.309 358.878 661.087C357.14 660.865 355.235 660.754 353.164 660.754L352.331 659.534L356.104 643.555H372.693L371.749 649.103H357.657L356.381 654.707C357.935 654.781 359.525 654.929 361.153 655.151C362.78 655.373 364.334 655.742 365.813 656.26C367.329 656.741 368.68 657.425 369.863 658.313C371.047 659.164 371.99 660.255 372.693 661.586C373.395 662.881 373.747 664.471 373.747 666.358C373.747 668.651 373.303 670.63 372.415 672.294C371.528 673.921 370.307 675.253 368.753 676.289C367.237 677.324 365.462 678.082 363.427 678.563C361.43 679.081 359.303 679.34 357.047 679.34Z" fill="#5300F9"/>
<path id="0_3" d="M712.259 767.539C710.003 767.539 708.08 767.077 706.489 766.152C704.936 765.19 703.678 763.877 702.717 762.213C701.755 760.511 701.052 758.551 700.608 756.332C700.164 754.113 699.942 751.727 699.942 749.175C699.942 745.513 700.405 742.351 701.329 739.688C702.291 736.988 703.697 734.917 705.546 733.474C707.395 732.032 709.67 731.31 712.37 731.31C714.774 731.31 716.882 731.995 718.695 733.363C720.544 734.732 721.968 736.766 722.967 739.466C724.002 742.129 724.52 745.421 724.52 749.341C724.52 751.82 724.28 754.168 723.799 756.387C723.355 758.57 722.634 760.511 721.635 762.213C720.674 763.877 719.416 765.19 717.863 766.152C716.309 767.077 714.441 767.539 712.259 767.539ZM712.204 765.209C713.794 765.209 715.033 763.933 715.921 761.381C716.809 758.792 717.252 754.889 717.252 749.674C717.252 744.163 716.827 740.095 715.976 737.469C715.126 734.843 713.85 733.53 712.148 733.53C710.558 733.53 709.319 734.843 708.431 737.469C707.58 740.095 707.155 744.089 707.155 749.452C707.155 754.705 707.58 758.644 708.431 761.27C709.319 763.896 710.576 765.209 712.204 765.209Z" fill="#5300F9"/>
</g>
</g>
<g id="Group_23" opacity="0.1">
<circle id="Ellipse 2" cx="392.907" cy="602.879" r="43.2747" stroke="#3867D6" stroke-width="4.61596"/>
<rect id="Rectangle 1" x="612.144" y="666.478" width="76.1634" height="76.1634" stroke="#EB3B5A" stroke-width="4.61596"/>
<rect id="Rectangle 2" x="612.144" y="417.926" width="76.1634" height="76.1634" stroke="#EB3B5A" stroke-width="4.61596"/>
<path id="3" d="M466.815 430.152C468.716 430.152 470.135 429.736 471.073 428.902C472.036 428.043 472.518 426.949 472.518 425.621V425.348C472.518 423.89 472.049 422.796 471.112 422.067C470.2 421.338 469.002 420.973 467.518 420.973C466.06 420.973 464.875 421.299 463.964 421.95C463.079 422.575 462.35 423.408 461.777 424.45L459.316 422.575C459.655 422.028 460.071 421.494 460.566 420.973C461.061 420.427 461.634 419.945 462.284 419.528C462.961 419.112 463.73 418.773 464.589 418.513C465.474 418.252 466.477 418.122 467.596 418.122C468.768 418.122 469.862 418.278 470.877 418.591C471.893 418.877 472.778 419.32 473.533 419.919C474.288 420.492 474.874 421.208 475.291 422.067C475.734 422.926 475.955 423.903 475.955 424.996C475.955 425.882 475.812 426.676 475.525 427.379C475.265 428.082 474.887 428.694 474.393 429.215C473.924 429.736 473.364 430.178 472.713 430.543C472.062 430.907 471.372 431.181 470.643 431.363V431.519C471.398 431.675 472.127 431.936 472.83 432.3C473.533 432.639 474.158 433.095 474.705 433.667C475.252 434.214 475.681 434.891 475.994 435.698C476.332 436.48 476.502 437.378 476.502 438.393C476.502 439.565 476.267 440.646 475.799 441.635C475.356 442.599 474.718 443.432 473.885 444.135C473.078 444.812 472.088 445.346 470.916 445.736C469.771 446.127 468.495 446.322 467.089 446.322C465.891 446.322 464.823 446.192 463.886 445.932C462.975 445.671 462.154 445.32 461.425 444.877C460.722 444.434 460.097 443.94 459.55 443.393C459.03 442.846 458.561 442.273 458.144 441.674L460.605 439.8C460.97 440.346 461.347 440.841 461.738 441.284C462.128 441.726 462.571 442.117 463.066 442.455C463.586 442.768 464.172 443.015 464.823 443.198C465.474 443.38 466.229 443.471 467.089 443.471C469.016 443.471 470.487 443.028 471.502 442.143C472.544 441.258 473.065 439.995 473.065 438.354V438.042C473.065 436.427 472.557 435.178 471.541 434.292C470.552 433.407 469.055 432.964 467.05 432.964H463.808V430.152H466.815Z" fill="black"/>
<path id="2_2" d="M734.67 597.646H716.468V594.287L725.569 586.085C726.897 584.887 727.991 583.664 728.85 582.414C729.709 581.138 730.139 579.797 730.139 578.391V577.922C730.139 576.282 729.709 575.019 728.85 574.133C727.991 573.222 726.715 572.766 725.022 572.766C723.356 572.766 722.067 573.196 721.155 574.055C720.27 574.889 719.606 576.008 719.163 577.414L716.234 576.321C716.494 575.514 716.846 574.732 717.289 573.977C717.757 573.196 718.343 572.506 719.046 571.907C719.749 571.308 720.596 570.827 721.585 570.462C722.601 570.097 723.772 569.915 725.1 569.915C726.454 569.915 727.652 570.11 728.694 570.501C729.761 570.892 730.647 571.438 731.35 572.142C732.079 572.845 732.625 573.678 732.99 574.641C733.381 575.605 733.576 576.659 733.576 577.805C733.576 578.846 733.42 579.823 733.107 580.734C732.821 581.646 732.404 582.518 731.857 583.351C731.337 584.184 730.699 585.005 729.944 585.812C729.214 586.593 728.394 587.374 727.483 588.155L719.867 594.795H734.67V597.646Z" fill="black"/>
<path id="1" d="M239.437 609.188V606.337H247.249V584.347H246.975L240.101 590.753L238.187 588.683L245.413 581.926H250.53V606.337H257.716V609.188H239.437Z" fill="black"/>
<path id="Vector 3" d="M578.329 440.474L565.295 432.318L564.749 447.683L578.329 440.474ZM412.332 530.573L413.602 530.972C425.727 492.339 449.34 469.713 477.157 456.845C505.03 443.951 537.182 440.829 566.331 441.379L566.357 440.048L566.382 438.717C537.054 438.163 504.438 441.29 476.039 454.428C447.585 467.591 423.425 490.78 411.062 530.174L412.332 530.573Z" fill="black"/>
<path id="Vector 7" d="M680.774 655.243L693.743 646.985L680.108 639.882L680.774 655.243ZM673.228 507.443L672.281 508.379C688.948 525.247 697.077 548.55 698.566 573.001C700.056 597.451 694.896 622.944 685.105 644.049L686.313 644.61L687.521 645.17C697.491 623.677 702.741 597.744 701.224 572.839C699.707 547.934 691.413 523.953 674.175 506.507L673.228 507.443Z" fill="black"/>
<path id="Vector 5" d="M335.54 580.283L326.38 566.372L318.912 581.26L335.54 580.283ZM323.937 574.463L324.491 573.132C306.743 565.738 292.91 567.17 283.593 573.424C274.308 579.655 269.818 590.473 270.354 601.2C270.892 611.945 276.475 622.716 287.459 628.887C298.438 635.055 314.572 636.497 336.008 629.139L335.54 627.774L335.072 626.41C314.139 633.596 298.915 632.014 288.872 626.372C278.833 620.732 273.729 610.907 273.236 601.055C272.742 591.185 276.878 581.404 285.2 575.819C293.489 570.257 306.242 568.655 323.382 575.795L323.937 574.463Z" fill="black"/>
</g>
<g id="neg_weights" opacity="0.1">
<path id="Vector 2" d="M596.876 732.853C597.661 732.721 598.405 733.25 598.538 734.036C598.67 734.821 598.14 735.565 597.355 735.698L597.115 734.275L596.876 732.853ZM405.375 653.94L418.601 664.065L403.219 670.456L405.375 653.94ZM597.115 734.275L597.355 735.698C557.997 742.326 517.497 737.624 483.577 725.013C449.685 712.413 422.189 691.848 409.078 666.598L410.358 665.933L411.638 665.268C424.307 689.666 451.09 709.857 484.582 722.309C518.046 734.75 558.035 739.394 596.876 732.853L597.115 734.275Z" fill="black"/>
<path id="-6" d="M455.37 754.278V750.998H466.697V754.278H455.37ZM484.493 764.98C483.06 764.98 481.771 764.746 480.626 764.277C479.48 763.783 478.504 763.093 477.696 762.207C476.915 761.296 476.303 760.189 475.861 758.887C475.444 757.585 475.236 756.127 475.236 754.513C475.236 752.482 475.535 750.581 476.134 748.81C476.759 747.014 477.54 745.386 478.478 743.928C479.441 742.444 480.509 741.142 481.68 740.022C482.852 738.877 483.998 737.952 485.117 737.249H489.336C487.852 738.317 486.524 739.358 485.352 740.374C484.206 741.389 483.191 742.457 482.305 743.577C481.42 744.67 480.678 745.855 480.079 747.131C479.48 748.381 478.985 749.8 478.595 751.388L478.79 751.466C479.441 750.347 480.3 749.422 481.368 748.693C482.435 747.938 483.816 747.56 485.508 747.56C486.706 747.56 487.799 747.756 488.789 748.146C489.778 748.537 490.638 749.097 491.367 749.826C492.096 750.555 492.656 751.44 493.046 752.482C493.463 753.523 493.671 754.682 493.671 755.958C493.671 757.286 493.45 758.51 493.007 759.629C492.565 760.723 491.94 761.673 491.132 762.481C490.351 763.262 489.388 763.874 488.242 764.316C487.122 764.759 485.873 764.98 484.493 764.98ZM484.453 762.207C486.328 762.207 487.773 761.7 488.789 760.684C489.83 759.669 490.351 758.236 490.351 756.388V756.075C490.351 754.226 489.83 752.794 488.789 751.779C487.773 750.763 486.328 750.255 484.453 750.255C482.579 750.255 481.121 750.763 480.079 751.779C479.063 752.794 478.556 754.226 478.556 756.075V756.388C478.556 758.236 479.063 759.669 480.079 760.684C481.121 761.7 482.579 762.207 484.453 762.207Z" fill="black"/>
<path id="-5" d="M497.093 534.132V530.851H508.42V534.132H497.093ZM534.027 519.954H521.841L521.06 530.382H521.333C522.01 529.471 522.765 528.755 523.598 528.234C524.432 527.687 525.577 527.414 527.035 527.414C528.233 527.414 529.327 527.609 530.316 528C531.332 528.364 532.204 528.911 532.933 529.64C533.662 530.369 534.235 531.255 534.652 532.296C535.068 533.312 535.277 534.484 535.277 535.811C535.277 537.139 535.068 538.363 534.652 539.483C534.235 540.577 533.623 541.527 532.816 542.334C532.009 543.115 531.032 543.727 529.887 544.17C528.741 544.613 527.439 544.834 525.981 544.834C524.835 544.834 523.807 544.704 522.895 544.443C522.01 544.183 521.216 543.831 520.513 543.389C519.836 542.946 519.237 542.451 518.716 541.905C518.195 541.358 517.727 540.785 517.31 540.186L519.771 538.311C520.135 538.858 520.5 539.353 520.864 539.795C521.255 540.238 521.697 540.629 522.192 540.967C522.687 541.28 523.247 541.527 523.872 541.709C524.497 541.892 525.226 541.983 526.059 541.983C527.934 541.983 529.366 541.475 530.355 540.459C531.371 539.444 531.879 538.038 531.879 536.241V535.929C531.879 534.132 531.371 532.726 530.355 531.71C529.34 530.695 527.882 530.187 525.981 530.187C524.679 530.187 523.663 530.408 522.934 530.851C522.231 531.294 521.58 531.841 520.981 532.492L518.208 532.101L519.185 517.103H534.027V519.954Z" fill="black"/>
<path id="-3" d="M559.23 592.718V589.437H570.557V592.718H559.23ZM587.141 587.25C589.042 587.25 590.461 586.833 591.398 586C592.362 585.141 592.844 584.047 592.844 582.719V582.446C592.844 580.987 592.375 579.894 591.438 579.165C590.526 578.436 589.328 578.071 587.844 578.071C586.386 578.071 585.201 578.397 584.29 579.048C583.405 579.673 582.675 580.506 582.103 581.547L579.642 579.673C579.98 579.126 580.397 578.592 580.892 578.071C581.387 577.524 581.959 577.043 582.61 576.626C583.287 576.209 584.056 575.871 584.915 575.61C585.8 575.35 586.803 575.22 587.922 575.22C589.094 575.22 590.188 575.376 591.203 575.689C592.219 575.975 593.104 576.418 593.859 577.017C594.614 577.589 595.2 578.305 595.617 579.165C596.059 580.024 596.281 581 596.281 582.094C596.281 582.979 596.138 583.774 595.851 584.477C595.591 585.18 595.213 585.792 594.718 586.312C594.25 586.833 593.69 587.276 593.039 587.64C592.388 588.005 591.698 588.278 590.969 588.461V588.617C591.724 588.773 592.453 589.033 593.156 589.398C593.859 589.736 594.484 590.192 595.031 590.765C595.578 591.312 596.007 591.989 596.32 592.796C596.658 593.577 596.828 594.476 596.828 595.491C596.828 596.663 596.593 597.743 596.124 598.733C595.682 599.696 595.044 600.53 594.211 601.233C593.403 601.91 592.414 602.443 591.242 602.834C590.097 603.225 588.821 603.42 587.415 603.42C586.217 603.42 585.149 603.29 584.212 603.029C583.3 602.769 582.48 602.417 581.751 601.975C581.048 601.532 580.423 601.037 579.876 600.491C579.356 599.944 578.887 599.371 578.47 598.772L580.931 596.897C581.295 597.444 581.673 597.939 582.064 598.381C582.454 598.824 582.897 599.215 583.392 599.553C583.912 599.866 584.498 600.113 585.149 600.295C585.8 600.477 586.555 600.569 587.415 600.569C589.341 600.569 590.813 600.126 591.828 599.241C592.87 598.355 593.39 597.092 593.39 595.452V595.14C593.39 593.525 592.883 592.275 591.867 591.39C590.878 590.505 589.38 590.062 587.375 590.062H584.134V587.25H587.141Z" fill="black"/>
<path id="Vector 4" d="M444.435 581.594L458.106 588.63L457.364 573.273L444.435 581.594ZM602.887 486.612L601.725 485.96C571.52 539.84 507.554 574.865 456.273 579.69L456.397 581.016L456.522 582.342C508.569 577.444 573.366 541.992 604.048 487.263L602.887 486.612Z" fill="black"/>
<path id="Vector 6" d="M626.625 507.533L613.655 515.79L627.291 522.894L626.625 507.533ZM634.17 655.332L635.117 654.397C618.45 637.529 610.321 614.225 608.832 589.775C607.343 565.324 612.503 539.831 622.293 518.726L621.086 518.166L619.878 517.606C609.907 539.098 604.657 565.032 606.174 589.937C607.691 614.842 615.985 638.823 633.223 656.268L634.17 655.332Z" fill="black"/>
</g>
<g id="green_edges" opacity="0.1">
<path id="Vector 2_2" d="M596.562 732.282C597.676 731.844 598.934 732.392 599.372 733.505C599.81 734.619 599.263 735.877 598.149 736.316L597.355 734.299L596.562 732.282ZM532.28 759.11L550.213 741.656L556.362 765.914L532.28 759.11ZM597.355 734.299L598.149 736.316C586.727 740.809 578.683 744.614 571.745 747.897C564.812 751.178 558.909 753.975 551.888 756.368L551.189 754.317L550.489 752.266C557.242 749.964 562.93 747.273 569.891 743.979C576.846 740.688 584.998 736.831 596.562 732.282L597.355 734.299Z" fill="#73A331"/>
<path id="&#60;0" d="M559.441 770.697V767.573L576.236 757.847V761.089L562.37 768.94V769.252L576.236 777.103V780.423L559.441 770.697ZM591.258 781.517C589.592 781.517 588.16 781.204 586.962 780.579C585.764 779.928 584.775 779.004 583.993 777.806C583.212 776.608 582.639 775.137 582.275 773.392C581.91 771.648 581.728 769.656 581.728 767.417C581.728 765.203 581.91 763.224 582.275 761.48C582.639 759.709 583.212 758.225 583.993 757.027C584.775 755.829 585.764 754.918 586.962 754.293C588.16 753.642 589.592 753.317 591.258 753.317C592.925 753.317 594.357 753.642 595.555 754.293C596.752 754.918 597.742 755.829 598.523 757.027C599.304 758.225 599.877 759.709 600.242 761.48C600.606 763.224 600.788 765.203 600.788 767.417C600.788 769.656 600.606 771.648 600.242 773.392C599.877 775.137 599.304 776.608 598.523 777.806C597.742 779.004 596.752 779.928 595.555 780.579C594.357 781.204 592.925 781.517 591.258 781.517ZM591.258 778.665C592.352 778.665 593.289 778.457 594.07 778.04C594.852 777.598 595.476 776.986 595.945 776.205C596.44 775.423 596.804 774.486 597.039 773.392C597.273 772.273 597.39 771.023 597.39 769.643V765.19C597.39 763.836 597.273 762.599 597.039 761.48C596.804 760.36 596.44 759.41 595.945 758.628C595.476 757.847 594.852 757.248 594.07 756.832C593.289 756.389 592.352 756.168 591.258 756.168C590.165 756.168 589.227 756.389 588.446 756.832C587.665 757.248 587.027 757.847 586.532 758.628C586.063 759.41 585.712 760.36 585.478 761.48C585.243 762.599 585.126 763.836 585.126 765.19V769.643C585.126 771.023 585.243 772.273 585.478 773.392C585.712 774.486 586.063 775.423 586.532 776.205C587.027 776.986 587.665 777.598 588.446 778.04C589.227 778.457 590.165 778.665 591.258 778.665ZM591.258 769.721C590.347 769.721 589.709 769.539 589.344 769.174C589.006 768.81 588.837 768.367 588.837 767.846V766.987C588.837 766.466 589.006 766.023 589.344 765.659C589.709 765.294 590.347 765.112 591.258 765.112C592.17 765.112 592.794 765.294 593.133 765.659C593.498 766.023 593.68 766.466 593.68 766.987V767.846C593.68 768.367 593.498 768.81 593.133 769.174C592.794 769.539 592.17 769.721 591.258 769.721Z" fill="#73A331"/>
<path id="&#60;0_2" d="M542.105 493.295V490.17L558.9 480.445V483.687L545.034 491.537V491.85L558.9 499.701V503.021L542.105 493.295ZM573.922 504.114C572.256 504.114 570.824 503.802 569.626 503.177C568.428 502.526 567.439 501.601 566.657 500.404C565.876 499.206 565.303 497.735 564.939 495.99C564.574 494.246 564.392 492.254 564.392 490.014C564.392 487.801 564.574 485.822 564.939 484.077C565.303 482.307 565.876 480.823 566.657 479.625C567.439 478.427 568.428 477.516 569.626 476.891C570.824 476.24 572.256 475.914 573.922 475.914C575.589 475.914 577.021 476.24 578.219 476.891C579.416 477.516 580.406 478.427 581.187 479.625C581.968 480.823 582.541 482.307 582.906 484.077C583.27 485.822 583.452 487.801 583.452 490.014C583.452 492.254 583.27 494.246 582.906 495.99C582.541 497.735 581.968 499.206 581.187 500.404C580.406 501.601 579.416 502.526 578.219 503.177C577.021 503.802 575.589 504.114 573.922 504.114ZM573.922 501.263C575.016 501.263 575.953 501.055 576.734 500.638C577.516 500.195 578.141 499.583 578.609 498.802C579.104 498.021 579.468 497.084 579.703 495.99C579.937 494.87 580.054 493.621 580.054 492.241V487.788C580.054 486.434 579.937 485.197 579.703 484.077C579.468 482.958 579.104 482.007 578.609 481.226C578.141 480.445 577.516 479.846 576.734 479.429C575.953 478.987 575.016 478.765 573.922 478.765C572.829 478.765 571.891 478.987 571.11 479.429C570.329 479.846 569.691 480.445 569.196 481.226C568.728 482.007 568.376 482.958 568.142 484.077C567.907 485.197 567.79 486.434 567.79 487.788V492.241C567.79 493.621 567.907 494.87 568.142 495.99C568.376 497.084 568.728 498.021 569.196 498.802C569.691 499.583 570.329 500.195 571.11 500.638C571.891 501.055 572.829 501.263 573.922 501.263ZM573.922 492.319C573.011 492.319 572.373 492.136 572.008 491.772C571.67 491.407 571.501 490.965 571.501 490.444V489.585C571.501 489.064 571.67 488.621 572.008 488.257C572.373 487.892 573.011 487.71 573.922 487.71C574.834 487.71 575.459 487.892 575.797 488.257C576.162 488.621 576.344 489.064 576.344 489.585V490.444C576.344 490.965 576.162 491.407 575.797 491.772C575.459 492.136 574.834 492.319 573.922 492.319Z" fill="#73A331"/>
<path id="&#60;0_3" d="M609.14 617.308V614.183L625.935 604.458V607.699L612.07 615.55V615.863L625.935 623.713V627.033L609.14 617.308ZM640.957 628.127C639.291 628.127 637.859 627.814 636.661 627.19C635.463 626.539 634.474 625.614 633.693 624.416C632.911 623.219 632.339 621.747 631.974 620.003C631.609 618.258 631.427 616.266 631.427 614.027C631.427 611.814 631.609 609.835 631.974 608.09C632.339 606.319 632.911 604.835 633.693 603.637C634.474 602.44 635.463 601.528 636.661 600.903C637.859 600.252 639.291 599.927 640.957 599.927C642.624 599.927 644.056 600.252 645.254 600.903C646.452 601.528 647.441 602.44 648.222 603.637C649.003 604.835 649.576 606.319 649.941 608.09C650.305 609.835 650.488 611.814 650.488 614.027C650.488 616.266 650.305 618.258 649.941 620.003C649.576 621.747 649.003 623.219 648.222 624.416C647.441 625.614 646.452 626.539 645.254 627.19C644.056 627.814 642.624 628.127 640.957 628.127ZM640.957 625.276C642.051 625.276 642.988 625.067 643.77 624.651C644.551 624.208 645.176 623.596 645.644 622.815C646.139 622.034 646.504 621.096 646.738 620.003C646.972 618.883 647.09 617.633 647.09 616.253V611.801C647.09 610.447 646.972 609.21 646.738 608.09C646.504 606.97 646.139 606.02 645.644 605.239C645.176 604.458 644.551 603.859 643.77 603.442C642.988 602.999 642.051 602.778 640.957 602.778C639.864 602.778 638.926 602.999 638.145 603.442C637.364 603.859 636.726 604.458 636.231 605.239C635.763 606.02 635.411 606.97 635.177 608.09C634.942 609.21 634.825 610.447 634.825 611.801V616.253C634.825 617.633 634.942 618.883 635.177 620.003C635.411 621.096 635.763 622.034 636.231 622.815C636.726 623.596 637.364 624.208 638.145 624.651C638.926 625.067 639.864 625.276 640.957 625.276ZM640.957 616.331C640.046 616.331 639.408 616.149 639.044 615.785C638.705 615.42 638.536 614.977 638.536 614.457V613.597C638.536 613.076 638.705 612.634 639.044 612.269C639.408 611.905 640.046 611.722 640.957 611.722C641.869 611.722 642.494 611.905 642.832 612.269C643.197 612.634 643.379 613.076 643.379 613.597V614.457C643.379 614.977 643.197 615.42 642.832 615.785C642.494 616.149 641.869 616.331 640.957 616.331Z" fill="#73A331"/>
<path id="Vector 4_2" d="M544.564 542.388L569.094 537.438L552.543 518.669L544.564 542.388ZM603.129 486.632L601.751 484.96C595.348 490.234 588.64 496.951 581.417 504.32C574.168 511.714 566.374 519.791 557.711 527.906L559.193 529.487L560.674 531.069C569.422 522.875 577.295 514.715 584.512 507.354C591.753 499.967 598.308 493.411 604.507 488.305L603.129 486.632Z" fill="#73A331"/>
<path id="Vector 6_2" d="M576.349 605.959L582.487 630.22L600.428 612.774L576.349 605.959ZM634.417 655.352L635.583 653.526C624.677 646.563 608.138 634.423 591.45 618.383L589.949 619.945L588.447 621.508C605.36 637.765 622.128 650.079 633.251 657.179L634.417 655.352Z" fill="#73A331"/>
</g>
<g id="example_2" opacity="0.1">
<circle id="Ellipse 3" cx="1350.28" cy="606.596" r="45.2874" stroke="#3867D6" stroke-width="4.83066"/>
<circle id="Ellipse 4" cx="1640.08" cy="606.596" r="45.2874" stroke="#3867D6" stroke-width="4.83066"/>
<path id="Rectangle 3" d="M1106.24 566.349V646.055H1026.53V566.349H1106.24Z" stroke="#EB3B5A" stroke-width="4.83066"/>
<path id="Vector 8" d="M1088.75 551.307L1103.31 541.72L1087.72 533.905L1088.75 551.307ZM1094.84 539.163L1096.23 539.744C1103.97 521.17 1102.47 506.694 1095.92 496.943C1089.4 487.227 1078.08 482.528 1066.86 483.089C1055.61 483.652 1044.34 489.495 1037.88 500.989C1031.43 512.479 1029.92 529.363 1037.62 551.797L1039.05 551.307L1040.47 550.816C1032.95 528.91 1034.61 512.978 1040.51 502.468C1046.42 491.962 1056.7 486.62 1067.01 486.105C1077.34 485.588 1087.57 489.916 1093.42 498.625C1099.24 507.299 1100.92 520.646 1093.44 538.583L1094.84 539.163Z" fill="black"/>
<path id="Vector 9" d="M1662.31 551.307L1676.87 541.72L1661.29 533.905L1662.31 551.307ZM1668.4 539.163L1669.79 539.744C1677.53 521.17 1676.03 506.694 1669.49 496.943C1662.97 487.227 1651.65 482.528 1640.42 483.089C1629.17 483.652 1617.9 489.495 1611.44 500.989C1604.99 512.479 1603.48 529.363 1611.18 551.797L1612.61 551.307L1614.04 550.816C1606.52 528.91 1608.17 512.978 1614.08 502.468C1619.98 491.962 1630.26 486.62 1640.57 486.105C1650.9 485.588 1661.14 489.916 1666.98 498.625C1672.8 507.299 1674.48 520.646 1667.01 538.583L1668.4 539.163Z" fill="black"/>
<path id="3_2" d="M1068.45 455.892C1070.53 455.892 1072.09 455.435 1073.12 454.521C1074.17 453.578 1074.7 452.379 1074.7 450.922V450.622C1074.7 449.023 1074.19 447.823 1073.16 447.024C1072.16 446.224 1070.84 445.824 1069.22 445.824C1067.62 445.824 1066.32 446.181 1065.32 446.895C1064.35 447.581 1063.55 448.495 1062.92 449.637L1060.22 447.581C1060.59 446.981 1061.05 446.395 1061.59 445.824C1062.13 445.224 1062.76 444.696 1063.48 444.239C1064.22 443.782 1065.06 443.411 1066 443.125C1066.97 442.84 1068.07 442.697 1069.3 442.697C1070.59 442.697 1071.79 442.868 1072.9 443.211C1074.01 443.525 1074.99 444.011 1075.81 444.668C1076.64 445.296 1077.29 446.081 1077.74 447.024C1078.23 447.966 1078.47 449.037 1078.47 450.237C1078.47 451.208 1078.31 452.079 1078 452.85C1077.71 453.621 1077.3 454.292 1076.76 454.863C1076.24 455.435 1075.63 455.92 1074.91 456.32C1074.2 456.72 1073.44 457.02 1072.64 457.22V457.391C1073.47 457.562 1074.27 457.848 1075.04 458.248C1075.81 458.619 1076.5 459.119 1077.1 459.747C1077.7 460.347 1078.17 461.09 1078.51 461.975C1078.88 462.832 1079.07 463.817 1079.07 464.931C1079.07 466.216 1078.81 467.401 1078.3 468.487C1077.81 469.543 1077.11 470.457 1076.2 471.228C1075.31 471.971 1074.23 472.556 1072.94 472.985C1071.69 473.413 1070.29 473.627 1068.75 473.627C1067.43 473.627 1066.26 473.485 1065.23 473.199C1064.23 472.913 1063.33 472.528 1062.53 472.042C1061.76 471.557 1061.08 471.014 1060.48 470.414C1059.91 469.815 1059.39 469.186 1058.94 468.529L1061.63 466.473C1062.03 467.073 1062.45 467.615 1062.88 468.101C1063.3 468.587 1063.79 469.015 1064.33 469.386C1064.9 469.729 1065.55 470 1066.26 470.2C1066.97 470.4 1067.8 470.5 1068.75 470.5C1070.86 470.5 1072.47 470.015 1073.59 469.043C1074.73 468.072 1075.3 466.687 1075.3 464.888V464.545C1075.3 462.775 1074.74 461.404 1073.63 460.433C1072.54 459.462 1070.9 458.976 1068.7 458.976H1065.15V455.892H1068.45Z" fill="black"/>
<path id="-2" d="M1607.84 460.629V457.031H1620.26V460.629H1607.84ZM1649.89 471.854H1629.92V468.169L1639.91 459.173C1641.36 457.859 1642.56 456.517 1643.5 455.146C1644.45 453.746 1644.92 452.276 1644.92 450.733V450.219C1644.92 448.42 1644.45 447.035 1643.5 446.064C1642.56 445.064 1641.16 444.564 1639.31 444.564C1637.48 444.564 1636.06 445.036 1635.07 445.978C1634.09 446.892 1633.37 448.12 1632.88 449.662L1629.67 448.463C1629.95 447.578 1630.34 446.721 1630.82 445.892C1631.34 445.036 1631.98 444.279 1632.75 443.622C1633.52 442.965 1634.45 442.437 1635.54 442.037C1636.65 441.637 1637.94 441.437 1639.39 441.437C1640.88 441.437 1642.19 441.651 1643.33 442.08C1644.5 442.508 1645.48 443.108 1646.25 443.879C1647.05 444.65 1647.65 445.564 1648.05 446.621C1648.47 447.677 1648.69 448.834 1648.69 450.091C1648.69 451.233 1648.52 452.304 1648.17 453.304C1647.86 454.303 1647.4 455.26 1646.8 456.174C1646.23 457.088 1645.53 457.988 1644.7 458.873C1643.9 459.73 1643 460.587 1642.01 461.443L1633.65 468.726H1649.89V471.854Z" fill="black"/>
<path id="Arrow 1" d="M1133.72 606.773L1148.84 615.503V598.044L1133.72 606.773ZM1277.38 606.773V605.261L1147.32 605.261V606.773V608.285L1277.38 608.285V606.773Z" fill="black"/>
<path id="Arrow 2" d="M1567.2 606.773L1552.08 615.503V598.044L1567.2 606.773ZM1423.54 606.773V605.261L1553.59 605.261V606.773V608.285L1423.54 608.285V606.773Z" fill="black"/>
<path id="-1" d="M1188.26 575.289V571.69H1200.68V575.289H1188.26ZM1210.95 586.513V583.385H1219.51V559.266H1219.21L1211.67 566.292L1209.57 564.022L1217.5 556.61H1223.11V583.385H1230.99V586.513H1210.95Z" fill="black"/>
<path id="4" d="M1487.61 586.513V580.644H1472.87V577.473L1485.81 556.61H1491.03V577.688H1495.49V580.644H1491.03V586.513H1487.61ZM1476.08 577.688H1487.61V559.395H1487.44L1476.08 577.688Z" fill="black"/>
</g>
<path id="Example_1" opacity="0.1" d="M259.397 325.854H237.557V324.494C238.571 324.494 239.344 324.427 239.877 324.294C240.437 324.134 240.824 323.814 241.037 323.334C241.251 322.827 241.357 322.054 241.357 321.014V304.614C241.357 303.6 241.264 302.827 241.077 302.294C240.891 301.76 240.531 301.4 239.997 301.214C239.464 301.027 238.651 300.934 237.557 300.934V299.574H258.997L259.237 306.334H257.717C257.531 305.054 257.251 304.08 256.877 303.414C256.531 302.72 255.931 302.254 255.077 302.014C254.251 301.747 253.037 301.614 251.437 301.614H245.757V311.454H250.077C251.357 311.454 252.304 311.36 252.917 311.174C253.557 310.987 253.984 310.627 254.197 310.094C254.411 309.534 254.517 308.72 254.517 307.654H255.997V316.934H254.517C254.517 315.814 254.411 315 254.197 314.494C253.984 313.96 253.557 313.614 252.917 313.454C252.304 313.294 251.357 313.214 250.077 313.214H245.757V323.894H250.797C252.264 323.894 253.451 323.814 254.357 323.654C255.291 323.494 256.024 323.214 256.557 322.814C257.091 322.414 257.531 321.854 257.877 321.134C258.251 320.387 258.624 319.44 258.997 318.294H260.477L259.397 325.854ZM281.586 325.854H272.426V324.574C273.119 324.574 273.599 324.507 273.866 324.374C274.159 324.214 274.306 323.96 274.306 323.614C274.306 323.294 274.199 322.974 273.986 322.654L271.666 319.134L270.666 317.414L270.026 316.854L265.546 310.654C265.093 309.987 264.679 309.48 264.306 309.134C263.959 308.787 263.599 308.547 263.226 308.414C262.879 308.28 262.426 308.214 261.866 308.214V306.934H271.186V308.174C269.959 308.174 269.346 308.48 269.346 309.094C269.346 309.28 269.413 309.507 269.546 309.774C269.706 310.04 269.933 310.4 270.226 310.854C270.546 311.307 270.946 311.92 271.426 312.694L272.466 314.614L273.106 315.054L278.306 322.174C278.893 322.974 279.386 323.574 279.786 323.974C280.213 324.374 280.813 324.574 281.586 324.574V325.854ZM268.346 325.854H261.466V324.574C262.159 324.574 262.719 324.427 263.146 324.134C263.599 323.84 264.159 323.307 264.826 322.534L270.026 316.214L271.306 317.774H270.706L267.666 322.054C267.399 322.454 267.159 322.814 266.946 323.134C266.733 323.454 266.626 323.707 266.626 323.894C266.626 324.134 266.746 324.307 266.986 324.414C267.253 324.52 267.706 324.574 268.346 324.574V325.854ZM277.706 310.054L273.106 315.614L271.906 314.294H272.466L274.226 311.854C274.813 311.107 275.199 310.547 275.386 310.174C275.573 309.8 275.666 309.454 275.666 309.134C275.666 308.84 275.546 308.614 275.306 308.454C275.066 308.267 274.639 308.174 274.026 308.174V306.934H280.866V308.214C280.199 308.214 279.626 308.374 279.146 308.694C278.666 309.014 278.186 309.467 277.706 310.054ZM287.711 326.174C286.191 326.174 284.991 325.774 284.111 324.974C283.257 324.174 282.831 323.08 282.831 321.694C282.831 320.6 283.071 319.68 283.551 318.934C284.057 318.187 284.711 317.56 285.511 317.054C286.311 316.547 287.177 316.134 288.111 315.814C289.071 315.467 290.004 315.174 290.911 314.934C291.817 314.694 292.631 314.467 293.351 314.254V312.414C293.351 310.707 293.084 309.52 292.551 308.854C292.044 308.187 291.231 307.854 290.111 307.854C289.071 307.854 288.391 308.08 288.071 308.534C287.777 308.96 287.631 309.774 287.631 310.974C287.631 311.667 287.444 312.187 287.071 312.534C286.697 312.854 286.204 313.014 285.591 313.014C285.137 313.014 284.697 312.84 284.271 312.494C283.871 312.147 283.671 311.6 283.671 310.854C283.671 310.107 283.964 309.4 284.551 308.734C285.137 308.04 285.964 307.494 287.031 307.094C288.124 306.667 289.404 306.454 290.871 306.454C293.164 306.454 294.831 306.947 295.871 307.934C296.911 308.92 297.431 310.48 297.431 312.614V321.574C297.431 322.4 297.524 322.934 297.711 323.174C297.897 323.414 298.204 323.534 298.631 323.534C299.004 323.534 299.337 323.44 299.631 323.254C299.951 323.04 300.257 322.787 300.551 322.494L301.231 323.214C300.564 324.174 299.897 324.907 299.231 325.414C298.564 325.894 297.644 326.134 296.471 326.134C295.377 326.134 294.657 325.88 294.311 325.374C293.964 324.84 293.724 324.067 293.591 323.054L293.351 322.454V315.654C292.204 315.947 291.151 316.294 290.191 316.694C289.257 317.067 288.497 317.574 287.911 318.214C287.351 318.827 287.071 319.64 287.071 320.654C287.071 321.64 287.297 322.414 287.751 322.974C288.204 323.507 288.831 323.774 289.631 323.774C290.271 323.774 290.924 323.614 291.591 323.294C292.284 322.974 292.991 322.48 293.711 321.814L293.991 323.494H293.471C292.857 324.027 292.271 324.507 291.711 324.934C291.177 325.334 290.591 325.64 289.951 325.854C289.337 326.067 288.591 326.174 287.711 326.174ZM324.035 325.854H314.075V324.574C314.982 324.574 315.635 324.48 316.035 324.294C316.435 324.107 316.689 323.774 316.795 323.294C316.929 322.814 316.995 322.134 316.995 321.254V313.894C316.995 312.107 316.702 310.92 316.115 310.334C315.555 309.72 314.809 309.414 313.875 309.414C313.182 309.414 312.529 309.56 311.915 309.854C311.329 310.12 310.782 310.454 310.275 310.854C309.769 311.227 309.329 311.614 308.955 312.014L308.635 309.814H309.315C310.329 308.907 311.329 308.12 312.315 307.454C313.329 306.787 314.515 306.454 315.875 306.454C317.262 306.454 318.355 306.84 319.155 307.614C319.982 308.36 320.555 309.347 320.875 310.574C320.929 310.76 320.969 310.96 320.995 311.174C321.022 311.36 321.049 311.56 321.075 311.774V321.254C321.075 322.107 321.129 322.774 321.235 323.254C321.369 323.734 321.649 324.08 322.075 324.294C322.502 324.48 323.155 324.574 324.035 324.574V325.854ZM312.195 325.854H302.395V324.574C303.249 324.574 303.862 324.494 304.235 324.334C304.635 324.174 304.889 323.894 304.995 323.494C305.102 323.067 305.155 322.467 305.155 321.694V310.774C305.155 310.027 305.022 309.547 304.755 309.334C304.489 309.094 304.075 308.974 303.515 308.974C303.195 308.974 302.929 308.987 302.715 309.014C302.529 309.04 302.435 309.054 302.435 309.054V307.734L307.795 306.574H309.115V310.294L309.235 311.254V321.774C309.235 322.52 309.302 323.094 309.435 323.494C309.595 323.894 309.889 324.174 310.315 324.334C310.742 324.494 311.369 324.574 312.195 324.574V325.854ZM335.635 325.854H325.955V324.574C326.835 324.574 327.462 324.467 327.835 324.254C328.235 324.014 328.475 323.654 328.555 323.174C328.662 322.694 328.715 322.054 328.715 321.254V314.054C328.715 312.8 328.569 311.854 328.275 311.214C328.009 310.547 327.622 310.08 327.115 309.814C326.635 309.547 326.075 309.414 325.435 309.414C324.582 309.414 323.742 309.694 322.915 310.254C322.089 310.814 321.355 311.387 320.715 311.974L320.195 309.894H320.835C321.902 308.8 322.955 307.96 323.995 307.374C325.062 306.76 326.169 306.454 327.315 306.454C328.995 306.454 330.329 307 331.315 308.094C332.302 309.16 332.795 310.934 332.795 313.414V321.254C332.795 322.054 332.849 322.707 332.955 323.214C333.062 323.694 333.315 324.04 333.715 324.254C334.115 324.467 334.755 324.574 335.635 324.574V325.854ZM348.109 334.654H337.229V333.374C338.482 333.374 339.282 333.174 339.629 332.774C339.975 332.374 340.149 331.614 340.149 330.494V310.974C340.149 310.2 340.055 309.667 339.869 309.374C339.709 309.054 339.295 308.894 338.629 308.894C338.362 308.894 338.082 308.907 337.789 308.934C337.495 308.96 337.349 308.974 337.349 308.974V307.654L342.749 306.534H344.149V309.894H344.309C345.295 308.8 346.282 307.96 347.269 307.374C348.255 306.76 349.349 306.454 350.549 306.454C351.882 306.454 353.042 306.814 354.029 307.534C355.015 308.254 355.789 309.28 356.349 310.614C356.909 311.947 357.189 313.547 357.189 315.414C357.189 317.68 356.789 319.627 355.989 321.254C355.215 322.854 354.162 324.094 352.829 324.974C351.495 325.827 350.029 326.254 348.429 326.254C347.655 326.254 346.935 326.174 346.269 326.014C345.602 325.854 344.975 325.574 344.389 325.174H344.229V330.214C344.229 331.067 344.335 331.72 344.549 332.174C344.762 332.627 345.149 332.934 345.709 333.094C346.269 333.254 347.069 333.334 348.109 333.334V334.654ZM348.229 324.494C349.535 324.494 350.615 323.867 351.469 322.614C352.322 321.334 352.749 319.307 352.749 316.534C352.749 314.08 352.375 312.294 351.629 311.174C350.909 310.054 349.882 309.494 348.549 309.494C347.562 309.494 346.695 309.76 345.949 310.294C345.202 310.8 344.629 311.294 344.229 311.774V322.054C344.469 322.32 344.775 322.654 345.149 323.054C345.522 323.427 345.962 323.76 346.469 324.054C346.975 324.347 347.562 324.494 348.229 324.494ZM369.619 325.854H359.619V324.574C360.499 324.574 361.139 324.494 361.539 324.334C361.939 324.147 362.179 323.84 362.259 323.414C362.366 322.987 362.419 322.414 362.419 321.694V301.854C362.419 301.027 362.246 300.534 361.899 300.374C361.579 300.214 361.166 300.134 360.659 300.134C360.312 300.134 360.019 300.147 359.779 300.174C359.539 300.2 359.419 300.214 359.419 300.214V298.974L364.979 297.614H366.499V321.654C366.499 322.427 366.566 323.027 366.699 323.454C366.832 323.854 367.112 324.147 367.539 324.334C367.966 324.494 368.659 324.574 369.619 324.574V325.854ZM380.454 326.254C378.747 326.254 377.227 325.88 375.894 325.134C374.587 324.387 373.561 323.28 372.814 321.814C372.094 320.32 371.734 318.507 371.734 316.374C371.734 314.134 372.134 312.28 372.934 310.814C373.734 309.347 374.801 308.254 376.134 307.534C377.467 306.814 378.947 306.454 380.574 306.454C382.867 306.454 384.707 307.214 386.094 308.734C387.481 310.254 388.214 312.454 388.294 315.334H375.414L375.374 313.734H383.774C383.747 312.694 383.601 311.747 383.334 310.894C383.067 310.04 382.654 309.36 382.094 308.854C381.561 308.347 380.854 308.094 379.974 308.094C378.534 308.094 377.467 308.68 376.774 309.854C376.107 311.027 375.774 312.747 375.774 315.014C375.774 316.827 376.041 318.32 376.574 319.494C377.107 320.64 377.827 321.494 378.734 322.054C379.641 322.587 380.654 322.854 381.774 322.854C382.841 322.854 383.721 322.72 384.414 322.454C385.134 322.187 385.734 321.827 386.214 321.374C386.721 320.92 387.187 320.414 387.614 319.854L388.454 320.494C388.081 321.24 387.667 321.974 387.214 322.694C386.761 323.387 386.227 324 385.614 324.534C385.027 325.067 384.307 325.494 383.454 325.814C382.627 326.107 381.627 326.254 380.454 326.254ZM416.527 325.854H401.807V324.534C403.7 324.534 405.034 324.334 405.807 323.934C406.607 323.534 407.007 322.84 407.007 321.854V305.374C407.007 304.68 406.914 304.187 406.727 303.894C406.54 303.574 406.194 303.414 405.687 303.414C405.42 303.414 405.034 303.44 404.527 303.494C404.047 303.547 403.54 303.614 403.007 303.694C402.474 303.774 401.994 303.88 401.567 304.014V302.494L409.647 300.294H411.287V321.854C411.287 322.84 411.7 323.534 412.527 323.934C413.354 324.334 414.687 324.534 416.527 324.534V325.854Z" fill="black"/>
<path id="Example_2" opacity="0.1" d="M907.397 325.854H885.557V324.494C886.571 324.494 887.344 324.427 887.877 324.294C888.437 324.134 888.824 323.814 889.037 323.334C889.251 322.827 889.357 322.054 889.357 321.014V304.614C889.357 303.6 889.264 302.827 889.077 302.294C888.891 301.76 888.531 301.4 887.997 301.214C887.464 301.027 886.651 300.934 885.557 300.934V299.574H906.997L907.237 306.334H905.717C905.531 305.054 905.251 304.08 904.877 303.414C904.531 302.72 903.931 302.254 903.077 302.014C902.251 301.747 901.037 301.614 899.437 301.614H893.757V311.454H898.077C899.357 311.454 900.304 311.36 900.917 311.174C901.557 310.987 901.984 310.627 902.197 310.094C902.411 309.534 902.517 308.72 902.517 307.654H903.997V316.934H902.517C902.517 315.814 902.411 315 902.197 314.494C901.984 313.96 901.557 313.614 900.917 313.454C900.304 313.294 899.357 313.214 898.077 313.214H893.757V323.894H898.797C900.264 323.894 901.451 323.814 902.357 323.654C903.291 323.494 904.024 323.214 904.557 322.814C905.091 322.414 905.531 321.854 905.877 321.134C906.251 320.387 906.624 319.44 906.997 318.294H908.477L907.397 325.854ZM929.586 325.854H920.426V324.574C921.119 324.574 921.599 324.507 921.866 324.374C922.159 324.214 922.306 323.96 922.306 323.614C922.306 323.294 922.199 322.974 921.986 322.654L919.666 319.134L918.666 317.414L918.026 316.854L913.546 310.654C913.093 309.987 912.679 309.48 912.306 309.134C911.959 308.787 911.599 308.547 911.226 308.414C910.879 308.28 910.426 308.214 909.866 308.214V306.934H919.186V308.174C917.959 308.174 917.346 308.48 917.346 309.094C917.346 309.28 917.413 309.507 917.546 309.774C917.706 310.04 917.933 310.4 918.226 310.854C918.546 311.307 918.946 311.92 919.426 312.694L920.466 314.614L921.106 315.054L926.306 322.174C926.893 322.974 927.386 323.574 927.786 323.974C928.213 324.374 928.813 324.574 929.586 324.574V325.854ZM916.346 325.854H909.466V324.574C910.159 324.574 910.719 324.427 911.146 324.134C911.599 323.84 912.159 323.307 912.826 322.534L918.026 316.214L919.306 317.774H918.706L915.666 322.054C915.399 322.454 915.159 322.814 914.946 323.134C914.733 323.454 914.626 323.707 914.626 323.894C914.626 324.134 914.746 324.307 914.986 324.414C915.253 324.52 915.706 324.574 916.346 324.574V325.854ZM925.706 310.054L921.106 315.614L919.906 314.294H920.466L922.226 311.854C922.813 311.107 923.199 310.547 923.386 310.174C923.573 309.8 923.666 309.454 923.666 309.134C923.666 308.84 923.546 308.614 923.306 308.454C923.066 308.267 922.639 308.174 922.026 308.174V306.934H928.866V308.214C928.199 308.214 927.626 308.374 927.146 308.694C926.666 309.014 926.186 309.467 925.706 310.054ZM935.711 326.174C934.191 326.174 932.991 325.774 932.111 324.974C931.257 324.174 930.831 323.08 930.831 321.694C930.831 320.6 931.071 319.68 931.551 318.934C932.057 318.187 932.711 317.56 933.511 317.054C934.311 316.547 935.177 316.134 936.111 315.814C937.071 315.467 938.004 315.174 938.911 314.934C939.817 314.694 940.631 314.467 941.351 314.254V312.414C941.351 310.707 941.084 309.52 940.551 308.854C940.044 308.187 939.231 307.854 938.111 307.854C937.071 307.854 936.391 308.08 936.071 308.534C935.777 308.96 935.631 309.774 935.631 310.974C935.631 311.667 935.444 312.187 935.071 312.534C934.697 312.854 934.204 313.014 933.591 313.014C933.137 313.014 932.697 312.84 932.271 312.494C931.871 312.147 931.671 311.6 931.671 310.854C931.671 310.107 931.964 309.4 932.551 308.734C933.137 308.04 933.964 307.494 935.031 307.094C936.124 306.667 937.404 306.454 938.871 306.454C941.164 306.454 942.831 306.947 943.871 307.934C944.911 308.92 945.431 310.48 945.431 312.614V321.574C945.431 322.4 945.524 322.934 945.711 323.174C945.897 323.414 946.204 323.534 946.631 323.534C947.004 323.534 947.337 323.44 947.631 323.254C947.951 323.04 948.257 322.787 948.551 322.494L949.231 323.214C948.564 324.174 947.897 324.907 947.231 325.414C946.564 325.894 945.644 326.134 944.471 326.134C943.377 326.134 942.657 325.88 942.311 325.374C941.964 324.84 941.724 324.067 941.591 323.054L941.351 322.454V315.654C940.204 315.947 939.151 316.294 938.191 316.694C937.257 317.067 936.497 317.574 935.911 318.214C935.351 318.827 935.071 319.64 935.071 320.654C935.071 321.64 935.297 322.414 935.751 322.974C936.204 323.507 936.831 323.774 937.631 323.774C938.271 323.774 938.924 323.614 939.591 323.294C940.284 322.974 940.991 322.48 941.711 321.814L941.991 323.494H941.471C940.857 324.027 940.271 324.507 939.711 324.934C939.177 325.334 938.591 325.64 937.951 325.854C937.337 326.067 936.591 326.174 935.711 326.174ZM972.035 325.854H962.075V324.574C962.982 324.574 963.635 324.48 964.035 324.294C964.435 324.107 964.689 323.774 964.795 323.294C964.929 322.814 964.995 322.134 964.995 321.254V313.894C964.995 312.107 964.702 310.92 964.115 310.334C963.555 309.72 962.809 309.414 961.875 309.414C961.182 309.414 960.529 309.56 959.915 309.854C959.329 310.12 958.782 310.454 958.275 310.854C957.769 311.227 957.329 311.614 956.955 312.014L956.635 309.814H957.315C958.329 308.907 959.329 308.12 960.315 307.454C961.329 306.787 962.515 306.454 963.875 306.454C965.262 306.454 966.355 306.84 967.155 307.614C967.982 308.36 968.555 309.347 968.875 310.574C968.929 310.76 968.969 310.96 968.995 311.174C969.022 311.36 969.049 311.56 969.075 311.774V321.254C969.075 322.107 969.129 322.774 969.235 323.254C969.369 323.734 969.649 324.08 970.075 324.294C970.502 324.48 971.155 324.574 972.035 324.574V325.854ZM960.195 325.854H950.395V324.574C951.249 324.574 951.862 324.494 952.235 324.334C952.635 324.174 952.889 323.894 952.995 323.494C953.102 323.067 953.155 322.467 953.155 321.694V310.774C953.155 310.027 953.022 309.547 952.755 309.334C952.489 309.094 952.075 308.974 951.515 308.974C951.195 308.974 950.929 308.987 950.715 309.014C950.529 309.04 950.435 309.054 950.435 309.054V307.734L955.795 306.574H957.115V310.294L957.235 311.254V321.774C957.235 322.52 957.302 323.094 957.435 323.494C957.595 323.894 957.889 324.174 958.315 324.334C958.742 324.494 959.369 324.574 960.195 324.574V325.854ZM983.635 325.854H973.955V324.574C974.835 324.574 975.462 324.467 975.835 324.254C976.235 324.014 976.475 323.654 976.555 323.174C976.662 322.694 976.715 322.054 976.715 321.254V314.054C976.715 312.8 976.569 311.854 976.275 311.214C976.009 310.547 975.622 310.08 975.115 309.814C974.635 309.547 974.075 309.414 973.435 309.414C972.582 309.414 971.742 309.694 970.915 310.254C970.089 310.814 969.355 311.387 968.715 311.974L968.195 309.894H968.835C969.902 308.8 970.955 307.96 971.995 307.374C973.062 306.76 974.169 306.454 975.315 306.454C976.995 306.454 978.329 307 979.315 308.094C980.302 309.16 980.795 310.934 980.795 313.414V321.254C980.795 322.054 980.849 322.707 980.955 323.214C981.062 323.694 981.315 324.04 981.715 324.254C982.115 324.467 982.755 324.574 983.635 324.574V325.854ZM996.109 334.654H985.229V333.374C986.482 333.374 987.282 333.174 987.629 332.774C987.975 332.374 988.149 331.614 988.149 330.494V310.974C988.149 310.2 988.055 309.667 987.869 309.374C987.709 309.054 987.295 308.894 986.629 308.894C986.362 308.894 986.082 308.907 985.789 308.934C985.495 308.96 985.349 308.974 985.349 308.974V307.654L990.749 306.534H992.149V309.894H992.309C993.295 308.8 994.282 307.96 995.269 307.374C996.255 306.76 997.349 306.454 998.549 306.454C999.882 306.454 1001.04 306.814 1002.03 307.534C1003.02 308.254 1003.79 309.28 1004.35 310.614C1004.91 311.947 1005.19 313.547 1005.19 315.414C1005.19 317.68 1004.79 319.627 1003.99 321.254C1003.22 322.854 1002.16 324.094 1000.83 324.974C999.495 325.827 998.029 326.254 996.429 326.254C995.655 326.254 994.935 326.174 994.269 326.014C993.602 325.854 992.975 325.574 992.389 325.174H992.229V330.214C992.229 331.067 992.335 331.72 992.549 332.174C992.762 332.627 993.149 332.934 993.709 333.094C994.269 333.254 995.069 333.334 996.109 333.334V334.654ZM996.229 324.494C997.535 324.494 998.615 323.867 999.469 322.614C1000.32 321.334 1000.75 319.307 1000.75 316.534C1000.75 314.08 1000.38 312.294 999.629 311.174C998.909 310.054 997.882 309.494 996.549 309.494C995.562 309.494 994.695 309.76 993.949 310.294C993.202 310.8 992.629 311.294 992.229 311.774V322.054C992.469 322.32 992.775 322.654 993.149 323.054C993.522 323.427 993.962 323.76 994.469 324.054C994.975 324.347 995.562 324.494 996.229 324.494ZM1017.62 325.854H1007.62V324.574C1008.5 324.574 1009.14 324.494 1009.54 324.334C1009.94 324.147 1010.18 323.84 1010.26 323.414C1010.37 322.987 1010.42 322.414 1010.42 321.694V301.854C1010.42 301.027 1010.25 300.534 1009.9 300.374C1009.58 300.214 1009.17 300.134 1008.66 300.134C1008.31 300.134 1008.02 300.147 1007.78 300.174C1007.54 300.2 1007.42 300.214 1007.42 300.214V298.974L1012.98 297.614H1014.5V321.654C1014.5 322.427 1014.57 323.027 1014.7 323.454C1014.83 323.854 1015.11 324.147 1015.54 324.334C1015.97 324.494 1016.66 324.574 1017.62 324.574V325.854ZM1028.45 326.254C1026.75 326.254 1025.23 325.88 1023.89 325.134C1022.59 324.387 1021.56 323.28 1020.81 321.814C1020.09 320.32 1019.73 318.507 1019.73 316.374C1019.73 314.134 1020.13 312.28 1020.93 310.814C1021.73 309.347 1022.8 308.254 1024.13 307.534C1025.47 306.814 1026.95 306.454 1028.57 306.454C1030.87 306.454 1032.71 307.214 1034.09 308.734C1035.48 310.254 1036.21 312.454 1036.29 315.334H1023.41L1023.37 313.734H1031.77C1031.75 312.694 1031.6 311.747 1031.33 310.894C1031.07 310.04 1030.65 309.36 1030.09 308.854C1029.56 308.347 1028.85 308.094 1027.97 308.094C1026.53 308.094 1025.47 308.68 1024.77 309.854C1024.11 311.027 1023.77 312.747 1023.77 315.014C1023.77 316.827 1024.04 318.32 1024.57 319.494C1025.11 320.64 1025.83 321.494 1026.73 322.054C1027.64 322.587 1028.65 322.854 1029.77 322.854C1030.84 322.854 1031.72 322.72 1032.41 322.454C1033.13 322.187 1033.73 321.827 1034.21 321.374C1034.72 320.92 1035.19 320.414 1035.61 319.854L1036.45 320.494C1036.08 321.24 1035.67 321.974 1035.21 322.694C1034.76 323.387 1034.23 324 1033.61 324.534C1033.03 325.067 1032.31 325.494 1031.45 325.814C1030.63 326.107 1029.63 326.254 1028.45 326.254ZM1064.33 325.854H1048.45V324.094L1054.25 318.254C1055.53 316.92 1056.59 315.707 1057.45 314.614C1058.33 313.52 1058.98 312.414 1059.41 311.294C1059.83 310.174 1060.05 308.907 1060.05 307.494C1060.05 306.08 1059.65 304.947 1058.85 304.094C1058.05 303.24 1056.91 302.814 1055.45 302.814C1054.19 302.814 1053.11 303.08 1052.21 303.614C1051.33 304.147 1050.53 305.147 1049.81 306.614L1048.61 306.134C1049.25 304.187 1050.26 302.68 1051.65 301.614C1053.06 300.547 1054.77 300.014 1056.77 300.014C1058.29 300.014 1059.62 300.307 1060.77 300.894C1061.94 301.454 1062.86 302.254 1063.53 303.294C1064.19 304.307 1064.53 305.507 1064.53 306.894C1064.53 308.12 1064.27 309.28 1063.77 310.374C1063.26 311.44 1062.5 312.547 1061.49 313.694C1060.5 314.814 1059.27 316.08 1057.81 317.494L1052.73 322.134V322.374L1055.45 322.214H1060.69C1061.75 322.214 1062.5 321.974 1062.93 321.494C1063.35 320.987 1063.79 320.134 1064.25 318.934H1065.61L1064.33 325.854Z" fill="black"/>
</g>
</svg>
